<?xml version="1.0" encoding="UTF-8" standalone="no"?>
<!DOCTYPE svg PUBLIC "-//W3C//DTD SVG 1.1//EN"
 "http://www.w3.org/Graphics/SVG/1.1/DTD/svg11.dtd">
<!-- Generated by graphviz version 2.38.0 (20140413.2041)
 -->
<!-- Title: /home/travis/build/ADVRHumanoids/ROSEndEffector/src/GraspingActions/Action.cpp Pages: 1 -->
<svg width="857pt" height="229pt"
 viewBox="0.00 0.00 856.50 229.00" xmlns="http://www.w3.org/2000/svg" xmlns:xlink="http://www.w3.org/1999/xlink">
<g id="graph0" class="graph" transform="scale(1 1) rotate(0) translate(4 225)">
<title>/home/travis/build/ADVRHumanoids/ROSEndEffector/src/GraspingActions/Action.cpp</title>
<!-- Node1 -->
<g id="node1" class="node"><title>Node1</title>
<polygon fill="#bfbfbf" stroke="black" points="142,-179.5 142,-220.5 321,-220.5 321,-179.5 142,-179.5"/>
<text text-anchor="start" x="150" y="-208.5" font-family="Helvetica,sans-Serif" font-size="10.00">/home/travis/build</text>
<text text-anchor="start" x="150" y="-197.5" font-family="Helvetica,sans-Serif" font-size="10.00">/ADVRHumanoids/ROSEndEffector</text>
<text text-anchor="middle" x="231.5" y="-186.5" font-family="Helvetica,sans-Serif" font-size="10.00">/src/GraspingActions/Action.cpp</text>
</g>
<!-- Node2 -->
<g id="node2" class="node"><title>Node2</title>
<g id="a_node2"><a xlink:href="Action_8h.html" target="_top" xlink:title="end_effector/GraspingActions\l/Action.h">
<polygon fill="none" stroke="black" points="152.5,-112.5 152.5,-142.5 310.5,-142.5 310.5,-112.5 152.5,-112.5"/>
<text text-anchor="start" x="160.5" y="-130.5" font-family="Helvetica,sans-Serif" font-size="10.00">end_effector/GraspingActions</text>
<text text-anchor="middle" x="231.5" y="-119.5" font-family="Helvetica,sans-Serif" font-size="10.00">/Action.h</text>
</a>
</g>
</g>
<!-- Node1&#45;&gt;Node2 -->
<g id="edge1" class="edge"><title>Node1&#45;&gt;Node2</title>
<path fill="none" stroke="midnightblue" d="M231.5,-179.362C231.5,-171.226 231.5,-161.7 231.5,-153.105"/>
<polygon fill="midnightblue" stroke="midnightblue" points="235,-152.892 231.5,-142.892 228,-152.892 235,-152.892"/>
</g>
<!-- Node3 -->
<g id="node3" class="node"><title>Node3</title>
<polygon fill="none" stroke="#bfbfbf" points="0,-56.5 0,-75.5 47,-75.5 47,-56.5 0,-56.5"/>
<text text-anchor="middle" x="23.5" y="-63.5" font-family="Helvetica,sans-Serif" font-size="10.00">vector</text>
</g>
<!-- Node2&#45;&gt;Node3 -->
<g id="edge2" class="edge"><title>Node2&#45;&gt;Node3</title>
<path fill="none" stroke="midnightblue" d="M182.47,-112.475C143.83,-101.421 90.983,-86.304 57.0393,-76.5942"/>
<polygon fill="midnightblue" stroke="midnightblue" points="57.7256,-73.1502 47.1487,-73.7649 55.8004,-79.8802 57.7256,-73.1502"/>
</g>
<!-- Node4 -->
<g id="node4" class="node"><title>Node4</title>
<polygon fill="none" stroke="#bfbfbf" points="65.5,-56.5 65.5,-75.5 109.5,-75.5 109.5,-56.5 65.5,-56.5"/>
<text text-anchor="middle" x="87.5" y="-63.5" font-family="Helvetica,sans-Serif" font-size="10.00">string</text>
</g>
<!-- Node2&#45;&gt;Node4 -->
<g id="edge3" class="edge"><title>Node2&#45;&gt;Node4</title>
<path fill="none" stroke="midnightblue" d="M197.374,-112.399C173.213,-102.416 141.098,-89.1465 117.833,-79.5335"/>
<polygon fill="midnightblue" stroke="midnightblue" points="119.032,-76.2419 108.453,-75.6578 116.359,-82.7114 119.032,-76.2419"/>
</g>
<!-- Node5 -->
<g id="node5" class="node"><title>Node5</title>
<polygon fill="none" stroke="#bfbfbf" points="127.5,-56.5 127.5,-75.5 165.5,-75.5 165.5,-56.5 127.5,-56.5"/>
<text text-anchor="middle" x="146.5" y="-63.5" font-family="Helvetica,sans-Serif" font-size="10.00">map</text>
</g>
<!-- Node2&#45;&gt;Node5 -->
<g id="edge4" class="edge"><title>Node2&#45;&gt;Node5</title>
<path fill="none" stroke="midnightblue" d="M211.356,-112.399C198.113,-103.129 180.822,-91.0254 167.424,-81.6469"/>
<polygon fill="midnightblue" stroke="midnightblue" points="169.068,-78.5251 158.868,-75.6578 165.053,-84.2598 169.068,-78.5251"/>
</g>
<!-- Node6 -->
<g id="node6" class="node"><title>Node6</title>
<polygon fill="none" stroke="#bfbfbf" points="183.5,-56.5 183.5,-75.5 279.5,-75.5 279.5,-56.5 183.5,-56.5"/>
<text text-anchor="middle" x="231.5" y="-63.5" font-family="Helvetica,sans-Serif" font-size="10.00">yaml&#45;cpp/yaml.h</text>
</g>
<!-- Node2&#45;&gt;Node6 -->
<g id="edge5" class="edge"><title>Node2&#45;&gt;Node6</title>
<path fill="none" stroke="midnightblue" d="M231.5,-112.399C231.5,-104.466 231.5,-94.458 231.5,-85.8583"/>
<polygon fill="midnightblue" stroke="midnightblue" points="235,-85.6577 231.5,-75.6578 228,-85.6578 235,-85.6577"/>
</g>
<!-- Node7 -->
<g id="node7" class="node"><title>Node7</title>
<polygon fill="none" stroke="#bfbfbf" points="241,-0.5 241,-19.5 298,-19.5 298,-0.5 241,-0.5"/>
<text text-anchor="middle" x="269.5" y="-7.5" font-family="Helvetica,sans-Serif" font-size="10.00">memory</text>
</g>
<!-- Node2&#45;&gt;Node7 -->
<g id="edge6" class="edge"><title>Node2&#45;&gt;Node7</title>
<path fill="none" stroke="midnightblue" d="M255.379,-112.41C267.748,-103.662 281.663,-91.1909 288.5,-76 295.489,-60.471 288.487,-41.7064 281.089,-28.3387"/>
<polygon fill="midnightblue" stroke="midnightblue" points="284.011,-26.4089 275.826,-19.6823 278.03,-30.0453 284.011,-26.4089"/>
</g>
<!-- Node8 -->
<g id="node8" class="node"><title>Node8</title>
<polygon fill="none" stroke="#bfbfbf" points="316,-0.5 316,-19.5 375,-19.5 375,-0.5 316,-0.5"/>
<text text-anchor="middle" x="345.5" y="-7.5" font-family="Helvetica,sans-Serif" font-size="10.00">iostream</text>
</g>
<!-- Node2&#45;&gt;Node8 -->
<g id="edge7" class="edge"><title>Node2&#45;&gt;Node8</title>
<path fill="none" stroke="midnightblue" d="M257.07,-112.353C272.03,-103.26 290.638,-90.4635 304.5,-76 318.02,-61.8931 329.49,-42.6537 336.83,-28.7711"/>
<polygon fill="midnightblue" stroke="midnightblue" points="340,-30.2591 341.415,-19.7592 333.761,-27.0848 340,-30.2591"/>
</g>
<!-- Node9 -->
<g id="node9" class="node"><title>Node9</title>
<g id="a_node9"><a xlink:href="Utils_8h.html" target="_top" xlink:title="end_effector/Utils.h">
<polygon fill="none" stroke="black" points="427.5,-56.5 427.5,-75.5 537.5,-75.5 537.5,-56.5 427.5,-56.5"/>
<text text-anchor="middle" x="482.5" y="-63.5" font-family="Helvetica,sans-Serif" font-size="10.00">end_effector/Utils.h</text>
</a>
</g>
</g>
<!-- Node2&#45;&gt;Node9 -->
<g id="edge8" class="edge"><title>Node2&#45;&gt;Node9</title>
<path fill="none" stroke="midnightblue" d="M290.666,-112.475C335.292,-101.896 395.622,-87.5946 436.628,-77.874"/>
<polygon fill="midnightblue" stroke="midnightblue" points="437.693,-81.2187 446.616,-75.5064 436.078,-74.4074 437.693,-81.2187"/>
</g>
<!-- Node9&#45;&gt;Node7 -->
<g id="edge10" class="edge"><title>Node9&#45;&gt;Node7</title>
<path fill="none" stroke="midnightblue" d="M448.75,-56.4435C410.468,-46.7383 348.164,-30.9429 308.013,-20.7639"/>
<polygon fill="midnightblue" stroke="midnightblue" points="308.864,-17.369 298.311,-18.3042 307.144,-24.1544 308.864,-17.369"/>
</g>
<!-- Node9&#45;&gt;Node8 -->
<g id="edge11" class="edge"><title>Node9&#45;&gt;Node8</title>
<path fill="none" stroke="midnightblue" d="M460.792,-56.4435C438.145,-47.5171 402.428,-33.4387 376.748,-23.3168"/>
<polygon fill="midnightblue" stroke="midnightblue" points="377.693,-19.9273 367.106,-19.5164 375.126,-26.4397 377.693,-19.9273"/>
</g>
<!-- Node10 -->
<g id="node10" class="node"><title>Node10</title>
<polygon fill="none" stroke="#bfbfbf" points="393,-0.5 393,-19.5 440,-19.5 440,-0.5 393,-0.5"/>
<text text-anchor="middle" x="416.5" y="-7.5" font-family="Helvetica,sans-Serif" font-size="10.00">cmath</text>
</g>
<!-- Node9&#45;&gt;Node10 -->
<g id="edge9" class="edge"><title>Node9&#45;&gt;Node10</title>
<path fill="none" stroke="midnightblue" d="M471.896,-56.324C462.044,-48.2631 447.149,-36.0765 435.285,-26.3695"/>
<polygon fill="midnightblue" stroke="midnightblue" points="437.253,-23.4575 427.297,-19.8339 432.82,-28.8752 437.253,-23.4575"/>
</g>
<!-- Node11 -->
<g id="node11" class="node"><title>Node11</title>
<polygon fill="none" stroke="#bfbfbf" points="458.5,-0.5 458.5,-19.5 506.5,-19.5 506.5,-0.5 458.5,-0.5"/>
<text text-anchor="middle" x="482.5" y="-7.5" font-family="Helvetica,sans-Serif" font-size="10.00">dlfcn.h</text>
</g>
<!-- Node9&#45;&gt;Node11 -->
<g id="edge12" class="edge"><title>Node9&#45;&gt;Node11</title>
<path fill="none" stroke="midnightblue" d="M482.5,-56.083C482.5,-49.0059 482.5,-38.8611 482.5,-29.9865"/>
<polygon fill="midnightblue" stroke="midnightblue" points="486,-29.751 482.5,-19.7511 479,-29.7511 486,-29.751"/>
</g>
<!-- Node12 -->
<g id="node12" class="node"><title>Node12</title>
<polygon fill="none" stroke="#bfbfbf" points="524.5,-0.5 524.5,-19.5 640.5,-19.5 640.5,-0.5 524.5,-0.5"/>
<text text-anchor="middle" x="582.5" y="-7.5" font-family="Helvetica,sans-Serif" font-size="10.00">boost/filesystem.hpp</text>
</g>
<!-- Node9&#45;&gt;Node12 -->
<g id="edge13" class="edge"><title>Node9&#45;&gt;Node12</title>
<path fill="none" stroke="midnightblue" d="M498.567,-56.324C514.458,-47.7428 539.007,-34.486 557.458,-24.5224"/>
<polygon fill="midnightblue" stroke="midnightblue" points="559.337,-27.4857 566.473,-19.6545 556.011,-21.3264 559.337,-27.4857"/>
</g>
<!-- Node13 -->
<g id="node13" class="node"><title>Node13</title>
<polygon fill="none" stroke="#bfbfbf" points="658.5,-0.5 658.5,-19.5 712.5,-19.5 712.5,-0.5 658.5,-0.5"/>
<text text-anchor="middle" x="685.5" y="-7.5" font-family="Helvetica,sans-Serif" font-size="10.00">fstream</text>
</g>
<!-- Node9&#45;&gt;Node13 -->
<g id="edge14" class="edge"><title>Node9&#45;&gt;Node13</title>
<path fill="none" stroke="midnightblue" d="M514.666,-56.4435C551.099,-46.7521 610.36,-30.9879 648.631,-20.8075"/>
<polygon fill="midnightblue" stroke="midnightblue" points="649.593,-24.1735 658.357,-18.2203 647.793,-17.4087 649.593,-24.1735"/>
</g>
<!-- Node14 -->
<g id="node14" class="node"><title>Node14</title>
<polygon fill="none" stroke="#bfbfbf" points="730.5,-0.5 730.5,-19.5 780.5,-19.5 780.5,-0.5 730.5,-0.5"/>
<text text-anchor="middle" x="755.5" y="-7.5" font-family="Helvetica,sans-Serif" font-size="10.00">chrono</text>
</g>
<!-- Node9&#45;&gt;Node14 -->
<g id="edge15" class="edge"><title>Node9&#45;&gt;Node14</title>
<path fill="none" stroke="midnightblue" d="M533.54,-56.4969C579.9,-48.5241 650.368,-35.7861 720.42,-20.1189"/>
<polygon fill="midnightblue" stroke="midnightblue" points="721.315,-23.5049 730.299,-17.8889 719.774,-16.6767 721.315,-23.5049"/>
</g>
<!-- Node15 -->
<g id="node15" class="node"><title>Node15</title>
<polygon fill="none" stroke="#bfbfbf" points="798.5,-0.5 798.5,-19.5 848.5,-19.5 848.5,-0.5 798.5,-0.5"/>
<text text-anchor="middle" x="823.5" y="-7.5" font-family="Helvetica,sans-Serif" font-size="10.00">atomic</text>
</g>
<!-- Node9&#45;&gt;Node15 -->
<g id="edge16" class="edge"><title>Node9&#45;&gt;Node15</title>
<path fill="none" stroke="midnightblue" d="M537.73,-58.8159C597.333,-51.7147 695.19,-38.8201 788.443,-20.0219"/>
<polygon fill="midnightblue" stroke="midnightblue" points="789.227,-23.4342 798.324,-18.004 787.826,-16.5757 789.227,-23.4342"/>
</g>
</g>
</svg>
