<?xml version="1.0" encoding="UTF-8" standalone="no"?>
<!DOCTYPE svg PUBLIC "-//W3C//DTD SVG 1.1//EN"
 "http://www.w3.org/Graphics/SVG/1.1/DTD/svg11.dtd">
<!-- Generated by graphviz version 2.38.0 (20140413.2041)
 -->
<!-- Title: /home/travis/build/ADVRHumanoids/ROSEndEffector/include/end_effector/GraspingActions/ActionTimed.h Pages: 1 -->
<svg width="945pt" height="462pt"
 viewBox="0.00 0.00 945.34 462.00" xmlns="http://www.w3.org/2000/svg" xmlns:xlink="http://www.w3.org/1999/xlink">
<g id="graph0" class="graph" transform="scale(1 1) rotate(0) translate(4 458)">
<title>/home/travis/build/ADVRHumanoids/ROSEndEffector/include/end_effector/GraspingActions/ActionTimed.h</title>
<!-- Node1 -->
<g id="node1" class="node"><title>Node1</title>
<polygon fill="#bfbfbf" stroke="black" points="345.838,-401.5 345.838,-453.5 542.838,-453.5 542.838,-401.5 345.838,-401.5"/>
<text text-anchor="start" x="353.838" y="-441.5" font-family="Helvetica,sans-Serif" font-size="10.00">/home/travis/build</text>
<text text-anchor="start" x="353.838" y="-430.5" font-family="Helvetica,sans-Serif" font-size="10.00">/ADVRHumanoids/ROSEndEffector</text>
<text text-anchor="start" x="353.838" y="-419.5" font-family="Helvetica,sans-Serif" font-size="10.00">/include/end_effector/GraspingActions</text>
<text text-anchor="middle" x="444.338" y="-408.5" font-family="Helvetica,sans-Serif" font-size="10.00">/ActionTimed.h</text>
</g>
<!-- Node2 -->
<g id="node2" class="node"><title>Node2</title>
<g id="a_node2"><a xlink:href="MapActionHandler_8h.html" target="_top" xlink:title="/home/travis/build\l/ADVRHumanoids/ROSEndEffector\l/include/end_effector/MapActionHandler.h">
<polygon fill="none" stroke="black" points="453.338,-245.5 453.338,-286.5 669.338,-286.5 669.338,-245.5 453.338,-245.5"/>
<text text-anchor="start" x="461.338" y="-274.5" font-family="Helvetica,sans-Serif" font-size="10.00">/home/travis/build</text>
<text text-anchor="start" x="461.338" y="-263.5" font-family="Helvetica,sans-Serif" font-size="10.00">/ADVRHumanoids/ROSEndEffector</text>
<text text-anchor="middle" x="561.338" y="-252.5" font-family="Helvetica,sans-Serif" font-size="10.00">/include/end_effector/MapActionHandler.h</text>
</a>
</g>
</g>
<!-- Node1&#45;&gt;Node2 -->
<g id="edge1" class="edge"><title>Node1&#45;&gt;Node2</title>
<path fill="none" stroke="midnightblue" d="M451.598,-391.467C457.313,-370.099 466.947,-343.121 482.338,-323 493.574,-308.312 509.74,-295.907 524.525,-286.535"/>
<polygon fill="midnightblue" stroke="midnightblue" points="448.132,-390.901 449.099,-401.451 454.922,-392.6 448.132,-390.901"/>
</g>
<!-- Node9 -->
<g id="node9" class="node"><title>Node9</title>
<g id="a_node9"><a xlink:href="UniversalFindActions_8cpp.html" target="_top" xlink:title="/home/travis/build\l/ADVRHumanoids/ROSEndEffector\l/src/UniversalFindActions.cpp">
<polygon fill="none" stroke="black" points="285.838,-167.5 285.838,-208.5 464.838,-208.5 464.838,-167.5 285.838,-167.5"/>
<text text-anchor="start" x="293.838" y="-196.5" font-family="Helvetica,sans-Serif" font-size="10.00">/home/travis/build</text>
<text text-anchor="start" x="293.838" y="-185.5" font-family="Helvetica,sans-Serif" font-size="10.00">/ADVRHumanoids/ROSEndEffector</text>
<text text-anchor="middle" x="375.338" y="-174.5" font-family="Helvetica,sans-Serif" font-size="10.00">/src/UniversalFindActions.cpp</text>
</a>
</g>
</g>
<!-- Node1&#45;&gt;Node9 -->
<g id="edge18" class="edge"><title>Node1&#45;&gt;Node9</title>
<path fill="none" stroke="midnightblue" d="M439.702,-390.889C434.167,-353.683 423.328,-294.018 405.338,-245 400.703,-232.368 393.672,-219.058 387.582,-208.584"/>
<polygon fill="midnightblue" stroke="midnightblue" points="436.3,-391.819 441.188,-401.218 443.228,-390.822 436.3,-391.819"/>
</g>
<!-- Node10 -->
<g id="node10" class="node"><title>Node10</title>
<g id="a_node10"><a xlink:href="YamlWorker_8h.html" target="_top" xlink:title="/home/travis/build\l/ADVRHumanoids/ROSEndEffector\l/include/end_effector/YamlWorker.h">
<polygon fill="none" stroke="black" points="212.838,-323.5 212.838,-364.5 397.838,-364.5 397.838,-323.5 212.838,-323.5"/>
<text text-anchor="start" x="220.838" y="-352.5" font-family="Helvetica,sans-Serif" font-size="10.00">/home/travis/build</text>
<text text-anchor="start" x="220.838" y="-341.5" font-family="Helvetica,sans-Serif" font-size="10.00">/ADVRHumanoids/ROSEndEffector</text>
<text text-anchor="middle" x="305.338" y="-330.5" font-family="Helvetica,sans-Serif" font-size="10.00">/include/end_effector/YamlWorker.h</text>
</a>
</g>
</g>
<!-- Node1&#45;&gt;Node10 -->
<g id="edge10" class="edge"><title>Node1&#45;&gt;Node10</title>
<path fill="none" stroke="midnightblue" d="M392.834,-396.302C374.853,-385.759 355.146,-374.204 338.995,-364.734"/>
<polygon fill="midnightblue" stroke="midnightblue" points="391.103,-399.344 401.5,-401.382 394.643,-393.305 391.103,-399.344"/>
</g>
<!-- Node14 -->
<g id="node14" class="node"><title>Node14</title>
<g id="a_node14"><a xlink:href="ActionTimed_8cpp.html" target="_top" xlink:title="/home/travis/build\l/ADVRHumanoids/ROSEndEffector\l/src/GraspingActions/ActionTimed.cpp">
<polygon fill="none" stroke="black" points="491.838,-323.5 491.838,-364.5 688.838,-364.5 688.838,-323.5 491.838,-323.5"/>
<text text-anchor="start" x="499.838" y="-352.5" font-family="Helvetica,sans-Serif" font-size="10.00">/home/travis/build</text>
<text text-anchor="start" x="499.838" y="-341.5" font-family="Helvetica,sans-Serif" font-size="10.00">/ADVRHumanoids/ROSEndEffector</text>
<text text-anchor="middle" x="590.338" y="-330.5" font-family="Helvetica,sans-Serif" font-size="10.00">/src/GraspingActions/ActionTimed.cpp</text>
</a>
</g>
</g>
<!-- Node1&#45;&gt;Node14 -->
<g id="edge17" class="edge"><title>Node1&#45;&gt;Node14</title>
<path fill="none" stroke="midnightblue" d="M498.179,-396.445C517.135,-385.864 537.945,-374.247 554.987,-364.734"/>
<polygon fill="midnightblue" stroke="midnightblue" points="496.36,-393.452 489.335,-401.382 499.772,-399.564 496.36,-393.452"/>
</g>
<!-- Node3 -->
<g id="node3" class="node"><title>Node3</title>
<g id="a_node3"><a xlink:href="RosServiceHandler_8h.html" target="_top" xlink:title="/home/travis/build\l/ADVRHumanoids/ROSEndEffector\l/include/end_effector/RosServiceHandler.h">
<polygon fill="none" stroke="black" points="719.338,-167.5 719.338,-208.5 937.338,-208.5 937.338,-167.5 719.338,-167.5"/>
<text text-anchor="start" x="727.338" y="-196.5" font-family="Helvetica,sans-Serif" font-size="10.00">/home/travis/build</text>
<text text-anchor="start" x="727.338" y="-185.5" font-family="Helvetica,sans-Serif" font-size="10.00">/ADVRHumanoids/ROSEndEffector</text>
<text text-anchor="middle" x="828.338" y="-174.5" font-family="Helvetica,sans-Serif" font-size="10.00">/include/end_effector/RosServiceHandler.h</text>
</a>
</g>
</g>
<!-- Node2&#45;&gt;Node3 -->
<g id="edge2" class="edge"><title>Node2&#45;&gt;Node3</title>
<path fill="none" stroke="midnightblue" d="M640.102,-242.58C678.1,-231.764 723.255,-218.911 759.812,-208.506"/>
<polygon fill="midnightblue" stroke="midnightblue" points="638.757,-239.324 630.098,-245.428 640.674,-246.057 638.757,-239.324"/>
</g>
<!-- Node4 -->
<g id="node4" class="node"><title>Node4</title>
<g id="a_node4"><a xlink:href="UniversalRosEndEffectorExecutor_8h.html" target="_top" xlink:title="/home/travis/build\l/ADVRHumanoids/ROSEndEffector\l/include/end_effector/UniversalRos\lEndEffectorExecutor.h">
<polygon fill="none" stroke="black" points="402.838,-78.5 402.838,-130.5 583.838,-130.5 583.838,-78.5 402.838,-78.5"/>
<text text-anchor="start" x="410.838" y="-118.5" font-family="Helvetica,sans-Serif" font-size="10.00">/home/travis/build</text>
<text text-anchor="start" x="410.838" y="-107.5" font-family="Helvetica,sans-Serif" font-size="10.00">/ADVRHumanoids/ROSEndEffector</text>
<text text-anchor="start" x="410.838" y="-96.5" font-family="Helvetica,sans-Serif" font-size="10.00">/include/end_effector/UniversalRos</text>
<text text-anchor="middle" x="493.338" y="-85.5" font-family="Helvetica,sans-Serif" font-size="10.00">EndEffectorExecutor.h</text>
</a>
</g>
</g>
<!-- Node2&#45;&gt;Node4 -->
<g id="edge7" class="edge"><title>Node2&#45;&gt;Node4</title>
<path fill="none" stroke="midnightblue" d="M532.523,-237.981C524.885,-229.403 517.374,-219.419 512.338,-209 500.335,-184.162 495.881,-152.616 494.247,-130.917"/>
<polygon fill="midnightblue" stroke="midnightblue" points="530.114,-240.53 539.505,-245.436 535.223,-235.745 530.114,-240.53"/>
</g>
<!-- Node8 -->
<g id="node8" class="node"><title>Node8</title>
<g id="a_node8"><a xlink:href="MapActionHandler_8cpp.html" target="_top" xlink:title="/home/travis/build\l/ADVRHumanoids/ROSEndEffector\l/src/MapActionHandler.cpp">
<polygon fill="none" stroke="black" points="521.838,-167.5 521.838,-208.5 700.838,-208.5 700.838,-167.5 521.838,-167.5"/>
<text text-anchor="start" x="529.838" y="-196.5" font-family="Helvetica,sans-Serif" font-size="10.00">/home/travis/build</text>
<text text-anchor="start" x="529.838" y="-185.5" font-family="Helvetica,sans-Serif" font-size="10.00">/ADVRHumanoids/ROSEndEffector</text>
<text text-anchor="middle" x="611.338" y="-174.5" font-family="Helvetica,sans-Serif" font-size="10.00">/src/MapActionHandler.cpp</text>
</a>
</g>
</g>
<!-- Node2&#45;&gt;Node8 -->
<g id="edge8" class="edge"><title>Node2&#45;&gt;Node8</title>
<path fill="none" stroke="midnightblue" d="M579.728,-237.048C585.966,-227.566 592.796,-217.185 598.506,-208.506"/>
<polygon fill="midnightblue" stroke="midnightblue" points="576.787,-235.15 574.215,-245.428 582.635,-238.998 576.787,-235.15"/>
</g>
<!-- Node2&#45;&gt;Node9 -->
<g id="edge9" class="edge"><title>Node2&#45;&gt;Node9</title>
<path fill="none" stroke="midnightblue" d="M504.091,-241.609C478.13,-231.001 447.784,-218.602 423.076,-208.506"/>
<polygon fill="midnightblue" stroke="midnightblue" points="502.858,-244.886 513.439,-245.428 505.506,-238.406 502.858,-244.886"/>
</g>
<!-- Node3&#45;&gt;Node4 -->
<g id="edge3" class="edge"><title>Node3&#45;&gt;Node4</title>
<path fill="none" stroke="midnightblue" d="M738.366,-165.111C690.502,-153.467 631.8,-139.185 583.854,-127.521"/>
<polygon fill="midnightblue" stroke="midnightblue" points="737.554,-168.516 748.098,-167.479 739.208,-161.714 737.554,-168.516"/>
</g>
<!-- Node7 -->
<g id="node7" class="node"><title>Node7</title>
<g id="a_node7"><a xlink:href="RosServiceHandler_8cpp.html" target="_top" xlink:title="/home/travis/build\l/ADVRHumanoids/ROSEndEffector\l/src/RosServiceHandler.cpp">
<polygon fill="none" stroke="black" points="738.838,-84 738.838,-125 917.838,-125 917.838,-84 738.838,-84"/>
<text text-anchor="start" x="746.838" y="-113" font-family="Helvetica,sans-Serif" font-size="10.00">/home/travis/build</text>
<text text-anchor="start" x="746.838" y="-102" font-family="Helvetica,sans-Serif" font-size="10.00">/ADVRHumanoids/ROSEndEffector</text>
<text text-anchor="middle" x="828.338" y="-91" font-family="Helvetica,sans-Serif" font-size="10.00">/src/RosServiceHandler.cpp</text>
</a>
</g>
</g>
<!-- Node3&#45;&gt;Node7 -->
<g id="edge6" class="edge"><title>Node3&#45;&gt;Node7</title>
<path fill="none" stroke="midnightblue" d="M828.338,-157.065C828.338,-146.382 828.338,-134.63 828.338,-125.047"/>
<polygon fill="midnightblue" stroke="midnightblue" points="824.839,-157.271 828.338,-167.271 831.839,-157.271 824.839,-157.271"/>
</g>
<!-- Node5 -->
<g id="node5" class="node"><title>Node5</title>
<g id="a_node5"><a xlink:href="UniversalRosEndEffector_8cpp.html" target="_top" xlink:title="/home/travis/build\l/ADVRHumanoids/ROSEndEffector\l/src/UniversalRosEndEffector.cpp">
<polygon fill="none" stroke="black" points="296.838,-0.5 296.838,-41.5 475.838,-41.5 475.838,-0.5 296.838,-0.5"/>
<text text-anchor="start" x="304.838" y="-29.5" font-family="Helvetica,sans-Serif" font-size="10.00">/home/travis/build</text>
<text text-anchor="start" x="304.838" y="-18.5" font-family="Helvetica,sans-Serif" font-size="10.00">/ADVRHumanoids/ROSEndEffector</text>
<text text-anchor="middle" x="386.338" y="-7.5" font-family="Helvetica,sans-Serif" font-size="10.00">/src/UniversalRosEndEffector.cpp</text>
</a>
</g>
</g>
<!-- Node4&#45;&gt;Node5 -->
<g id="edge4" class="edge"><title>Node4&#45;&gt;Node5</title>
<path fill="none" stroke="midnightblue" d="M452.176,-72.1475C438.75,-61.921 424.227,-50.8594 412.247,-41.7338"/>
<polygon fill="midnightblue" stroke="midnightblue" points="450.286,-75.1073 460.362,-78.3823 454.527,-69.5386 450.286,-75.1073"/>
</g>
<!-- Node6 -->
<g id="node6" class="node"><title>Node6</title>
<g id="a_node6"><a xlink:href="UniversalRosEndEffectorExecutor_8cpp.html" target="_top" xlink:title="/home/travis/build\l/ADVRHumanoids/ROSEndEffector\l/src/UniversalRosEndEffectorExecutor.cpp">
<polygon fill="none" stroke="black" points="493.838,-0.5 493.838,-41.5 708.838,-41.5 708.838,-0.5 493.838,-0.5"/>
<text text-anchor="start" x="501.838" y="-29.5" font-family="Helvetica,sans-Serif" font-size="10.00">/home/travis/build</text>
<text text-anchor="start" x="501.838" y="-18.5" font-family="Helvetica,sans-Serif" font-size="10.00">/ADVRHumanoids/ROSEndEffector</text>
<text text-anchor="middle" x="601.338" y="-7.5" font-family="Helvetica,sans-Serif" font-size="10.00">/src/UniversalRosEndEffectorExecutor.cpp</text>
</a>
</g>
</g>
<!-- Node4&#45;&gt;Node6 -->
<g id="edge5" class="edge"><title>Node4&#45;&gt;Node6</title>
<path fill="none" stroke="midnightblue" d="M534.885,-72.1475C548.437,-61.921 563.095,-50.8594 575.188,-41.7338"/>
<polygon fill="midnightblue" stroke="midnightblue" points="532.497,-69.5648 526.623,-78.3823 536.714,-75.1524 532.497,-69.5648"/>
</g>
<!-- Node10&#45;&gt;Node2 -->
<g id="edge14" class="edge"><title>Node10&#45;&gt;Node2</title>
<path fill="none" stroke="midnightblue" d="M380.857,-320.58C417.29,-309.764 460.584,-296.911 495.635,-286.506"/>
<polygon fill="midnightblue" stroke="midnightblue" points="379.855,-317.227 371.265,-323.428 381.847,-323.937 379.855,-317.227"/>
</g>
<!-- Node10&#45;&gt;Node4 -->
<g id="edge15" class="edge"><title>Node10&#45;&gt;Node4</title>
<path fill="none" stroke="midnightblue" d="M202.558,-337.371C126.511,-330.805 32.0262,-316.759 7.33841,-287 -4.57989,-272.633 0.541117,-262.385 7.33841,-245 24.5179,-201.061 37.6325,-189.054 79.3384,-167 133.858,-138.17 298.104,-120.533 402.589,-111.921"/>
<polygon fill="midnightblue" stroke="midnightblue" points="202.426,-340.872 212.681,-338.211 203.005,-333.896 202.426,-340.872"/>
</g>
<!-- Node11 -->
<g id="node11" class="node"><title>Node11</title>
<g id="a_node11"><a xlink:href="FindActions_8h.html" target="_top" xlink:title="/home/travis/build\l/ADVRHumanoids/ROSEndEffector\l/include/end_effector/FindActions.h">
<polygon fill="none" stroke="black" points="213.838,-245.5 213.838,-286.5 396.838,-286.5 396.838,-245.5 213.838,-245.5"/>
<text text-anchor="start" x="221.838" y="-274.5" font-family="Helvetica,sans-Serif" font-size="10.00">/home/travis/build</text>
<text text-anchor="start" x="221.838" y="-263.5" font-family="Helvetica,sans-Serif" font-size="10.00">/ADVRHumanoids/ROSEndEffector</text>
<text text-anchor="middle" x="305.338" y="-252.5" font-family="Helvetica,sans-Serif" font-size="10.00">/include/end_effector/FindActions.h</text>
</a>
</g>
</g>
<!-- Node10&#45;&gt;Node11 -->
<g id="edge11" class="edge"><title>Node10&#45;&gt;Node11</title>
<path fill="none" stroke="midnightblue" d="M305.338,-313.297C305.338,-304.301 305.338,-294.653 305.338,-286.506"/>
<polygon fill="midnightblue" stroke="midnightblue" points="301.839,-313.428 305.338,-323.428 308.839,-313.428 301.839,-313.428"/>
</g>
<!-- Node13 -->
<g id="node13" class="node"><title>Node13</title>
<g id="a_node13"><a xlink:href="YamlWorker_8cpp.html" target="_top" xlink:title="/home/travis/build\l/ADVRHumanoids/ROSEndEffector\l/src/YamlWorker.cpp">
<polygon fill="none" stroke="black" points="16.8384,-245.5 16.8384,-286.5 195.838,-286.5 195.838,-245.5 16.8384,-245.5"/>
<text text-anchor="start" x="24.8384" y="-274.5" font-family="Helvetica,sans-Serif" font-size="10.00">/home/travis/build</text>
<text text-anchor="start" x="24.8384" y="-263.5" font-family="Helvetica,sans-Serif" font-size="10.00">/ADVRHumanoids/ROSEndEffector</text>
<text text-anchor="middle" x="106.338" y="-252.5" font-family="Helvetica,sans-Serif" font-size="10.00">/src/YamlWorker.cpp</text>
</a>
</g>
</g>
<!-- Node10&#45;&gt;Node13 -->
<g id="edge16" class="edge"><title>Node10&#45;&gt;Node13</title>
<path fill="none" stroke="midnightblue" d="M244.455,-319.748C216.599,-309.11 183.964,-296.646 157.412,-286.506"/>
<polygon fill="midnightblue" stroke="midnightblue" points="243.5,-323.13 254.091,-323.428 245.998,-316.591 243.5,-323.13"/>
</g>
<!-- Node11&#45;&gt;Node9 -->
<g id="edge13" class="edge"><title>Node11&#45;&gt;Node9</title>
<path fill="none" stroke="midnightblue" d="M330.284,-237.916C339.231,-228.203 349.134,-217.45 357.373,-208.506"/>
<polygon fill="midnightblue" stroke="midnightblue" points="327.566,-235.701 323.365,-245.428 332.714,-240.444 327.566,-235.701"/>
</g>
<!-- Node12 -->
<g id="node12" class="node"><title>Node12</title>
<g id="a_node12"><a xlink:href="FindActions_8cpp.html" target="_top" xlink:title="/home/travis/build\l/ADVRHumanoids/ROSEndEffector\l/src/FindActions.cpp">
<polygon fill="none" stroke="black" points="88.8384,-167.5 88.8384,-208.5 267.838,-208.5 267.838,-167.5 88.8384,-167.5"/>
<text text-anchor="start" x="96.8384" y="-196.5" font-family="Helvetica,sans-Serif" font-size="10.00">/home/travis/build</text>
<text text-anchor="start" x="96.8384" y="-185.5" font-family="Helvetica,sans-Serif" font-size="10.00">/ADVRHumanoids/ROSEndEffector</text>
<text text-anchor="middle" x="178.338" y="-174.5" font-family="Helvetica,sans-Serif" font-size="10.00">/src/FindActions.cpp</text>
</a>
</g>
</g>
<!-- Node11&#45;&gt;Node12 -->
<g id="edge12" class="edge"><title>Node11&#45;&gt;Node12</title>
<path fill="none" stroke="midnightblue" d="M263.901,-240.203C246.714,-229.918 227.064,-218.159 210.933,-208.506"/>
<polygon fill="midnightblue" stroke="midnightblue" points="262.255,-243.296 272.633,-245.428 265.849,-237.29 262.255,-243.296"/>
</g>
</g>
</svg>
