<?xml version="1.0" encoding="UTF-8" standalone="no"?>
<!DOCTYPE svg PUBLIC "-//W3C//DTD SVG 1.1//EN"
 "http://www.w3.org/Graphics/SVG/1.1/DTD/svg11.dtd">
<!-- Generated by graphviz version 2.38.0 (20140413.2041)
 -->
<!-- Title: /home/travis/build/ADVRHumanoids/ROSEndEffector/include/ros_end_effector/GraspingActions/ActionPinchGeneric.h Pages: 1 -->
<svg width="1052pt" height="595pt"
 viewBox="0.00 0.00 1052.00 595.00" xmlns="http://www.w3.org/2000/svg" xmlns:xlink="http://www.w3.org/1999/xlink">
<g id="graph0" class="graph" transform="scale(1 1) rotate(0) translate(4 591)">
<title>/home/travis/build/ADVRHumanoids/ROSEndEffector/include/ros_end_effector/GraspingActions/ActionPinchGeneric.h</title>
<!-- Node1 -->
<g id="node1" class="node"><title>Node1</title>
<polygon fill="#bfbfbf" stroke="black" points="456.5,-534.5 456.5,-586.5 658.5,-586.5 658.5,-534.5 456.5,-534.5"/>
<text text-anchor="start" x="464.5" y="-574.5" font-family="Helvetica,sans-Serif" font-size="10.00">/home/travis/build</text>
<text text-anchor="start" x="464.5" y="-563.5" font-family="Helvetica,sans-Serif" font-size="10.00">/ADVRHumanoids/ROSEndEffector</text>
<text text-anchor="start" x="464.5" y="-552.5" font-family="Helvetica,sans-Serif" font-size="10.00">/include/ros_end_effector</text>
<text text-anchor="middle" x="557.5" y="-541.5" font-family="Helvetica,sans-Serif" font-size="10.00">/GraspingActions/ActionPinchGeneric.h</text>
</g>
<!-- Node2 -->
<g id="node2" class="node"><title>Node2</title>
<g id="a_node2"><a xlink:href="ActionMultiplePinchTight_8h.html" target="_top" xlink:title="/home/travis/build\l/ADVRHumanoids/ROSEndEffector\l/include/ros_end_effector\l/GraspingActions/ActionMultiplePinch\lTight.h">
<polygon fill="none" stroke="black" points="357,-434.5 357,-497.5 550,-497.5 550,-434.5 357,-434.5"/>
<text text-anchor="start" x="365" y="-485.5" font-family="Helvetica,sans-Serif" font-size="10.00">/home/travis/build</text>
<text text-anchor="start" x="365" y="-474.5" font-family="Helvetica,sans-Serif" font-size="10.00">/ADVRHumanoids/ROSEndEffector</text>
<text text-anchor="start" x="365" y="-463.5" font-family="Helvetica,sans-Serif" font-size="10.00">/include/ros_end_effector</text>
<text text-anchor="start" x="365" y="-452.5" font-family="Helvetica,sans-Serif" font-size="10.00">/GraspingActions/ActionMultiplePinch</text>
<text text-anchor="middle" x="453.5" y="-441.5" font-family="Helvetica,sans-Serif" font-size="10.00">Tight.h</text>
</a>
</g>
</g>
<!-- Node1&#45;&gt;Node2 -->
<g id="edge1" class="edge"><title>Node1&#45;&gt;Node2</title>
<path fill="none" stroke="midnightblue" d="M521.635,-527.601C510.734,-517.905 498.782,-507.275 487.975,-497.663"/>
<polygon fill="midnightblue" stroke="midnightblue" points="519.558,-530.438 529.356,-534.468 524.21,-525.207 519.558,-530.438"/>
</g>
<!-- Node16 -->
<g id="node16" class="node"><title>Node16</title>
<g id="a_node16"><a xlink:href="ActionPinchLoose_8h.html" target="_top" xlink:title="/home/travis/build\l/ADVRHumanoids/ROSEndEffector\l/include/ros_end_effector\l/GraspingActions/ActionPinchLoose.h">
<polygon fill="none" stroke="black" points="144.5,-440 144.5,-492 338.5,-492 338.5,-440 144.5,-440"/>
<text text-anchor="start" x="152.5" y="-480" font-family="Helvetica,sans-Serif" font-size="10.00">/home/travis/build</text>
<text text-anchor="start" x="152.5" y="-469" font-family="Helvetica,sans-Serif" font-size="10.00">/ADVRHumanoids/ROSEndEffector</text>
<text text-anchor="start" x="152.5" y="-458" font-family="Helvetica,sans-Serif" font-size="10.00">/include/ros_end_effector</text>
<text text-anchor="middle" x="241.5" y="-447" font-family="Helvetica,sans-Serif" font-size="10.00">/GraspingActions/ActionPinchLoose.h</text>
</a>
</g>
</g>
<!-- Node1&#45;&gt;Node16 -->
<g id="edge19" class="edge"><title>Node1&#45;&gt;Node16</title>
<path fill="none" stroke="midnightblue" d="M462.36,-531.65C419.341,-519.058 368.895,-504.291 327.082,-492.052"/>
<polygon fill="midnightblue" stroke="midnightblue" points="461.405,-535.018 471.986,-534.468 463.372,-528.3 461.405,-535.018"/>
</g>
<!-- Node18 -->
<g id="node18" class="node"><title>Node18</title>
<g id="a_node18"><a xlink:href="ActionPinchTight_8h.html" target="_top" xlink:title="/home/travis/build\l/ADVRHumanoids/ROSEndEffector\l/include/ros_end_effector\l/GraspingActions/ActionPinchTight.h">
<polygon fill="none" stroke="black" points="568.5,-440 568.5,-492 756.5,-492 756.5,-440 568.5,-440"/>
<text text-anchor="start" x="576.5" y="-480" font-family="Helvetica,sans-Serif" font-size="10.00">/home/travis/build</text>
<text text-anchor="start" x="576.5" y="-469" font-family="Helvetica,sans-Serif" font-size="10.00">/ADVRHumanoids/ROSEndEffector</text>
<text text-anchor="start" x="576.5" y="-458" font-family="Helvetica,sans-Serif" font-size="10.00">/include/ros_end_effector</text>
<text text-anchor="middle" x="662.5" y="-447" font-family="Helvetica,sans-Serif" font-size="10.00">/GraspingActions/ActionPinchTight.h</text>
</a>
</g>
</g>
<!-- Node1&#45;&gt;Node18 -->
<g id="edge23" class="edge"><title>Node1&#45;&gt;Node18</title>
<path fill="none" stroke="midnightblue" d="M593.507,-527.779C606.759,-516.106 621.57,-503.057 634.063,-492.052"/>
<polygon fill="midnightblue" stroke="midnightblue" points="591.105,-525.232 585.915,-534.468 595.732,-530.484 591.105,-525.232"/>
</g>
<!-- Node20 -->
<g id="node20" class="node"><title>Node20</title>
<g id="a_node20"><a xlink:href="ActionPinchGeneric_8cpp.html" target="_top" xlink:title="/home/travis/build\l/ADVRHumanoids/ROSEndEffector\l/src/GraspingActions/ActionPinchGeneric.cpp">
<polygon fill="none" stroke="black" points="774.5,-445.5 774.5,-486.5 1004.5,-486.5 1004.5,-445.5 774.5,-445.5"/>
<text text-anchor="start" x="782.5" y="-474.5" font-family="Helvetica,sans-Serif" font-size="10.00">/home/travis/build</text>
<text text-anchor="start" x="782.5" y="-463.5" font-family="Helvetica,sans-Serif" font-size="10.00">/ADVRHumanoids/ROSEndEffector</text>
<text text-anchor="middle" x="889.5" y="-452.5" font-family="Helvetica,sans-Serif" font-size="10.00">/src/GraspingActions/ActionPinchGeneric.cpp</text>
</a>
</g>
</g>
<!-- Node1&#45;&gt;Node20 -->
<g id="edge27" class="edge"><title>Node1&#45;&gt;Node20</title>
<path fill="none" stroke="midnightblue" d="M656.982,-531.783C709.289,-517.209 772.154,-499.694 819.322,-486.553"/>
<polygon fill="midnightblue" stroke="midnightblue" points="656.038,-528.413 647.344,-534.468 657.916,-535.156 656.038,-528.413"/>
</g>
<!-- Node3 -->
<g id="node3" class="node"><title>Node3</title>
<g id="a_node3"><a xlink:href="FindActions_8h.html" target="_top" xlink:title="/home/travis/build\l/ADVRHumanoids/ROSEndEffector\l/include/ros_end_effector\l/FindActions.h">
<polygon fill="none" stroke="black" points="206,-256.5 206,-308.5 385,-308.5 385,-256.5 206,-256.5"/>
<text text-anchor="start" x="214" y="-296.5" font-family="Helvetica,sans-Serif" font-size="10.00">/home/travis/build</text>
<text text-anchor="start" x="214" y="-285.5" font-family="Helvetica,sans-Serif" font-size="10.00">/ADVRHumanoids/ROSEndEffector</text>
<text text-anchor="start" x="214" y="-274.5" font-family="Helvetica,sans-Serif" font-size="10.00">/include/ros_end_effector</text>
<text text-anchor="middle" x="295.5" y="-263.5" font-family="Helvetica,sans-Serif" font-size="10.00">/FindActions.h</text>
</a>
</g>
</g>
<!-- Node2&#45;&gt;Node3 -->
<g id="edge2" class="edge"><title>Node2&#45;&gt;Node3</title>
<path fill="none" stroke="midnightblue" d="M358.735,-429.407C345.037,-420.859 332.288,-410.487 322.5,-398 302.341,-372.281 296.834,-333.984 295.538,-308.878"/>
<polygon fill="midnightblue" stroke="midnightblue" points="356.976,-432.433 367.368,-434.496 360.531,-426.402 356.976,-432.433"/>
</g>
<!-- Node6 -->
<g id="node6" class="node"><title>Node6</title>
<g id="a_node6"><a xlink:href="YamlWorker_8h.html" target="_top" xlink:title="/home/travis/build\l/ADVRHumanoids/ROSEndEffector\l/include/ros_end_effector\l/YamlWorker.h">
<polygon fill="none" stroke="black" points="573,-345.5 573,-397.5 752,-397.5 752,-345.5 573,-345.5"/>
<text text-anchor="start" x="581" y="-385.5" font-family="Helvetica,sans-Serif" font-size="10.00">/home/travis/build</text>
<text text-anchor="start" x="581" y="-374.5" font-family="Helvetica,sans-Serif" font-size="10.00">/ADVRHumanoids/ROSEndEffector</text>
<text text-anchor="start" x="581" y="-363.5" font-family="Helvetica,sans-Serif" font-size="10.00">/include/ros_end_effector</text>
<text text-anchor="middle" x="662.5" y="-352.5" font-family="Helvetica,sans-Serif" font-size="10.00">/YamlWorker.h</text>
</a>
</g>
</g>
<!-- Node2&#45;&gt;Node6 -->
<g id="edge5" class="edge"><title>Node2&#45;&gt;Node6</title>
<path fill="none" stroke="midnightblue" d="M531.812,-430.34C556.368,-419.472 582.987,-407.691 605.753,-397.615"/>
<polygon fill="midnightblue" stroke="midnightblue" points="530.242,-427.208 522.514,-434.456 533.075,-433.609 530.242,-427.208"/>
</g>
<!-- Node15 -->
<g id="node15" class="node"><title>Node15</title>
<g id="a_node15"><a xlink:href="ActionMultiplePinchTight_8cpp.html" target="_top" xlink:title="/home/travis/build\l/ADVRHumanoids/ROSEndEffector\l/src/GraspingActions/ActionMultiple\lPinchTight.cpp">
<polygon fill="none" stroke="black" points="332,-345.5 332,-397.5 517,-397.5 517,-345.5 332,-345.5"/>
<text text-anchor="start" x="340" y="-385.5" font-family="Helvetica,sans-Serif" font-size="10.00">/home/travis/build</text>
<text text-anchor="start" x="340" y="-374.5" font-family="Helvetica,sans-Serif" font-size="10.00">/ADVRHumanoids/ROSEndEffector</text>
<text text-anchor="start" x="340" y="-363.5" font-family="Helvetica,sans-Serif" font-size="10.00">/src/GraspingActions/ActionMultiple</text>
<text text-anchor="middle" x="424.5" y="-352.5" font-family="Helvetica,sans-Serif" font-size="10.00">PinchTight.cpp</text>
</a>
</g>
</g>
<!-- Node2&#45;&gt;Node15 -->
<g id="edge18" class="edge"><title>Node2&#45;&gt;Node15</title>
<path fill="none" stroke="midnightblue" d="M440.87,-424.715C438,-415.56 435.03,-406.088 432.421,-397.766"/>
<polygon fill="midnightblue" stroke="midnightblue" points="437.593,-425.961 443.924,-434.456 444.272,-423.867 437.593,-425.961"/>
</g>
<!-- Node4 -->
<g id="node4" class="node"><title>Node4</title>
<g id="a_node4"><a xlink:href="FindActions_8cpp.html" target="_top" xlink:title="/home/travis/build\l/ADVRHumanoids/ROSEndEffector\l/src/FindActions.cpp">
<polygon fill="none" stroke="black" points="0,-173 0,-214 179,-214 179,-173 0,-173"/>
<text text-anchor="start" x="8" y="-202" font-family="Helvetica,sans-Serif" font-size="10.00">/home/travis/build</text>
<text text-anchor="start" x="8" y="-191" font-family="Helvetica,sans-Serif" font-size="10.00">/ADVRHumanoids/ROSEndEffector</text>
<text text-anchor="middle" x="89.5" y="-180" font-family="Helvetica,sans-Serif" font-size="10.00">/src/FindActions.cpp</text>
</a>
</g>
</g>
<!-- Node3&#45;&gt;Node4 -->
<g id="edge3" class="edge"><title>Node3&#45;&gt;Node4</title>
<path fill="none" stroke="midnightblue" d="M226.679,-252.435C196.866,-239.844 162.744,-225.433 135.989,-214.134"/>
<polygon fill="midnightblue" stroke="midnightblue" points="225.619,-255.786 236.193,-256.453 228.342,-249.338 225.619,-255.786"/>
</g>
<!-- Node5 -->
<g id="node5" class="node"><title>Node5</title>
<g id="a_node5"><a xlink:href="UniversalFindActions_8cpp.html" target="_top" xlink:title="/home/travis/build\l/ADVRHumanoids/ROSEndEffector\l/src/UniversalFindActions.cpp">
<polygon fill="none" stroke="black" points="197,-173 197,-214 376,-214 376,-173 197,-173"/>
<text text-anchor="start" x="205" y="-202" font-family="Helvetica,sans-Serif" font-size="10.00">/home/travis/build</text>
<text text-anchor="start" x="205" y="-191" font-family="Helvetica,sans-Serif" font-size="10.00">/ADVRHumanoids/ROSEndEffector</text>
<text text-anchor="middle" x="286.5" y="-180" font-family="Helvetica,sans-Serif" font-size="10.00">/src/UniversalFindActions.cpp</text>
</a>
</g>
</g>
<!-- Node3&#45;&gt;Node5 -->
<g id="edge4" class="edge"><title>Node3&#45;&gt;Node5</title>
<path fill="none" stroke="midnightblue" d="M291.844,-246.155C290.711,-235.21 289.505,-223.549 288.526,-214.082"/>
<polygon fill="midnightblue" stroke="midnightblue" points="288.386,-246.749 292.897,-256.336 295.349,-246.029 288.386,-246.749"/>
</g>
<!-- Node6&#45;&gt;Node3 -->
<g id="edge6" class="edge"><title>Node6&#45;&gt;Node3</title>
<path fill="none" stroke="midnightblue" d="M562.939,-346.065C561.449,-345.707 559.969,-345.352 558.5,-345 500.814,-331.184 435.92,-316.005 385.027,-304.184"/>
<polygon fill="midnightblue" stroke="midnightblue" points="562.341,-349.521 572.883,-348.462 563.982,-342.716 562.341,-349.521"/>
</g>
<!-- Node7 -->
<g id="node7" class="node"><title>Node7</title>
<g id="a_node7"><a xlink:href="MapActionHandler_8h.html" target="_top" xlink:title="/home/travis/build\l/ADVRHumanoids/ROSEndEffector\l/include/ros_end_effector\l/MapActionHandler.h">
<polygon fill="none" stroke="black" points="573,-256.5 573,-308.5 752,-308.5 752,-256.5 573,-256.5"/>
<text text-anchor="start" x="581" y="-296.5" font-family="Helvetica,sans-Serif" font-size="10.00">/home/travis/build</text>
<text text-anchor="start" x="581" y="-285.5" font-family="Helvetica,sans-Serif" font-size="10.00">/ADVRHumanoids/ROSEndEffector</text>
<text text-anchor="start" x="581" y="-274.5" font-family="Helvetica,sans-Serif" font-size="10.00">/include/ros_end_effector</text>
<text text-anchor="middle" x="662.5" y="-263.5" font-family="Helvetica,sans-Serif" font-size="10.00">/MapActionHandler.h</text>
</a>
</g>
</g>
<!-- Node6&#45;&gt;Node7 -->
<g id="edge7" class="edge"><title>Node6&#45;&gt;Node7</title>
<path fill="none" stroke="midnightblue" d="M662.5,-335.191C662.5,-326.282 662.5,-316.899 662.5,-308.607"/>
<polygon fill="midnightblue" stroke="midnightblue" points="659,-335.336 662.5,-345.336 666,-335.336 659,-335.336"/>
</g>
<!-- Node9 -->
<g id="node9" class="node"><title>Node9</title>
<g id="a_node9"><a xlink:href="UniversalRosEndEffectorExecutor_8h.html" target="_top" xlink:title="/home/travis/build\l/ADVRHumanoids/ROSEndEffector\l/include/ros_end_effector\l/UniversalRosEndEffectorExecutor.h">
<polygon fill="none" stroke="black" points="705,-78.5 705,-130.5 892,-130.5 892,-78.5 705,-78.5"/>
<text text-anchor="start" x="713" y="-118.5" font-family="Helvetica,sans-Serif" font-size="10.00">/home/travis/build</text>
<text text-anchor="start" x="713" y="-107.5" font-family="Helvetica,sans-Serif" font-size="10.00">/ADVRHumanoids/ROSEndEffector</text>
<text text-anchor="start" x="713" y="-96.5" font-family="Helvetica,sans-Serif" font-size="10.00">/include/ros_end_effector</text>
<text text-anchor="middle" x="798.5" y="-85.5" font-family="Helvetica,sans-Serif" font-size="10.00">/UniversalRosEndEffectorExecutor.h</text>
</a>
</g>
</g>
<!-- Node6&#45;&gt;Node9 -->
<g id="edge16" class="edge"><title>Node6&#45;&gt;Node9</title>
<path fill="none" stroke="midnightblue" d="M723.288,-339.897C736.69,-331.206 750.003,-320.833 760.5,-309 789.526,-276.28 792.935,-262.68 802.5,-220 807.651,-197.015 803.265,-190.543 802.5,-167 802.111,-155.023 801.297,-141.754 800.504,-130.617"/>
<polygon fill="midnightblue" stroke="midnightblue" points="721.14,-337.111 714.496,-345.364 724.836,-343.055 721.14,-337.111"/>
</g>
<!-- Node14 -->
<g id="node14" class="node"><title>Node14</title>
<g id="a_node14"><a xlink:href="YamlWorker_8cpp.html" target="_top" xlink:title="/home/travis/build\l/ADVRHumanoids/ROSEndEffector\l/src/YamlWorker.cpp">
<polygon fill="none" stroke="black" points="865,-262 865,-303 1044,-303 1044,-262 865,-262"/>
<text text-anchor="start" x="873" y="-291" font-family="Helvetica,sans-Serif" font-size="10.00">/home/travis/build</text>
<text text-anchor="start" x="873" y="-280" font-family="Helvetica,sans-Serif" font-size="10.00">/ADVRHumanoids/ROSEndEffector</text>
<text text-anchor="middle" x="954.5" y="-269" font-family="Helvetica,sans-Serif" font-size="10.00">/src/YamlWorker.cpp</text>
</a>
</g>
</g>
<!-- Node6&#45;&gt;Node14 -->
<g id="edge17" class="edge"><title>Node6&#45;&gt;Node14</title>
<path fill="none" stroke="midnightblue" d="M756.227,-342.574C799.37,-329.72 849.529,-314.775 888.603,-303.134"/>
<polygon fill="midnightblue" stroke="midnightblue" points="755.151,-339.243 746.567,-345.453 757.15,-345.952 755.151,-339.243"/>
</g>
<!-- Node7&#45;&gt;Node5 -->
<g id="edge15" class="edge"><title>Node7&#45;&gt;Node5</title>
<path fill="none" stroke="midnightblue" d="M562.705,-260.354C509.664,-248.881 443.42,-234.178 384.5,-220 376.637,-218.108 368.436,-216.073 360.272,-214.007"/>
<polygon fill="midnightblue" stroke="midnightblue" points="562.277,-263.842 572.79,-262.532 563.754,-257 562.277,-263.842"/>
</g>
<!-- Node8 -->
<g id="node8" class="node"><title>Node8</title>
<g id="a_node8"><a xlink:href="RosServiceHandler_8h.html" target="_top" xlink:title="/home/travis/build\l/ADVRHumanoids/ROSEndEffector\l/include/ros_end_effector\l/RosServiceHandler.h">
<polygon fill="none" stroke="black" points="394,-167.5 394,-219.5 573,-219.5 573,-167.5 394,-167.5"/>
<text text-anchor="start" x="402" y="-207.5" font-family="Helvetica,sans-Serif" font-size="10.00">/home/travis/build</text>
<text text-anchor="start" x="402" y="-196.5" font-family="Helvetica,sans-Serif" font-size="10.00">/ADVRHumanoids/ROSEndEffector</text>
<text text-anchor="start" x="402" y="-185.5" font-family="Helvetica,sans-Serif" font-size="10.00">/include/ros_end_effector</text>
<text text-anchor="middle" x="483.5" y="-174.5" font-family="Helvetica,sans-Serif" font-size="10.00">/RosServiceHandler.h</text>
</a>
</g>
</g>
<!-- Node7&#45;&gt;Node8 -->
<g id="edge8" class="edge"><title>Node7&#45;&gt;Node8</title>
<path fill="none" stroke="midnightblue" d="M601.634,-251.917C580.024,-241.414 555.925,-229.701 535.158,-219.607"/>
<polygon fill="midnightblue" stroke="midnightblue" points="600.202,-255.112 610.726,-256.336 603.262,-248.817 600.202,-255.112"/>
</g>
<!-- Node7&#45;&gt;Node9 -->
<g id="edge13" class="edge"><title>Node7&#45;&gt;Node9</title>
<path fill="none" stroke="midnightblue" d="M743.023,-251.332C756.605,-243.032 769.27,-232.709 778.5,-220 797.473,-193.875 800.542,-155.68 800.176,-130.707"/>
<polygon fill="midnightblue" stroke="midnightblue" points="740.933,-248.496 733.991,-256.5 744.409,-254.571 740.933,-248.496"/>
</g>
<!-- Node13 -->
<g id="node13" class="node"><title>Node13</title>
<g id="a_node13"><a xlink:href="MapActionHandler_8cpp.html" target="_top" xlink:title="/home/travis/build\l/ADVRHumanoids/ROSEndEffector\l/src/MapActionHandler.cpp">
<polygon fill="none" stroke="black" points="591,-173 591,-214 770,-214 770,-173 591,-173"/>
<text text-anchor="start" x="599" y="-202" font-family="Helvetica,sans-Serif" font-size="10.00">/home/travis/build</text>
<text text-anchor="start" x="599" y="-191" font-family="Helvetica,sans-Serif" font-size="10.00">/ADVRHumanoids/ROSEndEffector</text>
<text text-anchor="middle" x="680.5" y="-180" font-family="Helvetica,sans-Serif" font-size="10.00">/src/MapActionHandler.cpp</text>
</a>
</g>
</g>
<!-- Node7&#45;&gt;Node13 -->
<g id="edge14" class="edge"><title>Node7&#45;&gt;Node13</title>
<path fill="none" stroke="midnightblue" d="M669.743,-246.494C672.028,-235.45 674.47,-223.647 676.449,-214.082"/>
<polygon fill="midnightblue" stroke="midnightblue" points="666.305,-245.834 667.706,-256.336 673.16,-247.253 666.305,-245.834"/>
</g>
<!-- Node8&#45;&gt;Node9 -->
<g id="edge9" class="edge"><title>Node8&#45;&gt;Node9</title>
<path fill="none" stroke="midnightblue" d="M583.096,-164.992C623.023,-153.965 668.717,-141.345 707.716,-130.574"/>
<polygon fill="midnightblue" stroke="midnightblue" points="582.052,-161.65 573.345,-167.686 583.916,-168.397 582.052,-161.65"/>
</g>
<!-- Node12 -->
<g id="node12" class="node"><title>Node12</title>
<g id="a_node12"><a xlink:href="RosServiceHandler_8cpp.html" target="_top" xlink:title="/home/travis/build\l/ADVRHumanoids/ROSEndEffector\l/src/RosServiceHandler.cpp">
<polygon fill="none" stroke="black" points="394,-84 394,-125 573,-125 573,-84 394,-84"/>
<text text-anchor="start" x="402" y="-113" font-family="Helvetica,sans-Serif" font-size="10.00">/home/travis/build</text>
<text text-anchor="start" x="402" y="-102" font-family="Helvetica,sans-Serif" font-size="10.00">/ADVRHumanoids/ROSEndEffector</text>
<text text-anchor="middle" x="483.5" y="-91" font-family="Helvetica,sans-Serif" font-size="10.00">/src/RosServiceHandler.cpp</text>
</a>
</g>
</g>
<!-- Node8&#45;&gt;Node12 -->
<g id="edge12" class="edge"><title>Node8&#45;&gt;Node12</title>
<path fill="none" stroke="midnightblue" d="M483.5,-157.155C483.5,-146.21 483.5,-134.549 483.5,-125.082"/>
<polygon fill="midnightblue" stroke="midnightblue" points="480,-157.336 483.5,-167.336 487,-157.336 480,-157.336"/>
</g>
<!-- Node10 -->
<g id="node10" class="node"><title>Node10</title>
<g id="a_node10"><a xlink:href="UniversalRosEndEffector_8cpp.html" target="_top" xlink:title="/home/travis/build\l/ADVRHumanoids/ROSEndEffector\l/src/UniversalRosEndEffector.cpp">
<polygon fill="none" stroke="black" points="602,-0.5 602,-41.5 781,-41.5 781,-0.5 602,-0.5"/>
<text text-anchor="start" x="610" y="-29.5" font-family="Helvetica,sans-Serif" font-size="10.00">/home/travis/build</text>
<text text-anchor="start" x="610" y="-18.5" font-family="Helvetica,sans-Serif" font-size="10.00">/ADVRHumanoids/ROSEndEffector</text>
<text text-anchor="middle" x="691.5" y="-7.5" font-family="Helvetica,sans-Serif" font-size="10.00">/src/UniversalRosEndEffector.cpp</text>
</a>
</g>
</g>
<!-- Node9&#45;&gt;Node10 -->
<g id="edge10" class="edge"><title>Node9&#45;&gt;Node10</title>
<path fill="none" stroke="midnightblue" d="M757.338,-72.1475C743.912,-61.921 729.389,-50.8594 717.408,-41.7338"/>
<polygon fill="midnightblue" stroke="midnightblue" points="755.447,-75.1073 765.523,-78.3823 759.689,-69.5386 755.447,-75.1073"/>
</g>
<!-- Node11 -->
<g id="node11" class="node"><title>Node11</title>
<g id="a_node11"><a xlink:href="UniversalRosEndEffectorExecutor_8cpp.html" target="_top" xlink:title="/home/travis/build\l/ADVRHumanoids/ROSEndEffector\l/src/UniversalRosEndEffectorExecutor.cpp">
<polygon fill="none" stroke="black" points="799,-0.5 799,-41.5 1014,-41.5 1014,-0.5 799,-0.5"/>
<text text-anchor="start" x="807" y="-29.5" font-family="Helvetica,sans-Serif" font-size="10.00">/home/travis/build</text>
<text text-anchor="start" x="807" y="-18.5" font-family="Helvetica,sans-Serif" font-size="10.00">/ADVRHumanoids/ROSEndEffector</text>
<text text-anchor="middle" x="906.5" y="-7.5" font-family="Helvetica,sans-Serif" font-size="10.00">/src/UniversalRosEndEffectorExecutor.cpp</text>
</a>
</g>
</g>
<!-- Node9&#45;&gt;Node11 -->
<g id="edge11" class="edge"><title>Node9&#45;&gt;Node11</title>
<path fill="none" stroke="midnightblue" d="M840.047,-72.1475C853.599,-61.921 868.257,-50.8594 880.35,-41.7338"/>
<polygon fill="midnightblue" stroke="midnightblue" points="837.659,-69.5648 831.785,-78.3823 841.875,-75.1524 837.659,-69.5648"/>
</g>
<!-- Node16&#45;&gt;Node3 -->
<g id="edge20" class="edge"><title>Node16&#45;&gt;Node3</title>
<path fill="none" stroke="midnightblue" d="M251.974,-429.795C262.574,-394.168 278.696,-339.98 288.055,-308.522"/>
<polygon fill="midnightblue" stroke="midnightblue" points="248.506,-429.18 249.008,-439.763 255.215,-431.177 248.506,-429.18"/>
</g>
<!-- Node16&#45;&gt;Node6 -->
<g id="edge21" class="edge"><title>Node16&#45;&gt;Node6</title>
<path fill="none" stroke="midnightblue" d="M334.2,-437.359C338.687,-436.188 343.138,-435.061 347.5,-434 369.224,-428.715 487.525,-405.883 572.766,-389.584"/>
<polygon fill="midnightblue" stroke="midnightblue" points="333.103,-434.029 324.34,-439.985 334.904,-440.793 333.103,-434.029"/>
</g>
<!-- Node17 -->
<g id="node17" class="node"><title>Node17</title>
<g id="a_node17"><a xlink:href="ActionPinchLoose_8cpp.html" target="_top" xlink:title="/home/travis/build\l/ADVRHumanoids/ROSEndEffector\l/src/GraspingActions/ActionPinchLoose.cpp">
<polygon fill="none" stroke="black" points="16.5,-351 16.5,-392 238.5,-392 238.5,-351 16.5,-351"/>
<text text-anchor="start" x="24.5" y="-380" font-family="Helvetica,sans-Serif" font-size="10.00">/home/travis/build</text>
<text text-anchor="start" x="24.5" y="-369" font-family="Helvetica,sans-Serif" font-size="10.00">/ADVRHumanoids/ROSEndEffector</text>
<text text-anchor="middle" x="127.5" y="-358" font-family="Helvetica,sans-Serif" font-size="10.00">/src/GraspingActions/ActionPinchLoose.cpp</text>
</a>
</g>
</g>
<!-- Node16&#45;&gt;Node17 -->
<g id="edge22" class="edge"><title>Node16&#45;&gt;Node17</title>
<path fill="none" stroke="midnightblue" d="M202.613,-433.447C185.797,-419.803 166.634,-404.254 151.873,-392.276"/>
<polygon fill="midnightblue" stroke="midnightblue" points="200.679,-436.385 210.65,-439.968 205.09,-430.949 200.679,-436.385"/>
</g>
<!-- Node18&#45;&gt;Node3 -->
<g id="edge24" class="edge"><title>Node18&#45;&gt;Node3</title>
<path fill="none" stroke="midnightblue" d="M609.498,-434.125C593.805,-423.707 577.178,-411.313 563.5,-398 542.729,-377.784 549.339,-361.486 525.5,-345 484.195,-316.436 430.289,-301.132 385.047,-292.936"/>
<polygon fill="midnightblue" stroke="midnightblue" points="607.801,-437.196 618.095,-439.703 611.611,-431.324 607.801,-437.196"/>
</g>
<!-- Node18&#45;&gt;Node6 -->
<g id="edge25" class="edge"><title>Node18&#45;&gt;Node6</title>
<path fill="none" stroke="midnightblue" d="M662.5,-429.493C662.5,-418.909 662.5,-407.531 662.5,-397.745"/>
<polygon fill="midnightblue" stroke="midnightblue" points="659,-429.724 662.5,-439.724 666,-429.724 659,-429.724"/>
</g>
<!-- Node19 -->
<g id="node19" class="node"><title>Node19</title>
<g id="a_node19"><a xlink:href="ActionPinchTight_8cpp.html" target="_top" xlink:title="/home/travis/build\l/ADVRHumanoids/ROSEndEffector\l/src/GraspingActions/ActionPinchTight.cpp">
<polygon fill="none" stroke="black" points="770,-351 770,-392 987,-392 987,-351 770,-351"/>
<text text-anchor="start" x="778" y="-380" font-family="Helvetica,sans-Serif" font-size="10.00">/home/travis/build</text>
<text text-anchor="start" x="778" y="-369" font-family="Helvetica,sans-Serif" font-size="10.00">/ADVRHumanoids/ROSEndEffector</text>
<text text-anchor="middle" x="878.5" y="-358" font-family="Helvetica,sans-Serif" font-size="10.00">/src/GraspingActions/ActionPinchTight.cpp</text>
</a>
</g>
</g>
<!-- Node18&#45;&gt;Node19 -->
<g id="edge26" class="edge"><title>Node18&#45;&gt;Node19</title>
<path fill="none" stroke="midnightblue" d="M730.189,-436.013C763.543,-421.729 802.887,-404.88 832.668,-392.127"/>
<polygon fill="midnightblue" stroke="midnightblue" points="728.767,-432.814 720.953,-439.968 731.523,-439.249 728.767,-432.814"/>
</g>
</g>
</svg>
