<?xml version="1.0" encoding="UTF-8" standalone="no"?>
<!DOCTYPE svg PUBLIC "-//W3C//DTD SVG 1.1//EN"
 "http://www.w3.org/Graphics/SVG/1.1/DTD/svg11.dtd">
<!-- Generated by graphviz version 2.38.0 (20140413.2041)
 -->
<!-- Title: /home/travis/build/ADVRHumanoids/ROSEndEffector/include/end_effector/GraspingActions/ActionComposed.h Pages: 1 -->
<svg width="825pt" height="307pt"
 viewBox="0.00 0.00 824.84 307.00" xmlns="http://www.w3.org/2000/svg" xmlns:xlink="http://www.w3.org/1999/xlink">
<g id="graph0" class="graph" transform="scale(1 1) rotate(0) translate(4 303)">
<title>/home/travis/build/ADVRHumanoids/ROSEndEffector/include/end_effector/GraspingActions/ActionComposed.h</title>
<!-- Node1 -->
<g id="node1" class="node"><title>Node1</title>
<polygon fill="#bfbfbf" stroke="black" points="33.3351,-246.5 33.3351,-298.5 230.335,-298.5 230.335,-246.5 33.3351,-246.5"/>
<text text-anchor="start" x="41.3351" y="-286.5" font-family="Helvetica,sans-Serif" font-size="10.00">/home/travis/build</text>
<text text-anchor="start" x="41.3351" y="-275.5" font-family="Helvetica,sans-Serif" font-size="10.00">/ADVRHumanoids/ROSEndEffector</text>
<text text-anchor="start" x="41.3351" y="-264.5" font-family="Helvetica,sans-Serif" font-size="10.00">/include/end_effector/GraspingActions</text>
<text text-anchor="middle" x="131.835" y="-253.5" font-family="Helvetica,sans-Serif" font-size="10.00">/ActionComposed.h</text>
</g>
<!-- Node2 -->
<g id="node2" class="node"><title>Node2</title>
<polygon fill="none" stroke="#bfbfbf" points="25.3351,-56.5 25.3351,-75.5 72.3351,-75.5 72.3351,-56.5 25.3351,-56.5"/>
<text text-anchor="middle" x="48.8351" y="-63.5" font-family="Helvetica,sans-Serif" font-size="10.00">vector</text>
</g>
<!-- Node1&#45;&gt;Node2 -->
<g id="edge1" class="edge"><title>Node1&#45;&gt;Node2</title>
<path fill="none" stroke="midnightblue" d="M121.658,-246.424C104.716,-204.683 71.1249,-121.919 56.2364,-85.2359"/>
<polygon fill="midnightblue" stroke="midnightblue" points="59.412,-83.7531 52.4081,-75.8035 52.9259,-86.3857 59.412,-83.7531"/>
</g>
<!-- Node3 -->
<g id="node3" class="node"><title>Node3</title>
<polygon fill="none" stroke="#bfbfbf" points="90.8351,-56.5 90.8351,-75.5 134.835,-75.5 134.835,-56.5 90.8351,-56.5"/>
<text text-anchor="middle" x="112.835" y="-63.5" font-family="Helvetica,sans-Serif" font-size="10.00">string</text>
</g>
<!-- Node1&#45;&gt;Node3 -->
<g id="edge2" class="edge"><title>Node1&#45;&gt;Node3</title>
<path fill="none" stroke="midnightblue" d="M129.505,-246.424C125.66,-205.041 118.069,-123.337 114.618,-86.1906"/>
<polygon fill="midnightblue" stroke="midnightblue" points="118.063,-85.4368 113.653,-75.8035 111.093,-86.0844 118.063,-85.4368"/>
</g>
<!-- Node4 -->
<g id="node4" class="node"><title>Node4</title>
<g id="a_node4"><a xlink:href="ActionGeneric_8h.html" target="_top" xlink:title="end_effector/GraspingActions\l/ActionGeneric.h">
<polygon fill="none" stroke="black" points="203.835,-179.5 203.835,-209.5 361.835,-209.5 361.835,-179.5 203.835,-179.5"/>
<text text-anchor="start" x="211.835" y="-197.5" font-family="Helvetica,sans-Serif" font-size="10.00">end_effector/GraspingActions</text>
<text text-anchor="middle" x="282.835" y="-186.5" font-family="Helvetica,sans-Serif" font-size="10.00">/ActionGeneric.h</text>
</a>
</g>
</g>
<!-- Node1&#45;&gt;Node4 -->
<g id="edge3" class="edge"><title>Node1&#45;&gt;Node4</title>
<path fill="none" stroke="midnightblue" d="M181.697,-246.404C202.515,-235.926 226.284,-223.963 245.547,-214.267"/>
<polygon fill="midnightblue" stroke="midnightblue" points="247.25,-217.329 254.609,-209.707 244.103,-211.076 247.25,-217.329"/>
</g>
<!-- Node7 -->
<g id="node7" class="node"><title>Node7</title>
<polygon fill="none" stroke="#bfbfbf" points="152.835,-56.5 152.835,-75.5 248.835,-75.5 248.835,-56.5 152.835,-56.5"/>
<text text-anchor="middle" x="200.835" y="-63.5" font-family="Helvetica,sans-Serif" font-size="10.00">yaml&#45;cpp/yaml.h</text>
</g>
<!-- Node1&#45;&gt;Node7 -->
<g id="edge23" class="edge"><title>Node1&#45;&gt;Node7</title>
<path fill="none" stroke="midnightblue" d="M140.296,-246.424C154.319,-204.862 182.066,-122.629 194.522,-85.7107"/>
<polygon fill="midnightblue" stroke="midnightblue" points="197.984,-86.3977 197.865,-75.8035 191.351,-84.1597 197.984,-86.3977"/>
</g>
<!-- Node8 -->
<g id="node8" class="node"><title>Node8</title>
<polygon fill="none" stroke="#bfbfbf" points="208.335,-0.5 208.335,-19.5 265.335,-19.5 265.335,-0.5 208.335,-0.5"/>
<text text-anchor="middle" x="236.835" y="-7.5" font-family="Helvetica,sans-Serif" font-size="10.00">memory</text>
</g>
<!-- Node1&#45;&gt;Node8 -->
<g id="edge24" class="edge"><title>Node1&#45;&gt;Node8</title>
<path fill="none" stroke="midnightblue" d="M100.141,-246.384C50.6342,-204.158 -34.4313,-117.533 15.8351,-56 38.3971,-28.3809 140.75,-17.2827 197.916,-13.1783"/>
<polygon fill="midnightblue" stroke="midnightblue" points="198.295,-16.6607 208.035,-12.4909 197.82,-9.6768 198.295,-16.6607"/>
</g>
<!-- Node10 -->
<g id="node10" class="node"><title>Node10</title>
<g id="a_node10"><a xlink:href="Utils_8h.html" target="_top" xlink:title="end_effector/Utils.h">
<polygon fill="none" stroke="black" points="398.835,-56.5 398.835,-75.5 508.835,-75.5 508.835,-56.5 398.835,-56.5"/>
<text text-anchor="middle" x="453.835" y="-63.5" font-family="Helvetica,sans-Serif" font-size="10.00">end_effector/Utils.h</text>
</a>
</g>
</g>
<!-- Node1&#45;&gt;Node10 -->
<g id="edge22" class="edge"><title>Node1&#45;&gt;Node10</title>
<path fill="none" stroke="midnightblue" d="M230.351,-261.208C276.017,-252.821 329.249,-237.605 370.835,-210 415.778,-180.167 439.464,-117.076 448.883,-85.6305"/>
<polygon fill="midnightblue" stroke="midnightblue" points="452.367,-86.1723 451.721,-75.5972 445.631,-84.2672 452.367,-86.1723"/>
</g>
<!-- Node5 -->
<g id="node5" class="node"><title>Node5</title>
<g id="a_node5"><a xlink:href="Action_8h.html" target="_top" xlink:title="end_effector/GraspingActions\l/Action.h">
<polygon fill="none" stroke="black" points="225.835,-112.5 225.835,-142.5 383.835,-142.5 383.835,-112.5 225.835,-112.5"/>
<text text-anchor="start" x="233.835" y="-130.5" font-family="Helvetica,sans-Serif" font-size="10.00">end_effector/GraspingActions</text>
<text text-anchor="middle" x="304.835" y="-119.5" font-family="Helvetica,sans-Serif" font-size="10.00">/Action.h</text>
</a>
</g>
</g>
<!-- Node4&#45;&gt;Node5 -->
<g id="edge4" class="edge"><title>Node4&#45;&gt;Node5</title>
<path fill="none" stroke="midnightblue" d="M287.609,-179.396C290.29,-171.474 293.707,-161.379 296.789,-152.271"/>
<polygon fill="midnightblue" stroke="midnightblue" points="300.18,-153.171 300.071,-142.577 293.549,-150.927 300.18,-153.171"/>
</g>
<!-- Node4&#45;&gt;Node7 -->
<g id="edge20" class="edge"><title>Node4&#45;&gt;Node7</title>
<path fill="none" stroke="midnightblue" d="M256.232,-179.346C242.415,-170.653 226.454,-158.255 216.835,-143 205.955,-125.746 202.347,-102.344 201.215,-86.0854"/>
<polygon fill="midnightblue" stroke="midnightblue" points="204.694,-85.5367 200.76,-75.6995 197.701,-85.8431 204.694,-85.5367"/>
</g>
<!-- Node4&#45;&gt;Node10 -->
<g id="edge21" class="edge"><title>Node4&#45;&gt;Node10</title>
<path fill="none" stroke="midnightblue" d="M325.084,-179.436C346.691,-170.975 372.621,-158.767 392.835,-143 414.024,-126.473 432.401,-101.199 443.299,-84.3937"/>
<polygon fill="midnightblue" stroke="midnightblue" points="446.463,-85.9376 448.816,-75.6076 440.534,-82.215 446.463,-85.9376"/>
</g>
<!-- Node5&#45;&gt;Node2 -->
<g id="edge5" class="edge"><title>Node5&#45;&gt;Node2</title>
<path fill="none" stroke="midnightblue" d="M239.28,-112.442C197.104,-103.214 140.902,-90.5805 82.3877,-76.056"/>
<polygon fill="midnightblue" stroke="midnightblue" points="83.1456,-72.6379 72.5958,-73.6129 81.451,-79.4297 83.1456,-72.6379"/>
</g>
<!-- Node5&#45;&gt;Node3 -->
<g id="edge6" class="edge"><title>Node5&#45;&gt;Node3</title>
<path fill="none" stroke="midnightblue" d="M259.334,-112.399C224.065,-101.47 176.083,-86.6004 144.792,-76.9034"/>
<polygon fill="midnightblue" stroke="midnightblue" points="145.451,-73.4433 134.863,-73.8263 143.379,-80.1296 145.451,-73.4433"/>
</g>
<!-- Node6 -->
<g id="node6" class="node"><title>Node6</title>
<polygon fill="none" stroke="#bfbfbf" points="266.835,-56.5 266.835,-75.5 304.835,-75.5 304.835,-56.5 266.835,-56.5"/>
<text text-anchor="middle" x="285.835" y="-63.5" font-family="Helvetica,sans-Serif" font-size="10.00">map</text>
</g>
<!-- Node5&#45;&gt;Node6 -->
<g id="edge7" class="edge"><title>Node5&#45;&gt;Node6</title>
<path fill="none" stroke="midnightblue" d="M300.332,-112.399C297.742,-104.288 294.459,-94.0071 291.673,-85.2807"/>
<polygon fill="midnightblue" stroke="midnightblue" points="294.976,-84.1192 288.6,-75.6578 288.308,-86.2486 294.976,-84.1192"/>
</g>
<!-- Node5&#45;&gt;Node7 -->
<g id="edge8" class="edge"><title>Node5&#45;&gt;Node7</title>
<path fill="none" stroke="midnightblue" d="M280.189,-112.399C263.518,-102.862 241.604,-90.3248 225.03,-80.8422"/>
<polygon fill="midnightblue" stroke="midnightblue" points="226.386,-77.5858 215.968,-75.6578 222.91,-83.6617 226.386,-77.5858"/>
</g>
<!-- Node5&#45;&gt;Node8 -->
<g id="edge9" class="edge"><title>Node5&#45;&gt;Node8</title>
<path fill="none" stroke="midnightblue" d="M311.499,-112.254C317.459,-97.2559 323.845,-73.4444 313.835,-56 305.22,-40.9862 289.444,-30.5036 274.405,-23.4579"/>
<polygon fill="midnightblue" stroke="midnightblue" points="275.777,-20.2378 265.207,-19.5053 273.013,-26.6691 275.777,-20.2378"/>
</g>
<!-- Node9 -->
<g id="node9" class="node"><title>Node9</title>
<polygon fill="none" stroke="#bfbfbf" points="283.335,-0.5 283.335,-19.5 342.335,-19.5 342.335,-0.5 283.335,-0.5"/>
<text text-anchor="middle" x="312.835" y="-7.5" font-family="Helvetica,sans-Serif" font-size="10.00">iostream</text>
</g>
<!-- Node5&#45;&gt;Node9 -->
<g id="edge10" class="edge"><title>Node5&#45;&gt;Node9</title>
<path fill="none" stroke="midnightblue" d="M321.249,-112.397C330.711,-103.14 341.718,-90.1558 346.835,-76 353.086,-58.7086 341.472,-40.247 330.156,-27.4348"/>
<polygon fill="midnightblue" stroke="midnightblue" points="332.393,-24.7101 322.953,-19.9002 327.333,-29.5472 332.393,-24.7101"/>
</g>
<!-- Node5&#45;&gt;Node10 -->
<g id="edge11" class="edge"><title>Node5&#45;&gt;Node10</title>
<path fill="none" stroke="midnightblue" d="M340.146,-112.399C365.257,-102.372 398.673,-89.028 422.77,-79.405"/>
<polygon fill="midnightblue" stroke="midnightblue" points="424.165,-82.6168 432.154,-75.6578 421.569,-76.1159 424.165,-82.6168"/>
</g>
<!-- Node10&#45;&gt;Node8 -->
<g id="edge13" class="edge"><title>Node10&#45;&gt;Node8</title>
<path fill="none" stroke="midnightblue" d="M419.451,-56.4435C380.23,-46.6835 316.258,-30.7643 275.38,-20.5919"/>
<polygon fill="midnightblue" stroke="midnightblue" points="276.064,-17.1553 265.515,-18.1368 274.373,-23.9481 276.064,-17.1553"/>
</g>
<!-- Node10&#45;&gt;Node9 -->
<g id="edge14" class="edge"><title>Node10&#45;&gt;Node9</title>
<path fill="none" stroke="midnightblue" d="M431.493,-56.4435C408.082,-47.4776 371.099,-33.314 344.645,-23.1827"/>
<polygon fill="midnightblue" stroke="midnightblue" points="345.663,-19.8245 335.072,-19.5164 343.159,-26.3615 345.663,-19.8245"/>
</g>
<!-- Node11 -->
<g id="node11" class="node"><title>Node11</title>
<polygon fill="none" stroke="#bfbfbf" points="497.335,-0.5 497.335,-19.5 544.335,-19.5 544.335,-0.5 497.335,-0.5"/>
<text text-anchor="middle" x="520.835" y="-7.5" font-family="Helvetica,sans-Serif" font-size="10.00">cmath</text>
</g>
<!-- Node10&#45;&gt;Node11 -->
<g id="edge12" class="edge"><title>Node10&#45;&gt;Node11</title>
<path fill="none" stroke="midnightblue" d="M464.6,-56.324C474.601,-48.2631 489.722,-36.0765 501.766,-26.3695"/>
<polygon fill="midnightblue" stroke="midnightblue" points="504.285,-28.8343 509.875,-19.8339 499.892,-23.3841 504.285,-28.8343"/>
</g>
<!-- Node12 -->
<g id="node12" class="node"><title>Node12</title>
<polygon fill="none" stroke="#bfbfbf" points="562.835,-0.5 562.835,-19.5 610.835,-19.5 610.835,-0.5 562.835,-0.5"/>
<text text-anchor="middle" x="586.835" y="-7.5" font-family="Helvetica,sans-Serif" font-size="10.00">dlfcn.h</text>
</g>
<!-- Node10&#45;&gt;Node12 -->
<g id="edge15" class="edge"><title>Node10&#45;&gt;Node12</title>
<path fill="none" stroke="midnightblue" d="M474.909,-56.4435C496.895,-47.5171 531.569,-33.4387 556.499,-23.3168"/>
<polygon fill="midnightblue" stroke="midnightblue" points="557.911,-26.5213 565.859,-19.5164 555.277,-20.0355 557.911,-26.5213"/>
</g>
<!-- Node13 -->
<g id="node13" class="node"><title>Node13</title>
<polygon fill="none" stroke="#bfbfbf" points="628.835,-0.5 628.835,-19.5 744.835,-19.5 744.835,-0.5 628.835,-0.5"/>
<text text-anchor="middle" x="686.835" y="-7.5" font-family="Helvetica,sans-Serif" font-size="10.00">boost/filesystem.hpp</text>
</g>
<!-- Node10&#45;&gt;Node13 -->
<g id="edge16" class="edge"><title>Node10&#45;&gt;Node13</title>
<path fill="none" stroke="midnightblue" d="M490.755,-56.4435C531.23,-47.0629 596.256,-31.9926 640.22,-21.8036"/>
<polygon fill="midnightblue" stroke="midnightblue" points="641.137,-25.1839 650.088,-19.5164 639.556,-18.3646 641.137,-25.1839"/>
</g>
<!-- Node14 -->
<g id="node14" class="node"><title>Node14</title>
<polygon fill="none" stroke="#bfbfbf" points="762.835,-0.5 762.835,-19.5 816.835,-19.5 816.835,-0.5 762.835,-0.5"/>
<text text-anchor="middle" x="789.835" y="-7.5" font-family="Helvetica,sans-Serif" font-size="10.00">fstream</text>
</g>
<!-- Node10&#45;&gt;Node14 -->
<g id="edge17" class="edge"><title>Node10&#45;&gt;Node14</title>
<path fill="none" stroke="midnightblue" d="M508.853,-58.3598C567.107,-50.9678 661.916,-37.9105 752.849,-20.0352"/>
<polygon fill="midnightblue" stroke="midnightblue" points="753.646,-23.4453 762.771,-18.0621 752.281,-16.5797 753.646,-23.4453"/>
</g>
<!-- Node15 -->
<g id="node15" class="node"><title>Node15</title>
<polygon fill="none" stroke="#bfbfbf" points="360.835,-0.5 360.835,-19.5 410.835,-19.5 410.835,-0.5 360.835,-0.5"/>
<text text-anchor="middle" x="385.835" y="-7.5" font-family="Helvetica,sans-Serif" font-size="10.00">chrono</text>
</g>
<!-- Node10&#45;&gt;Node15 -->
<g id="edge18" class="edge"><title>Node10&#45;&gt;Node15</title>
<path fill="none" stroke="midnightblue" d="M442.91,-56.324C432.66,-48.1849 417.114,-35.8395 404.834,-26.0874"/>
<polygon fill="midnightblue" stroke="midnightblue" points="406.967,-23.3119 396.959,-19.8339 402.614,-28.7937 406.967,-23.3119"/>
</g>
<!-- Node16 -->
<g id="node16" class="node"><title>Node16</title>
<polygon fill="none" stroke="#bfbfbf" points="428.835,-0.5 428.835,-19.5 478.835,-19.5 478.835,-0.5 428.835,-0.5"/>
<text text-anchor="middle" x="453.835" y="-7.5" font-family="Helvetica,sans-Serif" font-size="10.00">atomic</text>
</g>
<!-- Node10&#45;&gt;Node16 -->
<g id="edge19" class="edge"><title>Node10&#45;&gt;Node16</title>
<path fill="none" stroke="midnightblue" d="M453.835,-56.083C453.835,-49.0059 453.835,-38.8611 453.835,-29.9865"/>
<polygon fill="midnightblue" stroke="midnightblue" points="457.335,-29.751 453.835,-19.7511 450.335,-29.7511 457.335,-29.751"/>
</g>
</g>
</svg>
