<?xml version="1.0" encoding="UTF-8" standalone="no"?>
<!DOCTYPE svg PUBLIC "-//W3C//DTD SVG 1.1//EN"
 "http://www.w3.org/Graphics/SVG/1.1/DTD/svg11.dtd">
<!-- Generated by graphviz version 2.38.0 (20140413.2041)
 -->
<!-- Title: /home/travis/build/ADVRHumanoids/ROSEndEffector/src/GraspingActions/ActionTimed.cpp Pages: 1 -->
<svg width="761pt" height="296pt"
 viewBox="0.00 0.00 760.50 296.00" xmlns="http://www.w3.org/2000/svg" xmlns:xlink="http://www.w3.org/1999/xlink">
<g id="graph0" class="graph" transform="scale(1 1) rotate(0) translate(4 292)">
<title>/home/travis/build/ADVRHumanoids/ROSEndEffector/src/GraspingActions/ActionTimed.cpp</title>
<!-- Node1 -->
<g id="node1" class="node"><title>Node1</title>
<polygon fill="#bfbfbf" stroke="black" points="68,-246.5 68,-287.5 265,-287.5 265,-246.5 68,-246.5"/>
<text text-anchor="start" x="76" y="-275.5" font-family="Helvetica,sans-Serif" font-size="10.00">/home/travis/build</text>
<text text-anchor="start" x="76" y="-264.5" font-family="Helvetica,sans-Serif" font-size="10.00">/ADVRHumanoids/ROSEndEffector</text>
<text text-anchor="middle" x="166.5" y="-253.5" font-family="Helvetica,sans-Serif" font-size="10.00">/src/GraspingActions/ActionTimed.cpp</text>
</g>
<!-- Node2 -->
<g id="node2" class="node"><title>Node2</title>
<g id="a_node2"><a xlink:href="ActionTimed_8h.html" target="_top" xlink:title="ros_end_effector/Grasping\lActions/ActionTimed.h">
<polygon fill="none" stroke="black" points="95,-179.5 95,-209.5 238,-209.5 238,-179.5 95,-179.5"/>
<text text-anchor="start" x="103" y="-197.5" font-family="Helvetica,sans-Serif" font-size="10.00">ros_end_effector/Grasping</text>
<text text-anchor="middle" x="166.5" y="-186.5" font-family="Helvetica,sans-Serif" font-size="10.00">Actions/ActionTimed.h</text>
</a>
</g>
</g>
<!-- Node1&#45;&gt;Node2 -->
<g id="edge1" class="edge"><title>Node1&#45;&gt;Node2</title>
<path fill="none" stroke="midnightblue" d="M166.5,-246.362C166.5,-238.226 166.5,-228.7 166.5,-220.105"/>
<polygon fill="midnightblue" stroke="midnightblue" points="170,-219.892 166.5,-209.892 163,-219.892 170,-219.892"/>
</g>
<!-- Node3 -->
<g id="node3" class="node"><title>Node3</title>
<polygon fill="none" stroke="#bfbfbf" points="0,-56.5 0,-75.5 47,-75.5 47,-56.5 0,-56.5"/>
<text text-anchor="middle" x="23.5" y="-63.5" font-family="Helvetica,sans-Serif" font-size="10.00">vector</text>
</g>
<!-- Node2&#45;&gt;Node3 -->
<g id="edge2" class="edge"><title>Node2&#45;&gt;Node3</title>
<path fill="none" stroke="midnightblue" d="M149.865,-179.472C137.987,-169.404 121.67,-155.47 107.5,-143 83.9015,-122.232 57.0239,-97.7692 40.1622,-82.3221"/>
<polygon fill="midnightblue" stroke="midnightblue" points="42.4822,-79.7007 32.7475,-75.519 37.7497,-84.8586 42.4822,-79.7007"/>
</g>
<!-- Node4 -->
<g id="node4" class="node"><title>Node4</title>
<polygon fill="none" stroke="#bfbfbf" points="65.5,-56.5 65.5,-75.5 109.5,-75.5 109.5,-56.5 65.5,-56.5"/>
<text text-anchor="middle" x="87.5" y="-63.5" font-family="Helvetica,sans-Serif" font-size="10.00">string</text>
</g>
<!-- Node2&#45;&gt;Node4 -->
<g id="edge3" class="edge"><title>Node2&#45;&gt;Node4</title>
<path fill="none" stroke="midnightblue" d="M155.311,-179.259C147.697,-169.326 137.576,-155.639 129.5,-143 117.115,-123.618 104.574,-100.342 96.4618,-84.6994"/>
<polygon fill="midnightblue" stroke="midnightblue" points="99.4938,-82.9415 91.8169,-75.6397 93.2647,-86.1351 99.4938,-82.9415"/>
</g>
<!-- Node5 -->
<g id="node5" class="node"><title>Node5</title>
<polygon fill="none" stroke="#bfbfbf" points="127.5,-56.5 127.5,-75.5 165.5,-75.5 165.5,-56.5 127.5,-56.5"/>
<text text-anchor="middle" x="146.5" y="-63.5" font-family="Helvetica,sans-Serif" font-size="10.00">map</text>
</g>
<!-- Node2&#45;&gt;Node5 -->
<g id="edge4" class="edge"><title>Node2&#45;&gt;Node5</title>
<path fill="none" stroke="midnightblue" d="M154.958,-179.489C147.814,-169.875 139.303,-156.464 135.5,-143 130.024,-123.611 134.846,-100.628 139.717,-85.052"/>
<polygon fill="midnightblue" stroke="midnightblue" points="143.03,-86.1815 142.971,-75.5868 136.41,-83.9059 143.03,-86.1815"/>
</g>
<!-- Node6 -->
<g id="node6" class="node"><title>Node6</title>
<g id="a_node6"><a xlink:href="Action_8h.html" target="_top" xlink:title="ros_end_effector/Grasping\lActions/Action.h">
<polygon fill="none" stroke="black" points="145,-112.5 145,-142.5 288,-142.5 288,-112.5 145,-112.5"/>
<text text-anchor="start" x="153" y="-130.5" font-family="Helvetica,sans-Serif" font-size="10.00">ros_end_effector/Grasping</text>
<text text-anchor="middle" x="216.5" y="-119.5" font-family="Helvetica,sans-Serif" font-size="10.00">Actions/Action.h</text>
</a>
</g>
</g>
<!-- Node2&#45;&gt;Node6 -->
<g id="edge5" class="edge"><title>Node2&#45;&gt;Node6</title>
<path fill="none" stroke="midnightblue" d="M177.349,-179.396C183.836,-170.963 192.217,-160.067 199.56,-150.522"/>
<polygon fill="midnightblue" stroke="midnightblue" points="202.349,-152.637 205.672,-142.577 196.801,-148.369 202.349,-152.637"/>
</g>
<!-- Node7 -->
<g id="node7" class="node"><title>Node7</title>
<polygon fill="none" stroke="#bfbfbf" points="259.5,-56.5 259.5,-75.5 355.5,-75.5 355.5,-56.5 259.5,-56.5"/>
<text text-anchor="middle" x="307.5" y="-63.5" font-family="Helvetica,sans-Serif" font-size="10.00">yaml&#45;cpp/yaml.h</text>
</g>
<!-- Node2&#45;&gt;Node7 -->
<g id="edge22" class="edge"><title>Node2&#45;&gt;Node7</title>
<path fill="none" stroke="midnightblue" d="M238.07,-180.411C259.902,-172.96 281.954,-161.285 296.5,-143 309.313,-126.894 310.673,-102.576 309.733,-85.8067"/>
<polygon fill="midnightblue" stroke="midnightblue" points="313.198,-85.2488 308.828,-75.5971 306.225,-85.8672 313.198,-85.2488"/>
</g>
<!-- Node10 -->
<g id="node10" class="node"><title>Node10</title>
<g id="a_node10"><a xlink:href="Utils_8h.html" target="_top" xlink:title="ros_end_effector/Utils.h">
<polygon fill="none" stroke="black" points="373.5,-56.5 373.5,-75.5 503.5,-75.5 503.5,-56.5 373.5,-56.5"/>
<text text-anchor="middle" x="438.5" y="-63.5" font-family="Helvetica,sans-Serif" font-size="10.00">ros_end_effector/Utils.h</text>
</a>
</g>
</g>
<!-- Node2&#45;&gt;Node10 -->
<g id="edge21" class="edge"><title>Node2&#45;&gt;Node10</title>
<path fill="none" stroke="midnightblue" d="M218.36,-179.492C248.059,-170.654 285.64,-158.069 317.5,-143 355.115,-125.21 395.384,-98.1051 418.681,-81.5295"/>
<polygon fill="midnightblue" stroke="midnightblue" points="420.943,-84.2136 427.015,-75.5315 416.854,-78.5319 420.943,-84.2136"/>
</g>
<!-- Node6&#45;&gt;Node3 -->
<g id="edge6" class="edge"><title>Node6&#45;&gt;Node3</title>
<path fill="none" stroke="midnightblue" d="M170.762,-112.399C135.758,-101.608 88.2982,-86.9767 56.8277,-77.2746"/>
<polygon fill="midnightblue" stroke="midnightblue" points="57.7952,-73.9104 47.2079,-74.3089 55.7329,-80.5997 57.7952,-73.9104"/>
</g>
<!-- Node6&#45;&gt;Node4 -->
<g id="edge7" class="edge"><title>Node6&#45;&gt;Node4</title>
<path fill="none" stroke="midnightblue" d="M185.929,-112.399C164.575,-102.55 136.285,-89.5014 115.515,-79.9217"/>
<polygon fill="midnightblue" stroke="midnightblue" points="116.817,-76.668 106.271,-75.6578 113.885,-83.0244 116.817,-76.668"/>
</g>
<!-- Node6&#45;&gt;Node5 -->
<g id="edge8" class="edge"><title>Node6&#45;&gt;Node5</title>
<path fill="none" stroke="midnightblue" d="M199.911,-112.399C189.215,-103.308 175.312,-91.4899 164.372,-82.1909"/>
<polygon fill="midnightblue" stroke="midnightblue" points="166.572,-79.4675 156.686,-75.6578 162.038,-84.8011 166.572,-79.4675"/>
</g>
<!-- Node6&#45;&gt;Node7 -->
<g id="edge9" class="edge"><title>Node6&#45;&gt;Node7</title>
<path fill="none" stroke="midnightblue" d="M238.066,-112.399C252.38,-103.04 271.112,-90.7924 285.511,-81.3771"/>
<polygon fill="midnightblue" stroke="midnightblue" points="287.804,-84.0597 294.259,-75.6578 283.974,-78.2009 287.804,-84.0597"/>
</g>
<!-- Node8 -->
<g id="node8" class="node"><title>Node8</title>
<polygon fill="none" stroke="#bfbfbf" points="222,-0.5 222,-19.5 279,-19.5 279,-0.5 222,-0.5"/>
<text text-anchor="middle" x="250.5" y="-7.5" font-family="Helvetica,sans-Serif" font-size="10.00">memory</text>
</g>
<!-- Node6&#45;&gt;Node8 -->
<g id="edge10" class="edge"><title>Node6&#45;&gt;Node8</title>
<path fill="none" stroke="midnightblue" d="M220.669,-112.337C226.823,-91.4325 238.34,-52.3096 245.122,-29.2696"/>
<polygon fill="midnightblue" stroke="midnightblue" points="248.482,-30.2508 247.948,-19.6695 241.766,-28.2741 248.482,-30.2508"/>
</g>
<!-- Node9 -->
<g id="node9" class="node"><title>Node9</title>
<polygon fill="none" stroke="#bfbfbf" points="145,-0.5 145,-19.5 204,-19.5 204,-0.5 145,-0.5"/>
<text text-anchor="middle" x="174.5" y="-7.5" font-family="Helvetica,sans-Serif" font-size="10.00">iostream</text>
</g>
<!-- Node6&#45;&gt;Node9 -->
<g id="edge11" class="edge"><title>Node6&#45;&gt;Node9</title>
<path fill="none" stroke="midnightblue" d="M211.35,-112.337C203.748,-91.4325 189.522,-52.3096 181.144,-29.2696"/>
<polygon fill="midnightblue" stroke="midnightblue" points="184.359,-27.8713 177.653,-19.6695 177.781,-30.2635 184.359,-27.8713"/>
</g>
<!-- Node6&#45;&gt;Node10 -->
<g id="edge12" class="edge"><title>Node6&#45;&gt;Node10</title>
<path fill="none" stroke="midnightblue" d="M268.83,-112.475C307.966,-101.986 360.756,-87.8367 397.002,-78.1221"/>
<polygon fill="midnightblue" stroke="midnightblue" points="398.009,-81.4759 406.762,-75.5064 396.197,-74.7146 398.009,-81.4759"/>
</g>
<!-- Node10&#45;&gt;Node8 -->
<g id="edge14" class="edge"><title>Node10&#45;&gt;Node8</title>
<path fill="none" stroke="midnightblue" d="M408.711,-56.4435C376.388,-47.1594 324.663,-32.3022 289.213,-22.1197"/>
<polygon fill="midnightblue" stroke="midnightblue" points="289.803,-18.6476 279.225,-19.2508 287.87,-25.3756 289.803,-18.6476"/>
</g>
<!-- Node10&#45;&gt;Node9 -->
<g id="edge15" class="edge"><title>Node10&#45;&gt;Node9</title>
<path fill="none" stroke="midnightblue" d="M392.948,-56.4293C349.377,-48.1195 281.575,-34.8981 214.271,-20.3344"/>
<polygon fill="midnightblue" stroke="midnightblue" points="214.863,-16.8814 204.348,-18.1763 213.375,-23.7215 214.863,-16.8814"/>
</g>
<!-- Node11 -->
<g id="node11" class="node"><title>Node11</title>
<polygon fill="none" stroke="#bfbfbf" points="297,-0.5 297,-19.5 344,-19.5 344,-0.5 297,-0.5"/>
<text text-anchor="middle" x="320.5" y="-7.5" font-family="Helvetica,sans-Serif" font-size="10.00">cmath</text>
</g>
<!-- Node10&#45;&gt;Node11 -->
<g id="edge13" class="edge"><title>Node10&#45;&gt;Node11</title>
<path fill="none" stroke="midnightblue" d="M419.803,-56.4435C400.556,-47.6356 370.348,-33.8116 348.3,-23.722"/>
<polygon fill="midnightblue" stroke="midnightblue" points="349.66,-20.4951 339.11,-19.5164 346.747,-26.8603 349.66,-20.4951"/>
</g>
<!-- Node12 -->
<g id="node12" class="node"><title>Node12</title>
<polygon fill="none" stroke="#bfbfbf" points="362.5,-0.5 362.5,-19.5 410.5,-19.5 410.5,-0.5 362.5,-0.5"/>
<text text-anchor="middle" x="386.5" y="-7.5" font-family="Helvetica,sans-Serif" font-size="10.00">dlfcn.h</text>
</g>
<!-- Node10&#45;&gt;Node12 -->
<g id="edge16" class="edge"><title>Node10&#45;&gt;Node12</title>
<path fill="none" stroke="midnightblue" d="M429.913,-56.083C422.341,-48.2195 411.122,-36.5688 401.986,-27.0813"/>
<polygon fill="midnightblue" stroke="midnightblue" points="404.385,-24.5266 394.927,-19.7511 399.342,-29.3821 404.385,-24.5266"/>
</g>
<!-- Node13 -->
<g id="node13" class="node"><title>Node13</title>
<polygon fill="none" stroke="#bfbfbf" points="428.5,-0.5 428.5,-19.5 544.5,-19.5 544.5,-0.5 428.5,-0.5"/>
<text text-anchor="middle" x="486.5" y="-7.5" font-family="Helvetica,sans-Serif" font-size="10.00">boost/filesystem.hpp</text>
</g>
<!-- Node10&#45;&gt;Node13 -->
<g id="edge17" class="edge"><title>Node10&#45;&gt;Node13</title>
<path fill="none" stroke="midnightblue" d="M446.426,-56.083C453.346,-48.2982 463.565,-36.8015 471.952,-27.3665"/>
<polygon fill="midnightblue" stroke="midnightblue" points="474.694,-29.5505 478.721,-19.7511 469.462,-24.8999 474.694,-29.5505"/>
</g>
<!-- Node14 -->
<g id="node14" class="node"><title>Node14</title>
<polygon fill="none" stroke="#bfbfbf" points="562.5,-0.5 562.5,-19.5 616.5,-19.5 616.5,-0.5 562.5,-0.5"/>
<text text-anchor="middle" x="589.5" y="-7.5" font-family="Helvetica,sans-Serif" font-size="10.00">fstream</text>
</g>
<!-- Node10&#45;&gt;Node14 -->
<g id="edge18" class="edge"><title>Node10&#45;&gt;Node14</title>
<path fill="none" stroke="midnightblue" d="M462.426,-56.4435C487.719,-47.3986 527.802,-33.064 556.18,-22.9158"/>
<polygon fill="midnightblue" stroke="midnightblue" points="557.448,-26.1794 565.686,-19.5164 555.091,-19.5882 557.448,-26.1794"/>
</g>
<!-- Node15 -->
<g id="node15" class="node"><title>Node15</title>
<polygon fill="none" stroke="#bfbfbf" points="634.5,-0.5 634.5,-19.5 684.5,-19.5 684.5,-0.5 634.5,-0.5"/>
<text text-anchor="middle" x="659.5" y="-7.5" font-family="Helvetica,sans-Serif" font-size="10.00">chrono</text>
</g>
<!-- Node10&#45;&gt;Node15 -->
<g id="edge19" class="edge"><title>Node10&#45;&gt;Node15</title>
<path fill="none" stroke="midnightblue" d="M475.109,-56.4487C510.788,-48.0574 566.825,-34.7273 624.283,-20.2678"/>
<polygon fill="midnightblue" stroke="midnightblue" points="625.426,-23.5889 634.265,-17.7476 623.713,-16.8019 625.426,-23.5889"/>
</g>
<!-- Node16 -->
<g id="node16" class="node"><title>Node16</title>
<polygon fill="none" stroke="#bfbfbf" points="702.5,-0.5 702.5,-19.5 752.5,-19.5 752.5,-0.5 702.5,-0.5"/>
<text text-anchor="middle" x="727.5" y="-7.5" font-family="Helvetica,sans-Serif" font-size="10.00">atomic</text>
</g>
<!-- Node10&#45;&gt;Node16 -->
<g id="edge20" class="edge"><title>Node10&#45;&gt;Node16</title>
<path fill="none" stroke="midnightblue" d="M494.731,-56.4705C544.351,-48.6284 618.822,-36.0941 692.403,-20.0968"/>
<polygon fill="midnightblue" stroke="midnightblue" points="693.29,-23.4855 702.307,-17.9213 691.788,-16.6485 693.29,-23.4855"/>
</g>
</g>
</svg>
