<?xml version="1.0" encoding="UTF-8" standalone="no"?>
<!DOCTYPE svg PUBLIC "-//W3C//DTD SVG 1.1//EN"
 "http://www.w3.org/Graphics/SVG/1.1/DTD/svg11.dtd">
<!-- Generated by graphviz version 2.38.0 (20140413.2041)
 -->
<!-- Title: /home/travis/build/ADVRHumanoids/ROSEndEffector/src/GraspingActions/ActionComposed.cpp Pages: 1 -->
<svg width="834pt" height="363pt"
 viewBox="0.00 0.00 834.02 363.00" xmlns="http://www.w3.org/2000/svg" xmlns:xlink="http://www.w3.org/1999/xlink">
<g id="graph0" class="graph" transform="scale(1 1) rotate(0) translate(4 359)">
<title>/home/travis/build/ADVRHumanoids/ROSEndEffector/src/GraspingActions/ActionComposed.cpp</title>
<!-- Node1 -->
<g id="node1" class="node"><title>Node1</title>
<polygon fill="#bfbfbf" stroke="black" points="22.0245,-313.5 22.0245,-354.5 242.024,-354.5 242.024,-313.5 22.0245,-313.5"/>
<text text-anchor="start" x="30.0245" y="-342.5" font-family="Helvetica,sans-Serif" font-size="10.00">/home/travis/build</text>
<text text-anchor="start" x="30.0245" y="-331.5" font-family="Helvetica,sans-Serif" font-size="10.00">/ADVRHumanoids/ROSEndEffector</text>
<text text-anchor="middle" x="132.024" y="-320.5" font-family="Helvetica,sans-Serif" font-size="10.00">/src/GraspingActions/ActionComposed.cpp</text>
</g>
<!-- Node2 -->
<g id="node2" class="node"><title>Node2</title>
<g id="a_node2"><a xlink:href="ActionComposed_8h.html" target="_top" xlink:title="ros_end_effector/Grasping\lActions/ActionComposed.h">
<polygon fill="none" stroke="black" points="59.0245,-246.5 59.0245,-276.5 205.024,-276.5 205.024,-246.5 59.0245,-246.5"/>
<text text-anchor="start" x="67.0245" y="-264.5" font-family="Helvetica,sans-Serif" font-size="10.00">ros_end_effector/Grasping</text>
<text text-anchor="middle" x="132.024" y="-253.5" font-family="Helvetica,sans-Serif" font-size="10.00">Actions/ActionComposed.h</text>
</a>
</g>
</g>
<!-- Node1&#45;&gt;Node2 -->
<g id="edge1" class="edge"><title>Node1&#45;&gt;Node2</title>
<path fill="none" stroke="midnightblue" d="M132.024,-313.362C132.024,-305.226 132.024,-295.7 132.024,-287.105"/>
<polygon fill="midnightblue" stroke="midnightblue" points="135.525,-286.892 132.024,-276.892 128.525,-286.892 135.525,-286.892"/>
</g>
<!-- Node3 -->
<g id="node3" class="node"><title>Node3</title>
<polygon fill="none" stroke="#bfbfbf" points="24.5245,-56.5 24.5245,-75.5 71.5245,-75.5 71.5245,-56.5 24.5245,-56.5"/>
<text text-anchor="middle" x="48.0245" y="-63.5" font-family="Helvetica,sans-Serif" font-size="10.00">vector</text>
</g>
<!-- Node2&#45;&gt;Node3 -->
<g id="edge2" class="edge"><title>Node2&#45;&gt;Node3</title>
<path fill="none" stroke="midnightblue" d="M125.848,-246.271C110.817,-211.648 72.3586,-123.055 55.7998,-84.911"/>
<polygon fill="midnightblue" stroke="midnightblue" points="58.9404,-83.3561 51.7478,-75.5769 52.5193,-86.1436 58.9404,-83.3561"/>
</g>
<!-- Node4 -->
<g id="node4" class="node"><title>Node4</title>
<polygon fill="none" stroke="#bfbfbf" points="90.0245,-56.5 90.0245,-75.5 134.024,-75.5 134.024,-56.5 90.0245,-56.5"/>
<text text-anchor="middle" x="112.024" y="-63.5" font-family="Helvetica,sans-Serif" font-size="10.00">string</text>
</g>
<!-- Node2&#45;&gt;Node4 -->
<g id="edge3" class="edge"><title>Node2&#45;&gt;Node4</title>
<path fill="none" stroke="midnightblue" d="M130.554,-246.271C127.006,-211.944 117.974,-124.566 113.978,-85.9001"/>
<polygon fill="midnightblue" stroke="midnightblue" points="117.421,-85.164 112.911,-75.5769 110.458,-85.8838 117.421,-85.164"/>
</g>
<!-- Node5 -->
<g id="node5" class="node"><title>Node5</title>
<g id="a_node5"><a xlink:href="ActionGeneric_8h.html" target="_top" xlink:title="ros_end_effector/Grasping\lActions/ActionGeneric.h">
<polygon fill="none" stroke="black" points="204.524,-179.5 204.524,-209.5 347.524,-209.5 347.524,-179.5 204.524,-179.5"/>
<text text-anchor="start" x="212.524" y="-197.5" font-family="Helvetica,sans-Serif" font-size="10.00">ros_end_effector/Grasping</text>
<text text-anchor="middle" x="276.024" y="-186.5" font-family="Helvetica,sans-Serif" font-size="10.00">Actions/ActionGeneric.h</text>
</a>
</g>
</g>
<!-- Node2&#45;&gt;Node5 -->
<g id="edge4" class="edge"><title>Node2&#45;&gt;Node5</title>
<path fill="none" stroke="midnightblue" d="M163.27,-246.396C184.499,-236.814 212.776,-224.05 235.701,-213.702"/>
<polygon fill="midnightblue" stroke="midnightblue" points="237.165,-216.881 244.84,-209.577 234.285,-210.501 237.165,-216.881"/>
</g>
<!-- Node8 -->
<g id="node8" class="node"><title>Node8</title>
<polygon fill="none" stroke="#bfbfbf" points="152.024,-56.5 152.024,-75.5 248.024,-75.5 248.024,-56.5 152.024,-56.5"/>
<text text-anchor="middle" x="200.024" y="-63.5" font-family="Helvetica,sans-Serif" font-size="10.00">yaml&#45;cpp/yaml.h</text>
</g>
<!-- Node2&#45;&gt;Node8 -->
<g id="edge24" class="edge"><title>Node2&#45;&gt;Node8</title>
<path fill="none" stroke="midnightblue" d="M137.025,-246.271C149.14,-211.796 180.06,-123.812 193.557,-85.4028"/>
<polygon fill="midnightblue" stroke="midnightblue" points="196.997,-86.1717 197.01,-75.5769 190.393,-83.8509 196.997,-86.1717"/>
</g>
<!-- Node9 -->
<g id="node9" class="node"><title>Node9</title>
<polygon fill="none" stroke="#bfbfbf" points="217.524,-0.5 217.524,-19.5 274.524,-19.5 274.524,-0.5 217.524,-0.5"/>
<text text-anchor="middle" x="246.024" y="-7.5" font-family="Helvetica,sans-Serif" font-size="10.00">memory</text>
</g>
<!-- Node2&#45;&gt;Node9 -->
<g id="edge25" class="edge"><title>Node2&#45;&gt;Node9</title>
<path fill="none" stroke="midnightblue" d="M112.602,-246.331C67.246,-211.572 -37.9086,-120.24 15.0245,-56 38.9225,-26.9973 147.752,-16.4401 207.114,-12.795"/>
<polygon fill="midnightblue" stroke="midnightblue" points="207.461,-16.2809 217.243,-12.2106 207.058,-9.29249 207.461,-16.2809"/>
</g>
<!-- Node11 -->
<g id="node11" class="node"><title>Node11</title>
<g id="a_node11"><a xlink:href="Utils_8h.html" target="_top" xlink:title="ros_end_effector/Utils.h">
<polygon fill="none" stroke="black" points="398.024,-56.5 398.024,-75.5 528.024,-75.5 528.024,-56.5 398.024,-56.5"/>
<text text-anchor="middle" x="463.024" y="-63.5" font-family="Helvetica,sans-Serif" font-size="10.00">ros_end_effector/Utils.h</text>
</a>
</g>
</g>
<!-- Node2&#45;&gt;Node11 -->
<g id="edge23" class="edge"><title>Node2&#45;&gt;Node11</title>
<path fill="none" stroke="midnightblue" d="M205.092,-255.991C251.196,-250.369 310.432,-237.838 356.024,-210 406.192,-179.368 440.734,-115.688 455.283,-84.7019"/>
<polygon fill="midnightblue" stroke="midnightblue" points="458.495,-86.0941 459.444,-75.5418 452.122,-83.1989 458.495,-86.0941"/>
</g>
<!-- Node6 -->
<g id="node6" class="node"><title>Node6</title>
<g id="a_node6"><a xlink:href="Action_8h.html" target="_top" xlink:title="ros_end_effector/Grasping\lActions/Action.h">
<polygon fill="none" stroke="black" points="226.524,-112.5 226.524,-142.5 369.524,-142.5 369.524,-112.5 226.524,-112.5"/>
<text text-anchor="start" x="234.524" y="-130.5" font-family="Helvetica,sans-Serif" font-size="10.00">ros_end_effector/Grasping</text>
<text text-anchor="middle" x="298.024" y="-119.5" font-family="Helvetica,sans-Serif" font-size="10.00">Actions/Action.h</text>
</a>
</g>
</g>
<!-- Node5&#45;&gt;Node6 -->
<g id="edge5" class="edge"><title>Node5&#45;&gt;Node6</title>
<path fill="none" stroke="midnightblue" d="M280.798,-179.396C283.479,-171.474 286.896,-161.379 289.979,-152.271"/>
<polygon fill="midnightblue" stroke="midnightblue" points="293.369,-153.171 293.26,-142.577 286.739,-150.927 293.369,-153.171"/>
</g>
<!-- Node5&#45;&gt;Node8 -->
<g id="edge21" class="edge"><title>Node5&#45;&gt;Node8</title>
<path fill="none" stroke="midnightblue" d="M253.195,-179.342C240.669,-170.414 225.919,-157.789 217.024,-143 206.483,-125.472 202.463,-102.12 200.939,-85.948"/>
<polygon fill="midnightblue" stroke="midnightblue" points="204.406,-85.357 200.213,-75.6275 197.424,-85.8486 204.406,-85.357"/>
</g>
<!-- Node5&#45;&gt;Node11 -->
<g id="edge22" class="edge"><title>Node5&#45;&gt;Node11</title>
<path fill="none" stroke="midnightblue" d="M310.365,-179.3C330.775,-170.188 356.746,-157.391 378.024,-143 404.517,-125.083 431.425,-99.5111 447.673,-83.0822"/>
<polygon fill="midnightblue" stroke="midnightblue" points="450.272,-85.43 454.744,-75.8252 445.258,-80.5448 450.272,-85.43"/>
</g>
<!-- Node6&#45;&gt;Node3 -->
<g id="edge6" class="edge"><title>Node6&#45;&gt;Node3</title>
<path fill="none" stroke="midnightblue" d="M234.728,-112.43C193.736,-103.165 138.972,-90.5032 81.7441,-76.1109"/>
<polygon fill="midnightblue" stroke="midnightblue" points="82.3421,-72.652 71.7894,-73.596 80.6275,-79.4388 82.3421,-72.652"/>
</g>
<!-- Node6&#45;&gt;Node4 -->
<g id="edge7" class="edge"><title>Node6&#45;&gt;Node4</title>
<path fill="none" stroke="midnightblue" d="M253.945,-112.399C220.068,-101.562 174.083,-86.8521 143.757,-77.151"/>
<polygon fill="midnightblue" stroke="midnightblue" points="144.704,-73.7793 134.113,-74.066 142.571,-80.4465 144.704,-73.7793"/>
</g>
<!-- Node7 -->
<g id="node7" class="node"><title>Node7</title>
<polygon fill="none" stroke="#bfbfbf" points="266.024,-56.5 266.024,-75.5 304.024,-75.5 304.024,-56.5 266.024,-56.5"/>
<text text-anchor="middle" x="285.024" y="-63.5" font-family="Helvetica,sans-Serif" font-size="10.00">map</text>
</g>
<!-- Node6&#45;&gt;Node7 -->
<g id="edge8" class="edge"><title>Node6&#45;&gt;Node7</title>
<path fill="none" stroke="midnightblue" d="M294.944,-112.399C293.191,-104.377 290.974,-94.2328 289.082,-85.569"/>
<polygon fill="midnightblue" stroke="midnightblue" points="292.47,-84.6802 286.916,-75.6578 285.631,-86.1744 292.47,-84.6802"/>
</g>
<!-- Node6&#45;&gt;Node8 -->
<g id="edge9" class="edge"><title>Node6&#45;&gt;Node8</title>
<path fill="none" stroke="midnightblue" d="M274.8,-112.399C259.238,-102.951 238.827,-90.5589 223.263,-81.1089"/>
<polygon fill="midnightblue" stroke="midnightblue" points="224.649,-77.8558 214.284,-75.6578 221.016,-83.8394 224.649,-77.8558"/>
</g>
<!-- Node6&#45;&gt;Node9 -->
<g id="edge10" class="edge"><title>Node6&#45;&gt;Node9</title>
<path fill="none" stroke="midnightblue" d="M306.323,-112.474C313.914,-97.6597 322.618,-74.0001 313.024,-56 305.474,-41.8339 291.264,-31.3348 277.866,-24.0576"/>
<polygon fill="midnightblue" stroke="midnightblue" points="279.322,-20.8724 268.813,-19.5289 276.191,-27.1329 279.322,-20.8724"/>
</g>
<!-- Node10 -->
<g id="node10" class="node"><title>Node10</title>
<polygon fill="none" stroke="#bfbfbf" points="292.524,-0.5 292.524,-19.5 351.524,-19.5 351.524,-0.5 292.524,-0.5"/>
<text text-anchor="middle" x="322.024" y="-7.5" font-family="Helvetica,sans-Serif" font-size="10.00">iostream</text>
</g>
<!-- Node6&#45;&gt;Node10 -->
<g id="edge11" class="edge"><title>Node6&#45;&gt;Node10</title>
<path fill="none" stroke="midnightblue" d="M317.223,-112.454C327.905,-103.397 340.192,-90.6029 346.024,-76 352.416,-59.999 344.142,-41.5551 335.613,-28.4111"/>
<polygon fill="midnightblue" stroke="midnightblue" points="338.205,-26.0166 329.563,-19.8876 332.497,-30.0682 338.205,-26.0166"/>
</g>
<!-- Node6&#45;&gt;Node11 -->
<g id="edge12" class="edge"><title>Node6&#45;&gt;Node11</title>
<path fill="none" stroke="midnightblue" d="M337.127,-112.399C365.182,-102.283 402.597,-88.7905 429.333,-79.1493"/>
<polygon fill="midnightblue" stroke="midnightblue" points="430.796,-82.3426 439.015,-75.6578 428.421,-75.7576 430.796,-82.3426"/>
</g>
<!-- Node11&#45;&gt;Node9 -->
<g id="edge14" class="edge"><title>Node11&#45;&gt;Node9</title>
<path fill="none" stroke="midnightblue" d="M428.64,-56.4435C389.419,-46.6835 325.447,-30.7643 284.57,-20.5919"/>
<polygon fill="midnightblue" stroke="midnightblue" points="285.253,-17.1553 274.704,-18.1368 283.563,-23.9481 285.253,-17.1553"/>
</g>
<!-- Node11&#45;&gt;Node10 -->
<g id="edge15" class="edge"><title>Node11&#45;&gt;Node10</title>
<path fill="none" stroke="midnightblue" d="M440.683,-56.4435C417.272,-47.4776 380.289,-33.314 353.835,-23.1827"/>
<polygon fill="midnightblue" stroke="midnightblue" points="354.852,-19.8245 344.262,-19.5164 352.349,-26.3615 354.852,-19.8245"/>
</g>
<!-- Node12 -->
<g id="node12" class="node"><title>Node12</title>
<polygon fill="none" stroke="#bfbfbf" points="506.524,-0.5 506.524,-19.5 553.524,-19.5 553.524,-0.5 506.524,-0.5"/>
<text text-anchor="middle" x="530.024" y="-7.5" font-family="Helvetica,sans-Serif" font-size="10.00">cmath</text>
</g>
<!-- Node11&#45;&gt;Node12 -->
<g id="edge13" class="edge"><title>Node11&#45;&gt;Node12</title>
<path fill="none" stroke="midnightblue" d="M473.789,-56.324C483.791,-48.2631 498.911,-36.0765 510.955,-26.3695"/>
<polygon fill="midnightblue" stroke="midnightblue" points="513.474,-28.8343 519.064,-19.8339 509.082,-23.3841 513.474,-28.8343"/>
</g>
<!-- Node13 -->
<g id="node13" class="node"><title>Node13</title>
<polygon fill="none" stroke="#bfbfbf" points="572.024,-0.5 572.024,-19.5 620.024,-19.5 620.024,-0.5 572.024,-0.5"/>
<text text-anchor="middle" x="596.024" y="-7.5" font-family="Helvetica,sans-Serif" font-size="10.00">dlfcn.h</text>
</g>
<!-- Node11&#45;&gt;Node13 -->
<g id="edge16" class="edge"><title>Node11&#45;&gt;Node13</title>
<path fill="none" stroke="midnightblue" d="M484.099,-56.4435C506.084,-47.5171 540.759,-33.4387 565.689,-23.3168"/>
<polygon fill="midnightblue" stroke="midnightblue" points="567.1,-26.5213 575.049,-19.5164 564.467,-20.0355 567.1,-26.5213"/>
</g>
<!-- Node14 -->
<g id="node14" class="node"><title>Node14</title>
<polygon fill="none" stroke="#bfbfbf" points="638.024,-0.5 638.024,-19.5 754.024,-19.5 754.024,-0.5 638.024,-0.5"/>
<text text-anchor="middle" x="696.024" y="-7.5" font-family="Helvetica,sans-Serif" font-size="10.00">boost/filesystem.hpp</text>
</g>
<!-- Node11&#45;&gt;Node14 -->
<g id="edge17" class="edge"><title>Node11&#45;&gt;Node14</title>
<path fill="none" stroke="midnightblue" d="M499.944,-56.4435C540.42,-47.0629 605.445,-31.9926 649.409,-21.8036"/>
<polygon fill="midnightblue" stroke="midnightblue" points="650.326,-25.1839 659.278,-19.5164 648.746,-18.3646 650.326,-25.1839"/>
</g>
<!-- Node15 -->
<g id="node15" class="node"><title>Node15</title>
<polygon fill="none" stroke="#bfbfbf" points="772.024,-0.5 772.024,-19.5 826.024,-19.5 826.024,-0.5 772.024,-0.5"/>
<text text-anchor="middle" x="799.024" y="-7.5" font-family="Helvetica,sans-Serif" font-size="10.00">fstream</text>
</g>
<!-- Node11&#45;&gt;Node15 -->
<g id="edge18" class="edge"><title>Node11&#45;&gt;Node15</title>
<path fill="none" stroke="midnightblue" d="M528.296,-57.0482C587.015,-49.4764 675.822,-36.9935 762.009,-20.0419"/>
<polygon fill="midnightblue" stroke="midnightblue" points="762.836,-23.4462 771.961,-18.0621 761.47,-16.5807 762.836,-23.4462"/>
</g>
<!-- Node16 -->
<g id="node16" class="node"><title>Node16</title>
<polygon fill="none" stroke="#bfbfbf" points="370.024,-0.5 370.024,-19.5 420.024,-19.5 420.024,-0.5 370.024,-0.5"/>
<text text-anchor="middle" x="395.024" y="-7.5" font-family="Helvetica,sans-Serif" font-size="10.00">chrono</text>
</g>
<!-- Node11&#45;&gt;Node16 -->
<g id="edge19" class="edge"><title>Node11&#45;&gt;Node16</title>
<path fill="none" stroke="midnightblue" d="M452.099,-56.324C441.85,-48.1849 426.304,-35.8395 414.023,-26.0874"/>
<polygon fill="midnightblue" stroke="midnightblue" points="416.156,-23.3119 406.149,-19.8339 411.803,-28.7937 416.156,-23.3119"/>
</g>
<!-- Node17 -->
<g id="node17" class="node"><title>Node17</title>
<polygon fill="none" stroke="#bfbfbf" points="438.024,-0.5 438.024,-19.5 488.024,-19.5 488.024,-0.5 438.024,-0.5"/>
<text text-anchor="middle" x="463.024" y="-7.5" font-family="Helvetica,sans-Serif" font-size="10.00">atomic</text>
</g>
<!-- Node11&#45;&gt;Node17 -->
<g id="edge20" class="edge"><title>Node11&#45;&gt;Node17</title>
<path fill="none" stroke="midnightblue" d="M463.024,-56.083C463.024,-49.0059 463.024,-38.8611 463.024,-29.9865"/>
<polygon fill="midnightblue" stroke="midnightblue" points="466.525,-29.751 463.024,-19.7511 459.525,-29.7511 466.525,-29.751"/>
</g>
</g>
</svg>
