<?xml version="1.0" encoding="UTF-8" standalone="no"?>
<!DOCTYPE svg PUBLIC "-//W3C//DTD SVG 1.1//EN"
 "http://www.w3.org/Graphics/SVG/1.1/DTD/svg11.dtd">
<!-- Generated by graphviz version 2.38.0 (20140413.2041)
 -->
<!-- Title: /home/travis/build/ADVRHumanoids/ROSEndEffector/include/ros_end_effector/GraspingActions/ActionComposed.h Pages: 1 -->
<svg width="1055pt" height="495pt"
 viewBox="0.00 0.00 1054.73 495.00" xmlns="http://www.w3.org/2000/svg" xmlns:xlink="http://www.w3.org/1999/xlink">
<g id="graph0" class="graph" transform="scale(1 1) rotate(0) translate(4 491)">
<title>/home/travis/build/ADVRHumanoids/ROSEndEffector/include/ros_end_effector/GraspingActions/ActionComposed.h</title>
<!-- Node1 -->
<g id="node1" class="node"><title>Node1</title>
<polygon fill="#bfbfbf" stroke="black" points="458.732,-434.5 458.732,-486.5 649.732,-486.5 649.732,-434.5 458.732,-434.5"/>
<text text-anchor="start" x="466.732" y="-474.5" font-family="Helvetica,sans-Serif" font-size="10.00">/home/travis/build</text>
<text text-anchor="start" x="466.732" y="-463.5" font-family="Helvetica,sans-Serif" font-size="10.00">/ADVRHumanoids/ROSEndEffector</text>
<text text-anchor="start" x="466.732" y="-452.5" font-family="Helvetica,sans-Serif" font-size="10.00">/include/ros_end_effector</text>
<text text-anchor="middle" x="554.232" y="-441.5" font-family="Helvetica,sans-Serif" font-size="10.00">/GraspingActions/ActionComposed.h</text>
</g>
<!-- Node2 -->
<g id="node2" class="node"><title>Node2</title>
<g id="a_node2"><a xlink:href="UniversalRosEndEffectorExecutor_8h.html" target="_top" xlink:title="/home/travis/build\l/ADVRHumanoids/ROSEndEffector\l/include/ros_end_effector\l/UniversalRosEndEffectorExecutor.h">
<polygon fill="none" stroke="black" points="135.732,-78.5 135.732,-130.5 322.732,-130.5 322.732,-78.5 135.732,-78.5"/>
<text text-anchor="start" x="143.732" y="-118.5" font-family="Helvetica,sans-Serif" font-size="10.00">/home/travis/build</text>
<text text-anchor="start" x="143.732" y="-107.5" font-family="Helvetica,sans-Serif" font-size="10.00">/ADVRHumanoids/ROSEndEffector</text>
<text text-anchor="start" x="143.732" y="-96.5" font-family="Helvetica,sans-Serif" font-size="10.00">/include/ros_end_effector</text>
<text text-anchor="middle" x="229.232" y="-85.5" font-family="Helvetica,sans-Serif" font-size="10.00">/UniversalRosEndEffectorExecutor.h</text>
</a>
</g>
</g>
<!-- Node1&#45;&gt;Node2 -->
<g id="edge1" class="edge"><title>Node1&#45;&gt;Node2</title>
<path fill="none" stroke="midnightblue" d="M448.623,-445.676C306.16,-424.569 64.302,-379.205 13.2324,-309 -40.4122,-235.255 83.3809,-166.204 164.893,-130.609"/>
<polygon fill="midnightblue" stroke="midnightblue" points="448.303,-449.167 458.705,-447.154 449.318,-442.241 448.303,-449.167"/>
</g>
<!-- Node5 -->
<g id="node5" class="node"><title>Node5</title>
<g id="a_node5"><a xlink:href="YamlWorker_8h.html" target="_top" xlink:title="/home/travis/build\l/ADVRHumanoids/ROSEndEffector\l/include/ros_end_effector\l/YamlWorker.h">
<polygon fill="none" stroke="black" points="297.732,-345.5 297.732,-397.5 476.732,-397.5 476.732,-345.5 297.732,-345.5"/>
<text text-anchor="start" x="305.732" y="-385.5" font-family="Helvetica,sans-Serif" font-size="10.00">/home/travis/build</text>
<text text-anchor="start" x="305.732" y="-374.5" font-family="Helvetica,sans-Serif" font-size="10.00">/ADVRHumanoids/ROSEndEffector</text>
<text text-anchor="start" x="305.732" y="-363.5" font-family="Helvetica,sans-Serif" font-size="10.00">/include/ros_end_effector</text>
<text text-anchor="middle" x="387.232" y="-352.5" font-family="Helvetica,sans-Serif" font-size="10.00">/YamlWorker.h</text>
</a>
</g>
</g>
<!-- Node1&#45;&gt;Node5 -->
<g id="edge4" class="edge"><title>Node1&#45;&gt;Node5</title>
<path fill="none" stroke="midnightblue" d="M496.906,-429.635C476.884,-419.205 454.629,-407.611 435.427,-397.607"/>
<polygon fill="midnightblue" stroke="midnightblue" points="495.443,-432.82 505.929,-434.336 498.678,-426.612 495.443,-432.82"/>
</g>
<!-- Node8 -->
<g id="node8" class="node"><title>Node8</title>
<g id="a_node8"><a xlink:href="UniversalFindActions_8cpp.html" target="_top" xlink:title="/home/travis/build\l/ADVRHumanoids/ROSEndEffector\l/src/UniversalFindActions.cpp">
<polygon fill="none" stroke="black" points="670.732,-173 670.732,-214 849.732,-214 849.732,-173 670.732,-173"/>
<text text-anchor="start" x="678.732" y="-202" font-family="Helvetica,sans-Serif" font-size="10.00">/home/travis/build</text>
<text text-anchor="start" x="678.732" y="-191" font-family="Helvetica,sans-Serif" font-size="10.00">/ADVRHumanoids/ROSEndEffector</text>
<text text-anchor="middle" x="760.232" y="-180" font-family="Helvetica,sans-Serif" font-size="10.00">/src/UniversalFindActions.cpp</text>
</a>
</g>
</g>
<!-- Node1&#45;&gt;Node8 -->
<g id="edge18" class="edge"><title>Node1&#45;&gt;Node8</title>
<path fill="none" stroke="midnightblue" d="M591.158,-427.524C622.962,-398.709 668.739,-354.064 701.232,-309 723.467,-278.164 742.189,-237.79 752.259,-214.144"/>
<polygon fill="midnightblue" stroke="midnightblue" points="588.492,-425.214 583.39,-434.499 593.169,-430.422 588.492,-425.214"/>
</g>
<!-- Node14 -->
<g id="node14" class="node"><title>Node14</title>
<g id="a_node14"><a xlink:href="ActionComposed_8cpp.html" target="_top" xlink:title="/home/travis/build\l/ADVRHumanoids/ROSEndEffector\l/src/GraspingActions/ActionComposed.cpp">
<polygon fill="none" stroke="black" points="749.232,-351 749.232,-392 969.232,-392 969.232,-351 749.232,-351"/>
<text text-anchor="start" x="757.232" y="-380" font-family="Helvetica,sans-Serif" font-size="10.00">/home/travis/build</text>
<text text-anchor="start" x="757.232" y="-369" font-family="Helvetica,sans-Serif" font-size="10.00">/ADVRHumanoids/ROSEndEffector</text>
<text text-anchor="middle" x="859.232" y="-358" font-family="Helvetica,sans-Serif" font-size="10.00">/src/GraspingActions/ActionComposed.cpp</text>
</a>
</g>
</g>
<!-- Node1&#45;&gt;Node14 -->
<g id="edge17" class="edge"><title>Node1&#45;&gt;Node14</title>
<path fill="none" stroke="midnightblue" d="M651.849,-431.655C696.976,-418.783 749.503,-403.8 790.401,-392.134"/>
<polygon fill="midnightblue" stroke="midnightblue" points="650.698,-428.344 642.042,-434.453 652.618,-435.075 650.698,-428.344"/>
</g>
<!-- Node3 -->
<g id="node3" class="node"><title>Node3</title>
<g id="a_node3"><a xlink:href="UniversalRosEndEffector_8cpp.html" target="_top" xlink:title="/home/travis/build\l/ADVRHumanoids/ROSEndEffector\l/src/UniversalRosEndEffector.cpp">
<polygon fill="none" stroke="black" points="32.7324,-0.5 32.7324,-41.5 211.732,-41.5 211.732,-0.5 32.7324,-0.5"/>
<text text-anchor="start" x="40.7324" y="-29.5" font-family="Helvetica,sans-Serif" font-size="10.00">/home/travis/build</text>
<text text-anchor="start" x="40.7324" y="-18.5" font-family="Helvetica,sans-Serif" font-size="10.00">/ADVRHumanoids/ROSEndEffector</text>
<text text-anchor="middle" x="122.232" y="-7.5" font-family="Helvetica,sans-Serif" font-size="10.00">/src/UniversalRosEndEffector.cpp</text>
</a>
</g>
</g>
<!-- Node2&#45;&gt;Node3 -->
<g id="edge2" class="edge"><title>Node2&#45;&gt;Node3</title>
<path fill="none" stroke="midnightblue" d="M188.07,-72.1475C174.644,-61.921 160.121,-50.8594 148.141,-41.7338"/>
<polygon fill="midnightblue" stroke="midnightblue" points="186.18,-75.1073 196.256,-78.3823 190.421,-69.5386 186.18,-75.1073"/>
</g>
<!-- Node4 -->
<g id="node4" class="node"><title>Node4</title>
<g id="a_node4"><a xlink:href="UniversalRosEndEffectorExecutor_8cpp.html" target="_top" xlink:title="/home/travis/build\l/ADVRHumanoids/ROSEndEffector\l/src/UniversalRosEndEffectorExecutor.cpp">
<polygon fill="none" stroke="black" points="229.732,-0.5 229.732,-41.5 444.732,-41.5 444.732,-0.5 229.732,-0.5"/>
<text text-anchor="start" x="237.732" y="-29.5" font-family="Helvetica,sans-Serif" font-size="10.00">/home/travis/build</text>
<text text-anchor="start" x="237.732" y="-18.5" font-family="Helvetica,sans-Serif" font-size="10.00">/ADVRHumanoids/ROSEndEffector</text>
<text text-anchor="middle" x="337.232" y="-7.5" font-family="Helvetica,sans-Serif" font-size="10.00">/src/UniversalRosEndEffectorExecutor.cpp</text>
</a>
</g>
</g>
<!-- Node2&#45;&gt;Node4 -->
<g id="edge3" class="edge"><title>Node2&#45;&gt;Node4</title>
<path fill="none" stroke="midnightblue" d="M270.779,-72.1475C284.331,-61.921 298.989,-50.8594 311.082,-41.7338"/>
<polygon fill="midnightblue" stroke="midnightblue" points="268.391,-69.5648 262.517,-78.3823 272.608,-75.1524 268.391,-69.5648"/>
</g>
<!-- Node5&#45;&gt;Node2 -->
<g id="edge15" class="edge"><title>Node5&#45;&gt;Node2</title>
<path fill="none" stroke="midnightblue" d="M327.73,-340.158C313.759,-331.321 299.636,-320.816 288.232,-309 256.573,-276.196 250.49,-263.62 237.232,-220 228.193,-190.257 227.2,-154.245 227.803,-130.649"/>
<polygon fill="midnightblue" stroke="midnightblue" points="326.026,-343.218 336.385,-345.442 329.674,-337.244 326.026,-343.218"/>
</g>
<!-- Node6 -->
<g id="node6" class="node"><title>Node6</title>
<g id="a_node6"><a xlink:href="FindActions_8h.html" target="_top" xlink:title="/home/travis/build\l/ADVRHumanoids/ROSEndEffector\l/include/ros_end_effector\l/FindActions.h">
<polygon fill="none" stroke="black" points="513.732,-256.5 513.732,-308.5 692.732,-308.5 692.732,-256.5 513.732,-256.5"/>
<text text-anchor="start" x="521.732" y="-296.5" font-family="Helvetica,sans-Serif" font-size="10.00">/home/travis/build</text>
<text text-anchor="start" x="521.732" y="-285.5" font-family="Helvetica,sans-Serif" font-size="10.00">/ADVRHumanoids/ROSEndEffector</text>
<text text-anchor="start" x="521.732" y="-274.5" font-family="Helvetica,sans-Serif" font-size="10.00">/include/ros_end_effector</text>
<text text-anchor="middle" x="603.232" y="-263.5" font-family="Helvetica,sans-Serif" font-size="10.00">/FindActions.h</text>
</a>
</g>
</g>
<!-- Node5&#45;&gt;Node6 -->
<g id="edge5" class="edge"><title>Node5&#45;&gt;Node6</title>
<path fill="none" stroke="midnightblue" d="M459.043,-341.576C485.609,-330.876 515.478,-318.846 541.111,-308.521"/>
<polygon fill="midnightblue" stroke="midnightblue" points="457.387,-338.47 449.419,-345.453 460.002,-344.963 457.387,-338.47"/>
</g>
<!-- Node9 -->
<g id="node9" class="node"><title>Node9</title>
<g id="a_node9"><a xlink:href="MapActionHandler_8h.html" target="_top" xlink:title="/home/travis/build\l/ADVRHumanoids/ROSEndEffector\l/include/ros_end_effector\l/MapActionHandler.h">
<polygon fill="none" stroke="black" points="297.732,-256.5 297.732,-308.5 476.732,-308.5 476.732,-256.5 297.732,-256.5"/>
<text text-anchor="start" x="305.732" y="-296.5" font-family="Helvetica,sans-Serif" font-size="10.00">/home/travis/build</text>
<text text-anchor="start" x="305.732" y="-285.5" font-family="Helvetica,sans-Serif" font-size="10.00">/ADVRHumanoids/ROSEndEffector</text>
<text text-anchor="start" x="305.732" y="-274.5" font-family="Helvetica,sans-Serif" font-size="10.00">/include/ros_end_effector</text>
<text text-anchor="middle" x="387.232" y="-263.5" font-family="Helvetica,sans-Serif" font-size="10.00">/MapActionHandler.h</text>
</a>
</g>
</g>
<!-- Node5&#45;&gt;Node9 -->
<g id="edge8" class="edge"><title>Node5&#45;&gt;Node9</title>
<path fill="none" stroke="midnightblue" d="M387.232,-335.191C387.232,-326.282 387.232,-316.899 387.232,-308.607"/>
<polygon fill="midnightblue" stroke="midnightblue" points="383.733,-335.336 387.232,-345.336 390.733,-335.336 383.733,-335.336"/>
</g>
<!-- Node13 -->
<g id="node13" class="node"><title>Node13</title>
<g id="a_node13"><a xlink:href="YamlWorker_8cpp.html" target="_top" xlink:title="/home/travis/build\l/ADVRHumanoids/ROSEndEffector\l/src/YamlWorker.cpp">
<polygon fill="none" stroke="black" points="22.7324,-262 22.7324,-303 201.732,-303 201.732,-262 22.7324,-262"/>
<text text-anchor="start" x="30.7324" y="-291" font-family="Helvetica,sans-Serif" font-size="10.00">/home/travis/build</text>
<text text-anchor="start" x="30.7324" y="-280" font-family="Helvetica,sans-Serif" font-size="10.00">/ADVRHumanoids/ROSEndEffector</text>
<text text-anchor="middle" x="112.232" y="-269" font-family="Helvetica,sans-Serif" font-size="10.00">/src/YamlWorker.cpp</text>
</a>
</g>
</g>
<!-- Node5&#45;&gt;Node13 -->
<g id="edge16" class="edge"><title>Node5&#45;&gt;Node13</title>
<path fill="none" stroke="midnightblue" d="M298.449,-342.412C257.934,-329.595 210.937,-314.727 174.293,-303.134"/>
<polygon fill="midnightblue" stroke="midnightblue" points="297.47,-345.773 308.06,-345.453 299.581,-339.099 297.47,-345.773"/>
</g>
<!-- Node7 -->
<g id="node7" class="node"><title>Node7</title>
<g id="a_node7"><a xlink:href="FindActions_8cpp.html" target="_top" xlink:title="/home/travis/build\l/ADVRHumanoids/ROSEndEffector\l/src/FindActions.cpp">
<polygon fill="none" stroke="black" points="867.732,-173 867.732,-214 1046.73,-214 1046.73,-173 867.732,-173"/>
<text text-anchor="start" x="875.732" y="-202" font-family="Helvetica,sans-Serif" font-size="10.00">/home/travis/build</text>
<text text-anchor="start" x="875.732" y="-191" font-family="Helvetica,sans-Serif" font-size="10.00">/ADVRHumanoids/ROSEndEffector</text>
<text text-anchor="middle" x="957.232" y="-180" font-family="Helvetica,sans-Serif" font-size="10.00">/src/FindActions.cpp</text>
</a>
</g>
</g>
<!-- Node6&#45;&gt;Node7 -->
<g id="edge6" class="edge"><title>Node6&#45;&gt;Node7</title>
<path fill="none" stroke="midnightblue" d="M702.907,-257.838C750.044,-246.551 807.079,-232.756 858.232,-220 865.896,-218.089 873.886,-216.072 881.859,-214.043"/>
<polygon fill="midnightblue" stroke="midnightblue" points="701.916,-254.476 693.005,-260.207 703.544,-261.284 701.916,-254.476"/>
</g>
<!-- Node6&#45;&gt;Node8 -->
<g id="edge7" class="edge"><title>Node6&#45;&gt;Node8</title>
<path fill="none" stroke="midnightblue" d="M657.666,-251.336C679.942,-238.992 705.08,-225.062 724.895,-214.082"/>
<polygon fill="midnightblue" stroke="midnightblue" points="655.694,-248.428 648.643,-256.336 659.087,-254.55 655.694,-248.428"/>
</g>
<!-- Node9&#45;&gt;Node2 -->
<g id="edge12" class="edge"><title>Node9&#45;&gt;Node2</title>
<path fill="none" stroke="midnightblue" d="M306.89,-251.413C292.187,-243.031 278.085,-232.656 267.232,-220 245.282,-194.401 235.911,-155.714 231.979,-130.525"/>
<polygon fill="midnightblue" stroke="midnightblue" points="305.635,-254.713 316.098,-256.377 308.957,-248.551 305.635,-254.713"/>
</g>
<!-- Node9&#45;&gt;Node8 -->
<g id="edge14" class="edge"><title>Node9&#45;&gt;Node8</title>
<path fill="none" stroke="midnightblue" d="M486.815,-259.491C551.02,-245.235 628.435,-227.903 661.232,-220 669.083,-218.108 677.271,-216.084 685.427,-214.033"/>
<polygon fill="midnightblue" stroke="midnightblue" points="486.043,-256.077 477.039,-261.661 487.56,-262.911 486.043,-256.077"/>
</g>
<!-- Node10 -->
<g id="node10" class="node"><title>Node10</title>
<g id="a_node10"><a xlink:href="RosServiceHandler_8h.html" target="_top" xlink:title="/home/travis/build\l/ADVRHumanoids/ROSEndEffector\l/include/ros_end_effector\l/RosServiceHandler.h">
<polygon fill="none" stroke="black" points="473.732,-167.5 473.732,-219.5 652.732,-219.5 652.732,-167.5 473.732,-167.5"/>
<text text-anchor="start" x="481.732" y="-207.5" font-family="Helvetica,sans-Serif" font-size="10.00">/home/travis/build</text>
<text text-anchor="start" x="481.732" y="-196.5" font-family="Helvetica,sans-Serif" font-size="10.00">/ADVRHumanoids/ROSEndEffector</text>
<text text-anchor="start" x="481.732" y="-185.5" font-family="Helvetica,sans-Serif" font-size="10.00">/include/ros_end_effector</text>
<text text-anchor="middle" x="563.232" y="-174.5" font-family="Helvetica,sans-Serif" font-size="10.00">/RosServiceHandler.h</text>
</a>
</g>
</g>
<!-- Node9&#45;&gt;Node10 -->
<g id="edge9" class="edge"><title>Node9&#45;&gt;Node10</title>
<path fill="none" stroke="midnightblue" d="M447.363,-251.776C468.537,-241.309 492.112,-229.656 512.44,-219.607"/>
<polygon fill="midnightblue" stroke="midnightblue" points="445.552,-248.767 438.139,-256.336 448.654,-255.042 445.552,-248.767"/>
</g>
<!-- Node12 -->
<g id="node12" class="node"><title>Node12</title>
<g id="a_node12"><a xlink:href="MapActionHandler_8cpp.html" target="_top" xlink:title="/home/travis/build\l/ADVRHumanoids/ROSEndEffector\l/src/MapActionHandler.cpp">
<polygon fill="none" stroke="black" points="276.732,-173 276.732,-214 455.732,-214 455.732,-173 276.732,-173"/>
<text text-anchor="start" x="284.732" y="-202" font-family="Helvetica,sans-Serif" font-size="10.00">/home/travis/build</text>
<text text-anchor="start" x="284.732" y="-191" font-family="Helvetica,sans-Serif" font-size="10.00">/ADVRHumanoids/ROSEndEffector</text>
<text text-anchor="middle" x="366.232" y="-180" font-family="Helvetica,sans-Serif" font-size="10.00">/src/MapActionHandler.cpp</text>
</a>
</g>
</g>
<!-- Node9&#45;&gt;Node12 -->
<g id="edge13" class="edge"><title>Node9&#45;&gt;Node12</title>
<path fill="none" stroke="midnightblue" d="M378.783,-246.494C376.117,-235.45 373.268,-223.647 370.959,-214.082"/>
<polygon fill="midnightblue" stroke="midnightblue" points="375.41,-247.436 381.158,-256.336 382.214,-245.794 375.41,-247.436"/>
</g>
<!-- Node10&#45;&gt;Node2 -->
<g id="edge10" class="edge"><title>Node10&#45;&gt;Node2</title>
<path fill="none" stroke="midnightblue" d="M464.017,-166.657C419.309,-155.011 366.793,-141.332 322.778,-129.867"/>
<polygon fill="midnightblue" stroke="midnightblue" points="463.167,-170.052 473.727,-169.186 464.932,-163.278 463.167,-170.052"/>
</g>
<!-- Node11 -->
<g id="node11" class="node"><title>Node11</title>
<g id="a_node11"><a xlink:href="RosServiceHandler_8cpp.html" target="_top" xlink:title="/home/travis/build\l/ADVRHumanoids/ROSEndEffector\l/src/RosServiceHandler.cpp">
<polygon fill="none" stroke="black" points="473.732,-84 473.732,-125 652.732,-125 652.732,-84 473.732,-84"/>
<text text-anchor="start" x="481.732" y="-113" font-family="Helvetica,sans-Serif" font-size="10.00">/home/travis/build</text>
<text text-anchor="start" x="481.732" y="-102" font-family="Helvetica,sans-Serif" font-size="10.00">/ADVRHumanoids/ROSEndEffector</text>
<text text-anchor="middle" x="563.232" y="-91" font-family="Helvetica,sans-Serif" font-size="10.00">/src/RosServiceHandler.cpp</text>
</a>
</g>
</g>
<!-- Node10&#45;&gt;Node11 -->
<g id="edge11" class="edge"><title>Node10&#45;&gt;Node11</title>
<path fill="none" stroke="midnightblue" d="M563.232,-157.155C563.232,-146.21 563.232,-134.549 563.232,-125.082"/>
<polygon fill="midnightblue" stroke="midnightblue" points="559.733,-157.336 563.232,-167.336 566.733,-157.336 559.733,-157.336"/>
</g>
</g>
</svg>
