<?xml version="1.0" encoding="UTF-8" standalone="no"?>
<!DOCTYPE svg PUBLIC "-//W3C//DTD SVG 1.1//EN"
 "http://www.w3.org/Graphics/SVG/1.1/DTD/svg11.dtd">
<!-- Generated by graphviz version 2.38.0 (20140413.2041)
 -->
<!-- Title: /home/travis/build/ADVRHumanoids/ROSEndEffector/include/ros_end_effector/GraspingActions/ActionTimed.h Pages: 1 -->
<svg width="894pt" height="495pt"
 viewBox="0.00 0.00 894.13 495.00" xmlns="http://www.w3.org/2000/svg" xmlns:xlink="http://www.w3.org/1999/xlink">
<g id="graph0" class="graph" transform="scale(1 1) rotate(0) translate(4 491)">
<title>/home/travis/build/ADVRHumanoids/ROSEndEffector/include/ros_end_effector/GraspingActions/ActionTimed.h</title>
<!-- Node1 -->
<g id="node1" class="node"><title>Node1</title>
<polygon fill="#bfbfbf" stroke="black" points="352.128,-434.5 352.128,-486.5 531.128,-486.5 531.128,-434.5 352.128,-434.5"/>
<text text-anchor="start" x="360.128" y="-474.5" font-family="Helvetica,sans-Serif" font-size="10.00">/home/travis/build</text>
<text text-anchor="start" x="360.128" y="-463.5" font-family="Helvetica,sans-Serif" font-size="10.00">/ADVRHumanoids/ROSEndEffector</text>
<text text-anchor="start" x="360.128" y="-452.5" font-family="Helvetica,sans-Serif" font-size="10.00">/include/ros_end_effector</text>
<text text-anchor="middle" x="441.628" y="-441.5" font-family="Helvetica,sans-Serif" font-size="10.00">/GraspingActions/ActionTimed.h</text>
</g>
<!-- Node2 -->
<g id="node2" class="node"><title>Node2</title>
<g id="a_node2"><a xlink:href="MapActionHandler_8h.html" target="_top" xlink:title="/home/travis/build\l/ADVRHumanoids/ROSEndEffector\l/include/ros_end_effector\l/MapActionHandler.h">
<polygon fill="none" stroke="black" points="451.128,-256.5 451.128,-308.5 630.128,-308.5 630.128,-256.5 451.128,-256.5"/>
<text text-anchor="start" x="459.128" y="-296.5" font-family="Helvetica,sans-Serif" font-size="10.00">/home/travis/build</text>
<text text-anchor="start" x="459.128" y="-285.5" font-family="Helvetica,sans-Serif" font-size="10.00">/ADVRHumanoids/ROSEndEffector</text>
<text text-anchor="start" x="459.128" y="-274.5" font-family="Helvetica,sans-Serif" font-size="10.00">/include/ros_end_effector</text>
<text text-anchor="middle" x="540.628" y="-263.5" font-family="Helvetica,sans-Serif" font-size="10.00">/MapActionHandler.h</text>
</a>
</g>
</g>
<!-- Node1&#45;&gt;Node2 -->
<g id="edge1" class="edge"><title>Node1&#45;&gt;Node2</title>
<path fill="none" stroke="midnightblue" d="M448.81,-424.454C454.691,-400.809 464.539,-369.562 479.628,-345 487.814,-331.674 499.417,-319.025 510.308,-308.703"/>
<polygon fill="midnightblue" stroke="midnightblue" points="445.352,-423.868 446.455,-434.405 452.164,-425.479 445.352,-423.868"/>
</g>
<!-- Node9 -->
<g id="node9" class="node"><title>Node9</title>
<g id="a_node9"><a xlink:href="UniversalFindActions_8cpp.html" target="_top" xlink:title="/home/travis/build\l/ADVRHumanoids/ROSEndEffector\l/src/UniversalFindActions.cpp">
<polygon fill="none" stroke="black" points="274.128,-173 274.128,-214 453.128,-214 453.128,-173 274.128,-173"/>
<text text-anchor="start" x="282.128" y="-202" font-family="Helvetica,sans-Serif" font-size="10.00">/home/travis/build</text>
<text text-anchor="start" x="282.128" y="-191" font-family="Helvetica,sans-Serif" font-size="10.00">/ADVRHumanoids/ROSEndEffector</text>
<text text-anchor="middle" x="363.628" y="-180" font-family="Helvetica,sans-Serif" font-size="10.00">/src/UniversalFindActions.cpp</text>
</a>
</g>
</g>
<!-- Node1&#45;&gt;Node9 -->
<g id="edge18" class="edge"><title>Node1&#45;&gt;Node9</title>
<path fill="none" stroke="midnightblue" d="M438.888,-424.066C434.769,-382.556 424.936,-312.3 402.628,-256 396.713,-241.073 387.069,-225.82 378.851,-214.239"/>
<polygon fill="midnightblue" stroke="midnightblue" points="435.422,-424.594 439.838,-434.224 442.392,-423.942 435.422,-424.594"/>
</g>
<!-- Node10 -->
<g id="node10" class="node"><title>Node10</title>
<g id="a_node10"><a xlink:href="YamlWorker_8h.html" target="_top" xlink:title="/home/travis/build\l/ADVRHumanoids/ROSEndEffector\l/include/ros_end_effector\l/YamlWorker.h">
<polygon fill="none" stroke="black" points="215.128,-345.5 215.128,-397.5 394.128,-397.5 394.128,-345.5 215.128,-345.5"/>
<text text-anchor="start" x="223.128" y="-385.5" font-family="Helvetica,sans-Serif" font-size="10.00">/home/travis/build</text>
<text text-anchor="start" x="223.128" y="-374.5" font-family="Helvetica,sans-Serif" font-size="10.00">/ADVRHumanoids/ROSEndEffector</text>
<text text-anchor="start" x="223.128" y="-363.5" font-family="Helvetica,sans-Serif" font-size="10.00">/include/ros_end_effector</text>
<text text-anchor="middle" x="304.628" y="-352.5" font-family="Helvetica,sans-Serif" font-size="10.00">/YamlWorker.h</text>
</a>
</g>
</g>
<!-- Node1&#45;&gt;Node10 -->
<g id="edge10" class="edge"><title>Node1&#45;&gt;Node10</title>
<path fill="none" stroke="midnightblue" d="M393.264,-428.787C377.19,-418.579 359.492,-407.341 344.165,-397.607"/>
<polygon fill="midnightblue" stroke="midnightblue" points="391.684,-431.93 402.002,-434.336 395.436,-426.021 391.684,-431.93"/>
</g>
<!-- Node14 -->
<g id="node14" class="node"><title>Node14</title>
<g id="a_node14"><a xlink:href="ActionTimed_8cpp.html" target="_top" xlink:title="/home/travis/build\l/ADVRHumanoids/ROSEndEffector\l/src/GraspingActions/ActionTimed.cpp">
<polygon fill="none" stroke="black" points="489.128,-351 489.128,-392 686.128,-392 686.128,-351 489.128,-351"/>
<text text-anchor="start" x="497.128" y="-380" font-family="Helvetica,sans-Serif" font-size="10.00">/home/travis/build</text>
<text text-anchor="start" x="497.128" y="-369" font-family="Helvetica,sans-Serif" font-size="10.00">/ADVRHumanoids/ROSEndEffector</text>
<text text-anchor="middle" x="587.628" y="-358" font-family="Helvetica,sans-Serif" font-size="10.00">/src/GraspingActions/ActionTimed.cpp</text>
</a>
</g>
</g>
<!-- Node1&#45;&gt;Node14 -->
<g id="edge17" class="edge"><title>Node1&#45;&gt;Node14</title>
<path fill="none" stroke="midnightblue" d="M492.524,-429.171C513.171,-416.868 536.422,-403.013 554.766,-392.082"/>
<polygon fill="midnightblue" stroke="midnightblue" points="490.656,-426.21 483.857,-434.336 494.239,-432.224 490.656,-426.21"/>
</g>
<!-- Node3 -->
<g id="node3" class="node"><title>Node3</title>
<g id="a_node3"><a xlink:href="RosServiceHandler_8h.html" target="_top" xlink:title="/home/travis/build\l/ADVRHumanoids/ROSEndEffector\l/include/ros_end_effector\l/RosServiceHandler.h">
<polygon fill="none" stroke="black" points="707.128,-167.5 707.128,-219.5 886.128,-219.5 886.128,-167.5 707.128,-167.5"/>
<text text-anchor="start" x="715.128" y="-207.5" font-family="Helvetica,sans-Serif" font-size="10.00">/home/travis/build</text>
<text text-anchor="start" x="715.128" y="-196.5" font-family="Helvetica,sans-Serif" font-size="10.00">/ADVRHumanoids/ROSEndEffector</text>
<text text-anchor="start" x="715.128" y="-185.5" font-family="Helvetica,sans-Serif" font-size="10.00">/include/ros_end_effector</text>
<text text-anchor="middle" x="796.628" y="-174.5" font-family="Helvetica,sans-Serif" font-size="10.00">/RosServiceHandler.h</text>
</a>
</g>
</g>
<!-- Node2&#45;&gt;Node3 -->
<g id="edge2" class="edge"><title>Node2&#45;&gt;Node3</title>
<path fill="none" stroke="midnightblue" d="M624.083,-253.138C655.978,-242.299 692.089,-230.027 723.003,-219.521"/>
<polygon fill="midnightblue" stroke="midnightblue" points="622.672,-249.921 614.33,-256.453 624.925,-256.549 622.672,-249.921"/>
</g>
<!-- Node4 -->
<g id="node4" class="node"><title>Node4</title>
<g id="a_node4"><a xlink:href="UniversalRosEndEffectorExecutor_8h.html" target="_top" xlink:title="/home/travis/build\l/ADVRHumanoids/ROSEndEffector\l/include/ros_end_effector\l/UniversalRosEndEffectorExecutor.h">
<polygon fill="none" stroke="black" points="388.128,-78.5 388.128,-130.5 575.128,-130.5 575.128,-78.5 388.128,-78.5"/>
<text text-anchor="start" x="396.128" y="-118.5" font-family="Helvetica,sans-Serif" font-size="10.00">/home/travis/build</text>
<text text-anchor="start" x="396.128" y="-107.5" font-family="Helvetica,sans-Serif" font-size="10.00">/ADVRHumanoids/ROSEndEffector</text>
<text text-anchor="start" x="396.128" y="-96.5" font-family="Helvetica,sans-Serif" font-size="10.00">/include/ros_end_effector</text>
<text text-anchor="middle" x="481.628" y="-85.5" font-family="Helvetica,sans-Serif" font-size="10.00">/UniversalRosEndEffectorExecutor.h</text>
</a>
</g>
</g>
<!-- Node2&#45;&gt;Node4 -->
<g id="edge7" class="edge"><title>Node2&#45;&gt;Node4</title>
<path fill="none" stroke="midnightblue" d="M515.345,-248.056C509.74,-239.305 504.364,-229.617 500.628,-220 489.244,-190.699 484.679,-154.59 482.849,-130.852"/>
<polygon fill="midnightblue" stroke="midnightblue" points="512.5,-250.098 520.973,-256.458 518.315,-246.202 512.5,-250.098"/>
</g>
<!-- Node8 -->
<g id="node8" class="node"><title>Node8</title>
<g id="a_node8"><a xlink:href="MapActionHandler_8cpp.html" target="_top" xlink:title="/home/travis/build\l/ADVRHumanoids/ROSEndEffector\l/src/MapActionHandler.cpp">
<polygon fill="none" stroke="black" points="510.128,-173 510.128,-214 689.128,-214 689.128,-173 510.128,-173"/>
<text text-anchor="start" x="518.128" y="-202" font-family="Helvetica,sans-Serif" font-size="10.00">/home/travis/build</text>
<text text-anchor="start" x="518.128" y="-191" font-family="Helvetica,sans-Serif" font-size="10.00">/ADVRHumanoids/ROSEndEffector</text>
<text text-anchor="middle" x="599.628" y="-180" font-family="Helvetica,sans-Serif" font-size="10.00">/src/MapActionHandler.cpp</text>
</a>
</g>
</g>
<!-- Node2&#45;&gt;Node8 -->
<g id="edge8" class="edge"><title>Node2&#45;&gt;Node8</title>
<path fill="none" stroke="midnightblue" d="M563.453,-247.842C571.201,-236.417 579.597,-224.037 586.348,-214.082"/>
<polygon fill="midnightblue" stroke="midnightblue" points="560.409,-246.095 557.693,-256.336 566.203,-250.024 560.409,-246.095"/>
</g>
<!-- Node2&#45;&gt;Node9 -->
<g id="edge9" class="edge"><title>Node2&#45;&gt;Node9</title>
<path fill="none" stroke="midnightblue" d="M480.263,-251.829C454.903,-239.364 426.103,-225.208 403.467,-214.082"/>
<polygon fill="midnightblue" stroke="midnightblue" points="478.914,-255.066 489.432,-256.336 482.002,-248.784 478.914,-255.066"/>
</g>
<!-- Node3&#45;&gt;Node4 -->
<g id="edge3" class="edge"><title>Node3&#45;&gt;Node4</title>
<path fill="none" stroke="midnightblue" d="M697.031,-164.992C657.105,-153.965 611.411,-141.345 572.412,-130.574"/>
<polygon fill="midnightblue" stroke="midnightblue" points="696.212,-168.397 706.783,-167.686 698.076,-161.65 696.212,-168.397"/>
</g>
<!-- Node7 -->
<g id="node7" class="node"><title>Node7</title>
<g id="a_node7"><a xlink:href="RosServiceHandler_8cpp.html" target="_top" xlink:title="/home/travis/build\l/ADVRHumanoids/ROSEndEffector\l/src/RosServiceHandler.cpp">
<polygon fill="none" stroke="black" points="707.128,-84 707.128,-125 886.128,-125 886.128,-84 707.128,-84"/>
<text text-anchor="start" x="715.128" y="-113" font-family="Helvetica,sans-Serif" font-size="10.00">/home/travis/build</text>
<text text-anchor="start" x="715.128" y="-102" font-family="Helvetica,sans-Serif" font-size="10.00">/ADVRHumanoids/ROSEndEffector</text>
<text text-anchor="middle" x="796.628" y="-91" font-family="Helvetica,sans-Serif" font-size="10.00">/src/RosServiceHandler.cpp</text>
</a>
</g>
</g>
<!-- Node3&#45;&gt;Node7 -->
<g id="edge6" class="edge"><title>Node3&#45;&gt;Node7</title>
<path fill="none" stroke="midnightblue" d="M796.628,-157.155C796.628,-146.21 796.628,-134.549 796.628,-125.082"/>
<polygon fill="midnightblue" stroke="midnightblue" points="793.128,-157.336 796.628,-167.336 800.128,-157.336 793.128,-157.336"/>
</g>
<!-- Node5 -->
<g id="node5" class="node"><title>Node5</title>
<g id="a_node5"><a xlink:href="UniversalRosEndEffector_8cpp.html" target="_top" xlink:title="/home/travis/build\l/ADVRHumanoids/ROSEndEffector\l/src/UniversalRosEndEffector.cpp">
<polygon fill="none" stroke="black" points="285.128,-0.5 285.128,-41.5 464.128,-41.5 464.128,-0.5 285.128,-0.5"/>
<text text-anchor="start" x="293.128" y="-29.5" font-family="Helvetica,sans-Serif" font-size="10.00">/home/travis/build</text>
<text text-anchor="start" x="293.128" y="-18.5" font-family="Helvetica,sans-Serif" font-size="10.00">/ADVRHumanoids/ROSEndEffector</text>
<text text-anchor="middle" x="374.628" y="-7.5" font-family="Helvetica,sans-Serif" font-size="10.00">/src/UniversalRosEndEffector.cpp</text>
</a>
</g>
</g>
<!-- Node4&#45;&gt;Node5 -->
<g id="edge4" class="edge"><title>Node4&#45;&gt;Node5</title>
<path fill="none" stroke="midnightblue" d="M440.466,-72.1475C427.039,-61.921 412.517,-50.8594 400.536,-41.7338"/>
<polygon fill="midnightblue" stroke="midnightblue" points="438.575,-75.1073 448.651,-78.3823 442.817,-69.5386 438.575,-75.1073"/>
</g>
<!-- Node6 -->
<g id="node6" class="node"><title>Node6</title>
<g id="a_node6"><a xlink:href="UniversalRosEndEffectorExecutor_8cpp.html" target="_top" xlink:title="/home/travis/build\l/ADVRHumanoids/ROSEndEffector\l/src/UniversalRosEndEffectorExecutor.cpp">
<polygon fill="none" stroke="black" points="482.128,-0.5 482.128,-41.5 697.128,-41.5 697.128,-0.5 482.128,-0.5"/>
<text text-anchor="start" x="490.128" y="-29.5" font-family="Helvetica,sans-Serif" font-size="10.00">/home/travis/build</text>
<text text-anchor="start" x="490.128" y="-18.5" font-family="Helvetica,sans-Serif" font-size="10.00">/ADVRHumanoids/ROSEndEffector</text>
<text text-anchor="middle" x="589.628" y="-7.5" font-family="Helvetica,sans-Serif" font-size="10.00">/src/UniversalRosEndEffectorExecutor.cpp</text>
</a>
</g>
</g>
<!-- Node4&#45;&gt;Node6 -->
<g id="edge5" class="edge"><title>Node4&#45;&gt;Node6</title>
<path fill="none" stroke="midnightblue" d="M523.175,-72.1475C536.726,-61.921 551.385,-50.8594 563.478,-41.7338"/>
<polygon fill="midnightblue" stroke="midnightblue" points="520.787,-69.5648 514.913,-78.3823 525.003,-75.1524 520.787,-69.5648"/>
</g>
<!-- Node10&#45;&gt;Node2 -->
<g id="edge14" class="edge"><title>Node10&#45;&gt;Node2</title>
<path fill="none" stroke="midnightblue" d="M382.324,-341.858C411.54,-331.087 444.502,-318.936 472.755,-308.521"/>
<polygon fill="midnightblue" stroke="midnightblue" points="380.744,-338.71 372.572,-345.453 383.166,-345.278 380.744,-338.71"/>
</g>
<!-- Node10&#45;&gt;Node4 -->
<g id="edge15" class="edge"><title>Node10&#45;&gt;Node4</title>
<path fill="none" stroke="midnightblue" d="M205.011,-363.079C128.987,-355.1 33.2356,-339.246 8.62782,-309 -6.23809,-290.728 1.83107,-278.554 8.62782,-256 22.3213,-210.561 27.5819,-192.467 67.6278,-167 119.286,-134.148 282.299,-117.899 387.698,-110.629"/>
<polygon fill="midnightblue" stroke="midnightblue" points="204.82,-366.577 215.123,-364.106 205.528,-359.613 204.82,-366.577"/>
</g>
<!-- Node11 -->
<g id="node11" class="node"><title>Node11</title>
<g id="a_node11"><a xlink:href="FindActions_8h.html" target="_top" xlink:title="/home/travis/build\l/ADVRHumanoids/ROSEndEffector\l/include/ros_end_effector\l/FindActions.h">
<polygon fill="none" stroke="black" points="215.128,-256.5 215.128,-308.5 394.128,-308.5 394.128,-256.5 215.128,-256.5"/>
<text text-anchor="start" x="223.128" y="-296.5" font-family="Helvetica,sans-Serif" font-size="10.00">/home/travis/build</text>
<text text-anchor="start" x="223.128" y="-285.5" font-family="Helvetica,sans-Serif" font-size="10.00">/ADVRHumanoids/ROSEndEffector</text>
<text text-anchor="start" x="223.128" y="-274.5" font-family="Helvetica,sans-Serif" font-size="10.00">/include/ros_end_effector</text>
<text text-anchor="middle" x="304.628" y="-263.5" font-family="Helvetica,sans-Serif" font-size="10.00">/FindActions.h</text>
</a>
</g>
</g>
<!-- Node10&#45;&gt;Node11 -->
<g id="edge11" class="edge"><title>Node10&#45;&gt;Node11</title>
<path fill="none" stroke="midnightblue" d="M304.628,-335.191C304.628,-326.282 304.628,-316.899 304.628,-308.607"/>
<polygon fill="midnightblue" stroke="midnightblue" points="301.128,-335.336 304.628,-345.336 308.128,-335.336 301.128,-335.336"/>
</g>
<!-- Node13 -->
<g id="node13" class="node"><title>Node13</title>
<g id="a_node13"><a xlink:href="YamlWorker_8cpp.html" target="_top" xlink:title="/home/travis/build\l/ADVRHumanoids/ROSEndEffector\l/src/YamlWorker.cpp">
<polygon fill="none" stroke="black" points="18.1278,-262 18.1278,-303 197.128,-303 197.128,-262 18.1278,-262"/>
<text text-anchor="start" x="26.1278" y="-291" font-family="Helvetica,sans-Serif" font-size="10.00">/home/travis/build</text>
<text text-anchor="start" x="26.1278" y="-280" font-family="Helvetica,sans-Serif" font-size="10.00">/ADVRHumanoids/ROSEndEffector</text>
<text text-anchor="middle" x="107.628" y="-269" font-family="Helvetica,sans-Serif" font-size="10.00">/src/YamlWorker.cpp</text>
</a>
</g>
</g>
<!-- Node10&#45;&gt;Node13 -->
<g id="edge16" class="edge"><title>Node10&#45;&gt;Node13</title>
<path fill="none" stroke="midnightblue" d="M238.443,-341.271C210.021,-328.719 177.561,-314.384 152.086,-303.134"/>
<polygon fill="midnightblue" stroke="midnightblue" points="237.35,-344.615 247.912,-345.453 240.178,-338.211 237.35,-344.615"/>
</g>
<!-- Node11&#45;&gt;Node9 -->
<g id="edge13" class="edge"><title>Node11&#45;&gt;Node9</title>
<path fill="none" stroke="midnightblue" d="M327.453,-247.842C335.201,-236.417 343.597,-224.037 350.348,-214.082"/>
<polygon fill="midnightblue" stroke="midnightblue" points="324.409,-246.095 321.693,-256.336 330.203,-250.024 324.409,-246.095"/>
</g>
<!-- Node12 -->
<g id="node12" class="node"><title>Node12</title>
<g id="a_node12"><a xlink:href="FindActions_8cpp.html" target="_top" xlink:title="/home/travis/build\l/ADVRHumanoids/ROSEndEffector\l/src/FindActions.cpp">
<polygon fill="none" stroke="black" points="77.1278,-173 77.1278,-214 256.128,-214 256.128,-173 77.1278,-173"/>
<text text-anchor="start" x="85.1278" y="-202" font-family="Helvetica,sans-Serif" font-size="10.00">/home/travis/build</text>
<text text-anchor="start" x="85.1278" y="-191" font-family="Helvetica,sans-Serif" font-size="10.00">/ADVRHumanoids/ROSEndEffector</text>
<text text-anchor="middle" x="166.628" y="-180" font-family="Helvetica,sans-Serif" font-size="10.00">/src/FindActions.cpp</text>
</a>
</g>
</g>
<!-- Node11&#45;&gt;Node12 -->
<g id="edge12" class="edge"><title>Node11&#45;&gt;Node12</title>
<path fill="none" stroke="midnightblue" d="M255.997,-250.841C236.613,-238.621 214.873,-224.916 197.689,-214.082"/>
<polygon fill="midnightblue" stroke="midnightblue" points="254.387,-253.964 264.712,-256.336 258.12,-248.042 254.387,-253.964"/>
</g>
</g>
</svg>
