<?xml version="1.0" encoding="UTF-8" standalone="no"?>
<!DOCTYPE svg PUBLIC "-//W3C//DTD SVG 1.1//EN"
 "http://www.w3.org/Graphics/SVG/1.1/DTD/svg11.dtd">
<!-- Generated by graphviz version 2.38.0 (20140413.2041)
 -->
<!-- Title: /home/travis/build/ADVRHumanoids/ROSEndEffector/include/end_effector/GraspingActions/ActionPrimitive.h Pages: 1 -->
<svg width="1764pt" height="651pt"
 viewBox="0.00 0.00 1763.67 651.00" xmlns="http://www.w3.org/2000/svg" xmlns:xlink="http://www.w3.org/1999/xlink">
<g id="graph0" class="graph" transform="scale(1 1) rotate(0) translate(4 647)">
<title>/home/travis/build/ADVRHumanoids/ROSEndEffector/include/end_effector/GraspingActions/ActionPrimitive.h</title>
<!-- Node1 -->
<g id="node1" class="node"><title>Node1</title>
<polygon fill="#bfbfbf" stroke="black" points="1115.67,-590.5 1115.67,-642.5 1312.67,-642.5 1312.67,-590.5 1115.67,-590.5"/>
<text text-anchor="start" x="1123.67" y="-630.5" font-family="Helvetica,sans-Serif" font-size="10.00">/home/travis/build</text>
<text text-anchor="start" x="1123.67" y="-619.5" font-family="Helvetica,sans-Serif" font-size="10.00">/ADVRHumanoids/ROSEndEffector</text>
<text text-anchor="start" x="1123.67" y="-608.5" font-family="Helvetica,sans-Serif" font-size="10.00">/include/end_effector/GraspingActions</text>
<text text-anchor="middle" x="1214.17" y="-597.5" font-family="Helvetica,sans-Serif" font-size="10.00">/ActionPrimitive.h</text>
</g>
<!-- Node2 -->
<g id="node2" class="node"><title>Node2</title>
<g id="a_node2"><a xlink:href="ActionPinchGeneric_8h.html" target="_top" xlink:title="/home/travis/build\l/ADVRHumanoids/ROSEndEffector\l/include/end_effector/GraspingActions\l/ActionPinchGeneric.h">
<polygon fill="none" stroke="black" points="506.675,-501.5 506.675,-553.5 703.675,-553.5 703.675,-501.5 506.675,-501.5"/>
<text text-anchor="start" x="514.675" y="-541.5" font-family="Helvetica,sans-Serif" font-size="10.00">/home/travis/build</text>
<text text-anchor="start" x="514.675" y="-530.5" font-family="Helvetica,sans-Serif" font-size="10.00">/ADVRHumanoids/ROSEndEffector</text>
<text text-anchor="start" x="514.675" y="-519.5" font-family="Helvetica,sans-Serif" font-size="10.00">/include/end_effector/GraspingActions</text>
<text text-anchor="middle" x="605.175" y="-508.5" font-family="Helvetica,sans-Serif" font-size="10.00">/ActionPinchGeneric.h</text>
</a>
</g>
</g>
<!-- Node1&#45;&gt;Node2 -->
<g id="edge1" class="edge"><title>Node1&#45;&gt;Node2</title>
<path fill="none" stroke="midnightblue" d="M1105.51,-599.976C991.505,-583.69 813.897,-558.317 703.809,-542.591"/>
<polygon fill="midnightblue" stroke="midnightblue" points="1105.26,-603.476 1115.65,-601.425 1106.25,-596.546 1105.26,-603.476"/>
</g>
<!-- Node7 -->
<g id="node7" class="node"><title>Node7</title>
<g id="a_node7"><a xlink:href="YamlWorker_8h.html" target="_top" xlink:title="/home/travis/build\l/ADVRHumanoids/ROSEndEffector\l/include/end_effector/YamlWorker.h">
<polygon fill="none" stroke="black" points="773.675,-329 773.675,-370 958.675,-370 958.675,-329 773.675,-329"/>
<text text-anchor="start" x="781.675" y="-358" font-family="Helvetica,sans-Serif" font-size="10.00">/home/travis/build</text>
<text text-anchor="start" x="781.675" y="-347" font-family="Helvetica,sans-Serif" font-size="10.00">/ADVRHumanoids/ROSEndEffector</text>
<text text-anchor="middle" x="866.175" y="-336" font-family="Helvetica,sans-Serif" font-size="10.00">/include/end_effector/YamlWorker.h</text>
</a>
</g>
</g>
<!-- Node1&#45;&gt;Node7 -->
<g id="edge40" class="edge"><title>Node1&#45;&gt;Node7</title>
<path fill="none" stroke="midnightblue" d="M1160.68,-585.123C1114.74,-557.46 1048.33,-513.604 999.175,-465 978.564,-444.621 982.151,-432.003 961.175,-412 943.97,-395.594 921.805,-380.957 903.214,-370.083"/>
<polygon fill="midnightblue" stroke="midnightblue" points="1158.92,-588.147 1169.3,-590.267 1162.51,-582.136 1158.92,-588.147"/>
</g>
<!-- Node8 -->
<g id="node8" class="node"><title>Node8</title>
<g id="a_node8"><a xlink:href="MapActionHandler_8h.html" target="_top" xlink:title="/home/travis/build\l/ADVRHumanoids/ROSEndEffector\l/include/end_effector/MapActionHandler.h">
<polygon fill="none" stroke="black" points="1136.17,-245.5 1136.17,-286.5 1352.17,-286.5 1352.17,-245.5 1136.17,-245.5"/>
<text text-anchor="start" x="1144.17" y="-274.5" font-family="Helvetica,sans-Serif" font-size="10.00">/home/travis/build</text>
<text text-anchor="start" x="1144.17" y="-263.5" font-family="Helvetica,sans-Serif" font-size="10.00">/ADVRHumanoids/ROSEndEffector</text>
<text text-anchor="middle" x="1244.17" y="-252.5" font-family="Helvetica,sans-Serif" font-size="10.00">/include/end_effector/MapActionHandler.h</text>
</a>
</g>
</g>
<!-- Node1&#45;&gt;Node8 -->
<g id="edge38" class="edge"><title>Node1&#45;&gt;Node8</title>
<path fill="none" stroke="midnightblue" d="M1282.12,-586.018C1331.13,-561.073 1394.54,-520.488 1429.17,-465 1450.38,-431.033 1440.05,-415.92 1443.17,-376 1445.01,-352.516 1457.4,-341.777 1443.17,-323 1431.2,-307.193 1392.49,-294.598 1352.35,-285.388"/>
<polygon fill="midnightblue" stroke="midnightblue" points="1280.53,-582.899 1273.14,-590.494 1283.66,-589.163 1280.53,-582.899"/>
</g>
<!-- Node10 -->
<g id="node10" class="node"><title>Node10</title>
<g id="a_node10"><a xlink:href="UniversalRosEndEffectorExecutor_8h.html" target="_top" xlink:title="/home/travis/build\l/ADVRHumanoids/ROSEndEffector\l/include/end_effector/UniversalRos\lEndEffectorExecutor.h">
<polygon fill="none" stroke="black" points="1389.67,-78.5 1389.67,-130.5 1570.67,-130.5 1570.67,-78.5 1389.67,-78.5"/>
<text text-anchor="start" x="1397.67" y="-118.5" font-family="Helvetica,sans-Serif" font-size="10.00">/home/travis/build</text>
<text text-anchor="start" x="1397.67" y="-107.5" font-family="Helvetica,sans-Serif" font-size="10.00">/ADVRHumanoids/ROSEndEffector</text>
<text text-anchor="start" x="1397.67" y="-96.5" font-family="Helvetica,sans-Serif" font-size="10.00">/include/end_effector/UniversalRos</text>
<text text-anchor="middle" x="1480.17" y="-85.5" font-family="Helvetica,sans-Serif" font-size="10.00">EndEffectorExecutor.h</text>
</a>
</g>
</g>
<!-- Node1&#45;&gt;Node10 -->
<g id="edge39" class="edge"><title>Node1&#45;&gt;Node10</title>
<path fill="none" stroke="midnightblue" d="M1322.86,-598.111C1410.13,-577.226 1518.17,-532.574 1518.17,-439.5 1518.17,-439.5 1518.17,-439.5 1518.17,-265 1518.17,-216.465 1501.32,-161.83 1490.06,-130.749"/>
<polygon fill="midnightblue" stroke="midnightblue" points="1321.83,-594.758 1312.87,-600.421 1323.41,-601.578 1321.83,-594.758"/>
</g>
<!-- Node17 -->
<g id="node17" class="node"><title>Node17</title>
<g id="a_node17"><a xlink:href="ActionPinchLoose_8h.html" target="_top" xlink:title="/home/travis/build\l/ADVRHumanoids/ROSEndEffector\l/include/end_effector/GraspingActions\l/ActionPinchLoose.h">
<polygon fill="none" stroke="black" points="76.6745,-412.5 76.6745,-464.5 273.675,-464.5 273.675,-412.5 76.6745,-412.5"/>
<text text-anchor="start" x="84.6745" y="-452.5" font-family="Helvetica,sans-Serif" font-size="10.00">/home/travis/build</text>
<text text-anchor="start" x="84.6745" y="-441.5" font-family="Helvetica,sans-Serif" font-size="10.00">/ADVRHumanoids/ROSEndEffector</text>
<text text-anchor="start" x="84.6745" y="-430.5" font-family="Helvetica,sans-Serif" font-size="10.00">/include/end_effector/GraspingActions</text>
<text text-anchor="middle" x="175.175" y="-419.5" font-family="Helvetica,sans-Serif" font-size="10.00">/ActionPinchLoose.h</text>
</a>
</g>
</g>
<!-- Node1&#45;&gt;Node17 -->
<g id="edge29" class="edge"><title>Node1&#45;&gt;Node17</title>
<path fill="none" stroke="midnightblue" d="M1105.16,-614.78C963.498,-611.886 709.201,-599.992 497.175,-554 401.212,-533.184 294.749,-491.428 231.469,-464.507"/>
<polygon fill="midnightblue" stroke="midnightblue" points="1105.51,-618.287 1115.58,-614.981 1105.65,-611.288 1105.51,-618.287"/>
</g>
<!-- Node22 -->
<g id="node22" class="node"><title>Node22</title>
<g id="a_node22"><a xlink:href="ActionSingleJointMultipleTips_8h.html" target="_top" xlink:title="/home/travis/build\l/ADVRHumanoids/ROSEndEffector\l/include/end_effector/GraspingActions\l/ActionSingleJointMultipleTips.h">
<polygon fill="none" stroke="black" points="1008.67,-412.5 1008.67,-464.5 1205.67,-464.5 1205.67,-412.5 1008.67,-412.5"/>
<text text-anchor="start" x="1016.67" y="-452.5" font-family="Helvetica,sans-Serif" font-size="10.00">/home/travis/build</text>
<text text-anchor="start" x="1016.67" y="-441.5" font-family="Helvetica,sans-Serif" font-size="10.00">/ADVRHumanoids/ROSEndEffector</text>
<text text-anchor="start" x="1016.67" y="-430.5" font-family="Helvetica,sans-Serif" font-size="10.00">/include/end_effector/GraspingActions</text>
<text text-anchor="middle" x="1107.17" y="-419.5" font-family="Helvetica,sans-Serif" font-size="10.00">/ActionSingleJointMultipleTips.h</text>
</a>
</g>
</g>
<!-- Node1&#45;&gt;Node22 -->
<g id="edge30" class="edge"><title>Node1&#45;&gt;Node22</title>
<path fill="none" stroke="midnightblue" d="M1193.55,-581.568C1172.75,-547.362 1141.14,-495.361 1122.48,-464.67"/>
<polygon fill="midnightblue" stroke="midnightblue" points="1190.66,-583.557 1198.84,-590.283 1196.64,-579.92 1190.66,-583.557"/>
</g>
<!-- Node24 -->
<g id="node24" class="node"><title>Node24</title>
<g id="a_node24"><a xlink:href="ActionTrig_8h.html" target="_top" xlink:title="/home/travis/build\l/ADVRHumanoids/ROSEndEffector\l/include/end_effector/GraspingActions\l/ActionTrig.h">
<polygon fill="none" stroke="black" points="1223.67,-412.5 1223.67,-464.5 1420.67,-464.5 1420.67,-412.5 1223.67,-412.5"/>
<text text-anchor="start" x="1231.67" y="-452.5" font-family="Helvetica,sans-Serif" font-size="10.00">/home/travis/build</text>
<text text-anchor="start" x="1231.67" y="-441.5" font-family="Helvetica,sans-Serif" font-size="10.00">/ADVRHumanoids/ROSEndEffector</text>
<text text-anchor="start" x="1231.67" y="-430.5" font-family="Helvetica,sans-Serif" font-size="10.00">/include/end_effector/GraspingActions</text>
<text text-anchor="middle" x="1322.17" y="-419.5" font-family="Helvetica,sans-Serif" font-size="10.00">/ActionTrig.h</text>
</a>
</g>
</g>
<!-- Node1&#45;&gt;Node24 -->
<g id="edge34" class="edge"><title>Node1&#45;&gt;Node24</title>
<path fill="none" stroke="midnightblue" d="M1235,-581.568C1255.99,-547.362 1287.9,-495.361 1306.73,-464.67"/>
<polygon fill="midnightblue" stroke="midnightblue" points="1231.9,-579.93 1229.65,-590.283 1237.86,-583.591 1231.9,-579.93"/>
</g>
<!-- Node26 -->
<g id="node26" class="node"><title>Node26</title>
<g id="a_node26"><a xlink:href="ActionPrimitive_8cpp.html" target="_top" xlink:title="/home/travis/build\l/ADVRHumanoids/ROSEndEffector\l/src/GraspingActions/ActionPrimitive.cpp">
<polygon fill="none" stroke="black" points="1546.67,-507 1546.67,-548 1755.67,-548 1755.67,-507 1546.67,-507"/>
<text text-anchor="start" x="1554.67" y="-536" font-family="Helvetica,sans-Serif" font-size="10.00">/home/travis/build</text>
<text text-anchor="start" x="1554.67" y="-525" font-family="Helvetica,sans-Serif" font-size="10.00">/ADVRHumanoids/ROSEndEffector</text>
<text text-anchor="middle" x="1651.17" y="-514" font-family="Helvetica,sans-Serif" font-size="10.00">/src/GraspingActions/ActionPrimitive.cpp</text>
</a>
</g>
</g>
<!-- Node1&#45;&gt;Node26 -->
<g id="edge41" class="edge"><title>Node1&#45;&gt;Node26</title>
<path fill="none" stroke="midnightblue" d="M1322.87,-595.038C1384.35,-583.323 1462.63,-568.175 1532.17,-554 1541.49,-552.101 1551.21,-550.082 1560.9,-548.043"/>
<polygon fill="midnightblue" stroke="midnightblue" points="1321.93,-591.654 1312.76,-596.962 1323.24,-598.531 1321.93,-591.654"/>
</g>
<!-- Node3 -->
<g id="node3" class="node"><title>Node3</title>
<g id="a_node3"><a xlink:href="ActionMultiplePinchTight_8h.html" target="_top" xlink:title="/home/travis/build\l/ADVRHumanoids/ROSEndEffector\l/include/end_effector/GraspingActions\l/ActionMultiplePinchTight.h">
<polygon fill="none" stroke="black" points="291.675,-412.5 291.675,-464.5 488.675,-464.5 488.675,-412.5 291.675,-412.5"/>
<text text-anchor="start" x="299.675" y="-452.5" font-family="Helvetica,sans-Serif" font-size="10.00">/home/travis/build</text>
<text text-anchor="start" x="299.675" y="-441.5" font-family="Helvetica,sans-Serif" font-size="10.00">/ADVRHumanoids/ROSEndEffector</text>
<text text-anchor="start" x="299.675" y="-430.5" font-family="Helvetica,sans-Serif" font-size="10.00">/include/end_effector/GraspingActions</text>
<text text-anchor="middle" x="390.175" y="-419.5" font-family="Helvetica,sans-Serif" font-size="10.00">/ActionMultiplePinchTight.h</text>
</a>
</g>
</g>
<!-- Node2&#45;&gt;Node3 -->
<g id="edge2" class="edge"><title>Node2&#45;&gt;Node3</title>
<path fill="none" stroke="midnightblue" d="M533.697,-497.576C507.254,-486.876 477.523,-474.846 452.008,-464.521"/>
<polygon fill="midnightblue" stroke="midnightblue" points="532.693,-500.946 543.276,-501.453 535.319,-494.457 532.693,-500.946"/>
</g>
<!-- Node2&#45;&gt;Node17 -->
<g id="edge20" class="edge"><title>Node2&#45;&gt;Node17</title>
<path fill="none" stroke="midnightblue" d="M496.422,-507.076C433.655,-495.545 353.304,-480.239 282.175,-465 279.467,-464.42 276.723,-463.824 273.955,-463.215"/>
<polygon fill="midnightblue" stroke="midnightblue" points="495.873,-510.534 506.34,-508.894 497.135,-503.649 495.873,-510.534"/>
</g>
<!-- Node19 -->
<g id="node19" class="node"><title>Node19</title>
<g id="a_node19"><a xlink:href="ActionPinchTight_8h.html" target="_top" xlink:title="/home/travis/build\l/ADVRHumanoids/ROSEndEffector\l/include/end_effector/GraspingActions\l/ActionPinchTight.h">
<polygon fill="none" stroke="black" points="506.675,-412.5 506.675,-464.5 703.675,-464.5 703.675,-412.5 506.675,-412.5"/>
<text text-anchor="start" x="514.675" y="-452.5" font-family="Helvetica,sans-Serif" font-size="10.00">/home/travis/build</text>
<text text-anchor="start" x="514.675" y="-441.5" font-family="Helvetica,sans-Serif" font-size="10.00">/ADVRHumanoids/ROSEndEffector</text>
<text text-anchor="start" x="514.675" y="-430.5" font-family="Helvetica,sans-Serif" font-size="10.00">/include/end_effector/GraspingActions</text>
<text text-anchor="middle" x="605.175" y="-419.5" font-family="Helvetica,sans-Serif" font-size="10.00">/ActionPinchTight.h</text>
</a>
</g>
</g>
<!-- Node2&#45;&gt;Node19 -->
<g id="edge24" class="edge"><title>Node2&#45;&gt;Node19</title>
<path fill="none" stroke="midnightblue" d="M605.175,-491.191C605.175,-482.282 605.175,-472.899 605.175,-464.607"/>
<polygon fill="midnightblue" stroke="midnightblue" points="601.675,-491.336 605.175,-501.336 608.675,-491.336 601.675,-491.336"/>
</g>
<!-- Node21 -->
<g id="node21" class="node"><title>Node21</title>
<g id="a_node21"><a xlink:href="ActionPinchGeneric_8cpp.html" target="_top" xlink:title="/home/travis/build\l/ADVRHumanoids/ROSEndEffector\l/src/GraspingActions/ActionPinchGeneric.cpp">
<polygon fill="none" stroke="black" points="722.175,-418 722.175,-459 952.175,-459 952.175,-418 722.175,-418"/>
<text text-anchor="start" x="730.175" y="-447" font-family="Helvetica,sans-Serif" font-size="10.00">/home/travis/build</text>
<text text-anchor="start" x="730.175" y="-436" font-family="Helvetica,sans-Serif" font-size="10.00">/ADVRHumanoids/ROSEndEffector</text>
<text text-anchor="middle" x="837.175" y="-425" font-family="Helvetica,sans-Serif" font-size="10.00">/src/GraspingActions/ActionPinchGeneric.cpp</text>
</a>
</g>
</g>
<!-- Node2&#45;&gt;Node21 -->
<g id="edge28" class="edge"><title>Node2&#45;&gt;Node21</title>
<path fill="none" stroke="midnightblue" d="M681.376,-497.925C715.258,-485.219 754.295,-470.58 784.818,-459.134"/>
<polygon fill="midnightblue" stroke="midnightblue" points="680.102,-494.664 671.967,-501.453 682.56,-501.219 680.102,-494.664"/>
</g>
<!-- Node4 -->
<g id="node4" class="node"><title>Node4</title>
<g id="a_node4"><a xlink:href="FindActions_8h.html" target="_top" xlink:title="/home/travis/build\l/ADVRHumanoids/ROSEndEffector\l/include/end_effector/FindActions.h">
<polygon fill="none" stroke="black" points="599.675,-245.5 599.675,-286.5 782.675,-286.5 782.675,-245.5 599.675,-245.5"/>
<text text-anchor="start" x="607.675" y="-274.5" font-family="Helvetica,sans-Serif" font-size="10.00">/home/travis/build</text>
<text text-anchor="start" x="607.675" y="-263.5" font-family="Helvetica,sans-Serif" font-size="10.00">/ADVRHumanoids/ROSEndEffector</text>
<text text-anchor="middle" x="691.175" y="-252.5" font-family="Helvetica,sans-Serif" font-size="10.00">/include/end_effector/FindActions.h</text>
</a>
</g>
</g>
<!-- Node3&#45;&gt;Node4 -->
<g id="edge3" class="edge"><title>Node3&#45;&gt;Node4</title>
<path fill="none" stroke="midnightblue" d="M317.539,-406.81C305.774,-398.559 295.171,-388.388 288.175,-376 276.591,-355.489 272.707,-340.766 288.175,-323 327.717,-277.583 493.349,-267.823 599.575,-266.369"/>
<polygon fill="midnightblue" stroke="midnightblue" points="315.984,-409.973 326.277,-412.484 319.796,-404.102 315.984,-409.973"/>
</g>
<!-- Node3&#45;&gt;Node7 -->
<g id="edge6" class="edge"><title>Node3&#45;&gt;Node7</title>
<path fill="none" stroke="midnightblue" d="M499.042,-411.732C616.691,-390.533 649.793,-397.939 764.175,-376 773.227,-374.264 782.678,-372.22 792.017,-370.058"/>
<polygon fill="midnightblue" stroke="midnightblue" points="498.12,-408.342 488.916,-413.589 499.383,-415.227 498.12,-408.342"/>
</g>
<!-- Node16 -->
<g id="node16" class="node"><title>Node16</title>
<g id="a_node16"><a xlink:href="ActionMultiplePinchTight_8cpp.html" target="_top" xlink:title="/home/travis/build\l/ADVRHumanoids/ROSEndEffector\l/src/GraspingActions/ActionMultiple\lPinchTight.cpp">
<polygon fill="none" stroke="black" points="297.675,-323.5 297.675,-375.5 482.675,-375.5 482.675,-323.5 297.675,-323.5"/>
<text text-anchor="start" x="305.675" y="-363.5" font-family="Helvetica,sans-Serif" font-size="10.00">/home/travis/build</text>
<text text-anchor="start" x="305.675" y="-352.5" font-family="Helvetica,sans-Serif" font-size="10.00">/ADVRHumanoids/ROSEndEffector</text>
<text text-anchor="start" x="305.675" y="-341.5" font-family="Helvetica,sans-Serif" font-size="10.00">/src/GraspingActions/ActionMultiple</text>
<text text-anchor="middle" x="390.175" y="-330.5" font-family="Helvetica,sans-Serif" font-size="10.00">PinchTight.cpp</text>
</a>
</g>
</g>
<!-- Node3&#45;&gt;Node16 -->
<g id="edge19" class="edge"><title>Node3&#45;&gt;Node16</title>
<path fill="none" stroke="midnightblue" d="M390.175,-402.191C390.175,-393.282 390.175,-383.899 390.175,-375.607"/>
<polygon fill="midnightblue" stroke="midnightblue" points="386.675,-402.336 390.175,-412.336 393.675,-402.336 386.675,-402.336"/>
</g>
<!-- Node5 -->
<g id="node5" class="node"><title>Node5</title>
<g id="a_node5"><a xlink:href="FindActions_8cpp.html" target="_top" xlink:title="/home/travis/build\l/ADVRHumanoids/ROSEndEffector\l/src/FindActions.cpp">
<polygon fill="none" stroke="black" points="601.675,-167.5 601.675,-208.5 780.675,-208.5 780.675,-167.5 601.675,-167.5"/>
<text text-anchor="start" x="609.675" y="-196.5" font-family="Helvetica,sans-Serif" font-size="10.00">/home/travis/build</text>
<text text-anchor="start" x="609.675" y="-185.5" font-family="Helvetica,sans-Serif" font-size="10.00">/ADVRHumanoids/ROSEndEffector</text>
<text text-anchor="middle" x="691.175" y="-174.5" font-family="Helvetica,sans-Serif" font-size="10.00">/src/FindActions.cpp</text>
</a>
</g>
</g>
<!-- Node4&#45;&gt;Node5 -->
<g id="edge4" class="edge"><title>Node4&#45;&gt;Node5</title>
<path fill="none" stroke="midnightblue" d="M691.175,-235.297C691.175,-226.301 691.175,-216.653 691.175,-208.506"/>
<polygon fill="midnightblue" stroke="midnightblue" points="687.675,-235.428 691.175,-245.428 694.675,-235.428 687.675,-235.428"/>
</g>
<!-- Node6 -->
<g id="node6" class="node"><title>Node6</title>
<g id="a_node6"><a xlink:href="UniversalFindActions_8cpp.html" target="_top" xlink:title="/home/travis/build\l/ADVRHumanoids/ROSEndEffector\l/src/UniversalFindActions.cpp">
<polygon fill="none" stroke="black" points="839.675,-167.5 839.675,-208.5 1018.67,-208.5 1018.67,-167.5 839.675,-167.5"/>
<text text-anchor="start" x="847.675" y="-196.5" font-family="Helvetica,sans-Serif" font-size="10.00">/home/travis/build</text>
<text text-anchor="start" x="847.675" y="-185.5" font-family="Helvetica,sans-Serif" font-size="10.00">/ADVRHumanoids/ROSEndEffector</text>
<text text-anchor="middle" x="929.175" y="-174.5" font-family="Helvetica,sans-Serif" font-size="10.00">/src/UniversalFindActions.cpp</text>
</a>
</g>
</g>
<!-- Node4&#45;&gt;Node6 -->
<g id="edge5" class="edge"><title>Node4&#45;&gt;Node6</title>
<path fill="none" stroke="midnightblue" d="M762.249,-242.304C795.939,-231.546 835.782,-218.823 868.091,-208.506"/>
<polygon fill="midnightblue" stroke="midnightblue" points="760.927,-239.052 752.465,-245.428 763.056,-245.72 760.927,-239.052"/>
</g>
<!-- Node7&#45;&gt;Node4 -->
<g id="edge7" class="edge"><title>Node7&#45;&gt;Node4</title>
<path fill="none" stroke="midnightblue" d="M814.92,-324.63C788.877,-312.502 757.631,-297.95 733.052,-286.503"/>
<polygon fill="midnightblue" stroke="midnightblue" points="813.715,-327.93 824.258,-328.979 816.67,-321.584 813.715,-327.93"/>
</g>
<!-- Node7&#45;&gt;Node8 -->
<g id="edge8" class="edge"><title>Node7&#45;&gt;Node8</title>
<path fill="none" stroke="midnightblue" d="M951.88,-326.562C957.049,-325.332 962.177,-324.135 967.175,-323 1024.71,-309.93 1089.31,-296.782 1141.64,-286.514"/>
<polygon fill="midnightblue" stroke="midnightblue" points="950.815,-323.218 941.912,-328.961 952.454,-330.023 950.815,-323.218"/>
</g>
<!-- Node7&#45;&gt;Node10 -->
<g id="edge17" class="edge"><title>Node7&#45;&gt;Node10</title>
<path fill="none" stroke="midnightblue" d="M847.383,-319.984C823.837,-280.35 791.037,-208.783 830.175,-167 872.041,-122.304 1319.69,-140.607 1380.17,-131 1383.27,-130.508 1386.41,-129.964 1389.58,-129.378"/>
<polygon fill="midnightblue" stroke="midnightblue" points="844.617,-322.17 852.825,-328.869 850.586,-318.513 844.617,-322.17"/>
</g>
<!-- Node15 -->
<g id="node15" class="node"><title>Node15</title>
<g id="a_node15"><a xlink:href="YamlWorker_8cpp.html" target="_top" xlink:title="/home/travis/build\l/ADVRHumanoids/ROSEndEffector\l/src/YamlWorker.cpp">
<polygon fill="none" stroke="black" points="839.675,-245.5 839.675,-286.5 1018.67,-286.5 1018.67,-245.5 839.675,-245.5"/>
<text text-anchor="start" x="847.675" y="-274.5" font-family="Helvetica,sans-Serif" font-size="10.00">/home/travis/build</text>
<text text-anchor="start" x="847.675" y="-263.5" font-family="Helvetica,sans-Serif" font-size="10.00">/ADVRHumanoids/ROSEndEffector</text>
<text text-anchor="middle" x="929.175" y="-252.5" font-family="Helvetica,sans-Serif" font-size="10.00">/src/YamlWorker.cpp</text>
</a>
</g>
</g>
<!-- Node7&#45;&gt;Node15 -->
<g id="edge18" class="edge"><title>Node7&#45;&gt;Node15</title>
<path fill="none" stroke="midnightblue" d="M887.777,-320.554C896.43,-309.359 906.194,-296.729 914.064,-286.547"/>
<polygon fill="midnightblue" stroke="midnightblue" points="884.772,-318.719 881.425,-328.771 890.31,-323 884.772,-318.719"/>
</g>
<!-- Node8&#45;&gt;Node6 -->
<g id="edge16" class="edge"><title>Node8&#45;&gt;Node6</title>
<path fill="none" stroke="midnightblue" d="M1153.25,-243.062C1108.01,-232.148 1053.79,-219.066 1010.02,-208.506"/>
<polygon fill="midnightblue" stroke="midnightblue" points="1152.51,-246.485 1163.05,-245.428 1154.15,-239.68 1152.51,-246.485"/>
</g>
<!-- Node9 -->
<g id="node9" class="node"><title>Node9</title>
<g id="a_node9"><a xlink:href="RosServiceHandler_8h.html" target="_top" xlink:title="/home/travis/build\l/ADVRHumanoids/ROSEndEffector\l/include/end_effector/RosServiceHandler.h">
<polygon fill="none" stroke="black" points="1234.17,-167.5 1234.17,-208.5 1452.17,-208.5 1452.17,-167.5 1234.17,-167.5"/>
<text text-anchor="start" x="1242.17" y="-196.5" font-family="Helvetica,sans-Serif" font-size="10.00">/home/travis/build</text>
<text text-anchor="start" x="1242.17" y="-185.5" font-family="Helvetica,sans-Serif" font-size="10.00">/ADVRHumanoids/ROSEndEffector</text>
<text text-anchor="middle" x="1343.17" y="-174.5" font-family="Helvetica,sans-Serif" font-size="10.00">/include/end_effector/RosServiceHandler.h</text>
</a>
</g>
</g>
<!-- Node8&#45;&gt;Node9 -->
<g id="edge9" class="edge"><title>Node8&#45;&gt;Node9</title>
<path fill="none" stroke="midnightblue" d="M1277.96,-239.065C1290.99,-229.057 1305.65,-217.804 1317.77,-208.506"/>
<polygon fill="midnightblue" stroke="midnightblue" points="1275.47,-236.562 1269.67,-245.428 1279.73,-242.115 1275.47,-236.562"/>
</g>
<!-- Node8&#45;&gt;Node10 -->
<g id="edge14" class="edge"><title>Node8&#45;&gt;Node10</title>
<path fill="none" stroke="midnightblue" d="M1362.35,-246.163C1405.23,-236.974 1446.72,-224.518 1461.17,-209 1480.72,-188.011 1483.44,-153.839 1482.62,-130.547"/>
<polygon fill="midnightblue" stroke="midnightblue" points="1361.39,-242.787 1352.31,-248.25 1362.82,-249.64 1361.39,-242.787"/>
</g>
<!-- Node14 -->
<g id="node14" class="node"><title>Node14</title>
<g id="a_node14"><a xlink:href="MapActionHandler_8cpp.html" target="_top" xlink:title="/home/travis/build\l/ADVRHumanoids/ROSEndEffector\l/src/MapActionHandler.cpp">
<polygon fill="none" stroke="black" points="1036.67,-167.5 1036.67,-208.5 1215.67,-208.5 1215.67,-167.5 1036.67,-167.5"/>
<text text-anchor="start" x="1044.67" y="-196.5" font-family="Helvetica,sans-Serif" font-size="10.00">/home/travis/build</text>
<text text-anchor="start" x="1044.67" y="-185.5" font-family="Helvetica,sans-Serif" font-size="10.00">/ADVRHumanoids/ROSEndEffector</text>
<text text-anchor="middle" x="1126.17" y="-174.5" font-family="Helvetica,sans-Serif" font-size="10.00">/src/MapActionHandler.cpp</text>
</a>
</g>
</g>
<!-- Node8&#45;&gt;Node14 -->
<g id="edge15" class="edge"><title>Node8&#45;&gt;Node14</title>
<path fill="none" stroke="midnightblue" d="M1205.23,-239.919C1189.37,-229.702 1171.31,-218.07 1156.46,-208.506"/>
<polygon fill="midnightblue" stroke="midnightblue" points="1203.48,-242.956 1213.79,-245.428 1207.27,-237.071 1203.48,-242.956"/>
</g>
<!-- Node9&#45;&gt;Node10 -->
<g id="edge10" class="edge"><title>Node9&#45;&gt;Node10</title>
<path fill="none" stroke="midnightblue" d="M1385.03,-162.098C1401.84,-152.099 1421.18,-140.593 1438.02,-130.576"/>
<polygon fill="midnightblue" stroke="midnightblue" points="1382.79,-159.358 1375.99,-167.479 1386.37,-165.374 1382.79,-159.358"/>
</g>
<!-- Node13 -->
<g id="node13" class="node"><title>Node13</title>
<g id="a_node13"><a xlink:href="RosServiceHandler_8cpp.html" target="_top" xlink:title="/home/travis/build\l/ADVRHumanoids/ROSEndEffector\l/src/RosServiceHandler.cpp">
<polygon fill="none" stroke="black" points="1192.67,-84 1192.67,-125 1371.67,-125 1371.67,-84 1192.67,-84"/>
<text text-anchor="start" x="1200.67" y="-113" font-family="Helvetica,sans-Serif" font-size="10.00">/home/travis/build</text>
<text text-anchor="start" x="1200.67" y="-102" font-family="Helvetica,sans-Serif" font-size="10.00">/ADVRHumanoids/ROSEndEffector</text>
<text text-anchor="middle" x="1282.17" y="-91" font-family="Helvetica,sans-Serif" font-size="10.00">/src/RosServiceHandler.cpp</text>
</a>
</g>
</g>
<!-- Node9&#45;&gt;Node13 -->
<g id="edge13" class="edge"><title>Node9&#45;&gt;Node13</title>
<path fill="none" stroke="midnightblue" d="M1322.26,-159.054C1313.88,-147.859 1304.43,-135.229 1296.8,-125.047"/>
<polygon fill="midnightblue" stroke="midnightblue" points="1319.61,-161.362 1328.41,-167.271 1325.22,-157.168 1319.61,-161.362"/>
</g>
<!-- Node11 -->
<g id="node11" class="node"><title>Node11</title>
<g id="a_node11"><a xlink:href="UniversalRosEndEffector_8cpp.html" target="_top" xlink:title="/home/travis/build\l/ADVRHumanoids/ROSEndEffector\l/src/UniversalRosEndEffector.cpp">
<polygon fill="none" stroke="black" points="1283.67,-0.5 1283.67,-41.5 1462.67,-41.5 1462.67,-0.5 1283.67,-0.5"/>
<text text-anchor="start" x="1291.67" y="-29.5" font-family="Helvetica,sans-Serif" font-size="10.00">/home/travis/build</text>
<text text-anchor="start" x="1291.67" y="-18.5" font-family="Helvetica,sans-Serif" font-size="10.00">/ADVRHumanoids/ROSEndEffector</text>
<text text-anchor="middle" x="1373.17" y="-7.5" font-family="Helvetica,sans-Serif" font-size="10.00">/src/UniversalRosEndEffector.cpp</text>
</a>
</g>
</g>
<!-- Node10&#45;&gt;Node11 -->
<g id="edge11" class="edge"><title>Node10&#45;&gt;Node11</title>
<path fill="none" stroke="midnightblue" d="M1439.01,-72.1475C1425.59,-61.921 1411.06,-50.8594 1399.08,-41.7338"/>
<polygon fill="midnightblue" stroke="midnightblue" points="1437.12,-75.1073 1447.2,-78.3823 1441.36,-69.5386 1437.12,-75.1073"/>
</g>
<!-- Node12 -->
<g id="node12" class="node"><title>Node12</title>
<g id="a_node12"><a xlink:href="UniversalRosEndEffectorExecutor_8cpp.html" target="_top" xlink:title="/home/travis/build\l/ADVRHumanoids/ROSEndEffector\l/src/UniversalRosEndEffectorExecutor.cpp">
<polygon fill="none" stroke="black" points="1480.67,-0.5 1480.67,-41.5 1695.67,-41.5 1695.67,-0.5 1480.67,-0.5"/>
<text text-anchor="start" x="1488.67" y="-29.5" font-family="Helvetica,sans-Serif" font-size="10.00">/home/travis/build</text>
<text text-anchor="start" x="1488.67" y="-18.5" font-family="Helvetica,sans-Serif" font-size="10.00">/ADVRHumanoids/ROSEndEffector</text>
<text text-anchor="middle" x="1588.17" y="-7.5" font-family="Helvetica,sans-Serif" font-size="10.00">/src/UniversalRosEndEffectorExecutor.cpp</text>
</a>
</g>
</g>
<!-- Node10&#45;&gt;Node12 -->
<g id="edge12" class="edge"><title>Node10&#45;&gt;Node12</title>
<path fill="none" stroke="midnightblue" d="M1521.72,-72.1475C1535.27,-61.921 1549.93,-50.8594 1562.02,-41.7338"/>
<polygon fill="midnightblue" stroke="midnightblue" points="1519.33,-69.5648 1513.46,-78.3823 1523.55,-75.1524 1519.33,-69.5648"/>
</g>
<!-- Node17&#45;&gt;Node4 -->
<g id="edge21" class="edge"><title>Node17&#45;&gt;Node4</title>
<path fill="none" stroke="midnightblue" d="M67.0603,-417.88C45.121,-408.777 24.6628,-395.464 11.1745,-376 -2.24259,-356.639 -4.7836,-340.326 11.1745,-323 50.221,-280.606 422.927,-270.305 599.393,-267.803"/>
<polygon fill="midnightblue" stroke="midnightblue" points="65.9478,-421.202 76.5376,-421.529 68.4632,-414.67 65.9478,-421.202"/>
</g>
<!-- Node17&#45;&gt;Node7 -->
<g id="edge22" class="edge"><title>Node17&#45;&gt;Node7</title>
<path fill="none" stroke="midnightblue" d="M283.784,-411.856C496.223,-379.924 555.302,-409.657 764.175,-376 774.086,-374.403 784.447,-372.315 794.606,-370.021"/>
<polygon fill="midnightblue" stroke="midnightblue" points="283.234,-408.399 273.879,-413.372 284.293,-415.318 283.234,-408.399"/>
</g>
<!-- Node18 -->
<g id="node18" class="node"><title>Node18</title>
<g id="a_node18"><a xlink:href="ActionPinchLoose_8cpp.html" target="_top" xlink:title="/home/travis/build\l/ADVRHumanoids/ROSEndEffector\l/src/GraspingActions/ActionPinchLoose.cpp">
<polygon fill="none" stroke="black" points="20.1745,-329 20.1745,-370 242.175,-370 242.175,-329 20.1745,-329"/>
<text text-anchor="start" x="28.1745" y="-358" font-family="Helvetica,sans-Serif" font-size="10.00">/home/travis/build</text>
<text text-anchor="start" x="28.1745" y="-347" font-family="Helvetica,sans-Serif" font-size="10.00">/ADVRHumanoids/ROSEndEffector</text>
<text text-anchor="middle" x="131.175" y="-336" font-family="Helvetica,sans-Serif" font-size="10.00">/src/GraspingActions/ActionPinchLoose.cpp</text>
</a>
</g>
</g>
<!-- Node17&#45;&gt;Node18 -->
<g id="edge23" class="edge"><title>Node17&#45;&gt;Node18</title>
<path fill="none" stroke="midnightblue" d="M157.812,-403.169C152.129,-391.933 146.014,-379.842 141.078,-370.082"/>
<polygon fill="midnightblue" stroke="midnightblue" points="154.811,-404.992 162.448,-412.336 161.058,-401.833 154.811,-404.992"/>
</g>
<!-- Node19&#45;&gt;Node4 -->
<g id="edge25" class="edge"><title>Node19&#45;&gt;Node4</title>
<path fill="none" stroke="midnightblue" d="M553.128,-405.959C543.441,-397.514 534.654,-387.483 529.175,-376 519.03,-354.741 515.507,-342.185 529.175,-323 545.663,-299.854 572.395,-286.184 599.432,-278.141"/>
<polygon fill="midnightblue" stroke="midnightblue" points="551.076,-408.801 561.045,-412.39 555.489,-403.368 551.076,-408.801"/>
</g>
<!-- Node19&#45;&gt;Node7 -->
<g id="edge26" class="edge"><title>Node19&#45;&gt;Node7</title>
<path fill="none" stroke="midnightblue" d="M689.925,-409.25C728.267,-396.469 772.642,-381.678 807.273,-370.134"/>
<polygon fill="midnightblue" stroke="midnightblue" points="688.696,-405.97 680.316,-412.453 690.91,-412.611 688.696,-405.97"/>
</g>
<!-- Node20 -->
<g id="node20" class="node"><title>Node20</title>
<g id="a_node20"><a xlink:href="ActionPinchTight_8cpp.html" target="_top" xlink:title="/home/travis/build\l/ADVRHumanoids/ROSEndEffector\l/src/GraspingActions/ActionPinchTight.cpp">
<polygon fill="none" stroke="black" points="538.675,-329 538.675,-370 755.675,-370 755.675,-329 538.675,-329"/>
<text text-anchor="start" x="546.675" y="-358" font-family="Helvetica,sans-Serif" font-size="10.00">/home/travis/build</text>
<text text-anchor="start" x="546.675" y="-347" font-family="Helvetica,sans-Serif" font-size="10.00">/ADVRHumanoids/ROSEndEffector</text>
<text text-anchor="middle" x="647.175" y="-336" font-family="Helvetica,sans-Serif" font-size="10.00">/src/GraspingActions/ActionPinchTight.cpp</text>
</a>
</g>
</g>
<!-- Node19&#45;&gt;Node20 -->
<g id="edge27" class="edge"><title>Node19&#45;&gt;Node20</title>
<path fill="none" stroke="midnightblue" d="M621.748,-403.169C627.172,-391.933 633.009,-379.842 637.721,-370.082"/>
<polygon fill="midnightblue" stroke="midnightblue" points="618.518,-401.809 617.323,-412.336 624.822,-404.852 618.518,-401.809"/>
</g>
<!-- Node22&#45;&gt;Node4 -->
<g id="edge31" class="edge"><title>Node22&#45;&gt;Node4</title>
<path fill="none" stroke="midnightblue" d="M1158.55,-405.849C1168.11,-397.41 1176.78,-387.409 1182.17,-376 1192.25,-354.708 1197.96,-340.483 1182.17,-323 1155.83,-293.82 869.195,-291.801 830.175,-287 814.809,-285.11 798.514,-282.926 782.695,-280.712"/>
<polygon fill="midnightblue" stroke="midnightblue" points="1156.23,-403.222 1150.74,-412.279 1160.68,-408.626 1156.23,-403.222"/>
</g>
<!-- Node22&#45;&gt;Node7 -->
<g id="edge32" class="edge"><title>Node22&#45;&gt;Node7</title>
<path fill="none" stroke="midnightblue" d="M1028.02,-408.925C992.821,-396.219 952.269,-381.58 920.562,-370.134"/>
<polygon fill="midnightblue" stroke="midnightblue" points="1027.2,-412.349 1037.79,-412.453 1029.57,-405.765 1027.2,-412.349"/>
</g>
<!-- Node23 -->
<g id="node23" class="node"><title>Node23</title>
<g id="a_node23"><a xlink:href="ActionSingleJointMultipleTips_8cpp.html" target="_top" xlink:title="/home/travis/build\l/ADVRHumanoids/ROSEndEffector\l/src/GraspingActions/ActionSingleJoint\lMultipleTips.cpp">
<polygon fill="none" stroke="black" points="976.675,-323.5 976.675,-375.5 1173.67,-375.5 1173.67,-323.5 976.675,-323.5"/>
<text text-anchor="start" x="984.675" y="-363.5" font-family="Helvetica,sans-Serif" font-size="10.00">/home/travis/build</text>
<text text-anchor="start" x="984.675" y="-352.5" font-family="Helvetica,sans-Serif" font-size="10.00">/ADVRHumanoids/ROSEndEffector</text>
<text text-anchor="start" x="984.675" y="-341.5" font-family="Helvetica,sans-Serif" font-size="10.00">/src/GraspingActions/ActionSingleJoint</text>
<text text-anchor="middle" x="1075.17" y="-330.5" font-family="Helvetica,sans-Serif" font-size="10.00">MultipleTips.cpp</text>
</a>
</g>
</g>
<!-- Node22&#45;&gt;Node23 -->
<g id="edge33" class="edge"><title>Node22&#45;&gt;Node23</title>
<path fill="none" stroke="midnightblue" d="M1094.4,-402.771C1091.06,-393.691 1087.53,-384.079 1084.41,-375.607"/>
<polygon fill="midnightblue" stroke="midnightblue" points="1091.18,-404.159 1097.92,-412.336 1097.75,-401.742 1091.18,-404.159"/>
</g>
<!-- Node24&#45;&gt;Node4 -->
<g id="edge35" class="edge"><title>Node24&#45;&gt;Node4</title>
<path fill="none" stroke="midnightblue" d="M1394.11,-406.692C1405.76,-398.451 1416.26,-388.314 1423.17,-376 1434.71,-355.464 1439.32,-340.154 1423.17,-323 1377.93,-274.93 895.843,-293.706 830.175,-287 814.894,-285.44 798.717,-283.436 783.009,-281.302"/>
<polygon fill="midnightblue" stroke="midnightblue" points="1391.91,-403.953 1385.46,-412.362 1395.74,-409.808 1391.91,-403.953"/>
</g>
<!-- Node24&#45;&gt;Node7 -->
<g id="edge36" class="edge"><title>Node24&#45;&gt;Node7</title>
<path fill="none" stroke="midnightblue" d="M1213.81,-412.012C1103.48,-391.572 1072.91,-396.995 967.175,-376 958.305,-374.239 949.048,-372.193 939.892,-370.041"/>
<polygon fill="midnightblue" stroke="midnightblue" points="1213.19,-415.457 1223.66,-413.867 1214.48,-408.577 1213.19,-415.457"/>
</g>
<!-- Node25 -->
<g id="node25" class="node"><title>Node25</title>
<g id="a_node25"><a xlink:href="ActionTrig_8cpp.html" target="_top" xlink:title="/home/travis/build\l/ADVRHumanoids/ROSEndEffector\l/src/GraspingActions/ActionTrig.cpp">
<polygon fill="none" stroke="black" points="1229.67,-329 1229.67,-370 1414.67,-370 1414.67,-329 1229.67,-329"/>
<text text-anchor="start" x="1237.67" y="-358" font-family="Helvetica,sans-Serif" font-size="10.00">/home/travis/build</text>
<text text-anchor="start" x="1237.67" y="-347" font-family="Helvetica,sans-Serif" font-size="10.00">/ADVRHumanoids/ROSEndEffector</text>
<text text-anchor="middle" x="1322.17" y="-336" font-family="Helvetica,sans-Serif" font-size="10.00">/src/GraspingActions/ActionTrig.cpp</text>
</a>
</g>
</g>
<!-- Node24&#45;&gt;Node25 -->
<g id="edge37" class="edge"><title>Node24&#45;&gt;Node25</title>
<path fill="none" stroke="midnightblue" d="M1322.17,-402.155C1322.17,-391.21 1322.17,-379.549 1322.17,-370.082"/>
<polygon fill="midnightblue" stroke="midnightblue" points="1318.67,-402.336 1322.17,-412.336 1325.67,-402.336 1318.67,-402.336"/>
</g>
</g>
</svg>
