<?xml version="1.0" encoding="UTF-8" standalone="no"?>
<!DOCTYPE svg PUBLIC "-//W3C//DTD SVG 1.1//EN"
 "http://www.w3.org/Graphics/SVG/1.1/DTD/svg11.dtd">
<!-- Generated by graphviz version 2.38.0 (20140413.2041)
 -->
<!-- Title: /home/travis/build/ADVRHumanoids/ROSEndEffector/src/GraspingActions/ActionPinchLoose.cpp Pages: 1 -->
<svg width="700pt" height="430pt"
 viewBox="0.00 0.00 699.50 430.00" xmlns="http://www.w3.org/2000/svg" xmlns:xlink="http://www.w3.org/1999/xlink">
<g id="graph0" class="graph" transform="scale(1 1) rotate(0) translate(4 426)">
<title>/home/travis/build/ADVRHumanoids/ROSEndEffector/src/GraspingActions/ActionPinchLoose.cpp</title>
<!-- Node1 -->
<g id="node1" class="node"><title>Node1</title>
<polygon fill="#bfbfbf" stroke="black" points="267,-380.5 267,-421.5 489,-421.5 489,-380.5 267,-380.5"/>
<text text-anchor="start" x="275" y="-409.5" font-family="Helvetica,sans-Serif" font-size="10.00">/home/travis/build</text>
<text text-anchor="start" x="275" y="-398.5" font-family="Helvetica,sans-Serif" font-size="10.00">/ADVRHumanoids/ROSEndEffector</text>
<text text-anchor="middle" x="378" y="-387.5" font-family="Helvetica,sans-Serif" font-size="10.00">/src/GraspingActions/ActionPinchLoose.cpp</text>
</g>
<!-- Node2 -->
<g id="node2" class="node"><title>Node2</title>
<g id="a_node2"><a xlink:href="ActionPinchLoose_8h.html" target="_top" xlink:title="ros_end_effector/Grasping\lActions/ActionPinchLoose.h">
<polygon fill="none" stroke="black" points="304,-313.5 304,-343.5 452,-343.5 452,-313.5 304,-313.5"/>
<text text-anchor="start" x="312" y="-331.5" font-family="Helvetica,sans-Serif" font-size="10.00">ros_end_effector/Grasping</text>
<text text-anchor="middle" x="378" y="-320.5" font-family="Helvetica,sans-Serif" font-size="10.00">Actions/ActionPinchLoose.h</text>
</a>
</g>
</g>
<!-- Node1&#45;&gt;Node2 -->
<g id="edge1" class="edge"><title>Node1&#45;&gt;Node2</title>
<path fill="none" stroke="midnightblue" d="M378,-380.362C378,-372.226 378,-362.7 378,-354.105"/>
<polygon fill="midnightblue" stroke="midnightblue" points="381.5,-353.892 378,-343.892 374.5,-353.892 381.5,-353.892"/>
</g>
<!-- Node3 -->
<g id="node3" class="node"><title>Node3</title>
<g id="a_node3"><a xlink:href="ActionPrimitive_8h.html" target="_top" xlink:title="ros_end_effector/Grasping\lActions/ActionPrimitive.h">
<polygon fill="none" stroke="black" points="200.5,-179.5 200.5,-209.5 343.5,-209.5 343.5,-179.5 200.5,-179.5"/>
<text text-anchor="start" x="208.5" y="-197.5" font-family="Helvetica,sans-Serif" font-size="10.00">ros_end_effector/Grasping</text>
<text text-anchor="middle" x="272" y="-186.5" font-family="Helvetica,sans-Serif" font-size="10.00">Actions/ActionPrimitive.h</text>
</a>
</g>
</g>
<!-- Node2&#45;&gt;Node3 -->
<g id="edge2" class="edge"><title>Node2&#45;&gt;Node3</title>
<path fill="none" stroke="midnightblue" d="M339.211,-313.322C322.041,-305.182 303.049,-293.286 291,-277 278.692,-260.364 274.198,-237.01 272.633,-219.563"/>
<polygon fill="midnightblue" stroke="midnightblue" points="276.126,-219.333 271.994,-209.577 269.14,-219.78 276.126,-219.333"/>
</g>
<!-- Node8 -->
<g id="node8" class="node"><title>Node8</title>
<polygon fill="none" stroke="#bfbfbf" points="8.5,-0.5 8.5,-19.5 67.5,-19.5 67.5,-0.5 8.5,-0.5"/>
<text text-anchor="middle" x="38" y="-7.5" font-family="Helvetica,sans-Serif" font-size="10.00">iostream</text>
</g>
<!-- Node2&#45;&gt;Node8 -->
<g id="edge31" class="edge"><title>Node2&#45;&gt;Node8</title>
<path fill="none" stroke="midnightblue" d="M303.77,-317.009C193.687,-299.335 0,-259.19 0,-195.5 0,-195.5 0,-195.5 0,-126.5 0,-90.2544 17.0946,-50.671 28.3527,-28.5327"/>
<polygon fill="midnightblue" stroke="midnightblue" points="31.4613,-30.141 33.0322,-19.6633 25.2702,-26.8745 31.4613,-30.141"/>
</g>
<!-- Node10 -->
<g id="node10" class="node"><title>Node10</title>
<polygon fill="none" stroke="#bfbfbf" points="512,-56.5 512,-75.5 608,-75.5 608,-56.5 512,-56.5"/>
<text text-anchor="middle" x="560" y="-63.5" font-family="Helvetica,sans-Serif" font-size="10.00">yaml&#45;cpp/yaml.h</text>
</g>
<!-- Node2&#45;&gt;Node10 -->
<g id="edge30" class="edge"><title>Node2&#45;&gt;Node10</title>
<path fill="none" stroke="midnightblue" d="M412.814,-313.469C430.286,-305.018 450.715,-292.808 465,-277 518.103,-218.238 545.88,-124.809 555.75,-85.4448"/>
<polygon fill="midnightblue" stroke="midnightblue" points="559.17,-86.1926 558.111,-75.6508 552.365,-84.5521 559.17,-86.1926"/>
</g>
<!-- Node19 -->
<g id="node19" class="node"><title>Node19</title>
<g id="a_node19"><a xlink:href="ActionPinchGeneric_8h.html" target="_top" xlink:title="ros_end_effector/Grasping\lActions/ActionPinchGeneric.h">
<polygon fill="none" stroke="black" points="300,-246.5 300,-276.5 456,-276.5 456,-246.5 300,-246.5"/>
<text text-anchor="start" x="308" y="-264.5" font-family="Helvetica,sans-Serif" font-size="10.00">ros_end_effector/Grasping</text>
<text text-anchor="middle" x="378" y="-253.5" font-family="Helvetica,sans-Serif" font-size="10.00">Actions/ActionPinchGeneric.h</text>
</a>
</g>
</g>
<!-- Node2&#45;&gt;Node19 -->
<g id="edge25" class="edge"><title>Node2&#45;&gt;Node19</title>
<path fill="none" stroke="midnightblue" d="M378,-313.396C378,-305.645 378,-295.812 378,-286.86"/>
<polygon fill="midnightblue" stroke="midnightblue" points="381.5,-286.576 378,-276.577 374.5,-286.577 381.5,-286.576"/>
</g>
<!-- Node20 -->
<g id="node20" class="node"><title>Node20</title>
<polygon fill="none" stroke="#bfbfbf" points="564.5,-246.5 564.5,-276.5 691.5,-276.5 691.5,-246.5 564.5,-246.5"/>
<text text-anchor="start" x="572.5" y="-264.5" font-family="Helvetica,sans-Serif" font-size="10.00">moveit/planning_scene</text>
<text text-anchor="middle" x="628" y="-253.5" font-family="Helvetica,sans-Serif" font-size="10.00">/planning_scene.h</text>
</g>
<!-- Node2&#45;&gt;Node20 -->
<g id="edge29" class="edge"><title>Node2&#45;&gt;Node20</title>
<path fill="none" stroke="midnightblue" d="M431.938,-313.476C470.66,-303.408 523.004,-289.799 563.868,-279.174"/>
<polygon fill="midnightblue" stroke="midnightblue" points="564.93,-282.515 573.727,-276.611 563.168,-275.74 564.93,-282.515"/>
</g>
<!-- Node4 -->
<g id="node4" class="node"><title>Node4</title>
<polygon fill="none" stroke="#bfbfbf" points="162,-118 162,-137 194,-137 194,-118 162,-118"/>
<text text-anchor="middle" x="178" y="-125" font-family="Helvetica,sans-Serif" font-size="10.00">set</text>
</g>
<!-- Node3&#45;&gt;Node4 -->
<g id="edge3" class="edge"><title>Node3&#45;&gt;Node4</title>
<path fill="none" stroke="midnightblue" d="M251.603,-179.396C235.986,-168.597 214.525,-153.756 198.806,-142.887"/>
<polygon fill="midnightblue" stroke="midnightblue" points="200.518,-139.816 190.302,-137.007 196.537,-145.573 200.518,-139.816"/>
</g>
<!-- Node5 -->
<g id="node5" class="node"><title>Node5</title>
<polygon fill="none" stroke="#bfbfbf" points="104,-56.5 104,-75.5 148,-75.5 148,-56.5 104,-56.5"/>
<text text-anchor="middle" x="126" y="-63.5" font-family="Helvetica,sans-Serif" font-size="10.00">string</text>
</g>
<!-- Node3&#45;&gt;Node5 -->
<g id="edge4" class="edge"><title>Node3&#45;&gt;Node5</title>
<path fill="none" stroke="midnightblue" d="M213.498,-179.423C192.078,-171.733 169.156,-160.155 153,-143 138.18,-127.264 131.416,-102.869 128.38,-85.9816"/>
<polygon fill="midnightblue" stroke="midnightblue" points="131.779,-85.0511 126.821,-75.6879 124.858,-86.0992 131.779,-85.0511"/>
</g>
<!-- Node6 -->
<g id="node6" class="node"><title>Node6</title>
<polygon fill="none" stroke="#bfbfbf" points="166,-56.5 166,-75.5 204,-75.5 204,-56.5 166,-56.5"/>
<text text-anchor="middle" x="185" y="-63.5" font-family="Helvetica,sans-Serif" font-size="10.00">map</text>
</g>
<!-- Node3&#45;&gt;Node6 -->
<g id="edge5" class="edge"><title>Node3&#45;&gt;Node6</title>
<path fill="none" stroke="midnightblue" d="M262.357,-179.479C246.351,-156.206 214.342,-109.663 196.936,-84.3555"/>
<polygon fill="midnightblue" stroke="midnightblue" points="199.595,-82.0447 191.044,-75.7885 193.827,-86.0114 199.595,-82.0447"/>
</g>
<!-- Node7 -->
<g id="node7" class="node"><title>Node7</title>
<polygon fill="none" stroke="#bfbfbf" points="446.5,-56.5 446.5,-75.5 493.5,-75.5 493.5,-56.5 446.5,-56.5"/>
<text text-anchor="middle" x="470" y="-63.5" font-family="Helvetica,sans-Serif" font-size="10.00">vector</text>
</g>
<!-- Node3&#45;&gt;Node7 -->
<g id="edge6" class="edge"><title>Node3&#45;&gt;Node7</title>
<path fill="none" stroke="midnightblue" d="M324.126,-179.478C349.057,-171.267 378.512,-159.267 402,-143 425.334,-126.84 446.11,-101.116 458.381,-84.1434"/>
<polygon fill="midnightblue" stroke="midnightblue" points="461.405,-85.9267 464.286,-75.7308 455.676,-81.9052 461.405,-85.9267"/>
</g>
<!-- Node3&#45;&gt;Node8 -->
<g id="edge7" class="edge"><title>Node3&#45;&gt;Node8</title>
<path fill="none" stroke="midnightblue" d="M208.37,-179.401C182.884,-171.599 154.334,-159.946 132,-143 90.6809,-111.649 60.1236,-56.9949 46.2568,-28.8608"/>
<polygon fill="midnightblue" stroke="midnightblue" points="49.3885,-27.2967 41.9141,-19.7878 43.0744,-30.3189 49.3885,-27.2967"/>
</g>
<!-- Node9 -->
<g id="node9" class="node"><title>Node9</title>
<g id="a_node9"><a xlink:href="Action_8h.html" target="_top" xlink:title="ros_end_effector/Grasping\lActions/Action.h">
<polygon fill="none" stroke="black" points="250.5,-112.5 250.5,-142.5 393.5,-142.5 393.5,-112.5 250.5,-112.5"/>
<text text-anchor="start" x="258.5" y="-130.5" font-family="Helvetica,sans-Serif" font-size="10.00">ros_end_effector/Grasping</text>
<text text-anchor="middle" x="322" y="-119.5" font-family="Helvetica,sans-Serif" font-size="10.00">Actions/Action.h</text>
</a>
</g>
</g>
<!-- Node3&#45;&gt;Node9 -->
<g id="edge8" class="edge"><title>Node3&#45;&gt;Node9</title>
<path fill="none" stroke="midnightblue" d="M282.849,-179.396C289.336,-170.963 297.717,-160.067 305.06,-150.522"/>
<polygon fill="midnightblue" stroke="midnightblue" points="307.849,-152.637 311.172,-142.577 302.301,-148.369 307.849,-152.637"/>
</g>
<!-- Node3&#45;&gt;Node10 -->
<g id="edge24" class="edge"><title>Node3&#45;&gt;Node10</title>
<path fill="none" stroke="midnightblue" d="M328.373,-179.433C359.846,-170.692 399.374,-158.221 433,-143 457.165,-132.062 461.254,-125.646 484,-112 501.64,-101.417 521.663,-89.5676 536.727,-80.6858"/>
<polygon fill="midnightblue" stroke="midnightblue" points="538.561,-83.6681 545.401,-75.5769 535.008,-77.6367 538.561,-83.6681"/>
</g>
<!-- Node9&#45;&gt;Node5 -->
<g id="edge10" class="edge"><title>Node9&#45;&gt;Node5</title>
<path fill="none" stroke="midnightblue" d="M275.551,-112.399C239.288,-101.391 189.861,-86.3865 157.937,-76.6952"/>
<polygon fill="midnightblue" stroke="midnightblue" points="158.811,-73.303 148.226,-73.7472 156.778,-80.0011 158.811,-73.303"/>
</g>
<!-- Node9&#45;&gt;Node6 -->
<g id="edge11" class="edge"><title>Node9&#45;&gt;Node6</title>
<path fill="none" stroke="midnightblue" d="M289.533,-112.399C266.374,-102.341 235.532,-88.9465 213.36,-79.317"/>
<polygon fill="midnightblue" stroke="midnightblue" points="214.706,-76.0857 204.139,-75.3124 211.917,-82.5063 214.706,-76.0857"/>
</g>
<!-- Node9&#45;&gt;Node7 -->
<g id="edge9" class="edge"><title>Node9&#45;&gt;Node7</title>
<path fill="none" stroke="midnightblue" d="M357.074,-112.399C382.017,-102.372 415.208,-89.028 439.144,-79.405"/>
<polygon fill="midnightblue" stroke="midnightblue" points="440.492,-82.6354 448.465,-75.6578 437.881,-76.1406 440.492,-82.6354"/>
</g>
<!-- Node9&#45;&gt;Node8 -->
<g id="edge14" class="edge"><title>Node9&#45;&gt;Node8</title>
<path fill="none" stroke="midnightblue" d="M304.137,-112.338C283.355,-96.5023 247.474,-71.1024 213,-56 200.593,-50.5647 125.271,-31.9805 77.5754,-20.4637"/>
<polygon fill="midnightblue" stroke="midnightblue" points="78.3911,-17.0602 67.8495,-18.1207 76.7516,-23.8655 78.3911,-17.0602"/>
</g>
<!-- Node9&#45;&gt;Node10 -->
<g id="edge12" class="edge"><title>Node9&#45;&gt;Node10</title>
<path fill="none" stroke="midnightblue" d="M378.101,-112.475C420.237,-101.941 477.137,-87.7158 516.009,-77.9978"/>
<polygon fill="midnightblue" stroke="midnightblue" points="517.122,-81.3273 525.975,-75.5064 515.424,-74.5363 517.122,-81.3273"/>
</g>
<!-- Node11 -->
<g id="node11" class="node"><title>Node11</title>
<polygon fill="none" stroke="#bfbfbf" points="559.5,-0.5 559.5,-19.5 616.5,-19.5 616.5,-0.5 559.5,-0.5"/>
<text text-anchor="middle" x="588" y="-7.5" font-family="Helvetica,sans-Serif" font-size="10.00">memory</text>
</g>
<!-- Node9&#45;&gt;Node11 -->
<g id="edge13" class="edge"><title>Node9&#45;&gt;Node11</title>
<path fill="none" stroke="midnightblue" d="M343.633,-112.301C371.419,-94.2297 418.288,-64.3516 437,-56 457.179,-46.9937 512.03,-31.4321 549.752,-21.1765"/>
<polygon fill="midnightblue" stroke="midnightblue" points="550.678,-24.5518 559.418,-18.5627 548.851,-17.7946 550.678,-24.5518"/>
</g>
<!-- Node12 -->
<g id="node12" class="node"><title>Node12</title>
<g id="a_node12"><a xlink:href="Utils_8h.html" target="_top" xlink:title="ros_end_effector/Utils.h">
<polygon fill="none" stroke="black" points="260,-56.5 260,-75.5 390,-75.5 390,-56.5 260,-56.5"/>
<text text-anchor="middle" x="325" y="-63.5" font-family="Helvetica,sans-Serif" font-size="10.00">ros_end_effector/Utils.h</text>
</a>
</g>
</g>
<!-- Node9&#45;&gt;Node12 -->
<g id="edge15" class="edge"><title>Node9&#45;&gt;Node12</title>
<path fill="none" stroke="midnightblue" d="M322.711,-112.399C323.111,-104.466 323.616,-94.458 324.049,-85.8583"/>
<polygon fill="midnightblue" stroke="midnightblue" points="327.555,-85.8214 324.563,-75.6578 320.564,-85.4688 327.555,-85.8214"/>
</g>
<!-- Node12&#45;&gt;Node8 -->
<g id="edge18" class="edge"><title>Node12&#45;&gt;Node8</title>
<path fill="none" stroke="midnightblue" d="M274.043,-56.4791C225.97,-48.2772 151.657,-35.1792 77.7313,-20.0715"/>
<polygon fill="midnightblue" stroke="midnightblue" points="78.2788,-16.6109 67.7787,-18.0247 76.8687,-23.4674 78.2788,-16.6109"/>
</g>
<!-- Node12&#45;&gt;Node11 -->
<g id="edge17" class="edge"><title>Node12&#45;&gt;Node11</title>
<path fill="none" stroke="midnightblue" d="M371,-56.4282C414.606,-48.1708 482.185,-35.035 549.429,-20.284"/>
<polygon fill="midnightblue" stroke="midnightblue" points="550.333,-23.6686 559.344,-18.0962 548.825,-16.833 550.333,-23.6686"/>
</g>
<!-- Node13 -->
<g id="node13" class="node"><title>Node13</title>
<polygon fill="none" stroke="#bfbfbf" points="494.5,-0.5 494.5,-19.5 541.5,-19.5 541.5,-0.5 494.5,-0.5"/>
<text text-anchor="middle" x="518" y="-7.5" font-family="Helvetica,sans-Serif" font-size="10.00">cmath</text>
</g>
<!-- Node12&#45;&gt;Node13 -->
<g id="edge16" class="edge"><title>Node12&#45;&gt;Node13</title>
<path fill="none" stroke="midnightblue" d="M355.581,-56.4435C390.752,-46.6031 448.3,-30.5016 484.612,-20.3418"/>
<polygon fill="midnightblue" stroke="midnightblue" points="485.567,-23.7089 494.254,-17.6439 483.681,-16.9678 485.567,-23.7089"/>
</g>
<!-- Node14 -->
<g id="node14" class="node"><title>Node14</title>
<polygon fill="none" stroke="#bfbfbf" points="86,-0.5 86,-19.5 134,-19.5 134,-0.5 86,-0.5"/>
<text text-anchor="middle" x="110" y="-7.5" font-family="Helvetica,sans-Serif" font-size="10.00">dlfcn.h</text>
</g>
<!-- Node12&#45;&gt;Node14 -->
<g id="edge19" class="edge"><title>Node12&#45;&gt;Node14</title>
<path fill="none" stroke="midnightblue" d="M289.365,-56.4552C254.636,-48.0688 200.095,-34.7425 143.899,-20.1902"/>
<polygon fill="midnightblue" stroke="midnightblue" points="144.692,-16.78 134.133,-17.653 142.931,-23.5551 144.692,-16.78"/>
</g>
<!-- Node15 -->
<g id="node15" class="node"><title>Node15</title>
<polygon fill="none" stroke="#bfbfbf" points="152,-0.5 152,-19.5 268,-19.5 268,-0.5 152,-0.5"/>
<text text-anchor="middle" x="210" y="-7.5" font-family="Helvetica,sans-Serif" font-size="10.00">boost/filesystem.hpp</text>
</g>
<!-- Node12&#45;&gt;Node15 -->
<g id="edge20" class="edge"><title>Node12&#45;&gt;Node15</title>
<path fill="none" stroke="midnightblue" d="M306.778,-56.4435C288.104,-47.6751 258.844,-33.9355 237.383,-23.8579"/>
<polygon fill="midnightblue" stroke="midnightblue" points="238.676,-20.5988 228.137,-19.5164 235.701,-26.935 238.676,-20.5988"/>
</g>
<!-- Node16 -->
<g id="node16" class="node"><title>Node16</title>
<polygon fill="none" stroke="#bfbfbf" points="286,-0.5 286,-19.5 340,-19.5 340,-0.5 286,-0.5"/>
<text text-anchor="middle" x="313" y="-7.5" font-family="Helvetica,sans-Serif" font-size="10.00">fstream</text>
</g>
<!-- Node12&#45;&gt;Node16 -->
<g id="edge21" class="edge"><title>Node12&#45;&gt;Node16</title>
<path fill="none" stroke="midnightblue" d="M323.018,-56.083C321.428,-48.9272 319.141,-38.6353 317.154,-29.6911"/>
<polygon fill="midnightblue" stroke="midnightblue" points="320.531,-28.7537 314.945,-19.7511 313.697,-30.2722 320.531,-28.7537"/>
</g>
<!-- Node17 -->
<g id="node17" class="node"><title>Node17</title>
<polygon fill="none" stroke="#bfbfbf" points="358,-0.5 358,-19.5 408,-19.5 408,-0.5 358,-0.5"/>
<text text-anchor="middle" x="383" y="-7.5" font-family="Helvetica,sans-Serif" font-size="10.00">chrono</text>
</g>
<!-- Node12&#45;&gt;Node17 -->
<g id="edge22" class="edge"><title>Node12&#45;&gt;Node17</title>
<path fill="none" stroke="midnightblue" d="M334.319,-56.324C342.893,-48.3414 355.812,-36.3128 366.188,-26.6529"/>
<polygon fill="midnightblue" stroke="midnightblue" points="368.578,-29.2098 373.512,-19.8339 363.808,-24.0865 368.578,-29.2098"/>
</g>
<!-- Node18 -->
<g id="node18" class="node"><title>Node18</title>
<polygon fill="none" stroke="#bfbfbf" points="426,-0.5 426,-19.5 476,-19.5 476,-0.5 426,-0.5"/>
<text text-anchor="middle" x="451" y="-7.5" font-family="Helvetica,sans-Serif" font-size="10.00">atomic</text>
</g>
<!-- Node12&#45;&gt;Node18 -->
<g id="edge23" class="edge"><title>Node12&#45;&gt;Node18</title>
<path fill="none" stroke="midnightblue" d="M344.965,-56.4435C365.609,-47.5961 398.063,-33.6875 421.632,-23.5865"/>
<polygon fill="midnightblue" stroke="midnightblue" points="423.316,-26.6727 431.128,-19.5164 420.558,-20.2387 423.316,-26.6727"/>
</g>
<!-- Node19&#45;&gt;Node3 -->
<g id="edge26" class="edge"><title>Node19&#45;&gt;Node3</title>
<path fill="none" stroke="midnightblue" d="M355,-246.396C339.998,-237.197 320.215,-225.066 303.726,-214.955"/>
<polygon fill="midnightblue" stroke="midnightblue" points="305.31,-211.82 294.956,-209.577 301.651,-217.788 305.31,-211.82"/>
</g>
<!-- Node19&#45;&gt;Node8 -->
<g id="edge28" class="edge"><title>Node19&#45;&gt;Node8</title>
<path fill="none" stroke="midnightblue" d="M302.125,-246.455C267.251,-238.394 225.964,-226.525 191,-210 144.616,-188.078 131.778,-180.717 97,-143 73.4902,-117.504 70.8656,-107.789 57,-76 50.39,-60.8457 45.3087,-42.7267 42.0712,-29.473"/>
<polygon fill="midnightblue" stroke="midnightblue" points="45.463,-28.6055 39.7923,-19.656 38.6443,-30.1885 45.463,-28.6055"/>
</g>
<!-- Node19&#45;&gt;Node10 -->
<g id="edge27" class="edge"><title>Node19&#45;&gt;Node10</title>
<path fill="none" stroke="midnightblue" d="M391.383,-246.271C424.505,-211.056 510.14,-120.011 544.951,-82.9997"/>
<polygon fill="midnightblue" stroke="midnightblue" points="547.631,-85.2591 551.933,-75.5769 542.532,-80.4632 547.631,-85.2591"/>
</g>
</g>
</svg>
