<?xml version="1.0" encoding="UTF-8" standalone="no"?>
<!DOCTYPE svg PUBLIC "-//W3C//DTD SVG 1.1//EN"
 "http://www.w3.org/Graphics/SVG/1.1/DTD/svg11.dtd">
<!-- Generated by graphviz version 2.38.0 (20140413.2041)
 -->
<!-- Title: /home/travis/build/ADVRHumanoids/ROSEndEffector/include/ros_end_effector/GraspingActions/ActionGeneric.h Pages: 1 -->
<svg width="714pt" height="240pt"
 viewBox="0.00 0.00 714.00 240.00" xmlns="http://www.w3.org/2000/svg" xmlns:xlink="http://www.w3.org/1999/xlink">
<g id="graph0" class="graph" transform="scale(1 1) rotate(0) translate(4 236)">
<title>/home/travis/build/ADVRHumanoids/ROSEndEffector/include/ros_end_effector/GraspingActions/ActionGeneric.h</title>
<!-- Node1 -->
<g id="node1" class="node"><title>Node1</title>
<polygon fill="#bfbfbf" stroke="black" points="218.5,-179.5 218.5,-231.5 397.5,-231.5 397.5,-179.5 218.5,-179.5"/>
<text text-anchor="start" x="226.5" y="-219.5" font-family="Helvetica,sans-Serif" font-size="10.00">/home/travis/build</text>
<text text-anchor="start" x="226.5" y="-208.5" font-family="Helvetica,sans-Serif" font-size="10.00">/ADVRHumanoids/ROSEndEffector</text>
<text text-anchor="start" x="226.5" y="-197.5" font-family="Helvetica,sans-Serif" font-size="10.00">/include/ros_end_effector</text>
<text text-anchor="middle" x="308" y="-186.5" font-family="Helvetica,sans-Serif" font-size="10.00">/GraspingActions/ActionGeneric.h</text>
</g>
<!-- Node2 -->
<g id="node2" class="node"><title>Node2</title>
<g id="a_node2"><a xlink:href="Action_8h.html" target="_top" xlink:title="ros_end_effector/Grasping\lActions/Action.h">
<polygon fill="none" stroke="black" points="115.5,-112.5 115.5,-142.5 258.5,-142.5 258.5,-112.5 115.5,-112.5"/>
<text text-anchor="start" x="123.5" y="-130.5" font-family="Helvetica,sans-Serif" font-size="10.00">ros_end_effector/Grasping</text>
<text text-anchor="middle" x="187" y="-119.5" font-family="Helvetica,sans-Serif" font-size="10.00">Actions/Action.h</text>
</a>
</g>
</g>
<!-- Node1&#45;&gt;Node2 -->
<g id="edge1" class="edge"><title>Node1&#45;&gt;Node2</title>
<path fill="none" stroke="midnightblue" d="M268.045,-179.404C251.817,-169.212 233.353,-157.614 218.15,-148.066"/>
<polygon fill="midnightblue" stroke="midnightblue" points="219.948,-145.062 209.618,-142.707 216.225,-150.989 219.948,-145.062"/>
</g>
<!-- Node6 -->
<g id="node6" class="node"><title>Node6</title>
<polygon fill="none" stroke="#bfbfbf" points="260,-56.5 260,-75.5 356,-75.5 356,-56.5 260,-56.5"/>
<text text-anchor="middle" x="308" y="-63.5" font-family="Helvetica,sans-Serif" font-size="10.00">yaml&#45;cpp/yaml.h</text>
</g>
<!-- Node1&#45;&gt;Node6 -->
<g id="edge17" class="edge"><title>Node1&#45;&gt;Node6</title>
<path fill="none" stroke="midnightblue" d="M308,-179.28C308,-152.241 308,-109.94 308,-85.7156"/>
<polygon fill="midnightblue" stroke="midnightblue" points="311.5,-85.699 308,-75.699 304.5,-85.6991 311.5,-85.699"/>
</g>
<!-- Node9 -->
<g id="node9" class="node"><title>Node9</title>
<g id="a_node9"><a xlink:href="Utils_8h.html" target="_top" xlink:title="ros_end_effector/Utils.h">
<polygon fill="none" stroke="black" points="374,-56.5 374,-75.5 504,-75.5 504,-56.5 374,-56.5"/>
<text text-anchor="middle" x="439" y="-63.5" font-family="Helvetica,sans-Serif" font-size="10.00">ros_end_effector/Utils.h</text>
</a>
</g>
</g>
<!-- Node1&#45;&gt;Node9 -->
<g id="edge18" class="edge"><title>Node1&#45;&gt;Node9</title>
<path fill="none" stroke="midnightblue" d="M332.027,-179.28C358.721,-151.262 401.027,-106.857 423.606,-83.1576"/>
<polygon fill="midnightblue" stroke="midnightblue" points="426.348,-85.3534 430.712,-75.699 421.28,-80.5249 426.348,-85.3534"/>
</g>
<!-- Node3 -->
<g id="node3" class="node"><title>Node3</title>
<polygon fill="none" stroke="#bfbfbf" points="194.5,-56.5 194.5,-75.5 241.5,-75.5 241.5,-56.5 194.5,-56.5"/>
<text text-anchor="middle" x="218" y="-63.5" font-family="Helvetica,sans-Serif" font-size="10.00">vector</text>
</g>
<!-- Node2&#45;&gt;Node3 -->
<g id="edge2" class="edge"><title>Node2&#45;&gt;Node3</title>
<path fill="none" stroke="midnightblue" d="M194.347,-112.399C198.665,-104.11 204.165,-93.5542 208.774,-84.7077"/>
<polygon fill="midnightblue" stroke="midnightblue" points="211.973,-86.1435 213.489,-75.6578 205.765,-82.9091 211.973,-86.1435"/>
</g>
<!-- Node4 -->
<g id="node4" class="node"><title>Node4</title>
<polygon fill="none" stroke="#bfbfbf" points="0,-56.5 0,-75.5 44,-75.5 44,-56.5 0,-56.5"/>
<text text-anchor="middle" x="22" y="-63.5" font-family="Helvetica,sans-Serif" font-size="10.00">string</text>
</g>
<!-- Node2&#45;&gt;Node4 -->
<g id="edge3" class="edge"><title>Node2&#45;&gt;Node4</title>
<path fill="none" stroke="midnightblue" d="M147.897,-112.399C119.166,-102.039 80.6189,-88.1383 53.7774,-78.4591"/>
<polygon fill="midnightblue" stroke="midnightblue" points="54.7025,-75.0722 44.1081,-74.9723 52.3279,-81.6571 54.7025,-75.0722"/>
</g>
<!-- Node5 -->
<g id="node5" class="node"><title>Node5</title>
<polygon fill="none" stroke="#bfbfbf" points="62,-56.5 62,-75.5 100,-75.5 100,-56.5 62,-56.5"/>
<text text-anchor="middle" x="81" y="-63.5" font-family="Helvetica,sans-Serif" font-size="10.00">map</text>
</g>
<!-- Node2&#45;&gt;Node5 -->
<g id="edge4" class="edge"><title>Node2&#45;&gt;Node5</title>
<path fill="none" stroke="midnightblue" d="M161.879,-112.399C144.73,-102.773 122.135,-90.0902 105.188,-80.5772"/>
<polygon fill="midnightblue" stroke="midnightblue" points="106.857,-77.5006 96.4239,-75.6578 103.431,-83.6047 106.857,-77.5006"/>
</g>
<!-- Node2&#45;&gt;Node6 -->
<g id="edge5" class="edge"><title>Node2&#45;&gt;Node6</title>
<path fill="none" stroke="midnightblue" d="M215.675,-112.399C235.524,-102.639 261.761,-89.7373 281.192,-80.1826"/>
<polygon fill="midnightblue" stroke="midnightblue" points="282.964,-83.2114 290.393,-75.6578 279.875,-76.9297 282.964,-83.2114"/>
</g>
<!-- Node7 -->
<g id="node7" class="node"><title>Node7</title>
<polygon fill="none" stroke="#bfbfbf" points="98.5,-0.5 98.5,-19.5 155.5,-19.5 155.5,-0.5 98.5,-0.5"/>
<text text-anchor="middle" x="127" y="-7.5" font-family="Helvetica,sans-Serif" font-size="10.00">memory</text>
</g>
<!-- Node2&#45;&gt;Node7 -->
<g id="edge6" class="edge"><title>Node2&#45;&gt;Node7</title>
<path fill="none" stroke="midnightblue" d="M179.643,-112.337C168.685,-91.2433 148.091,-51.6 136.168,-28.6481"/>
<polygon fill="midnightblue" stroke="midnightblue" points="139.219,-26.93 131.504,-19.6695 133.008,-30.157 139.219,-26.93"/>
</g>
<!-- Node8 -->
<g id="node8" class="node"><title>Node8</title>
<polygon fill="none" stroke="#bfbfbf" points="173.5,-0.5 173.5,-19.5 232.5,-19.5 232.5,-0.5 173.5,-0.5"/>
<text text-anchor="middle" x="203" y="-7.5" font-family="Helvetica,sans-Serif" font-size="10.00">iostream</text>
</g>
<!-- Node2&#45;&gt;Node8 -->
<g id="edge7" class="edge"><title>Node2&#45;&gt;Node8</title>
<path fill="none" stroke="midnightblue" d="M184.804,-112.309C183.003,-97.9673 181.295,-75.2377 185,-56 186.79,-46.7047 190.483,-36.8887 194.061,-28.8048"/>
<polygon fill="midnightblue" stroke="midnightblue" points="197.273,-30.1981 198.379,-19.6611 190.944,-27.2089 197.273,-30.1981"/>
</g>
<!-- Node2&#45;&gt;Node9 -->
<g id="edge8" class="edge"><title>Node2&#45;&gt;Node9</title>
<path fill="none" stroke="midnightblue" d="M246.401,-112.475C291.3,-101.874 352.032,-87.534 393.207,-77.8123"/>
<polygon fill="midnightblue" stroke="midnightblue" points="394.045,-81.2107 402.973,-75.5064 392.436,-74.398 394.045,-81.2107"/>
</g>
<!-- Node9&#45;&gt;Node7 -->
<g id="edge10" class="edge"><title>Node9&#45;&gt;Node7</title>
<path fill="none" stroke="midnightblue" d="M378.676,-56.484C325.089,-48.6118 244.434,-36.0134 165.721,-20.2358"/>
<polygon fill="midnightblue" stroke="midnightblue" points="166.13,-16.7477 155.635,-18.194 164.742,-23.6085 166.13,-16.7477"/>
</g>
<!-- Node9&#45;&gt;Node8 -->
<g id="edge11" class="edge"><title>Node9&#45;&gt;Node8</title>
<path fill="none" stroke="midnightblue" d="M401.019,-56.4754C363.245,-47.9736 303.365,-34.4323 242.955,-20.4404"/>
<polygon fill="midnightblue" stroke="midnightblue" points="243.397,-16.9501 232.865,-18.1002 241.815,-23.7691 243.397,-16.9501"/>
</g>
<!-- Node10 -->
<g id="node10" class="node"><title>Node10</title>
<polygon fill="none" stroke="#bfbfbf" points="250.5,-0.5 250.5,-19.5 297.5,-19.5 297.5,-0.5 250.5,-0.5"/>
<text text-anchor="middle" x="274" y="-7.5" font-family="Helvetica,sans-Serif" font-size="10.00">cmath</text>
</g>
<!-- Node9&#45;&gt;Node10 -->
<g id="edge9" class="edge"><title>Node9&#45;&gt;Node10</title>
<path fill="none" stroke="midnightblue" d="M412.855,-56.4435C384.239,-47.0781 338.293,-32.0415 307.163,-21.8532"/>
<polygon fill="midnightblue" stroke="midnightblue" points="308.209,-18.5131 297.616,-18.729 306.032,-25.1659 308.209,-18.5131"/>
</g>
<!-- Node11 -->
<g id="node11" class="node"><title>Node11</title>
<polygon fill="none" stroke="#bfbfbf" points="316,-0.5 316,-19.5 364,-19.5 364,-0.5 316,-0.5"/>
<text text-anchor="middle" x="340" y="-7.5" font-family="Helvetica,sans-Serif" font-size="10.00">dlfcn.h</text>
</g>
<!-- Node9&#45;&gt;Node11 -->
<g id="edge12" class="edge"><title>Node9&#45;&gt;Node11</title>
<path fill="none" stroke="midnightblue" d="M423.094,-56.324C407.362,-47.7428 383.058,-34.486 364.791,-24.5224"/>
<polygon fill="midnightblue" stroke="midnightblue" points="366.322,-21.3704 355.867,-19.6545 362.97,-27.5157 366.322,-21.3704"/>
</g>
<!-- Node12 -->
<g id="node12" class="node"><title>Node12</title>
<polygon fill="none" stroke="#bfbfbf" points="382,-0.5 382,-19.5 498,-19.5 498,-0.5 382,-0.5"/>
<text text-anchor="middle" x="440" y="-7.5" font-family="Helvetica,sans-Serif" font-size="10.00">boost/filesystem.hpp</text>
</g>
<!-- Node9&#45;&gt;Node12 -->
<g id="edge13" class="edge"><title>Node9&#45;&gt;Node12</title>
<path fill="none" stroke="midnightblue" d="M439.165,-56.083C439.296,-49.0059 439.484,-38.8611 439.648,-29.9865"/>
<polygon fill="midnightblue" stroke="midnightblue" points="443.152,-29.8142 439.838,-19.7511 436.153,-29.6845 443.152,-29.8142"/>
</g>
<!-- Node13 -->
<g id="node13" class="node"><title>Node13</title>
<polygon fill="none" stroke="#bfbfbf" points="516,-0.5 516,-19.5 570,-19.5 570,-0.5 516,-0.5"/>
<text text-anchor="middle" x="543" y="-7.5" font-family="Helvetica,sans-Serif" font-size="10.00">fstream</text>
</g>
<!-- Node9&#45;&gt;Node13 -->
<g id="edge14" class="edge"><title>Node9&#45;&gt;Node13</title>
<path fill="none" stroke="midnightblue" d="M455.709,-56.324C472.312,-47.7034 498.002,-34.3643 517.22,-24.3855"/>
<polygon fill="midnightblue" stroke="midnightblue" points="519.07,-27.3689 526.332,-19.6545 515.844,-21.1565 519.07,-27.3689"/>
</g>
<!-- Node14 -->
<g id="node14" class="node"><title>Node14</title>
<polygon fill="none" stroke="#bfbfbf" points="588,-0.5 588,-19.5 638,-19.5 638,-0.5 588,-0.5"/>
<text text-anchor="middle" x="613" y="-7.5" font-family="Helvetica,sans-Serif" font-size="10.00">chrono</text>
</g>
<!-- Node9&#45;&gt;Node14 -->
<g id="edge15" class="edge"><title>Node9&#45;&gt;Node14</title>
<path fill="none" stroke="midnightblue" d="M466.571,-56.4435C496.792,-47.0645 545.34,-31.9978 578.171,-21.8089"/>
<polygon fill="midnightblue" stroke="midnightblue" points="579.305,-25.1219 587.818,-18.8151 577.23,-18.4364 579.305,-25.1219"/>
</g>
<!-- Node15 -->
<g id="node15" class="node"><title>Node15</title>
<polygon fill="none" stroke="#bfbfbf" points="656,-0.5 656,-19.5 706,-19.5 706,-0.5 656,-0.5"/>
<text text-anchor="middle" x="681" y="-7.5" font-family="Helvetica,sans-Serif" font-size="10.00">atomic</text>
</g>
<!-- Node9&#45;&gt;Node15 -->
<g id="edge16" class="edge"><title>Node9&#45;&gt;Node15</title>
<path fill="none" stroke="midnightblue" d="M481.356,-56.428C521.339,-48.2044 583.201,-35.1422 645.741,-20.2227"/>
<polygon fill="midnightblue" stroke="midnightblue" points="646.875,-23.5502 655.782,-17.8127 645.241,-16.7435 646.875,-23.5502"/>
</g>
</g>
</svg>
