<?xml version="1.0" encoding="UTF-8" standalone="no"?>
<!DOCTYPE svg PUBLIC "-//W3C//DTD SVG 1.1//EN"
 "http://www.w3.org/Graphics/SVG/1.1/DTD/svg11.dtd">
<!-- Generated by graphviz version 2.38.0 (20140413.2041)
 -->
<!-- Title: /home/travis/build/ADVRHumanoids/ROSEndEffector/src/GraspingActions/ActionComposed.cpp Pages: 1 -->
<svg width="824pt" height="363pt"
 viewBox="0.00 0.00 823.93 363.00" xmlns="http://www.w3.org/2000/svg" xmlns:xlink="http://www.w3.org/1999/xlink">
<g id="graph0" class="graph" transform="scale(1 1) rotate(0) translate(4 359)">
<title>/home/travis/build/ADVRHumanoids/ROSEndEffector/src/GraspingActions/ActionComposed.cpp</title>
<!-- Node1 -->
<g id="node1" class="node"><title>Node1</title>
<polygon fill="#bfbfbf" stroke="black" points="20.9265,-313.5 20.9265,-354.5 240.926,-354.5 240.926,-313.5 20.9265,-313.5"/>
<text text-anchor="start" x="28.9265" y="-342.5" font-family="Helvetica,sans-Serif" font-size="10.00">/home/travis/build</text>
<text text-anchor="start" x="28.9265" y="-331.5" font-family="Helvetica,sans-Serif" font-size="10.00">/ADVRHumanoids/ROSEndEffector</text>
<text text-anchor="middle" x="130.926" y="-320.5" font-family="Helvetica,sans-Serif" font-size="10.00">/src/GraspingActions/ActionComposed.cpp</text>
</g>
<!-- Node2 -->
<g id="node2" class="node"><title>Node2</title>
<g id="a_node2"><a xlink:href="ActionComposed_8h.html" target="_top" xlink:title="end_effector/GraspingActions\l/ActionComposed.h">
<polygon fill="none" stroke="black" points="51.9265,-246.5 51.9265,-276.5 209.926,-276.5 209.926,-246.5 51.9265,-246.5"/>
<text text-anchor="start" x="59.9265" y="-264.5" font-family="Helvetica,sans-Serif" font-size="10.00">end_effector/GraspingActions</text>
<text text-anchor="middle" x="130.926" y="-253.5" font-family="Helvetica,sans-Serif" font-size="10.00">/ActionComposed.h</text>
</a>
</g>
</g>
<!-- Node1&#45;&gt;Node2 -->
<g id="edge1" class="edge"><title>Node1&#45;&gt;Node2</title>
<path fill="none" stroke="midnightblue" d="M130.926,-313.362C130.926,-305.226 130.926,-295.7 130.926,-287.105"/>
<polygon fill="midnightblue" stroke="midnightblue" points="134.427,-286.892 130.926,-276.892 127.427,-286.892 134.427,-286.892"/>
</g>
<!-- Node3 -->
<g id="node3" class="node"><title>Node3</title>
<polygon fill="none" stroke="#bfbfbf" points="24.4265,-56.5 24.4265,-75.5 71.4265,-75.5 71.4265,-56.5 24.4265,-56.5"/>
<text text-anchor="middle" x="47.9265" y="-63.5" font-family="Helvetica,sans-Serif" font-size="10.00">vector</text>
</g>
<!-- Node2&#45;&gt;Node3 -->
<g id="edge2" class="edge"><title>Node2&#45;&gt;Node3</title>
<path fill="none" stroke="midnightblue" d="M124.823,-246.271C109.972,-211.648 71.9709,-123.055 55.6092,-84.911"/>
<polygon fill="midnightblue" stroke="midnightblue" points="58.7641,-83.3874 51.6054,-75.5769 52.331,-86.1469 58.7641,-83.3874"/>
</g>
<!-- Node4 -->
<g id="node4" class="node"><title>Node4</title>
<polygon fill="none" stroke="#bfbfbf" points="89.9265,-56.5 89.9265,-75.5 133.926,-75.5 133.926,-56.5 89.9265,-56.5"/>
<text text-anchor="middle" x="111.926" y="-63.5" font-family="Helvetica,sans-Serif" font-size="10.00">string</text>
</g>
<!-- Node2&#45;&gt;Node4 -->
<g id="edge3" class="edge"><title>Node2&#45;&gt;Node4</title>
<path fill="none" stroke="midnightblue" d="M129.529,-246.271C126.159,-211.944 117.579,-124.566 113.782,-85.9001"/>
<polygon fill="midnightblue" stroke="midnightblue" points="117.229,-85.187 112.769,-75.5769 110.263,-85.8711 117.229,-85.187"/>
</g>
<!-- Node5 -->
<g id="node5" class="node"><title>Node5</title>
<g id="a_node5"><a xlink:href="ActionGeneric_8h.html" target="_top" xlink:title="end_effector/GraspingActions\l/ActionGeneric.h">
<polygon fill="none" stroke="black" points="202.926,-179.5 202.926,-209.5 360.926,-209.5 360.926,-179.5 202.926,-179.5"/>
<text text-anchor="start" x="210.926" y="-197.5" font-family="Helvetica,sans-Serif" font-size="10.00">end_effector/GraspingActions</text>
<text text-anchor="middle" x="281.926" y="-186.5" font-family="Helvetica,sans-Serif" font-size="10.00">/ActionGeneric.h</text>
</a>
</g>
</g>
<!-- Node2&#45;&gt;Node5 -->
<g id="edge4" class="edge"><title>Node2&#45;&gt;Node5</title>
<path fill="none" stroke="midnightblue" d="M163.691,-246.396C186.051,-236.771 215.867,-223.936 239.963,-213.564"/>
<polygon fill="midnightblue" stroke="midnightblue" points="241.424,-216.745 249.226,-209.577 238.657,-210.316 241.424,-216.745"/>
</g>
<!-- Node8 -->
<g id="node8" class="node"><title>Node8</title>
<polygon fill="none" stroke="#bfbfbf" points="151.926,-56.5 151.926,-75.5 247.926,-75.5 247.926,-56.5 151.926,-56.5"/>
<text text-anchor="middle" x="199.926" y="-63.5" font-family="Helvetica,sans-Serif" font-size="10.00">yaml&#45;cpp/yaml.h</text>
</g>
<!-- Node2&#45;&gt;Node8 -->
<g id="edge24" class="edge"><title>Node2&#45;&gt;Node8</title>
<path fill="none" stroke="midnightblue" d="M136,-246.271C148.294,-211.796 179.668,-123.812 193.364,-85.4028"/>
<polygon fill="midnightblue" stroke="midnightblue" points="196.806,-86.1716 196.868,-75.5769 190.213,-83.8204 196.806,-86.1716"/>
</g>
<!-- Node9 -->
<g id="node9" class="node"><title>Node9</title>
<polygon fill="none" stroke="#bfbfbf" points="207.426,-0.5 207.426,-19.5 264.426,-19.5 264.426,-0.5 207.426,-0.5"/>
<text text-anchor="middle" x="235.926" y="-7.5" font-family="Helvetica,sans-Serif" font-size="10.00">memory</text>
</g>
<!-- Node2&#45;&gt;Node9 -->
<g id="edge25" class="edge"><title>Node2&#45;&gt;Node9</title>
<path fill="none" stroke="midnightblue" d="M111.661,-246.342C66.6734,-211.608 -37.6232,-120.328 14.9265,-56 37.4885,-28.3809 139.841,-17.2827 197.007,-13.1783"/>
<polygon fill="midnightblue" stroke="midnightblue" points="197.386,-16.6607 207.126,-12.4909 196.912,-9.6768 197.386,-16.6607"/>
</g>
<!-- Node11 -->
<g id="node11" class="node"><title>Node11</title>
<g id="a_node11"><a xlink:href="Utils_8h.html" target="_top" xlink:title="end_effector/Utils.h">
<polygon fill="none" stroke="black" points="397.926,-56.5 397.926,-75.5 507.926,-75.5 507.926,-56.5 397.926,-56.5"/>
<text text-anchor="middle" x="452.926" y="-63.5" font-family="Helvetica,sans-Serif" font-size="10.00">end_effector/Utils.h</text>
</a>
</g>
</g>
<!-- Node2&#45;&gt;Node11 -->
<g id="edge23" class="edge"><title>Node2&#45;&gt;Node11</title>
<path fill="none" stroke="midnightblue" d="M210.142,-257.645C259.381,-252.661 322.174,-240.218 369.926,-210 415.709,-181.028 439.1,-117.043 448.23,-85.4239"/>
<polygon fill="midnightblue" stroke="midnightblue" points="451.628,-86.2683 450.879,-75.7 444.874,-84.4289 451.628,-86.2683"/>
</g>
<!-- Node6 -->
<g id="node6" class="node"><title>Node6</title>
<g id="a_node6"><a xlink:href="Action_8h.html" target="_top" xlink:title="end_effector/GraspingActions\l/Action.h">
<polygon fill="none" stroke="black" points="224.926,-112.5 224.926,-142.5 382.926,-142.5 382.926,-112.5 224.926,-112.5"/>
<text text-anchor="start" x="232.926" y="-130.5" font-family="Helvetica,sans-Serif" font-size="10.00">end_effector/GraspingActions</text>
<text text-anchor="middle" x="303.926" y="-119.5" font-family="Helvetica,sans-Serif" font-size="10.00">/Action.h</text>
</a>
</g>
</g>
<!-- Node5&#45;&gt;Node6 -->
<g id="edge5" class="edge"><title>Node5&#45;&gt;Node6</title>
<path fill="none" stroke="midnightblue" d="M286.7,-179.396C289.381,-171.474 292.798,-161.379 295.881,-152.271"/>
<polygon fill="midnightblue" stroke="midnightblue" points="299.271,-153.171 299.162,-142.577 292.641,-150.927 299.271,-153.171"/>
</g>
<!-- Node5&#45;&gt;Node8 -->
<g id="edge21" class="edge"><title>Node5&#45;&gt;Node8</title>
<path fill="none" stroke="midnightblue" d="M255.323,-179.346C241.507,-170.653 225.546,-158.255 215.926,-143 205.047,-125.746 201.438,-102.344 200.306,-86.0854"/>
<polygon fill="midnightblue" stroke="midnightblue" points="203.786,-85.5367 199.852,-75.6995 196.793,-85.8431 203.786,-85.5367"/>
</g>
<!-- Node5&#45;&gt;Node11 -->
<g id="edge22" class="edge"><title>Node5&#45;&gt;Node11</title>
<path fill="none" stroke="midnightblue" d="M324.175,-179.436C345.782,-170.975 371.712,-158.767 391.926,-143 413.115,-126.473 431.492,-101.199 442.391,-84.3937"/>
<polygon fill="midnightblue" stroke="midnightblue" points="445.554,-85.9376 447.908,-75.6076 439.626,-82.215 445.554,-85.9376"/>
</g>
<!-- Node6&#45;&gt;Node3 -->
<g id="edge6" class="edge"><title>Node6&#45;&gt;Node3</title>
<path fill="none" stroke="midnightblue" d="M238.372,-112.442C196.196,-103.214 139.993,-90.5805 81.4791,-76.056"/>
<polygon fill="midnightblue" stroke="midnightblue" points="82.237,-72.6379 71.6871,-73.6129 80.5424,-79.4297 82.237,-72.6379"/>
</g>
<!-- Node6&#45;&gt;Node4 -->
<g id="edge7" class="edge"><title>Node6&#45;&gt;Node4</title>
<path fill="none" stroke="midnightblue" d="M258.425,-112.399C223.156,-101.47 175.175,-86.6004 143.884,-76.9034"/>
<polygon fill="midnightblue" stroke="midnightblue" points="144.542,-73.4433 133.954,-73.8263 142.47,-80.1296 144.542,-73.4433"/>
</g>
<!-- Node7 -->
<g id="node7" class="node"><title>Node7</title>
<polygon fill="none" stroke="#bfbfbf" points="265.926,-56.5 265.926,-75.5 303.926,-75.5 303.926,-56.5 265.926,-56.5"/>
<text text-anchor="middle" x="284.926" y="-63.5" font-family="Helvetica,sans-Serif" font-size="10.00">map</text>
</g>
<!-- Node6&#45;&gt;Node7 -->
<g id="edge8" class="edge"><title>Node6&#45;&gt;Node7</title>
<path fill="none" stroke="midnightblue" d="M299.424,-112.399C296.834,-104.288 293.551,-94.0071 290.764,-85.2807"/>
<polygon fill="midnightblue" stroke="midnightblue" points="294.067,-84.1192 287.691,-75.6578 287.399,-86.2486 294.067,-84.1192"/>
</g>
<!-- Node6&#45;&gt;Node8 -->
<g id="edge9" class="edge"><title>Node6&#45;&gt;Node8</title>
<path fill="none" stroke="midnightblue" d="M279.28,-112.399C262.61,-102.862 240.696,-90.3248 224.121,-80.8422"/>
<polygon fill="midnightblue" stroke="midnightblue" points="225.477,-77.5858 215.059,-75.6578 222.001,-83.6617 225.477,-77.5858"/>
</g>
<!-- Node6&#45;&gt;Node9 -->
<g id="edge10" class="edge"><title>Node6&#45;&gt;Node9</title>
<path fill="none" stroke="midnightblue" d="M310.59,-112.254C316.551,-97.2559 322.937,-73.4444 312.926,-56 304.311,-40.9862 288.536,-30.5036 273.497,-23.4579"/>
<polygon fill="midnightblue" stroke="midnightblue" points="274.868,-20.2378 264.299,-19.5053 272.105,-26.6691 274.868,-20.2378"/>
</g>
<!-- Node10 -->
<g id="node10" class="node"><title>Node10</title>
<polygon fill="none" stroke="#bfbfbf" points="282.426,-0.5 282.426,-19.5 341.426,-19.5 341.426,-0.5 282.426,-0.5"/>
<text text-anchor="middle" x="311.926" y="-7.5" font-family="Helvetica,sans-Serif" font-size="10.00">iostream</text>
</g>
<!-- Node6&#45;&gt;Node10 -->
<g id="edge11" class="edge"><title>Node6&#45;&gt;Node10</title>
<path fill="none" stroke="midnightblue" d="M320.341,-112.397C329.803,-103.14 340.809,-90.1558 345.926,-76 352.177,-58.7086 340.564,-40.247 329.247,-27.4348"/>
<polygon fill="midnightblue" stroke="midnightblue" points="331.485,-24.7101 322.045,-19.9002 326.425,-29.5472 331.485,-24.7101"/>
</g>
<!-- Node6&#45;&gt;Node11 -->
<g id="edge12" class="edge"><title>Node6&#45;&gt;Node11</title>
<path fill="none" stroke="midnightblue" d="M339.237,-112.399C364.349,-102.372 397.764,-89.028 421.862,-79.405"/>
<polygon fill="midnightblue" stroke="midnightblue" points="423.257,-82.6168 431.246,-75.6578 420.661,-76.1159 423.257,-82.6168"/>
</g>
<!-- Node11&#45;&gt;Node9 -->
<g id="edge14" class="edge"><title>Node11&#45;&gt;Node9</title>
<path fill="none" stroke="midnightblue" d="M418.542,-56.4435C379.321,-46.6835 315.35,-30.7643 274.472,-20.5919"/>
<polygon fill="midnightblue" stroke="midnightblue" points="275.155,-17.1553 264.606,-18.1368 273.465,-23.9481 275.155,-17.1553"/>
</g>
<!-- Node11&#45;&gt;Node10 -->
<g id="edge15" class="edge"><title>Node11&#45;&gt;Node10</title>
<path fill="none" stroke="midnightblue" d="M430.585,-56.4435C407.174,-47.4776 370.191,-33.314 343.737,-23.1827"/>
<polygon fill="midnightblue" stroke="midnightblue" points="344.754,-19.8245 334.164,-19.5164 342.251,-26.3615 344.754,-19.8245"/>
</g>
<!-- Node12 -->
<g id="node12" class="node"><title>Node12</title>
<polygon fill="none" stroke="#bfbfbf" points="496.426,-0.5 496.426,-19.5 543.426,-19.5 543.426,-0.5 496.426,-0.5"/>
<text text-anchor="middle" x="519.926" y="-7.5" font-family="Helvetica,sans-Serif" font-size="10.00">cmath</text>
</g>
<!-- Node11&#45;&gt;Node12 -->
<g id="edge13" class="edge"><title>Node11&#45;&gt;Node12</title>
<path fill="none" stroke="midnightblue" d="M463.691,-56.324C473.693,-48.2631 488.813,-36.0765 500.857,-26.3695"/>
<polygon fill="midnightblue" stroke="midnightblue" points="503.376,-28.8343 508.966,-19.8339 498.984,-23.3841 503.376,-28.8343"/>
</g>
<!-- Node13 -->
<g id="node13" class="node"><title>Node13</title>
<polygon fill="none" stroke="#bfbfbf" points="561.926,-0.5 561.926,-19.5 609.926,-19.5 609.926,-0.5 561.926,-0.5"/>
<text text-anchor="middle" x="585.926" y="-7.5" font-family="Helvetica,sans-Serif" font-size="10.00">dlfcn.h</text>
</g>
<!-- Node11&#45;&gt;Node13 -->
<g id="edge16" class="edge"><title>Node11&#45;&gt;Node13</title>
<path fill="none" stroke="midnightblue" d="M474.001,-56.4435C495.986,-47.5171 530.661,-33.4387 555.591,-23.3168"/>
<polygon fill="midnightblue" stroke="midnightblue" points="557.002,-26.5213 564.951,-19.5164 554.369,-20.0355 557.002,-26.5213"/>
</g>
<!-- Node14 -->
<g id="node14" class="node"><title>Node14</title>
<polygon fill="none" stroke="#bfbfbf" points="627.926,-0.5 627.926,-19.5 743.926,-19.5 743.926,-0.5 627.926,-0.5"/>
<text text-anchor="middle" x="685.926" y="-7.5" font-family="Helvetica,sans-Serif" font-size="10.00">boost/filesystem.hpp</text>
</g>
<!-- Node11&#45;&gt;Node14 -->
<g id="edge17" class="edge"><title>Node11&#45;&gt;Node14</title>
<path fill="none" stroke="midnightblue" d="M489.846,-56.4435C530.322,-47.0629 595.347,-31.9926 639.311,-21.8036"/>
<polygon fill="midnightblue" stroke="midnightblue" points="640.228,-25.1839 649.18,-19.5164 638.648,-18.3646 640.228,-25.1839"/>
</g>
<!-- Node15 -->
<g id="node15" class="node"><title>Node15</title>
<polygon fill="none" stroke="#bfbfbf" points="761.926,-0.5 761.926,-19.5 815.926,-19.5 815.926,-0.5 761.926,-0.5"/>
<text text-anchor="middle" x="788.926" y="-7.5" font-family="Helvetica,sans-Serif" font-size="10.00">fstream</text>
</g>
<!-- Node11&#45;&gt;Node15 -->
<g id="edge18" class="edge"><title>Node11&#45;&gt;Node15</title>
<path fill="none" stroke="midnightblue" d="M507.944,-58.3598C566.198,-50.9678 661.008,-37.9105 751.94,-20.0352"/>
<polygon fill="midnightblue" stroke="midnightblue" points="752.737,-23.4453 761.863,-18.0621 751.372,-16.5797 752.737,-23.4453"/>
</g>
<!-- Node16 -->
<g id="node16" class="node"><title>Node16</title>
<polygon fill="none" stroke="#bfbfbf" points="359.926,-0.5 359.926,-19.5 409.926,-19.5 409.926,-0.5 359.926,-0.5"/>
<text text-anchor="middle" x="384.926" y="-7.5" font-family="Helvetica,sans-Serif" font-size="10.00">chrono</text>
</g>
<!-- Node11&#45;&gt;Node16 -->
<g id="edge19" class="edge"><title>Node11&#45;&gt;Node16</title>
<path fill="none" stroke="midnightblue" d="M442.001,-56.324C431.752,-48.1849 416.206,-35.8395 403.925,-26.0874"/>
<polygon fill="midnightblue" stroke="midnightblue" points="406.058,-23.3119 396.051,-19.8339 401.705,-28.7937 406.058,-23.3119"/>
</g>
<!-- Node17 -->
<g id="node17" class="node"><title>Node17</title>
<polygon fill="none" stroke="#bfbfbf" points="427.926,-0.5 427.926,-19.5 477.926,-19.5 477.926,-0.5 427.926,-0.5"/>
<text text-anchor="middle" x="452.926" y="-7.5" font-family="Helvetica,sans-Serif" font-size="10.00">atomic</text>
</g>
<!-- Node11&#45;&gt;Node17 -->
<g id="edge20" class="edge"><title>Node11&#45;&gt;Node17</title>
<path fill="none" stroke="midnightblue" d="M452.926,-56.083C452.926,-49.0059 452.926,-38.8611 452.926,-29.9865"/>
<polygon fill="midnightblue" stroke="midnightblue" points="456.427,-29.751 452.926,-19.7511 449.427,-29.7511 456.427,-29.751"/>
</g>
</g>
</svg>
