<?xml version="1.0" encoding="UTF-8" standalone="no"?>
<!DOCTYPE svg PUBLIC "-//W3C//DTD SVG 1.1//EN"
 "http://www.w3.org/Graphics/SVG/1.1/DTD/svg11.dtd">
<!-- Generated by graphviz version 2.38.0 (20140413.2041)
 -->
<!-- Title: /home/travis/build/ADVRHumanoids/ROSEndEffector/include/end_effector/GraspingActions/ActionPinchGeneric.h Pages: 1 -->
<svg width="1092pt" height="562pt"
 viewBox="0.00 0.00 1092.00 562.00" xmlns="http://www.w3.org/2000/svg" xmlns:xlink="http://www.w3.org/1999/xlink">
<g id="graph0" class="graph" transform="scale(1 1) rotate(0) translate(4 558)">
<title>/home/travis/build/ADVRHumanoids/ROSEndEffector/include/end_effector/GraspingActions/ActionPinchGeneric.h</title>
<!-- Node1 -->
<g id="node1" class="node"><title>Node1</title>
<polygon fill="#bfbfbf" stroke="black" points="477,-501.5 477,-553.5 674,-553.5 674,-501.5 477,-501.5"/>
<text text-anchor="start" x="485" y="-541.5" font-family="Helvetica,sans-Serif" font-size="10.00">/home/travis/build</text>
<text text-anchor="start" x="485" y="-530.5" font-family="Helvetica,sans-Serif" font-size="10.00">/ADVRHumanoids/ROSEndEffector</text>
<text text-anchor="start" x="485" y="-519.5" font-family="Helvetica,sans-Serif" font-size="10.00">/include/end_effector/GraspingActions</text>
<text text-anchor="middle" x="575.5" y="-508.5" font-family="Helvetica,sans-Serif" font-size="10.00">/ActionPinchGeneric.h</text>
</g>
<!-- Node2 -->
<g id="node2" class="node"><title>Node2</title>
<g id="a_node2"><a xlink:href="ActionMultiplePinchTight_8h.html" target="_top" xlink:title="/home/travis/build\l/ADVRHumanoids/ROSEndEffector\l/include/end_effector/GraspingActions\l/ActionMultiplePinchTight.h">
<polygon fill="none" stroke="black" points="370,-412.5 370,-464.5 567,-464.5 567,-412.5 370,-412.5"/>
<text text-anchor="start" x="378" y="-452.5" font-family="Helvetica,sans-Serif" font-size="10.00">/home/travis/build</text>
<text text-anchor="start" x="378" y="-441.5" font-family="Helvetica,sans-Serif" font-size="10.00">/ADVRHumanoids/ROSEndEffector</text>
<text text-anchor="start" x="378" y="-430.5" font-family="Helvetica,sans-Serif" font-size="10.00">/include/end_effector/GraspingActions</text>
<text text-anchor="middle" x="468.5" y="-419.5" font-family="Helvetica,sans-Serif" font-size="10.00">/ActionMultiplePinchTight.h</text>
</a>
</g>
</g>
<!-- Node1&#45;&gt;Node2 -->
<g id="edge1" class="edge"><title>Node1&#45;&gt;Node2</title>
<path fill="none" stroke="midnightblue" d="M536.678,-494.934C524.406,-484.956 511.017,-474.07 499.379,-464.607"/>
<polygon fill="midnightblue" stroke="midnightblue" points="534.584,-497.743 544.551,-501.336 539,-492.312 534.584,-497.743"/>
</g>
<!-- Node16 -->
<g id="node16" class="node"><title>Node16</title>
<g id="a_node16"><a xlink:href="ActionPinchLoose_8h.html" target="_top" xlink:title="/home/travis/build\l/ADVRHumanoids/ROSEndEffector\l/include/end_effector/GraspingActions\l/ActionPinchLoose.h">
<polygon fill="none" stroke="black" points="155,-412.5 155,-464.5 352,-464.5 352,-412.5 155,-412.5"/>
<text text-anchor="start" x="163" y="-452.5" font-family="Helvetica,sans-Serif" font-size="10.00">/home/travis/build</text>
<text text-anchor="start" x="163" y="-441.5" font-family="Helvetica,sans-Serif" font-size="10.00">/ADVRHumanoids/ROSEndEffector</text>
<text text-anchor="start" x="163" y="-430.5" font-family="Helvetica,sans-Serif" font-size="10.00">/include/end_effector/GraspingActions</text>
<text text-anchor="middle" x="253.5" y="-419.5" font-family="Helvetica,sans-Serif" font-size="10.00">/ActionPinchLoose.h</text>
</a>
</g>
</g>
<!-- Node1&#45;&gt;Node16 -->
<g id="edge19" class="edge"><title>Node1&#45;&gt;Node16</title>
<path fill="none" stroke="midnightblue" d="M473.116,-498.837C432.372,-487.829 385.828,-475.253 346.107,-464.521"/>
<polygon fill="midnightblue" stroke="midnightblue" points="472.229,-502.223 482.796,-501.453 474.055,-495.465 472.229,-502.223"/>
</g>
<!-- Node18 -->
<g id="node18" class="node"><title>Node18</title>
<g id="a_node18"><a xlink:href="ActionPinchTight_8h.html" target="_top" xlink:title="/home/travis/build\l/ADVRHumanoids/ROSEndEffector\l/include/end_effector/GraspingActions\l/ActionPinchTight.h">
<polygon fill="none" stroke="black" points="585,-412.5 585,-464.5 782,-464.5 782,-412.5 585,-412.5"/>
<text text-anchor="start" x="593" y="-452.5" font-family="Helvetica,sans-Serif" font-size="10.00">/home/travis/build</text>
<text text-anchor="start" x="593" y="-441.5" font-family="Helvetica,sans-Serif" font-size="10.00">/ADVRHumanoids/ROSEndEffector</text>
<text text-anchor="start" x="593" y="-430.5" font-family="Helvetica,sans-Serif" font-size="10.00">/include/end_effector/GraspingActions</text>
<text text-anchor="middle" x="683.5" y="-419.5" font-family="Helvetica,sans-Serif" font-size="10.00">/ActionPinchTight.h</text>
</a>
</g>
</g>
<!-- Node1&#45;&gt;Node18 -->
<g id="edge23" class="edge"><title>Node1&#45;&gt;Node18</title>
<path fill="none" stroke="midnightblue" d="M614.685,-494.934C627.072,-484.956 640.585,-474.07 652.332,-464.607"/>
<polygon fill="midnightblue" stroke="midnightblue" points="612.33,-492.337 606.738,-501.336 616.721,-497.788 612.33,-492.337"/>
</g>
<!-- Node20 -->
<g id="node20" class="node"><title>Node20</title>
<g id="a_node20"><a xlink:href="ActionPinchGeneric_8cpp.html" target="_top" xlink:title="/home/travis/build\l/ADVRHumanoids/ROSEndEffector\l/src/GraspingActions/ActionPinchGeneric.cpp">
<polygon fill="none" stroke="black" points="800.5,-418 800.5,-459 1030.5,-459 1030.5,-418 800.5,-418"/>
<text text-anchor="start" x="808.5" y="-447" font-family="Helvetica,sans-Serif" font-size="10.00">/home/travis/build</text>
<text text-anchor="start" x="808.5" y="-436" font-family="Helvetica,sans-Serif" font-size="10.00">/ADVRHumanoids/ROSEndEffector</text>
<text text-anchor="middle" x="915.5" y="-425" font-family="Helvetica,sans-Serif" font-size="10.00">/src/GraspingActions/ActionPinchGeneric.cpp</text>
</a>
</g>
</g>
<!-- Node1&#45;&gt;Node20 -->
<g id="edge27" class="edge"><title>Node1&#45;&gt;Node20</title>
<path fill="none" stroke="midnightblue" d="M683.389,-498.893C734.002,-485.942 793.132,-470.812 839.044,-459.064"/>
<polygon fill="midnightblue" stroke="midnightblue" points="682.206,-495.583 673.386,-501.453 683.941,-502.364 682.206,-495.583"/>
</g>
<!-- Node3 -->
<g id="node3" class="node"><title>Node3</title>
<g id="a_node3"><a xlink:href="FindActions_8h.html" target="_top" xlink:title="/home/travis/build\l/ADVRHumanoids/ROSEndEffector\l/include/end_effector/FindActions.h">
<polygon fill="none" stroke="black" points="213,-245.5 213,-286.5 396,-286.5 396,-245.5 213,-245.5"/>
<text text-anchor="start" x="221" y="-274.5" font-family="Helvetica,sans-Serif" font-size="10.00">/home/travis/build</text>
<text text-anchor="start" x="221" y="-263.5" font-family="Helvetica,sans-Serif" font-size="10.00">/ADVRHumanoids/ROSEndEffector</text>
<text text-anchor="middle" x="304.5" y="-252.5" font-family="Helvetica,sans-Serif" font-size="10.00">/include/end_effector/FindActions.h</text>
</a>
</g>
</g>
<!-- Node2&#45;&gt;Node3 -->
<g id="edge2" class="edge"><title>Node2&#45;&gt;Node3</title>
<path fill="none" stroke="midnightblue" d="M382.916,-407.712C367.584,-399.339 352.888,-388.892 341.5,-376 318.876,-350.388 309.968,-310.358 306.546,-286.6"/>
<polygon fill="midnightblue" stroke="midnightblue" points="381.506,-410.923 391.997,-412.405 384.72,-404.705 381.506,-410.923"/>
</g>
<!-- Node6 -->
<g id="node6" class="node"><title>Node6</title>
<g id="a_node6"><a xlink:href="YamlWorker_8h.html" target="_top" xlink:title="/home/travis/build\l/ADVRHumanoids/ROSEndEffector\l/include/end_effector/YamlWorker.h">
<polygon fill="none" stroke="black" points="591,-329 591,-370 776,-370 776,-329 591,-329"/>
<text text-anchor="start" x="599" y="-358" font-family="Helvetica,sans-Serif" font-size="10.00">/home/travis/build</text>
<text text-anchor="start" x="599" y="-347" font-family="Helvetica,sans-Serif" font-size="10.00">/ADVRHumanoids/ROSEndEffector</text>
<text text-anchor="middle" x="683.5" y="-336" font-family="Helvetica,sans-Serif" font-size="10.00">/include/end_effector/YamlWorker.h</text>
</a>
</g>
</g>
<!-- Node2&#45;&gt;Node6 -->
<g id="edge5" class="edge"><title>Node2&#45;&gt;Node6</title>
<path fill="none" stroke="midnightblue" d="M539.924,-408.598C571.135,-395.969 606.935,-381.482 634.98,-370.134"/>
<polygon fill="midnightblue" stroke="midnightblue" points="538.355,-405.457 530.398,-412.453 540.981,-411.946 538.355,-405.457"/>
</g>
<!-- Node15 -->
<g id="node15" class="node"><title>Node15</title>
<g id="a_node15"><a xlink:href="ActionMultiplePinchTight_8cpp.html" target="_top" xlink:title="/home/travis/build\l/ADVRHumanoids/ROSEndEffector\l/src/GraspingActions/ActionMultiple\lPinchTight.cpp">
<polygon fill="none" stroke="black" points="351,-323.5 351,-375.5 536,-375.5 536,-323.5 351,-323.5"/>
<text text-anchor="start" x="359" y="-363.5" font-family="Helvetica,sans-Serif" font-size="10.00">/home/travis/build</text>
<text text-anchor="start" x="359" y="-352.5" font-family="Helvetica,sans-Serif" font-size="10.00">/ADVRHumanoids/ROSEndEffector</text>
<text text-anchor="start" x="359" y="-341.5" font-family="Helvetica,sans-Serif" font-size="10.00">/src/GraspingActions/ActionMultiple</text>
<text text-anchor="middle" x="443.5" y="-330.5" font-family="Helvetica,sans-Serif" font-size="10.00">PinchTight.cpp</text>
</a>
</g>
</g>
<!-- Node2&#45;&gt;Node15 -->
<g id="edge18" class="edge"><title>Node2&#45;&gt;Node15</title>
<path fill="none" stroke="midnightblue" d="M458.437,-402.481C455.852,-393.487 453.123,-383.989 450.715,-375.607"/>
<polygon fill="midnightblue" stroke="midnightblue" points="455.143,-403.692 461.269,-412.336 461.871,-401.758 455.143,-403.692"/>
</g>
<!-- Node4 -->
<g id="node4" class="node"><title>Node4</title>
<g id="a_node4"><a xlink:href="FindActions_8cpp.html" target="_top" xlink:title="/home/travis/build\l/ADVRHumanoids/ROSEndEffector\l/src/FindActions.cpp">
<polygon fill="none" stroke="black" points="0,-167.5 0,-208.5 179,-208.5 179,-167.5 0,-167.5"/>
<text text-anchor="start" x="8" y="-196.5" font-family="Helvetica,sans-Serif" font-size="10.00">/home/travis/build</text>
<text text-anchor="start" x="8" y="-185.5" font-family="Helvetica,sans-Serif" font-size="10.00">/ADVRHumanoids/ROSEndEffector</text>
<text text-anchor="middle" x="89.5" y="-174.5" font-family="Helvetica,sans-Serif" font-size="10.00">/src/FindActions.cpp</text>
</a>
</g>
</g>
<!-- Node3&#45;&gt;Node4 -->
<g id="edge3" class="edge"><title>Node3&#45;&gt;Node4</title>
<path fill="none" stroke="midnightblue" d="M239.509,-242.026C209.242,-231.328 173.617,-218.734 144.68,-208.506"/>
<polygon fill="midnightblue" stroke="midnightblue" points="238.537,-245.395 249.132,-245.428 240.87,-238.795 238.537,-245.395"/>
</g>
<!-- Node5 -->
<g id="node5" class="node"><title>Node5</title>
<g id="a_node5"><a xlink:href="UniversalFindActions_8cpp.html" target="_top" xlink:title="/home/travis/build\l/ADVRHumanoids/ROSEndEffector\l/src/UniversalFindActions.cpp">
<polygon fill="none" stroke="black" points="197,-167.5 197,-208.5 376,-208.5 376,-167.5 197,-167.5"/>
<text text-anchor="start" x="205" y="-196.5" font-family="Helvetica,sans-Serif" font-size="10.00">/home/travis/build</text>
<text text-anchor="start" x="205" y="-185.5" font-family="Helvetica,sans-Serif" font-size="10.00">/ADVRHumanoids/ROSEndEffector</text>
<text text-anchor="middle" x="286.5" y="-174.5" font-family="Helvetica,sans-Serif" font-size="10.00">/src/UniversalFindActions.cpp</text>
</a>
</g>
</g>
<!-- Node3&#45;&gt;Node5 -->
<g id="edge4" class="edge"><title>Node3&#45;&gt;Node5</title>
<path fill="none" stroke="midnightblue" d="M297.534,-235.59C295.384,-226.511 293.07,-216.742 291.12,-208.506"/>
<polygon fill="midnightblue" stroke="midnightblue" points="294.154,-236.504 299.865,-245.428 300.966,-234.891 294.154,-236.504"/>
</g>
<!-- Node6&#45;&gt;Node3 -->
<g id="edge6" class="edge"><title>Node6&#45;&gt;Node3</title>
<path fill="none" stroke="midnightblue" d="M593.767,-326.69C588.267,-325.422 582.812,-324.183 577.5,-323 517.288,-309.586 449.335,-295.643 396.287,-285.025"/>
<polygon fill="midnightblue" stroke="midnightblue" points="593.161,-330.142 603.694,-328.996 594.745,-323.324 593.161,-330.142"/>
</g>
<!-- Node7 -->
<g id="node7" class="node"><title>Node7</title>
<g id="a_node7"><a xlink:href="MapActionHandler_8h.html" target="_top" xlink:title="/home/travis/build\l/ADVRHumanoids/ROSEndEffector\l/include/end_effector/MapActionHandler.h">
<polygon fill="none" stroke="black" points="575.5,-245.5 575.5,-286.5 791.5,-286.5 791.5,-245.5 575.5,-245.5"/>
<text text-anchor="start" x="583.5" y="-274.5" font-family="Helvetica,sans-Serif" font-size="10.00">/home/travis/build</text>
<text text-anchor="start" x="583.5" y="-263.5" font-family="Helvetica,sans-Serif" font-size="10.00">/ADVRHumanoids/ROSEndEffector</text>
<text text-anchor="middle" x="683.5" y="-252.5" font-family="Helvetica,sans-Serif" font-size="10.00">/include/end_effector/MapActionHandler.h</text>
</a>
</g>
</g>
<!-- Node6&#45;&gt;Node7 -->
<g id="edge7" class="edge"><title>Node6&#45;&gt;Node7</title>
<path fill="none" stroke="midnightblue" d="M683.5,-318.565C683.5,-307.882 683.5,-296.13 683.5,-286.547"/>
<polygon fill="midnightblue" stroke="midnightblue" points="680,-318.771 683.5,-328.771 687,-318.771 680,-318.771"/>
</g>
<!-- Node9 -->
<g id="node9" class="node"><title>Node9</title>
<g id="a_node9"><a xlink:href="UniversalRosEndEffectorExecutor_8h.html" target="_top" xlink:title="/home/travis/build\l/ADVRHumanoids/ROSEndEffector\l/include/end_effector/UniversalRos\lEndEffectorExecutor.h">
<polygon fill="none" stroke="black" points="748,-78.5 748,-130.5 929,-130.5 929,-78.5 748,-78.5"/>
<text text-anchor="start" x="756" y="-118.5" font-family="Helvetica,sans-Serif" font-size="10.00">/home/travis/build</text>
<text text-anchor="start" x="756" y="-107.5" font-family="Helvetica,sans-Serif" font-size="10.00">/ADVRHumanoids/ROSEndEffector</text>
<text text-anchor="start" x="756" y="-96.5" font-family="Helvetica,sans-Serif" font-size="10.00">/include/end_effector/UniversalRos</text>
<text text-anchor="middle" x="838.5" y="-85.5" font-family="Helvetica,sans-Serif" font-size="10.00">EndEffectorExecutor.h</text>
</a>
</g>
</g>
<!-- Node6&#45;&gt;Node9 -->
<g id="edge16" class="edge"><title>Node6&#45;&gt;Node9</title>
<path fill="none" stroke="midnightblue" d="M745.332,-324.661C764.65,-315.074 784.951,-302.549 800.5,-287 828.193,-259.307 832.115,-247.023 841.5,-209 845.973,-190.877 841.955,-185.661 841.5,-167 841.208,-155.031 840.598,-141.763 840.003,-130.624"/>
<polygon fill="midnightblue" stroke="midnightblue" points="743.768,-321.529 736.251,-328.995 746.783,-327.847 743.768,-321.529"/>
</g>
<!-- Node14 -->
<g id="node14" class="node"><title>Node14</title>
<g id="a_node14"><a xlink:href="YamlWorker_8cpp.html" target="_top" xlink:title="/home/travis/build\l/ADVRHumanoids/ROSEndEffector\l/src/YamlWorker.cpp">
<polygon fill="none" stroke="black" points="905,-245.5 905,-286.5 1084,-286.5 1084,-245.5 905,-245.5"/>
<text text-anchor="start" x="913" y="-274.5" font-family="Helvetica,sans-Serif" font-size="10.00">/home/travis/build</text>
<text text-anchor="start" x="913" y="-263.5" font-family="Helvetica,sans-Serif" font-size="10.00">/ADVRHumanoids/ROSEndEffector</text>
<text text-anchor="middle" x="994.5" y="-252.5" font-family="Helvetica,sans-Serif" font-size="10.00">/src/YamlWorker.cpp</text>
</a>
</g>
</g>
<!-- Node6&#45;&gt;Node14 -->
<g id="edge17" class="edge"><title>Node6&#45;&gt;Node14</title>
<path fill="none" stroke="midnightblue" d="M767.954,-326.368C815.482,-313.913 874.29,-298.502 920.077,-286.503"/>
<polygon fill="midnightblue" stroke="midnightblue" points="766.778,-323.058 757.992,-328.979 768.553,-329.829 766.778,-323.058"/>
</g>
<!-- Node7&#45;&gt;Node5 -->
<g id="edge15" class="edge"><title>Node7&#45;&gt;Node5</title>
<path fill="none" stroke="midnightblue" d="M567.424,-243.566C512.274,-233.285 445.451,-220.688 385.5,-209 382.402,-208.396 379.25,-207.778 376.068,-207.151"/>
<polygon fill="midnightblue" stroke="midnightblue" points="567.11,-247.067 577.582,-245.458 568.392,-240.186 567.11,-247.067"/>
</g>
<!-- Node8 -->
<g id="node8" class="node"><title>Node8</title>
<g id="a_node8"><a xlink:href="RosServiceHandler_8h.html" target="_top" xlink:title="/home/travis/build\l/ADVRHumanoids/ROSEndEffector\l/include/end_effector/RosServiceHandler.h">
<polygon fill="none" stroke="black" points="394.5,-167.5 394.5,-208.5 612.5,-208.5 612.5,-167.5 394.5,-167.5"/>
<text text-anchor="start" x="402.5" y="-196.5" font-family="Helvetica,sans-Serif" font-size="10.00">/home/travis/build</text>
<text text-anchor="start" x="402.5" y="-185.5" font-family="Helvetica,sans-Serif" font-size="10.00">/ADVRHumanoids/ROSEndEffector</text>
<text text-anchor="middle" x="503.5" y="-174.5" font-family="Helvetica,sans-Serif" font-size="10.00">/include/end_effector/RosServiceHandler.h</text>
</a>
</g>
</g>
<!-- Node7&#45;&gt;Node8 -->
<g id="edge8" class="edge"><title>Node7&#45;&gt;Node8</title>
<path fill="none" stroke="midnightblue" d="M627.769,-241.469C602.718,-230.892 573.504,-218.557 549.697,-208.506"/>
<polygon fill="midnightblue" stroke="midnightblue" points="626.572,-244.763 637.146,-245.428 629.294,-238.314 626.572,-244.763"/>
</g>
<!-- Node7&#45;&gt;Node9 -->
<g id="edge13" class="edge"><title>Node7&#45;&gt;Node9</title>
<path fill="none" stroke="midnightblue" d="M775.354,-241.363C791.712,-233.447 807.133,-222.936 818.5,-209 836.43,-187.018 839.98,-153.713 839.99,-130.854"/>
<polygon fill="midnightblue" stroke="midnightblue" points="773.864,-238.195 766.189,-245.498 776.744,-244.575 773.864,-238.195"/>
</g>
<!-- Node13 -->
<g id="node13" class="node"><title>Node13</title>
<g id="a_node13"><a xlink:href="MapActionHandler_8cpp.html" target="_top" xlink:title="/home/travis/build\l/ADVRHumanoids/ROSEndEffector\l/src/MapActionHandler.cpp">
<polygon fill="none" stroke="black" points="631,-167.5 631,-208.5 810,-208.5 810,-167.5 631,-167.5"/>
<text text-anchor="start" x="639" y="-196.5" font-family="Helvetica,sans-Serif" font-size="10.00">/home/travis/build</text>
<text text-anchor="start" x="639" y="-185.5" font-family="Helvetica,sans-Serif" font-size="10.00">/ADVRHumanoids/ROSEndEffector</text>
<text text-anchor="middle" x="720.5" y="-174.5" font-family="Helvetica,sans-Serif" font-size="10.00">/src/MapActionHandler.cpp</text>
</a>
</g>
</g>
<!-- Node7&#45;&gt;Node13 -->
<g id="edge14" class="edge"><title>Node7&#45;&gt;Node13</title>
<path fill="none" stroke="midnightblue" d="M697.534,-236.174C702.033,-226.932 706.908,-216.919 711.004,-208.506"/>
<polygon fill="midnightblue" stroke="midnightblue" points="694.259,-234.905 693.028,-245.428 700.553,-237.969 694.259,-234.905"/>
</g>
<!-- Node8&#45;&gt;Node9 -->
<g id="edge9" class="edge"><title>Node8&#45;&gt;Node9</title>
<path fill="none" stroke="midnightblue" d="M593.472,-165.111C641.337,-153.467 700.038,-139.185 747.985,-127.521"/>
<polygon fill="midnightblue" stroke="midnightblue" points="592.63,-161.714 583.741,-167.479 594.285,-168.516 592.63,-161.714"/>
</g>
<!-- Node12 -->
<g id="node12" class="node"><title>Node12</title>
<g id="a_node12"><a xlink:href="RosServiceHandler_8cpp.html" target="_top" xlink:title="/home/travis/build\l/ADVRHumanoids/ROSEndEffector\l/src/RosServiceHandler.cpp">
<polygon fill="none" stroke="black" points="414,-84 414,-125 593,-125 593,-84 414,-84"/>
<text text-anchor="start" x="422" y="-113" font-family="Helvetica,sans-Serif" font-size="10.00">/home/travis/build</text>
<text text-anchor="start" x="422" y="-102" font-family="Helvetica,sans-Serif" font-size="10.00">/ADVRHumanoids/ROSEndEffector</text>
<text text-anchor="middle" x="503.5" y="-91" font-family="Helvetica,sans-Serif" font-size="10.00">/src/RosServiceHandler.cpp</text>
</a>
</g>
</g>
<!-- Node8&#45;&gt;Node12 -->
<g id="edge12" class="edge"><title>Node8&#45;&gt;Node12</title>
<path fill="none" stroke="midnightblue" d="M503.5,-157.065C503.5,-146.382 503.5,-134.63 503.5,-125.047"/>
<polygon fill="midnightblue" stroke="midnightblue" points="500,-157.271 503.5,-167.271 507,-157.271 500,-157.271"/>
</g>
<!-- Node10 -->
<g id="node10" class="node"><title>Node10</title>
<g id="a_node10"><a xlink:href="UniversalRosEndEffector_8cpp.html" target="_top" xlink:title="/home/travis/build\l/ADVRHumanoids/ROSEndEffector\l/src/UniversalRosEndEffector.cpp">
<polygon fill="none" stroke="black" points="642,-0.5 642,-41.5 821,-41.5 821,-0.5 642,-0.5"/>
<text text-anchor="start" x="650" y="-29.5" font-family="Helvetica,sans-Serif" font-size="10.00">/home/travis/build</text>
<text text-anchor="start" x="650" y="-18.5" font-family="Helvetica,sans-Serif" font-size="10.00">/ADVRHumanoids/ROSEndEffector</text>
<text text-anchor="middle" x="731.5" y="-7.5" font-family="Helvetica,sans-Serif" font-size="10.00">/src/UniversalRosEndEffector.cpp</text>
</a>
</g>
</g>
<!-- Node9&#45;&gt;Node10 -->
<g id="edge10" class="edge"><title>Node9&#45;&gt;Node10</title>
<path fill="none" stroke="midnightblue" d="M797.338,-72.1475C783.912,-61.921 769.389,-50.8594 757.408,-41.7338"/>
<polygon fill="midnightblue" stroke="midnightblue" points="795.447,-75.1073 805.523,-78.3823 799.689,-69.5386 795.447,-75.1073"/>
</g>
<!-- Node11 -->
<g id="node11" class="node"><title>Node11</title>
<g id="a_node11"><a xlink:href="UniversalRosEndEffectorExecutor_8cpp.html" target="_top" xlink:title="/home/travis/build\l/ADVRHumanoids/ROSEndEffector\l/src/UniversalRosEndEffectorExecutor.cpp">
<polygon fill="none" stroke="black" points="839,-0.5 839,-41.5 1054,-41.5 1054,-0.5 839,-0.5"/>
<text text-anchor="start" x="847" y="-29.5" font-family="Helvetica,sans-Serif" font-size="10.00">/home/travis/build</text>
<text text-anchor="start" x="847" y="-18.5" font-family="Helvetica,sans-Serif" font-size="10.00">/ADVRHumanoids/ROSEndEffector</text>
<text text-anchor="middle" x="946.5" y="-7.5" font-family="Helvetica,sans-Serif" font-size="10.00">/src/UniversalRosEndEffectorExecutor.cpp</text>
</a>
</g>
</g>
<!-- Node9&#45;&gt;Node11 -->
<g id="edge11" class="edge"><title>Node9&#45;&gt;Node11</title>
<path fill="none" stroke="midnightblue" d="M880.047,-72.1475C893.599,-61.921 908.257,-50.8594 920.35,-41.7338"/>
<polygon fill="midnightblue" stroke="midnightblue" points="877.659,-69.5648 871.785,-78.3823 881.875,-75.1524 877.659,-69.5648"/>
</g>
<!-- Node16&#45;&gt;Node3 -->
<g id="edge20" class="edge"><title>Node16&#45;&gt;Node3</title>
<path fill="none" stroke="midnightblue" d="M263.959,-402.535C274.425,-367.544 290.153,-314.964 298.613,-286.681"/>
<polygon fill="midnightblue" stroke="midnightblue" points="260.538,-401.759 261.025,-412.342 267.244,-403.765 260.538,-401.759"/>
</g>
<!-- Node16&#45;&gt;Node6 -->
<g id="edge21" class="edge"><title>Node16&#45;&gt;Node6</title>
<path fill="none" stroke="midnightblue" d="M362.188,-411.688C416.471,-400.344 516.441,-381.512 590.999,-367.624"/>
<polygon fill="midnightblue" stroke="midnightblue" points="361.339,-408.29 352.28,-413.785 362.788,-415.138 361.339,-408.29"/>
</g>
<!-- Node17 -->
<g id="node17" class="node"><title>Node17</title>
<g id="a_node17"><a xlink:href="ActionPinchLoose_8cpp.html" target="_top" xlink:title="/home/travis/build\l/ADVRHumanoids/ROSEndEffector\l/src/GraspingActions/ActionPinchLoose.cpp">
<polygon fill="none" stroke="black" points="35.5,-329 35.5,-370 257.5,-370 257.5,-329 35.5,-329"/>
<text text-anchor="start" x="43.5" y="-358" font-family="Helvetica,sans-Serif" font-size="10.00">/home/travis/build</text>
<text text-anchor="start" x="43.5" y="-347" font-family="Helvetica,sans-Serif" font-size="10.00">/ADVRHumanoids/ROSEndEffector</text>
<text text-anchor="middle" x="146.5" y="-336" font-family="Helvetica,sans-Serif" font-size="10.00">/src/GraspingActions/ActionPinchLoose.cpp</text>
</a>
</g>
</g>
<!-- Node16&#45;&gt;Node17 -->
<g id="edge22" class="edge"><title>Node16&#45;&gt;Node17</title>
<path fill="none" stroke="midnightblue" d="M214.571,-405.847C199.855,-393.882 183.548,-380.623 170.584,-370.082"/>
<polygon fill="midnightblue" stroke="midnightblue" points="212.584,-408.743 222.551,-412.336 217,-403.312 212.584,-408.743"/>
</g>
<!-- Node18&#45;&gt;Node3 -->
<g id="edge24" class="edge"><title>Node18&#45;&gt;Node3</title>
<path fill="none" stroke="midnightblue" d="M623.98,-407.321C609.228,-398.355 594.061,-387.748 581.5,-376 560.519,-356.377 568.286,-339.109 544.5,-323 500.926,-293.49 443.82,-279.41 396.244,-272.744"/>
<polygon fill="midnightblue" stroke="midnightblue" points="622.205,-410.337 632.596,-412.407 625.764,-404.309 622.205,-410.337"/>
</g>
<!-- Node18&#45;&gt;Node6 -->
<g id="edge25" class="edge"><title>Node18&#45;&gt;Node6</title>
<path fill="none" stroke="midnightblue" d="M683.5,-402.155C683.5,-391.21 683.5,-379.549 683.5,-370.082"/>
<polygon fill="midnightblue" stroke="midnightblue" points="680,-402.336 683.5,-412.336 687,-402.336 680,-402.336"/>
</g>
<!-- Node19 -->
<g id="node19" class="node"><title>Node19</title>
<g id="a_node19"><a xlink:href="ActionPinchTight_8cpp.html" target="_top" xlink:title="/home/travis/build\l/ADVRHumanoids/ROSEndEffector\l/src/GraspingActions/ActionPinchTight.cpp">
<polygon fill="none" stroke="black" points="794,-329 794,-370 1011,-370 1011,-329 794,-329"/>
<text text-anchor="start" x="802" y="-358" font-family="Helvetica,sans-Serif" font-size="10.00">/home/travis/build</text>
<text text-anchor="start" x="802" y="-347" font-family="Helvetica,sans-Serif" font-size="10.00">/ADVRHumanoids/ROSEndEffector</text>
<text text-anchor="middle" x="902.5" y="-336" font-family="Helvetica,sans-Serif" font-size="10.00">/src/GraspingActions/ActionPinchTight.cpp</text>
</a>
</g>
</g>
<!-- Node18&#45;&gt;Node19 -->
<g id="edge26" class="edge"><title>Node18&#45;&gt;Node19</title>
<path fill="none" stroke="midnightblue" d="M756.252,-408.598C788.044,-395.969 824.511,-381.482 853.077,-370.134"/>
<polygon fill="midnightblue" stroke="midnightblue" points="754.551,-405.508 746.55,-412.453 757.136,-412.013 754.551,-405.508"/>
</g>
</g>
</svg>
