<?xml version="1.0" encoding="UTF-8" standalone="no"?>
<!DOCTYPE svg PUBLIC "-//W3C//DTD SVG 1.1//EN"
 "http://www.w3.org/Graphics/SVG/1.1/DTD/svg11.dtd">
<!-- Generated by graphviz version 2.38.0 (20140413.2041)
 -->
<!-- Title: /home/travis/build/ADVRHumanoids/ROSEndEffector/include/end_effector/GraspingActions/ActionGeneric.h Pages: 1 -->
<svg width="999pt" height="551pt"
 viewBox="0.00 0.00 998.82 551.00" xmlns="http://www.w3.org/2000/svg" xmlns:xlink="http://www.w3.org/1999/xlink">
<g id="graph0" class="graph" transform="scale(1 1) rotate(0) translate(4 547)">
<title>/home/travis/build/ADVRHumanoids/ROSEndEffector/include/end_effector/GraspingActions/ActionGeneric.h</title>
<!-- Node1 -->
<g id="node1" class="node"><title>Node1</title>
<polygon fill="#bfbfbf" stroke="black" points="449.32,-490.5 449.32,-542.5 646.32,-542.5 646.32,-490.5 449.32,-490.5"/>
<text text-anchor="start" x="457.32" y="-530.5" font-family="Helvetica,sans-Serif" font-size="10.00">/home/travis/build</text>
<text text-anchor="start" x="457.32" y="-519.5" font-family="Helvetica,sans-Serif" font-size="10.00">/ADVRHumanoids/ROSEndEffector</text>
<text text-anchor="start" x="457.32" y="-508.5" font-family="Helvetica,sans-Serif" font-size="10.00">/include/end_effector/GraspingActions</text>
<text text-anchor="middle" x="547.82" y="-497.5" font-family="Helvetica,sans-Serif" font-size="10.00">/ActionGeneric.h</text>
</g>
<!-- Node2 -->
<g id="node2" class="node"><title>Node2</title>
<g id="a_node2"><a xlink:href="ActionComposed_8h.html" target="_top" xlink:title="/home/travis/build\l/ADVRHumanoids/ROSEndEffector\l/include/end_effector/GraspingActions\l/ActionComposed.h">
<polygon fill="none" stroke="black" points="254.32,-401.5 254.32,-453.5 451.32,-453.5 451.32,-401.5 254.32,-401.5"/>
<text text-anchor="start" x="262.32" y="-441.5" font-family="Helvetica,sans-Serif" font-size="10.00">/home/travis/build</text>
<text text-anchor="start" x="262.32" y="-430.5" font-family="Helvetica,sans-Serif" font-size="10.00">/ADVRHumanoids/ROSEndEffector</text>
<text text-anchor="start" x="262.32" y="-419.5" font-family="Helvetica,sans-Serif" font-size="10.00">/include/end_effector/GraspingActions</text>
<text text-anchor="middle" x="352.82" y="-408.5" font-family="Helvetica,sans-Serif" font-size="10.00">/ActionComposed.h</text>
</a>
</g>
</g>
<!-- Node1&#45;&gt;Node2 -->
<g id="edge1" class="edge"><title>Node1&#45;&gt;Node2</title>
<path fill="none" stroke="midnightblue" d="M482.36,-486.295C458.536,-475.665 431.84,-463.755 408.902,-453.521"/>
<polygon fill="midnightblue" stroke="midnightblue" points="481.121,-489.575 491.68,-490.453 483.973,-483.182 481.121,-489.575"/>
</g>
<!-- Node9 -->
<g id="node9" class="node"><title>Node9</title>
<g id="a_node9"><a xlink:href="UniversalFindActions_8cpp.html" target="_top" xlink:title="/home/travis/build\l/ADVRHumanoids/ROSEndEffector\l/src/UniversalFindActions.cpp">
<polygon fill="none" stroke="black" points="339.32,-167.5 339.32,-208.5 518.32,-208.5 518.32,-167.5 339.32,-167.5"/>
<text text-anchor="start" x="347.32" y="-196.5" font-family="Helvetica,sans-Serif" font-size="10.00">/home/travis/build</text>
<text text-anchor="start" x="347.32" y="-185.5" font-family="Helvetica,sans-Serif" font-size="10.00">/ADVRHumanoids/ROSEndEffector</text>
<text text-anchor="middle" x="428.82" y="-174.5" font-family="Helvetica,sans-Serif" font-size="10.00">/src/UniversalFindActions.cpp</text>
</a>
</g>
</g>
<!-- Node1&#45;&gt;Node9 -->
<g id="edge22" class="edge"><title>Node1&#45;&gt;Node9</title>
<path fill="none" stroke="midnightblue" d="M546.504,-480.167C543.115,-426.166 531.013,-321.341 487.82,-245 479.892,-230.988 467.325,-218.35 455.823,-208.642"/>
<polygon fill="midnightblue" stroke="midnightblue" points="543.016,-480.478 547.072,-490.266 550.005,-480.085 543.016,-480.478"/>
</g>
<!-- Node10 -->
<g id="node10" class="node"><title>Node10</title>
<g id="a_node10"><a xlink:href="MapActionHandler_8h.html" target="_top" xlink:title="/home/travis/build\l/ADVRHumanoids/ROSEndEffector\l/include/end_effector/MapActionHandler.h">
<polygon fill="none" stroke="black" points="556.82,-245.5 556.82,-286.5 772.82,-286.5 772.82,-245.5 556.82,-245.5"/>
<text text-anchor="start" x="564.82" y="-274.5" font-family="Helvetica,sans-Serif" font-size="10.00">/home/travis/build</text>
<text text-anchor="start" x="564.82" y="-263.5" font-family="Helvetica,sans-Serif" font-size="10.00">/ADVRHumanoids/ROSEndEffector</text>
<text text-anchor="middle" x="664.82" y="-252.5" font-family="Helvetica,sans-Serif" font-size="10.00">/include/end_effector/MapActionHandler.h</text>
</a>
</g>
</g>
<!-- Node1&#45;&gt;Node10 -->
<g id="edge20" class="edge"><title>Node1&#45;&gt;Node10</title>
<path fill="none" stroke="midnightblue" d="M557.289,-480.648C564.063,-457.577 574.044,-426.911 585.82,-401 605.151,-358.466 634.433,-312.224 651.388,-286.71"/>
<polygon fill="midnightblue" stroke="midnightblue" points="553.898,-479.774 554.497,-490.352 560.625,-481.71 553.898,-479.774"/>
</g>
<!-- Node16 -->
<g id="node16" class="node"><title>Node16</title>
<g id="a_node16"><a xlink:href="ActionGeneric_8cpp.html" target="_top" xlink:title="/home/travis/build\l/ADVRHumanoids/ROSEndEffector\l/src/GraspingActions/ActionGeneric.cpp">
<polygon fill="none" stroke="black" points="595.32,-407 595.32,-448 800.32,-448 800.32,-407 595.32,-407"/>
<text text-anchor="start" x="603.32" y="-436" font-family="Helvetica,sans-Serif" font-size="10.00">/home/travis/build</text>
<text text-anchor="start" x="603.32" y="-425" font-family="Helvetica,sans-Serif" font-size="10.00">/ADVRHumanoids/ROSEndEffector</text>
<text text-anchor="middle" x="697.82" y="-414" font-family="Helvetica,sans-Serif" font-size="10.00">/src/GraspingActions/ActionGeneric.cpp</text>
</a>
</g>
</g>
<!-- Node1&#45;&gt;Node16 -->
<g id="edge21" class="edge"><title>Node1&#45;&gt;Node16</title>
<path fill="none" stroke="midnightblue" d="M600.111,-485.171C621.323,-472.868 645.211,-459.013 664.058,-448.082"/>
<polygon fill="midnightblue" stroke="midnightblue" points="598.101,-482.291 591.206,-490.336 601.613,-488.346 598.101,-482.291"/>
</g>
<!-- Node3 -->
<g id="node3" class="node"><title>Node3</title>
<g id="a_node3"><a xlink:href="UniversalRosEndEffectorExecutor_8h.html" target="_top" xlink:title="/home/travis/build\l/ADVRHumanoids/ROSEndEffector\l/include/end_effector/UniversalRos\lEndEffectorExecutor.h">
<polygon fill="none" stroke="black" points="209.32,-78.5 209.32,-130.5 390.32,-130.5 390.32,-78.5 209.32,-78.5"/>
<text text-anchor="start" x="217.32" y="-118.5" font-family="Helvetica,sans-Serif" font-size="10.00">/home/travis/build</text>
<text text-anchor="start" x="217.32" y="-107.5" font-family="Helvetica,sans-Serif" font-size="10.00">/ADVRHumanoids/ROSEndEffector</text>
<text text-anchor="start" x="217.32" y="-96.5" font-family="Helvetica,sans-Serif" font-size="10.00">/include/end_effector/UniversalRos</text>
<text text-anchor="middle" x="299.82" y="-85.5" font-family="Helvetica,sans-Serif" font-size="10.00">EndEffectorExecutor.h</text>
</a>
</g>
</g>
<!-- Node2&#45;&gt;Node3 -->
<g id="edge2" class="edge"><title>Node2&#45;&gt;Node3</title>
<path fill="none" stroke="midnightblue" d="M244.022,-420.343C161.152,-413.111 56.8364,-397.646 29.8201,-365 -6.1662,-321.515 -23.6728,-258.095 63.8201,-167 84.1308,-145.853 151.541,-129.587 209.143,-119.11"/>
<polygon fill="midnightblue" stroke="midnightblue" points="243.757,-423.833 254.016,-421.184 244.345,-416.857 243.757,-423.833"/>
</g>
<!-- Node6 -->
<g id="node6" class="node"><title>Node6</title>
<g id="a_node6"><a xlink:href="YamlWorker_8h.html" target="_top" xlink:title="/home/travis/build\l/ADVRHumanoids/ROSEndEffector\l/include/end_effector/YamlWorker.h">
<polygon fill="none" stroke="black" points="39.3201,-323.5 39.3201,-364.5 224.32,-364.5 224.32,-323.5 39.3201,-323.5"/>
<text text-anchor="start" x="47.3201" y="-352.5" font-family="Helvetica,sans-Serif" font-size="10.00">/home/travis/build</text>
<text text-anchor="start" x="47.3201" y="-341.5" font-family="Helvetica,sans-Serif" font-size="10.00">/ADVRHumanoids/ROSEndEffector</text>
<text text-anchor="middle" x="131.82" y="-330.5" font-family="Helvetica,sans-Serif" font-size="10.00">/include/end_effector/YamlWorker.h</text>
</a>
</g>
</g>
<!-- Node2&#45;&gt;Node6 -->
<g id="edge5" class="edge"><title>Node2&#45;&gt;Node6</title>
<path fill="none" stroke="midnightblue" d="M275.418,-397.956C245.445,-386.902 211.893,-374.529 184.763,-364.524"/>
<polygon fill="midnightblue" stroke="midnightblue" points="274.418,-401.317 285.011,-401.493 276.84,-394.75 274.418,-401.317"/>
</g>
<!-- Node2&#45;&gt;Node9 -->
<g id="edge19" class="edge"><title>Node2&#45;&gt;Node9</title>
<path fill="none" stroke="midnightblue" d="M440.054,-396.134C452.706,-387.973 464.057,-377.75 471.82,-365 477.74,-355.277 480.243,-272.676 470.82,-245 466.237,-231.54 457.071,-218.686 448.467,-208.696"/>
<polygon fill="midnightblue" stroke="midnightblue" points="437.914,-393.334 431.115,-401.46 441.498,-399.348 437.914,-393.334"/>
</g>
<!-- Node15 -->
<g id="node15" class="node"><title>Node15</title>
<g id="a_node15"><a xlink:href="ActionComposed_8cpp.html" target="_top" xlink:title="/home/travis/build\l/ADVRHumanoids/ROSEndEffector\l/src/GraspingActions/ActionComposed.cpp">
<polygon fill="none" stroke="black" points="242.82,-323.5 242.82,-364.5 462.82,-364.5 462.82,-323.5 242.82,-323.5"/>
<text text-anchor="start" x="250.82" y="-352.5" font-family="Helvetica,sans-Serif" font-size="10.00">/home/travis/build</text>
<text text-anchor="start" x="250.82" y="-341.5" font-family="Helvetica,sans-Serif" font-size="10.00">/ADVRHumanoids/ROSEndEffector</text>
<text text-anchor="middle" x="352.82" y="-330.5" font-family="Helvetica,sans-Serif" font-size="10.00">/src/GraspingActions/ActionComposed.cpp</text>
</a>
</g>
</g>
<!-- Node2&#45;&gt;Node15 -->
<g id="edge18" class="edge"><title>Node2&#45;&gt;Node15</title>
<path fill="none" stroke="midnightblue" d="M352.82,-391.147C352.82,-382.055 352.82,-372.597 352.82,-364.628"/>
<polygon fill="midnightblue" stroke="midnightblue" points="349.32,-391.16 352.82,-401.16 356.32,-391.16 349.32,-391.16"/>
</g>
<!-- Node4 -->
<g id="node4" class="node"><title>Node4</title>
<g id="a_node4"><a xlink:href="UniversalRosEndEffector_8cpp.html" target="_top" xlink:title="/home/travis/build\l/ADVRHumanoids/ROSEndEffector\l/src/UniversalRosEndEffector.cpp">
<polygon fill="none" stroke="black" points="103.32,-0.5 103.32,-41.5 282.32,-41.5 282.32,-0.5 103.32,-0.5"/>
<text text-anchor="start" x="111.32" y="-29.5" font-family="Helvetica,sans-Serif" font-size="10.00">/home/travis/build</text>
<text text-anchor="start" x="111.32" y="-18.5" font-family="Helvetica,sans-Serif" font-size="10.00">/ADVRHumanoids/ROSEndEffector</text>
<text text-anchor="middle" x="192.82" y="-7.5" font-family="Helvetica,sans-Serif" font-size="10.00">/src/UniversalRosEndEffector.cpp</text>
</a>
</g>
</g>
<!-- Node3&#45;&gt;Node4 -->
<g id="edge3" class="edge"><title>Node3&#45;&gt;Node4</title>
<path fill="none" stroke="midnightblue" d="M258.658,-72.1475C245.232,-61.921 230.709,-50.8594 218.728,-41.7338"/>
<polygon fill="midnightblue" stroke="midnightblue" points="256.768,-75.1073 266.844,-78.3823 261.009,-69.5386 256.768,-75.1073"/>
</g>
<!-- Node5 -->
<g id="node5" class="node"><title>Node5</title>
<g id="a_node5"><a xlink:href="UniversalRosEndEffectorExecutor_8cpp.html" target="_top" xlink:title="/home/travis/build\l/ADVRHumanoids/ROSEndEffector\l/src/UniversalRosEndEffectorExecutor.cpp">
<polygon fill="none" stroke="black" points="300.32,-0.5 300.32,-41.5 515.32,-41.5 515.32,-0.5 300.32,-0.5"/>
<text text-anchor="start" x="308.32" y="-29.5" font-family="Helvetica,sans-Serif" font-size="10.00">/home/travis/build</text>
<text text-anchor="start" x="308.32" y="-18.5" font-family="Helvetica,sans-Serif" font-size="10.00">/ADVRHumanoids/ROSEndEffector</text>
<text text-anchor="middle" x="407.82" y="-7.5" font-family="Helvetica,sans-Serif" font-size="10.00">/src/UniversalRosEndEffectorExecutor.cpp</text>
</a>
</g>
</g>
<!-- Node3&#45;&gt;Node5 -->
<g id="edge4" class="edge"><title>Node3&#45;&gt;Node5</title>
<path fill="none" stroke="midnightblue" d="M341.367,-72.1475C354.919,-61.921 369.577,-50.8594 381.67,-41.7338"/>
<polygon fill="midnightblue" stroke="midnightblue" points="338.979,-69.5648 333.105,-78.3823 343.195,-75.1524 338.979,-69.5648"/>
</g>
<!-- Node6&#45;&gt;Node3 -->
<g id="edge16" class="edge"><title>Node6&#45;&gt;Node3</title>
<path fill="none" stroke="midnightblue" d="M94.8847,-316.685C85.983,-308.307 77.6539,-298.252 72.8201,-287 65.38,-269.68 64.1434,-180.621 74.8201,-167 91.8079,-145.327 154.247,-129.325 209.051,-119.085"/>
<polygon fill="midnightblue" stroke="midnightblue" points="92.6102,-319.346 102.433,-323.317 97.2307,-314.087 92.6102,-319.346"/>
</g>
<!-- Node7 -->
<g id="node7" class="node"><title>Node7</title>
<g id="a_node7"><a xlink:href="FindActions_8h.html" target="_top" xlink:title="/home/travis/build\l/ADVRHumanoids/ROSEndEffector\l/include/end_effector/FindActions.h">
<polygon fill="none" stroke="black" points="82.3201,-245.5 82.3201,-286.5 265.32,-286.5 265.32,-245.5 82.3201,-245.5"/>
<text text-anchor="start" x="90.3201" y="-274.5" font-family="Helvetica,sans-Serif" font-size="10.00">/home/travis/build</text>
<text text-anchor="start" x="90.3201" y="-263.5" font-family="Helvetica,sans-Serif" font-size="10.00">/ADVRHumanoids/ROSEndEffector</text>
<text text-anchor="middle" x="173.82" y="-252.5" font-family="Helvetica,sans-Serif" font-size="10.00">/include/end_effector/FindActions.h</text>
</a>
</g>
</g>
<!-- Node6&#45;&gt;Node7 -->
<g id="edge6" class="edge"><title>Node6&#45;&gt;Node7</title>
<path fill="none" stroke="midnightblue" d="M147.589,-314.466C152.741,-305.143 158.342,-295.007 163.041,-286.506"/>
<polygon fill="midnightblue" stroke="midnightblue" points="144.41,-312.983 142.636,-323.428 150.536,-316.369 144.41,-312.983"/>
</g>
<!-- Node6&#45;&gt;Node10 -->
<g id="edge9" class="edge"><title>Node6&#45;&gt;Node10</title>
<path fill="none" stroke="midnightblue" d="M234.462,-322.948C350.396,-304.282 471.633,-289.065 556.492,-279.116"/>
<polygon fill="midnightblue" stroke="midnightblue" points="233.65,-319.534 224.339,-324.589 234.771,-326.444 233.65,-319.534"/>
</g>
<!-- Node14 -->
<g id="node14" class="node"><title>Node14</title>
<g id="a_node14"><a xlink:href="YamlWorker_8cpp.html" target="_top" xlink:title="/home/travis/build\l/ADVRHumanoids/ROSEndEffector\l/src/YamlWorker.cpp">
<polygon fill="none" stroke="black" points="283.32,-245.5 283.32,-286.5 462.32,-286.5 462.32,-245.5 283.32,-245.5"/>
<text text-anchor="start" x="291.32" y="-274.5" font-family="Helvetica,sans-Serif" font-size="10.00">/home/travis/build</text>
<text text-anchor="start" x="291.32" y="-263.5" font-family="Helvetica,sans-Serif" font-size="10.00">/ADVRHumanoids/ROSEndEffector</text>
<text text-anchor="middle" x="372.82" y="-252.5" font-family="Helvetica,sans-Serif" font-size="10.00">/src/YamlWorker.cpp</text>
</a>
</g>
</g>
<!-- Node6&#45;&gt;Node14 -->
<g id="edge17" class="edge"><title>Node6&#45;&gt;Node14</title>
<path fill="none" stroke="midnightblue" d="M203.791,-320.304C237.905,-309.546 278.25,-296.823 310.967,-286.506"/>
<polygon fill="midnightblue" stroke="midnightblue" points="202.368,-317.083 193.884,-323.428 204.473,-323.758 202.368,-317.083"/>
</g>
<!-- Node8 -->
<g id="node8" class="node"><title>Node8</title>
<g id="a_node8"><a xlink:href="FindActions_8cpp.html" target="_top" xlink:title="/home/travis/build\l/ADVRHumanoids/ROSEndEffector\l/src/FindActions.cpp">
<polygon fill="none" stroke="black" points="84.3201,-167.5 84.3201,-208.5 263.32,-208.5 263.32,-167.5 84.3201,-167.5"/>
<text text-anchor="start" x="92.3201" y="-196.5" font-family="Helvetica,sans-Serif" font-size="10.00">/home/travis/build</text>
<text text-anchor="start" x="92.3201" y="-185.5" font-family="Helvetica,sans-Serif" font-size="10.00">/ADVRHumanoids/ROSEndEffector</text>
<text text-anchor="middle" x="173.82" y="-174.5" font-family="Helvetica,sans-Serif" font-size="10.00">/src/FindActions.cpp</text>
</a>
</g>
</g>
<!-- Node7&#45;&gt;Node8 -->
<g id="edge7" class="edge"><title>Node7&#45;&gt;Node8</title>
<path fill="none" stroke="midnightblue" d="M173.82,-235.297C173.82,-226.301 173.82,-216.653 173.82,-208.506"/>
<polygon fill="midnightblue" stroke="midnightblue" points="170.32,-235.428 173.82,-245.428 177.32,-235.428 170.32,-235.428"/>
</g>
<!-- Node7&#45;&gt;Node9 -->
<g id="edge8" class="edge"><title>Node7&#45;&gt;Node9</title>
<path fill="none" stroke="midnightblue" d="M249.507,-242.442C285.701,-231.655 328.608,-218.867 363.374,-208.506"/>
<polygon fill="midnightblue" stroke="midnightblue" points="248.073,-239.218 239.489,-245.428 250.072,-245.926 248.073,-239.218"/>
</g>
<!-- Node10&#45;&gt;Node3 -->
<g id="edge13" class="edge"><title>Node10&#45;&gt;Node3</title>
<path fill="none" stroke="midnightblue" d="M614.671,-240.542C598.405,-231.606 580.724,-220.774 565.82,-209 545.832,-193.209 548.623,-180.173 526.82,-167 485.495,-142.032 433.914,-127.008 390.368,-118.069"/>
<polygon fill="midnightblue" stroke="midnightblue" points="613.071,-243.655 623.536,-245.305 616.384,-237.489 613.071,-243.655"/>
</g>
<!-- Node10&#45;&gt;Node9 -->
<g id="edge15" class="edge"><title>Node10&#45;&gt;Node9</title>
<path fill="none" stroke="midnightblue" d="M594.343,-242.304C560.936,-231.546 521.428,-218.823 489.39,-208.506"/>
<polygon fill="midnightblue" stroke="midnightblue" points="593.453,-245.694 604.044,-245.428 595.599,-239.031 593.453,-245.694"/>
</g>
<!-- Node11 -->
<g id="node11" class="node"><title>Node11</title>
<g id="a_node11"><a xlink:href="RosServiceHandler_8h.html" target="_top" xlink:title="/home/travis/build\l/ADVRHumanoids/ROSEndEffector\l/include/end_effector/RosServiceHandler.h">
<polygon fill="none" stroke="black" points="772.82,-167.5 772.82,-208.5 990.82,-208.5 990.82,-167.5 772.82,-167.5"/>
<text text-anchor="start" x="780.82" y="-196.5" font-family="Helvetica,sans-Serif" font-size="10.00">/home/travis/build</text>
<text text-anchor="start" x="780.82" y="-185.5" font-family="Helvetica,sans-Serif" font-size="10.00">/ADVRHumanoids/ROSEndEffector</text>
<text text-anchor="middle" x="881.82" y="-174.5" font-family="Helvetica,sans-Serif" font-size="10.00">/include/end_effector/RosServiceHandler.h</text>
</a>
</g>
</g>
<!-- Node10&#45;&gt;Node11 -->
<g id="edge10" class="edge"><title>Node10&#45;&gt;Node11</title>
<path fill="none" stroke="midnightblue" d="M730.416,-242.026C760.964,-231.328 796.921,-218.734 826.127,-208.506"/>
<polygon fill="midnightblue" stroke="midnightblue" points="728.984,-238.819 720.703,-245.428 731.298,-245.426 728.984,-238.819"/>
</g>
<!-- Node13 -->
<g id="node13" class="node"><title>Node13</title>
<g id="a_node13"><a xlink:href="MapActionHandler_8cpp.html" target="_top" xlink:title="/home/travis/build\l/ADVRHumanoids/ROSEndEffector\l/src/MapActionHandler.cpp">
<polygon fill="none" stroke="black" points="575.32,-167.5 575.32,-208.5 754.32,-208.5 754.32,-167.5 575.32,-167.5"/>
<text text-anchor="start" x="583.32" y="-196.5" font-family="Helvetica,sans-Serif" font-size="10.00">/home/travis/build</text>
<text text-anchor="start" x="583.32" y="-185.5" font-family="Helvetica,sans-Serif" font-size="10.00">/ADVRHumanoids/ROSEndEffector</text>
<text text-anchor="middle" x="664.82" y="-174.5" font-family="Helvetica,sans-Serif" font-size="10.00">/src/MapActionHandler.cpp</text>
</a>
</g>
</g>
<!-- Node10&#45;&gt;Node13 -->
<g id="edge14" class="edge"><title>Node10&#45;&gt;Node13</title>
<path fill="none" stroke="midnightblue" d="M664.82,-235.297C664.82,-226.301 664.82,-216.653 664.82,-208.506"/>
<polygon fill="midnightblue" stroke="midnightblue" points="661.32,-235.428 664.82,-245.428 668.32,-235.428 661.32,-235.428"/>
</g>
<!-- Node11&#45;&gt;Node3 -->
<g id="edge11" class="edge"><title>Node11&#45;&gt;Node3</title>
<path fill="none" stroke="midnightblue" d="M762.389,-166.961C626.438,-146.644 481.596,-127.98 390.443,-116.6"/>
<polygon fill="midnightblue" stroke="midnightblue" points="762.169,-170.468 772.578,-168.49 763.208,-163.545 762.169,-170.468"/>
</g>
<!-- Node12 -->
<g id="node12" class="node"><title>Node12</title>
<g id="a_node12"><a xlink:href="RosServiceHandler_8cpp.html" target="_top" xlink:title="/home/travis/build\l/ADVRHumanoids/ROSEndEffector\l/src/RosServiceHandler.cpp">
<polygon fill="none" stroke="black" points="792.32,-84 792.32,-125 971.32,-125 971.32,-84 792.32,-84"/>
<text text-anchor="start" x="800.32" y="-113" font-family="Helvetica,sans-Serif" font-size="10.00">/home/travis/build</text>
<text text-anchor="start" x="800.32" y="-102" font-family="Helvetica,sans-Serif" font-size="10.00">/ADVRHumanoids/ROSEndEffector</text>
<text text-anchor="middle" x="881.82" y="-91" font-family="Helvetica,sans-Serif" font-size="10.00">/src/RosServiceHandler.cpp</text>
</a>
</g>
</g>
<!-- Node11&#45;&gt;Node12 -->
<g id="edge12" class="edge"><title>Node11&#45;&gt;Node12</title>
<path fill="none" stroke="midnightblue" d="M881.82,-157.065C881.82,-146.382 881.82,-134.63 881.82,-125.047"/>
<polygon fill="midnightblue" stroke="midnightblue" points="878.32,-157.271 881.82,-167.271 885.32,-157.271 878.32,-157.271"/>
</g>
</g>
</svg>
