<?xml version="1.0" encoding="UTF-8" standalone="no"?>
<!DOCTYPE svg PUBLIC "-//W3C//DTD SVG 1.1//EN"
 "http://www.w3.org/Graphics/SVG/1.1/DTD/svg11.dtd">
<!-- Generated by graphviz version 2.38.0 (20140413.2041)
 -->
<!-- Title: /home/travis/build/ADVRHumanoids/ROSEndEffector/src/GraspingActions/ActionTrig.cpp Pages: 1 -->
<svg width="697pt" height="363pt"
 viewBox="0.00 0.00 697.00 363.00" xmlns="http://www.w3.org/2000/svg" xmlns:xlink="http://www.w3.org/1999/xlink">
<g id="graph0" class="graph" transform="scale(1 1) rotate(0) translate(4 359)">
<title>/home/travis/build/ADVRHumanoids/ROSEndEffector/src/GraspingActions/ActionTrig.cpp</title>
<!-- Node1 -->
<g id="node1" class="node"><title>Node1</title>
<polygon fill="#bfbfbf" stroke="black" points="504,-313.5 504,-354.5 689,-354.5 689,-313.5 504,-313.5"/>
<text text-anchor="start" x="512" y="-342.5" font-family="Helvetica,sans-Serif" font-size="10.00">/home/travis/build</text>
<text text-anchor="start" x="512" y="-331.5" font-family="Helvetica,sans-Serif" font-size="10.00">/ADVRHumanoids/ROSEndEffector</text>
<text text-anchor="middle" x="596.5" y="-320.5" font-family="Helvetica,sans-Serif" font-size="10.00">/src/GraspingActions/ActionTrig.cpp</text>
</g>
<!-- Node2 -->
<g id="node2" class="node"><title>Node2</title>
<g id="a_node2"><a xlink:href="ActionTrig_8h.html" target="_top" xlink:title="end_effector/GraspingActions\l/ActionTrig.h">
<polygon fill="none" stroke="black" points="517.5,-246.5 517.5,-276.5 675.5,-276.5 675.5,-246.5 517.5,-246.5"/>
<text text-anchor="start" x="525.5" y="-264.5" font-family="Helvetica,sans-Serif" font-size="10.00">end_effector/GraspingActions</text>
<text text-anchor="middle" x="596.5" y="-253.5" font-family="Helvetica,sans-Serif" font-size="10.00">/ActionTrig.h</text>
</a>
</g>
</g>
<!-- Node1&#45;&gt;Node2 -->
<g id="edge1" class="edge"><title>Node1&#45;&gt;Node2</title>
<path fill="none" stroke="midnightblue" d="M596.5,-313.362C596.5,-305.226 596.5,-295.7 596.5,-287.105"/>
<polygon fill="midnightblue" stroke="midnightblue" points="600,-286.892 596.5,-276.892 593,-286.892 600,-286.892"/>
</g>
<!-- Node3 -->
<g id="node3" class="node"><title>Node3</title>
<g id="a_node3"><a xlink:href="ActionPrimitive_8h.html" target="_top" xlink:title="end_effector/GraspingActions\l/ActionPrimitive.h">
<polygon fill="none" stroke="black" points="381.5,-179.5 381.5,-209.5 539.5,-209.5 539.5,-179.5 381.5,-179.5"/>
<text text-anchor="start" x="389.5" y="-197.5" font-family="Helvetica,sans-Serif" font-size="10.00">end_effector/GraspingActions</text>
<text text-anchor="middle" x="460.5" y="-186.5" font-family="Helvetica,sans-Serif" font-size="10.00">/ActionPrimitive.h</text>
</a>
</g>
</g>
<!-- Node2&#45;&gt;Node3 -->
<g id="edge2" class="edge"><title>Node2&#45;&gt;Node3</title>
<path fill="none" stroke="midnightblue" d="M566.99,-246.396C547.119,-236.899 520.709,-224.276 499.162,-213.978"/>
<polygon fill="midnightblue" stroke="midnightblue" points="500.484,-210.731 489.952,-209.577 497.466,-217.047 500.484,-210.731"/>
</g>
<!-- Node8 -->
<g id="node8" class="node"><title>Node8</title>
<polygon fill="none" stroke="#bfbfbf" points="549,-0.5 549,-19.5 608,-19.5 608,-0.5 549,-0.5"/>
<text text-anchor="middle" x="578.5" y="-7.5" font-family="Helvetica,sans-Serif" font-size="10.00">iostream</text>
</g>
<!-- Node2&#45;&gt;Node8 -->
<g id="edge26" class="edge"><title>Node2&#45;&gt;Node8</title>
<path fill="none" stroke="midnightblue" d="M607.371,-246.461C632.639,-211.994 690.454,-121.268 653.5,-56 645.153,-41.2584 629.838,-30.8192 615.213,-23.7321"/>
<polygon fill="midnightblue" stroke="midnightblue" points="616.342,-20.4041 605.782,-19.5474 613.503,-26.8025 616.342,-20.4041"/>
</g>
<!-- Node10 -->
<g id="node10" class="node"><title>Node10</title>
<polygon fill="none" stroke="#bfbfbf" points="548.5,-56.5 548.5,-75.5 644.5,-75.5 644.5,-56.5 548.5,-56.5"/>
<text text-anchor="middle" x="596.5" y="-63.5" font-family="Helvetica,sans-Serif" font-size="10.00">yaml&#45;cpp/yaml.h</text>
</g>
<!-- Node2&#45;&gt;Node10 -->
<g id="edge25" class="edge"><title>Node2&#45;&gt;Node10</title>
<path fill="none" stroke="midnightblue" d="M596.5,-246.271C596.5,-211.944 596.5,-124.566 596.5,-85.9001"/>
<polygon fill="midnightblue" stroke="midnightblue" points="600,-85.5769 596.5,-75.5769 593,-85.5769 600,-85.5769"/>
</g>
<!-- Node4 -->
<g id="node4" class="node"><title>Node4</title>
<polygon fill="none" stroke="#bfbfbf" points="422.5,-118 422.5,-137 454.5,-137 454.5,-118 422.5,-118"/>
<text text-anchor="middle" x="438.5" y="-125" font-family="Helvetica,sans-Serif" font-size="10.00">set</text>
</g>
<!-- Node3&#45;&gt;Node4 -->
<g id="edge3" class="edge"><title>Node3&#45;&gt;Node4</title>
<path fill="none" stroke="midnightblue" d="M455.726,-179.396C452.5,-169.863 448.208,-157.182 444.715,-146.862"/>
<polygon fill="midnightblue" stroke="midnightblue" points="447.964,-145.545 441.443,-137.195 441.334,-147.789 447.964,-145.545"/>
</g>
<!-- Node5 -->
<g id="node5" class="node"><title>Node5</title>
<polygon fill="none" stroke="#bfbfbf" points="448.5,-56.5 448.5,-75.5 492.5,-75.5 492.5,-56.5 448.5,-56.5"/>
<text text-anchor="middle" x="470.5" y="-63.5" font-family="Helvetica,sans-Serif" font-size="10.00">string</text>
</g>
<!-- Node3&#45;&gt;Node5 -->
<g id="edge4" class="edge"><title>Node3&#45;&gt;Node5</title>
<path fill="none" stroke="midnightblue" d="M461.608,-179.479C463.408,-156.719 466.966,-111.702 468.993,-86.0582"/>
<polygon fill="midnightblue" stroke="midnightblue" points="472.506,-86.0333 469.805,-75.7885 465.528,-85.4816 472.506,-86.0333"/>
</g>
<!-- Node6 -->
<g id="node6" class="node"><title>Node6</title>
<polygon fill="none" stroke="#bfbfbf" points="122.5,-56.5 122.5,-75.5 160.5,-75.5 160.5,-56.5 122.5,-56.5"/>
<text text-anchor="middle" x="141.5" y="-63.5" font-family="Helvetica,sans-Serif" font-size="10.00">map</text>
</g>
<!-- Node3&#45;&gt;Node6 -->
<g id="edge5" class="edge"><title>Node3&#45;&gt;Node6</title>
<path fill="none" stroke="midnightblue" d="M381.254,-189.945C330.028,-184.731 263.47,-172.294 211.5,-143 186.185,-128.73 164.877,-102.086 152.643,-84.4437"/>
<polygon fill="midnightblue" stroke="midnightblue" points="155.274,-82.0798 146.812,-75.704 149.451,-85.9649 155.274,-82.0798"/>
</g>
<!-- Node7 -->
<g id="node7" class="node"><title>Node7</title>
<polygon fill="none" stroke="#bfbfbf" points="179,-56.5 179,-75.5 226,-75.5 226,-56.5 179,-56.5"/>
<text text-anchor="middle" x="202.5" y="-63.5" font-family="Helvetica,sans-Serif" font-size="10.00">vector</text>
</g>
<!-- Node3&#45;&gt;Node7 -->
<g id="edge6" class="edge"><title>Node3&#45;&gt;Node7</title>
<path fill="none" stroke="midnightblue" d="M381.4,-183.112C326.55,-174.531 259.552,-160.868 237.5,-143 219.724,-128.597 210.573,-103.149 206.162,-85.6989"/>
<polygon fill="midnightblue" stroke="midnightblue" points="209.499,-84.5809 203.906,-75.5828 202.667,-86.105 209.499,-84.5809"/>
</g>
<!-- Node3&#45;&gt;Node8 -->
<g id="edge7" class="edge"><title>Node3&#45;&gt;Node8</title>
<path fill="none" stroke="midnightblue" d="M467.504,-179.297C480.36,-153.727 509.201,-98.6402 539.5,-56 546.686,-45.8872 555.704,-35.3675 563.258,-27.0443"/>
<polygon fill="midnightblue" stroke="midnightblue" points="565.973,-29.2641 570.202,-19.5498 560.838,-24.5065 565.973,-29.2641"/>
</g>
<!-- Node9 -->
<g id="node9" class="node"><title>Node9</title>
<g id="a_node9"><a xlink:href="Action_8h.html" target="_top" xlink:title="end_effector/GraspingActions\l/Action.h">
<polygon fill="none" stroke="black" points="246.5,-112.5 246.5,-142.5 404.5,-142.5 404.5,-112.5 246.5,-112.5"/>
<text text-anchor="start" x="254.5" y="-130.5" font-family="Helvetica,sans-Serif" font-size="10.00">end_effector/GraspingActions</text>
<text text-anchor="middle" x="325.5" y="-119.5" font-family="Helvetica,sans-Serif" font-size="10.00">/Action.h</text>
</a>
</g>
</g>
<!-- Node3&#45;&gt;Node9 -->
<g id="edge8" class="edge"><title>Node3&#45;&gt;Node9</title>
<path fill="none" stroke="midnightblue" d="M431.207,-179.396C411.482,-169.899 385.266,-157.276 363.878,-146.978"/>
<polygon fill="midnightblue" stroke="midnightblue" points="365.264,-143.761 354.736,-142.577 362.227,-150.068 365.264,-143.761"/>
</g>
<!-- Node3&#45;&gt;Node10 -->
<g id="edge24" class="edge"><title>Node3&#45;&gt;Node10</title>
<path fill="none" stroke="midnightblue" d="M484.779,-179.417C499.883,-170.073 519.261,-156.989 534.5,-143 554.214,-124.903 573.089,-100.384 584.725,-84.1472"/>
<polygon fill="midnightblue" stroke="midnightblue" points="587.807,-85.8501 590.692,-75.6558 582.079,-81.8255 587.807,-85.8501"/>
</g>
<!-- Node9&#45;&gt;Node5 -->
<g id="edge10" class="edge"><title>Node9&#45;&gt;Node5</title>
<path fill="none" stroke="midnightblue" d="M359.863,-112.399C384.191,-102.416 416.529,-89.1465 439.956,-79.5335"/>
<polygon fill="midnightblue" stroke="midnightblue" points="441.479,-82.6921 449.401,-75.6578 438.821,-76.2161 441.479,-82.6921"/>
</g>
<!-- Node9&#45;&gt;Node6 -->
<g id="edge11" class="edge"><title>Node9&#45;&gt;Node6</title>
<path fill="none" stroke="midnightblue" d="M281.895,-112.399C247.482,-101.271 200.439,-86.0592 170.509,-76.3805"/>
<polygon fill="midnightblue" stroke="midnightblue" points="171.276,-72.9502 160.684,-73.2035 169.122,-79.6106 171.276,-72.9502"/>
</g>
<!-- Node9&#45;&gt;Node7 -->
<g id="edge9" class="edge"><title>Node9&#45;&gt;Node7</title>
<path fill="none" stroke="midnightblue" d="M296.351,-112.399C276.082,-102.595 249.259,-89.6194 229.481,-80.052"/>
<polygon fill="midnightblue" stroke="midnightblue" points="230.924,-76.8618 220.398,-75.6578 227.876,-83.1632 230.924,-76.8618"/>
</g>
<!-- Node9&#45;&gt;Node8 -->
<g id="edge14" class="edge"><title>Node9&#45;&gt;Node8</title>
<path fill="none" stroke="midnightblue" d="M345.265,-112.222C367.369,-96.7528 404.655,-72.1275 439.5,-56 471.892,-41.0079 510.673,-28.9008 539.031,-21.0369"/>
<polygon fill="midnightblue" stroke="midnightblue" points="540.244,-24.3343 548.976,-18.3342 538.408,-17.5793 540.244,-24.3343"/>
</g>
<!-- Node9&#45;&gt;Node10 -->
<g id="edge12" class="edge"><title>Node9&#45;&gt;Node10</title>
<path fill="none" stroke="midnightblue" d="M389.38,-112.475C437.868,-101.829 503.528,-87.4127 547.815,-77.6892"/>
<polygon fill="midnightblue" stroke="midnightblue" points="548.74,-81.0695 557.757,-75.5064 547.239,-74.2324 548.74,-81.0695"/>
</g>
<!-- Node11 -->
<g id="node11" class="node"><title>Node11</title>
<polygon fill="none" stroke="#bfbfbf" points="0,-0.5 0,-19.5 57,-19.5 57,-0.5 0,-0.5"/>
<text text-anchor="middle" x="28.5" y="-7.5" font-family="Helvetica,sans-Serif" font-size="10.00">memory</text>
</g>
<!-- Node9&#45;&gt;Node11 -->
<g id="edge13" class="edge"><title>Node9&#45;&gt;Node11</title>
<path fill="none" stroke="midnightblue" d="M311.427,-112.252C294.622,-96.0916 264.946,-70.1524 234.5,-56 168.094,-25.1326 143.057,-35.8109 67.1452,-20.0237"/>
<polygon fill="midnightblue" stroke="midnightblue" points="67.6335,-16.5483 57.1186,-17.8475 66.1487,-23.389 67.6335,-16.5483"/>
</g>
<!-- Node12 -->
<g id="node12" class="node"><title>Node12</title>
<g id="a_node12"><a xlink:href="Utils_8h.html" target="_top" xlink:title="end_effector/Utils.h">
<polygon fill="none" stroke="black" points="282.5,-56.5 282.5,-75.5 392.5,-75.5 392.5,-56.5 282.5,-56.5"/>
<text text-anchor="middle" x="337.5" y="-63.5" font-family="Helvetica,sans-Serif" font-size="10.00">end_effector/Utils.h</text>
</a>
</g>
</g>
<!-- Node9&#45;&gt;Node12 -->
<g id="edge15" class="edge"><title>Node9&#45;&gt;Node12</title>
<path fill="none" stroke="midnightblue" d="M328.344,-112.399C329.962,-104.377 332.008,-94.2328 333.755,-85.569"/>
<polygon fill="midnightblue" stroke="midnightblue" points="337.208,-86.1524 335.754,-75.6578 330.346,-84.7684 337.208,-86.1524"/>
</g>
<!-- Node12&#45;&gt;Node8 -->
<g id="edge18" class="edge"><title>Node12&#45;&gt;Node8</title>
<path fill="none" stroke="midnightblue" d="M376.244,-56.4606C414.857,-47.9297 476.117,-34.3407 538.651,-20.1796"/>
<polygon fill="midnightblue" stroke="midnightblue" points="539.716,-23.527 548.695,-17.9027 538.168,-16.7002 539.716,-23.527"/>
</g>
<!-- Node12&#45;&gt;Node11 -->
<g id="edge17" class="edge"><title>Node12&#45;&gt;Node11</title>
<path fill="none" stroke="midnightblue" d="M282.282,-56.9565C229.522,-49.0171 147.554,-36.0227 66.9136,-19.9642"/>
<polygon fill="midnightblue" stroke="midnightblue" points="67.5815,-16.5285 57.088,-17.9908 66.203,-23.3915 67.5815,-16.5285"/>
</g>
<!-- Node13 -->
<g id="node13" class="node"><title>Node13</title>
<polygon fill="none" stroke="#bfbfbf" points="484,-0.5 484,-19.5 531,-19.5 531,-0.5 484,-0.5"/>
<text text-anchor="middle" x="507.5" y="-7.5" font-family="Helvetica,sans-Serif" font-size="10.00">cmath</text>
</g>
<!-- Node12&#45;&gt;Node13 -->
<g id="edge16" class="edge"><title>Node12&#45;&gt;Node13</title>
<path fill="none" stroke="midnightblue" d="M364.437,-56.4435C394.174,-46.9976 442.073,-31.7826 474.156,-21.5916"/>
<polygon fill="midnightblue" stroke="midnightblue" points="475.503,-24.8362 483.974,-18.473 473.383,-18.1647 475.503,-24.8362"/>
</g>
<!-- Node14 -->
<g id="node14" class="node"><title>Node14</title>
<polygon fill="none" stroke="#bfbfbf" points="75.5,-0.5 75.5,-19.5 123.5,-19.5 123.5,-0.5 75.5,-0.5"/>
<text text-anchor="middle" x="99.5" y="-7.5" font-family="Helvetica,sans-Serif" font-size="10.00">dlfcn.h</text>
</g>
<!-- Node12&#45;&gt;Node14 -->
<g id="edge19" class="edge"><title>Node12&#45;&gt;Node14</title>
<path fill="none" stroke="midnightblue" d="M295.74,-56.4739C256.323,-48.2833 195.345,-35.2461 133.538,-20.1642"/>
<polygon fill="midnightblue" stroke="midnightblue" points="134.16,-16.7132 123.614,-17.7266 132.491,-23.5111 134.16,-16.7132"/>
</g>
<!-- Node15 -->
<g id="node15" class="node"><title>Node15</title>
<polygon fill="none" stroke="#bfbfbf" points="141.5,-0.5 141.5,-19.5 257.5,-19.5 257.5,-0.5 141.5,-0.5"/>
<text text-anchor="middle" x="199.5" y="-7.5" font-family="Helvetica,sans-Serif" font-size="10.00">boost/filesystem.hpp</text>
</g>
<!-- Node12&#45;&gt;Node15 -->
<g id="edge20" class="edge"><title>Node12&#45;&gt;Node15</title>
<path fill="none" stroke="midnightblue" d="M315.633,-56.4435C292.721,-47.4776 256.525,-33.314 230.634,-23.1827"/>
<polygon fill="midnightblue" stroke="midnightblue" points="231.852,-19.9011 221.264,-19.5164 229.301,-26.4198 231.852,-19.9011"/>
</g>
<!-- Node16 -->
<g id="node16" class="node"><title>Node16</title>
<polygon fill="none" stroke="#bfbfbf" points="275.5,-0.5 275.5,-19.5 329.5,-19.5 329.5,-0.5 275.5,-0.5"/>
<text text-anchor="middle" x="302.5" y="-7.5" font-family="Helvetica,sans-Serif" font-size="10.00">fstream</text>
</g>
<!-- Node12&#45;&gt;Node16 -->
<g id="edge21" class="edge"><title>Node12&#45;&gt;Node16</title>
<path fill="none" stroke="midnightblue" d="M331.72,-56.083C326.828,-48.5341 319.673,-37.4948 313.667,-28.2298"/>
<polygon fill="midnightblue" stroke="midnightblue" points="316.548,-26.239 308.172,-19.7511 310.674,-30.0463 316.548,-26.239"/>
</g>
<!-- Node17 -->
<g id="node17" class="node"><title>Node17</title>
<polygon fill="none" stroke="#bfbfbf" points="347.5,-0.5 347.5,-19.5 397.5,-19.5 397.5,-0.5 347.5,-0.5"/>
<text text-anchor="middle" x="372.5" y="-7.5" font-family="Helvetica,sans-Serif" font-size="10.00">chrono</text>
</g>
<!-- Node12&#45;&gt;Node17 -->
<g id="edge22" class="edge"><title>Node12&#45;&gt;Node17</title>
<path fill="none" stroke="midnightblue" d="M343.28,-56.083C348.172,-48.5341 355.327,-37.4948 361.333,-28.2298"/>
<polygon fill="midnightblue" stroke="midnightblue" points="364.326,-30.0463 366.828,-19.7511 358.452,-26.239 364.326,-30.0463"/>
</g>
<!-- Node18 -->
<g id="node18" class="node"><title>Node18</title>
<polygon fill="none" stroke="#bfbfbf" points="415.5,-0.5 415.5,-19.5 465.5,-19.5 465.5,-0.5 415.5,-0.5"/>
<text text-anchor="middle" x="440.5" y="-7.5" font-family="Helvetica,sans-Serif" font-size="10.00">atomic</text>
</g>
<!-- Node12&#45;&gt;Node18 -->
<g id="edge23" class="edge"><title>Node12&#45;&gt;Node18</title>
<path fill="none" stroke="midnightblue" d="M354.049,-56.324C370.492,-47.7034 395.935,-34.3643 414.968,-24.3855"/>
<polygon fill="midnightblue" stroke="midnightblue" points="416.761,-27.3977 423.992,-19.6545 413.511,-21.198 416.761,-27.3977"/>
</g>
</g>
</svg>
