<?xml version="1.0" encoding="UTF-8" standalone="no"?>
<!DOCTYPE svg PUBLIC "-//W3C//DTD SVG 1.1//EN"
 "http://www.w3.org/Graphics/SVG/1.1/DTD/svg11.dtd">
<!-- Generated by graphviz version 2.38.0 (20140413.2041)
 -->
<!-- Title: /home/travis/build/ADVRHumanoids/ROSEndEffector/include/end_effector/GraspingActions/ActionComposed.h Pages: 1 -->
<svg width="1097pt" height="462pt"
 viewBox="0.00 0.00 1097.35 462.00" xmlns="http://www.w3.org/2000/svg" xmlns:xlink="http://www.w3.org/1999/xlink">
<g id="graph0" class="graph" transform="scale(1 1) rotate(0) translate(4 458)">
<title>/home/travis/build/ADVRHumanoids/ROSEndEffector/include/end_effector/GraspingActions/ActionComposed.h</title>
<!-- Node1 -->
<g id="node1" class="node"><title>Node1</title>
<polygon fill="#bfbfbf" stroke="black" points="478.352,-401.5 478.352,-453.5 675.352,-453.5 675.352,-401.5 478.352,-401.5"/>
<text text-anchor="start" x="486.352" y="-441.5" font-family="Helvetica,sans-Serif" font-size="10.00">/home/travis/build</text>
<text text-anchor="start" x="486.352" y="-430.5" font-family="Helvetica,sans-Serif" font-size="10.00">/ADVRHumanoids/ROSEndEffector</text>
<text text-anchor="start" x="486.352" y="-419.5" font-family="Helvetica,sans-Serif" font-size="10.00">/include/end_effector/GraspingActions</text>
<text text-anchor="middle" x="576.852" y="-408.5" font-family="Helvetica,sans-Serif" font-size="10.00">/ActionComposed.h</text>
</g>
<!-- Node2 -->
<g id="node2" class="node"><title>Node2</title>
<g id="a_node2"><a xlink:href="UniversalRosEndEffectorExecutor_8h.html" target="_top" xlink:title="/home/travis/build\l/ADVRHumanoids/ROSEndEffector\l/include/end_effector/UniversalRos\lEndEffectorExecutor.h">
<polygon fill="none" stroke="black" points="141.352,-78.5 141.352,-130.5 322.352,-130.5 322.352,-78.5 141.352,-78.5"/>
<text text-anchor="start" x="149.352" y="-118.5" font-family="Helvetica,sans-Serif" font-size="10.00">/home/travis/build</text>
<text text-anchor="start" x="149.352" y="-107.5" font-family="Helvetica,sans-Serif" font-size="10.00">/ADVRHumanoids/ROSEndEffector</text>
<text text-anchor="start" x="149.352" y="-96.5" font-family="Helvetica,sans-Serif" font-size="10.00">/include/end_effector/UniversalRos</text>
<text text-anchor="middle" x="231.852" y="-85.5" font-family="Helvetica,sans-Serif" font-size="10.00">EndEffectorExecutor.h</text>
</a>
</g>
</g>
<!-- Node1&#45;&gt;Node2 -->
<g id="edge1" class="edge"><title>Node1&#45;&gt;Node2</title>
<path fill="none" stroke="midnightblue" d="M468.153,-415.57C320.189,-398.164 67.4716,-358.576 12.8524,-287 -38.0737,-220.263 75.2108,-162.124 157.071,-130.593"/>
<polygon fill="midnightblue" stroke="midnightblue" points="467.846,-419.058 478.183,-416.735 468.653,-412.104 467.846,-419.058"/>
</g>
<!-- Node5 -->
<g id="node5" class="node"><title>Node5</title>
<g id="a_node5"><a xlink:href="YamlWorker_8h.html" target="_top" xlink:title="/home/travis/build\l/ADVRHumanoids/ROSEndEffector\l/include/end_effector/YamlWorker.h">
<polygon fill="none" stroke="black" points="307.352,-323.5 307.352,-364.5 492.352,-364.5 492.352,-323.5 307.352,-323.5"/>
<text text-anchor="start" x="315.352" y="-352.5" font-family="Helvetica,sans-Serif" font-size="10.00">/home/travis/build</text>
<text text-anchor="start" x="315.352" y="-341.5" font-family="Helvetica,sans-Serif" font-size="10.00">/ADVRHumanoids/ROSEndEffector</text>
<text text-anchor="middle" x="399.852" y="-330.5" font-family="Helvetica,sans-Serif" font-size="10.00">/include/end_effector/YamlWorker.h</text>
</a>
</g>
</g>
<!-- Node1&#45;&gt;Node5 -->
<g id="edge4" class="edge"><title>Node1&#45;&gt;Node5</title>
<path fill="none" stroke="midnightblue" d="M513.099,-397.145C489.611,-386.329 463.593,-374.35 442.425,-364.603"/>
<polygon fill="midnightblue" stroke="midnightblue" points="511.755,-400.379 522.302,-401.382 514.683,-394.021 511.755,-400.379"/>
</g>
<!-- Node8 -->
<g id="node8" class="node"><title>Node8</title>
<g id="a_node8"><a xlink:href="UniversalFindActions_8cpp.html" target="_top" xlink:title="/home/travis/build\l/ADVRHumanoids/ROSEndEffector\l/src/UniversalFindActions.cpp">
<polygon fill="none" stroke="black" points="713.352,-167.5 713.352,-208.5 892.352,-208.5 892.352,-167.5 713.352,-167.5"/>
<text text-anchor="start" x="721.352" y="-196.5" font-family="Helvetica,sans-Serif" font-size="10.00">/home/travis/build</text>
<text text-anchor="start" x="721.352" y="-185.5" font-family="Helvetica,sans-Serif" font-size="10.00">/ADVRHumanoids/ROSEndEffector</text>
<text text-anchor="middle" x="802.852" y="-174.5" font-family="Helvetica,sans-Serif" font-size="10.00">/src/UniversalFindActions.cpp</text>
</a>
</g>
</g>
<!-- Node1&#45;&gt;Node8 -->
<g id="edge18" class="edge"><title>Node1&#45;&gt;Node8</title>
<path fill="none" stroke="midnightblue" d="M617.982,-394.798C651.403,-367.995 698.754,-327.577 734.852,-287 757.151,-261.935 778.458,-229.349 791.1,-208.798"/>
<polygon fill="midnightblue" stroke="midnightblue" points="615.445,-392.344 609.801,-401.311 619.805,-397.821 615.445,-392.344"/>
</g>
<!-- Node14 -->
<g id="node14" class="node"><title>Node14</title>
<g id="a_node14"><a xlink:href="ActionComposed_8cpp.html" target="_top" xlink:title="/home/travis/build\l/ADVRHumanoids/ROSEndEffector\l/src/GraspingActions/ActionComposed.cpp">
<polygon fill="none" stroke="black" points="782.852,-323.5 782.852,-364.5 1002.85,-364.5 1002.85,-323.5 782.852,-323.5"/>
<text text-anchor="start" x="790.852" y="-352.5" font-family="Helvetica,sans-Serif" font-size="10.00">/home/travis/build</text>
<text text-anchor="start" x="790.852" y="-341.5" font-family="Helvetica,sans-Serif" font-size="10.00">/ADVRHumanoids/ROSEndEffector</text>
<text text-anchor="middle" x="892.852" y="-330.5" font-family="Helvetica,sans-Serif" font-size="10.00">/src/GraspingActions/ActionComposed.cpp</text>
</a>
</g>
</g>
<!-- Node1&#45;&gt;Node14 -->
<g id="edge17" class="edge"><title>Node1&#45;&gt;Node14</title>
<path fill="none" stroke="midnightblue" d="M683.645,-398.957C727.468,-387.655 777.183,-374.832 817.152,-364.524"/>
<polygon fill="midnightblue" stroke="midnightblue" points="682.619,-395.607 673.81,-401.493 684.368,-402.385 682.619,-395.607"/>
</g>
<!-- Node3 -->
<g id="node3" class="node"><title>Node3</title>
<g id="a_node3"><a xlink:href="UniversalRosEndEffector_8cpp.html" target="_top" xlink:title="/home/travis/build\l/ADVRHumanoids/ROSEndEffector\l/src/UniversalRosEndEffector.cpp">
<polygon fill="none" stroke="black" points="35.3524,-0.5 35.3524,-41.5 214.352,-41.5 214.352,-0.5 35.3524,-0.5"/>
<text text-anchor="start" x="43.3524" y="-29.5" font-family="Helvetica,sans-Serif" font-size="10.00">/home/travis/build</text>
<text text-anchor="start" x="43.3524" y="-18.5" font-family="Helvetica,sans-Serif" font-size="10.00">/ADVRHumanoids/ROSEndEffector</text>
<text text-anchor="middle" x="124.852" y="-7.5" font-family="Helvetica,sans-Serif" font-size="10.00">/src/UniversalRosEndEffector.cpp</text>
</a>
</g>
</g>
<!-- Node2&#45;&gt;Node3 -->
<g id="edge2" class="edge"><title>Node2&#45;&gt;Node3</title>
<path fill="none" stroke="midnightblue" d="M190.69,-72.1475C177.264,-61.921 162.741,-50.8594 150.76,-41.7338"/>
<polygon fill="midnightblue" stroke="midnightblue" points="188.8,-75.1073 198.876,-78.3823 193.041,-69.5386 188.8,-75.1073"/>
</g>
<!-- Node4 -->
<g id="node4" class="node"><title>Node4</title>
<g id="a_node4"><a xlink:href="UniversalRosEndEffectorExecutor_8cpp.html" target="_top" xlink:title="/home/travis/build\l/ADVRHumanoids/ROSEndEffector\l/src/UniversalRosEndEffectorExecutor.cpp">
<polygon fill="none" stroke="black" points="232.352,-0.5 232.352,-41.5 447.352,-41.5 447.352,-0.5 232.352,-0.5"/>
<text text-anchor="start" x="240.352" y="-29.5" font-family="Helvetica,sans-Serif" font-size="10.00">/home/travis/build</text>
<text text-anchor="start" x="240.352" y="-18.5" font-family="Helvetica,sans-Serif" font-size="10.00">/ADVRHumanoids/ROSEndEffector</text>
<text text-anchor="middle" x="339.852" y="-7.5" font-family="Helvetica,sans-Serif" font-size="10.00">/src/UniversalRosEndEffectorExecutor.cpp</text>
</a>
</g>
</g>
<!-- Node2&#45;&gt;Node4 -->
<g id="edge3" class="edge"><title>Node2&#45;&gt;Node4</title>
<path fill="none" stroke="midnightblue" d="M273.399,-72.1475C286.951,-61.921 301.609,-50.8594 313.702,-41.7338"/>
<polygon fill="midnightblue" stroke="midnightblue" points="271.011,-69.5648 265.137,-78.3823 275.228,-75.1524 271.011,-69.5648"/>
</g>
<!-- Node5&#45;&gt;Node2 -->
<g id="edge15" class="edge"><title>Node5&#45;&gt;Node2</title>
<path fill="none" stroke="midnightblue" d="M331.313,-319.136C314.085,-310.862 296.606,-300.247 282.852,-287 239.475,-245.222 232.106,-169.736 231.392,-130.581"/>
<polygon fill="midnightblue" stroke="midnightblue" points="330.283,-322.514 340.833,-323.493 333.197,-316.149 330.283,-322.514"/>
</g>
<!-- Node6 -->
<g id="node6" class="node"><title>Node6</title>
<g id="a_node6"><a xlink:href="FindActions_8h.html" target="_top" xlink:title="/home/travis/build\l/ADVRHumanoids/ROSEndEffector\l/include/end_effector/FindActions.h">
<polygon fill="none" stroke="black" points="543.352,-245.5 543.352,-286.5 726.352,-286.5 726.352,-245.5 543.352,-245.5"/>
<text text-anchor="start" x="551.352" y="-274.5" font-family="Helvetica,sans-Serif" font-size="10.00">/home/travis/build</text>
<text text-anchor="start" x="551.352" y="-263.5" font-family="Helvetica,sans-Serif" font-size="10.00">/ADVRHumanoids/ROSEndEffector</text>
<text text-anchor="middle" x="634.852" y="-252.5" font-family="Helvetica,sans-Serif" font-size="10.00">/include/end_effector/FindActions.h</text>
</a>
</g>
</g>
<!-- Node5&#45;&gt;Node6 -->
<g id="edge5" class="edge"><title>Node5&#45;&gt;Node6</title>
<path fill="none" stroke="midnightblue" d="M470.031,-320.304C503.296,-309.546 542.637,-296.823 574.539,-286.506"/>
<polygon fill="midnightblue" stroke="midnightblue" points="468.808,-317.021 460.371,-323.428 470.963,-323.681 468.808,-317.021"/>
</g>
<!-- Node9 -->
<g id="node9" class="node"><title>Node9</title>
<g id="a_node9"><a xlink:href="MapActionHandler_8h.html" target="_top" xlink:title="/home/travis/build\l/ADVRHumanoids/ROSEndEffector\l/include/end_effector/MapActionHandler.h">
<polygon fill="none" stroke="black" points="291.852,-245.5 291.852,-286.5 507.852,-286.5 507.852,-245.5 291.852,-245.5"/>
<text text-anchor="start" x="299.852" y="-274.5" font-family="Helvetica,sans-Serif" font-size="10.00">/home/travis/build</text>
<text text-anchor="start" x="299.852" y="-263.5" font-family="Helvetica,sans-Serif" font-size="10.00">/ADVRHumanoids/ROSEndEffector</text>
<text text-anchor="middle" x="399.852" y="-252.5" font-family="Helvetica,sans-Serif" font-size="10.00">/include/end_effector/MapActionHandler.h</text>
</a>
</g>
</g>
<!-- Node5&#45;&gt;Node9 -->
<g id="edge8" class="edge"><title>Node5&#45;&gt;Node9</title>
<path fill="none" stroke="midnightblue" d="M399.852,-313.297C399.852,-304.301 399.852,-294.653 399.852,-286.506"/>
<polygon fill="midnightblue" stroke="midnightblue" points="396.352,-313.428 399.852,-323.428 403.352,-313.428 396.352,-313.428"/>
</g>
<!-- Node13 -->
<g id="node13" class="node"><title>Node13</title>
<g id="a_node13"><a xlink:href="YamlWorker_8cpp.html" target="_top" xlink:title="/home/travis/build\l/ADVRHumanoids/ROSEndEffector\l/src/YamlWorker.cpp">
<polygon fill="none" stroke="black" points="22.3524,-245.5 22.3524,-286.5 201.352,-286.5 201.352,-245.5 22.3524,-245.5"/>
<text text-anchor="start" x="30.3524" y="-274.5" font-family="Helvetica,sans-Serif" font-size="10.00">/home/travis/build</text>
<text text-anchor="start" x="30.3524" y="-263.5" font-family="Helvetica,sans-Serif" font-size="10.00">/ADVRHumanoids/ROSEndEffector</text>
<text text-anchor="middle" x="111.852" y="-252.5" font-family="Helvetica,sans-Serif" font-size="10.00">/src/YamlWorker.cpp</text>
</a>
</g>
</g>
<!-- Node5&#45;&gt;Node13 -->
<g id="edge16" class="edge"><title>Node5&#45;&gt;Node13</title>
<path fill="none" stroke="midnightblue" d="M315.939,-320.856C274.737,-309.983 225.537,-297 185.768,-286.506"/>
<polygon fill="midnightblue" stroke="midnightblue" points="315.123,-324.261 325.685,-323.428 316.909,-317.492 315.123,-324.261"/>
</g>
<!-- Node7 -->
<g id="node7" class="node"><title>Node7</title>
<g id="a_node7"><a xlink:href="FindActions_8cpp.html" target="_top" xlink:title="/home/travis/build\l/ADVRHumanoids/ROSEndEffector\l/src/FindActions.cpp">
<polygon fill="none" stroke="black" points="910.352,-167.5 910.352,-208.5 1089.35,-208.5 1089.35,-167.5 910.352,-167.5"/>
<text text-anchor="start" x="918.352" y="-196.5" font-family="Helvetica,sans-Serif" font-size="10.00">/home/travis/build</text>
<text text-anchor="start" x="918.352" y="-185.5" font-family="Helvetica,sans-Serif" font-size="10.00">/ADVRHumanoids/ROSEndEffector</text>
<text text-anchor="middle" x="999.852" y="-174.5" font-family="Helvetica,sans-Serif" font-size="10.00">/src/FindActions.cpp</text>
</a>
</g>
</g>
<!-- Node6&#45;&gt;Node7 -->
<g id="edge6" class="edge"><title>Node6&#45;&gt;Node7</title>
<path fill="none" stroke="midnightblue" d="M736.513,-243.832C790.993,-232.488 857.52,-218.636 910.076,-207.693"/>
<polygon fill="midnightblue" stroke="midnightblue" points="735.563,-240.455 726.486,-245.92 736.99,-247.308 735.563,-240.455"/>
</g>
<!-- Node6&#45;&gt;Node8 -->
<g id="edge7" class="edge"><title>Node6&#45;&gt;Node8</title>
<path fill="none" stroke="midnightblue" d="M687.487,-241.189C710.729,-230.675 737.711,-218.469 759.735,-208.506"/>
<polygon fill="midnightblue" stroke="midnightblue" points="685.785,-238.117 678.117,-245.428 688.67,-244.495 685.785,-238.117"/>
</g>
<!-- Node9&#45;&gt;Node2 -->
<g id="edge12" class="edge"><title>Node9&#45;&gt;Node2</title>
<path fill="none" stroke="midnightblue" d="M316.992,-241.239C299.708,-233.224 282.823,-222.703 269.852,-209 249.325,-187.314 239.704,-153.624 235.321,-130.613"/>
<polygon fill="midnightblue" stroke="midnightblue" points="316.047,-244.645 326.613,-245.438 318.848,-238.23 316.047,-244.645"/>
</g>
<!-- Node9&#45;&gt;Node8 -->
<g id="edge14" class="edge"><title>Node9&#45;&gt;Node8</title>
<path fill="none" stroke="midnightblue" d="M517.933,-243.735C574.265,-233.466 642.587,-220.83 703.852,-209 706.951,-208.402 710.104,-207.788 713.287,-207.166"/>
<polygon fill="midnightblue" stroke="midnightblue" points="517.131,-240.324 507.92,-245.559 518.385,-247.21 517.131,-240.324"/>
</g>
<!-- Node10 -->
<g id="node10" class="node"><title>Node10</title>
<g id="a_node10"><a xlink:href="RosServiceHandler_8h.html" target="_top" xlink:title="/home/travis/build\l/ADVRHumanoids/ROSEndEffector\l/include/end_effector/RosServiceHandler.h">
<polygon fill="none" stroke="black" points="476.852,-167.5 476.852,-208.5 694.852,-208.5 694.852,-167.5 476.852,-167.5"/>
<text text-anchor="start" x="484.852" y="-196.5" font-family="Helvetica,sans-Serif" font-size="10.00">/home/travis/build</text>
<text text-anchor="start" x="484.852" y="-185.5" font-family="Helvetica,sans-Serif" font-size="10.00">/ADVRHumanoids/ROSEndEffector</text>
<text text-anchor="middle" x="585.852" y="-174.5" font-family="Helvetica,sans-Serif" font-size="10.00">/include/end_effector/RosServiceHandler.h</text>
</a>
</g>
</g>
<!-- Node9&#45;&gt;Node10 -->
<g id="edge9" class="edge"><title>Node9&#45;&gt;Node10</title>
<path fill="none" stroke="midnightblue" d="M457.1,-241.609C483.061,-231.001 513.407,-218.602 538.115,-208.506"/>
<polygon fill="midnightblue" stroke="midnightblue" points="455.685,-238.406 447.752,-245.428 458.333,-244.886 455.685,-238.406"/>
</g>
<!-- Node12 -->
<g id="node12" class="node"><title>Node12</title>
<g id="a_node12"><a xlink:href="MapActionHandler_8cpp.html" target="_top" xlink:title="/home/travis/build\l/ADVRHumanoids/ROSEndEffector\l/src/MapActionHandler.cpp">
<polygon fill="none" stroke="black" points="279.352,-167.5 279.352,-208.5 458.352,-208.5 458.352,-167.5 279.352,-167.5"/>
<text text-anchor="start" x="287.352" y="-196.5" font-family="Helvetica,sans-Serif" font-size="10.00">/home/travis/build</text>
<text text-anchor="start" x="287.352" y="-185.5" font-family="Helvetica,sans-Serif" font-size="10.00">/ADVRHumanoids/ROSEndEffector</text>
<text text-anchor="middle" x="368.852" y="-174.5" font-family="Helvetica,sans-Serif" font-size="10.00">/src/MapActionHandler.cpp</text>
</a>
</g>
</g>
<!-- Node9&#45;&gt;Node12 -->
<g id="edge13" class="edge"><title>Node9&#45;&gt;Node12</title>
<path fill="none" stroke="midnightblue" d="M387.975,-235.882C384.239,-226.721 380.204,-216.83 376.809,-208.506"/>
<polygon fill="midnightblue" stroke="midnightblue" points="384.851,-237.491 391.869,-245.428 391.333,-234.847 384.851,-237.491"/>
</g>
<!-- Node10&#45;&gt;Node2 -->
<g id="edge10" class="edge"><title>Node10&#45;&gt;Node2</title>
<path fill="none" stroke="midnightblue" d="M491.103,-165.186C438.773,-153.139 374.109,-138.251 322.453,-126.359"/>
<polygon fill="midnightblue" stroke="midnightblue" points="490.53,-168.646 501.061,-167.479 492.101,-161.824 490.53,-168.646"/>
</g>
<!-- Node11 -->
<g id="node11" class="node"><title>Node11</title>
<g id="a_node11"><a xlink:href="RosServiceHandler_8cpp.html" target="_top" xlink:title="/home/travis/build\l/ADVRHumanoids/ROSEndEffector\l/src/RosServiceHandler.cpp">
<polygon fill="none" stroke="black" points="496.352,-84 496.352,-125 675.352,-125 675.352,-84 496.352,-84"/>
<text text-anchor="start" x="504.352" y="-113" font-family="Helvetica,sans-Serif" font-size="10.00">/home/travis/build</text>
<text text-anchor="start" x="504.352" y="-102" font-family="Helvetica,sans-Serif" font-size="10.00">/ADVRHumanoids/ROSEndEffector</text>
<text text-anchor="middle" x="585.852" y="-91" font-family="Helvetica,sans-Serif" font-size="10.00">/src/RosServiceHandler.cpp</text>
</a>
</g>
</g>
<!-- Node10&#45;&gt;Node11 -->
<g id="edge11" class="edge"><title>Node10&#45;&gt;Node11</title>
<path fill="none" stroke="midnightblue" d="M585.852,-157.065C585.852,-146.382 585.852,-134.63 585.852,-125.047"/>
<polygon fill="midnightblue" stroke="midnightblue" points="582.352,-157.271 585.852,-167.271 589.352,-157.271 582.352,-157.271"/>
</g>
</g>
</svg>
