<?xml version="1.0" encoding="UTF-8" standalone="no"?>
<!DOCTYPE svg PUBLIC "-//W3C//DTD SVG 1.1//EN"
 "http://www.w3.org/Graphics/SVG/1.1/DTD/svg11.dtd">
<!-- Generated by graphviz version 2.38.0 (20140413.2041)
 -->
<!-- Title: /home/travis/build/ADVRHumanoids/ROSEndEffector/include/ros_end_effector/GraspingActions/ActionGeneric.h Pages: 1 -->
<svg width="946pt" height="584pt"
 viewBox="0.00 0.00 945.67 584.00" xmlns="http://www.w3.org/2000/svg" xmlns:xlink="http://www.w3.org/1999/xlink">
<g id="graph0" class="graph" transform="scale(1 1) rotate(0) translate(4 580)">
<title>/home/travis/build/ADVRHumanoids/ROSEndEffector/include/ros_end_effector/GraspingActions/ActionGeneric.h</title>
<!-- Node1 -->
<g id="node1" class="node"><title>Node1</title>
<polygon fill="#bfbfbf" stroke="black" points="462.674,-523.5 462.674,-575.5 641.674,-575.5 641.674,-523.5 462.674,-523.5"/>
<text text-anchor="start" x="470.674" y="-563.5" font-family="Helvetica,sans-Serif" font-size="10.00">/home/travis/build</text>
<text text-anchor="start" x="470.674" y="-552.5" font-family="Helvetica,sans-Serif" font-size="10.00">/ADVRHumanoids/ROSEndEffector</text>
<text text-anchor="start" x="470.674" y="-541.5" font-family="Helvetica,sans-Serif" font-size="10.00">/include/ros_end_effector</text>
<text text-anchor="middle" x="552.174" y="-530.5" font-family="Helvetica,sans-Serif" font-size="10.00">/GraspingActions/ActionGeneric.h</text>
</g>
<!-- Node2 -->
<g id="node2" class="node"><title>Node2</title>
<g id="a_node2"><a xlink:href="ActionComposed_8h.html" target="_top" xlink:title="/home/travis/build\l/ADVRHumanoids/ROSEndEffector\l/include/ros_end_effector\l/GraspingActions/ActionComposed.h">
<polygon fill="none" stroke="black" points="261.674,-434.5 261.674,-486.5 452.674,-486.5 452.674,-434.5 261.674,-434.5"/>
<text text-anchor="start" x="269.674" y="-474.5" font-family="Helvetica,sans-Serif" font-size="10.00">/home/travis/build</text>
<text text-anchor="start" x="269.674" y="-463.5" font-family="Helvetica,sans-Serif" font-size="10.00">/ADVRHumanoids/ROSEndEffector</text>
<text text-anchor="start" x="269.674" y="-452.5" font-family="Helvetica,sans-Serif" font-size="10.00">/include/ros_end_effector</text>
<text text-anchor="middle" x="357.174" y="-441.5" font-family="Helvetica,sans-Serif" font-size="10.00">/GraspingActions/ActionComposed.h</text>
</a>
</g>
</g>
<!-- Node1&#45;&gt;Node2 -->
<g id="edge1" class="edge"><title>Node1&#45;&gt;Node2</title>
<path fill="none" stroke="midnightblue" d="M486.713,-519.295C462.889,-508.665 436.194,-496.755 413.255,-486.521"/>
<polygon fill="midnightblue" stroke="midnightblue" points="485.475,-522.575 496.033,-523.453 488.327,-516.182 485.475,-522.575"/>
</g>
<!-- Node9 -->
<g id="node9" class="node"><title>Node9</title>
<g id="a_node9"><a xlink:href="UniversalFindActions_8cpp.html" target="_top" xlink:title="/home/travis/build\l/ADVRHumanoids/ROSEndEffector\l/src/UniversalFindActions.cpp">
<polygon fill="none" stroke="black" points="325.674,-173 325.674,-214 504.674,-214 504.674,-173 325.674,-173"/>
<text text-anchor="start" x="333.674" y="-202" font-family="Helvetica,sans-Serif" font-size="10.00">/home/travis/build</text>
<text text-anchor="start" x="333.674" y="-191" font-family="Helvetica,sans-Serif" font-size="10.00">/ADVRHumanoids/ROSEndEffector</text>
<text text-anchor="middle" x="415.174" y="-180" font-family="Helvetica,sans-Serif" font-size="10.00">/src/UniversalFindActions.cpp</text>
</a>
</g>
</g>
<!-- Node1&#45;&gt;Node9 -->
<g id="edge22" class="edge"><title>Node1&#45;&gt;Node9</title>
<path fill="none" stroke="midnightblue" d="M552.668,-513.197C551.904,-455.211 543.607,-338.059 493.174,-256 482.609,-238.811 465.409,-224.488 449.845,-214.001"/>
<polygon fill="midnightblue" stroke="midnightblue" points="549.169,-513.336 552.731,-523.314 556.169,-513.292 549.169,-513.336"/>
</g>
<!-- Node10 -->
<g id="node10" class="node"><title>Node10</title>
<g id="a_node10"><a xlink:href="MapActionHandler_8h.html" target="_top" xlink:title="/home/travis/build\l/ADVRHumanoids/ROSEndEffector\l/include/ros_end_effector\l/MapActionHandler.h">
<polygon fill="none" stroke="black" points="561.674,-256.5 561.674,-308.5 740.674,-308.5 740.674,-256.5 561.674,-256.5"/>
<text text-anchor="start" x="569.674" y="-296.5" font-family="Helvetica,sans-Serif" font-size="10.00">/home/travis/build</text>
<text text-anchor="start" x="569.674" y="-285.5" font-family="Helvetica,sans-Serif" font-size="10.00">/ADVRHumanoids/ROSEndEffector</text>
<text text-anchor="start" x="569.674" y="-274.5" font-family="Helvetica,sans-Serif" font-size="10.00">/include/ros_end_effector</text>
<text text-anchor="middle" x="651.174" y="-263.5" font-family="Helvetica,sans-Serif" font-size="10.00">/MapActionHandler.h</text>
</a>
</g>
</g>
<!-- Node1&#45;&gt;Node10 -->
<g id="edge20" class="edge"><title>Node1&#45;&gt;Node10</title>
<path fill="none" stroke="midnightblue" d="M563.066,-513.735C570.369,-490.933 580.403,-460.538 590.174,-434 606.586,-389.42 627.82,-338.324 640.418,-308.603"/>
<polygon fill="midnightblue" stroke="midnightblue" points="559.713,-512.731 560.014,-523.322 566.383,-514.855 559.713,-512.731"/>
</g>
<!-- Node16 -->
<g id="node16" class="node"><title>Node16</title>
<g id="a_node16"><a xlink:href="ActionGeneric_8cpp.html" target="_top" xlink:title="/home/travis/build\l/ADVRHumanoids/ROSEndEffector\l/src/GraspingActions/ActionGeneric.cpp">
<polygon fill="none" stroke="black" points="599.674,-440 599.674,-481 804.674,-481 804.674,-440 599.674,-440"/>
<text text-anchor="start" x="607.674" y="-469" font-family="Helvetica,sans-Serif" font-size="10.00">/home/travis/build</text>
<text text-anchor="start" x="607.674" y="-458" font-family="Helvetica,sans-Serif" font-size="10.00">/ADVRHumanoids/ROSEndEffector</text>
<text text-anchor="middle" x="702.174" y="-447" font-family="Helvetica,sans-Serif" font-size="10.00">/src/GraspingActions/ActionGeneric.cpp</text>
</a>
</g>
</g>
<!-- Node1&#45;&gt;Node16 -->
<g id="edge21" class="edge"><title>Node1&#45;&gt;Node16</title>
<path fill="none" stroke="midnightblue" d="M604.464,-518.171C625.677,-505.868 649.565,-492.013 668.411,-481.082"/>
<polygon fill="midnightblue" stroke="midnightblue" points="602.454,-515.291 595.56,-523.336 605.966,-521.346 602.454,-515.291"/>
</g>
<!-- Node3 -->
<g id="node3" class="node"><title>Node3</title>
<g id="a_node3"><a xlink:href="UniversalRosEndEffectorExecutor_8h.html" target="_top" xlink:title="/home/travis/build\l/ADVRHumanoids/ROSEndEffector\l/include/ros_end_effector\l/UniversalRosEndEffectorExecutor.h">
<polygon fill="none" stroke="black" points="203.674,-78.5 203.674,-130.5 390.674,-130.5 390.674,-78.5 203.674,-78.5"/>
<text text-anchor="start" x="211.674" y="-118.5" font-family="Helvetica,sans-Serif" font-size="10.00">/home/travis/build</text>
<text text-anchor="start" x="211.674" y="-107.5" font-family="Helvetica,sans-Serif" font-size="10.00">/ADVRHumanoids/ROSEndEffector</text>
<text text-anchor="start" x="211.674" y="-96.5" font-family="Helvetica,sans-Serif" font-size="10.00">/include/ros_end_effector</text>
<text text-anchor="middle" x="297.174" y="-85.5" font-family="Helvetica,sans-Serif" font-size="10.00">/UniversalRosEndEffectorExecutor.h</text>
</a>
</g>
</g>
<!-- Node2&#45;&gt;Node3 -->
<g id="edge2" class="edge"><title>Node2&#45;&gt;Node3</title>
<path fill="none" stroke="midnightblue" d="M251.063,-453.12C169.61,-445.745 66.7245,-430.197 40.1737,-398 6.5831,-357.266 -36.0618,-274.661 55.1737,-167 74.6166,-144.057 144.073,-127.918 203.617,-117.947"/>
<polygon fill="midnightblue" stroke="midnightblue" points="251.122,-456.638 261.388,-454.022 251.731,-449.665 251.122,-456.638"/>
</g>
<!-- Node6 -->
<g id="node6" class="node"><title>Node6</title>
<g id="a_node6"><a xlink:href="YamlWorker_8h.html" target="_top" xlink:title="/home/travis/build\l/ADVRHumanoids/ROSEndEffector\l/include/ros_end_effector\l/YamlWorker.h">
<polygon fill="none" stroke="black" points="49.6737,-345.5 49.6737,-397.5 228.674,-397.5 228.674,-345.5 49.6737,-345.5"/>
<text text-anchor="start" x="57.6737" y="-385.5" font-family="Helvetica,sans-Serif" font-size="10.00">/home/travis/build</text>
<text text-anchor="start" x="57.6737" y="-374.5" font-family="Helvetica,sans-Serif" font-size="10.00">/ADVRHumanoids/ROSEndEffector</text>
<text text-anchor="start" x="57.6737" y="-363.5" font-family="Helvetica,sans-Serif" font-size="10.00">/include/ros_end_effector</text>
<text text-anchor="middle" x="139.174" y="-352.5" font-family="Helvetica,sans-Serif" font-size="10.00">/YamlWorker.h</text>
</a>
</g>
</g>
<!-- Node2&#45;&gt;Node6 -->
<g id="edge5" class="edge"><title>Node2&#45;&gt;Node6</title>
<path fill="none" stroke="midnightblue" d="M285.051,-430.717C258.151,-419.982 227.855,-407.891 201.87,-397.521"/>
<polygon fill="midnightblue" stroke="midnightblue" points="283.826,-433.997 294.412,-434.453 286.421,-427.495 283.826,-433.997"/>
</g>
<!-- Node2&#45;&gt;Node9 -->
<g id="edge19" class="edge"><title>Node2&#45;&gt;Node9</title>
<path fill="none" stroke="midnightblue" d="M444.408,-429.134C457.06,-420.973 468.411,-410.75 476.174,-398 483.029,-386.74 485.089,-279.975 475.174,-256 468.333,-239.459 454.722,-224.912 442.19,-214.124"/>
<polygon fill="midnightblue" stroke="midnightblue" points="442.268,-426.334 435.469,-434.46 445.851,-432.348 442.268,-426.334"/>
</g>
<!-- Node15 -->
<g id="node15" class="node"><title>Node15</title>
<g id="a_node15"><a xlink:href="ActionComposed_8cpp.html" target="_top" xlink:title="/home/travis/build\l/ADVRHumanoids/ROSEndEffector\l/src/GraspingActions/ActionComposed.cpp">
<polygon fill="none" stroke="black" points="247.174,-351 247.174,-392 467.174,-392 467.174,-351 247.174,-351"/>
<text text-anchor="start" x="255.174" y="-380" font-family="Helvetica,sans-Serif" font-size="10.00">/home/travis/build</text>
<text text-anchor="start" x="255.174" y="-369" font-family="Helvetica,sans-Serif" font-size="10.00">/ADVRHumanoids/ROSEndEffector</text>
<text text-anchor="middle" x="357.174" y="-358" font-family="Helvetica,sans-Serif" font-size="10.00">/src/GraspingActions/ActionComposed.cpp</text>
</a>
</g>
</g>
<!-- Node2&#45;&gt;Node15 -->
<g id="edge18" class="edge"><title>Node2&#45;&gt;Node15</title>
<path fill="none" stroke="midnightblue" d="M357.174,-424.155C357.174,-413.21 357.174,-401.549 357.174,-392.082"/>
<polygon fill="midnightblue" stroke="midnightblue" points="353.674,-424.336 357.174,-434.336 360.674,-424.336 353.674,-424.336"/>
</g>
<!-- Node4 -->
<g id="node4" class="node"><title>Node4</title>
<g id="a_node4"><a xlink:href="UniversalRosEndEffector_8cpp.html" target="_top" xlink:title="/home/travis/build\l/ADVRHumanoids/ROSEndEffector\l/src/UniversalRosEndEffector.cpp">
<polygon fill="none" stroke="black" points="100.674,-0.5 100.674,-41.5 279.674,-41.5 279.674,-0.5 100.674,-0.5"/>
<text text-anchor="start" x="108.674" y="-29.5" font-family="Helvetica,sans-Serif" font-size="10.00">/home/travis/build</text>
<text text-anchor="start" x="108.674" y="-18.5" font-family="Helvetica,sans-Serif" font-size="10.00">/ADVRHumanoids/ROSEndEffector</text>
<text text-anchor="middle" x="190.174" y="-7.5" font-family="Helvetica,sans-Serif" font-size="10.00">/src/UniversalRosEndEffector.cpp</text>
</a>
</g>
</g>
<!-- Node3&#45;&gt;Node4 -->
<g id="edge3" class="edge"><title>Node3&#45;&gt;Node4</title>
<path fill="none" stroke="midnightblue" d="M256.012,-72.1475C242.585,-61.921 228.063,-50.8594 216.082,-41.7338"/>
<polygon fill="midnightblue" stroke="midnightblue" points="254.121,-75.1073 264.197,-78.3823 258.363,-69.5386 254.121,-75.1073"/>
</g>
<!-- Node5 -->
<g id="node5" class="node"><title>Node5</title>
<g id="a_node5"><a xlink:href="UniversalRosEndEffectorExecutor_8cpp.html" target="_top" xlink:title="/home/travis/build\l/ADVRHumanoids/ROSEndEffector\l/src/UniversalRosEndEffectorExecutor.cpp">
<polygon fill="none" stroke="black" points="297.674,-0.5 297.674,-41.5 512.674,-41.5 512.674,-0.5 297.674,-0.5"/>
<text text-anchor="start" x="305.674" y="-29.5" font-family="Helvetica,sans-Serif" font-size="10.00">/home/travis/build</text>
<text text-anchor="start" x="305.674" y="-18.5" font-family="Helvetica,sans-Serif" font-size="10.00">/ADVRHumanoids/ROSEndEffector</text>
<text text-anchor="middle" x="405.174" y="-7.5" font-family="Helvetica,sans-Serif" font-size="10.00">/src/UniversalRosEndEffectorExecutor.cpp</text>
</a>
</g>
</g>
<!-- Node3&#45;&gt;Node5 -->
<g id="edge4" class="edge"><title>Node3&#45;&gt;Node5</title>
<path fill="none" stroke="midnightblue" d="M338.72,-72.1475C352.272,-61.921 366.931,-50.8594 379.023,-41.7338"/>
<polygon fill="midnightblue" stroke="midnightblue" points="336.332,-69.5648 330.458,-78.3823 340.549,-75.1524 336.332,-69.5648"/>
</g>
<!-- Node6&#45;&gt;Node3 -->
<g id="edge16" class="edge"><title>Node6&#45;&gt;Node3</title>
<path fill="none" stroke="midnightblue" d="M99.9744,-337.858C92.3131,-329.334 85.3627,-319.547 81.1737,-309 57.8783,-250.346 43.1453,-217.367 81.1737,-167 96.5036,-146.696 152.334,-131.111 203.39,-120.71"/>
<polygon fill="midnightblue" stroke="midnightblue" points="97.6954,-340.537 107.151,-345.316 102.739,-335.683 97.6954,-340.537"/>
</g>
<!-- Node7 -->
<g id="node7" class="node"><title>Node7</title>
<g id="a_node7"><a xlink:href="FindActions_8h.html" target="_top" xlink:title="/home/travis/build\l/ADVRHumanoids/ROSEndEffector\l/include/ros_end_effector\l/FindActions.h">
<polygon fill="none" stroke="black" points="90.6737,-256.5 90.6737,-308.5 269.674,-308.5 269.674,-256.5 90.6737,-256.5"/>
<text text-anchor="start" x="98.6737" y="-296.5" font-family="Helvetica,sans-Serif" font-size="10.00">/home/travis/build</text>
<text text-anchor="start" x="98.6737" y="-285.5" font-family="Helvetica,sans-Serif" font-size="10.00">/ADVRHumanoids/ROSEndEffector</text>
<text text-anchor="start" x="98.6737" y="-274.5" font-family="Helvetica,sans-Serif" font-size="10.00">/include/ros_end_effector</text>
<text text-anchor="middle" x="180.174" y="-263.5" font-family="Helvetica,sans-Serif" font-size="10.00">/FindActions.h</text>
</a>
</g>
</g>
<!-- Node6&#45;&gt;Node7 -->
<g id="edge6" class="edge"><title>Node6&#45;&gt;Node7</title>
<path fill="none" stroke="midnightblue" d="M155.404,-336.061C159.723,-326.896 164.307,-317.169 168.341,-308.607"/>
<polygon fill="midnightblue" stroke="midnightblue" points="152.13,-334.798 151.033,-345.336 158.462,-337.782 152.13,-334.798"/>
</g>
<!-- Node6&#45;&gt;Node10 -->
<g id="edge9" class="edge"><title>Node6&#45;&gt;Node10</title>
<path fill="none" stroke="midnightblue" d="M238.879,-345.138C286.133,-337.069 454.794,-312.245 561.454,-296.618"/>
<polygon fill="midnightblue" stroke="midnightblue" points="238.135,-341.716 228.923,-346.948 239.387,-348.603 238.135,-341.716"/>
</g>
<!-- Node14 -->
<g id="node14" class="node"><title>Node14</title>
<g id="a_node14"><a xlink:href="YamlWorker_8cpp.html" target="_top" xlink:title="/home/travis/build\l/ADVRHumanoids/ROSEndEffector\l/src/YamlWorker.cpp">
<polygon fill="none" stroke="black" points="287.674,-262 287.674,-303 466.674,-303 466.674,-262 287.674,-262"/>
<text text-anchor="start" x="295.674" y="-291" font-family="Helvetica,sans-Serif" font-size="10.00">/home/travis/build</text>
<text text-anchor="start" x="295.674" y="-280" font-family="Helvetica,sans-Serif" font-size="10.00">/ADVRHumanoids/ROSEndEffector</text>
<text text-anchor="middle" x="377.174" y="-269" font-family="Helvetica,sans-Serif" font-size="10.00">/src/YamlWorker.cpp</text>
</a>
</g>
</g>
<!-- Node6&#45;&gt;Node14 -->
<g id="edge17" class="edge"><title>Node6&#45;&gt;Node14</title>
<path fill="none" stroke="midnightblue" d="M217.346,-341.925C252.104,-329.219 292.151,-314.58 323.463,-303.134"/>
<polygon fill="midnightblue" stroke="midnightblue" points="215.884,-338.732 207.694,-345.453 218.288,-345.307 215.884,-338.732"/>
</g>
<!-- Node8 -->
<g id="node8" class="node"><title>Node8</title>
<g id="a_node8"><a xlink:href="FindActions_8cpp.html" target="_top" xlink:title="/home/travis/build\l/ADVRHumanoids/ROSEndEffector\l/src/FindActions.cpp">
<polygon fill="none" stroke="black" points="90.6737,-173 90.6737,-214 269.674,-214 269.674,-173 90.6737,-173"/>
<text text-anchor="start" x="98.6737" y="-202" font-family="Helvetica,sans-Serif" font-size="10.00">/home/travis/build</text>
<text text-anchor="start" x="98.6737" y="-191" font-family="Helvetica,sans-Serif" font-size="10.00">/ADVRHumanoids/ROSEndEffector</text>
<text text-anchor="middle" x="180.174" y="-180" font-family="Helvetica,sans-Serif" font-size="10.00">/src/FindActions.cpp</text>
</a>
</g>
</g>
<!-- Node7&#45;&gt;Node8 -->
<g id="edge7" class="edge"><title>Node7&#45;&gt;Node8</title>
<path fill="none" stroke="midnightblue" d="M180.174,-246.155C180.174,-235.21 180.174,-223.549 180.174,-214.082"/>
<polygon fill="midnightblue" stroke="midnightblue" points="176.674,-246.336 180.174,-256.336 183.674,-246.336 176.674,-246.336"/>
</g>
<!-- Node7&#45;&gt;Node9 -->
<g id="edge8" class="edge"><title>Node7&#45;&gt;Node9</title>
<path fill="none" stroke="midnightblue" d="M257.36,-252.925C291.681,-240.219 331.222,-225.58 362.14,-214.134"/>
<polygon fill="midnightblue" stroke="midnightblue" points="255.993,-249.699 247.83,-256.453 258.423,-256.263 255.993,-249.699"/>
</g>
<!-- Node10&#45;&gt;Node3 -->
<g id="edge13" class="edge"><title>Node10&#45;&gt;Node3</title>
<path fill="none" stroke="midnightblue" d="M593.872,-251.028C579.476,-242.034 564.601,-231.488 552.174,-220 530.698,-200.148 537.197,-183.679 513.174,-167 477.143,-141.983 431.066,-127.077 390.731,-118.226"/>
<polygon fill="midnightblue" stroke="midnightblue" points="592.384,-254.219 602.748,-256.421 596.02,-248.237 592.384,-254.219"/>
</g>
<!-- Node10&#45;&gt;Node9 -->
<g id="edge15" class="edge"><title>Node10&#45;&gt;Node9</title>
<path fill="none" stroke="midnightblue" d="M573.659,-252.925C539.192,-240.219 499.482,-225.58 468.433,-214.134"/>
<polygon fill="midnightblue" stroke="midnightblue" points="572.636,-256.278 583.229,-256.453 575.057,-249.71 572.636,-256.278"/>
</g>
<!-- Node11 -->
<g id="node11" class="node"><title>Node11</title>
<g id="a_node11"><a xlink:href="RosServiceHandler_8h.html" target="_top" xlink:title="/home/travis/build\l/ADVRHumanoids/ROSEndEffector\l/include/ros_end_effector\l/RosServiceHandler.h">
<polygon fill="none" stroke="black" points="758.674,-167.5 758.674,-219.5 937.674,-219.5 937.674,-167.5 758.674,-167.5"/>
<text text-anchor="start" x="766.674" y="-207.5" font-family="Helvetica,sans-Serif" font-size="10.00">/home/travis/build</text>
<text text-anchor="start" x="766.674" y="-196.5" font-family="Helvetica,sans-Serif" font-size="10.00">/ADVRHumanoids/ROSEndEffector</text>
<text text-anchor="start" x="766.674" y="-185.5" font-family="Helvetica,sans-Serif" font-size="10.00">/include/ros_end_effector</text>
<text text-anchor="middle" x="848.174" y="-174.5" font-family="Helvetica,sans-Serif" font-size="10.00">/RosServiceHandler.h</text>
</a>
</g>
</g>
<!-- Node10&#45;&gt;Node11 -->
<g id="edge10" class="edge"><title>Node10&#45;&gt;Node11</title>
<path fill="none" stroke="midnightblue" d="M717.306,-252.295C741.374,-241.665 768.343,-229.755 791.517,-219.521"/>
<polygon fill="midnightblue" stroke="midnightblue" points="715.624,-249.211 707.89,-256.453 718.452,-255.615 715.624,-249.211"/>
</g>
<!-- Node13 -->
<g id="node13" class="node"><title>Node13</title>
<g id="a_node13"><a xlink:href="MapActionHandler_8cpp.html" target="_top" xlink:title="/home/travis/build\l/ADVRHumanoids/ROSEndEffector\l/src/MapActionHandler.cpp">
<polygon fill="none" stroke="black" points="561.674,-173 561.674,-214 740.674,-214 740.674,-173 561.674,-173"/>
<text text-anchor="start" x="569.674" y="-202" font-family="Helvetica,sans-Serif" font-size="10.00">/home/travis/build</text>
<text text-anchor="start" x="569.674" y="-191" font-family="Helvetica,sans-Serif" font-size="10.00">/ADVRHumanoids/ROSEndEffector</text>
<text text-anchor="middle" x="651.174" y="-180" font-family="Helvetica,sans-Serif" font-size="10.00">/src/MapActionHandler.cpp</text>
</a>
</g>
</g>
<!-- Node10&#45;&gt;Node13 -->
<g id="edge14" class="edge"><title>Node10&#45;&gt;Node13</title>
<path fill="none" stroke="midnightblue" d="M651.174,-246.155C651.174,-235.21 651.174,-223.549 651.174,-214.082"/>
<polygon fill="midnightblue" stroke="midnightblue" points="647.674,-246.336 651.174,-256.336 654.674,-246.336 647.674,-246.336"/>
</g>
<!-- Node11&#45;&gt;Node3 -->
<g id="edge11" class="edge"><title>Node11&#45;&gt;Node3</title>
<path fill="none" stroke="midnightblue" d="M748.34,-166.932C618.928,-141.981 480.203,-124.824 390.757,-115.002"/>
<polygon fill="midnightblue" stroke="midnightblue" points="747.95,-170.421 758.435,-168.898 749.288,-163.551 747.95,-170.421"/>
</g>
<!-- Node12 -->
<g id="node12" class="node"><title>Node12</title>
<g id="a_node12"><a xlink:href="RosServiceHandler_8cpp.html" target="_top" xlink:title="/home/travis/build\l/ADVRHumanoids/ROSEndEffector\l/src/RosServiceHandler.cpp">
<polygon fill="none" stroke="black" points="758.674,-84 758.674,-125 937.674,-125 937.674,-84 758.674,-84"/>
<text text-anchor="start" x="766.674" y="-113" font-family="Helvetica,sans-Serif" font-size="10.00">/home/travis/build</text>
<text text-anchor="start" x="766.674" y="-102" font-family="Helvetica,sans-Serif" font-size="10.00">/ADVRHumanoids/ROSEndEffector</text>
<text text-anchor="middle" x="848.174" y="-91" font-family="Helvetica,sans-Serif" font-size="10.00">/src/RosServiceHandler.cpp</text>
</a>
</g>
</g>
<!-- Node11&#45;&gt;Node12 -->
<g id="edge12" class="edge"><title>Node11&#45;&gt;Node12</title>
<path fill="none" stroke="midnightblue" d="M848.174,-157.155C848.174,-146.21 848.174,-134.549 848.174,-125.082"/>
<polygon fill="midnightblue" stroke="midnightblue" points="844.674,-157.336 848.174,-167.336 851.674,-157.336 844.674,-157.336"/>
</g>
</g>
</svg>
