<?xml version="1.0" encoding="UTF-8" standalone="no"?>
<!DOCTYPE svg PUBLIC "-//W3C//DTD SVG 1.1//EN"
 "http://www.w3.org/Graphics/SVG/1.1/DTD/svg11.dtd">
<!-- Generated by graphviz version 2.38.0 (20140413.2041)
 -->
<!-- Title: /home/travis/build/ADVRHumanoids/ROSEndEffector/src/GraspingActions/ActionTrig.cpp Pages: 1 -->
<svg width="707pt" height="363pt"
 viewBox="0.00 0.00 707.00 363.00" xmlns="http://www.w3.org/2000/svg" xmlns:xlink="http://www.w3.org/1999/xlink">
<g id="graph0" class="graph" transform="scale(1 1) rotate(0) translate(4 359)">
<title>/home/travis/build/ADVRHumanoids/ROSEndEffector/src/GraspingActions/ActionTrig.cpp</title>
<!-- Node1 -->
<g id="node1" class="node"><title>Node1</title>
<polygon fill="#bfbfbf" stroke="black" points="514,-313.5 514,-354.5 699,-354.5 699,-313.5 514,-313.5"/>
<text text-anchor="start" x="522" y="-342.5" font-family="Helvetica,sans-Serif" font-size="10.00">/home/travis/build</text>
<text text-anchor="start" x="522" y="-331.5" font-family="Helvetica,sans-Serif" font-size="10.00">/ADVRHumanoids/ROSEndEffector</text>
<text text-anchor="middle" x="606.5" y="-320.5" font-family="Helvetica,sans-Serif" font-size="10.00">/src/GraspingActions/ActionTrig.cpp</text>
</g>
<!-- Node2 -->
<g id="node2" class="node"><title>Node2</title>
<g id="a_node2"><a xlink:href="ActionTrig_8h.html" target="_top" xlink:title="ros_end_effector/Grasping\lActions/ActionTrig.h">
<polygon fill="none" stroke="black" points="535,-246.5 535,-276.5 678,-276.5 678,-246.5 535,-246.5"/>
<text text-anchor="start" x="543" y="-264.5" font-family="Helvetica,sans-Serif" font-size="10.00">ros_end_effector/Grasping</text>
<text text-anchor="middle" x="606.5" y="-253.5" font-family="Helvetica,sans-Serif" font-size="10.00">Actions/ActionTrig.h</text>
</a>
</g>
</g>
<!-- Node1&#45;&gt;Node2 -->
<g id="edge1" class="edge"><title>Node1&#45;&gt;Node2</title>
<path fill="none" stroke="midnightblue" d="M606.5,-313.362C606.5,-305.226 606.5,-295.7 606.5,-287.105"/>
<polygon fill="midnightblue" stroke="midnightblue" points="610,-286.892 606.5,-276.892 603,-286.892 610,-286.892"/>
</g>
<!-- Node3 -->
<g id="node3" class="node"><title>Node3</title>
<g id="a_node3"><a xlink:href="ActionPrimitive_8h.html" target="_top" xlink:title="ros_end_effector/Grasping\lActions/ActionPrimitive.h">
<polygon fill="none" stroke="black" points="394,-179.5 394,-209.5 537,-209.5 537,-179.5 394,-179.5"/>
<text text-anchor="start" x="402" y="-197.5" font-family="Helvetica,sans-Serif" font-size="10.00">ros_end_effector/Grasping</text>
<text text-anchor="middle" x="465.5" y="-186.5" font-family="Helvetica,sans-Serif" font-size="10.00">Actions/ActionPrimitive.h</text>
</a>
</g>
</g>
<!-- Node2&#45;&gt;Node3 -->
<g id="edge2" class="edge"><title>Node2&#45;&gt;Node3</title>
<path fill="none" stroke="midnightblue" d="M575.905,-246.396C555.211,-236.856 527.677,-224.163 505.283,-213.84"/>
<polygon fill="midnightblue" stroke="midnightblue" points="506.582,-210.585 496.035,-209.577 503.651,-216.942 506.582,-210.585"/>
</g>
<!-- Node8 -->
<g id="node8" class="node"><title>Node8</title>
<polygon fill="none" stroke="#bfbfbf" points="549,-0.5 549,-19.5 608,-19.5 608,-0.5 549,-0.5"/>
<text text-anchor="middle" x="578.5" y="-7.5" font-family="Helvetica,sans-Serif" font-size="10.00">iostream</text>
</g>
<!-- Node2&#45;&gt;Node8 -->
<g id="edge26" class="edge"><title>Node2&#45;&gt;Node8</title>
<path fill="none" stroke="midnightblue" d="M617.59,-246.333C643.35,-211.579 702.187,-120.256 663.5,-56 653.493,-39.3786 635.058,-28.575 617.909,-21.7323"/>
<polygon fill="midnightblue" stroke="midnightblue" points="618.627,-18.2697 608.033,-18.147 616.239,-24.8495 618.627,-18.2697"/>
</g>
<!-- Node10 -->
<g id="node10" class="node"><title>Node10</title>
<polygon fill="none" stroke="#bfbfbf" points="558.5,-56.5 558.5,-75.5 654.5,-75.5 654.5,-56.5 558.5,-56.5"/>
<text text-anchor="middle" x="606.5" y="-63.5" font-family="Helvetica,sans-Serif" font-size="10.00">yaml&#45;cpp/yaml.h</text>
</g>
<!-- Node2&#45;&gt;Node10 -->
<g id="edge25" class="edge"><title>Node2&#45;&gt;Node10</title>
<path fill="none" stroke="midnightblue" d="M606.5,-246.271C606.5,-211.944 606.5,-124.566 606.5,-85.9001"/>
<polygon fill="midnightblue" stroke="midnightblue" points="610,-85.5769 606.5,-75.5769 603,-85.5769 610,-85.5769"/>
</g>
<!-- Node4 -->
<g id="node4" class="node"><title>Node4</title>
<polygon fill="none" stroke="#bfbfbf" points="427.5,-118 427.5,-137 459.5,-137 459.5,-118 427.5,-118"/>
<text text-anchor="middle" x="443.5" y="-125" font-family="Helvetica,sans-Serif" font-size="10.00">set</text>
</g>
<!-- Node3&#45;&gt;Node4 -->
<g id="edge3" class="edge"><title>Node3&#45;&gt;Node4</title>
<path fill="none" stroke="midnightblue" d="M460.726,-179.396C457.5,-169.863 453.208,-157.182 449.715,-146.862"/>
<polygon fill="midnightblue" stroke="midnightblue" points="452.964,-145.545 446.443,-137.195 446.334,-147.789 452.964,-145.545"/>
</g>
<!-- Node5 -->
<g id="node5" class="node"><title>Node5</title>
<polygon fill="none" stroke="#bfbfbf" points="458.5,-56.5 458.5,-75.5 502.5,-75.5 502.5,-56.5 458.5,-56.5"/>
<text text-anchor="middle" x="480.5" y="-63.5" font-family="Helvetica,sans-Serif" font-size="10.00">string</text>
</g>
<!-- Node3&#45;&gt;Node5 -->
<g id="edge4" class="edge"><title>Node3&#45;&gt;Node5</title>
<path fill="none" stroke="midnightblue" d="M467.163,-179.479C469.861,-156.719 475.199,-111.702 478.24,-86.0582"/>
<polygon fill="midnightblue" stroke="midnightblue" points="481.756,-86.1311 479.458,-75.7885 474.805,-85.3068 481.756,-86.1311"/>
</g>
<!-- Node6 -->
<g id="node6" class="node"><title>Node6</title>
<polygon fill="none" stroke="#bfbfbf" points="112.5,-56.5 112.5,-75.5 150.5,-75.5 150.5,-56.5 112.5,-56.5"/>
<text text-anchor="middle" x="131.5" y="-63.5" font-family="Helvetica,sans-Serif" font-size="10.00">map</text>
</g>
<!-- Node3&#45;&gt;Node6 -->
<g id="edge5" class="edge"><title>Node3&#45;&gt;Node6</title>
<path fill="none" stroke="midnightblue" d="M393.751,-188.426C342.946,-182.577 274.361,-170.005 219.5,-143 189.616,-128.29 161.697,-100.97 145.625,-83.4062"/>
<polygon fill="midnightblue" stroke="midnightblue" points="147.995,-80.8047 138.73,-75.6656 142.768,-85.4607 147.995,-80.8047"/>
</g>
<!-- Node7 -->
<g id="node7" class="node"><title>Node7</title>
<polygon fill="none" stroke="#bfbfbf" points="169,-56.5 169,-75.5 216,-75.5 216,-56.5 169,-56.5"/>
<text text-anchor="middle" x="192.5" y="-63.5" font-family="Helvetica,sans-Serif" font-size="10.00">vector</text>
</g>
<!-- Node3&#45;&gt;Node7 -->
<g id="edge6" class="edge"><title>Node3&#45;&gt;Node7</title>
<path fill="none" stroke="midnightblue" d="M393.93,-187.467C351.43,-181.25 297.928,-168.628 256.5,-143 232.735,-128.299 213.419,-101.769 202.437,-84.2691"/>
<polygon fill="midnightblue" stroke="midnightblue" points="205.378,-82.3671 197.219,-75.6081 199.382,-85.9798 205.378,-82.3671"/>
</g>
<!-- Node3&#45;&gt;Node8 -->
<g id="edge7" class="edge"><title>Node3&#45;&gt;Node8</title>
<path fill="none" stroke="midnightblue" d="M473.975,-179.377C489.005,-154.386 521.397,-100.782 549.5,-56 555.315,-46.7338 561.913,-36.4756 567.345,-28.0964"/>
<polygon fill="midnightblue" stroke="midnightblue" points="570.361,-29.8789 572.879,-19.5875 564.493,-26.0626 570.361,-29.8789"/>
</g>
<!-- Node9 -->
<g id="node9" class="node"><title>Node9</title>
<g id="a_node9"><a xlink:href="Action_8h.html" target="_top" xlink:title="ros_end_effector/Grasping\lActions/Action.h">
<polygon fill="none" stroke="black" points="266,-112.5 266,-142.5 409,-142.5 409,-112.5 266,-112.5"/>
<text text-anchor="start" x="274" y="-130.5" font-family="Helvetica,sans-Serif" font-size="10.00">ros_end_effector/Grasping</text>
<text text-anchor="middle" x="337.5" y="-119.5" font-family="Helvetica,sans-Serif" font-size="10.00">Actions/Action.h</text>
</a>
</g>
</g>
<!-- Node3&#45;&gt;Node9 -->
<g id="edge8" class="edge"><title>Node3&#45;&gt;Node9</title>
<path fill="none" stroke="midnightblue" d="M437.726,-179.396C419.107,-169.941 394.39,-157.39 374.161,-147.117"/>
<polygon fill="midnightblue" stroke="midnightblue" points="375.721,-143.984 365.22,-142.577 372.551,-150.225 375.721,-143.984"/>
</g>
<!-- Node3&#45;&gt;Node10 -->
<g id="edge24" class="edge"><title>Node3&#45;&gt;Node10</title>
<path fill="none" stroke="midnightblue" d="M491.855,-179.492C507.952,-170.271 528.455,-157.291 544.5,-143 564.483,-125.201 583.297,-100.614 594.846,-84.2806"/>
<polygon fill="midnightblue" stroke="midnightblue" points="597.95,-85.9465 600.76,-75.7313 592.193,-81.964 597.95,-85.9465"/>
</g>
<!-- Node9&#45;&gt;Node5 -->
<g id="edge10" class="edge"><title>Node9&#45;&gt;Node5</title>
<path fill="none" stroke="midnightblue" d="M371.389,-112.399C395.382,-102.416 427.274,-89.1465 450.377,-79.5335"/>
<polygon fill="midnightblue" stroke="midnightblue" points="451.804,-82.7308 459.692,-75.6578 449.115,-76.268 451.804,-82.7308"/>
</g>
<!-- Node9&#45;&gt;Node6 -->
<g id="edge11" class="edge"><title>Node9&#45;&gt;Node6</title>
<path fill="none" stroke="midnightblue" d="M286.34,-112.49C252.919,-103.223 208.109,-90.581 160.343,-76.1865"/>
<polygon fill="midnightblue" stroke="midnightblue" points="161.337,-72.8308 150.752,-73.2847 159.31,-79.5309 161.337,-72.8308"/>
</g>
<!-- Node9&#45;&gt;Node7 -->
<g id="edge9" class="edge"><title>Node9&#45;&gt;Node7</title>
<path fill="none" stroke="midnightblue" d="M303.137,-112.399C278.809,-102.416 246.471,-89.1465 223.044,-79.5335"/>
<polygon fill="midnightblue" stroke="midnightblue" points="224.179,-76.2161 213.599,-75.6578 221.521,-82.6921 224.179,-76.2161"/>
</g>
<!-- Node9&#45;&gt;Node8 -->
<g id="edge14" class="edge"><title>Node9&#45;&gt;Node8</title>
<path fill="none" stroke="midnightblue" d="M356.947,-112.343C378.689,-96.9792 415.343,-72.446 449.5,-56 478.461,-42.0561 512.907,-30.2653 538.917,-22.2552"/>
<polygon fill="midnightblue" stroke="midnightblue" points="540.237,-25.5127 548.797,-19.269 538.212,-18.8121 540.237,-25.5127"/>
</g>
<!-- Node9&#45;&gt;Node10 -->
<g id="edge12" class="edge"><title>Node9&#45;&gt;Node10</title>
<path fill="none" stroke="midnightblue" d="M400.909,-112.475C449.039,-101.829 514.214,-87.4127 558.174,-77.6892"/>
<polygon fill="midnightblue" stroke="midnightblue" points="559.035,-81.0835 568.043,-75.5064 557.523,-74.2487 559.035,-81.0835"/>
</g>
<!-- Node11 -->
<g id="node11" class="node"><title>Node11</title>
<polygon fill="none" stroke="#bfbfbf" points="0,-0.5 0,-19.5 57,-19.5 57,-0.5 0,-0.5"/>
<text text-anchor="middle" x="28.5" y="-7.5" font-family="Helvetica,sans-Serif" font-size="10.00">memory</text>
</g>
<!-- Node9&#45;&gt;Node11 -->
<g id="edge13" class="edge"><title>Node9&#45;&gt;Node11</title>
<path fill="none" stroke="midnightblue" d="M316.803,-112.42C289.668,-94.1681 243.313,-63.7534 224.5,-56 160.773,-29.7364 138.564,-35.6991 67.0645,-20.0511"/>
<polygon fill="midnightblue" stroke="midnightblue" points="67.653,-16.5959 57.1277,-17.8078 66.1115,-23.4241 67.653,-16.5959"/>
</g>
<!-- Node12 -->
<g id="node12" class="node"><title>Node12</title>
<g id="a_node12"><a xlink:href="Utils_8h.html" target="_top" xlink:title="ros_end_effector/Utils.h">
<polygon fill="none" stroke="black" points="272.5,-56.5 272.5,-75.5 402.5,-75.5 402.5,-56.5 272.5,-56.5"/>
<text text-anchor="middle" x="337.5" y="-63.5" font-family="Helvetica,sans-Serif" font-size="10.00">ros_end_effector/Utils.h</text>
</a>
</g>
</g>
<!-- Node9&#45;&gt;Node12 -->
<g id="edge15" class="edge"><title>Node9&#45;&gt;Node12</title>
<path fill="none" stroke="midnightblue" d="M337.5,-112.399C337.5,-104.466 337.5,-94.458 337.5,-85.8583"/>
<polygon fill="midnightblue" stroke="midnightblue" points="341,-85.6577 337.5,-75.6578 334,-85.6578 341,-85.6577"/>
</g>
<!-- Node12&#45;&gt;Node8 -->
<g id="edge18" class="edge"><title>Node12&#45;&gt;Node8</title>
<path fill="none" stroke="midnightblue" d="M376.244,-56.4606C414.857,-47.9297 476.117,-34.3407 538.651,-20.1796"/>
<polygon fill="midnightblue" stroke="midnightblue" points="539.716,-23.527 548.695,-17.9027 538.168,-16.7002 539.716,-23.527"/>
</g>
<!-- Node12&#45;&gt;Node11 -->
<g id="edge17" class="edge"><title>Node12&#45;&gt;Node11</title>
<path fill="none" stroke="midnightblue" d="M279.141,-56.483C226.373,-48.5163 146.335,-35.7744 67.2306,-20.0276"/>
<polygon fill="midnightblue" stroke="midnightblue" points="67.5814,-16.5283 57.088,-17.9908 66.2032,-23.3913 67.5814,-16.5283"/>
</g>
<!-- Node13 -->
<g id="node13" class="node"><title>Node13</title>
<polygon fill="none" stroke="#bfbfbf" points="484,-0.5 484,-19.5 531,-19.5 531,-0.5 484,-0.5"/>
<text text-anchor="middle" x="507.5" y="-7.5" font-family="Helvetica,sans-Serif" font-size="10.00">cmath</text>
</g>
<!-- Node12&#45;&gt;Node13 -->
<g id="edge16" class="edge"><title>Node12&#45;&gt;Node13</title>
<path fill="none" stroke="midnightblue" d="M364.437,-56.4435C394.174,-46.9976 442.073,-31.7826 474.156,-21.5916"/>
<polygon fill="midnightblue" stroke="midnightblue" points="475.503,-24.8362 483.974,-18.473 473.383,-18.1647 475.503,-24.8362"/>
</g>
<!-- Node14 -->
<g id="node14" class="node"><title>Node14</title>
<polygon fill="none" stroke="#bfbfbf" points="75.5,-0.5 75.5,-19.5 123.5,-19.5 123.5,-0.5 75.5,-0.5"/>
<text text-anchor="middle" x="99.5" y="-7.5" font-family="Helvetica,sans-Serif" font-size="10.00">dlfcn.h</text>
</g>
<!-- Node12&#45;&gt;Node14 -->
<g id="edge19" class="edge"><title>Node12&#45;&gt;Node14</title>
<path fill="none" stroke="midnightblue" d="M295.74,-56.4739C256.323,-48.2833 195.345,-35.2461 133.538,-20.1642"/>
<polygon fill="midnightblue" stroke="midnightblue" points="134.16,-16.7132 123.614,-17.7266 132.491,-23.5111 134.16,-16.7132"/>
</g>
<!-- Node15 -->
<g id="node15" class="node"><title>Node15</title>
<polygon fill="none" stroke="#bfbfbf" points="141.5,-0.5 141.5,-19.5 257.5,-19.5 257.5,-0.5 141.5,-0.5"/>
<text text-anchor="middle" x="199.5" y="-7.5" font-family="Helvetica,sans-Serif" font-size="10.00">boost/filesystem.hpp</text>
</g>
<!-- Node12&#45;&gt;Node15 -->
<g id="edge20" class="edge"><title>Node12&#45;&gt;Node15</title>
<path fill="none" stroke="midnightblue" d="M315.633,-56.4435C292.721,-47.4776 256.525,-33.314 230.634,-23.1827"/>
<polygon fill="midnightblue" stroke="midnightblue" points="231.852,-19.9011 221.264,-19.5164 229.301,-26.4198 231.852,-19.9011"/>
</g>
<!-- Node16 -->
<g id="node16" class="node"><title>Node16</title>
<polygon fill="none" stroke="#bfbfbf" points="275.5,-0.5 275.5,-19.5 329.5,-19.5 329.5,-0.5 275.5,-0.5"/>
<text text-anchor="middle" x="302.5" y="-7.5" font-family="Helvetica,sans-Serif" font-size="10.00">fstream</text>
</g>
<!-- Node12&#45;&gt;Node16 -->
<g id="edge21" class="edge"><title>Node12&#45;&gt;Node16</title>
<path fill="none" stroke="midnightblue" d="M331.72,-56.083C326.828,-48.5341 319.673,-37.4948 313.667,-28.2298"/>
<polygon fill="midnightblue" stroke="midnightblue" points="316.548,-26.239 308.172,-19.7511 310.674,-30.0463 316.548,-26.239"/>
</g>
<!-- Node17 -->
<g id="node17" class="node"><title>Node17</title>
<polygon fill="none" stroke="#bfbfbf" points="347.5,-0.5 347.5,-19.5 397.5,-19.5 397.5,-0.5 347.5,-0.5"/>
<text text-anchor="middle" x="372.5" y="-7.5" font-family="Helvetica,sans-Serif" font-size="10.00">chrono</text>
</g>
<!-- Node12&#45;&gt;Node17 -->
<g id="edge22" class="edge"><title>Node12&#45;&gt;Node17</title>
<path fill="none" stroke="midnightblue" d="M343.28,-56.083C348.172,-48.5341 355.327,-37.4948 361.333,-28.2298"/>
<polygon fill="midnightblue" stroke="midnightblue" points="364.326,-30.0463 366.828,-19.7511 358.452,-26.239 364.326,-30.0463"/>
</g>
<!-- Node18 -->
<g id="node18" class="node"><title>Node18</title>
<polygon fill="none" stroke="#bfbfbf" points="415.5,-0.5 415.5,-19.5 465.5,-19.5 465.5,-0.5 415.5,-0.5"/>
<text text-anchor="middle" x="440.5" y="-7.5" font-family="Helvetica,sans-Serif" font-size="10.00">atomic</text>
</g>
<!-- Node12&#45;&gt;Node18 -->
<g id="edge23" class="edge"><title>Node12&#45;&gt;Node18</title>
<path fill="none" stroke="midnightblue" d="M354.049,-56.324C370.492,-47.7034 395.935,-34.3643 414.968,-24.3855"/>
<polygon fill="midnightblue" stroke="midnightblue" points="416.761,-27.3977 423.992,-19.6545 413.511,-21.198 416.761,-27.3977"/>
</g>
</g>
</svg>
