<?xml version="1.0" encoding="UTF-8" standalone="no"?>
<!DOCTYPE svg PUBLIC "-//W3C//DTD SVG 1.1//EN"
 "http://www.w3.org/Graphics/SVG/1.1/DTD/svg11.dtd">
<!-- Generated by graphviz version 2.38.0 (20140413.2041)
 -->
<!-- Title: /home/travis/build/ADVRHumanoids/ROSEndEffector/include/end_effector/GraspingActions/ActionGeneric.h Pages: 1 -->
<svg width="709pt" height="240pt"
 viewBox="0.00 0.00 709.00 240.00" xmlns="http://www.w3.org/2000/svg" xmlns:xlink="http://www.w3.org/1999/xlink">
<g id="graph0" class="graph" transform="scale(1 1) rotate(0) translate(4 236)">
<title>/home/travis/build/ADVRHumanoids/ROSEndEffector/include/end_effector/GraspingActions/ActionGeneric.h</title>
<!-- Node1 -->
<g id="node1" class="node"><title>Node1</title>
<polygon fill="#bfbfbf" stroke="black" points="209.5,-179.5 209.5,-231.5 406.5,-231.5 406.5,-179.5 209.5,-179.5"/>
<text text-anchor="start" x="217.5" y="-219.5" font-family="Helvetica,sans-Serif" font-size="10.00">/home/travis/build</text>
<text text-anchor="start" x="217.5" y="-208.5" font-family="Helvetica,sans-Serif" font-size="10.00">/ADVRHumanoids/ROSEndEffector</text>
<text text-anchor="start" x="217.5" y="-197.5" font-family="Helvetica,sans-Serif" font-size="10.00">/include/end_effector/GraspingActions</text>
<text text-anchor="middle" x="308" y="-186.5" font-family="Helvetica,sans-Serif" font-size="10.00">/ActionGeneric.h</text>
</g>
<!-- Node2 -->
<g id="node2" class="node"><title>Node2</title>
<g id="a_node2"><a xlink:href="Action_8h.html" target="_top" xlink:title="end_effector/GraspingActions\l/Action.h">
<polygon fill="none" stroke="black" points="104,-112.5 104,-142.5 262,-142.5 262,-112.5 104,-112.5"/>
<text text-anchor="start" x="112" y="-130.5" font-family="Helvetica,sans-Serif" font-size="10.00">end_effector/GraspingActions</text>
<text text-anchor="middle" x="183" y="-119.5" font-family="Helvetica,sans-Serif" font-size="10.00">/Action.h</text>
</a>
</g>
</g>
<!-- Node1&#45;&gt;Node2 -->
<g id="edge1" class="edge"><title>Node1&#45;&gt;Node2</title>
<path fill="none" stroke="midnightblue" d="M266.724,-179.404C249.96,-169.212 230.885,-157.614 215.18,-148.066"/>
<polygon fill="midnightblue" stroke="midnightblue" points="216.729,-144.911 206.366,-142.707 213.092,-150.892 216.729,-144.911"/>
</g>
<!-- Node6 -->
<g id="node6" class="node"><title>Node6</title>
<polygon fill="none" stroke="#bfbfbf" points="260,-56.5 260,-75.5 356,-75.5 356,-56.5 260,-56.5"/>
<text text-anchor="middle" x="308" y="-63.5" font-family="Helvetica,sans-Serif" font-size="10.00">yaml&#45;cpp/yaml.h</text>
</g>
<!-- Node1&#45;&gt;Node6 -->
<g id="edge17" class="edge"><title>Node1&#45;&gt;Node6</title>
<path fill="none" stroke="midnightblue" d="M308,-179.28C308,-152.241 308,-109.94 308,-85.7156"/>
<polygon fill="midnightblue" stroke="midnightblue" points="311.5,-85.699 308,-75.699 304.5,-85.6991 311.5,-85.699"/>
</g>
<!-- Node9 -->
<g id="node9" class="node"><title>Node9</title>
<g id="a_node9"><a xlink:href="Utils_8h.html" target="_top" xlink:title="end_effector/Utils.h">
<polygon fill="none" stroke="black" points="374,-56.5 374,-75.5 484,-75.5 484,-56.5 374,-56.5"/>
<text text-anchor="middle" x="429" y="-63.5" font-family="Helvetica,sans-Serif" font-size="10.00">end_effector/Utils.h</text>
</a>
</g>
</g>
<!-- Node1&#45;&gt;Node9 -->
<g id="edge18" class="edge"><title>Node1&#45;&gt;Node9</title>
<path fill="none" stroke="midnightblue" d="M330.193,-179.28C354.742,-151.384 393.585,-107.245 414.507,-83.4692"/>
<polygon fill="midnightblue" stroke="midnightblue" points="417.366,-85.5184 421.345,-75.699 412.111,-80.894 417.366,-85.5184"/>
</g>
<!-- Node3 -->
<g id="node3" class="node"><title>Node3</title>
<polygon fill="none" stroke="#bfbfbf" points="194.5,-56.5 194.5,-75.5 241.5,-75.5 241.5,-56.5 194.5,-56.5"/>
<text text-anchor="middle" x="218" y="-63.5" font-family="Helvetica,sans-Serif" font-size="10.00">vector</text>
</g>
<!-- Node2&#45;&gt;Node3 -->
<g id="edge2" class="edge"><title>Node2&#45;&gt;Node3</title>
<path fill="none" stroke="midnightblue" d="M191.295,-112.399C196.223,-104.021 202.514,-93.3269 207.751,-84.4229"/>
<polygon fill="midnightblue" stroke="midnightblue" points="210.854,-86.0517 212.907,-75.6578 204.82,-82.5025 210.854,-86.0517"/>
</g>
<!-- Node4 -->
<g id="node4" class="node"><title>Node4</title>
<polygon fill="none" stroke="#bfbfbf" points="0,-56.5 0,-75.5 44,-75.5 44,-56.5 0,-56.5"/>
<text text-anchor="middle" x="22" y="-63.5" font-family="Helvetica,sans-Serif" font-size="10.00">string</text>
</g>
<!-- Node2&#45;&gt;Node4 -->
<g id="edge3" class="edge"><title>Node2&#45;&gt;Node4</title>
<path fill="none" stroke="midnightblue" d="M144.845,-112.399C116.976,-102.1 79.64,-88.3017 53.4704,-78.6304"/>
<polygon fill="midnightblue" stroke="midnightblue" points="54.6236,-75.3252 44.0304,-75.1417 52.197,-81.8912 54.6236,-75.3252"/>
</g>
<!-- Node5 -->
<g id="node5" class="node"><title>Node5</title>
<polygon fill="none" stroke="#bfbfbf" points="62,-56.5 62,-75.5 100,-75.5 100,-56.5 62,-56.5"/>
<text text-anchor="middle" x="81" y="-63.5" font-family="Helvetica,sans-Serif" font-size="10.00">map</text>
</g>
<!-- Node2&#45;&gt;Node5 -->
<g id="edge4" class="edge"><title>Node2&#45;&gt;Node5</title>
<path fill="none" stroke="midnightblue" d="M158.827,-112.399C142.478,-102.862 120.985,-90.3248 104.73,-80.8422"/>
<polygon fill="midnightblue" stroke="midnightblue" points="106.243,-77.6733 95.8419,-75.6578 102.716,-83.7198 106.243,-77.6733"/>
</g>
<!-- Node2&#45;&gt;Node6 -->
<g id="edge5" class="edge"><title>Node2&#45;&gt;Node6</title>
<path fill="none" stroke="midnightblue" d="M212.623,-112.399C233.222,-102.595 260.48,-89.6194 280.58,-80.052"/>
<polygon fill="midnightblue" stroke="midnightblue" points="282.286,-83.116 289.811,-75.6578 279.278,-76.7955 282.286,-83.116"/>
</g>
<!-- Node7 -->
<g id="node7" class="node"><title>Node7</title>
<polygon fill="none" stroke="#bfbfbf" points="93.5,-0.5 93.5,-19.5 150.5,-19.5 150.5,-0.5 93.5,-0.5"/>
<text text-anchor="middle" x="122" y="-7.5" font-family="Helvetica,sans-Serif" font-size="10.00">memory</text>
</g>
<!-- Node2&#45;&gt;Node7 -->
<g id="edge6" class="edge"><title>Node2&#45;&gt;Node7</title>
<path fill="none" stroke="midnightblue" d="M175.52,-112.337C164.38,-91.2433 143.442,-51.6 131.321,-28.6481"/>
<polygon fill="midnightblue" stroke="midnightblue" points="134.344,-26.8774 126.579,-19.6695 128.154,-30.1465 134.344,-26.8774"/>
</g>
<!-- Node8 -->
<g id="node8" class="node"><title>Node8</title>
<polygon fill="none" stroke="#bfbfbf" points="168.5,-0.5 168.5,-19.5 227.5,-19.5 227.5,-0.5 168.5,-0.5"/>
<text text-anchor="middle" x="198" y="-7.5" font-family="Helvetica,sans-Serif" font-size="10.00">iostream</text>
</g>
<!-- Node2&#45;&gt;Node8 -->
<g id="edge7" class="edge"><title>Node2&#45;&gt;Node8</title>
<path fill="none" stroke="midnightblue" d="M182.359,-112.36C181.953,-98.0568 181.979,-75.357 185,-56 186.395,-47.0614 189.032,-37.3933 191.569,-29.318"/>
<polygon fill="midnightblue" stroke="midnightblue" points="194.895,-30.4084 194.733,-19.8148 188.253,-28.1973 194.895,-30.4084"/>
</g>
<!-- Node2&#45;&gt;Node9 -->
<g id="edge8" class="edge"><title>Node2&#45;&gt;Node9</title>
<path fill="none" stroke="midnightblue" d="M240.987,-112.475C284.724,-101.896 343.852,-87.5946 384.042,-77.874"/>
<polygon fill="midnightblue" stroke="midnightblue" points="384.934,-81.2593 393.831,-75.5064 383.288,-74.4554 384.934,-81.2593"/>
</g>
<!-- Node9&#45;&gt;Node7 -->
<g id="edge10" class="edge"><title>Node9&#45;&gt;Node7</title>
<path fill="none" stroke="midnightblue" d="M373.967,-57.0395C321.496,-49.1766 240.045,-36.2642 160.791,-20.2564"/>
<polygon fill="midnightblue" stroke="midnightblue" points="161.134,-16.7544 150.637,-18.1856 159.735,-23.6133 161.134,-16.7544"/>
</g>
<!-- Node9&#45;&gt;Node8 -->
<g id="edge11" class="edge"><title>Node9&#45;&gt;Node8</title>
<path fill="none" stroke="midnightblue" d="M392.351,-56.4949C355.57,-47.9503 297.014,-34.3233 237.766,-20.41"/>
<polygon fill="midnightblue" stroke="midnightblue" points="238.404,-16.9646 227.868,-18.0845 236.803,-23.779 238.404,-16.9646"/>
</g>
<!-- Node10 -->
<g id="node10" class="node"><title>Node10</title>
<polygon fill="none" stroke="#bfbfbf" points="245.5,-0.5 245.5,-19.5 292.5,-19.5 292.5,-0.5 245.5,-0.5"/>
<text text-anchor="middle" x="269" y="-7.5" font-family="Helvetica,sans-Serif" font-size="10.00">cmath</text>
</g>
<!-- Node9&#45;&gt;Node10 -->
<g id="edge9" class="edge"><title>Node9&#45;&gt;Node10</title>
<path fill="none" stroke="midnightblue" d="M403.648,-56.4435C376.256,-47.1988 332.491,-32.4281 302.332,-22.2495"/>
<polygon fill="midnightblue" stroke="midnightblue" points="303.263,-18.8699 292.669,-18.9883 301.025,-25.5024 303.263,-18.8699"/>
</g>
<!-- Node11 -->
<g id="node11" class="node"><title>Node11</title>
<polygon fill="none" stroke="#bfbfbf" points="311,-0.5 311,-19.5 359,-19.5 359,-0.5 311,-0.5"/>
<text text-anchor="middle" x="335" y="-7.5" font-family="Helvetica,sans-Serif" font-size="10.00">dlfcn.h</text>
</g>
<!-- Node9&#45;&gt;Node11 -->
<g id="edge12" class="edge"><title>Node9&#45;&gt;Node11</title>
<path fill="none" stroke="midnightblue" d="M413.897,-56.324C399.097,-47.8215 376.306,-34.7288 359.018,-24.7975"/>
<polygon fill="midnightblue" stroke="midnightblue" points="360.48,-21.6009 350.065,-19.6545 356.993,-27.6707 360.48,-21.6009"/>
</g>
<!-- Node12 -->
<g id="node12" class="node"><title>Node12</title>
<polygon fill="none" stroke="#bfbfbf" points="377,-0.5 377,-19.5 493,-19.5 493,-0.5 377,-0.5"/>
<text text-anchor="middle" x="435" y="-7.5" font-family="Helvetica,sans-Serif" font-size="10.00">boost/filesystem.hpp</text>
</g>
<!-- Node9&#45;&gt;Node12 -->
<g id="edge13" class="edge"><title>Node9&#45;&gt;Node12</title>
<path fill="none" stroke="midnightblue" d="M429.991,-56.083C430.786,-48.9272 431.929,-38.6353 432.923,-29.6911"/>
<polygon fill="midnightblue" stroke="midnightblue" points="436.402,-30.0765 434.028,-19.7511 429.445,-29.3034 436.402,-30.0765"/>
</g>
<!-- Node13 -->
<g id="node13" class="node"><title>Node13</title>
<polygon fill="none" stroke="#bfbfbf" points="511,-0.5 511,-19.5 565,-19.5 565,-0.5 511,-0.5"/>
<text text-anchor="middle" x="538" y="-7.5" font-family="Helvetica,sans-Serif" font-size="10.00">fstream</text>
</g>
<!-- Node9&#45;&gt;Node13 -->
<g id="edge14" class="edge"><title>Node9&#45;&gt;Node13</title>
<path fill="none" stroke="midnightblue" d="M446.513,-56.324C464.072,-47.6247 491.331,-34.1202 511.531,-24.113"/>
<polygon fill="midnightblue" stroke="midnightblue" points="513.124,-27.23 520.531,-19.6545 510.016,-20.9575 513.124,-27.23"/>
</g>
<!-- Node14 -->
<g id="node14" class="node"><title>Node14</title>
<polygon fill="none" stroke="#bfbfbf" points="583,-0.5 583,-19.5 633,-19.5 633,-0.5 583,-0.5"/>
<text text-anchor="middle" x="608" y="-7.5" font-family="Helvetica,sans-Serif" font-size="10.00">chrono</text>
</g>
<!-- Node9&#45;&gt;Node14 -->
<g id="edge15" class="edge"><title>Node9&#45;&gt;Node14</title>
<path fill="none" stroke="midnightblue" d="M457.363,-56.4435C488.721,-46.9836 539.259,-31.7377 573.04,-21.5465"/>
<polygon fill="midnightblue" stroke="midnightblue" points="574.384,-24.7971 582.947,-18.558 572.362,-18.0954 574.384,-24.7971"/>
</g>
<!-- Node15 -->
<g id="node15" class="node"><title>Node15</title>
<polygon fill="none" stroke="#bfbfbf" points="651,-0.5 651,-19.5 701,-19.5 701,-0.5 651,-0.5"/>
<text text-anchor="middle" x="676" y="-7.5" font-family="Helvetica,sans-Serif" font-size="10.00">atomic</text>
</g>
<!-- Node9&#45;&gt;Node15 -->
<g id="edge16" class="edge"><title>Node9&#45;&gt;Node15</title>
<path fill="none" stroke="midnightblue" d="M472.794,-56.4214C513.849,-48.2285 577.161,-35.2099 640.959,-20.1599"/>
<polygon fill="midnightblue" stroke="midnightblue" points="641.864,-23.5423 650.785,-17.8264 640.247,-16.7317 641.864,-23.5423"/>
</g>
</g>
</svg>
