<?xml version="1.0" encoding="UTF-8" standalone="no"?>
<!DOCTYPE svg PUBLIC "-//W3C//DTD SVG 1.1//EN"
 "http://www.w3.org/Graphics/SVG/1.1/DTD/svg11.dtd">
<!-- Generated by graphviz version 2.38.0 (20140413.2041)
 -->
<!-- Title: /home/travis/build/ADVRHumanoids/ROSEndEffector/include/ros_end_effector/GraspingActions/ActionComposed.h Pages: 1 -->
<svg width="835pt" height="307pt"
 viewBox="0.00 0.00 834.94 307.00" xmlns="http://www.w3.org/2000/svg" xmlns:xlink="http://www.w3.org/1999/xlink">
<g id="graph0" class="graph" transform="scale(1 1) rotate(0) translate(4 303)">
<title>/home/travis/build/ADVRHumanoids/ROSEndEffector/include/ros_end_effector/GraspingActions/ActionComposed.h</title>
<!-- Node1 -->
<g id="node1" class="node"><title>Node1</title>
<polygon fill="#bfbfbf" stroke="black" points="37.4376,-246.5 37.4376,-298.5 228.438,-298.5 228.438,-246.5 37.4376,-246.5"/>
<text text-anchor="start" x="45.4376" y="-286.5" font-family="Helvetica,sans-Serif" font-size="10.00">/home/travis/build</text>
<text text-anchor="start" x="45.4376" y="-275.5" font-family="Helvetica,sans-Serif" font-size="10.00">/ADVRHumanoids/ROSEndEffector</text>
<text text-anchor="start" x="45.4376" y="-264.5" font-family="Helvetica,sans-Serif" font-size="10.00">/include/ros_end_effector</text>
<text text-anchor="middle" x="132.938" y="-253.5" font-family="Helvetica,sans-Serif" font-size="10.00">/GraspingActions/ActionComposed.h</text>
</g>
<!-- Node2 -->
<g id="node2" class="node"><title>Node2</title>
<polygon fill="none" stroke="#bfbfbf" points="25.4376,-56.5 25.4376,-75.5 72.4376,-75.5 72.4376,-56.5 25.4376,-56.5"/>
<text text-anchor="middle" x="48.9376" y="-63.5" font-family="Helvetica,sans-Serif" font-size="10.00">vector</text>
</g>
<!-- Node1&#45;&gt;Node2 -->
<g id="edge1" class="edge"><title>Node1&#45;&gt;Node2</title>
<path fill="none" stroke="midnightblue" d="M122.638,-246.424C105.492,-204.683 71.496,-121.919 56.4281,-85.2359"/>
<polygon fill="midnightblue" stroke="midnightblue" points="59.5908,-83.7237 52.5537,-75.8035 53.1158,-86.3834 59.5908,-83.7237"/>
</g>
<!-- Node3 -->
<g id="node3" class="node"><title>Node3</title>
<polygon fill="none" stroke="#bfbfbf" points="90.9376,-56.5 90.9376,-75.5 134.938,-75.5 134.938,-56.5 90.9376,-56.5"/>
<text text-anchor="middle" x="112.938" y="-63.5" font-family="Helvetica,sans-Serif" font-size="10.00">string</text>
</g>
<!-- Node1&#45;&gt;Node3 -->
<g id="edge2" class="edge"><title>Node1&#45;&gt;Node3</title>
<path fill="none" stroke="midnightblue" d="M130.485,-246.424C126.438,-205.041 118.447,-123.337 114.814,-86.1906"/>
<polygon fill="midnightblue" stroke="midnightblue" points="118.255,-85.4153 113.799,-75.8035 111.289,-86.0967 118.255,-85.4153"/>
</g>
<!-- Node4 -->
<g id="node4" class="node"><title>Node4</title>
<g id="a_node4"><a xlink:href="ActionGeneric_8h.html" target="_top" xlink:title="ros_end_effector/Grasping\lActions/ActionGeneric.h">
<polygon fill="none" stroke="black" points="205.438,-179.5 205.438,-209.5 348.438,-209.5 348.438,-179.5 205.438,-179.5"/>
<text text-anchor="start" x="213.438" y="-197.5" font-family="Helvetica,sans-Serif" font-size="10.00">ros_end_effector/Grasping</text>
<text text-anchor="middle" x="276.938" y="-186.5" font-family="Helvetica,sans-Serif" font-size="10.00">Actions/ActionGeneric.h</text>
</a>
</g>
</g>
<!-- Node1&#45;&gt;Node4 -->
<g id="edge3" class="edge"><title>Node1&#45;&gt;Node4</title>
<path fill="none" stroke="midnightblue" d="M180.488,-246.404C200.251,-235.974 222.803,-224.071 241.128,-214.4"/>
<polygon fill="midnightblue" stroke="midnightblue" points="242.81,-217.47 250.02,-209.707 239.542,-211.279 242.81,-217.47"/>
</g>
<!-- Node7 -->
<g id="node7" class="node"><title>Node7</title>
<polygon fill="none" stroke="#bfbfbf" points="152.938,-56.5 152.938,-75.5 248.938,-75.5 248.938,-56.5 152.938,-56.5"/>
<text text-anchor="middle" x="200.938" y="-63.5" font-family="Helvetica,sans-Serif" font-size="10.00">yaml&#45;cpp/yaml.h</text>
</g>
<!-- Node1&#45;&gt;Node7 -->
<g id="edge23" class="edge"><title>Node1&#45;&gt;Node7</title>
<path fill="none" stroke="midnightblue" d="M141.276,-246.424C155.096,-204.862 182.44,-122.629 194.716,-85.7107"/>
<polygon fill="midnightblue" stroke="midnightblue" points="198.176,-86.397 198.01,-75.8035 191.534,-84.1883 198.176,-86.397"/>
</g>
<!-- Node8 -->
<g id="node8" class="node"><title>Node8</title>
<polygon fill="none" stroke="#bfbfbf" points="218.438,-0.5 218.438,-19.5 275.438,-19.5 275.438,-0.5 218.438,-0.5"/>
<text text-anchor="middle" x="246.938" y="-7.5" font-family="Helvetica,sans-Serif" font-size="10.00">memory</text>
</g>
<!-- Node1&#45;&gt;Node8 -->
<g id="edge24" class="edge"><title>Node1&#45;&gt;Node8</title>
<path fill="none" stroke="midnightblue" d="M100.987,-246.363C51.077,-204.107 -34.6874,-117.439 15.9376,-56 39.8356,-26.9973 148.665,-16.4401 208.027,-12.795"/>
<polygon fill="midnightblue" stroke="midnightblue" points="208.374,-16.2809 218.156,-12.2106 207.971,-9.29249 208.374,-16.2809"/>
</g>
<!-- Node10 -->
<g id="node10" class="node"><title>Node10</title>
<g id="a_node10"><a xlink:href="Utils_8h.html" target="_top" xlink:title="ros_end_effector/Utils.h">
<polygon fill="none" stroke="black" points="398.938,-56.5 398.938,-75.5 528.938,-75.5 528.938,-56.5 398.938,-56.5"/>
<text text-anchor="middle" x="463.938" y="-63.5" font-family="Helvetica,sans-Serif" font-size="10.00">ros_end_effector/Utils.h</text>
</a>
</g>
</g>
<!-- Node1&#45;&gt;Node10 -->
<g id="edge22" class="edge"><title>Node1&#45;&gt;Node10</title>
<path fill="none" stroke="midnightblue" d="M228.651,-258.435C270.467,-249.51 318.603,-234.64 356.938,-210 406.15,-178.368 440.942,-115.689 455.839,-84.907"/>
<polygon fill="midnightblue" stroke="midnightblue" points="459.042,-86.3215 460.121,-75.7818 452.704,-83.3482 459.042,-86.3215"/>
</g>
<!-- Node5 -->
<g id="node5" class="node"><title>Node5</title>
<g id="a_node5"><a xlink:href="Action_8h.html" target="_top" xlink:title="ros_end_effector/Grasping\lActions/Action.h">
<polygon fill="none" stroke="black" points="227.438,-112.5 227.438,-142.5 370.438,-142.5 370.438,-112.5 227.438,-112.5"/>
<text text-anchor="start" x="235.438" y="-130.5" font-family="Helvetica,sans-Serif" font-size="10.00">ros_end_effector/Grasping</text>
<text text-anchor="middle" x="298.938" y="-119.5" font-family="Helvetica,sans-Serif" font-size="10.00">Actions/Action.h</text>
</a>
</g>
</g>
<!-- Node4&#45;&gt;Node5 -->
<g id="edge4" class="edge"><title>Node4&#45;&gt;Node5</title>
<path fill="none" stroke="midnightblue" d="M281.711,-179.396C284.392,-171.474 287.809,-161.379 290.892,-152.271"/>
<polygon fill="midnightblue" stroke="midnightblue" points="294.282,-153.171 294.173,-142.577 287.652,-150.927 294.282,-153.171"/>
</g>
<!-- Node4&#45;&gt;Node7 -->
<g id="edge20" class="edge"><title>Node4&#45;&gt;Node7</title>
<path fill="none" stroke="midnightblue" d="M254.109,-179.342C241.582,-170.414 226.832,-157.789 217.938,-143 207.396,-125.472 203.377,-102.12 201.852,-85.948"/>
<polygon fill="midnightblue" stroke="midnightblue" points="205.319,-85.357 201.126,-75.6275 198.337,-85.8486 205.319,-85.357"/>
</g>
<!-- Node4&#45;&gt;Node10 -->
<g id="edge21" class="edge"><title>Node4&#45;&gt;Node10</title>
<path fill="none" stroke="midnightblue" d="M311.278,-179.3C331.688,-170.188 357.659,-157.391 378.938,-143 405.43,-125.083 432.338,-99.5111 448.586,-83.0822"/>
<polygon fill="midnightblue" stroke="midnightblue" points="451.185,-85.43 455.657,-75.8252 446.171,-80.5448 451.185,-85.43"/>
</g>
<!-- Node5&#45;&gt;Node2 -->
<g id="edge5" class="edge"><title>Node5&#45;&gt;Node2</title>
<path fill="none" stroke="midnightblue" d="M235.641,-112.43C194.649,-103.165 139.885,-90.5032 82.6572,-76.1109"/>
<polygon fill="midnightblue" stroke="midnightblue" points="83.2552,-72.652 72.7025,-73.596 81.5406,-79.4388 83.2552,-72.652"/>
</g>
<!-- Node5&#45;&gt;Node3 -->
<g id="edge6" class="edge"><title>Node5&#45;&gt;Node3</title>
<path fill="none" stroke="midnightblue" d="M254.858,-112.399C220.981,-101.562 174.996,-86.8521 144.67,-77.151"/>
<polygon fill="midnightblue" stroke="midnightblue" points="145.617,-73.7793 135.026,-74.066 143.484,-80.4465 145.617,-73.7793"/>
</g>
<!-- Node6 -->
<g id="node6" class="node"><title>Node6</title>
<polygon fill="none" stroke="#bfbfbf" points="266.938,-56.5 266.938,-75.5 304.938,-75.5 304.938,-56.5 266.938,-56.5"/>
<text text-anchor="middle" x="285.938" y="-63.5" font-family="Helvetica,sans-Serif" font-size="10.00">map</text>
</g>
<!-- Node5&#45;&gt;Node6 -->
<g id="edge7" class="edge"><title>Node5&#45;&gt;Node6</title>
<path fill="none" stroke="midnightblue" d="M295.857,-112.399C294.104,-104.377 291.888,-94.2328 289.995,-85.569"/>
<polygon fill="midnightblue" stroke="midnightblue" points="293.383,-84.6802 287.829,-75.6578 286.544,-86.1744 293.383,-84.6802"/>
</g>
<!-- Node5&#45;&gt;Node7 -->
<g id="edge8" class="edge"><title>Node5&#45;&gt;Node7</title>
<path fill="none" stroke="midnightblue" d="M275.713,-112.399C260.151,-102.951 239.74,-90.5589 224.176,-81.1089"/>
<polygon fill="midnightblue" stroke="midnightblue" points="225.562,-77.8558 215.197,-75.6578 221.929,-83.8394 225.562,-77.8558"/>
</g>
<!-- Node5&#45;&gt;Node8 -->
<g id="edge9" class="edge"><title>Node5&#45;&gt;Node8</title>
<path fill="none" stroke="midnightblue" d="M307.236,-112.474C314.827,-97.6597 323.531,-74.0001 313.938,-56 306.387,-41.8339 292.177,-31.3348 278.779,-24.0576"/>
<polygon fill="midnightblue" stroke="midnightblue" points="280.235,-20.8724 269.726,-19.5289 277.104,-27.1329 280.235,-20.8724"/>
</g>
<!-- Node9 -->
<g id="node9" class="node"><title>Node9</title>
<polygon fill="none" stroke="#bfbfbf" points="293.438,-0.5 293.438,-19.5 352.438,-19.5 352.438,-0.5 293.438,-0.5"/>
<text text-anchor="middle" x="322.938" y="-7.5" font-family="Helvetica,sans-Serif" font-size="10.00">iostream</text>
</g>
<!-- Node5&#45;&gt;Node9 -->
<g id="edge10" class="edge"><title>Node5&#45;&gt;Node9</title>
<path fill="none" stroke="midnightblue" d="M318.136,-112.454C328.818,-103.397 341.105,-90.6029 346.938,-76 353.329,-59.999 345.055,-41.5551 336.526,-28.4111"/>
<polygon fill="midnightblue" stroke="midnightblue" points="339.118,-26.0166 330.476,-19.8876 333.41,-30.0682 339.118,-26.0166"/>
</g>
<!-- Node5&#45;&gt;Node10 -->
<g id="edge11" class="edge"><title>Node5&#45;&gt;Node10</title>
<path fill="none" stroke="midnightblue" d="M338.04,-112.399C366.095,-102.283 403.51,-88.7905 430.246,-79.1493"/>
<polygon fill="midnightblue" stroke="midnightblue" points="431.709,-82.3426 439.929,-75.6578 429.334,-75.7576 431.709,-82.3426"/>
</g>
<!-- Node10&#45;&gt;Node8 -->
<g id="edge13" class="edge"><title>Node10&#45;&gt;Node8</title>
<path fill="none" stroke="midnightblue" d="M429.553,-56.4435C390.332,-46.6835 326.361,-30.7643 285.483,-20.5919"/>
<polygon fill="midnightblue" stroke="midnightblue" points="286.166,-17.1553 275.617,-18.1368 284.476,-23.9481 286.166,-17.1553"/>
</g>
<!-- Node10&#45;&gt;Node9 -->
<g id="edge14" class="edge"><title>Node10&#45;&gt;Node9</title>
<path fill="none" stroke="midnightblue" d="M441.596,-56.4435C418.185,-47.4776 381.202,-33.314 354.748,-23.1827"/>
<polygon fill="midnightblue" stroke="midnightblue" points="355.765,-19.8245 345.175,-19.5164 353.262,-26.3615 355.765,-19.8245"/>
</g>
<!-- Node11 -->
<g id="node11" class="node"><title>Node11</title>
<polygon fill="none" stroke="#bfbfbf" points="507.438,-0.5 507.438,-19.5 554.438,-19.5 554.438,-0.5 507.438,-0.5"/>
<text text-anchor="middle" x="530.938" y="-7.5" font-family="Helvetica,sans-Serif" font-size="10.00">cmath</text>
</g>
<!-- Node10&#45;&gt;Node11 -->
<g id="edge12" class="edge"><title>Node10&#45;&gt;Node11</title>
<path fill="none" stroke="midnightblue" d="M474.702,-56.324C484.704,-48.2631 499.824,-36.0765 511.868,-26.3695"/>
<polygon fill="midnightblue" stroke="midnightblue" points="514.387,-28.8343 519.977,-19.8339 509.995,-23.3841 514.387,-28.8343"/>
</g>
<!-- Node12 -->
<g id="node12" class="node"><title>Node12</title>
<polygon fill="none" stroke="#bfbfbf" points="572.938,-0.5 572.938,-19.5 620.938,-19.5 620.938,-0.5 572.938,-0.5"/>
<text text-anchor="middle" x="596.938" y="-7.5" font-family="Helvetica,sans-Serif" font-size="10.00">dlfcn.h</text>
</g>
<!-- Node10&#45;&gt;Node12 -->
<g id="edge15" class="edge"><title>Node10&#45;&gt;Node12</title>
<path fill="none" stroke="midnightblue" d="M485.012,-56.4435C506.997,-47.5171 541.672,-33.4387 566.602,-23.3168"/>
<polygon fill="midnightblue" stroke="midnightblue" points="568.013,-26.5213 575.962,-19.5164 565.38,-20.0355 568.013,-26.5213"/>
</g>
<!-- Node13 -->
<g id="node13" class="node"><title>Node13</title>
<polygon fill="none" stroke="#bfbfbf" points="638.938,-0.5 638.938,-19.5 754.938,-19.5 754.938,-0.5 638.938,-0.5"/>
<text text-anchor="middle" x="696.938" y="-7.5" font-family="Helvetica,sans-Serif" font-size="10.00">boost/filesystem.hpp</text>
</g>
<!-- Node10&#45;&gt;Node13 -->
<g id="edge16" class="edge"><title>Node10&#45;&gt;Node13</title>
<path fill="none" stroke="midnightblue" d="M500.857,-56.4435C541.333,-47.0629 606.358,-31.9926 650.322,-21.8036"/>
<polygon fill="midnightblue" stroke="midnightblue" points="651.239,-25.1839 660.191,-19.5164 649.659,-18.3646 651.239,-25.1839"/>
</g>
<!-- Node14 -->
<g id="node14" class="node"><title>Node14</title>
<polygon fill="none" stroke="#bfbfbf" points="772.938,-0.5 772.938,-19.5 826.938,-19.5 826.938,-0.5 772.938,-0.5"/>
<text text-anchor="middle" x="799.938" y="-7.5" font-family="Helvetica,sans-Serif" font-size="10.00">fstream</text>
</g>
<!-- Node10&#45;&gt;Node14 -->
<g id="edge17" class="edge"><title>Node10&#45;&gt;Node14</title>
<path fill="none" stroke="midnightblue" d="M529.209,-57.0482C587.928,-49.4764 676.735,-36.9935 762.922,-20.0419"/>
<polygon fill="midnightblue" stroke="midnightblue" points="763.749,-23.4462 772.874,-18.0621 762.383,-16.5807 763.749,-23.4462"/>
</g>
<!-- Node15 -->
<g id="node15" class="node"><title>Node15</title>
<polygon fill="none" stroke="#bfbfbf" points="370.938,-0.5 370.938,-19.5 420.938,-19.5 420.938,-0.5 370.938,-0.5"/>
<text text-anchor="middle" x="395.938" y="-7.5" font-family="Helvetica,sans-Serif" font-size="10.00">chrono</text>
</g>
<!-- Node10&#45;&gt;Node15 -->
<g id="edge18" class="edge"><title>Node10&#45;&gt;Node15</title>
<path fill="none" stroke="midnightblue" d="M453.012,-56.324C442.763,-48.1849 427.217,-35.8395 414.937,-26.0874"/>
<polygon fill="midnightblue" stroke="midnightblue" points="417.069,-23.3119 407.062,-19.8339 412.716,-28.7937 417.069,-23.3119"/>
</g>
<!-- Node16 -->
<g id="node16" class="node"><title>Node16</title>
<polygon fill="none" stroke="#bfbfbf" points="438.938,-0.5 438.938,-19.5 488.938,-19.5 488.938,-0.5 438.938,-0.5"/>
<text text-anchor="middle" x="463.938" y="-7.5" font-family="Helvetica,sans-Serif" font-size="10.00">atomic</text>
</g>
<!-- Node10&#45;&gt;Node16 -->
<g id="edge19" class="edge"><title>Node10&#45;&gt;Node16</title>
<path fill="none" stroke="midnightblue" d="M463.938,-56.083C463.938,-49.0059 463.938,-38.8611 463.938,-29.9865"/>
<polygon fill="midnightblue" stroke="midnightblue" points="467.438,-29.751 463.938,-19.7511 460.438,-29.7511 467.438,-29.751"/>
</g>
</g>
</svg>
