<?xml version="1.0" encoding="UTF-8" standalone="no"?>
<!DOCTYPE svg PUBLIC "-//W3C//DTD SVG 1.1//EN"
 "http://www.w3.org/Graphics/SVG/1.1/DTD/svg11.dtd">
<!-- Generated by graphviz version 2.38.0 (20140413.2041)
 -->
<!-- Title: /home/travis/build/ADVRHumanoids/ROSEndEffector/include/ros_end_effector/GraspingActions/ActionPrimitive.h Pages: 1 -->
<svg width="1758pt" height="684pt"
 viewBox="0.00 0.00 1757.59 684.00" xmlns="http://www.w3.org/2000/svg" xmlns:xlink="http://www.w3.org/1999/xlink">
<g id="graph0" class="graph" transform="scale(1 1) rotate(0) translate(4 680)">
<title>/home/travis/build/ADVRHumanoids/ROSEndEffector/include/ros_end_effector/GraspingActions/ActionPrimitive.h</title>
<!-- Node1 -->
<g id="node1" class="node"><title>Node1</title>
<polygon fill="#bfbfbf" stroke="black" points="1144.59,-623.5 1144.59,-675.5 1325.59,-675.5 1325.59,-623.5 1144.59,-623.5"/>
<text text-anchor="start" x="1152.59" y="-663.5" font-family="Helvetica,sans-Serif" font-size="10.00">/home/travis/build</text>
<text text-anchor="start" x="1152.59" y="-652.5" font-family="Helvetica,sans-Serif" font-size="10.00">/ADVRHumanoids/ROSEndEffector</text>
<text text-anchor="start" x="1152.59" y="-641.5" font-family="Helvetica,sans-Serif" font-size="10.00">/include/ros_end_effector</text>
<text text-anchor="middle" x="1235.09" y="-630.5" font-family="Helvetica,sans-Serif" font-size="10.00">/GraspingActions/ActionPrimitive.h</text>
</g>
<!-- Node2 -->
<g id="node2" class="node"><title>Node2</title>
<g id="a_node2"><a xlink:href="ActionPinchGeneric_8h.html" target="_top" xlink:title="/home/travis/build\l/ADVRHumanoids/ROSEndEffector\l/include/ros_end_effector\l/GraspingActions/ActionPinchGeneric.h">
<polygon fill="none" stroke="black" points="498.092,-534.5 498.092,-586.5 700.092,-586.5 700.092,-534.5 498.092,-534.5"/>
<text text-anchor="start" x="506.092" y="-574.5" font-family="Helvetica,sans-Serif" font-size="10.00">/home/travis/build</text>
<text text-anchor="start" x="506.092" y="-563.5" font-family="Helvetica,sans-Serif" font-size="10.00">/ADVRHumanoids/ROSEndEffector</text>
<text text-anchor="start" x="506.092" y="-552.5" font-family="Helvetica,sans-Serif" font-size="10.00">/include/ros_end_effector</text>
<text text-anchor="middle" x="599.092" y="-541.5" font-family="Helvetica,sans-Serif" font-size="10.00">/GraspingActions/ActionPinchGeneric.h</text>
</a>
</g>
</g>
<!-- Node1&#45;&gt;Node2 -->
<g id="edge1" class="edge"><title>Node1&#45;&gt;Node2</title>
<path fill="none" stroke="midnightblue" d="M1134.11,-634.687C1015.25,-618.428 819.033,-591.586 700.14,-575.323"/>
<polygon fill="midnightblue" stroke="midnightblue" points="1133.92,-638.194 1144.31,-636.081 1134.87,-631.258 1133.92,-638.194"/>
</g>
<!-- Node7 -->
<g id="node7" class="node"><title>Node7</title>
<g id="a_node7"><a xlink:href="YamlWorker_8h.html" target="_top" xlink:title="/home/travis/build\l/ADVRHumanoids/ROSEndEffector\l/include/ros_end_effector\l/YamlWorker.h">
<polygon fill="none" stroke="black" points="773.592,-345.5 773.592,-397.5 952.592,-397.5 952.592,-345.5 773.592,-345.5"/>
<text text-anchor="start" x="781.592" y="-385.5" font-family="Helvetica,sans-Serif" font-size="10.00">/home/travis/build</text>
<text text-anchor="start" x="781.592" y="-374.5" font-family="Helvetica,sans-Serif" font-size="10.00">/ADVRHumanoids/ROSEndEffector</text>
<text text-anchor="start" x="781.592" y="-363.5" font-family="Helvetica,sans-Serif" font-size="10.00">/include/ros_end_effector</text>
<text text-anchor="middle" x="863.092" y="-352.5" font-family="Helvetica,sans-Serif" font-size="10.00">/YamlWorker.h</text>
</a>
</g>
</g>
<!-- Node1&#45;&gt;Node7 -->
<g id="edge40" class="edge"><title>Node1&#45;&gt;Node7</title>
<path fill="none" stroke="midnightblue" d="M1168.39,-619.056C1114.91,-592.995 1040.4,-550.914 988.092,-498 964.834,-474.475 972.535,-458.303 950.092,-434 937.417,-420.275 921.202,-407.807 906.212,-397.741"/>
<polygon fill="midnightblue" stroke="midnightblue" points="1166.93,-622.234 1177.45,-623.417 1169.96,-615.927 1166.93,-622.234"/>
</g>
<!-- Node8 -->
<g id="node8" class="node"><title>Node8</title>
<g id="a_node8"><a xlink:href="MapActionHandler_8h.html" target="_top" xlink:title="/home/travis/build\l/ADVRHumanoids/ROSEndEffector\l/include/ros_end_effector\l/MapActionHandler.h">
<polygon fill="none" stroke="black" points="1168.59,-256.5 1168.59,-308.5 1347.59,-308.5 1347.59,-256.5 1168.59,-256.5"/>
<text text-anchor="start" x="1176.59" y="-296.5" font-family="Helvetica,sans-Serif" font-size="10.00">/home/travis/build</text>
<text text-anchor="start" x="1176.59" y="-285.5" font-family="Helvetica,sans-Serif" font-size="10.00">/ADVRHumanoids/ROSEndEffector</text>
<text text-anchor="start" x="1176.59" y="-274.5" font-family="Helvetica,sans-Serif" font-size="10.00">/include/ros_end_effector</text>
<text text-anchor="middle" x="1258.09" y="-263.5" font-family="Helvetica,sans-Serif" font-size="10.00">/MapActionHandler.h</text>
</a>
</g>
</g>
<!-- Node1&#45;&gt;Node8 -->
<g id="edge38" class="edge"><title>Node1&#45;&gt;Node8</title>
<path fill="none" stroke="midnightblue" d="M1307.43,-619.105C1356.91,-594.709 1418.69,-554.777 1448.09,-498 1479.46,-437.431 1479.3,-397.776 1436.09,-345 1414.24,-318.311 1380.17,-303.175 1347.66,-294.602"/>
<polygon fill="midnightblue" stroke="midnightblue" points="1305.83,-615.988 1298.34,-623.48 1308.87,-622.295 1305.83,-615.988"/>
</g>
<!-- Node10 -->
<g id="node10" class="node"><title>Node10</title>
<g id="a_node10"><a xlink:href="UniversalRosEndEffectorExecutor_8h.html" target="_top" xlink:title="/home/travis/build\l/ADVRHumanoids/ROSEndEffector\l/include/ros_end_effector\l/UniversalRosEndEffectorExecutor.h">
<polygon fill="none" stroke="black" points="1380.59,-78.5 1380.59,-130.5 1567.59,-130.5 1567.59,-78.5 1380.59,-78.5"/>
<text text-anchor="start" x="1388.59" y="-118.5" font-family="Helvetica,sans-Serif" font-size="10.00">/home/travis/build</text>
<text text-anchor="start" x="1388.59" y="-107.5" font-family="Helvetica,sans-Serif" font-size="10.00">/ADVRHumanoids/ROSEndEffector</text>
<text text-anchor="start" x="1388.59" y="-96.5" font-family="Helvetica,sans-Serif" font-size="10.00">/include/ros_end_effector</text>
<text text-anchor="middle" x="1474.09" y="-85.5" font-family="Helvetica,sans-Serif" font-size="10.00">/UniversalRosEndEffectorExecutor.h</text>
</a>
</g>
</g>
<!-- Node1&#45;&gt;Node10 -->
<g id="edge39" class="edge"><title>Node1&#45;&gt;Node10</title>
<path fill="none" stroke="midnightblue" d="M1335.85,-626.013C1415.05,-601.69 1512.09,-554.115 1512.09,-467 1512.09,-467 1512.09,-467 1512.09,-281.5 1512.09,-226.796 1494.33,-164.638 1483.1,-130.78"/>
<polygon fill="midnightblue" stroke="midnightblue" points="1334.38,-622.799 1325.79,-629.007 1336.37,-629.507 1334.38,-622.799"/>
</g>
<!-- Node17 -->
<g id="node17" class="node"><title>Node17</title>
<g id="a_node17"><a xlink:href="ActionPinchLoose_8h.html" target="_top" xlink:title="/home/travis/build\l/ADVRHumanoids/ROSEndEffector\l/include/ros_end_effector\l/GraspingActions/ActionPinchLoose.h">
<polygon fill="none" stroke="black" points="81.0916,-440 81.0916,-492 275.092,-492 275.092,-440 81.0916,-440"/>
<text text-anchor="start" x="89.0916" y="-480" font-family="Helvetica,sans-Serif" font-size="10.00">/home/travis/build</text>
<text text-anchor="start" x="89.0916" y="-469" font-family="Helvetica,sans-Serif" font-size="10.00">/ADVRHumanoids/ROSEndEffector</text>
<text text-anchor="start" x="89.0916" y="-458" font-family="Helvetica,sans-Serif" font-size="10.00">/include/ros_end_effector</text>
<text text-anchor="middle" x="178.092" y="-447" font-family="Helvetica,sans-Serif" font-size="10.00">/GraspingActions/ActionPinchLoose.h</text>
</a>
</g>
</g>
<!-- Node1&#45;&gt;Node17 -->
<g id="edge29" class="edge"><title>Node1&#45;&gt;Node17</title>
<path fill="none" stroke="midnightblue" d="M1134.35,-649.254C989.702,-648.305 715.62,-638.907 489.092,-587 394.321,-565.284 290,-520.391 229.478,-492.092"/>
<polygon fill="midnightblue" stroke="midnightblue" points="1134.53,-652.755 1144.54,-649.308 1134.56,-645.755 1134.53,-652.755"/>
</g>
<!-- Node22 -->
<g id="node22" class="node"><title>Node22</title>
<g id="a_node22"><a xlink:href="ActionSingleJointMultipleTips_8h.html" target="_top" xlink:title="/home/travis/build\l/ADVRHumanoids/ROSEndEffector\l/include/ros_end_effector\l/GraspingActions/ActionSingleJointMultipleTips.h">
<polygon fill="none" stroke="black" points="997.592,-440 997.592,-492 1242.59,-492 1242.59,-440 997.592,-440"/>
<text text-anchor="start" x="1005.59" y="-480" font-family="Helvetica,sans-Serif" font-size="10.00">/home/travis/build</text>
<text text-anchor="start" x="1005.59" y="-469" font-family="Helvetica,sans-Serif" font-size="10.00">/ADVRHumanoids/ROSEndEffector</text>
<text text-anchor="start" x="1005.59" y="-458" font-family="Helvetica,sans-Serif" font-size="10.00">/include/ros_end_effector</text>
<text text-anchor="middle" x="1120.09" y="-447" font-family="Helvetica,sans-Serif" font-size="10.00">/GraspingActions/ActionSingleJointMultipleTips.h</text>
</a>
</g>
</g>
<!-- Node1&#45;&gt;Node22 -->
<g id="edge30" class="edge"><title>Node1&#45;&gt;Node22</title>
<path fill="none" stroke="midnightblue" d="M1213.65,-614.662C1191.1,-579.067 1156.13,-523.885 1135.95,-492.022"/>
<polygon fill="midnightblue" stroke="midnightblue" points="1210.79,-616.689 1219.1,-623.263 1216.71,-612.943 1210.79,-616.689"/>
</g>
<!-- Node24 -->
<g id="node24" class="node"><title>Node24</title>
<g id="a_node24"><a xlink:href="ActionTrig_8h.html" target="_top" xlink:title="/home/travis/build\l/ADVRHumanoids/ROSEndEffector\l/include/ros_end_effector\l/GraspingActions/ActionTrig.h">
<polygon fill="none" stroke="black" points="1260.59,-440 1260.59,-492 1439.59,-492 1439.59,-440 1260.59,-440"/>
<text text-anchor="start" x="1268.59" y="-480" font-family="Helvetica,sans-Serif" font-size="10.00">/home/travis/build</text>
<text text-anchor="start" x="1268.59" y="-469" font-family="Helvetica,sans-Serif" font-size="10.00">/ADVRHumanoids/ROSEndEffector</text>
<text text-anchor="start" x="1268.59" y="-458" font-family="Helvetica,sans-Serif" font-size="10.00">/include/ros_end_effector</text>
<text text-anchor="middle" x="1350.09" y="-447" font-family="Helvetica,sans-Serif" font-size="10.00">/GraspingActions/ActionTrig.h</text>
</a>
</g>
</g>
<!-- Node1&#45;&gt;Node24 -->
<g id="edge34" class="edge"><title>Node1&#45;&gt;Node24</title>
<path fill="none" stroke="midnightblue" d="M1256.53,-614.662C1279.09,-579.067 1314.05,-523.885 1334.24,-492.022"/>
<polygon fill="midnightblue" stroke="midnightblue" points="1253.48,-612.943 1251.08,-623.263 1259.39,-616.689 1253.48,-612.943"/>
</g>
<!-- Node26 -->
<g id="node26" class="node"><title>Node26</title>
<g id="a_node26"><a xlink:href="ActionPrimitive_8cpp.html" target="_top" xlink:title="/home/travis/build\l/ADVRHumanoids/ROSEndEffector\l/src/GraspingActions/ActionPrimitive.cpp">
<polygon fill="none" stroke="black" points="1540.59,-540 1540.59,-581 1749.59,-581 1749.59,-540 1540.59,-540"/>
<text text-anchor="start" x="1548.59" y="-569" font-family="Helvetica,sans-Serif" font-size="10.00">/home/travis/build</text>
<text text-anchor="start" x="1548.59" y="-558" font-family="Helvetica,sans-Serif" font-size="10.00">/ADVRHumanoids/ROSEndEffector</text>
<text text-anchor="middle" x="1645.09" y="-547" font-family="Helvetica,sans-Serif" font-size="10.00">/src/GraspingActions/ActionPrimitive.cpp</text>
</a>
</g>
</g>
<!-- Node1&#45;&gt;Node26 -->
<g id="edge41" class="edge"><title>Node1&#45;&gt;Node26</title>
<path fill="none" stroke="midnightblue" d="M1335.8,-627.289C1391.84,-615.468 1462.84,-600.46 1526.09,-587 1535.18,-585.065 1544.67,-583.042 1554.14,-581.018"/>
<polygon fill="midnightblue" stroke="midnightblue" points="1334.94,-623.894 1325.87,-629.383 1336.38,-630.743 1334.94,-623.894"/>
</g>
<!-- Node3 -->
<g id="node3" class="node"><title>Node3</title>
<g id="a_node3"><a xlink:href="ActionMultiplePinchTight_8h.html" target="_top" xlink:title="/home/travis/build\l/ADVRHumanoids/ROSEndEffector\l/include/ros_end_effector\l/GraspingActions/ActionMultiplePinch\lTight.h">
<polygon fill="none" stroke="black" points="293.592,-434.5 293.592,-497.5 486.592,-497.5 486.592,-434.5 293.592,-434.5"/>
<text text-anchor="start" x="301.592" y="-485.5" font-family="Helvetica,sans-Serif" font-size="10.00">/home/travis/build</text>
<text text-anchor="start" x="301.592" y="-474.5" font-family="Helvetica,sans-Serif" font-size="10.00">/ADVRHumanoids/ROSEndEffector</text>
<text text-anchor="start" x="301.592" y="-463.5" font-family="Helvetica,sans-Serif" font-size="10.00">/include/ros_end_effector</text>
<text text-anchor="start" x="301.592" y="-452.5" font-family="Helvetica,sans-Serif" font-size="10.00">/GraspingActions/ActionMultiplePinch</text>
<text text-anchor="middle" x="390.092" y="-441.5" font-family="Helvetica,sans-Serif" font-size="10.00">Tight.h</text>
</a>
</g>
</g>
<!-- Node2&#45;&gt;Node3 -->
<g id="edge2" class="edge"><title>Node2&#45;&gt;Node3</title>
<path fill="none" stroke="midnightblue" d="M533.334,-530.397C509.795,-519.979 483.201,-508.209 459.373,-497.663"/>
<polygon fill="midnightblue" stroke="midnightblue" points="531.972,-533.621 542.533,-534.468 534.805,-527.22 531.972,-533.621"/>
</g>
<!-- Node2&#45;&gt;Node17 -->
<g id="edge20" class="edge"><title>Node2&#45;&gt;Node17</title>
<path fill="none" stroke="midnightblue" d="M487.892,-540.362C427.341,-529.296 351.276,-514.346 284.092,-498 276.546,-496.164 268.736,-494.133 260.932,-492.015"/>
<polygon fill="midnightblue" stroke="midnightblue" points="487.392,-543.828 497.857,-542.173 488.644,-536.941 487.392,-543.828"/>
</g>
<!-- Node19 -->
<g id="node19" class="node"><title>Node19</title>
<g id="a_node19"><a xlink:href="ActionPinchTight_8h.html" target="_top" xlink:title="/home/travis/build\l/ADVRHumanoids/ROSEndEffector\l/include/ros_end_effector\l/GraspingActions/ActionPinchTight.h">
<polygon fill="none" stroke="black" points="505.092,-440 505.092,-492 693.092,-492 693.092,-440 505.092,-440"/>
<text text-anchor="start" x="513.092" y="-480" font-family="Helvetica,sans-Serif" font-size="10.00">/home/travis/build</text>
<text text-anchor="start" x="513.092" y="-469" font-family="Helvetica,sans-Serif" font-size="10.00">/ADVRHumanoids/ROSEndEffector</text>
<text text-anchor="start" x="513.092" y="-458" font-family="Helvetica,sans-Serif" font-size="10.00">/include/ros_end_effector</text>
<text text-anchor="middle" x="599.092" y="-447" font-family="Helvetica,sans-Serif" font-size="10.00">/GraspingActions/ActionPinchTight.h</text>
</a>
</g>
</g>
<!-- Node2&#45;&gt;Node19 -->
<g id="edge24" class="edge"><title>Node2&#45;&gt;Node19</title>
<path fill="none" stroke="midnightblue" d="M599.092,-523.993C599.092,-513.409 599.092,-502.031 599.092,-492.245"/>
<polygon fill="midnightblue" stroke="midnightblue" points="595.592,-524.224 599.092,-534.224 602.592,-524.224 595.592,-524.224"/>
</g>
<!-- Node21 -->
<g id="node21" class="node"><title>Node21</title>
<g id="a_node21"><a xlink:href="ActionPinchGeneric_8cpp.html" target="_top" xlink:title="/home/travis/build\l/ADVRHumanoids/ROSEndEffector\l/src/GraspingActions/ActionPinchGeneric.cpp">
<polygon fill="none" stroke="black" points="711.092,-445.5 711.092,-486.5 941.092,-486.5 941.092,-445.5 711.092,-445.5"/>
<text text-anchor="start" x="719.092" y="-474.5" font-family="Helvetica,sans-Serif" font-size="10.00">/home/travis/build</text>
<text text-anchor="start" x="719.092" y="-463.5" font-family="Helvetica,sans-Serif" font-size="10.00">/ADVRHumanoids/ROSEndEffector</text>
<text text-anchor="middle" x="826.092" y="-452.5" font-family="Helvetica,sans-Serif" font-size="10.00">/src/GraspingActions/ActionPinchGeneric.cpp</text>
</a>
</g>
</g>
<!-- Node2&#45;&gt;Node21 -->
<g id="edge28" class="edge"><title>Node2&#45;&gt;Node21</title>
<path fill="none" stroke="midnightblue" d="M670.227,-530.513C705.281,-516.229 746.628,-499.38 777.926,-486.627"/>
<polygon fill="midnightblue" stroke="midnightblue" points="668.461,-527.453 660.521,-534.468 671.103,-533.936 668.461,-527.453"/>
</g>
<!-- Node4 -->
<g id="node4" class="node"><title>Node4</title>
<g id="a_node4"><a xlink:href="FindActions_8h.html" target="_top" xlink:title="/home/travis/build\l/ADVRHumanoids/ROSEndEffector\l/include/ros_end_effector\l/FindActions.h">
<polygon fill="none" stroke="black" points="636.592,-256.5 636.592,-308.5 815.592,-308.5 815.592,-256.5 636.592,-256.5"/>
<text text-anchor="start" x="644.592" y="-296.5" font-family="Helvetica,sans-Serif" font-size="10.00">/home/travis/build</text>
<text text-anchor="start" x="644.592" y="-285.5" font-family="Helvetica,sans-Serif" font-size="10.00">/ADVRHumanoids/ROSEndEffector</text>
<text text-anchor="start" x="644.592" y="-274.5" font-family="Helvetica,sans-Serif" font-size="10.00">/include/ros_end_effector</text>
<text text-anchor="middle" x="726.092" y="-263.5" font-family="Helvetica,sans-Serif" font-size="10.00">/FindActions.h</text>
</a>
</g>
</g>
<!-- Node3&#45;&gt;Node4 -->
<g id="edge3" class="edge"><title>Node3&#45;&gt;Node4</title>
<path fill="none" stroke="midnightblue" d="M314.367,-428.187C303.812,-419.755 294.425,-409.738 288.092,-398 276.906,-377.27 272.637,-362.777 288.092,-345 332.301,-294.15 521.744,-284.116 636.514,-282.835"/>
<polygon fill="midnightblue" stroke="midnightblue" points="312.521,-431.175 322.636,-434.328 316.695,-425.556 312.521,-431.175"/>
</g>
<!-- Node3&#45;&gt;Node7 -->
<g id="edge6" class="edge"><title>Node3&#45;&gt;Node7</title>
<path fill="none" stroke="midnightblue" d="M496.55,-434.035C615.429,-409.669 649.248,-420.422 764.092,-398 767.14,-397.405 770.234,-396.772 773.354,-396.109"/>
<polygon fill="midnightblue" stroke="midnightblue" points="495.774,-430.622 486.701,-436.093 497.206,-437.474 495.774,-430.622"/>
</g>
<!-- Node16 -->
<g id="node16" class="node"><title>Node16</title>
<g id="a_node16"><a xlink:href="ActionMultiplePinchTight_8cpp.html" target="_top" xlink:title="/home/travis/build\l/ADVRHumanoids/ROSEndEffector\l/src/GraspingActions/ActionMultiple\lPinchTight.cpp">
<polygon fill="none" stroke="black" points="297.592,-345.5 297.592,-397.5 482.592,-397.5 482.592,-345.5 297.592,-345.5"/>
<text text-anchor="start" x="305.592" y="-385.5" font-family="Helvetica,sans-Serif" font-size="10.00">/home/travis/build</text>
<text text-anchor="start" x="305.592" y="-374.5" font-family="Helvetica,sans-Serif" font-size="10.00">/ADVRHumanoids/ROSEndEffector</text>
<text text-anchor="start" x="305.592" y="-363.5" font-family="Helvetica,sans-Serif" font-size="10.00">/src/GraspingActions/ActionMultiple</text>
<text text-anchor="middle" x="390.092" y="-352.5" font-family="Helvetica,sans-Serif" font-size="10.00">PinchTight.cpp</text>
</a>
</g>
</g>
<!-- Node3&#45;&gt;Node16 -->
<g id="edge19" class="edge"><title>Node3&#45;&gt;Node16</title>
<path fill="none" stroke="midnightblue" d="M390.092,-424.423C390.092,-415.359 390.092,-405.999 390.092,-397.766"/>
<polygon fill="midnightblue" stroke="midnightblue" points="386.592,-424.456 390.092,-434.456 393.592,-424.456 386.592,-424.456"/>
</g>
<!-- Node5 -->
<g id="node5" class="node"><title>Node5</title>
<g id="a_node5"><a xlink:href="FindActions_8cpp.html" target="_top" xlink:title="/home/travis/build\l/ADVRHumanoids/ROSEndEffector\l/src/FindActions.cpp">
<polygon fill="none" stroke="black" points="636.592,-173 636.592,-214 815.592,-214 815.592,-173 636.592,-173"/>
<text text-anchor="start" x="644.592" y="-202" font-family="Helvetica,sans-Serif" font-size="10.00">/home/travis/build</text>
<text text-anchor="start" x="644.592" y="-191" font-family="Helvetica,sans-Serif" font-size="10.00">/ADVRHumanoids/ROSEndEffector</text>
<text text-anchor="middle" x="726.092" y="-180" font-family="Helvetica,sans-Serif" font-size="10.00">/src/FindActions.cpp</text>
</a>
</g>
</g>
<!-- Node4&#45;&gt;Node5 -->
<g id="edge4" class="edge"><title>Node4&#45;&gt;Node5</title>
<path fill="none" stroke="midnightblue" d="M726.092,-246.155C726.092,-235.21 726.092,-223.549 726.092,-214.082"/>
<polygon fill="midnightblue" stroke="midnightblue" points="722.592,-246.336 726.092,-256.336 729.592,-246.336 722.592,-246.336"/>
</g>
<!-- Node6 -->
<g id="node6" class="node"><title>Node6</title>
<g id="a_node6"><a xlink:href="UniversalFindActions_8cpp.html" target="_top" xlink:title="/home/travis/build\l/ADVRHumanoids/ROSEndEffector\l/src/UniversalFindActions.cpp">
<polygon fill="none" stroke="black" points="872.592,-173 872.592,-214 1051.59,-214 1051.59,-173 872.592,-173"/>
<text text-anchor="start" x="880.592" y="-202" font-family="Helvetica,sans-Serif" font-size="10.00">/home/travis/build</text>
<text text-anchor="start" x="880.592" y="-191" font-family="Helvetica,sans-Serif" font-size="10.00">/ADVRHumanoids/ROSEndEffector</text>
<text text-anchor="middle" x="962.092" y="-180" font-family="Helvetica,sans-Serif" font-size="10.00">/src/UniversalFindActions.cpp</text>
</a>
</g>
</g>
<!-- Node4&#45;&gt;Node6 -->
<g id="edge5" class="edge"><title>Node4&#45;&gt;Node6</title>
<path fill="none" stroke="midnightblue" d="M803.607,-252.925C838.073,-240.219 877.783,-225.58 908.832,-214.134"/>
<polygon fill="midnightblue" stroke="midnightblue" points="802.208,-249.71 794.036,-256.453 804.629,-256.278 802.208,-249.71"/>
</g>
<!-- Node7&#45;&gt;Node4 -->
<g id="edge7" class="edge"><title>Node7&#45;&gt;Node4</title>
<path fill="none" stroke="midnightblue" d="M814.728,-339.787C798.653,-329.579 780.955,-318.341 765.629,-308.607"/>
<polygon fill="midnightblue" stroke="midnightblue" points="813.148,-342.93 823.466,-345.336 816.9,-337.021 813.148,-342.93"/>
</g>
<!-- Node7&#45;&gt;Node8 -->
<g id="edge8" class="edge"><title>Node7&#45;&gt;Node8</title>
<path fill="none" stroke="midnightblue" d="M962.787,-344.642C1037.19,-327.419 1111.95,-312.055 1168.48,-300.833"/>
<polygon fill="midnightblue" stroke="midnightblue" points="961.715,-341.298 952.769,-346.973 963.302,-348.116 961.715,-341.298"/>
</g>
<!-- Node7&#45;&gt;Node10 -->
<g id="edge17" class="edge"><title>Node7&#45;&gt;Node10</title>
<path fill="none" stroke="midnightblue" d="M850.381,-335.69C836.383,-290.526 820.999,-212.181 863.092,-167 901.664,-125.598 1315.2,-139.832 1371.09,-131 1374.18,-130.511 1377.32,-129.975 1380.48,-129.399"/>
<polygon fill="midnightblue" stroke="midnightblue" points="847.096,-336.906 853.508,-345.34 853.755,-334.748 847.096,-336.906"/>
</g>
<!-- Node15 -->
<g id="node15" class="node"><title>Node15</title>
<g id="a_node15"><a xlink:href="YamlWorker_8cpp.html" target="_top" xlink:title="/home/travis/build\l/ADVRHumanoids/ROSEndEffector\l/src/YamlWorker.cpp">
<polygon fill="none" stroke="black" points="872.592,-262 872.592,-303 1051.59,-303 1051.59,-262 872.592,-262"/>
<text text-anchor="start" x="880.592" y="-291" font-family="Helvetica,sans-Serif" font-size="10.00">/home/travis/build</text>
<text text-anchor="start" x="880.592" y="-280" font-family="Helvetica,sans-Serif" font-size="10.00">/ADVRHumanoids/ROSEndEffector</text>
<text text-anchor="middle" x="962.092" y="-269" font-family="Helvetica,sans-Serif" font-size="10.00">/src/YamlWorker.cpp</text>
</a>
</g>
</g>
<!-- Node7&#45;&gt;Node15 -->
<g id="edge18" class="edge"><title>Node7&#45;&gt;Node15</title>
<path fill="none" stroke="midnightblue" d="M899.489,-338.515C913.005,-326.637 927.925,-313.525 939.809,-303.082"/>
<polygon fill="midnightblue" stroke="midnightblue" points="896.928,-336.106 891.726,-345.336 901.549,-341.364 896.928,-336.106"/>
</g>
<!-- Node8&#45;&gt;Node6 -->
<g id="edge16" class="edge"><title>Node8&#45;&gt;Node6</title>
<path fill="none" stroke="midnightblue" d="M1163.08,-253.574C1119.35,-240.72 1068.5,-225.775 1028.89,-214.134"/>
<polygon fill="midnightblue" stroke="midnightblue" points="1162.29,-256.991 1172.87,-256.453 1164.27,-250.275 1162.29,-256.991"/>
</g>
<!-- Node9 -->
<g id="node9" class="node"><title>Node9</title>
<g id="a_node9"><a xlink:href="RosServiceHandler_8h.html" target="_top" xlink:title="/home/travis/build\l/ADVRHumanoids/ROSEndEffector\l/include/ros_end_effector\l/RosServiceHandler.h">
<polygon fill="none" stroke="black" points="1266.59,-167.5 1266.59,-219.5 1445.59,-219.5 1445.59,-167.5 1266.59,-167.5"/>
<text text-anchor="start" x="1274.59" y="-207.5" font-family="Helvetica,sans-Serif" font-size="10.00">/home/travis/build</text>
<text text-anchor="start" x="1274.59" y="-196.5" font-family="Helvetica,sans-Serif" font-size="10.00">/ADVRHumanoids/ROSEndEffector</text>
<text text-anchor="start" x="1274.59" y="-185.5" font-family="Helvetica,sans-Serif" font-size="10.00">/include/ros_end_effector</text>
<text text-anchor="middle" x="1356.09" y="-174.5" font-family="Helvetica,sans-Serif" font-size="10.00">/RosServiceHandler.h</text>
</a>
</g>
</g>
<!-- Node8&#45;&gt;Node9 -->
<g id="edge9" class="edge"><title>Node8&#45;&gt;Node9</title>
<path fill="none" stroke="midnightblue" d="M1293.97,-249.649C1305.12,-239.749 1317.25,-228.98 1327.81,-219.607"/>
<polygon fill="midnightblue" stroke="midnightblue" points="1291.59,-247.08 1286.44,-256.336 1296.24,-252.314 1291.59,-247.08"/>
</g>
<!-- Node8&#45;&gt;Node10 -->
<g id="edge14" class="edge"><title>Node8&#45;&gt;Node10</title>
<path fill="none" stroke="midnightblue" d="M1357.5,-271.692C1392.73,-263.26 1429.65,-247.882 1454.09,-220 1475.64,-195.419 1477.93,-156.097 1476.7,-130.534"/>
<polygon fill="midnightblue" stroke="midnightblue" points="1356.62,-268.302 1347.62,-273.891 1358.14,-275.135 1356.62,-268.302"/>
</g>
<!-- Node14 -->
<g id="node14" class="node"><title>Node14</title>
<g id="a_node14"><a xlink:href="MapActionHandler_8cpp.html" target="_top" xlink:title="/home/travis/build\l/ADVRHumanoids/ROSEndEffector\l/src/MapActionHandler.cpp">
<polygon fill="none" stroke="black" points="1069.59,-173 1069.59,-214 1248.59,-214 1248.59,-173 1069.59,-173"/>
<text text-anchor="start" x="1077.59" y="-202" font-family="Helvetica,sans-Serif" font-size="10.00">/home/travis/build</text>
<text text-anchor="start" x="1077.59" y="-191" font-family="Helvetica,sans-Serif" font-size="10.00">/ADVRHumanoids/ROSEndEffector</text>
<text text-anchor="middle" x="1159.09" y="-180" font-family="Helvetica,sans-Serif" font-size="10.00">/src/MapActionHandler.cpp</text>
</a>
</g>
</g>
<!-- Node8&#45;&gt;Node14 -->
<g id="edge15" class="edge"><title>Node8&#45;&gt;Node14</title>
<path fill="none" stroke="midnightblue" d="M1221.69,-249.515C1208.18,-237.637 1193.26,-224.525 1181.37,-214.082"/>
<polygon fill="midnightblue" stroke="midnightblue" points="1219.63,-252.364 1229.46,-256.336 1224.26,-247.106 1219.63,-252.364"/>
</g>
<!-- Node9&#45;&gt;Node10 -->
<g id="edge10" class="edge"><title>Node9&#45;&gt;Node10</title>
<path fill="none" stroke="midnightblue" d="M1398.52,-161.219C1412.16,-151.164 1427.08,-140.16 1440.04,-130.607"/>
<polygon fill="midnightblue" stroke="midnightblue" points="1396.19,-158.585 1390.22,-167.336 1400.35,-164.219 1396.19,-158.585"/>
</g>
<!-- Node13 -->
<g id="node13" class="node"><title>Node13</title>
<g id="a_node13"><a xlink:href="RosServiceHandler_8cpp.html" target="_top" xlink:title="/home/travis/build\l/ADVRHumanoids/ROSEndEffector\l/src/RosServiceHandler.cpp">
<polygon fill="none" stroke="black" points="1183.59,-84 1183.59,-125 1362.59,-125 1362.59,-84 1183.59,-84"/>
<text text-anchor="start" x="1191.59" y="-113" font-family="Helvetica,sans-Serif" font-size="10.00">/home/travis/build</text>
<text text-anchor="start" x="1191.59" y="-102" font-family="Helvetica,sans-Serif" font-size="10.00">/ADVRHumanoids/ROSEndEffector</text>
<text text-anchor="middle" x="1273.09" y="-91" font-family="Helvetica,sans-Serif" font-size="10.00">/src/RosServiceHandler.cpp</text>
</a>
</g>
</g>
<!-- Node9&#45;&gt;Node13 -->
<g id="edge13" class="edge"><title>Node9&#45;&gt;Node13</title>
<path fill="none" stroke="midnightblue" d="M1324.94,-159.847C1313.78,-148.148 1301.55,-135.33 1291.77,-125.082"/>
<polygon fill="midnightblue" stroke="midnightblue" points="1322.65,-162.517 1332.08,-167.336 1327.71,-157.685 1322.65,-162.517"/>
</g>
<!-- Node11 -->
<g id="node11" class="node"><title>Node11</title>
<g id="a_node11"><a xlink:href="UniversalRosEndEffector_8cpp.html" target="_top" xlink:title="/home/travis/build\l/ADVRHumanoids/ROSEndEffector\l/src/UniversalRosEndEffector.cpp">
<polygon fill="none" stroke="black" points="1277.59,-0.5 1277.59,-41.5 1456.59,-41.5 1456.59,-0.5 1277.59,-0.5"/>
<text text-anchor="start" x="1285.59" y="-29.5" font-family="Helvetica,sans-Serif" font-size="10.00">/home/travis/build</text>
<text text-anchor="start" x="1285.59" y="-18.5" font-family="Helvetica,sans-Serif" font-size="10.00">/ADVRHumanoids/ROSEndEffector</text>
<text text-anchor="middle" x="1367.09" y="-7.5" font-family="Helvetica,sans-Serif" font-size="10.00">/src/UniversalRosEndEffector.cpp</text>
</a>
</g>
</g>
<!-- Node10&#45;&gt;Node11 -->
<g id="edge11" class="edge"><title>Node10&#45;&gt;Node11</title>
<path fill="none" stroke="midnightblue" d="M1432.93,-72.1475C1419.5,-61.921 1404.98,-50.8594 1393,-41.7338"/>
<polygon fill="midnightblue" stroke="midnightblue" points="1431.04,-75.1073 1441.11,-78.3823 1435.28,-69.5386 1431.04,-75.1073"/>
</g>
<!-- Node12 -->
<g id="node12" class="node"><title>Node12</title>
<g id="a_node12"><a xlink:href="UniversalRosEndEffectorExecutor_8cpp.html" target="_top" xlink:title="/home/travis/build\l/ADVRHumanoids/ROSEndEffector\l/src/UniversalRosEndEffectorExecutor.cpp">
<polygon fill="none" stroke="black" points="1474.59,-0.5 1474.59,-41.5 1689.59,-41.5 1689.59,-0.5 1474.59,-0.5"/>
<text text-anchor="start" x="1482.59" y="-29.5" font-family="Helvetica,sans-Serif" font-size="10.00">/home/travis/build</text>
<text text-anchor="start" x="1482.59" y="-18.5" font-family="Helvetica,sans-Serif" font-size="10.00">/ADVRHumanoids/ROSEndEffector</text>
<text text-anchor="middle" x="1582.09" y="-7.5" font-family="Helvetica,sans-Serif" font-size="10.00">/src/UniversalRosEndEffectorExecutor.cpp</text>
</a>
</g>
</g>
<!-- Node10&#45;&gt;Node12 -->
<g id="edge12" class="edge"><title>Node10&#45;&gt;Node12</title>
<path fill="none" stroke="midnightblue" d="M1515.64,-72.1475C1529.19,-61.921 1543.85,-50.8594 1555.94,-41.7338"/>
<polygon fill="midnightblue" stroke="midnightblue" points="1513.25,-69.5648 1507.38,-78.3823 1517.47,-75.1524 1513.25,-69.5648"/>
</g>
<!-- Node17&#45;&gt;Node4 -->
<g id="edge21" class="edge"><title>Node17&#45;&gt;Node4</title>
<path fill="none" stroke="midnightblue" d="M71.494,-443.664C47.7885,-433.755 25.4597,-419.246 11.0916,-398 -2.10426,-378.488 -4.83501,-362.355 11.0916,-345 52.5794,-299.79 453.622,-287.742 636.274,-284.59"/>
<polygon fill="midnightblue" stroke="midnightblue" points="70.4035,-446.996 80.9917,-447.372 72.9492,-440.475 70.4035,-446.996"/>
</g>
<!-- Node17&#45;&gt;Node7 -->
<g id="edge22" class="edge"><title>Node17&#45;&gt;Node7</title>
<path fill="none" stroke="midnightblue" d="M266.77,-437.596C272.601,-436.25 278.411,-435.032 284.092,-434 494.58,-395.765 553.011,-432.818 764.092,-398 767.156,-397.494 770.264,-396.939 773.396,-396.343"/>
<polygon fill="midnightblue" stroke="midnightblue" points="265.851,-434.217 256.956,-439.972 267.499,-441.02 265.851,-434.217"/>
</g>
<!-- Node18 -->
<g id="node18" class="node"><title>Node18</title>
<g id="a_node18"><a xlink:href="ActionPinchLoose_8cpp.html" target="_top" xlink:title="/home/travis/build\l/ADVRHumanoids/ROSEndEffector\l/src/GraspingActions/ActionPinchLoose.cpp">
<polygon fill="none" stroke="black" points="20.0916,-351 20.0916,-392 242.092,-392 242.092,-351 20.0916,-351"/>
<text text-anchor="start" x="28.0916" y="-380" font-family="Helvetica,sans-Serif" font-size="10.00">/home/travis/build</text>
<text text-anchor="start" x="28.0916" y="-369" font-family="Helvetica,sans-Serif" font-size="10.00">/ADVRHumanoids/ROSEndEffector</text>
<text text-anchor="middle" x="131.092" y="-358" font-family="Helvetica,sans-Serif" font-size="10.00">/src/GraspingActions/ActionPinchLoose.cpp</text>
</a>
</g>
</g>
<!-- Node17&#45;&gt;Node18 -->
<g id="edge23" class="edge"><title>Node17&#45;&gt;Node18</title>
<path fill="none" stroke="midnightblue" d="M160.605,-430.586C154.02,-417.626 146.76,-403.336 141.088,-392.173"/>
<polygon fill="midnightblue" stroke="midnightblue" points="157.598,-432.394 165.249,-439.724 163.839,-429.223 157.598,-432.394"/>
</g>
<!-- Node19&#45;&gt;Node4 -->
<g id="edge25" class="edge"><title>Node19&#45;&gt;Node4</title>
<path fill="none" stroke="midnightblue" d="M554.744,-432.96C544.379,-423.036 534.727,-411.196 529.092,-398 519.84,-376.337 515.136,-363.976 529.092,-345 553.821,-311.373 596.841,-295.616 636.383,-288.427"/>
<polygon fill="midnightblue" stroke="midnightblue" points="552.601,-435.74 562.371,-439.838 557.289,-430.542 552.601,-435.74"/>
</g>
<!-- Node19&#45;&gt;Node7 -->
<g id="edge26" class="edge"><title>Node19&#45;&gt;Node7</title>
<path fill="none" stroke="midnightblue" d="M680.393,-436.514C715.93,-424.062 757.248,-409.586 791.592,-397.552"/>
<polygon fill="midnightblue" stroke="midnightblue" points="678.814,-433.358 670.534,-439.968 681.129,-439.965 678.814,-433.358"/>
</g>
<!-- Node20 -->
<g id="node20" class="node"><title>Node20</title>
<g id="a_node20"><a xlink:href="ActionPinchTight_8cpp.html" target="_top" xlink:title="/home/travis/build\l/ADVRHumanoids/ROSEndEffector\l/src/GraspingActions/ActionPinchTight.cpp">
<polygon fill="none" stroke="black" points="538.592,-351 538.592,-392 755.592,-392 755.592,-351 538.592,-351"/>
<text text-anchor="start" x="546.592" y="-380" font-family="Helvetica,sans-Serif" font-size="10.00">/home/travis/build</text>
<text text-anchor="start" x="546.592" y="-369" font-family="Helvetica,sans-Serif" font-size="10.00">/ADVRHumanoids/ROSEndEffector</text>
<text text-anchor="middle" x="647.092" y="-358" font-family="Helvetica,sans-Serif" font-size="10.00">/src/GraspingActions/ActionPinchTight.cpp</text>
</a>
</g>
</g>
<!-- Node19&#45;&gt;Node20 -->
<g id="edge27" class="edge"><title>Node19&#45;&gt;Node20</title>
<path fill="none" stroke="midnightblue" d="M616.95,-430.586C623.675,-417.626 631.09,-403.336 636.883,-392.173"/>
<polygon fill="midnightblue" stroke="midnightblue" points="613.707,-429.236 612.208,-439.724 619.92,-432.46 613.707,-429.236"/>
</g>
<!-- Node22&#45;&gt;Node4 -->
<g id="edge31" class="edge"><title>Node22&#45;&gt;Node4</title>
<path fill="none" stroke="midnightblue" d="M1154.22,-431.881C1176.83,-405.957 1198.55,-370.193 1176.09,-345 1129.5,-292.741 932.327,-319.412 863.092,-309 847.78,-306.697 831.562,-303.952 815.847,-301.13"/>
<polygon fill="midnightblue" stroke="midnightblue" points="1151.35,-429.832 1147.22,-439.588 1156.54,-434.538 1151.35,-429.832"/>
</g>
<!-- Node22&#45;&gt;Node7 -->
<g id="edge32" class="edge"><title>Node22&#45;&gt;Node7</title>
<path fill="none" stroke="midnightblue" d="M1040.95,-436.514C1006.35,-424.062 966.129,-409.586 932.695,-397.552"/>
<polygon fill="midnightblue" stroke="midnightblue" points="1039.95,-439.875 1050.54,-439.968 1042.32,-433.288 1039.95,-439.875"/>
</g>
<!-- Node23 -->
<g id="node23" class="node"><title>Node23</title>
<g id="a_node23"><a xlink:href="ActionSingleJointMultipleTips_8cpp.html" target="_top" xlink:title="/home/travis/build\l/ADVRHumanoids/ROSEndEffector\l/src/GraspingActions/ActionSingleJoint\lMultipleTips.cpp">
<polygon fill="none" stroke="black" points="970.592,-345.5 970.592,-397.5 1167.59,-397.5 1167.59,-345.5 970.592,-345.5"/>
<text text-anchor="start" x="978.592" y="-385.5" font-family="Helvetica,sans-Serif" font-size="10.00">/home/travis/build</text>
<text text-anchor="start" x="978.592" y="-374.5" font-family="Helvetica,sans-Serif" font-size="10.00">/ADVRHumanoids/ROSEndEffector</text>
<text text-anchor="start" x="978.592" y="-363.5" font-family="Helvetica,sans-Serif" font-size="10.00">/src/GraspingActions/ActionSingleJoint</text>
<text text-anchor="middle" x="1069.09" y="-352.5" font-family="Helvetica,sans-Serif" font-size="10.00">MultipleTips.cpp</text>
</a>
</g>
</g>
<!-- Node22&#45;&gt;Node23 -->
<g id="edge33" class="edge"><title>Node22&#45;&gt;Node23</title>
<path fill="none" stroke="midnightblue" d="M1101.24,-430.812C1095.2,-419.86 1088.63,-407.939 1083.01,-397.745"/>
<polygon fill="midnightblue" stroke="midnightblue" points="1098.26,-432.657 1106.16,-439.724 1104.39,-429.277 1098.26,-432.657"/>
</g>
<!-- Node24&#45;&gt;Node4 -->
<g id="edge35" class="edge"><title>Node24&#45;&gt;Node4</title>
<path fill="none" stroke="midnightblue" d="M1388.41,-432.986C1414.88,-407.11 1441.33,-370.861 1417.09,-345 1374.91,-299.99 924.3,-316.657 863.092,-309 847.728,-307.078 831.483,-304.523 815.759,-301.772"/>
<polygon fill="midnightblue" stroke="midnightblue" points="1385.86,-430.584 1380.99,-439.993 1390.66,-435.675 1385.86,-430.584"/>
</g>
<!-- Node24&#45;&gt;Node7 -->
<g id="edge36" class="edge"><title>Node24&#45;&gt;Node7</title>
<path fill="none" stroke="midnightblue" d="M1265.26,-437.355C1260.49,-436.139 1255.74,-435.008 1251.09,-434 1124.16,-406.483 1088.66,-422.405 961.092,-398 958.329,-397.471 955.529,-396.909 952.706,-396.32"/>
<polygon fill="midnightblue" stroke="midnightblue" points="1264.5,-440.775 1275.06,-439.961 1266.3,-434.01 1264.5,-440.775"/>
</g>
<!-- Node25 -->
<g id="node25" class="node"><title>Node25</title>
<g id="a_node25"><a xlink:href="ActionTrig_8cpp.html" target="_top" xlink:title="/home/travis/build\l/ADVRHumanoids/ROSEndEffector\l/src/GraspingActions/ActionTrig.cpp">
<polygon fill="none" stroke="black" points="1223.59,-351 1223.59,-392 1408.59,-392 1408.59,-351 1223.59,-351"/>
<text text-anchor="start" x="1231.59" y="-380" font-family="Helvetica,sans-Serif" font-size="10.00">/home/travis/build</text>
<text text-anchor="start" x="1231.59" y="-369" font-family="Helvetica,sans-Serif" font-size="10.00">/ADVRHumanoids/ROSEndEffector</text>
<text text-anchor="middle" x="1316.09" y="-358" font-family="Helvetica,sans-Serif" font-size="10.00">/src/GraspingActions/ActionTrig.cpp</text>
</a>
</g>
</g>
<!-- Node24&#45;&gt;Node25 -->
<g id="edge37" class="edge"><title>Node24&#45;&gt;Node25</title>
<path fill="none" stroke="midnightblue" d="M1337.3,-430.208C1332.58,-417.348 1327.39,-403.228 1323.32,-392.173"/>
<polygon fill="midnightblue" stroke="midnightblue" points="1334.07,-431.545 1340.8,-439.724 1340.64,-429.13 1334.07,-431.545"/>
</g>
</g>
</svg>
