<?xml version="1.0" encoding="UTF-8" standalone="no"?>
<!DOCTYPE svg PUBLIC "-//W3C//DTD SVG 1.1//EN"
 "http://www.w3.org/Graphics/SVG/1.1/DTD/svg11.dtd">
<!-- Generated by graphviz version 2.38.0 (20140413.2041)
 -->
<!-- Title: /home/travis/build/ADVRHumanoids/ROSEndEffector/src/GraspingActions/ActionMultiplePinchTight.cpp Pages: 1 -->
<svg width="697pt" height="441pt"
 viewBox="0.00 0.00 696.50 441.00" xmlns="http://www.w3.org/2000/svg" xmlns:xlink="http://www.w3.org/1999/xlink">
<g id="graph0" class="graph" transform="scale(1 1) rotate(0) translate(4 437)">
<title>/home/travis/build/ADVRHumanoids/ROSEndEffector/src/GraspingActions/ActionMultiplePinchTight.cpp</title>
<!-- Node1 -->
<g id="node1" class="node"><title>Node1</title>
<polygon fill="#bfbfbf" stroke="black" points="344.5,-380.5 344.5,-432.5 529.5,-432.5 529.5,-380.5 344.5,-380.5"/>
<text text-anchor="start" x="352.5" y="-420.5" font-family="Helvetica,sans-Serif" font-size="10.00">/home/travis/build</text>
<text text-anchor="start" x="352.5" y="-409.5" font-family="Helvetica,sans-Serif" font-size="10.00">/ADVRHumanoids/ROSEndEffector</text>
<text text-anchor="start" x="352.5" y="-398.5" font-family="Helvetica,sans-Serif" font-size="10.00">/src/GraspingActions/ActionMultiple</text>
<text text-anchor="middle" x="437" y="-387.5" font-family="Helvetica,sans-Serif" font-size="10.00">PinchTight.cpp</text>
</g>
<!-- Node2 -->
<g id="node2" class="node"><title>Node2</title>
<g id="a_node2"><a xlink:href="ActionMultiplePinchTight_8h.html" target="_top" xlink:title="end_effector/GraspingActions\l/ActionMultiplePinchTight.h">
<polygon fill="none" stroke="black" points="358,-313.5 358,-343.5 516,-343.5 516,-313.5 358,-313.5"/>
<text text-anchor="start" x="366" y="-331.5" font-family="Helvetica,sans-Serif" font-size="10.00">end_effector/GraspingActions</text>
<text text-anchor="middle" x="437" y="-320.5" font-family="Helvetica,sans-Serif" font-size="10.00">/ActionMultiplePinchTight.h</text>
</a>
</g>
</g>
<!-- Node1&#45;&gt;Node2 -->
<g id="edge1" class="edge"><title>Node1&#45;&gt;Node2</title>
<path fill="none" stroke="midnightblue" d="M437,-380.193C437,-371.786 437,-362.443 437,-354.091"/>
<polygon fill="midnightblue" stroke="midnightblue" points="440.5,-353.845 437,-343.845 433.5,-353.845 440.5,-353.845"/>
</g>
<!-- Node3 -->
<g id="node3" class="node"><title>Node3</title>
<g id="a_node3"><a xlink:href="ActionPinchGeneric_8h.html" target="_top" xlink:title="end_effector/GraspingActions\l/ActionPinchGeneric.h">
<polygon fill="none" stroke="black" points="263,-246.5 263,-276.5 421,-276.5 421,-246.5 263,-246.5"/>
<text text-anchor="start" x="271" y="-264.5" font-family="Helvetica,sans-Serif" font-size="10.00">end_effector/GraspingActions</text>
<text text-anchor="middle" x="342" y="-253.5" font-family="Helvetica,sans-Serif" font-size="10.00">/ActionPinchGeneric.h</text>
</a>
</g>
</g>
<!-- Node2&#45;&gt;Node3 -->
<g id="edge2" class="edge"><title>Node2&#45;&gt;Node3</title>
<path fill="none" stroke="midnightblue" d="M416.386,-313.396C403.066,-304.282 385.539,-292.29 370.845,-282.236"/>
<polygon fill="midnightblue" stroke="midnightblue" points="372.803,-279.335 362.573,-276.577 368.85,-285.112 372.803,-279.335"/>
</g>
<!-- Node9 -->
<g id="node9" class="node"><title>Node9</title>
<polygon fill="none" stroke="#bfbfbf" points="8.5,-0.5 8.5,-19.5 67.5,-19.5 67.5,-0.5 8.5,-0.5"/>
<text text-anchor="middle" x="38" y="-7.5" font-family="Helvetica,sans-Serif" font-size="10.00">iostream</text>
</g>
<!-- Node2&#45;&gt;Node9 -->
<g id="edge30" class="edge"><title>Node2&#45;&gt;Node9</title>
<path fill="none" stroke="midnightblue" d="M357.863,-319.937C231.931,-305.685 0,-269.404 0,-195.5 0,-195.5 0,-195.5 0,-126.5 0,-90.2544 17.0946,-50.671 28.3527,-28.5327"/>
<polygon fill="midnightblue" stroke="midnightblue" points="31.4613,-30.141 33.0322,-19.6633 25.2702,-26.8745 31.4613,-30.141"/>
</g>
<!-- Node11 -->
<g id="node11" class="node"><title>Node11</title>
<polygon fill="none" stroke="#bfbfbf" points="492,-56.5 492,-75.5 588,-75.5 588,-56.5 492,-56.5"/>
<text text-anchor="middle" x="540" y="-63.5" font-family="Helvetica,sans-Serif" font-size="10.00">yaml&#45;cpp/yaml.h</text>
</g>
<!-- Node2&#45;&gt;Node11 -->
<g id="edge29" class="edge"><title>Node2&#45;&gt;Node11</title>
<path fill="none" stroke="midnightblue" d="M442.538,-313.494C459.939,-269.484 513.511,-133.995 532.901,-84.9541"/>
<polygon fill="midnightblue" stroke="midnightblue" points="536.167,-86.212 536.59,-75.6255 529.658,-83.638 536.167,-86.212"/>
</g>
<!-- Node20 -->
<g id="node20" class="node"><title>Node20</title>
<polygon fill="none" stroke="#bfbfbf" points="561.5,-246.5 561.5,-276.5 688.5,-276.5 688.5,-246.5 561.5,-246.5"/>
<text text-anchor="start" x="569.5" y="-264.5" font-family="Helvetica,sans-Serif" font-size="10.00">moveit/planning_scene</text>
<text text-anchor="middle" x="625" y="-253.5" font-family="Helvetica,sans-Serif" font-size="10.00">/planning_scene.h</text>
</g>
<!-- Node2&#45;&gt;Node20 -->
<g id="edge28" class="edge"><title>Node2&#45;&gt;Node20</title>
<path fill="none" stroke="midnightblue" d="M477.793,-313.396C506.248,-303.558 544.401,-290.367 574.735,-279.879"/>
<polygon fill="midnightblue" stroke="midnightblue" points="575.979,-283.152 584.286,-276.577 573.692,-276.536 575.979,-283.152"/>
</g>
<!-- Node4 -->
<g id="node4" class="node"><title>Node4</title>
<g id="a_node4"><a xlink:href="ActionPrimitive_8h.html" target="_top" xlink:title="end_effector/GraspingActions\l/ActionPrimitive.h">
<polygon fill="none" stroke="black" points="179,-179.5 179,-209.5 337,-209.5 337,-179.5 179,-179.5"/>
<text text-anchor="start" x="187" y="-197.5" font-family="Helvetica,sans-Serif" font-size="10.00">end_effector/GraspingActions</text>
<text text-anchor="middle" x="258" y="-186.5" font-family="Helvetica,sans-Serif" font-size="10.00">/ActionPrimitive.h</text>
</a>
</g>
</g>
<!-- Node3&#45;&gt;Node4 -->
<g id="edge3" class="edge"><title>Node3&#45;&gt;Node4</title>
<path fill="none" stroke="midnightblue" d="M323.773,-246.396C312.215,-237.452 297.076,-225.737 284.236,-215.802"/>
<polygon fill="midnightblue" stroke="midnightblue" points="286.242,-212.928 276.191,-209.577 281.958,-218.464 286.242,-212.928"/>
</g>
<!-- Node3&#45;&gt;Node9 -->
<g id="edge27" class="edge"><title>Node3&#45;&gt;Node9</title>
<path fill="none" stroke="midnightblue" d="M262.793,-247.55C201.149,-233.08 118.788,-203.235 74,-143 48.4522,-108.641 41.0336,-57.2265 38.8801,-29.8076"/>
<polygon fill="midnightblue" stroke="midnightblue" points="42.3619,-29.4065 38.242,-19.6455 35.3757,-29.8452 42.3619,-29.4065"/>
</g>
<!-- Node3&#45;&gt;Node11 -->
<g id="edge26" class="edge"><title>Node3&#45;&gt;Node11</title>
<path fill="none" stroke="midnightblue" d="M357.811,-246.333C381.974,-224.554 429.356,-181.341 468,-143 488.249,-122.91 510.73,-98.89 525.096,-83.3085"/>
<polygon fill="midnightblue" stroke="midnightblue" points="527.99,-85.3314 532.177,-75.5988 522.835,-80.5963 527.99,-85.3314"/>
</g>
<!-- Node5 -->
<g id="node5" class="node"><title>Node5</title>
<polygon fill="none" stroke="#bfbfbf" points="107,-118 107,-137 139,-137 139,-118 107,-118"/>
<text text-anchor="middle" x="123" y="-125" font-family="Helvetica,sans-Serif" font-size="10.00">set</text>
</g>
<!-- Node4&#45;&gt;Node5 -->
<g id="edge4" class="edge"><title>Node4&#45;&gt;Node5</title>
<path fill="none" stroke="midnightblue" d="M228.574,-179.366C207.52,-169.249 178.509,-155.299 153,-143 151.46,-142.257 149.875,-141.493 148.277,-140.721"/>
<polygon fill="midnightblue" stroke="midnightblue" points="149.716,-137.53 139.189,-136.332 146.672,-143.833 149.716,-137.53"/>
</g>
<!-- Node6 -->
<g id="node6" class="node"><title>Node6</title>
<polygon fill="none" stroke="#bfbfbf" points="104,-56.5 104,-75.5 148,-75.5 148,-56.5 104,-56.5"/>
<text text-anchor="middle" x="126" y="-63.5" font-family="Helvetica,sans-Serif" font-size="10.00">string</text>
</g>
<!-- Node4&#45;&gt;Node6 -->
<g id="edge5" class="edge"><title>Node4&#45;&gt;Node6</title>
<path fill="none" stroke="midnightblue" d="M242.792,-179.433C231.93,-169.348 216.999,-155.408 204,-143 182.571,-122.544 158.154,-98.658 142.434,-83.2035"/>
<polygon fill="midnightblue" stroke="midnightblue" points="144.65,-80.4738 135.068,-75.9532 139.739,-85.4625 144.65,-80.4738"/>
</g>
<!-- Node7 -->
<g id="node7" class="node"><title>Node7</title>
<polygon fill="none" stroke="#bfbfbf" points="166,-56.5 166,-75.5 204,-75.5 204,-56.5 166,-56.5"/>
<text text-anchor="middle" x="185" y="-63.5" font-family="Helvetica,sans-Serif" font-size="10.00">map</text>
</g>
<!-- Node4&#45;&gt;Node7 -->
<g id="edge6" class="edge"><title>Node4&#45;&gt;Node7</title>
<path fill="none" stroke="midnightblue" d="M247.715,-179.208C240.716,-169.253 231.415,-155.56 224,-143 212.496,-123.515 200.851,-100.259 193.32,-84.6491"/>
<polygon fill="midnightblue" stroke="midnightblue" points="196.473,-83.1296 189.008,-75.6116 190.155,-86.1441 196.473,-83.1296"/>
</g>
<!-- Node8 -->
<g id="node8" class="node"><title>Node8</title>
<polygon fill="none" stroke="#bfbfbf" points="426.5,-56.5 426.5,-75.5 473.5,-75.5 473.5,-56.5 426.5,-56.5"/>
<text text-anchor="middle" x="450" y="-63.5" font-family="Helvetica,sans-Serif" font-size="10.00">vector</text>
</g>
<!-- Node4&#45;&gt;Node8 -->
<g id="edge7" class="edge"><title>Node4&#45;&gt;Node8</title>
<path fill="none" stroke="midnightblue" d="M324.65,-179.438C350.084,-171.721 378.18,-160.121 400,-143 419.654,-127.579 434.109,-102.201 442.286,-85.0572"/>
<polygon fill="midnightblue" stroke="midnightblue" points="445.627,-86.1632 446.557,-75.6093 439.248,-83.2799 445.627,-86.1632"/>
</g>
<!-- Node4&#45;&gt;Node9 -->
<g id="edge8" class="edge"><title>Node4&#45;&gt;Node9</title>
<path fill="none" stroke="midnightblue" d="M178.926,-182.265C150.745,-174.955 120.458,-162.895 98,-143 80.0551,-127.103 55.5991,-61.7911 44.2544,-29.3953"/>
<polygon fill="midnightblue" stroke="midnightblue" points="47.5099,-28.1 40.938,-19.7898 40.8932,-30.3845 47.5099,-28.1"/>
</g>
<!-- Node10 -->
<g id="node10" class="node"><title>Node10</title>
<g id="a_node10"><a xlink:href="Action_8h.html" target="_top" xlink:title="end_effector/GraspingActions\l/Action.h">
<polygon fill="none" stroke="black" points="233,-112.5 233,-142.5 391,-142.5 391,-112.5 233,-112.5"/>
<text text-anchor="start" x="241" y="-130.5" font-family="Helvetica,sans-Serif" font-size="10.00">end_effector/GraspingActions</text>
<text text-anchor="middle" x="312" y="-119.5" font-family="Helvetica,sans-Serif" font-size="10.00">/Action.h</text>
</a>
</g>
</g>
<!-- Node4&#45;&gt;Node10 -->
<g id="edge9" class="edge"><title>Node4&#45;&gt;Node10</title>
<path fill="none" stroke="midnightblue" d="M269.717,-179.396C276.723,-170.963 285.775,-160.067 293.705,-150.522"/>
<polygon fill="midnightblue" stroke="midnightblue" points="296.608,-152.505 300.306,-142.577 291.223,-148.032 296.608,-152.505"/>
</g>
<!-- Node4&#45;&gt;Node11 -->
<g id="edge25" class="edge"><title>Node4&#45;&gt;Node11</title>
<path fill="none" stroke="midnightblue" d="M321.879,-179.489C354.514,-171.106 394.334,-158.951 428,-143 463.462,-126.198 500.316,-98.9773 521.658,-82.08"/>
<polygon fill="midnightblue" stroke="midnightblue" points="523.948,-84.7298 529.551,-75.7379 519.563,-79.273 523.948,-84.7298"/>
</g>
<!-- Node10&#45;&gt;Node6 -->
<g id="edge11" class="edge"><title>Node10&#45;&gt;Node6</title>
<path fill="none" stroke="midnightblue" d="M267.921,-112.399C234.043,-101.562 188.059,-86.8521 157.733,-77.151"/>
<polygon fill="midnightblue" stroke="midnightblue" points="158.68,-73.7793 148.089,-74.066 156.547,-80.4465 158.68,-73.7793"/>
</g>
<!-- Node10&#45;&gt;Node7 -->
<g id="edge12" class="edge"><title>Node10&#45;&gt;Node7</title>
<path fill="none" stroke="midnightblue" d="M281.903,-112.399C260.88,-102.55 233.028,-89.5014 212.581,-79.9217"/>
<polygon fill="midnightblue" stroke="midnightblue" points="214.02,-76.7309 203.48,-75.6578 211.05,-83.0698 214.02,-76.7309"/>
</g>
<!-- Node10&#45;&gt;Node8 -->
<g id="edge10" class="edge"><title>Node10&#45;&gt;Node8</title>
<path fill="none" stroke="midnightblue" d="M344.704,-112.399C367.755,-102.461 398.36,-89.2649 420.632,-79.6625"/>
<polygon fill="midnightblue" stroke="midnightblue" points="422.123,-82.8311 429.92,-75.6578 419.351,-76.4031 422.123,-82.8311"/>
</g>
<!-- Node10&#45;&gt;Node9 -->
<g id="edge15" class="edge"><title>Node10&#45;&gt;Node9</title>
<path fill="none" stroke="midnightblue" d="M296.009,-112.249C277.346,-96.332 244.952,-70.8574 213,-56 206.779,-53.1075 127.333,-33.1525 77.6486,-20.8065"/>
<polygon fill="midnightblue" stroke="midnightblue" points="78.3861,-17.3834 67.8374,-18.3713 76.6997,-24.1773 78.3861,-17.3834"/>
</g>
<!-- Node10&#45;&gt;Node11 -->
<g id="edge13" class="edge"><title>Node10&#45;&gt;Node11</title>
<path fill="none" stroke="midnightblue" d="M365.744,-112.475C405.938,-101.986 460.155,-87.8367 497.381,-78.1221"/>
<polygon fill="midnightblue" stroke="midnightblue" points="498.612,-81.4181 507.404,-75.5064 496.844,-74.6449 498.612,-81.4181"/>
</g>
<!-- Node12 -->
<g id="node12" class="node"><title>Node12</title>
<polygon fill="none" stroke="#bfbfbf" points="559.5,-0.5 559.5,-19.5 616.5,-19.5 616.5,-0.5 559.5,-0.5"/>
<text text-anchor="middle" x="588" y="-7.5" font-family="Helvetica,sans-Serif" font-size="10.00">memory</text>
</g>
<!-- Node10&#45;&gt;Node12 -->
<g id="edge14" class="edge"><title>Node10&#45;&gt;Node12</title>
<path fill="none" stroke="midnightblue" d="M329.132,-112.336C349.082,-96.4978 383.583,-71.0959 417,-56 429.087,-50.5397 502.784,-31.9439 549.4,-20.4359"/>
<polygon fill="midnightblue" stroke="midnightblue" points="550.316,-23.815 559.189,-18.0252 548.642,-17.0181 550.316,-23.815"/>
</g>
<!-- Node13 -->
<g id="node13" class="node"><title>Node13</title>
<g id="a_node13"><a xlink:href="Utils_8h.html" target="_top" xlink:title="end_effector/Utils.h">
<polygon fill="none" stroke="black" points="260,-56.5 260,-75.5 370,-75.5 370,-56.5 260,-56.5"/>
<text text-anchor="middle" x="315" y="-63.5" font-family="Helvetica,sans-Serif" font-size="10.00">end_effector/Utils.h</text>
</a>
</g>
</g>
<!-- Node10&#45;&gt;Node13 -->
<g id="edge16" class="edge"><title>Node10&#45;&gt;Node13</title>
<path fill="none" stroke="midnightblue" d="M312.711,-112.399C313.111,-104.466 313.616,-94.458 314.049,-85.8583"/>
<polygon fill="midnightblue" stroke="midnightblue" points="317.555,-85.8214 314.563,-75.6578 310.564,-85.4688 317.555,-85.8214"/>
</g>
<!-- Node13&#45;&gt;Node9 -->
<g id="edge19" class="edge"><title>Node13&#45;&gt;Node9</title>
<path fill="none" stroke="midnightblue" d="M265.89,-56.4415C219.655,-48.2294 148.235,-35.1481 77.7745,-20.3108"/>
<polygon fill="midnightblue" stroke="midnightblue" points="78.3496,-16.8551 67.8412,-18.2059 76.8984,-23.703 78.3496,-16.8551"/>
</g>
<!-- Node13&#45;&gt;Node12 -->
<g id="edge18" class="edge"><title>Node13&#45;&gt;Node12</title>
<path fill="none" stroke="midnightblue" d="M362.832,-56.4686C408.266,-48.2238 478.731,-35.0731 549.422,-20.0472"/>
<polygon fill="midnightblue" stroke="midnightblue" points="550.349,-23.4283 559.396,-17.9148 548.885,-16.583 550.349,-23.4283"/>
</g>
<!-- Node14 -->
<g id="node14" class="node"><title>Node14</title>
<polygon fill="none" stroke="#bfbfbf" points="85.5,-0.5 85.5,-19.5 132.5,-19.5 132.5,-0.5 85.5,-0.5"/>
<text text-anchor="middle" x="109" y="-7.5" font-family="Helvetica,sans-Serif" font-size="10.00">cmath</text>
</g>
<!-- Node13&#45;&gt;Node14 -->
<g id="edge17" class="edge"><title>Node13&#45;&gt;Node14</title>
<path fill="none" stroke="midnightblue" d="M281.804,-56.489C248.929,-48.0327 196.898,-34.5764 142.588,-20.1337"/>
<polygon fill="midnightblue" stroke="midnightblue" points="143.348,-16.7143 132.784,-17.5224 141.546,-23.4785 143.348,-16.7143"/>
</g>
<!-- Node15 -->
<g id="node15" class="node"><title>Node15</title>
<polygon fill="none" stroke="#bfbfbf" points="151,-0.5 151,-19.5 199,-19.5 199,-0.5 151,-0.5"/>
<text text-anchor="middle" x="175" y="-7.5" font-family="Helvetica,sans-Serif" font-size="10.00">dlfcn.h</text>
</g>
<!-- Node13&#45;&gt;Node15 -->
<g id="edge20" class="edge"><title>Node13&#45;&gt;Node15</title>
<path fill="none" stroke="midnightblue" d="M292.817,-56.4435C269.572,-47.4776 232.851,-33.314 206.585,-23.1827"/>
<polygon fill="midnightblue" stroke="midnightblue" points="207.669,-19.8497 197.08,-19.5164 205.15,-26.3807 207.669,-19.8497"/>
</g>
<!-- Node16 -->
<g id="node16" class="node"><title>Node16</title>
<polygon fill="none" stroke="#bfbfbf" points="217,-0.5 217,-19.5 333,-19.5 333,-0.5 217,-0.5"/>
<text text-anchor="middle" x="275" y="-7.5" font-family="Helvetica,sans-Serif" font-size="10.00">boost/filesystem.hpp</text>
</g>
<!-- Node13&#45;&gt;Node16 -->
<g id="edge21" class="edge"><title>Node13&#45;&gt;Node16</title>
<path fill="none" stroke="midnightblue" d="M308.395,-56.083C302.745,-48.4554 294.455,-37.2645 287.549,-27.9408"/>
<polygon fill="midnightblue" stroke="midnightblue" points="290.247,-25.7034 281.482,-19.7511 284.622,-29.87 290.247,-25.7034"/>
</g>
<!-- Node17 -->
<g id="node17" class="node"><title>Node17</title>
<polygon fill="none" stroke="#bfbfbf" points="351,-0.5 351,-19.5 405,-19.5 405,-0.5 351,-0.5"/>
<text text-anchor="middle" x="378" y="-7.5" font-family="Helvetica,sans-Serif" font-size="10.00">fstream</text>
</g>
<!-- Node13&#45;&gt;Node17 -->
<g id="edge22" class="edge"><title>Node13&#45;&gt;Node17</title>
<path fill="none" stroke="midnightblue" d="M325.122,-56.324C334.526,-48.2631 348.744,-36.0765 360.069,-26.3695"/>
<polygon fill="midnightblue" stroke="midnightblue" points="362.379,-28.9993 367.694,-19.8339 357.823,-23.6844 362.379,-28.9993"/>
</g>
<!-- Node18 -->
<g id="node18" class="node"><title>Node18</title>
<polygon fill="none" stroke="#bfbfbf" points="423,-0.5 423,-19.5 473,-19.5 473,-0.5 423,-0.5"/>
<text text-anchor="middle" x="448" y="-7.5" font-family="Helvetica,sans-Serif" font-size="10.00">chrono</text>
</g>
<!-- Node13&#45;&gt;Node18 -->
<g id="edge23" class="edge"><title>Node13&#45;&gt;Node18</title>
<path fill="none" stroke="midnightblue" d="M336.074,-56.4435C358.06,-47.5171 392.734,-33.4387 417.664,-23.3168"/>
<polygon fill="midnightblue" stroke="midnightblue" points="419.076,-26.5213 427.024,-19.5164 416.442,-20.0355 419.076,-26.5213"/>
</g>
<!-- Node19 -->
<g id="node19" class="node"><title>Node19</title>
<polygon fill="none" stroke="#bfbfbf" points="491,-0.5 491,-19.5 541,-19.5 541,-0.5 491,-0.5"/>
<text text-anchor="middle" x="516" y="-7.5" font-family="Helvetica,sans-Serif" font-size="10.00">atomic</text>
</g>
<!-- Node13&#45;&gt;Node19 -->
<g id="edge24" class="edge"><title>Node13&#45;&gt;Node19</title>
<path fill="none" stroke="midnightblue" d="M346.849,-56.4435C383.376,-46.6303 443.08,-30.5905 480.914,-20.4261"/>
<polygon fill="midnightblue" stroke="midnightblue" points="482.218,-23.6998 490.968,-17.7251 480.402,-16.9396 482.218,-23.6998"/>
</g>
</g>
</svg>
