<?xml version="1.0" encoding="UTF-8" standalone="no"?>
<!DOCTYPE svg PUBLIC "-//W3C//DTD SVG 1.1//EN"
 "http://www.w3.org/Graphics/SVG/1.1/DTD/svg11.dtd">
<!-- Generated by graphviz version 2.38.0 (20140413.2041)
 -->
<!-- Title: /home/travis/build/ADVRHumanoids/ROSEndEffector/src/GraspingActions/ActionTimed.cpp Pages: 1 -->
<svg width="761pt" height="296pt"
 viewBox="0.00 0.00 760.50 296.00" xmlns="http://www.w3.org/2000/svg" xmlns:xlink="http://www.w3.org/1999/xlink">
<g id="graph0" class="graph" transform="scale(1 1) rotate(0) translate(4 292)">
<title>/home/travis/build/ADVRHumanoids/ROSEndEffector/src/GraspingActions/ActionTimed.cpp</title>
<!-- Node1 -->
<g id="node1" class="node"><title>Node1</title>
<polygon fill="#bfbfbf" stroke="black" points="72,-246.5 72,-287.5 269,-287.5 269,-246.5 72,-246.5"/>
<text text-anchor="start" x="80" y="-275.5" font-family="Helvetica,sans-Serif" font-size="10.00">/home/travis/build</text>
<text text-anchor="start" x="80" y="-264.5" font-family="Helvetica,sans-Serif" font-size="10.00">/ADVRHumanoids/ROSEndEffector</text>
<text text-anchor="middle" x="170.5" y="-253.5" font-family="Helvetica,sans-Serif" font-size="10.00">/src/GraspingActions/ActionTimed.cpp</text>
</g>
<!-- Node2 -->
<g id="node2" class="node"><title>Node2</title>
<g id="a_node2"><a xlink:href="ActionTimed_8h.html" target="_top" xlink:title="end_effector/GraspingActions\l/ActionTimed.h">
<polygon fill="none" stroke="black" points="91.5,-179.5 91.5,-209.5 249.5,-209.5 249.5,-179.5 91.5,-179.5"/>
<text text-anchor="start" x="99.5" y="-197.5" font-family="Helvetica,sans-Serif" font-size="10.00">end_effector/GraspingActions</text>
<text text-anchor="middle" x="170.5" y="-186.5" font-family="Helvetica,sans-Serif" font-size="10.00">/ActionTimed.h</text>
</a>
</g>
</g>
<!-- Node1&#45;&gt;Node2 -->
<g id="edge1" class="edge"><title>Node1&#45;&gt;Node2</title>
<path fill="none" stroke="midnightblue" d="M170.5,-246.362C170.5,-238.226 170.5,-228.7 170.5,-220.105"/>
<polygon fill="midnightblue" stroke="midnightblue" points="174,-219.892 170.5,-209.892 167,-219.892 174,-219.892"/>
</g>
<!-- Node3 -->
<g id="node3" class="node"><title>Node3</title>
<polygon fill="none" stroke="#bfbfbf" points="0,-56.5 0,-75.5 47,-75.5 47,-56.5 0,-56.5"/>
<text text-anchor="middle" x="23.5" y="-63.5" font-family="Helvetica,sans-Serif" font-size="10.00">vector</text>
</g>
<!-- Node2&#45;&gt;Node3 -->
<g id="edge2" class="edge"><title>Node2&#45;&gt;Node3</title>
<path fill="none" stroke="midnightblue" d="M152.684,-179.347C140.195,-169.339 123.177,-155.528 108.5,-143 84.4329,-122.458 57.282,-97.9388 40.2811,-82.4177"/>
<polygon fill="midnightblue" stroke="midnightblue" points="42.5482,-79.748 32.8086,-75.5779 37.8219,-84.9116 42.5482,-79.748"/>
</g>
<!-- Node4 -->
<g id="node4" class="node"><title>Node4</title>
<polygon fill="none" stroke="#bfbfbf" points="65.5,-56.5 65.5,-75.5 109.5,-75.5 109.5,-56.5 65.5,-56.5"/>
<text text-anchor="middle" x="87.5" y="-63.5" font-family="Helvetica,sans-Serif" font-size="10.00">string</text>
</g>
<!-- Node2&#45;&gt;Node4 -->
<g id="edge3" class="edge"><title>Node2&#45;&gt;Node4</title>
<path fill="none" stroke="midnightblue" d="M158.332,-179.365C150.068,-169.479 139.118,-155.805 130.5,-143 117.585,-123.811 104.79,-100.498 96.5601,-84.7939"/>
<polygon fill="midnightblue" stroke="midnightblue" points="99.5566,-82.9686 91.8554,-75.6924 93.3382,-86.183 99.5566,-82.9686"/>
</g>
<!-- Node5 -->
<g id="node5" class="node"><title>Node5</title>
<polygon fill="none" stroke="#bfbfbf" points="127.5,-56.5 127.5,-75.5 165.5,-75.5 165.5,-56.5 127.5,-56.5"/>
<text text-anchor="middle" x="146.5" y="-63.5" font-family="Helvetica,sans-Serif" font-size="10.00">map</text>
</g>
<!-- Node2&#45;&gt;Node5 -->
<g id="edge4" class="edge"><title>Node2&#45;&gt;Node5</title>
<path fill="none" stroke="midnightblue" d="M157.512,-179.253C149.757,-169.747 140.635,-156.546 136.5,-143 130.628,-123.764 135.174,-100.754 139.884,-85.1293"/>
<polygon fill="midnightblue" stroke="midnightblue" points="143.209,-86.2228 143.045,-75.6292 136.567,-84.0128 143.209,-86.2228"/>
</g>
<!-- Node6 -->
<g id="node6" class="node"><title>Node6</title>
<g id="a_node6"><a xlink:href="Action_8h.html" target="_top" xlink:title="end_effector/GraspingActions\l/Action.h">
<polygon fill="none" stroke="black" points="145.5,-112.5 145.5,-142.5 303.5,-142.5 303.5,-112.5 145.5,-112.5"/>
<text text-anchor="start" x="153.5" y="-130.5" font-family="Helvetica,sans-Serif" font-size="10.00">end_effector/GraspingActions</text>
<text text-anchor="middle" x="224.5" y="-119.5" font-family="Helvetica,sans-Serif" font-size="10.00">/Action.h</text>
</a>
</g>
</g>
<!-- Node2&#45;&gt;Node6 -->
<g id="edge5" class="edge"><title>Node2&#45;&gt;Node6</title>
<path fill="none" stroke="midnightblue" d="M182.217,-179.396C189.223,-170.963 198.275,-160.067 206.205,-150.522"/>
<polygon fill="midnightblue" stroke="midnightblue" points="209.108,-152.505 212.806,-142.577 203.723,-148.032 209.108,-152.505"/>
</g>
<!-- Node7 -->
<g id="node7" class="node"><title>Node7</title>
<polygon fill="none" stroke="#bfbfbf" points="259.5,-56.5 259.5,-75.5 355.5,-75.5 355.5,-56.5 259.5,-56.5"/>
<text text-anchor="middle" x="307.5" y="-63.5" font-family="Helvetica,sans-Serif" font-size="10.00">yaml&#45;cpp/yaml.h</text>
</g>
<!-- Node2&#45;&gt;Node7 -->
<g id="edge22" class="edge"><title>Node2&#45;&gt;Node7</title>
<path fill="none" stroke="midnightblue" d="M249.853,-183.254C273.935,-176.009 297.866,-163.737 312.5,-143 324.258,-126.339 320.035,-102.171 314.819,-85.5868"/>
<polygon fill="midnightblue" stroke="midnightblue" points="318.04,-84.1989 311.405,-75.939 311.441,-86.5338 318.04,-84.1989"/>
</g>
<!-- Node10 -->
<g id="node10" class="node"><title>Node10</title>
<g id="a_node10"><a xlink:href="Utils_8h.html" target="_top" xlink:title="end_effector/Utils.h">
<polygon fill="none" stroke="black" points="373.5,-56.5 373.5,-75.5 483.5,-75.5 483.5,-56.5 373.5,-56.5"/>
<text text-anchor="middle" x="428.5" y="-63.5" font-family="Helvetica,sans-Serif" font-size="10.00">end_effector/Utils.h</text>
</a>
</g>
</g>
<!-- Node2&#45;&gt;Node10 -->
<g id="edge21" class="edge"><title>Node2&#45;&gt;Node10</title>
<path fill="none" stroke="midnightblue" d="M232.544,-179.415C263.066,-171.132 299.797,-159.089 330.5,-143 362.088,-126.447 393.825,-99.4994 412.295,-82.5368"/>
<polygon fill="midnightblue" stroke="midnightblue" points="414.886,-84.9057 419.799,-75.5191 410.105,-79.7929 414.886,-84.9057"/>
</g>
<!-- Node6&#45;&gt;Node3 -->
<g id="edge6" class="edge"><title>Node6&#45;&gt;Node3</title>
<path fill="none" stroke="midnightblue" d="M177.12,-112.475C140.256,-101.562 90.0094,-86.6881 57.1716,-76.9675"/>
<polygon fill="midnightblue" stroke="midnightblue" points="57.7429,-73.4865 47.1607,-74.004 55.7559,-80.1986 57.7429,-73.4865"/>
</g>
<!-- Node6&#45;&gt;Node4 -->
<g id="edge7" class="edge"><title>Node6&#45;&gt;Node4</title>
<path fill="none" stroke="midnightblue" d="M192.033,-112.399C169.149,-102.461 138.766,-89.2649 116.656,-79.6625"/>
<polygon fill="midnightblue" stroke="midnightblue" points="118.001,-76.4311 107.435,-75.6578 115.213,-82.8517 118.001,-76.4311"/>
</g>
<!-- Node6&#45;&gt;Node5 -->
<g id="edge8" class="edge"><title>Node6&#45;&gt;Node5</title>
<path fill="none" stroke="midnightblue" d="M206.015,-112.399C193.98,-103.218 178.3,-91.2579 166.057,-81.9182"/>
<polygon fill="midnightblue" stroke="midnightblue" points="167.923,-78.9401 157.85,-75.6578 163.678,-84.5056 167.923,-78.9401"/>
</g>
<!-- Node6&#45;&gt;Node7 -->
<g id="edge9" class="edge"><title>Node6&#45;&gt;Node7</title>
<path fill="none" stroke="midnightblue" d="M244.17,-112.399C257.101,-103.129 273.986,-91.0254 287.068,-81.6469"/>
<polygon fill="midnightblue" stroke="midnightblue" points="289.335,-84.3287 295.423,-75.6578 285.256,-78.6395 289.335,-84.3287"/>
</g>
<!-- Node8 -->
<g id="node8" class="node"><title>Node8</title>
<polygon fill="none" stroke="#bfbfbf" points="222,-0.5 222,-19.5 279,-19.5 279,-0.5 222,-0.5"/>
<text text-anchor="middle" x="250.5" y="-7.5" font-family="Helvetica,sans-Serif" font-size="10.00">memory</text>
</g>
<!-- Node6&#45;&gt;Node8 -->
<g id="edge10" class="edge"><title>Node6&#45;&gt;Node8</title>
<path fill="none" stroke="midnightblue" d="M227.688,-112.337C232.373,-91.5271 241.121,-52.6632 246.317,-29.5834"/>
<polygon fill="midnightblue" stroke="midnightblue" points="249.767,-30.194 248.548,-19.6695 242.938,-28.6567 249.767,-30.194"/>
</g>
<!-- Node9 -->
<g id="node9" class="node"><title>Node9</title>
<polygon fill="none" stroke="#bfbfbf" points="145,-0.5 145,-19.5 204,-19.5 204,-0.5 145,-0.5"/>
<text text-anchor="middle" x="174.5" y="-7.5" font-family="Helvetica,sans-Serif" font-size="10.00">iostream</text>
</g>
<!-- Node6&#45;&gt;Node9 -->
<g id="edge11" class="edge"><title>Node6&#45;&gt;Node9</title>
<path fill="none" stroke="midnightblue" d="M218.369,-112.337C209.278,-91.3379 192.229,-51.9551 182.274,-28.9579"/>
<polygon fill="midnightblue" stroke="midnightblue" points="185.438,-27.456 178.253,-19.6695 179.014,-30.2369 185.438,-27.456"/>
</g>
<!-- Node6&#45;&gt;Node10 -->
<g id="edge12" class="edge"><title>Node6&#45;&gt;Node10</title>
<path fill="none" stroke="midnightblue" d="M272.587,-112.475C308.242,-102.075 356.231,-88.0783 389.51,-78.3722"/>
<polygon fill="midnightblue" stroke="midnightblue" points="390.715,-81.6664 399.335,-75.5064 388.755,-74.9464 390.715,-81.6664"/>
</g>
<!-- Node10&#45;&gt;Node8 -->
<g id="edge14" class="edge"><title>Node10&#45;&gt;Node8</title>
<path fill="none" stroke="midnightblue" d="M400.295,-56.4435C370.09,-47.2801 321.989,-32.6876 288.471,-22.5192"/>
<polygon fill="midnightblue" stroke="midnightblue" points="289.158,-19.0703 278.573,-19.5164 287.126,-25.7688 289.158,-19.0703"/>
</g>
<!-- Node10&#45;&gt;Node9 -->
<g id="edge15" class="edge"><title>Node10&#45;&gt;Node9</title>
<path fill="none" stroke="midnightblue" d="M385.803,-56.4609C344.308,-48.0825 279.253,-34.7384 214.345,-20.3714"/>
<polygon fill="midnightblue" stroke="midnightblue" points="214.874,-16.9038 204.353,-18.1513 213.356,-23.7371 214.874,-16.9038"/>
</g>
<!-- Node11 -->
<g id="node11" class="node"><title>Node11</title>
<polygon fill="none" stroke="#bfbfbf" points="297,-0.5 297,-19.5 344,-19.5 344,-0.5 297,-0.5"/>
<text text-anchor="middle" x="320.5" y="-7.5" font-family="Helvetica,sans-Serif" font-size="10.00">cmath</text>
</g>
<!-- Node10&#45;&gt;Node11 -->
<g id="edge13" class="edge"><title>Node10&#45;&gt;Node11</title>
<path fill="none" stroke="midnightblue" d="M411.148,-56.324C393.828,-47.6641 366.985,-34.2424 346.998,-24.249"/>
<polygon fill="midnightblue" stroke="midnightblue" points="348.319,-20.9962 337.809,-19.6545 345.188,-27.2572 348.319,-20.9962"/>
</g>
<!-- Node12 -->
<g id="node12" class="node"><title>Node12</title>
<polygon fill="none" stroke="#bfbfbf" points="362.5,-0.5 362.5,-19.5 410.5,-19.5 410.5,-0.5 362.5,-0.5"/>
<text text-anchor="middle" x="386.5" y="-7.5" font-family="Helvetica,sans-Serif" font-size="10.00">dlfcn.h</text>
</g>
<!-- Node10&#45;&gt;Node12 -->
<g id="edge16" class="edge"><title>Node10&#45;&gt;Node12</title>
<path fill="none" stroke="midnightblue" d="M421.565,-56.083C415.571,-48.3768 406.748,-37.0333 399.452,-27.6531"/>
<polygon fill="midnightblue" stroke="midnightblue" points="402.209,-25.4958 393.306,-19.7511 396.683,-29.7934 402.209,-25.4958"/>
</g>
<!-- Node13 -->
<g id="node13" class="node"><title>Node13</title>
<polygon fill="none" stroke="#bfbfbf" points="428.5,-0.5 428.5,-19.5 544.5,-19.5 544.5,-0.5 428.5,-0.5"/>
<text text-anchor="middle" x="486.5" y="-7.5" font-family="Helvetica,sans-Serif" font-size="10.00">boost/filesystem.hpp</text>
</g>
<!-- Node10&#45;&gt;Node13 -->
<g id="edge17" class="edge"><title>Node10&#45;&gt;Node13</title>
<path fill="none" stroke="midnightblue" d="M437.819,-56.324C446.393,-48.3414 459.312,-36.3128 469.688,-26.6529"/>
<polygon fill="midnightblue" stroke="midnightblue" points="472.078,-29.2098 477.012,-19.8339 467.308,-24.0865 472.078,-29.2098"/>
</g>
<!-- Node14 -->
<g id="node14" class="node"><title>Node14</title>
<polygon fill="none" stroke="#bfbfbf" points="562.5,-0.5 562.5,-19.5 616.5,-19.5 616.5,-0.5 562.5,-0.5"/>
<text text-anchor="middle" x="589.5" y="-7.5" font-family="Helvetica,sans-Serif" font-size="10.00">fstream</text>
</g>
<!-- Node10&#45;&gt;Node14 -->
<g id="edge18" class="edge"><title>Node10&#45;&gt;Node14</title>
<path fill="none" stroke="midnightblue" d="M454.011,-56.4435C481.096,-47.3591 524.09,-32.9388 554.369,-22.7831"/>
<polygon fill="midnightblue" stroke="midnightblue" points="555.74,-26.0148 564.108,-19.5164 553.514,-19.3781 555.74,-26.0148"/>
</g>
<!-- Node15 -->
<g id="node15" class="node"><title>Node15</title>
<polygon fill="none" stroke="#bfbfbf" points="634.5,-0.5 634.5,-19.5 684.5,-19.5 684.5,-0.5 634.5,-0.5"/>
<text text-anchor="middle" x="659.5" y="-7.5" font-family="Helvetica,sans-Serif" font-size="10.00">chrono</text>
</g>
<!-- Node10&#45;&gt;Node15 -->
<g id="edge19" class="edge"><title>Node10&#45;&gt;Node15</title>
<path fill="none" stroke="midnightblue" d="M467.84,-56.4291C505.571,-48.1163 564.386,-34.9184 624.266,-20.2441"/>
<polygon fill="midnightblue" stroke="midnightblue" points="625.4,-23.5696 634.274,-17.7802 623.727,-16.7725 625.4,-23.5696"/>
</g>
<!-- Node16 -->
<g id="node16" class="node"><title>Node16</title>
<polygon fill="none" stroke="#bfbfbf" points="702.5,-0.5 702.5,-19.5 752.5,-19.5 752.5,-0.5 702.5,-0.5"/>
<text text-anchor="middle" x="727.5" y="-7.5" font-family="Helvetica,sans-Serif" font-size="10.00">atomic</text>
</g>
<!-- Node10&#45;&gt;Node16 -->
<g id="edge20" class="edge"><title>Node10&#45;&gt;Node16</title>
<path fill="none" stroke="midnightblue" d="M483.592,-57.1331C535.18,-49.4311 614.598,-36.7182 692.346,-20.094"/>
<polygon fill="midnightblue" stroke="midnightblue" points="693.276,-23.4739 702.311,-17.9396 691.797,-16.632 693.276,-23.4739"/>
</g>
</g>
</svg>
