<?xml version="1.0" encoding="UTF-8" standalone="no"?>
<!DOCTYPE svg PUBLIC "-//W3C//DTD SVG 1.1//EN"
 "http://www.w3.org/Graphics/SVG/1.1/DTD/svg11.dtd">
<!-- Generated by graphviz version 2.38.0 (20140413.2041)
 -->
<!-- Title: /home/travis/build/ADVRHumanoids/ROSEndEffector/include/ros_end_effector/GraspingActions/ActionMultiplePinchTight.h Pages: 1 -->
<svg width="691pt" height="385pt"
 viewBox="0.00 0.00 690.50 385.00" xmlns="http://www.w3.org/2000/svg" xmlns:xlink="http://www.w3.org/1999/xlink">
<g id="graph0" class="graph" transform="scale(1 1) rotate(0) translate(4 381)">
<title>/home/travis/build/ADVRHumanoids/ROSEndEffector/include/ros_end_effector/GraspingActions/ActionMultiplePinchTight.h</title>
<!-- Node1 -->
<g id="node1" class="node"><title>Node1</title>
<polygon fill="#bfbfbf" stroke="black" points="337.5,-313.5 337.5,-376.5 530.5,-376.5 530.5,-313.5 337.5,-313.5"/>
<text text-anchor="start" x="345.5" y="-364.5" font-family="Helvetica,sans-Serif" font-size="10.00">/home/travis/build</text>
<text text-anchor="start" x="345.5" y="-353.5" font-family="Helvetica,sans-Serif" font-size="10.00">/ADVRHumanoids/ROSEndEffector</text>
<text text-anchor="start" x="345.5" y="-342.5" font-family="Helvetica,sans-Serif" font-size="10.00">/include/ros_end_effector</text>
<text text-anchor="start" x="345.5" y="-331.5" font-family="Helvetica,sans-Serif" font-size="10.00">/GraspingActions/ActionMultiplePinch</text>
<text text-anchor="middle" x="434" y="-320.5" font-family="Helvetica,sans-Serif" font-size="10.00">Tight.h</text>
</g>
<!-- Node2 -->
<g id="node2" class="node"><title>Node2</title>
<g id="a_node2"><a xlink:href="ActionPinchGeneric_8h.html" target="_top" xlink:title="ros_end_effector/Grasping\lActions/ActionPinchGeneric.h">
<polygon fill="none" stroke="black" points="264,-246.5 264,-276.5 420,-276.5 420,-246.5 264,-246.5"/>
<text text-anchor="start" x="272" y="-264.5" font-family="Helvetica,sans-Serif" font-size="10.00">ros_end_effector/Grasping</text>
<text text-anchor="middle" x="342" y="-253.5" font-family="Helvetica,sans-Serif" font-size="10.00">Actions/ActionPinchGeneric.h</text>
</a>
</g>
</g>
<!-- Node1&#45;&gt;Node2 -->
<g id="edge1" class="edge"><title>Node1&#45;&gt;Node2</title>
<path fill="none" stroke="midnightblue" d="M399.481,-313.421C388.216,-303.441 375.97,-292.593 365.687,-283.483"/>
<polygon fill="midnightblue" stroke="midnightblue" points="367.723,-280.611 357.917,-276.6 363.081,-285.851 367.723,-280.611"/>
</g>
<!-- Node8 -->
<g id="node8" class="node"><title>Node8</title>
<polygon fill="none" stroke="#bfbfbf" points="8.5,-0.5 8.5,-19.5 67.5,-19.5 67.5,-0.5 8.5,-0.5"/>
<text text-anchor="middle" x="38" y="-7.5" font-family="Helvetica,sans-Serif" font-size="10.00">iostream</text>
</g>
<!-- Node1&#45;&gt;Node8 -->
<g id="edge29" class="edge"><title>Node1&#45;&gt;Node8</title>
<path fill="none" stroke="midnightblue" d="M337.412,-330.739C209.527,-310.422 0,-266.326 0,-195.5 0,-195.5 0,-195.5 0,-126.5 0,-90.2544 17.0946,-50.671 28.3527,-28.5327"/>
<polygon fill="midnightblue" stroke="midnightblue" points="31.4613,-30.141 33.0322,-19.6633 25.2702,-26.8745 31.4613,-30.141"/>
</g>
<!-- Node10 -->
<g id="node10" class="node"><title>Node10</title>
<polygon fill="none" stroke="#bfbfbf" points="512,-56.5 512,-75.5 608,-75.5 608,-56.5 512,-56.5"/>
<text text-anchor="middle" x="560" y="-63.5" font-family="Helvetica,sans-Serif" font-size="10.00">yaml&#45;cpp/yaml.h</text>
</g>
<!-- Node1&#45;&gt;Node10 -->
<g id="edge28" class="edge"><title>Node1&#45;&gt;Node10</title>
<path fill="none" stroke="midnightblue" d="M447.966,-313.298C474.358,-255.276 530.799,-131.197 551.856,-84.9039"/>
<polygon fill="midnightblue" stroke="midnightblue" points="555.147,-86.1216 556.102,-75.5699 548.775,-83.2232 555.147,-86.1216"/>
</g>
<!-- Node19 -->
<g id="node19" class="node"><title>Node19</title>
<polygon fill="none" stroke="#bfbfbf" points="555.5,-246.5 555.5,-276.5 682.5,-276.5 682.5,-246.5 555.5,-246.5"/>
<text text-anchor="start" x="563.5" y="-264.5" font-family="Helvetica,sans-Serif" font-size="10.00">moveit/planning_scene</text>
<text text-anchor="middle" x="619" y="-253.5" font-family="Helvetica,sans-Serif" font-size="10.00">/planning_scene.h</text>
</g>
<!-- Node1&#45;&gt;Node19 -->
<g id="edge27" class="edge"><title>Node1&#45;&gt;Node19</title>
<path fill="none" stroke="midnightblue" d="M503.414,-313.421C528.421,-302.404 555.833,-290.328 577.684,-280.701"/>
<polygon fill="midnightblue" stroke="midnightblue" points="579.253,-283.835 586.993,-276.6 576.431,-277.429 579.253,-283.835"/>
</g>
<!-- Node3 -->
<g id="node3" class="node"><title>Node3</title>
<g id="a_node3"><a xlink:href="ActionPrimitive_8h.html" target="_top" xlink:title="ros_end_effector/Grasping\lActions/ActionPrimitive.h">
<polygon fill="none" stroke="black" points="191.5,-179.5 191.5,-209.5 334.5,-209.5 334.5,-179.5 191.5,-179.5"/>
<text text-anchor="start" x="199.5" y="-197.5" font-family="Helvetica,sans-Serif" font-size="10.00">ros_end_effector/Grasping</text>
<text text-anchor="middle" x="263" y="-186.5" font-family="Helvetica,sans-Serif" font-size="10.00">Actions/ActionPrimitive.h</text>
</a>
</g>
</g>
<!-- Node2&#45;&gt;Node3 -->
<g id="edge2" class="edge"><title>Node2&#45;&gt;Node3</title>
<path fill="none" stroke="midnightblue" d="M324.858,-246.396C314.092,-237.538 300.021,-225.96 288.02,-216.086"/>
<polygon fill="midnightblue" stroke="midnightblue" points="290.054,-213.227 280.108,-209.577 285.607,-218.633 290.054,-213.227"/>
</g>
<!-- Node2&#45;&gt;Node8 -->
<g id="edge26" class="edge"><title>Node2&#45;&gt;Node8</title>
<path fill="none" stroke="midnightblue" d="M269.823,-246.458C210.465,-231.132 128.632,-200.657 81,-143 53.3308,-109.507 43.3078,-57.7388 39.7988,-30.035"/>
<polygon fill="midnightblue" stroke="midnightblue" points="43.2404,-29.3129 38.6614,-19.7587 36.2829,-30.0831 43.2404,-29.3129"/>
</g>
<!-- Node2&#45;&gt;Node10 -->
<g id="edge25" class="edge"><title>Node2&#45;&gt;Node10</title>
<path fill="none" stroke="midnightblue" d="M358.03,-246.271C397.954,-210.834 501.573,-118.861 542.756,-82.3063"/>
<polygon fill="midnightblue" stroke="midnightblue" points="545.182,-84.8328 550.337,-75.5769 540.535,-79.5976 545.182,-84.8328"/>
</g>
<!-- Node4 -->
<g id="node4" class="node"><title>Node4</title>
<polygon fill="none" stroke="#bfbfbf" points="115,-118 115,-137 147,-137 147,-118 115,-118"/>
<text text-anchor="middle" x="131" y="-125" font-family="Helvetica,sans-Serif" font-size="10.00">set</text>
</g>
<!-- Node3&#45;&gt;Node4 -->
<g id="edge3" class="edge"><title>Node3&#45;&gt;Node4</title>
<path fill="none" stroke="midnightblue" d="M234.358,-179.396C211.108,-167.947 178.636,-151.957 156.327,-140.971"/>
<polygon fill="midnightblue" stroke="midnightblue" points="157.67,-137.732 147.153,-136.454 154.578,-144.012 157.67,-137.732"/>
</g>
<!-- Node5 -->
<g id="node5" class="node"><title>Node5</title>
<polygon fill="none" stroke="#bfbfbf" points="104,-56.5 104,-75.5 148,-75.5 148,-56.5 104,-56.5"/>
<text text-anchor="middle" x="126" y="-63.5" font-family="Helvetica,sans-Serif" font-size="10.00">string</text>
</g>
<!-- Node3&#45;&gt;Node5 -->
<g id="edge4" class="edge"><title>Node3&#45;&gt;Node5</title>
<path fill="none" stroke="midnightblue" d="M247.815,-179.479C222.056,-155.694 169.972,-107.602 143.019,-82.7145"/>
<polygon fill="midnightblue" stroke="midnightblue" points="145.239,-80.001 135.518,-75.7885 140.491,-85.1439 145.239,-80.001"/>
</g>
<!-- Node6 -->
<g id="node6" class="node"><title>Node6</title>
<polygon fill="none" stroke="#bfbfbf" points="166,-56.5 166,-75.5 204,-75.5 204,-56.5 166,-56.5"/>
<text text-anchor="middle" x="185" y="-63.5" font-family="Helvetica,sans-Serif" font-size="10.00">map</text>
</g>
<!-- Node3&#45;&gt;Node6 -->
<g id="edge5" class="edge"><title>Node3&#45;&gt;Node6</title>
<path fill="none" stroke="midnightblue" d="M254.355,-179.479C240.005,-156.206 211.306,-109.663 195.701,-84.3555"/>
<polygon fill="midnightblue" stroke="midnightblue" points="198.647,-82.4635 190.419,-75.7885 192.688,-86.1375 198.647,-82.4635"/>
</g>
<!-- Node7 -->
<g id="node7" class="node"><title>Node7</title>
<polygon fill="none" stroke="#bfbfbf" points="446.5,-56.5 446.5,-75.5 493.5,-75.5 493.5,-56.5 446.5,-56.5"/>
<text text-anchor="middle" x="470" y="-63.5" font-family="Helvetica,sans-Serif" font-size="10.00">vector</text>
</g>
<!-- Node3&#45;&gt;Node7 -->
<g id="edge6" class="edge"><title>Node3&#45;&gt;Node7</title>
<path fill="none" stroke="midnightblue" d="M312.811,-179.467C338.022,-171.078 368.409,-158.925 393,-143 418.508,-126.481 442.531,-100.484 456.756,-83.5889"/>
<polygon fill="midnightblue" stroke="midnightblue" points="459.61,-85.6287 463.258,-75.6817 454.203,-81.1828 459.61,-85.6287"/>
</g>
<!-- Node3&#45;&gt;Node8 -->
<g id="edge7" class="edge"><title>Node3&#45;&gt;Node8</title>
<path fill="none" stroke="midnightblue" d="M191.493,-182.831C162.391,-175.554 130.025,-163.366 106,-143 87.2729,-127.125 58.7701,-61.8023 45.4048,-29.3996"/>
<polygon fill="midnightblue" stroke="midnightblue" points="48.5044,-27.731 41.4886,-19.7919 42.0222,-30.3733 48.5044,-27.731"/>
</g>
<!-- Node9 -->
<g id="node9" class="node"><title>Node9</title>
<g id="a_node9"><a xlink:href="Action_8h.html" target="_top" xlink:title="ros_end_effector/Grasping\lActions/Action.h">
<polygon fill="none" stroke="black" points="241.5,-112.5 241.5,-142.5 384.5,-142.5 384.5,-112.5 241.5,-112.5"/>
<text text-anchor="start" x="249.5" y="-130.5" font-family="Helvetica,sans-Serif" font-size="10.00">ros_end_effector/Grasping</text>
<text text-anchor="middle" x="313" y="-119.5" font-family="Helvetica,sans-Serif" font-size="10.00">Actions/Action.h</text>
</a>
</g>
</g>
<!-- Node3&#45;&gt;Node9 -->
<g id="edge8" class="edge"><title>Node3&#45;&gt;Node9</title>
<path fill="none" stroke="midnightblue" d="M273.849,-179.396C280.336,-170.963 288.717,-160.067 296.06,-150.522"/>
<polygon fill="midnightblue" stroke="midnightblue" points="298.849,-152.637 302.172,-142.577 293.301,-148.369 298.849,-152.637"/>
</g>
<!-- Node3&#45;&gt;Node10 -->
<g id="edge24" class="edge"><title>Node3&#45;&gt;Node10</title>
<path fill="none" stroke="midnightblue" d="M321.331,-179.446C353.041,-170.818 392.509,-158.452 426,-143 449.4,-132.204 452.707,-124.927 475,-112 494.32,-100.797 516.654,-89.0169 533.579,-80.3206"/>
<polygon fill="midnightblue" stroke="midnightblue" points="535.541,-83.2489 542.856,-75.5845 532.358,-77.0144 535.541,-83.2489"/>
</g>
<!-- Node9&#45;&gt;Node5 -->
<g id="edge10" class="edge"><title>Node9&#45;&gt;Node5</title>
<path fill="none" stroke="midnightblue" d="M268.684,-112.399C234.624,-101.562 188.392,-86.8521 157.903,-77.151"/>
<polygon fill="midnightblue" stroke="midnightblue" points="158.798,-73.7628 148.207,-74.066 156.675,-80.4333 158.798,-73.7628"/>
</g>
<!-- Node9&#45;&gt;Node6 -->
<g id="edge11" class="edge"><title>Node9&#45;&gt;Node6</title>
<path fill="none" stroke="midnightblue" d="M282.666,-112.399C261.477,-102.55 233.406,-89.5014 212.798,-79.9217"/>
<polygon fill="midnightblue" stroke="midnightblue" points="214.169,-76.6993 203.625,-75.6578 211.218,-83.047 214.169,-76.6993"/>
</g>
<!-- Node9&#45;&gt;Node7 -->
<g id="edge9" class="edge"><title>Node9&#45;&gt;Node7</title>
<path fill="none" stroke="midnightblue" d="M350.207,-112.399C376.784,-102.327 412.189,-88.9093 437.605,-79.2769"/>
<polygon fill="midnightblue" stroke="midnightblue" points="439.044,-82.4745 447.155,-75.6578 436.564,-75.9288 439.044,-82.4745"/>
</g>
<!-- Node9&#45;&gt;Node8 -->
<g id="edge14" class="edge"><title>Node9&#45;&gt;Node8</title>
<path fill="none" stroke="midnightblue" d="M296.821,-112.258C277.946,-96.3483 245.202,-70.8809 213,-56 200.697,-50.3145 125.252,-31.7975 77.5241,-20.3646"/>
<polygon fill="midnightblue" stroke="midnightblue" points="78.041,-16.8897 67.5014,-17.9702 76.4144,-23.6981 78.041,-16.8897"/>
</g>
<!-- Node9&#45;&gt;Node10 -->
<g id="edge12" class="edge"><title>Node9&#45;&gt;Node10</title>
<path fill="none" stroke="midnightblue" d="M371.223,-112.475C415.138,-101.896 474.506,-87.5946 514.859,-77.874"/>
<polygon fill="midnightblue" stroke="midnightblue" points="515.786,-81.251 524.688,-75.5064 514.146,-74.4457 515.786,-81.251"/>
</g>
<!-- Node11 -->
<g id="node11" class="node"><title>Node11</title>
<polygon fill="none" stroke="#bfbfbf" points="559.5,-0.5 559.5,-19.5 616.5,-19.5 616.5,-0.5 559.5,-0.5"/>
<text text-anchor="middle" x="588" y="-7.5" font-family="Helvetica,sans-Serif" font-size="10.00">memory</text>
</g>
<!-- Node9&#45;&gt;Node11 -->
<g id="edge13" class="edge"><title>Node9&#45;&gt;Node11</title>
<path fill="none" stroke="midnightblue" d="M337.14,-112.383C370.244,-93.0842 426.807,-60.3492 437,-56 457.325,-47.3277 512.137,-31.6785 549.812,-21.3128"/>
<polygon fill="midnightblue" stroke="midnightblue" points="550.744,-24.6865 559.465,-18.6693 548.895,-17.9351 550.744,-24.6865"/>
</g>
<!-- Node12 -->
<g id="node12" class="node"><title>Node12</title>
<g id="a_node12"><a xlink:href="Utils_8h.html" target="_top" xlink:title="ros_end_effector/Utils.h">
<polygon fill="none" stroke="black" points="260,-56.5 260,-75.5 390,-75.5 390,-56.5 260,-56.5"/>
<text text-anchor="middle" x="325" y="-63.5" font-family="Helvetica,sans-Serif" font-size="10.00">ros_end_effector/Utils.h</text>
</a>
</g>
</g>
<!-- Node9&#45;&gt;Node12 -->
<g id="edge15" class="edge"><title>Node9&#45;&gt;Node12</title>
<path fill="none" stroke="midnightblue" d="M315.844,-112.399C317.462,-104.377 319.508,-94.2328 321.255,-85.569"/>
<polygon fill="midnightblue" stroke="midnightblue" points="324.708,-86.1524 323.254,-75.6578 317.846,-84.7684 324.708,-86.1524"/>
</g>
<!-- Node12&#45;&gt;Node8 -->
<g id="edge18" class="edge"><title>Node12&#45;&gt;Node8</title>
<path fill="none" stroke="midnightblue" d="M273.339,-56.4972C225.039,-48.3596 150.676,-35.3529 77.6609,-20.2704"/>
<polygon fill="midnightblue" stroke="midnightblue" points="78.3402,-16.8369 67.8369,-18.2266 76.9143,-23.6901 78.3402,-16.8369"/>
</g>
<!-- Node12&#45;&gt;Node11 -->
<g id="edge17" class="edge"><title>Node12&#45;&gt;Node11</title>
<path fill="none" stroke="midnightblue" d="M369.921,-56.4979C413.274,-48.1846 481.008,-34.9141 549.312,-20.088"/>
<polygon fill="midnightblue" stroke="midnightblue" points="550.366,-23.4403 559.391,-17.8896 548.875,-16.6011 550.366,-23.4403"/>
</g>
<!-- Node13 -->
<g id="node13" class="node"><title>Node13</title>
<polygon fill="none" stroke="#bfbfbf" points="85.5,-0.5 85.5,-19.5 132.5,-19.5 132.5,-0.5 85.5,-0.5"/>
<text text-anchor="middle" x="109" y="-7.5" font-family="Helvetica,sans-Serif" font-size="10.00">cmath</text>
</g>
<!-- Node12&#45;&gt;Node13 -->
<g id="edge16" class="edge"><title>Node12&#45;&gt;Node13</title>
<path fill="none" stroke="midnightblue" d="M289.166,-56.47C254.244,-48.0947 199.401,-34.7773 142.641,-20.1175"/>
<polygon fill="midnightblue" stroke="midnightblue" points="143.332,-16.6812 132.774,-17.5605 141.576,-23.4573 143.332,-16.6812"/>
</g>
<!-- Node14 -->
<g id="node14" class="node"><title>Node14</title>
<polygon fill="none" stroke="#bfbfbf" points="151,-0.5 151,-19.5 199,-19.5 199,-0.5 151,-0.5"/>
<text text-anchor="middle" x="175" y="-7.5" font-family="Helvetica,sans-Serif" font-size="10.00">dlfcn.h</text>
</g>
<!-- Node12&#45;&gt;Node14 -->
<g id="edge19" class="edge"><title>Node12&#45;&gt;Node14</title>
<path fill="none" stroke="midnightblue" d="M301.232,-56.4435C276.107,-47.3986 236.289,-33.064 208.1,-22.9158"/>
<polygon fill="midnightblue" stroke="midnightblue" points="209.251,-19.6106 198.657,-19.5164 206.88,-26.1968 209.251,-19.6106"/>
</g>
<!-- Node15 -->
<g id="node15" class="node"><title>Node15</title>
<polygon fill="none" stroke="#bfbfbf" points="217,-0.5 217,-19.5 333,-19.5 333,-0.5 217,-0.5"/>
<text text-anchor="middle" x="275" y="-7.5" font-family="Helvetica,sans-Serif" font-size="10.00">boost/filesystem.hpp</text>
</g>
<!-- Node12&#45;&gt;Node15 -->
<g id="edge20" class="edge"><title>Node12&#45;&gt;Node15</title>
<path fill="none" stroke="midnightblue" d="M316.744,-56.083C309.535,-48.2982 298.89,-36.8015 290.154,-27.3665"/>
<polygon fill="midnightblue" stroke="midnightblue" points="292.465,-24.7108 283.103,-19.7511 287.329,-29.4666 292.465,-24.7108"/>
</g>
<!-- Node16 -->
<g id="node16" class="node"><title>Node16</title>
<polygon fill="none" stroke="#bfbfbf" points="351,-0.5 351,-19.5 405,-19.5 405,-0.5 351,-0.5"/>
<text text-anchor="middle" x="378" y="-7.5" font-family="Helvetica,sans-Serif" font-size="10.00">fstream</text>
</g>
<!-- Node12&#45;&gt;Node16 -->
<g id="edge21" class="edge"><title>Node12&#45;&gt;Node16</title>
<path fill="none" stroke="midnightblue" d="M333.752,-56.083C341.47,-48.2195 352.905,-36.5688 362.217,-27.0813"/>
<polygon fill="midnightblue" stroke="midnightblue" points="364.904,-29.3396 369.411,-19.7511 359.908,-24.4363 364.904,-29.3396"/>
</g>
<!-- Node17 -->
<g id="node17" class="node"><title>Node17</title>
<polygon fill="none" stroke="#bfbfbf" points="423,-0.5 423,-19.5 473,-19.5 473,-0.5 423,-0.5"/>
<text text-anchor="middle" x="448" y="-7.5" font-family="Helvetica,sans-Serif" font-size="10.00">chrono</text>
</g>
<!-- Node12&#45;&gt;Node17 -->
<g id="edge22" class="edge"><title>Node12&#45;&gt;Node17</title>
<path fill="none" stroke="midnightblue" d="M344.49,-56.4435C364.642,-47.5961 396.323,-33.6875 419.331,-23.5865"/>
<polygon fill="midnightblue" stroke="midnightblue" points="420.852,-26.7411 428.601,-19.5164 418.038,-20.3316 420.852,-26.7411"/>
</g>
<!-- Node18 -->
<g id="node18" class="node"><title>Node18</title>
<polygon fill="none" stroke="#bfbfbf" points="491,-0.5 491,-19.5 541,-19.5 541,-0.5 491,-0.5"/>
<text text-anchor="middle" x="516" y="-7.5" font-family="Helvetica,sans-Serif" font-size="10.00">atomic</text>
</g>
<!-- Node12&#45;&gt;Node18 -->
<g id="edge23" class="edge"><title>Node12&#45;&gt;Node18</title>
<path fill="none" stroke="midnightblue" d="M355.265,-56.4435C389.347,-46.8075 444.665,-31.168 480.691,-20.9826"/>
<polygon fill="midnightblue" stroke="midnightblue" points="482.086,-24.2255 490.757,-18.1368 480.182,-17.4895 482.086,-24.2255"/>
</g>
</g>
</svg>
