<?xml version="1.0" encoding="UTF-8" standalone="no"?>
<!DOCTYPE svg PUBLIC "-//W3C//DTD SVG 1.1//EN"
 "http://www.w3.org/Graphics/SVG/1.1/DTD/svg11.dtd">
<!-- Generated by graphviz version 2.38.0 (20140413.2041)
 -->
<!-- Title: /home/travis/build/ADVRHumanoids/ROSEndEffector/include/end_effector/GraspingActions/ActionTimed.h Pages: 1 -->
<svg width="761pt" height="240pt"
 viewBox="0.00 0.00 760.50 240.00" xmlns="http://www.w3.org/2000/svg" xmlns:xlink="http://www.w3.org/1999/xlink">
<g id="graph0" class="graph" transform="scale(1 1) rotate(0) translate(4 236)">
<title>/home/travis/build/ADVRHumanoids/ROSEndEffector/include/end_effector/GraspingActions/ActionTimed.h</title>
<!-- Node1 -->
<g id="node1" class="node"><title>Node1</title>
<polygon fill="#bfbfbf" stroke="black" points="72,-179.5 72,-231.5 269,-231.5 269,-179.5 72,-179.5"/>
<text text-anchor="start" x="80" y="-219.5" font-family="Helvetica,sans-Serif" font-size="10.00">/home/travis/build</text>
<text text-anchor="start" x="80" y="-208.5" font-family="Helvetica,sans-Serif" font-size="10.00">/ADVRHumanoids/ROSEndEffector</text>
<text text-anchor="start" x="80" y="-197.5" font-family="Helvetica,sans-Serif" font-size="10.00">/include/end_effector/GraspingActions</text>
<text text-anchor="middle" x="170.5" y="-186.5" font-family="Helvetica,sans-Serif" font-size="10.00">/ActionTimed.h</text>
</g>
<!-- Node2 -->
<g id="node2" class="node"><title>Node2</title>
<polygon fill="none" stroke="#bfbfbf" points="0,-56.5 0,-75.5 47,-75.5 47,-56.5 0,-56.5"/>
<text text-anchor="middle" x="23.5" y="-63.5" font-family="Helvetica,sans-Serif" font-size="10.00">vector</text>
</g>
<!-- Node1&#45;&gt;Node2 -->
<g id="edge1" class="edge"><title>Node1&#45;&gt;Node2</title>
<path fill="none" stroke="midnightblue" d="M143.538,-179.28C113.322,-151.017 65.2805,-106.08 40.1152,-82.5414"/>
<polygon fill="midnightblue" stroke="midnightblue" points="42.4941,-79.9741 32.8,-75.699 37.7123,-85.0863 42.4941,-79.9741"/>
</g>
<!-- Node3 -->
<g id="node3" class="node"><title>Node3</title>
<polygon fill="none" stroke="#bfbfbf" points="65.5,-56.5 65.5,-75.5 109.5,-75.5 109.5,-56.5 65.5,-56.5"/>
<text text-anchor="middle" x="87.5" y="-63.5" font-family="Helvetica,sans-Serif" font-size="10.00">string</text>
</g>
<!-- Node1&#45;&gt;Node3 -->
<g id="edge2" class="edge"><title>Node1&#45;&gt;Node3</title>
<path fill="none" stroke="midnightblue" d="M153.602,-179.29C146.333,-168.251 137.839,-155.084 130.5,-143 118.493,-123.23 105.524,-100.029 97.0048,-84.5094"/>
<polygon fill="midnightblue" stroke="midnightblue" points="99.9681,-82.6331 92.1038,-75.5336 93.8243,-85.9878 99.9681,-82.6331"/>
</g>
<!-- Node4 -->
<g id="node4" class="node"><title>Node4</title>
<polygon fill="none" stroke="#bfbfbf" points="127.5,-56.5 127.5,-75.5 165.5,-75.5 165.5,-56.5 127.5,-56.5"/>
<text text-anchor="middle" x="146.5" y="-63.5" font-family="Helvetica,sans-Serif" font-size="10.00">map</text>
</g>
<!-- Node1&#45;&gt;Node4 -->
<g id="edge3" class="edge"><title>Node1&#45;&gt;Node4</title>
<path fill="none" stroke="midnightblue" d="M152.849,-179.394C146.358,-168.697 139.792,-155.758 136.5,-143 131.524,-123.713 135.784,-101 140.182,-85.4598"/>
<polygon fill="midnightblue" stroke="midnightblue" points="143.633,-86.1523 143.279,-75.5634 136.952,-84.062 143.633,-86.1523"/>
</g>
<!-- Node5 -->
<g id="node5" class="node"><title>Node5</title>
<g id="a_node5"><a xlink:href="Action_8h.html" target="_top" xlink:title="end_effector/GraspingActions\l/Action.h">
<polygon fill="none" stroke="black" points="145.5,-112.5 145.5,-142.5 303.5,-142.5 303.5,-112.5 145.5,-112.5"/>
<text text-anchor="start" x="153.5" y="-130.5" font-family="Helvetica,sans-Serif" font-size="10.00">end_effector/GraspingActions</text>
<text text-anchor="middle" x="224.5" y="-119.5" font-family="Helvetica,sans-Serif" font-size="10.00">/Action.h</text>
</a>
</g>
</g>
<!-- Node1&#45;&gt;Node5 -->
<g id="edge4" class="edge"><title>Node1&#45;&gt;Node5</title>
<path fill="none" stroke="midnightblue" d="M188.481,-179.193C194.924,-170.125 202.141,-159.968 208.414,-151.14"/>
<polygon fill="midnightblue" stroke="midnightblue" points="211.368,-153.024 214.307,-142.845 205.662,-148.97 211.368,-153.024"/>
</g>
<!-- Node6 -->
<g id="node6" class="node"><title>Node6</title>
<polygon fill="none" stroke="#bfbfbf" points="259.5,-56.5 259.5,-75.5 355.5,-75.5 355.5,-56.5 259.5,-56.5"/>
<text text-anchor="middle" x="307.5" y="-63.5" font-family="Helvetica,sans-Serif" font-size="10.00">yaml&#45;cpp/yaml.h</text>
</g>
<!-- Node1&#45;&gt;Node6 -->
<g id="edge21" class="edge"><title>Node1&#45;&gt;Node6</title>
<path fill="none" stroke="midnightblue" d="M269.027,-179.732C286.225,-170.941 301.956,-159.057 312.5,-143 323.693,-125.954 319.586,-101.865 314.551,-85.4044"/>
<polygon fill="midnightblue" stroke="midnightblue" points="317.823,-84.1566 311.259,-75.8398 311.204,-86.4345 317.823,-84.1566"/>
</g>
<!-- Node9 -->
<g id="node9" class="node"><title>Node9</title>
<g id="a_node9"><a xlink:href="Utils_8h.html" target="_top" xlink:title="end_effector/Utils.h">
<polygon fill="none" stroke="black" points="373.5,-56.5 373.5,-75.5 483.5,-75.5 483.5,-56.5 373.5,-56.5"/>
<text text-anchor="middle" x="428.5" y="-63.5" font-family="Helvetica,sans-Serif" font-size="10.00">end_effector/Utils.h</text>
</a>
</g>
</g>
<!-- Node1&#45;&gt;Node9 -->
<g id="edge20" class="edge"><title>Node1&#45;&gt;Node9</title>
<path fill="none" stroke="midnightblue" d="M249.485,-179.352C275.993,-169.564 305.224,-157.248 330.5,-143 361.403,-125.58 393.123,-99.1012 411.806,-82.4405"/>
<polygon fill="midnightblue" stroke="midnightblue" points="414.359,-84.8505 419.423,-75.5443 409.661,-79.6612 414.359,-84.8505"/>
</g>
<!-- Node5&#45;&gt;Node2 -->
<g id="edge5" class="edge"><title>Node5&#45;&gt;Node2</title>
<path fill="none" stroke="midnightblue" d="M177.12,-112.475C140.256,-101.562 90.0094,-86.6881 57.1716,-76.9675"/>
<polygon fill="midnightblue" stroke="midnightblue" points="57.7429,-73.4865 47.1607,-74.004 55.7559,-80.1986 57.7429,-73.4865"/>
</g>
<!-- Node5&#45;&gt;Node3 -->
<g id="edge6" class="edge"><title>Node5&#45;&gt;Node3</title>
<path fill="none" stroke="midnightblue" d="M192.033,-112.399C169.149,-102.461 138.766,-89.2649 116.656,-79.6625"/>
<polygon fill="midnightblue" stroke="midnightblue" points="118.001,-76.4311 107.435,-75.6578 115.213,-82.8517 118.001,-76.4311"/>
</g>
<!-- Node5&#45;&gt;Node4 -->
<g id="edge7" class="edge"><title>Node5&#45;&gt;Node4</title>
<path fill="none" stroke="midnightblue" d="M206.015,-112.399C193.98,-103.218 178.3,-91.2579 166.057,-81.9182"/>
<polygon fill="midnightblue" stroke="midnightblue" points="167.923,-78.9401 157.85,-75.6578 163.678,-84.5056 167.923,-78.9401"/>
</g>
<!-- Node5&#45;&gt;Node6 -->
<g id="edge8" class="edge"><title>Node5&#45;&gt;Node6</title>
<path fill="none" stroke="midnightblue" d="M244.17,-112.399C257.101,-103.129 273.986,-91.0254 287.068,-81.6469"/>
<polygon fill="midnightblue" stroke="midnightblue" points="289.335,-84.3287 295.423,-75.6578 285.256,-78.6395 289.335,-84.3287"/>
</g>
<!-- Node7 -->
<g id="node7" class="node"><title>Node7</title>
<polygon fill="none" stroke="#bfbfbf" points="222,-0.5 222,-19.5 279,-19.5 279,-0.5 222,-0.5"/>
<text text-anchor="middle" x="250.5" y="-7.5" font-family="Helvetica,sans-Serif" font-size="10.00">memory</text>
</g>
<!-- Node5&#45;&gt;Node7 -->
<g id="edge9" class="edge"><title>Node5&#45;&gt;Node7</title>
<path fill="none" stroke="midnightblue" d="M227.688,-112.337C232.373,-91.5271 241.121,-52.6632 246.317,-29.5834"/>
<polygon fill="midnightblue" stroke="midnightblue" points="249.767,-30.194 248.548,-19.6695 242.938,-28.6567 249.767,-30.194"/>
</g>
<!-- Node8 -->
<g id="node8" class="node"><title>Node8</title>
<polygon fill="none" stroke="#bfbfbf" points="145,-0.5 145,-19.5 204,-19.5 204,-0.5 145,-0.5"/>
<text text-anchor="middle" x="174.5" y="-7.5" font-family="Helvetica,sans-Serif" font-size="10.00">iostream</text>
</g>
<!-- Node5&#45;&gt;Node8 -->
<g id="edge10" class="edge"><title>Node5&#45;&gt;Node8</title>
<path fill="none" stroke="midnightblue" d="M218.369,-112.337C209.278,-91.3379 192.229,-51.9551 182.274,-28.9579"/>
<polygon fill="midnightblue" stroke="midnightblue" points="185.438,-27.456 178.253,-19.6695 179.014,-30.2369 185.438,-27.456"/>
</g>
<!-- Node5&#45;&gt;Node9 -->
<g id="edge11" class="edge"><title>Node5&#45;&gt;Node9</title>
<path fill="none" stroke="midnightblue" d="M272.587,-112.475C308.242,-102.075 356.231,-88.0783 389.51,-78.3722"/>
<polygon fill="midnightblue" stroke="midnightblue" points="390.715,-81.6664 399.335,-75.5064 388.755,-74.9464 390.715,-81.6664"/>
</g>
<!-- Node9&#45;&gt;Node7 -->
<g id="edge13" class="edge"><title>Node9&#45;&gt;Node7</title>
<path fill="none" stroke="midnightblue" d="M400.295,-56.4435C370.09,-47.2801 321.989,-32.6876 288.471,-22.5192"/>
<polygon fill="midnightblue" stroke="midnightblue" points="289.158,-19.0703 278.573,-19.5164 287.126,-25.7688 289.158,-19.0703"/>
</g>
<!-- Node9&#45;&gt;Node8 -->
<g id="edge14" class="edge"><title>Node9&#45;&gt;Node8</title>
<path fill="none" stroke="midnightblue" d="M385.803,-56.4609C344.308,-48.0825 279.253,-34.7384 214.345,-20.3714"/>
<polygon fill="midnightblue" stroke="midnightblue" points="214.874,-16.9038 204.353,-18.1513 213.356,-23.7371 214.874,-16.9038"/>
</g>
<!-- Node10 -->
<g id="node10" class="node"><title>Node10</title>
<polygon fill="none" stroke="#bfbfbf" points="297,-0.5 297,-19.5 344,-19.5 344,-0.5 297,-0.5"/>
<text text-anchor="middle" x="320.5" y="-7.5" font-family="Helvetica,sans-Serif" font-size="10.00">cmath</text>
</g>
<!-- Node9&#45;&gt;Node10 -->
<g id="edge12" class="edge"><title>Node9&#45;&gt;Node10</title>
<path fill="none" stroke="midnightblue" d="M411.148,-56.324C393.828,-47.6641 366.985,-34.2424 346.998,-24.249"/>
<polygon fill="midnightblue" stroke="midnightblue" points="348.319,-20.9962 337.809,-19.6545 345.188,-27.2572 348.319,-20.9962"/>
</g>
<!-- Node11 -->
<g id="node11" class="node"><title>Node11</title>
<polygon fill="none" stroke="#bfbfbf" points="362.5,-0.5 362.5,-19.5 410.5,-19.5 410.5,-0.5 362.5,-0.5"/>
<text text-anchor="middle" x="386.5" y="-7.5" font-family="Helvetica,sans-Serif" font-size="10.00">dlfcn.h</text>
</g>
<!-- Node9&#45;&gt;Node11 -->
<g id="edge15" class="edge"><title>Node9&#45;&gt;Node11</title>
<path fill="none" stroke="midnightblue" d="M421.565,-56.083C415.571,-48.3768 406.748,-37.0333 399.452,-27.6531"/>
<polygon fill="midnightblue" stroke="midnightblue" points="402.209,-25.4958 393.306,-19.7511 396.683,-29.7934 402.209,-25.4958"/>
</g>
<!-- Node12 -->
<g id="node12" class="node"><title>Node12</title>
<polygon fill="none" stroke="#bfbfbf" points="428.5,-0.5 428.5,-19.5 544.5,-19.5 544.5,-0.5 428.5,-0.5"/>
<text text-anchor="middle" x="486.5" y="-7.5" font-family="Helvetica,sans-Serif" font-size="10.00">boost/filesystem.hpp</text>
</g>
<!-- Node9&#45;&gt;Node12 -->
<g id="edge16" class="edge"><title>Node9&#45;&gt;Node12</title>
<path fill="none" stroke="midnightblue" d="M437.819,-56.324C446.393,-48.3414 459.312,-36.3128 469.688,-26.6529"/>
<polygon fill="midnightblue" stroke="midnightblue" points="472.078,-29.2098 477.012,-19.8339 467.308,-24.0865 472.078,-29.2098"/>
</g>
<!-- Node13 -->
<g id="node13" class="node"><title>Node13</title>
<polygon fill="none" stroke="#bfbfbf" points="562.5,-0.5 562.5,-19.5 616.5,-19.5 616.5,-0.5 562.5,-0.5"/>
<text text-anchor="middle" x="589.5" y="-7.5" font-family="Helvetica,sans-Serif" font-size="10.00">fstream</text>
</g>
<!-- Node9&#45;&gt;Node13 -->
<g id="edge17" class="edge"><title>Node9&#45;&gt;Node13</title>
<path fill="none" stroke="midnightblue" d="M454.011,-56.4435C481.096,-47.3591 524.09,-32.9388 554.369,-22.7831"/>
<polygon fill="midnightblue" stroke="midnightblue" points="555.74,-26.0148 564.108,-19.5164 553.514,-19.3781 555.74,-26.0148"/>
</g>
<!-- Node14 -->
<g id="node14" class="node"><title>Node14</title>
<polygon fill="none" stroke="#bfbfbf" points="634.5,-0.5 634.5,-19.5 684.5,-19.5 684.5,-0.5 634.5,-0.5"/>
<text text-anchor="middle" x="659.5" y="-7.5" font-family="Helvetica,sans-Serif" font-size="10.00">chrono</text>
</g>
<!-- Node9&#45;&gt;Node14 -->
<g id="edge18" class="edge"><title>Node9&#45;&gt;Node14</title>
<path fill="none" stroke="midnightblue" d="M467.84,-56.4291C505.571,-48.1163 564.386,-34.9184 624.266,-20.2441"/>
<polygon fill="midnightblue" stroke="midnightblue" points="625.4,-23.5696 634.274,-17.7802 623.727,-16.7725 625.4,-23.5696"/>
</g>
<!-- Node15 -->
<g id="node15" class="node"><title>Node15</title>
<polygon fill="none" stroke="#bfbfbf" points="702.5,-0.5 702.5,-19.5 752.5,-19.5 752.5,-0.5 702.5,-0.5"/>
<text text-anchor="middle" x="727.5" y="-7.5" font-family="Helvetica,sans-Serif" font-size="10.00">atomic</text>
</g>
<!-- Node9&#45;&gt;Node15 -->
<g id="edge19" class="edge"><title>Node9&#45;&gt;Node15</title>
<path fill="none" stroke="midnightblue" d="M483.592,-57.1331C535.18,-49.4311 614.598,-36.7182 692.346,-20.094"/>
<polygon fill="midnightblue" stroke="midnightblue" points="693.276,-23.4739 702.311,-17.9396 691.797,-16.632 693.276,-23.4739"/>
</g>
</g>
</svg>
