<?xml version="1.0" encoding="UTF-8" standalone="no"?>
<!DOCTYPE svg PUBLIC "-//W3C//DTD SVG 1.1//EN"
 "http://www.w3.org/Graphics/SVG/1.1/DTD/svg11.dtd">
<!-- Generated by graphviz version 2.38.0 (20140413.2041)
 -->
<!-- Title: /home/travis/build/ADVRHumanoids/ROSEndEffector/include/end_effector/GraspingActions/ActionPrimitive.h Pages: 1 -->
<svg width="679pt" height="240pt"
 viewBox="0.00 0.00 678.50 240.00" xmlns="http://www.w3.org/2000/svg" xmlns:xlink="http://www.w3.org/1999/xlink">
<g id="graph0" class="graph" transform="scale(1 1) rotate(0) translate(4 236)">
<title>/home/travis/build/ADVRHumanoids/ROSEndEffector/include/end_effector/GraspingActions/ActionPrimitive.h</title>
<!-- Node1 -->
<g id="node1" class="node"><title>Node1</title>
<polygon fill="#bfbfbf" stroke="black" points="49.5,-179.5 49.5,-231.5 246.5,-231.5 246.5,-179.5 49.5,-179.5"/>
<text text-anchor="start" x="57.5" y="-219.5" font-family="Helvetica,sans-Serif" font-size="10.00">/home/travis/build</text>
<text text-anchor="start" x="57.5" y="-208.5" font-family="Helvetica,sans-Serif" font-size="10.00">/ADVRHumanoids/ROSEndEffector</text>
<text text-anchor="start" x="57.5" y="-197.5" font-family="Helvetica,sans-Serif" font-size="10.00">/include/end_effector/GraspingActions</text>
<text text-anchor="middle" x="148" y="-186.5" font-family="Helvetica,sans-Serif" font-size="10.00">/ActionPrimitive.h</text>
</g>
<!-- Node2 -->
<g id="node2" class="node"><title>Node2</title>
<polygon fill="none" stroke="#bfbfbf" points="0,-118 0,-137 32,-137 32,-118 0,-118"/>
<text text-anchor="middle" x="16" y="-125" font-family="Helvetica,sans-Serif" font-size="10.00">set</text>
</g>
<!-- Node1&#45;&gt;Node2 -->
<g id="edge1" class="edge"><title>Node1&#45;&gt;Node2</title>
<path fill="none" stroke="midnightblue" d="M104.412,-179.404C82.798,-166.959 57.5444,-152.419 39.5741,-142.073"/>
<polygon fill="midnightblue" stroke="midnightblue" points="41.3111,-139.034 30.8985,-137.078 37.8183,-145.101 41.3111,-139.034"/>
</g>
<!-- Node3 -->
<g id="node3" class="node"><title>Node3</title>
<polygon fill="none" stroke="#bfbfbf" points="88,-56.5 88,-75.5 132,-75.5 132,-56.5 88,-56.5"/>
<text text-anchor="middle" x="110" y="-63.5" font-family="Helvetica,sans-Serif" font-size="10.00">string</text>
</g>
<!-- Node1&#45;&gt;Node3 -->
<g id="edge2" class="edge"><title>Node1&#45;&gt;Node3</title>
<path fill="none" stroke="midnightblue" d="M141.03,-179.28C133.524,-152.118 121.761,-109.557 115.082,-85.3879"/>
<polygon fill="midnightblue" stroke="midnightblue" points="118.441,-84.4054 112.404,-75.699 111.694,-86.2701 118.441,-84.4054"/>
</g>
<!-- Node4 -->
<g id="node4" class="node"><title>Node4</title>
<polygon fill="none" stroke="#bfbfbf" points="150,-56.5 150,-75.5 188,-75.5 188,-56.5 150,-56.5"/>
<text text-anchor="middle" x="169" y="-63.5" font-family="Helvetica,sans-Serif" font-size="10.00">map</text>
</g>
<!-- Node1&#45;&gt;Node4 -->
<g id="edge3" class="edge"><title>Node1&#45;&gt;Node4</title>
<path fill="none" stroke="midnightblue" d="M151.852,-179.28C155.981,-152.241 162.442,-109.94 166.142,-85.7156"/>
<polygon fill="midnightblue" stroke="midnightblue" points="169.621,-86.1128 167.671,-75.699 162.702,-85.0559 169.621,-86.1128"/>
</g>
<!-- Node5 -->
<g id="node5" class="node"><title>Node5</title>
<polygon fill="none" stroke="#bfbfbf" points="206.5,-56.5 206.5,-75.5 253.5,-75.5 253.5,-56.5 206.5,-56.5"/>
<text text-anchor="middle" x="230" y="-63.5" font-family="Helvetica,sans-Serif" font-size="10.00">vector</text>
</g>
<!-- Node1&#45;&gt;Node5 -->
<g id="edge4" class="edge"><title>Node1&#45;&gt;Node5</title>
<path fill="none" stroke="midnightblue" d="M163.04,-179.28C179.457,-151.751 205.308,-108.404 219.612,-84.4182"/>
<polygon fill="midnightblue" stroke="midnightblue" points="222.696,-86.0804 224.812,-75.699 216.684,-82.495 222.696,-86.0804"/>
</g>
<!-- Node6 -->
<g id="node6" class="node"><title>Node6</title>
<polygon fill="none" stroke="#bfbfbf" points="61.5,-0.5 61.5,-19.5 120.5,-19.5 120.5,-0.5 61.5,-0.5"/>
<text text-anchor="middle" x="91" y="-7.5" font-family="Helvetica,sans-Serif" font-size="10.00">iostream</text>
</g>
<!-- Node1&#45;&gt;Node6 -->
<g id="edge5" class="edge"><title>Node1&#45;&gt;Node6</title>
<path fill="none" stroke="midnightblue" d="M129.697,-179.482C112.755,-154.655 88.7582,-114.8 79,-76 75.1078,-60.5239 78.9851,-42.6813 83.3395,-29.6098"/>
<polygon fill="midnightblue" stroke="midnightblue" points="86.7421,-30.5014 86.9493,-19.9086 80.1816,-28.0602 86.7421,-30.5014"/>
</g>
<!-- Node7 -->
<g id="node7" class="node"><title>Node7</title>
<g id="a_node7"><a xlink:href="Action_8h.html" target="_top" xlink:title="end_effector/GraspingActions\l/Action.h">
<polygon fill="none" stroke="black" points="214,-112.5 214,-142.5 372,-142.5 372,-112.5 214,-112.5"/>
<text text-anchor="start" x="222" y="-130.5" font-family="Helvetica,sans-Serif" font-size="10.00">end_effector/GraspingActions</text>
<text text-anchor="middle" x="293" y="-119.5" font-family="Helvetica,sans-Serif" font-size="10.00">/Action.h</text>
</a>
</g>
</g>
<!-- Node1&#45;&gt;Node7 -->
<g id="edge6" class="edge"><title>Node1&#45;&gt;Node7</title>
<path fill="none" stroke="midnightblue" d="M195.88,-179.404C215.781,-168.974 238.489,-157.071 256.941,-147.4"/>
<polygon fill="midnightblue" stroke="midnightblue" points="258.663,-150.449 265.895,-142.707 255.413,-144.249 258.663,-150.449"/>
</g>
<!-- Node8 -->
<g id="node8" class="node"><title>Node8</title>
<polygon fill="none" stroke="#bfbfbf" points="476,-56.5 476,-75.5 572,-75.5 572,-56.5 476,-56.5"/>
<text text-anchor="middle" x="524" y="-63.5" font-family="Helvetica,sans-Serif" font-size="10.00">yaml&#45;cpp/yaml.h</text>
</g>
<!-- Node1&#45;&gt;Node8 -->
<g id="edge22" class="edge"><title>Node1&#45;&gt;Node8</title>
<path fill="none" stroke="midnightblue" d="M246.527,-183.821C288.658,-173.622 337.954,-159.859 381,-143 425.494,-125.574 473.939,-97.7878 501.477,-81.0786"/>
<polygon fill="midnightblue" stroke="midnightblue" points="503.609,-83.8766 510.305,-75.6655 499.95,-77.9091 503.609,-83.8766"/>
</g>
<!-- Node7&#45;&gt;Node3 -->
<g id="edge8" class="edge"><title>Node7&#45;&gt;Node3</title>
<path fill="none" stroke="midnightblue" d="M249.632,-112.399C216.729,-101.702 172.219,-87.2297 142.379,-77.5277"/>
<polygon fill="midnightblue" stroke="midnightblue" points="143.072,-74.0725 132.479,-74.3089 140.907,-80.7295 143.072,-74.0725"/>
</g>
<!-- Node7&#45;&gt;Node4 -->
<g id="edge9" class="edge"><title>Node7&#45;&gt;Node4</title>
<path fill="none" stroke="midnightblue" d="M263.614,-112.399C243.18,-102.595 216.14,-89.6194 196.201,-80.052"/>
<polygon fill="midnightblue" stroke="midnightblue" points="197.573,-76.8284 187.043,-75.6578 194.545,-83.1395 197.573,-76.8284"/>
</g>
<!-- Node7&#45;&gt;Node5 -->
<g id="edge7" class="edge"><title>Node7&#45;&gt;Node5</title>
<path fill="none" stroke="midnightblue" d="M278.07,-112.399C268.632,-103.486 256.42,-91.9523 246.667,-82.7408"/>
<polygon fill="midnightblue" stroke="midnightblue" points="248.84,-79.9795 239.167,-75.6578 244.034,-85.0686 248.84,-79.9795"/>
</g>
<!-- Node7&#45;&gt;Node6 -->
<g id="edge12" class="edge"><title>Node7&#45;&gt;Node6</title>
<path fill="none" stroke="midnightblue" d="M290.584,-112.407C287.093,-96.3921 279.08,-70.5894 262,-56 256.92,-51.6605 179.648,-32.4075 130.735,-20.5348"/>
<polygon fill="midnightblue" stroke="midnightblue" points="131.306,-17.0723 120.764,-18.1214 129.66,-23.8758 131.306,-17.0723"/>
</g>
<!-- Node7&#45;&gt;Node8 -->
<g id="edge10" class="edge"><title>Node7&#45;&gt;Node8</title>
<path fill="none" stroke="midnightblue" d="M347.451,-112.475C388.174,-101.986 443.104,-87.8367 480.82,-78.1221"/>
<polygon fill="midnightblue" stroke="midnightblue" points="482.164,-81.3902 490.975,-75.5064 480.418,-74.6114 482.164,-81.3902"/>
</g>
<!-- Node9 -->
<g id="node9" class="node"><title>Node9</title>
<polygon fill="none" stroke="#bfbfbf" points="613.5,-0.5 613.5,-19.5 670.5,-19.5 670.5,-0.5 613.5,-0.5"/>
<text text-anchor="middle" x="642" y="-7.5" font-family="Helvetica,sans-Serif" font-size="10.00">memory</text>
</g>
<!-- Node7&#45;&gt;Node9 -->
<g id="edge11" class="edge"><title>Node7&#45;&gt;Node9</title>
<path fill="none" stroke="midnightblue" d="M335.226,-112.401C362.366,-102.953 398.184,-89.7621 429,-76 446.426,-68.2176 449.193,-62.8674 467,-56 479.714,-51.0968 555.784,-32.1199 603.352,-20.4321"/>
<polygon fill="midnightblue" stroke="midnightblue" points="604.448,-23.7671 613.326,-17.9855 602.78,-16.9686 604.448,-23.7671"/>
</g>
<!-- Node10 -->
<g id="node10" class="node"><title>Node10</title>
<g id="a_node10"><a xlink:href="Utils_8h.html" target="_top" xlink:title="end_effector/Utils.h">
<polygon fill="none" stroke="black" points="310,-56.5 310,-75.5 420,-75.5 420,-56.5 310,-56.5"/>
<text text-anchor="middle" x="365" y="-63.5" font-family="Helvetica,sans-Serif" font-size="10.00">end_effector/Utils.h</text>
</a>
</g>
</g>
<!-- Node7&#45;&gt;Node10 -->
<g id="edge13" class="edge"><title>Node7&#45;&gt;Node10</title>
<path fill="none" stroke="midnightblue" d="M310.063,-112.399C321.065,-103.308 335.365,-91.4899 346.618,-82.1909"/>
<polygon fill="midnightblue" stroke="midnightblue" points="349.044,-84.726 354.523,-75.6578 344.585,-79.33 349.044,-84.726"/>
</g>
<!-- Node10&#45;&gt;Node6 -->
<g id="edge16" class="edge"><title>Node10&#45;&gt;Node6</title>
<path fill="none" stroke="midnightblue" d="M317.633,-56.4704C272.234,-48.1736 201.535,-34.938 130.768,-20.099"/>
<polygon fill="midnightblue" stroke="midnightblue" points="131.292,-16.6325 120.785,-17.9948 129.848,-23.482 131.292,-16.6325"/>
</g>
<!-- Node10&#45;&gt;Node9 -->
<g id="edge15" class="edge"><title>Node10&#45;&gt;Node9</title>
<path fill="none" stroke="midnightblue" d="M414.11,-56.4415C460.345,-48.2294 531.765,-35.1481 603.305,-20.0656"/>
<polygon fill="midnightblue" stroke="midnightblue" points="604.342,-23.4235 613.398,-17.9244 602.89,-16.5759 604.342,-23.4235"/>
</g>
<!-- Node11 -->
<g id="node11" class="node"><title>Node11</title>
<polygon fill="none" stroke="#bfbfbf" points="275.5,-0.5 275.5,-19.5 322.5,-19.5 322.5,-0.5 275.5,-0.5"/>
<text text-anchor="middle" x="299" y="-7.5" font-family="Helvetica,sans-Serif" font-size="10.00">cmath</text>
</g>
<!-- Node10&#45;&gt;Node11 -->
<g id="edge14" class="edge"><title>Node10&#45;&gt;Node11</title>
<path fill="none" stroke="midnightblue" d="M354.396,-56.324C344.544,-48.2631 329.649,-36.0765 317.785,-26.3695"/>
<polygon fill="midnightblue" stroke="midnightblue" points="319.753,-23.4575 309.797,-19.8339 315.32,-28.8752 319.753,-23.4575"/>
</g>
<!-- Node12 -->
<g id="node12" class="node"><title>Node12</title>
<polygon fill="none" stroke="#bfbfbf" points="341,-0.5 341,-19.5 389,-19.5 389,-0.5 341,-0.5"/>
<text text-anchor="middle" x="365" y="-7.5" font-family="Helvetica,sans-Serif" font-size="10.00">dlfcn.h</text>
</g>
<!-- Node10&#45;&gt;Node12 -->
<g id="edge17" class="edge"><title>Node10&#45;&gt;Node12</title>
<path fill="none" stroke="midnightblue" d="M365,-56.083C365,-49.0059 365,-38.8611 365,-29.9865"/>
<polygon fill="midnightblue" stroke="midnightblue" points="368.5,-29.751 365,-19.7511 361.5,-29.7511 368.5,-29.751"/>
</g>
<!-- Node13 -->
<g id="node13" class="node"><title>Node13</title>
<polygon fill="none" stroke="#bfbfbf" points="407,-0.5 407,-19.5 523,-19.5 523,-0.5 407,-0.5"/>
<text text-anchor="middle" x="465" y="-7.5" font-family="Helvetica,sans-Serif" font-size="10.00">boost/filesystem.hpp</text>
</g>
<!-- Node10&#45;&gt;Node13 -->
<g id="edge18" class="edge"><title>Node10&#45;&gt;Node13</title>
<path fill="none" stroke="midnightblue" d="M381.067,-56.324C396.958,-47.7428 421.507,-34.486 439.958,-24.5224"/>
<polygon fill="midnightblue" stroke="midnightblue" points="441.837,-27.4857 448.973,-19.6545 438.511,-21.3264 441.837,-27.4857"/>
</g>
<!-- Node14 -->
<g id="node14" class="node"><title>Node14</title>
<polygon fill="none" stroke="#bfbfbf" points="541,-0.5 541,-19.5 595,-19.5 595,-0.5 541,-0.5"/>
<text text-anchor="middle" x="568" y="-7.5" font-family="Helvetica,sans-Serif" font-size="10.00">fstream</text>
</g>
<!-- Node10&#45;&gt;Node14 -->
<g id="edge19" class="edge"><title>Node10&#45;&gt;Node14</title>
<path fill="none" stroke="midnightblue" d="M397.166,-56.4435C433.599,-46.7521 492.86,-30.9879 531.131,-20.8075"/>
<polygon fill="midnightblue" stroke="midnightblue" points="532.093,-24.1735 540.857,-18.2203 530.293,-17.4087 532.093,-24.1735"/>
</g>
<!-- Node15 -->
<g id="node15" class="node"><title>Node15</title>
<polygon fill="none" stroke="#bfbfbf" points="139,-0.5 139,-19.5 189,-19.5 189,-0.5 139,-0.5"/>
<text text-anchor="middle" x="164" y="-7.5" font-family="Helvetica,sans-Serif" font-size="10.00">chrono</text>
</g>
<!-- Node10&#45;&gt;Node15 -->
<g id="edge20" class="edge"><title>Node10&#45;&gt;Node15</title>
<path fill="none" stroke="midnightblue" d="M333.151,-56.4435C296.624,-46.6303 236.92,-30.5905 199.086,-20.4261"/>
<polygon fill="midnightblue" stroke="midnightblue" points="199.598,-16.9396 189.032,-17.7251 197.782,-23.6998 199.598,-16.9396"/>
</g>
<!-- Node16 -->
<g id="node16" class="node"><title>Node16</title>
<polygon fill="none" stroke="#bfbfbf" points="207,-0.5 207,-19.5 257,-19.5 257,-0.5 207,-0.5"/>
<text text-anchor="middle" x="232" y="-7.5" font-family="Helvetica,sans-Serif" font-size="10.00">atomic</text>
</g>
<!-- Node10&#45;&gt;Node16 -->
<g id="edge21" class="edge"><title>Node10&#45;&gt;Node16</title>
<path fill="none" stroke="midnightblue" d="M343.926,-56.4435C321.94,-47.5171 287.266,-33.4387 262.336,-23.3168"/>
<polygon fill="midnightblue" stroke="midnightblue" points="263.558,-20.0355 252.976,-19.5164 260.924,-26.5213 263.558,-20.0355"/>
</g>
</g>
</svg>
