<?xml version="1.0" encoding="UTF-8" standalone="no"?>
<!DOCTYPE svg PUBLIC "-//W3C//DTD SVG 1.1//EN"
 "http://www.w3.org/Graphics/SVG/1.1/DTD/svg11.dtd">
<!-- Generated by graphviz version 2.38.0 (20140413.2041)
 -->
<!-- Title: /home/travis/build/ADVRHumanoids/ROSEndEffector/src/GraspingActions/ActionPinchLoose.cpp Pages: 1 -->
<svg width="702pt" height="430pt"
 viewBox="0.00 0.00 701.50 430.00" xmlns="http://www.w3.org/2000/svg" xmlns:xlink="http://www.w3.org/1999/xlink">
<g id="graph0" class="graph" transform="scale(1 1) rotate(0) translate(4 426)">
<title>/home/travis/build/ADVRHumanoids/ROSEndEffector/src/GraspingActions/ActionPinchLoose.cpp</title>
<!-- Node1 -->
<g id="node1" class="node"><title>Node1</title>
<polygon fill="#bfbfbf" stroke="black" points="260,-380.5 260,-421.5 482,-421.5 482,-380.5 260,-380.5"/>
<text text-anchor="start" x="268" y="-409.5" font-family="Helvetica,sans-Serif" font-size="10.00">/home/travis/build</text>
<text text-anchor="start" x="268" y="-398.5" font-family="Helvetica,sans-Serif" font-size="10.00">/ADVRHumanoids/ROSEndEffector</text>
<text text-anchor="middle" x="371" y="-387.5" font-family="Helvetica,sans-Serif" font-size="10.00">/src/GraspingActions/ActionPinchLoose.cpp</text>
</g>
<!-- Node2 -->
<g id="node2" class="node"><title>Node2</title>
<g id="a_node2"><a xlink:href="ActionPinchLoose_8h.html" target="_top" xlink:title="end_effector/GraspingActions\l/ActionPinchLoose.h">
<polygon fill="none" stroke="black" points="292,-313.5 292,-343.5 450,-343.5 450,-313.5 292,-313.5"/>
<text text-anchor="start" x="300" y="-331.5" font-family="Helvetica,sans-Serif" font-size="10.00">end_effector/GraspingActions</text>
<text text-anchor="middle" x="371" y="-320.5" font-family="Helvetica,sans-Serif" font-size="10.00">/ActionPinchLoose.h</text>
</a>
</g>
</g>
<!-- Node1&#45;&gt;Node2 -->
<g id="edge1" class="edge"><title>Node1&#45;&gt;Node2</title>
<path fill="none" stroke="midnightblue" d="M371,-380.362C371,-372.226 371,-362.7 371,-354.105"/>
<polygon fill="midnightblue" stroke="midnightblue" points="374.5,-353.892 371,-343.892 367.5,-353.892 374.5,-353.892"/>
</g>
<!-- Node3 -->
<g id="node3" class="node"><title>Node3</title>
<g id="a_node3"><a xlink:href="ActionPrimitive_8h.html" target="_top" xlink:title="end_effector/GraspingActions\l/ActionPrimitive.h">
<polygon fill="none" stroke="black" points="185,-179.5 185,-209.5 343,-209.5 343,-179.5 185,-179.5"/>
<text text-anchor="start" x="193" y="-197.5" font-family="Helvetica,sans-Serif" font-size="10.00">end_effector/GraspingActions</text>
<text text-anchor="middle" x="264" y="-186.5" font-family="Helvetica,sans-Serif" font-size="10.00">/ActionPrimitive.h</text>
</a>
</g>
</g>
<!-- Node2&#45;&gt;Node3 -->
<g id="edge2" class="edge"><title>Node2&#45;&gt;Node3</title>
<path fill="none" stroke="midnightblue" d="M331.771,-313.421C314.405,-305.302 295.193,-293.396 283,-277 270.651,-260.394 266.162,-237.037 264.609,-219.581"/>
<polygon fill="midnightblue" stroke="midnightblue" points="268.102,-219.348 263.978,-209.589 261.116,-219.79 268.102,-219.348"/>
</g>
<!-- Node8 -->
<g id="node8" class="node"><title>Node8</title>
<polygon fill="none" stroke="#bfbfbf" points="8.5,-0.5 8.5,-19.5 67.5,-19.5 67.5,-0.5 8.5,-0.5"/>
<text text-anchor="middle" x="38" y="-7.5" font-family="Helvetica,sans-Serif" font-size="10.00">iostream</text>
</g>
<!-- Node2&#45;&gt;Node8 -->
<g id="edge31" class="edge"><title>Node2&#45;&gt;Node8</title>
<path fill="none" stroke="midnightblue" d="M291.866,-315.697C182.908,-297.18 0,-256.943 0,-195.5 0,-195.5 0,-195.5 0,-126.5 0,-90.2544 17.0946,-50.671 28.3527,-28.5327"/>
<polygon fill="midnightblue" stroke="midnightblue" points="31.4613,-30.141 33.0322,-19.6633 25.2702,-26.8745 31.4613,-30.141"/>
</g>
<!-- Node10 -->
<g id="node10" class="node"><title>Node10</title>
<polygon fill="none" stroke="#bfbfbf" points="492,-56.5 492,-75.5 588,-75.5 588,-56.5 492,-56.5"/>
<text text-anchor="middle" x="540" y="-63.5" font-family="Helvetica,sans-Serif" font-size="10.00">yaml&#45;cpp/yaml.h</text>
</g>
<!-- Node2&#45;&gt;Node10 -->
<g id="edge30" class="edge"><title>Node2&#45;&gt;Node10</title>
<path fill="none" stroke="midnightblue" d="M407.468,-313.47C425.042,-305.143 445.238,-293.044 459,-277 509.247,-218.42 530.175,-125.234 537.116,-85.7072"/>
<polygon fill="midnightblue" stroke="midnightblue" points="540.599,-86.092 538.777,-75.6551 533.693,-84.9506 540.599,-86.092"/>
</g>
<!-- Node19 -->
<g id="node19" class="node"><title>Node19</title>
<g id="a_node19"><a xlink:href="ActionPinchGeneric_8h.html" target="_top" xlink:title="end_effector/GraspingActions\l/ActionPinchGeneric.h">
<polygon fill="none" stroke="black" points="292,-246.5 292,-276.5 450,-276.5 450,-246.5 292,-246.5"/>
<text text-anchor="start" x="300" y="-264.5" font-family="Helvetica,sans-Serif" font-size="10.00">end_effector/GraspingActions</text>
<text text-anchor="middle" x="371" y="-253.5" font-family="Helvetica,sans-Serif" font-size="10.00">/ActionPinchGeneric.h</text>
</a>
</g>
</g>
<!-- Node2&#45;&gt;Node19 -->
<g id="edge25" class="edge"><title>Node2&#45;&gt;Node19</title>
<path fill="none" stroke="midnightblue" d="M371,-313.396C371,-305.645 371,-295.812 371,-286.86"/>
<polygon fill="midnightblue" stroke="midnightblue" points="374.5,-286.576 371,-276.577 367.5,-286.577 374.5,-286.576"/>
</g>
<!-- Node20 -->
<g id="node20" class="node"><title>Node20</title>
<polygon fill="none" stroke="#bfbfbf" points="566.5,-246.5 566.5,-276.5 693.5,-276.5 693.5,-246.5 566.5,-246.5"/>
<text text-anchor="start" x="574.5" y="-264.5" font-family="Helvetica,sans-Serif" font-size="10.00">moveit/planning_scene</text>
<text text-anchor="middle" x="630" y="-253.5" font-family="Helvetica,sans-Serif" font-size="10.00">/planning_scene.h</text>
</g>
<!-- Node2&#45;&gt;Node20 -->
<g id="edge29" class="edge"><title>Node2&#45;&gt;Node20</title>
<path fill="none" stroke="midnightblue" d="M426.88,-313.476C467.08,-303.387 521.454,-289.741 563.827,-279.107"/>
<polygon fill="midnightblue" stroke="midnightblue" points="564.926,-282.44 573.773,-276.611 563.222,-275.65 564.926,-282.44"/>
</g>
<!-- Node4 -->
<g id="node4" class="node"><title>Node4</title>
<polygon fill="none" stroke="#bfbfbf" points="150,-118 150,-137 182,-137 182,-118 150,-118"/>
<text text-anchor="middle" x="166" y="-125" font-family="Helvetica,sans-Serif" font-size="10.00">set</text>
</g>
<!-- Node3&#45;&gt;Node4 -->
<g id="edge3" class="edge"><title>Node3&#45;&gt;Node4</title>
<path fill="none" stroke="midnightblue" d="M242.735,-179.396C226.301,-168.496 203.66,-153.479 187.234,-142.584"/>
<polygon fill="midnightblue" stroke="midnightblue" points="189.094,-139.618 178.826,-137.007 185.225,-145.451 189.094,-139.618"/>
</g>
<!-- Node5 -->
<g id="node5" class="node"><title>Node5</title>
<polygon fill="none" stroke="#bfbfbf" points="104,-56.5 104,-75.5 148,-75.5 148,-56.5 104,-56.5"/>
<text text-anchor="middle" x="126" y="-63.5" font-family="Helvetica,sans-Serif" font-size="10.00">string</text>
</g>
<!-- Node3&#45;&gt;Node5 -->
<g id="edge4" class="edge"><title>Node3&#45;&gt;Node5</title>
<path fill="none" stroke="midnightblue" d="M197.371,-179.39C176.54,-171.854 155.292,-160.386 141,-143 127.816,-126.962 125.078,-102.63 124.982,-85.8388"/>
<polygon fill="midnightblue" stroke="midnightblue" points="128.486,-85.6994 125.241,-75.6137 121.489,-85.5217 128.486,-85.6994"/>
</g>
<!-- Node6 -->
<g id="node6" class="node"><title>Node6</title>
<polygon fill="none" stroke="#bfbfbf" points="166,-56.5 166,-75.5 204,-75.5 204,-56.5 166,-56.5"/>
<text text-anchor="middle" x="185" y="-63.5" font-family="Helvetica,sans-Serif" font-size="10.00">map</text>
</g>
<!-- Node3&#45;&gt;Node6 -->
<g id="edge5" class="edge"><title>Node3&#45;&gt;Node6</title>
<path fill="none" stroke="midnightblue" d="M253.574,-179.125C246.441,-169.133 236.887,-155.43 229,-143 216.537,-123.358 203.3,-100.133 194.639,-84.5724"/>
<polygon fill="midnightblue" stroke="midnightblue" points="197.563,-82.6277 189.662,-75.5688 191.437,-86.014 197.563,-82.6277"/>
</g>
<!-- Node7 -->
<g id="node7" class="node"><title>Node7</title>
<polygon fill="none" stroke="#bfbfbf" points="426.5,-56.5 426.5,-75.5 473.5,-75.5 473.5,-56.5 426.5,-56.5"/>
<text text-anchor="middle" x="450" y="-63.5" font-family="Helvetica,sans-Serif" font-size="10.00">vector</text>
</g>
<!-- Node3&#45;&gt;Node7 -->
<g id="edge6" class="edge"><title>Node3&#45;&gt;Node7</title>
<path fill="none" stroke="midnightblue" d="M332.039,-179.438C356.964,-171.777 384.145,-160.214 405,-143 423.705,-127.56 436.474,-102.187 443.503,-85.0489"/>
<polygon fill="midnightblue" stroke="midnightblue" points="446.812,-86.1946 447.138,-75.6048 440.279,-83.6797 446.812,-86.1946"/>
</g>
<!-- Node3&#45;&gt;Node8 -->
<g id="edge7" class="edge"><title>Node3&#45;&gt;Node8</title>
<path fill="none" stroke="midnightblue" d="M198.601,-179.426C173.426,-171.693 145.573,-160.083 124,-143 84.6423,-111.833 57.5121,-57.5005 45.3084,-29.2438"/>
<polygon fill="midnightblue" stroke="midnightblue" points="48.4468,-27.6762 41.3676,-19.7936 41.9861,-30.3704 48.4468,-27.6762"/>
</g>
<!-- Node9 -->
<g id="node9" class="node"><title>Node9</title>
<g id="a_node9"><a xlink:href="Action_8h.html" target="_top" xlink:title="end_effector/GraspingActions\l/Action.h">
<polygon fill="none" stroke="black" points="238,-112.5 238,-142.5 396,-142.5 396,-112.5 238,-112.5"/>
<text text-anchor="start" x="246" y="-130.5" font-family="Helvetica,sans-Serif" font-size="10.00">end_effector/GraspingActions</text>
<text text-anchor="middle" x="317" y="-119.5" font-family="Helvetica,sans-Serif" font-size="10.00">/Action.h</text>
</a>
</g>
</g>
<!-- Node3&#45;&gt;Node9 -->
<g id="edge8" class="edge"><title>Node3&#45;&gt;Node9</title>
<path fill="none" stroke="midnightblue" d="M275.5,-179.396C282.376,-170.963 291.261,-160.067 299.044,-150.522"/>
<polygon fill="midnightblue" stroke="midnightblue" points="301.915,-152.539 305.522,-142.577 296.49,-148.115 301.915,-152.539"/>
</g>
<!-- Node3&#45;&gt;Node10 -->
<g id="edge24" class="edge"><title>Node3&#45;&gt;Node10</title>
<path fill="none" stroke="midnightblue" d="M328.037,-179.418C360.165,-171.077 399.133,-158.982 432,-143 466.459,-126.244 501.955,-98.975 522.447,-82.061"/>
<polygon fill="midnightblue" stroke="midnightblue" points="524.85,-84.6138 530.265,-75.507 520.353,-79.2497 524.85,-84.6138"/>
</g>
<!-- Node9&#45;&gt;Node5 -->
<g id="edge10" class="edge"><title>Node9&#45;&gt;Node5</title>
<path fill="none" stroke="midnightblue" d="M271.736,-112.399C236.749,-101.5 189.188,-86.6843 158.055,-76.9857"/>
<polygon fill="midnightblue" stroke="midnightblue" points="158.757,-73.5385 148.168,-73.9058 156.675,-80.2217 158.757,-73.5385"/>
</g>
<!-- Node9&#45;&gt;Node6 -->
<g id="edge11" class="edge"><title>Node9&#45;&gt;Node6</title>
<path fill="none" stroke="midnightblue" d="M285.718,-112.399C263.768,-102.505 234.657,-89.3832 213.379,-79.7919"/>
<polygon fill="midnightblue" stroke="midnightblue" points="214.762,-76.5764 204.207,-75.6578 211.886,-82.958 214.762,-76.5764"/>
</g>
<!-- Node9&#45;&gt;Node7 -->
<g id="edge9" class="edge"><title>Node9&#45;&gt;Node7</title>
<path fill="none" stroke="midnightblue" d="M348.519,-112.399C370.635,-102.505 399.967,-89.3832 421.406,-79.7919"/>
<polygon fill="midnightblue" stroke="midnightblue" points="422.948,-82.9364 430.647,-75.6578 420.09,-76.5466 422.948,-82.9364"/>
</g>
<!-- Node9&#45;&gt;Node8 -->
<g id="edge14" class="edge"><title>Node9&#45;&gt;Node8</title>
<path fill="none" stroke="midnightblue" d="M300.071,-112.292C280.346,-96.4152 246.207,-70.9771 213,-56 200.653,-50.4309 125.31,-31.8935 77.5943,-20.4212"/>
<polygon fill="midnightblue" stroke="midnightblue" points="78.4047,-17.0164 67.8642,-18.0876 76.7721,-23.8234 78.4047,-17.0164"/>
</g>
<!-- Node9&#45;&gt;Node10 -->
<g id="edge12" class="edge"><title>Node9&#45;&gt;Node10</title>
<path fill="none" stroke="midnightblue" d="M369.566,-112.475C408.878,-101.986 461.906,-87.8367 498.316,-78.1221"/>
<polygon fill="midnightblue" stroke="midnightblue" points="499.359,-81.4661 508.119,-75.5064 497.555,-74.7027 499.359,-81.4661"/>
</g>
<!-- Node11 -->
<g id="node11" class="node"><title>Node11</title>
<polygon fill="none" stroke="#bfbfbf" points="559.5,-0.5 559.5,-19.5 616.5,-19.5 616.5,-0.5 559.5,-0.5"/>
<text text-anchor="middle" x="588" y="-7.5" font-family="Helvetica,sans-Serif" font-size="10.00">memory</text>
</g>
<!-- Node9&#45;&gt;Node11 -->
<g id="edge13" class="edge"><title>Node9&#45;&gt;Node11</title>
<path fill="none" stroke="midnightblue" d="M333.195,-112.29C352.084,-96.4113 384.84,-70.9715 417,-56 429.024,-50.4024 502.743,-31.8547 549.38,-20.3924"/>
<polygon fill="midnightblue" stroke="midnightblue" points="550.294,-23.772 559.173,-17.9917 548.628,-16.9733 550.294,-23.772"/>
</g>
<!-- Node12 -->
<g id="node12" class="node"><title>Node12</title>
<g id="a_node12"><a xlink:href="Utils_8h.html" target="_top" xlink:title="end_effector/Utils.h">
<polygon fill="none" stroke="black" points="260,-56.5 260,-75.5 370,-75.5 370,-56.5 260,-56.5"/>
<text text-anchor="middle" x="315" y="-63.5" font-family="Helvetica,sans-Serif" font-size="10.00">end_effector/Utils.h</text>
</a>
</g>
</g>
<!-- Node9&#45;&gt;Node12 -->
<g id="edge15" class="edge"><title>Node9&#45;&gt;Node12</title>
<path fill="none" stroke="midnightblue" d="M316.526,-112.399C316.259,-104.466 315.923,-94.458 315.634,-85.8583"/>
<polygon fill="midnightblue" stroke="midnightblue" points="319.125,-85.5345 315.291,-75.6578 312.129,-85.7697 319.125,-85.5345"/>
</g>
<!-- Node12&#45;&gt;Node8 -->
<g id="edge18" class="edge"><title>Node12&#45;&gt;Node8</title>
<path fill="none" stroke="midnightblue" d="M266.57,-56.4281C220.563,-48.1537 149.205,-34.9809 77.8495,-20.1111"/>
<polygon fill="midnightblue" stroke="midnightblue" points="78.2887,-16.6272 67.7835,-18.002 76.8531,-23.4784 78.2887,-16.6272"/>
</g>
<!-- Node12&#45;&gt;Node11 -->
<g id="edge17" class="edge"><title>Node12&#45;&gt;Node11</title>
<path fill="none" stroke="midnightblue" d="M363.507,-56.4858C409.171,-48.3054 479.7,-35.2477 549.507,-20.2484"/>
<polygon fill="midnightblue" stroke="midnightblue" points="550.316,-23.6545 559.35,-18.1194 548.836,-16.8128 550.316,-23.6545"/>
</g>
<!-- Node13 -->
<g id="node13" class="node"><title>Node13</title>
<polygon fill="none" stroke="#bfbfbf" points="494.5,-0.5 494.5,-19.5 541.5,-19.5 541.5,-0.5 494.5,-0.5"/>
<text text-anchor="middle" x="518" y="-7.5" font-family="Helvetica,sans-Serif" font-size="10.00">cmath</text>
</g>
<!-- Node12&#45;&gt;Node13 -->
<g id="edge16" class="edge"><title>Node12&#45;&gt;Node13</title>
<path fill="none" stroke="midnightblue" d="M347.609,-56.4455C379.907,-47.9558 431.028,-34.4722 484.55,-20.1065"/>
<polygon fill="midnightblue" stroke="midnightblue" points="485.463,-23.4852 494.213,-17.5102 483.647,-16.725 485.463,-23.4852"/>
</g>
<!-- Node14 -->
<g id="node14" class="node"><title>Node14</title>
<polygon fill="none" stroke="#bfbfbf" points="86,-0.5 86,-19.5 134,-19.5 134,-0.5 86,-0.5"/>
<text text-anchor="middle" x="110" y="-7.5" font-family="Helvetica,sans-Serif" font-size="10.00">dlfcn.h</text>
</g>
<!-- Node12&#45;&gt;Node14 -->
<g id="edge19" class="edge"><title>Node12&#45;&gt;Node14</title>
<path fill="none" stroke="midnightblue" d="M282,-56.4745C249.317,-48.007 197.589,-34.5416 143.842,-20.2061"/>
<polygon fill="midnightblue" stroke="midnightblue" points="144.707,-16.8145 134.143,-17.6154 142.901,-23.5774 144.707,-16.8145"/>
</g>
<!-- Node15 -->
<g id="node15" class="node"><title>Node15</title>
<polygon fill="none" stroke="#bfbfbf" points="152,-0.5 152,-19.5 268,-19.5 268,-0.5 152,-0.5"/>
<text text-anchor="middle" x="210" y="-7.5" font-family="Helvetica,sans-Serif" font-size="10.00">boost/filesystem.hpp</text>
</g>
<!-- Node12&#45;&gt;Node15 -->
<g id="edge20" class="edge"><title>Node12&#45;&gt;Node15</title>
<path fill="none" stroke="midnightblue" d="M298.13,-56.324C281.291,-47.6641 255.193,-34.2424 235.762,-24.249"/>
<polygon fill="midnightblue" stroke="midnightblue" points="237.322,-21.1155 226.828,-19.6545 234.12,-27.3405 237.322,-21.1155"/>
</g>
<!-- Node16 -->
<g id="node16" class="node"><title>Node16</title>
<polygon fill="none" stroke="#bfbfbf" points="286,-0.5 286,-19.5 340,-19.5 340,-0.5 286,-0.5"/>
<text text-anchor="middle" x="313" y="-7.5" font-family="Helvetica,sans-Serif" font-size="10.00">fstream</text>
</g>
<!-- Node12&#45;&gt;Node16 -->
<g id="edge21" class="edge"><title>Node12&#45;&gt;Node16</title>
<path fill="none" stroke="midnightblue" d="M314.67,-56.083C314.408,-49.0059 314.032,-38.8611 313.703,-29.9865"/>
<polygon fill="midnightblue" stroke="midnightblue" points="317.192,-29.6147 313.324,-19.7511 310.197,-29.8738 317.192,-29.6147"/>
</g>
<!-- Node17 -->
<g id="node17" class="node"><title>Node17</title>
<polygon fill="none" stroke="#bfbfbf" points="358,-0.5 358,-19.5 408,-19.5 408,-0.5 358,-0.5"/>
<text text-anchor="middle" x="383" y="-7.5" font-family="Helvetica,sans-Serif" font-size="10.00">chrono</text>
</g>
<!-- Node12&#45;&gt;Node17 -->
<g id="edge22" class="edge"><title>Node12&#45;&gt;Node17</title>
<path fill="none" stroke="midnightblue" d="M325.925,-56.324C336.175,-48.1849 351.721,-35.8395 364.001,-26.0874"/>
<polygon fill="midnightblue" stroke="midnightblue" points="366.221,-28.7937 371.876,-19.8339 361.868,-23.3119 366.221,-28.7937"/>
</g>
<!-- Node18 -->
<g id="node18" class="node"><title>Node18</title>
<polygon fill="none" stroke="#bfbfbf" points="426,-0.5 426,-19.5 476,-19.5 476,-0.5 426,-0.5"/>
<text text-anchor="middle" x="451" y="-7.5" font-family="Helvetica,sans-Serif" font-size="10.00">atomic</text>
</g>
<!-- Node12&#45;&gt;Node18 -->
<g id="edge23" class="edge"><title>Node12&#45;&gt;Node18</title>
<path fill="none" stroke="midnightblue" d="M336.55,-56.4435C359.031,-47.5171 394.488,-33.4387 419.98,-23.3168"/>
<polygon fill="midnightblue" stroke="midnightblue" points="421.549,-26.4598 429.551,-19.5164 418.965,-19.9539 421.549,-26.4598"/>
</g>
<!-- Node19&#45;&gt;Node3 -->
<g id="edge26" class="edge"><title>Node19&#45;&gt;Node3</title>
<path fill="none" stroke="midnightblue" d="M347.783,-246.396C332.639,-237.197 312.67,-225.066 296.025,-214.955"/>
<polygon fill="midnightblue" stroke="midnightblue" points="297.536,-211.777 287.172,-209.577 293.902,-217.76 297.536,-211.777"/>
</g>
<!-- Node19&#45;&gt;Node8 -->
<g id="edge28" class="edge"><title>Node19&#45;&gt;Node8</title>
<path fill="none" stroke="midnightblue" d="M291.532,-247.587C255.093,-239.764 212.078,-227.769 176,-210 132.533,-188.593 121.251,-180.027 90,-143 68.197,-117.167 66.1359,-107.551 54,-76 48.1915,-60.8992 43.9687,-42.9994 41.3247,-29.8109"/>
<polygon fill="midnightblue" stroke="midnightblue" points="44.6965,-28.8028 39.4075,-19.6225 37.8173,-30.0973 44.6965,-28.8028"/>
</g>
<!-- Node19&#45;&gt;Node10 -->
<g id="edge27" class="edge"><title>Node19&#45;&gt;Node10</title>
<path fill="none" stroke="midnightblue" d="M383.427,-246.271C414.054,-211.204 493.034,-120.775 525.616,-83.469"/>
<polygon fill="midnightblue" stroke="midnightblue" points="528.567,-85.4111 532.509,-75.5769 523.295,-80.8063 528.567,-85.4111"/>
</g>
</g>
</svg>
