<?xml version="1.0" encoding="UTF-8" standalone="no"?>
<!DOCTYPE svg PUBLIC "-//W3C//DTD SVG 1.1//EN"
 "http://www.w3.org/Graphics/SVG/1.1/DTD/svg11.dtd">
<!-- Generated by graphviz version 2.38.0 (20140413.2041)
 -->
<!-- Title: /home/travis/build/ADVRHumanoids/ROSEndEffector/include/ros_end_effector/GraspingActions/ActionPrimitive.h Pages: 1 -->
<svg width="689pt" height="240pt"
 viewBox="0.00 0.00 688.50 240.00" xmlns="http://www.w3.org/2000/svg" xmlns:xlink="http://www.w3.org/1999/xlink">
<g id="graph0" class="graph" transform="scale(1 1) rotate(0) translate(4 236)">
<title>/home/travis/build/ADVRHumanoids/ROSEndEffector/include/ros_end_effector/GraspingActions/ActionPrimitive.h</title>
<!-- Node1 -->
<g id="node1" class="node"><title>Node1</title>
<polygon fill="#bfbfbf" stroke="black" points="57.5,-179.5 57.5,-231.5 238.5,-231.5 238.5,-179.5 57.5,-179.5"/>
<text text-anchor="start" x="65.5" y="-219.5" font-family="Helvetica,sans-Serif" font-size="10.00">/home/travis/build</text>
<text text-anchor="start" x="65.5" y="-208.5" font-family="Helvetica,sans-Serif" font-size="10.00">/ADVRHumanoids/ROSEndEffector</text>
<text text-anchor="start" x="65.5" y="-197.5" font-family="Helvetica,sans-Serif" font-size="10.00">/include/ros_end_effector</text>
<text text-anchor="middle" x="148" y="-186.5" font-family="Helvetica,sans-Serif" font-size="10.00">/GraspingActions/ActionPrimitive.h</text>
</g>
<!-- Node2 -->
<g id="node2" class="node"><title>Node2</title>
<polygon fill="none" stroke="#bfbfbf" points="0,-118 0,-137 32,-137 32,-118 0,-118"/>
<text text-anchor="middle" x="16" y="-125" font-family="Helvetica,sans-Serif" font-size="10.00">set</text>
</g>
<!-- Node1&#45;&gt;Node2 -->
<g id="edge1" class="edge"><title>Node1&#45;&gt;Node2</title>
<path fill="none" stroke="midnightblue" d="M104.412,-179.404C82.798,-166.959 57.5444,-152.419 39.5741,-142.073"/>
<polygon fill="midnightblue" stroke="midnightblue" points="41.3111,-139.034 30.8985,-137.078 37.8183,-145.101 41.3111,-139.034"/>
</g>
<!-- Node3 -->
<g id="node3" class="node"><title>Node3</title>
<polygon fill="none" stroke="#bfbfbf" points="88,-56.5 88,-75.5 132,-75.5 132,-56.5 88,-56.5"/>
<text text-anchor="middle" x="110" y="-63.5" font-family="Helvetica,sans-Serif" font-size="10.00">string</text>
</g>
<!-- Node1&#45;&gt;Node3 -->
<g id="edge2" class="edge"><title>Node1&#45;&gt;Node3</title>
<path fill="none" stroke="midnightblue" d="M141.03,-179.28C133.524,-152.118 121.761,-109.557 115.082,-85.3879"/>
<polygon fill="midnightblue" stroke="midnightblue" points="118.441,-84.4054 112.404,-75.699 111.694,-86.2701 118.441,-84.4054"/>
</g>
<!-- Node4 -->
<g id="node4" class="node"><title>Node4</title>
<polygon fill="none" stroke="#bfbfbf" points="150,-56.5 150,-75.5 188,-75.5 188,-56.5 150,-56.5"/>
<text text-anchor="middle" x="169" y="-63.5" font-family="Helvetica,sans-Serif" font-size="10.00">map</text>
</g>
<!-- Node1&#45;&gt;Node4 -->
<g id="edge3" class="edge"><title>Node1&#45;&gt;Node4</title>
<path fill="none" stroke="midnightblue" d="M151.852,-179.28C155.981,-152.241 162.442,-109.94 166.142,-85.7156"/>
<polygon fill="midnightblue" stroke="midnightblue" points="169.621,-86.1128 167.671,-75.699 162.702,-85.0559 169.621,-86.1128"/>
</g>
<!-- Node5 -->
<g id="node5" class="node"><title>Node5</title>
<polygon fill="none" stroke="#bfbfbf" points="206.5,-56.5 206.5,-75.5 253.5,-75.5 253.5,-56.5 206.5,-56.5"/>
<text text-anchor="middle" x="230" y="-63.5" font-family="Helvetica,sans-Serif" font-size="10.00">vector</text>
</g>
<!-- Node1&#45;&gt;Node5 -->
<g id="edge4" class="edge"><title>Node1&#45;&gt;Node5</title>
<path fill="none" stroke="midnightblue" d="M163.04,-179.28C179.457,-151.751 205.308,-108.404 219.612,-84.4182"/>
<polygon fill="midnightblue" stroke="midnightblue" points="222.696,-86.0804 224.812,-75.699 216.684,-82.495 222.696,-86.0804"/>
</g>
<!-- Node6 -->
<g id="node6" class="node"><title>Node6</title>
<polygon fill="none" stroke="#bfbfbf" points="71.5,-0.5 71.5,-19.5 130.5,-19.5 130.5,-0.5 71.5,-0.5"/>
<text text-anchor="middle" x="101" y="-7.5" font-family="Helvetica,sans-Serif" font-size="10.00">iostream</text>
</g>
<!-- Node1&#45;&gt;Node6 -->
<g id="edge5" class="edge"><title>Node1&#45;&gt;Node6</title>
<path fill="none" stroke="midnightblue" d="M129.697,-179.482C112.755,-154.655 88.7582,-114.8 79,-76 74.8783,-59.6117 82.0781,-41.4291 89.3188,-28.4717"/>
<polygon fill="midnightblue" stroke="midnightblue" points="92.452,-30.0566 94.677,-19.698 86.478,-26.4082 92.452,-30.0566"/>
</g>
<!-- Node7 -->
<g id="node7" class="node"><title>Node7</title>
<g id="a_node7"><a xlink:href="Action_8h.html" target="_top" xlink:title="ros_end_effector/Grasping\lActions/Action.h">
<polygon fill="none" stroke="black" points="214.5,-112.5 214.5,-142.5 357.5,-142.5 357.5,-112.5 214.5,-112.5"/>
<text text-anchor="start" x="222.5" y="-130.5" font-family="Helvetica,sans-Serif" font-size="10.00">ros_end_effector/Grasping</text>
<text text-anchor="middle" x="286" y="-119.5" font-family="Helvetica,sans-Serif" font-size="10.00">Actions/Action.h</text>
</a>
</g>
</g>
<!-- Node1&#45;&gt;Node7 -->
<g id="edge6" class="edge"><title>Node1&#45;&gt;Node7</title>
<path fill="none" stroke="midnightblue" d="M193.569,-179.404C212.422,-169.021 233.923,-157.18 251.441,-147.532"/>
<polygon fill="midnightblue" stroke="midnightblue" points="253.133,-150.596 260.204,-142.707 249.756,-144.465 253.133,-150.596"/>
</g>
<!-- Node8 -->
<g id="node8" class="node"><title>Node8</title>
<polygon fill="none" stroke="#bfbfbf" points="496,-56.5 496,-75.5 592,-75.5 592,-56.5 496,-56.5"/>
<text text-anchor="middle" x="544" y="-63.5" font-family="Helvetica,sans-Serif" font-size="10.00">yaml&#45;cpp/yaml.h</text>
</g>
<!-- Node1&#45;&gt;Node8 -->
<g id="edge22" class="edge"><title>Node1&#45;&gt;Node8</title>
<path fill="none" stroke="midnightblue" d="M238.704,-181.712C278.177,-171.078 324.745,-157.559 366,-143 420.507,-123.765 482.132,-96.0645 516.699,-79.9603"/>
<polygon fill="midnightblue" stroke="midnightblue" points="518.541,-82.9622 526.111,-75.5496 515.571,-76.6236 518.541,-82.9622"/>
</g>
<!-- Node7&#45;&gt;Node3 -->
<g id="edge8" class="edge"><title>Node7&#45;&gt;Node3</title>
<path fill="none" stroke="midnightblue" d="M244.29,-112.399C212.829,-101.763 170.331,-87.3959 141.637,-77.6954"/>
<polygon fill="midnightblue" stroke="midnightblue" points="142.698,-74.3597 132.104,-74.4726 140.456,-80.991 142.698,-74.3597"/>
</g>
<!-- Node7&#45;&gt;Node4 -->
<g id="edge9" class="edge"><title>Node7&#45;&gt;Node4</title>
<path fill="none" stroke="midnightblue" d="M258.273,-112.399C239.168,-102.684 213.942,-89.8551 195.18,-80.3137"/>
<polygon fill="midnightblue" stroke="midnightblue" points="196.525,-77.071 186.025,-75.6578 193.352,-83.3106 196.525,-77.071"/>
</g>
<!-- Node7&#45;&gt;Node5 -->
<g id="edge7" class="edge"><title>Node7&#45;&gt;Node5</title>
<path fill="none" stroke="midnightblue" d="M272.729,-112.399C264.424,-103.575 253.701,-92.1827 245.076,-83.0178"/>
<polygon fill="midnightblue" stroke="midnightblue" points="247.551,-80.541 238.148,-75.6578 242.453,-85.3386 247.551,-80.541"/>
</g>
<!-- Node7&#45;&gt;Node6 -->
<g id="edge12" class="edge"><title>Node7&#45;&gt;Node6</title>
<path fill="none" stroke="midnightblue" d="M285.002,-112.242C283.12,-96.3184 277.686,-70.8378 262,-56 257.47,-51.7148 186.44,-32.8969 140.253,-20.9937"/>
<polygon fill="midnightblue" stroke="midnightblue" points="141.08,-17.5926 130.524,-18.4937 139.338,-24.3723 141.08,-17.5926"/>
</g>
<!-- Node7&#45;&gt;Node8 -->
<g id="edge10" class="edge"><title>Node7&#45;&gt;Node8</title>
<path fill="none" stroke="midnightblue" d="M346.816,-112.475C392.784,-101.874 454.962,-87.534 497.117,-77.8123"/>
<polygon fill="midnightblue" stroke="midnightblue" points="498.158,-81.1641 507.115,-75.5064 496.584,-74.3432 498.158,-81.1641"/>
</g>
<!-- Node9 -->
<g id="node9" class="node"><title>Node9</title>
<polygon fill="none" stroke="#bfbfbf" points="623.5,-0.5 623.5,-19.5 680.5,-19.5 680.5,-0.5 623.5,-0.5"/>
<text text-anchor="middle" x="652" y="-7.5" font-family="Helvetica,sans-Serif" font-size="10.00">memory</text>
</g>
<!-- Node7&#45;&gt;Node9 -->
<g id="edge11" class="edge"><title>Node7&#45;&gt;Node9</title>
<path fill="none" stroke="midnightblue" d="M340.101,-112.442C372.256,-103.424 413.552,-90.6732 449,-76 466.634,-68.7006 469.244,-62.9969 487,-56 509.905,-46.9745 572.369,-30.7599 613.532,-20.457"/>
<polygon fill="midnightblue" stroke="midnightblue" points="614.388,-23.8507 623.245,-18.0364 612.696,-17.0584 614.388,-23.8507"/>
</g>
<!-- Node10 -->
<g id="node10" class="node"><title>Node10</title>
<g id="a_node10"><a xlink:href="Utils_8h.html" target="_top" xlink:title="ros_end_effector/Utils.h">
<polygon fill="none" stroke="black" points="310,-56.5 310,-75.5 440,-75.5 440,-56.5 310,-56.5"/>
<text text-anchor="middle" x="375" y="-63.5" font-family="Helvetica,sans-Serif" font-size="10.00">ros_end_effector/Utils.h</text>
</a>
</g>
</g>
<!-- Node7&#45;&gt;Node10 -->
<g id="edge13" class="edge"><title>Node7&#45;&gt;Node10</title>
<path fill="none" stroke="midnightblue" d="M307.092,-112.399C321.091,-103.04 339.411,-90.7924 353.495,-81.3771"/>
<polygon fill="midnightblue" stroke="midnightblue" points="355.682,-84.1253 362.05,-75.6578 351.791,-78.3059 355.682,-84.1253"/>
</g>
<!-- Node10&#45;&gt;Node6 -->
<g id="edge16" class="edge"><title>Node10&#45;&gt;Node6</title>
<path fill="none" stroke="midnightblue" d="M327.633,-56.4704C282.234,-48.1736 211.535,-34.938 140.768,-20.099"/>
<polygon fill="midnightblue" stroke="midnightblue" points="141.292,-16.6325 130.785,-17.9948 139.848,-23.482 141.292,-16.6325"/>
</g>
<!-- Node10&#45;&gt;Node9 -->
<g id="edge15" class="edge"><title>Node10&#45;&gt;Node9</title>
<path fill="none" stroke="midnightblue" d="M424.11,-56.4415C470.345,-48.2294 541.765,-35.1481 613.305,-20.0656"/>
<polygon fill="midnightblue" stroke="midnightblue" points="614.342,-23.4235 623.398,-17.9244 612.89,-16.5759 614.342,-23.4235"/>
</g>
<!-- Node11 -->
<g id="node11" class="node"><title>Node11</title>
<polygon fill="none" stroke="#bfbfbf" points="285.5,-0.5 285.5,-19.5 332.5,-19.5 332.5,-0.5 285.5,-0.5"/>
<text text-anchor="middle" x="309" y="-7.5" font-family="Helvetica,sans-Serif" font-size="10.00">cmath</text>
</g>
<!-- Node10&#45;&gt;Node11 -->
<g id="edge14" class="edge"><title>Node10&#45;&gt;Node11</title>
<path fill="none" stroke="midnightblue" d="M364.396,-56.324C354.544,-48.2631 339.649,-36.0765 327.785,-26.3695"/>
<polygon fill="midnightblue" stroke="midnightblue" points="329.753,-23.4575 319.797,-19.8339 325.32,-28.8752 329.753,-23.4575"/>
</g>
<!-- Node12 -->
<g id="node12" class="node"><title>Node12</title>
<polygon fill="none" stroke="#bfbfbf" points="351,-0.5 351,-19.5 399,-19.5 399,-0.5 351,-0.5"/>
<text text-anchor="middle" x="375" y="-7.5" font-family="Helvetica,sans-Serif" font-size="10.00">dlfcn.h</text>
</g>
<!-- Node10&#45;&gt;Node12 -->
<g id="edge17" class="edge"><title>Node10&#45;&gt;Node12</title>
<path fill="none" stroke="midnightblue" d="M375,-56.083C375,-49.0059 375,-38.8611 375,-29.9865"/>
<polygon fill="midnightblue" stroke="midnightblue" points="378.5,-29.751 375,-19.7511 371.5,-29.7511 378.5,-29.751"/>
</g>
<!-- Node13 -->
<g id="node13" class="node"><title>Node13</title>
<polygon fill="none" stroke="#bfbfbf" points="417,-0.5 417,-19.5 533,-19.5 533,-0.5 417,-0.5"/>
<text text-anchor="middle" x="475" y="-7.5" font-family="Helvetica,sans-Serif" font-size="10.00">boost/filesystem.hpp</text>
</g>
<!-- Node10&#45;&gt;Node13 -->
<g id="edge18" class="edge"><title>Node10&#45;&gt;Node13</title>
<path fill="none" stroke="midnightblue" d="M391.067,-56.324C406.958,-47.7428 431.507,-34.486 449.958,-24.5224"/>
<polygon fill="midnightblue" stroke="midnightblue" points="451.837,-27.4857 458.973,-19.6545 448.511,-21.3264 451.837,-27.4857"/>
</g>
<!-- Node14 -->
<g id="node14" class="node"><title>Node14</title>
<polygon fill="none" stroke="#bfbfbf" points="551,-0.5 551,-19.5 605,-19.5 605,-0.5 551,-0.5"/>
<text text-anchor="middle" x="578" y="-7.5" font-family="Helvetica,sans-Serif" font-size="10.00">fstream</text>
</g>
<!-- Node10&#45;&gt;Node14 -->
<g id="edge19" class="edge"><title>Node10&#45;&gt;Node14</title>
<path fill="none" stroke="midnightblue" d="M407.166,-56.4435C443.599,-46.7521 502.86,-30.9879 541.131,-20.8075"/>
<polygon fill="midnightblue" stroke="midnightblue" points="542.093,-24.1735 550.857,-18.2203 540.293,-17.4087 542.093,-24.1735"/>
</g>
<!-- Node15 -->
<g id="node15" class="node"><title>Node15</title>
<polygon fill="none" stroke="#bfbfbf" points="149,-0.5 149,-19.5 199,-19.5 199,-0.5 149,-0.5"/>
<text text-anchor="middle" x="174" y="-7.5" font-family="Helvetica,sans-Serif" font-size="10.00">chrono</text>
</g>
<!-- Node10&#45;&gt;Node15 -->
<g id="edge20" class="edge"><title>Node10&#45;&gt;Node15</title>
<path fill="none" stroke="midnightblue" d="M343.151,-56.4435C306.624,-46.6303 246.92,-30.5905 209.086,-20.4261"/>
<polygon fill="midnightblue" stroke="midnightblue" points="209.598,-16.9396 199.032,-17.7251 207.782,-23.6998 209.598,-16.9396"/>
</g>
<!-- Node16 -->
<g id="node16" class="node"><title>Node16</title>
<polygon fill="none" stroke="#bfbfbf" points="217,-0.5 217,-19.5 267,-19.5 267,-0.5 217,-0.5"/>
<text text-anchor="middle" x="242" y="-7.5" font-family="Helvetica,sans-Serif" font-size="10.00">atomic</text>
</g>
<!-- Node10&#45;&gt;Node16 -->
<g id="edge21" class="edge"><title>Node10&#45;&gt;Node16</title>
<path fill="none" stroke="midnightblue" d="M353.926,-56.4435C331.94,-47.5171 297.266,-33.4387 272.336,-23.3168"/>
<polygon fill="midnightblue" stroke="midnightblue" points="273.558,-20.0355 262.976,-19.5164 270.924,-26.5213 273.558,-20.0355"/>
</g>
</g>
</svg>
