<?xml version="1.0" encoding="UTF-8" standalone="no"?>
<!DOCTYPE svg PUBLIC "-//W3C//DTD SVG 1.1//EN"
 "http://www.w3.org/Graphics/SVG/1.1/DTD/svg11.dtd">
<!-- Generated by graphviz version 2.38.0 (20140413.2041)
 -->
<!-- Title: ROSEE::Action Pages: 1 -->
<svg width="331pt" height="514pt"
 viewBox="0.00 0.00 330.52 514.00" xmlns="http://www.w3.org/2000/svg" xmlns:xlink="http://www.w3.org/1999/xlink">
<g id="graph0" class="graph" transform="scale(1 1) rotate(0) translate(4 510)">
<title>ROSEE::Action</title>
<!-- Node1 -->
<g id="node1" class="node"><title>Node1</title>
<polygon fill="#bfbfbf" stroke="black" points="48.5185,-0.5 48.5185,-178.5 192.519,-178.5 192.519,-0.5 48.5185,-0.5"/>
<text text-anchor="middle" x="120.519" y="-166.5" font-family="Helvetica,sans-Serif" font-size="10.00">ROSEE::Action</text>
<polyline fill="none" stroke="black" points="48.5185,-159.5 192.519,-159.5 "/>
<text text-anchor="start" x="56.5185" y="-147.5" font-family="Helvetica,sans-Serif" font-size="10.00"># type</text>
<polyline fill="none" stroke="black" points="48.5185,-140.5 192.519,-140.5 "/>
<text text-anchor="start" x="56.5185" y="-128.5" font-family="Helvetica,sans-Serif" font-size="10.00">+ ~Action()</text>
<text text-anchor="start" x="56.5185" y="-117.5" font-family="Helvetica,sans-Serif" font-size="10.00">+ getName()</text>
<text text-anchor="start" x="56.5185" y="-106.5" font-family="Helvetica,sans-Serif" font-size="10.00">+ getType()</text>
<text text-anchor="start" x="56.5185" y="-95.5" font-family="Helvetica,sans-Serif" font-size="10.00">+ getFingersInvolved()</text>
<text text-anchor="start" x="56.5185" y="-84.5" font-family="Helvetica,sans-Serif" font-size="10.00">+ getJointsInvolvedCount()</text>
<text text-anchor="start" x="56.5185" y="-73.5" font-family="Helvetica,sans-Serif" font-size="10.00">+ getJointPos()</text>
<text text-anchor="start" x="56.5185" y="-62.5" font-family="Helvetica,sans-Serif" font-size="10.00">+ getAllJointPos()</text>
<text text-anchor="start" x="56.5185" y="-51.5" font-family="Helvetica,sans-Serif" font-size="10.00">+ print()</text>
<text text-anchor="start" x="56.5185" y="-40.5" font-family="Helvetica,sans-Serif" font-size="10.00">+ emitYaml()</text>
<text text-anchor="start" x="56.5185" y="-29.5" font-family="Helvetica,sans-Serif" font-size="10.00">+ fillFromYaml()</text>
<text text-anchor="start" x="56.5185" y="-18.5" font-family="Helvetica,sans-Serif" font-size="10.00"># Action()</text>
<text text-anchor="start" x="56.5185" y="-7.5" font-family="Helvetica,sans-Serif" font-size="10.00"># Action()</text>
</g>
<!-- Node2 -->
<g id="node2" class="node"><title>Node2</title>
<polygon fill="none" stroke="#bfbfbf" points="59.0185,-232 59.0185,-289 182.019,-289 182.019,-232 59.0185,-232"/>
<text text-anchor="middle" x="120.519" y="-277" font-family="Helvetica,sans-Serif" font-size="10.00">std::set&lt; std::string &gt;</text>
<polyline fill="none" stroke="#bfbfbf" points="59.0185,-270 182.019,-270 "/>
<text text-anchor="middle" x="120.519" y="-258" font-family="Helvetica,sans-Serif" font-size="10.00"> </text>
<polyline fill="none" stroke="#bfbfbf" points="59.0185,-251 182.019,-251 "/>
<text text-anchor="middle" x="120.519" y="-239" font-family="Helvetica,sans-Serif" font-size="10.00"> </text>
</g>
<!-- Node2&#45;&gt;Node1 -->
<g id="edge1" class="edge"><title>Node2&#45;&gt;Node1</title>
<path fill="none" stroke="#404040" d="M120.519,-231.971C120.519,-220.31 120.519,-205.94 120.519,-190.872"/>
<polygon fill="none" stroke="#404040" points="120.519,-190.676 116.519,-184.676 120.519,-178.676 124.519,-184.676 120.519,-190.676"/>
<text text-anchor="middle" x="162.019" y="-200" font-family="Helvetica,sans-Serif" font-size="10.00"> #fingersInvolved</text>
</g>
<!-- Node3 -->
<g id="node3" class="node"><title>Node3</title>
<g id="a_node3"><a xlink:title="STL class. ">
<polygon fill="none" stroke="#bfbfbf" points="88.0185,-342.5 88.0185,-399.5 153.019,-399.5 153.019,-342.5 88.0185,-342.5"/>
<text text-anchor="middle" x="120.519" y="-387.5" font-family="Helvetica,sans-Serif" font-size="10.00">std::string</text>
<polyline fill="none" stroke="#bfbfbf" points="88.0185,-380.5 153.019,-380.5 "/>
<text text-anchor="middle" x="120.519" y="-368.5" font-family="Helvetica,sans-Serif" font-size="10.00"> </text>
<polyline fill="none" stroke="#bfbfbf" points="88.0185,-361.5 153.019,-361.5 "/>
<text text-anchor="middle" x="120.519" y="-349.5" font-family="Helvetica,sans-Serif" font-size="10.00"> </text>
</a>
</g>
</g>
<!-- Node3&#45;&gt;Node1 -->
<g id="edge6" class="edge"><title>Node3&#45;&gt;Node1</title>
<path fill="none" stroke="#404040" d="M87.8677,-358.036C61.4157,-346.399 25.9387,-325.912 9.5185,-295 -4.86777,-267.917 -0.799919,-254.879 9.5185,-226 16.575,-206.251 27.8851,-187.308 40.645,-170.172"/>
<polygon fill="none" stroke="#404040" points="40.9491,-169.78 41.466,-162.587 48.3042,-160.298 47.7872,-167.491 40.9491,-169.78"/>
<text text-anchor="middle" x="29.5185" y="-258" font-family="Helvetica,sans-Serif" font-size="10.00"> #name</text>
</g>
<!-- Node3&#45;&gt;Node2 -->
<g id="edge2" class="edge"><title>Node3&#45;&gt;Node2</title>
<path fill="none" stroke="#404040" d="M120.519,-342.34C120.519,-329.842 120.519,-314.842 120.519,-301.176"/>
<polygon fill="none" stroke="#404040" points="120.519,-301.109 116.519,-295.109 120.519,-289.109 124.519,-295.109 120.519,-301.109"/>
<text text-anchor="middle" x="137.519" y="-316" font-family="Helvetica,sans-Serif" font-size="10.00"> +keys</text>
</g>
<!-- Node5 -->
<g id="node5" class="node"><title>Node5</title>
<polygon fill="none" stroke="#bfbfbf" points="200.519,-226.5 200.519,-294.5 322.519,-294.5 322.519,-226.5 200.519,-226.5"/>
<text text-anchor="start" x="208.519" y="-282.5" font-family="Helvetica,sans-Serif" font-size="10.00">std::map&lt; std::string,</text>
<text text-anchor="middle" x="261.519" y="-271.5" font-family="Helvetica,sans-Serif" font-size="10.00"> unsigned int &gt;</text>
<polyline fill="none" stroke="#bfbfbf" points="200.519,-264.5 322.519,-264.5 "/>
<text text-anchor="start" x="208.519" y="-252.5" font-family="Helvetica,sans-Serif" font-size="10.00">+ elements</text>
<polyline fill="none" stroke="#bfbfbf" points="200.519,-245.5 322.519,-245.5 "/>
<text text-anchor="middle" x="261.519" y="-233.5" font-family="Helvetica,sans-Serif" font-size="10.00"> </text>
</g>
<!-- Node3&#45;&gt;Node5 -->
<g id="edge5" class="edge"><title>Node3&#45;&gt;Node5</title>
<path fill="none" stroke="#404040" d="M153.221,-344.835C169.778,-332.094 190.285,-316.315 208.984,-301.925"/>
<polygon fill="none" stroke="#404040" points="209.057,-301.869 211.373,-295.04 218.568,-294.551 216.252,-301.38 209.057,-301.869"/>
<text text-anchor="middle" x="208.519" y="-316" font-family="Helvetica,sans-Serif" font-size="10.00"> +keys</text>
</g>
<!-- Node4 -->
<g id="node4" class="node"><title>Node4</title>
<g id="a_node4"><a xlink:title="STL class. ">
<polygon fill="none" stroke="#bfbfbf" points="69.0185,-437.5 69.0185,-505.5 172.019,-505.5 172.019,-437.5 69.0185,-437.5"/>
<text text-anchor="start" x="77.0185" y="-493.5" font-family="Helvetica,sans-Serif" font-size="10.00">std::basic_string&lt;</text>
<text text-anchor="middle" x="120.519" y="-482.5" font-family="Helvetica,sans-Serif" font-size="10.00"> char &gt;</text>
<polyline fill="none" stroke="#bfbfbf" points="69.0185,-475.5 172.019,-475.5 "/>
<text text-anchor="middle" x="120.519" y="-463.5" font-family="Helvetica,sans-Serif" font-size="10.00"> </text>
<polyline fill="none" stroke="#bfbfbf" points="69.0185,-456.5 172.019,-456.5 "/>
<text text-anchor="middle" x="120.519" y="-444.5" font-family="Helvetica,sans-Serif" font-size="10.00"> </text>
</a>
</g>
</g>
<!-- Node4&#45;&gt;Node3 -->
<g id="edge3" class="edge"><title>Node4&#45;&gt;Node3</title>
<path fill="none" stroke="midnightblue" d="M120.519,-427.375C120.519,-417.94 120.519,-408.201 120.519,-399.571"/>
<polygon fill="none" stroke="midnightblue" points="117.019,-427.427 120.519,-437.427 124.019,-427.427 117.019,-427.427"/>
</g>
<!-- Node5&#45;&gt;Node1 -->
<g id="edge4" class="edge"><title>Node5&#45;&gt;Node1</title>
<path fill="none" stroke="#404040" d="M233.661,-226.111C223.918,-214.432 212.433,-200.667 200.581,-186.462"/>
<polygon fill="none" stroke="#404040" points="200.442,-186.295 193.527,-184.25 192.755,-177.081 199.67,-179.125 200.442,-186.295"/>
<text text-anchor="middle" x="269.019" y="-200" font-family="Helvetica,sans-Serif" font-size="10.00"> #jointsInvolvedCount</text>
</g>
</g>
</svg>
