<?xml version="1.0" encoding="UTF-8" standalone="no"?>
<!DOCTYPE svg PUBLIC "-//W3C//DTD SVG 1.1//EN"
 "http://www.w3.org/Graphics/SVG/1.1/DTD/svg11.dtd">
<!-- Generated by graphviz version 2.38.0 (20140413.2041)
 -->
<!-- Title: ROSEE::EEHal Pages: 1 -->
<svg width="336pt" height="701pt"
 viewBox="0.00 0.00 335.50 701.00" xmlns="http://www.w3.org/2000/svg" xmlns:xlink="http://www.w3.org/1999/xlink">
<g id="graph0" class="graph" transform="scale(1 1) rotate(0) translate(4 697)">
<title>ROSEE::EEHal</title>
<!-- Node1 -->
<g id="node1" class="node"><title>Node1</title>
<polygon fill="#bfbfbf" stroke="black" points="28.5,-0.5 28.5,-365.5 170.5,-365.5 170.5,-0.5 28.5,-0.5"/>
<text text-anchor="middle" x="99.5" y="-353.5" font-family="Helvetica,sans-Serif" font-size="10.00">ROSEE::EEHal</text>
<polyline fill="none" stroke="black" points="28.5,-346.5 170.5,-346.5 "/>
<text text-anchor="start" x="36.5" y="-334.5" font-family="Helvetica,sans-Serif" font-size="10.00">+ _pressure_active</text>
<text text-anchor="start" x="36.5" y="-323.5" font-family="Helvetica,sans-Serif" font-size="10.00"># _nh</text>
<text text-anchor="start" x="36.5" y="-312.5" font-family="Helvetica,sans-Serif" font-size="10.00"># _mr_msg</text>
<text text-anchor="start" x="36.5" y="-301.5" font-family="Helvetica,sans-Serif" font-size="10.00"># _motor_reference_sub</text>
<text text-anchor="start" x="36.5" y="-290.5" font-family="Helvetica,sans-Serif" font-size="10.00"># _js_msg</text>
<text text-anchor="start" x="36.5" y="-279.5" font-family="Helvetica,sans-Serif" font-size="10.00"># _joint_state_pub</text>
<text text-anchor="start" x="36.5" y="-268.5" font-family="Helvetica,sans-Serif" font-size="10.00"># _pressure_msg</text>
<text text-anchor="start" x="36.5" y="-257.5" font-family="Helvetica,sans-Serif" font-size="10.00"># _pressure_pub</text>
<text text-anchor="start" x="36.5" y="-246.5" font-family="Helvetica,sans-Serif" font-size="10.00"># tips_frictions</text>
<text text-anchor="start" x="36.5" y="-235.5" font-family="Helvetica,sans-Serif" font-size="10.00"># motors_torque_limits</text>
<text text-anchor="start" x="36.5" y="-224.5" font-family="Helvetica,sans-Serif" font-size="10.00"># motors_stiffness</text>
<text text-anchor="start" x="36.5" y="-213.5" font-family="Helvetica,sans-Serif" font-size="10.00"># tip_joint_to_tip_frame_x</text>
<text text-anchor="start" x="36.5" y="-202.5" font-family="Helvetica,sans-Serif" font-size="10.00"># tip_joint_to_tip_frame_y</text>
<text text-anchor="start" x="36.5" y="-191.5" font-family="Helvetica,sans-Serif" font-size="10.00"># _hand_info_server</text>
<text text-anchor="start" x="36.5" y="-180.5" font-family="Helvetica,sans-Serif" font-size="10.00"># _hand_info_response</text>
<text text-anchor="start" x="36.5" y="-169.5" font-family="Helvetica,sans-Serif" font-size="10.00">&#45; _hand_info_present</text>
<polyline fill="none" stroke="black" points="28.5,-162.5 170.5,-162.5 "/>
<text text-anchor="start" x="36.5" y="-150.5" font-family="Helvetica,sans-Serif" font-size="10.00">+ EEHal()</text>
<text text-anchor="start" x="36.5" y="-139.5" font-family="Helvetica,sans-Serif" font-size="10.00">+ ~EEHal()</text>
<text text-anchor="start" x="36.5" y="-128.5" font-family="Helvetica,sans-Serif" font-size="10.00">+ sense()</text>
<text text-anchor="start" x="36.5" y="-117.5" font-family="Helvetica,sans-Serif" font-size="10.00">+ move()</text>
<text text-anchor="start" x="36.5" y="-106.5" font-family="Helvetica,sans-Serif" font-size="10.00">+ publish_joint_state()</text>
<text text-anchor="start" x="36.5" y="-95.5" font-family="Helvetica,sans-Serif" font-size="10.00">+ checkCommandPub()</text>
<text text-anchor="start" x="36.5" y="-84.5" font-family="Helvetica,sans-Serif" font-size="10.00">+ getFingersNames()</text>
<text text-anchor="start" x="36.5" y="-73.5" font-family="Helvetica,sans-Serif" font-size="10.00">+ getMotorsNames()</text>
<text text-anchor="start" x="36.5" y="-62.5" font-family="Helvetica,sans-Serif" font-size="10.00">+ getMotorStiffness()</text>
<text text-anchor="start" x="36.5" y="-51.5" font-family="Helvetica,sans-Serif" font-size="10.00">+ getTipsFrictions()</text>
<text text-anchor="start" x="36.5" y="-40.5" font-family="Helvetica,sans-Serif" font-size="10.00">and 19 more...</text>
<text text-anchor="start" x="36.5" y="-29.5" font-family="Helvetica,sans-Serif" font-size="10.00"># initPressureSensing()</text>
<text text-anchor="start" x="36.5" y="-18.5" font-family="Helvetica,sans-Serif" font-size="10.00">&#45; handInfoEEHalCallback()</text>
<text text-anchor="start" x="36.5" y="-7.5" font-family="Helvetica,sans-Serif" font-size="10.00">&#45; motor_reference_clbk()</text>
</g>
<!-- Node2 -->
<g id="node2" class="node"><title>Node2</title>
<g id="a_node2"><a xlink:title="STL class. ">
<polygon fill="none" stroke="#bfbfbf" points="19,-529.5 19,-586.5 84,-586.5 84,-529.5 19,-529.5"/>
<text text-anchor="middle" x="51.5" y="-574.5" font-family="Helvetica,sans-Serif" font-size="10.00">std::string</text>
<polyline fill="none" stroke="#bfbfbf" points="19,-567.5 84,-567.5 "/>
<text text-anchor="middle" x="51.5" y="-555.5" font-family="Helvetica,sans-Serif" font-size="10.00"> </text>
<polyline fill="none" stroke="#bfbfbf" points="19,-548.5 84,-548.5 "/>
<text text-anchor="middle" x="51.5" y="-536.5" font-family="Helvetica,sans-Serif" font-size="10.00"> </text>
</a>
</g>
</g>
<!-- Node2&#45;&gt;Node1 -->
<g id="edge1" class="edge"><title>Node2&#45;&gt;Node1</title>
<path fill="none" stroke="#404040" d="M48.2903,-529.261C46.8137,-515.135 45.23,-497.676 44.5,-482 43.3009,-456.25 41.6026,-449.614 44.5,-424 46.2134,-408.853 48.5166,-393.269 51.2122,-377.664"/>
<polygon fill="none" stroke="#404040" points="51.2333,-377.545 48.3525,-370.935 53.3467,-365.733 56.2274,-372.344 51.2333,-377.545"/>
<text text-anchor="middle" x="112.5" y="-450.5" font-family="Helvetica,sans-Serif" font-size="10.00"> #_hand_info_service_name</text>
</g>
<!-- Node4 -->
<g id="node4" class="node"><title>Node4</title>
<polygon fill="none" stroke="#bfbfbf" points="189.5,-424.5 189.5,-481.5 327.5,-481.5 327.5,-424.5 189.5,-424.5"/>
<text text-anchor="middle" x="258.5" y="-469.5" font-family="Helvetica,sans-Serif" font-size="10.00">std::vector&lt; std::string &gt;</text>
<polyline fill="none" stroke="#bfbfbf" points="189.5,-462.5 327.5,-462.5 "/>
<text text-anchor="middle" x="258.5" y="-450.5" font-family="Helvetica,sans-Serif" font-size="10.00"> </text>
<polyline fill="none" stroke="#bfbfbf" points="189.5,-443.5 327.5,-443.5 "/>
<text text-anchor="middle" x="258.5" y="-431.5" font-family="Helvetica,sans-Serif" font-size="10.00"> </text>
</g>
<!-- Node2&#45;&gt;Node4 -->
<g id="edge4" class="edge"><title>Node2&#45;&gt;Node4</title>
<path fill="none" stroke="#404040" d="M84.2998,-540.679C113.124,-526.337 155.962,-505.021 191.944,-487.117"/>
<polygon fill="none" stroke="#404040" points="192.124,-487.028 195.714,-480.774 202.867,-481.682 199.277,-487.936 192.124,-487.028"/>
<text text-anchor="middle" x="189" y="-503" font-family="Helvetica,sans-Serif" font-size="10.00"> +elements</text>
</g>
<!-- Node3 -->
<g id="node3" class="node"><title>Node3</title>
<g id="a_node3"><a xlink:title="STL class. ">
<polygon fill="none" stroke="#bfbfbf" points="0,-624.5 0,-692.5 103,-692.5 103,-624.5 0,-624.5"/>
<text text-anchor="start" x="8" y="-680.5" font-family="Helvetica,sans-Serif" font-size="10.00">std::basic_string&lt;</text>
<text text-anchor="middle" x="51.5" y="-669.5" font-family="Helvetica,sans-Serif" font-size="10.00"> char &gt;</text>
<polyline fill="none" stroke="#bfbfbf" points="0,-662.5 103,-662.5 "/>
<text text-anchor="middle" x="51.5" y="-650.5" font-family="Helvetica,sans-Serif" font-size="10.00"> </text>
<polyline fill="none" stroke="#bfbfbf" points="0,-643.5 103,-643.5 "/>
<text text-anchor="middle" x="51.5" y="-631.5" font-family="Helvetica,sans-Serif" font-size="10.00"> </text>
</a>
</g>
</g>
<!-- Node3&#45;&gt;Node2 -->
<g id="edge2" class="edge"><title>Node3&#45;&gt;Node2</title>
<path fill="none" stroke="midnightblue" d="M51.5,-614.375C51.5,-604.94 51.5,-595.201 51.5,-586.571"/>
<polygon fill="none" stroke="midnightblue" points="48.0001,-614.427 51.5,-624.427 55.0001,-614.427 48.0001,-614.427"/>
</g>
<!-- Node4&#45;&gt;Node1 -->
<g id="edge3" class="edge"><title>Node4&#45;&gt;Node1</title>
<path fill="none" stroke="#404040" d="M242.083,-424.329C226.357,-397.822 201.439,-355.822 176.803,-314.297"/>
<polygon fill="none" stroke="#404040" points="176.674,-314.08 170.173,-310.96 170.551,-303.759 177.053,-306.878 176.674,-314.08"/>
<text text-anchor="middle" x="270" y="-398" font-family="Helvetica,sans-Serif" font-size="10.00"> #motors_names</text>
<text text-anchor="middle" x="270" y="-387" font-family="Helvetica,sans-Serif" font-size="10.00">#fingers_names</text>
</g>
</g>
</svg>
