<?xml version="1.0" encoding="UTF-8" standalone="no"?>
<!DOCTYPE svg PUBLIC "-//W3C//DTD SVG 1.1//EN"
 "http://www.w3.org/Graphics/SVG/1.1/DTD/svg11.dtd">
<!-- Generated by graphviz version 2.38.0 (20140413.2041)
 -->
<!-- Title: ROSEE::ActionTimed Pages: 1 -->
<svg width="331pt" height="763pt"
 viewBox="0.00 0.00 330.52 763.00" xmlns="http://www.w3.org/2000/svg" xmlns:xlink="http://www.w3.org/1999/xlink">
<g id="graph0" class="graph" transform="scale(1 1) rotate(0) translate(4 759)">
<title>ROSEE::ActionTimed</title>
<!-- Node1 -->
<g id="node1" class="node"><title>Node1</title>
<polygon fill="#bfbfbf" stroke="black" points="48.0185,-0.5 48.0185,-211.5 193.019,-211.5 193.019,-0.5 48.0185,-0.5"/>
<text text-anchor="middle" x="120.519" y="-199.5" font-family="Helvetica,sans-Serif" font-size="10.00">ROSEE::ActionTimed</text>
<polyline fill="none" stroke="black" points="48.0185,-192.5 193.019,-192.5 "/>
<text text-anchor="middle" x="120.519" y="-180.5" font-family="Helvetica,sans-Serif" font-size="10.00"> </text>
<polyline fill="none" stroke="black" points="48.0185,-173.5 193.019,-173.5 "/>
<text text-anchor="start" x="56.0185" y="-161.5" font-family="Helvetica,sans-Serif" font-size="10.00">+ ActionTimed()</text>
<text text-anchor="start" x="56.0185" y="-150.5" font-family="Helvetica,sans-Serif" font-size="10.00">+ ActionTimed()</text>
<text text-anchor="start" x="56.0185" y="-139.5" font-family="Helvetica,sans-Serif" font-size="10.00">+ ~ActionTimed()</text>
<text text-anchor="start" x="56.0185" y="-128.5" font-family="Helvetica,sans-Serif" font-size="10.00">+ getJointPos()</text>
<text text-anchor="start" x="56.0185" y="-117.5" font-family="Helvetica,sans-Serif" font-size="10.00">+ getAllJointPos()</text>
<text text-anchor="start" x="56.0185" y="-106.5" font-family="Helvetica,sans-Serif" font-size="10.00">+ getAllJointCountAction()</text>
<text text-anchor="start" x="56.0185" y="-95.5" font-family="Helvetica,sans-Serif" font-size="10.00">+ getAllActionMargins()</text>
<text text-anchor="start" x="56.0185" y="-84.5" font-family="Helvetica,sans-Serif" font-size="10.00">+ getJointPosAction()</text>
<text text-anchor="start" x="56.0185" y="-73.5" font-family="Helvetica,sans-Serif" font-size="10.00">+ getActionMargins()</text>
<text text-anchor="start" x="56.0185" y="-62.5" font-family="Helvetica,sans-Serif" font-size="10.00">+ getJointCountAction()</text>
<text text-anchor="start" x="56.0185" y="-51.5" font-family="Helvetica,sans-Serif" font-size="10.00">+ getInnerActionsNames()</text>
<text text-anchor="start" x="56.0185" y="-40.5" font-family="Helvetica,sans-Serif" font-size="10.00">+ print()</text>
<text text-anchor="start" x="56.0185" y="-29.5" font-family="Helvetica,sans-Serif" font-size="10.00">+ emitYaml()</text>
<text text-anchor="start" x="56.0185" y="-18.5" font-family="Helvetica,sans-Serif" font-size="10.00">+ fillFromYaml()</text>
<text text-anchor="start" x="56.0185" y="-7.5" font-family="Helvetica,sans-Serif" font-size="10.00">+ insertAction()</text>
</g>
<!-- Node2 -->
<g id="node2" class="node"><title>Node2</title>
<g id="a_node2"><a xlink:href="classROSEE_1_1Action.html" target="_top" xlink:title="The pure virtual class representing an Action. ">
<polygon fill="none" stroke="black" points="48.5185,-249.5 48.5185,-427.5 192.519,-427.5 192.519,-249.5 48.5185,-249.5"/>
<text text-anchor="middle" x="120.519" y="-415.5" font-family="Helvetica,sans-Serif" font-size="10.00">ROSEE::Action</text>
<polyline fill="none" stroke="black" points="48.5185,-408.5 192.519,-408.5 "/>
<text text-anchor="start" x="56.5185" y="-396.5" font-family="Helvetica,sans-Serif" font-size="10.00"># type</text>
<polyline fill="none" stroke="black" points="48.5185,-389.5 192.519,-389.5 "/>
<text text-anchor="start" x="56.5185" y="-377.5" font-family="Helvetica,sans-Serif" font-size="10.00">+ ~Action()</text>
<text text-anchor="start" x="56.5185" y="-366.5" font-family="Helvetica,sans-Serif" font-size="10.00">+ getName()</text>
<text text-anchor="start" x="56.5185" y="-355.5" font-family="Helvetica,sans-Serif" font-size="10.00">+ getType()</text>
<text text-anchor="start" x="56.5185" y="-344.5" font-family="Helvetica,sans-Serif" font-size="10.00">+ getFingersInvolved()</text>
<text text-anchor="start" x="56.5185" y="-333.5" font-family="Helvetica,sans-Serif" font-size="10.00">+ getJointsInvolvedCount()</text>
<text text-anchor="start" x="56.5185" y="-322.5" font-family="Helvetica,sans-Serif" font-size="10.00">+ getJointPos()</text>
<text text-anchor="start" x="56.5185" y="-311.5" font-family="Helvetica,sans-Serif" font-size="10.00">+ getAllJointPos()</text>
<text text-anchor="start" x="56.5185" y="-300.5" font-family="Helvetica,sans-Serif" font-size="10.00">+ print()</text>
<text text-anchor="start" x="56.5185" y="-289.5" font-family="Helvetica,sans-Serif" font-size="10.00">+ emitYaml()</text>
<text text-anchor="start" x="56.5185" y="-278.5" font-family="Helvetica,sans-Serif" font-size="10.00">+ fillFromYaml()</text>
<text text-anchor="start" x="56.5185" y="-267.5" font-family="Helvetica,sans-Serif" font-size="10.00"># Action()</text>
<text text-anchor="start" x="56.5185" y="-256.5" font-family="Helvetica,sans-Serif" font-size="10.00"># Action()</text>
</a>
</g>
</g>
<!-- Node2&#45;&gt;Node1 -->
<g id="edge1" class="edge"><title>Node2&#45;&gt;Node1</title>
<path fill="none" stroke="midnightblue" d="M120.519,-239.172C120.519,-230.074 120.519,-220.832 120.519,-211.679"/>
<polygon fill="none" stroke="midnightblue" points="117.019,-239.371 120.519,-249.371 124.019,-239.371 117.019,-239.371"/>
</g>
<!-- Node3 -->
<g id="node3" class="node"><title>Node3</title>
<polygon fill="none" stroke="#bfbfbf" points="59.0185,-481 59.0185,-538 182.019,-538 182.019,-481 59.0185,-481"/>
<text text-anchor="middle" x="120.519" y="-526" font-family="Helvetica,sans-Serif" font-size="10.00">std::set&lt; std::string &gt;</text>
<polyline fill="none" stroke="#bfbfbf" points="59.0185,-519 182.019,-519 "/>
<text text-anchor="middle" x="120.519" y="-507" font-family="Helvetica,sans-Serif" font-size="10.00"> </text>
<polyline fill="none" stroke="#bfbfbf" points="59.0185,-500 182.019,-500 "/>
<text text-anchor="middle" x="120.519" y="-488" font-family="Helvetica,sans-Serif" font-size="10.00"> </text>
</g>
<!-- Node3&#45;&gt;Node2 -->
<g id="edge2" class="edge"><title>Node3&#45;&gt;Node2</title>
<path fill="none" stroke="#404040" d="M120.519,-480.971C120.519,-469.31 120.519,-454.94 120.519,-439.872"/>
<polygon fill="none" stroke="#404040" points="120.519,-439.676 116.519,-433.676 120.519,-427.676 124.519,-433.676 120.519,-439.676"/>
<text text-anchor="middle" x="162.019" y="-449" font-family="Helvetica,sans-Serif" font-size="10.00"> #fingersInvolved</text>
</g>
<!-- Node4 -->
<g id="node4" class="node"><title>Node4</title>
<g id="a_node4"><a xlink:title="STL class. ">
<polygon fill="none" stroke="#bfbfbf" points="88.0185,-591.5 88.0185,-648.5 153.019,-648.5 153.019,-591.5 88.0185,-591.5"/>
<text text-anchor="middle" x="120.519" y="-636.5" font-family="Helvetica,sans-Serif" font-size="10.00">std::string</text>
<polyline fill="none" stroke="#bfbfbf" points="88.0185,-629.5 153.019,-629.5 "/>
<text text-anchor="middle" x="120.519" y="-617.5" font-family="Helvetica,sans-Serif" font-size="10.00"> </text>
<polyline fill="none" stroke="#bfbfbf" points="88.0185,-610.5 153.019,-610.5 "/>
<text text-anchor="middle" x="120.519" y="-598.5" font-family="Helvetica,sans-Serif" font-size="10.00"> </text>
</a>
</g>
</g>
<!-- Node4&#45;&gt;Node2 -->
<g id="edge7" class="edge"><title>Node4&#45;&gt;Node2</title>
<path fill="none" stroke="#404040" d="M87.8677,-607.036C61.4157,-595.399 25.9387,-574.912 9.5185,-544 -4.86777,-516.917 -0.799919,-503.879 9.5185,-475 16.575,-455.251 27.8851,-436.308 40.645,-419.172"/>
<polygon fill="none" stroke="#404040" points="40.9491,-418.78 41.466,-411.587 48.3042,-409.298 47.7872,-416.491 40.9491,-418.78"/>
<text text-anchor="middle" x="29.5185" y="-507" font-family="Helvetica,sans-Serif" font-size="10.00"> #name</text>
</g>
<!-- Node4&#45;&gt;Node3 -->
<g id="edge3" class="edge"><title>Node4&#45;&gt;Node3</title>
<path fill="none" stroke="#404040" d="M120.519,-591.34C120.519,-578.842 120.519,-563.842 120.519,-550.176"/>
<polygon fill="none" stroke="#404040" points="120.519,-550.109 116.519,-544.109 120.519,-538.109 124.519,-544.109 120.519,-550.109"/>
<text text-anchor="middle" x="137.519" y="-565" font-family="Helvetica,sans-Serif" font-size="10.00"> +keys</text>
</g>
<!-- Node6 -->
<g id="node6" class="node"><title>Node6</title>
<polygon fill="none" stroke="#bfbfbf" points="200.519,-475.5 200.519,-543.5 322.519,-543.5 322.519,-475.5 200.519,-475.5"/>
<text text-anchor="start" x="208.519" y="-531.5" font-family="Helvetica,sans-Serif" font-size="10.00">std::map&lt; std::string,</text>
<text text-anchor="middle" x="261.519" y="-520.5" font-family="Helvetica,sans-Serif" font-size="10.00"> unsigned int &gt;</text>
<polyline fill="none" stroke="#bfbfbf" points="200.519,-513.5 322.519,-513.5 "/>
<text text-anchor="start" x="208.519" y="-501.5" font-family="Helvetica,sans-Serif" font-size="10.00">+ elements</text>
<polyline fill="none" stroke="#bfbfbf" points="200.519,-494.5 322.519,-494.5 "/>
<text text-anchor="middle" x="261.519" y="-482.5" font-family="Helvetica,sans-Serif" font-size="10.00"> </text>
</g>
<!-- Node4&#45;&gt;Node6 -->
<g id="edge6" class="edge"><title>Node4&#45;&gt;Node6</title>
<path fill="none" stroke="#404040" d="M153.221,-593.835C169.778,-581.094 190.285,-565.315 208.984,-550.925"/>
<polygon fill="none" stroke="#404040" points="209.057,-550.869 211.373,-544.04 218.568,-543.551 216.252,-550.38 209.057,-550.869"/>
<text text-anchor="middle" x="208.519" y="-565" font-family="Helvetica,sans-Serif" font-size="10.00"> +keys</text>
</g>
<!-- Node5 -->
<g id="node5" class="node"><title>Node5</title>
<g id="a_node5"><a xlink:title="STL class. ">
<polygon fill="none" stroke="#bfbfbf" points="69.0185,-686.5 69.0185,-754.5 172.019,-754.5 172.019,-686.5 69.0185,-686.5"/>
<text text-anchor="start" x="77.0185" y="-742.5" font-family="Helvetica,sans-Serif" font-size="10.00">std::basic_string&lt;</text>
<text text-anchor="middle" x="120.519" y="-731.5" font-family="Helvetica,sans-Serif" font-size="10.00"> char &gt;</text>
<polyline fill="none" stroke="#bfbfbf" points="69.0185,-724.5 172.019,-724.5 "/>
<text text-anchor="middle" x="120.519" y="-712.5" font-family="Helvetica,sans-Serif" font-size="10.00"> </text>
<polyline fill="none" stroke="#bfbfbf" points="69.0185,-705.5 172.019,-705.5 "/>
<text text-anchor="middle" x="120.519" y="-693.5" font-family="Helvetica,sans-Serif" font-size="10.00"> </text>
</a>
</g>
</g>
<!-- Node5&#45;&gt;Node4 -->
<g id="edge4" class="edge"><title>Node5&#45;&gt;Node4</title>
<path fill="none" stroke="midnightblue" d="M120.519,-676.375C120.519,-666.94 120.519,-657.201 120.519,-648.571"/>
<polygon fill="none" stroke="midnightblue" points="117.019,-676.427 120.519,-686.427 124.019,-676.427 117.019,-676.427"/>
</g>
<!-- Node6&#45;&gt;Node2 -->
<g id="edge5" class="edge"><title>Node6&#45;&gt;Node2</title>
<path fill="none" stroke="#404040" d="M233.661,-475.111C223.918,-463.432 212.433,-449.667 200.581,-435.462"/>
<polygon fill="none" stroke="#404040" points="200.442,-435.295 193.527,-433.25 192.755,-426.081 199.67,-428.125 200.442,-435.295"/>
<text text-anchor="middle" x="269.019" y="-449" font-family="Helvetica,sans-Serif" font-size="10.00"> #jointsInvolvedCount</text>
</g>
</g>
</svg>
