<?xml version="1.0" encoding="UTF-8" standalone="no"?>
<!DOCTYPE svg PUBLIC "-//W3C//DTD SVG 1.1//EN"
 "http://www.w3.org/Graphics/SVG/1.1/DTD/svg11.dtd">
<!-- Generated by graphviz version 2.38.0 (20140413.2041)
 -->
<!-- Title: ROSEE::EEHal Pages: 1 -->
<svg width="124pt" height="292pt"
 viewBox="0.00 0.00 124.00 292.00" xmlns="http://www.w3.org/2000/svg" xmlns:xlink="http://www.w3.org/1999/xlink">
<g id="graph0" class="graph" transform="scale(1 1) rotate(0) translate(4 288)">
<title>ROSEE::EEHal</title>
<!-- Node1 -->
<g id="node1" class="node"><title>Node1</title>
<polygon fill="#bfbfbf" stroke="black" points="3.5,-0.5 3.5,-156.5 112.5,-156.5 112.5,-0.5 3.5,-0.5"/>
<text text-anchor="middle" x="58" y="-144.5" font-family="Helvetica,sans-Serif" font-size="10.00">ROSEE::EEHal</text>
<polyline fill="none" stroke="black" points="3.5,-137.5 112.5,-137.5 "/>
<text text-anchor="start" x="11.5" y="-125.5" font-family="Helvetica,sans-Serif" font-size="10.00"># _ee_inteface</text>
<polyline fill="none" stroke="black" points="3.5,-118.5 112.5,-118.5 "/>
<text text-anchor="start" x="11.5" y="-106.5" font-family="Helvetica,sans-Serif" font-size="10.00">+ EEHal()</text>
<text text-anchor="start" x="11.5" y="-95.5" font-family="Helvetica,sans-Serif" font-size="10.00">+ ~EEHal()</text>
<text text-anchor="start" x="11.5" y="-84.5" font-family="Helvetica,sans-Serif" font-size="10.00">+ sense()</text>
<text text-anchor="start" x="11.5" y="-73.5" font-family="Helvetica,sans-Serif" font-size="10.00">+ move()</text>
<text text-anchor="start" x="11.5" y="-62.5" font-family="Helvetica,sans-Serif" font-size="10.00"># setJointPosition()</text>
<text text-anchor="start" x="11.5" y="-51.5" font-family="Helvetica,sans-Serif" font-size="10.00"># setJointVelocity()</text>
<text text-anchor="start" x="11.5" y="-40.5" font-family="Helvetica,sans-Serif" font-size="10.00"># setJointEffort()</text>
<text text-anchor="start" x="11.5" y="-29.5" font-family="Helvetica,sans-Serif" font-size="10.00"># getJointPosition()</text>
<text text-anchor="start" x="11.5" y="-18.5" font-family="Helvetica,sans-Serif" font-size="10.00"># getJointVelocity()</text>
<text text-anchor="start" x="11.5" y="-7.5" font-family="Helvetica,sans-Serif" font-size="10.00"># getJointEffort()</text>
</g>
<!-- Node2 -->
<g id="node2" class="node"><title>Node2</title>
<g id="a_node2"><a xlink:href="classROSEE_1_1IMotor.html" target="_top" xlink:title="Class representing a Motor. ">
<polygon fill="none" stroke="black" points="-7.10543e-15,-193.5 -7.10543e-15,-283.5 116,-283.5 116,-193.5 -7.10543e-15,-193.5"/>
<text text-anchor="middle" x="58" y="-271.5" font-family="Helvetica,sans-Serif" font-size="10.00">ROSEE::IMotor</text>
<polyline fill="none" stroke="black" points="-7.10543e-15,-264.5 116,-264.5 "/>
<text text-anchor="middle" x="58" y="-252.5" font-family="Helvetica,sans-Serif" font-size="10.00"> </text>
<polyline fill="none" stroke="black" points="-7.10543e-15,-245.5 116,-245.5 "/>
<text text-anchor="start" x="8" y="-233.5" font-family="Helvetica,sans-Serif" font-size="10.00">+ getMotorPosition()</text>
<text text-anchor="start" x="8" y="-222.5" font-family="Helvetica,sans-Serif" font-size="10.00">+ getMotorVelocity()</text>
<text text-anchor="start" x="8" y="-211.5" font-family="Helvetica,sans-Serif" font-size="10.00">+ getMotorEffort()</text>
<text text-anchor="start" x="8" y="-200.5" font-family="Helvetica,sans-Serif" font-size="10.00">+ moveMotor()</text>
</a>
</g>
</g>
<!-- Node2&#45;&gt;Node1 -->
<g id="edge1" class="edge"><title>Node2&#45;&gt;Node1</title>
<path fill="none" stroke="midnightblue" d="M58,-183.232C58,-174.62 58,-165.572 58,-156.558"/>
<polygon fill="none" stroke="midnightblue" points="54.5001,-183.488 58,-193.488 61.5001,-183.488 54.5001,-183.488"/>
</g>
</g>
</svg>
