<?xml version="1.0" encoding="UTF-8" standalone="no"?>
<!DOCTYPE svg PUBLIC "-//W3C//DTD SVG 1.1//EN"
 "http://www.w3.org/Graphics/SVG/1.1/DTD/svg11.dtd">
<!-- Generated by graphviz version 2.38.0 (20140413.2041)
 -->
<!-- Title: ROSEE::ActionPrimitive Pages: 1 -->
<svg width="331pt" height="719pt"
 viewBox="0.00 0.00 330.52 719.00" xmlns="http://www.w3.org/2000/svg" xmlns:xlink="http://www.w3.org/1999/xlink">
<g id="graph0" class="graph" transform="scale(1 1) rotate(0) translate(4 715)">
<title>ROSEE::ActionPrimitive</title>
<!-- Node1 -->
<g id="node1" class="node"><title>Node1</title>
<polygon fill="#bfbfbf" stroke="black" points="38.5185,-0.5 38.5185,-167.5 202.519,-167.5 202.519,-0.5 38.5185,-0.5"/>
<text text-anchor="middle" x="120.519" y="-155.5" font-family="Helvetica,sans-Serif" font-size="10.00">ROSEE::ActionPrimitive</text>
<polyline fill="none" stroke="black" points="38.5185,-148.5 202.519,-148.5 "/>
<text text-anchor="start" x="46.5185" y="-136.5" font-family="Helvetica,sans-Serif" font-size="10.00"># nFingersInvolved</text>
<text text-anchor="start" x="46.5185" y="-125.5" font-family="Helvetica,sans-Serif" font-size="10.00"># maxStoredActionStates</text>
<text text-anchor="start" x="46.5185" y="-114.5" font-family="Helvetica,sans-Serif" font-size="10.00"># primitiveType</text>
<polyline fill="none" stroke="black" points="38.5185,-107.5 202.519,-107.5 "/>
<text text-anchor="start" x="46.5185" y="-95.5" font-family="Helvetica,sans-Serif" font-size="10.00">+ ~ActionPrimitive()</text>
<text text-anchor="start" x="46.5185" y="-84.5" font-family="Helvetica,sans-Serif" font-size="10.00">+ getPrimitiveType()</text>
<text text-anchor="start" x="46.5185" y="-73.5" font-family="Helvetica,sans-Serif" font-size="10.00">+ getMaxStoredActionStates()</text>
<text text-anchor="start" x="46.5185" y="-62.5" font-family="Helvetica,sans-Serif" font-size="10.00">+ getnFingersInvolved()</text>
<text text-anchor="start" x="46.5185" y="-51.5" font-family="Helvetica,sans-Serif" font-size="10.00">+ getKeyElements()</text>
<text text-anchor="start" x="46.5185" y="-40.5" font-family="Helvetica,sans-Serif" font-size="10.00">+ setJointsInvolvedCount()</text>
<text text-anchor="start" x="46.5185" y="-29.5" font-family="Helvetica,sans-Serif" font-size="10.00">+ emitYaml()</text>
<text text-anchor="start" x="46.5185" y="-18.5" font-family="Helvetica,sans-Serif" font-size="10.00"># ActionPrimitive()</text>
<text text-anchor="start" x="46.5185" y="-7.5" font-family="Helvetica,sans-Serif" font-size="10.00"># ActionPrimitive()</text>
</g>
<!-- Node2 -->
<g id="node2" class="node"><title>Node2</title>
<g id="a_node2"><a xlink:href="classROSEE_1_1Action.html" target="_top" xlink:title="The pure virtual class representing an Action. ">
<polygon fill="none" stroke="black" points="48.5185,-205.5 48.5185,-383.5 192.519,-383.5 192.519,-205.5 48.5185,-205.5"/>
<text text-anchor="middle" x="120.519" y="-371.5" font-family="Helvetica,sans-Serif" font-size="10.00">ROSEE::Action</text>
<polyline fill="none" stroke="black" points="48.5185,-364.5 192.519,-364.5 "/>
<text text-anchor="start" x="56.5185" y="-352.5" font-family="Helvetica,sans-Serif" font-size="10.00"># type</text>
<polyline fill="none" stroke="black" points="48.5185,-345.5 192.519,-345.5 "/>
<text text-anchor="start" x="56.5185" y="-333.5" font-family="Helvetica,sans-Serif" font-size="10.00">+ ~Action()</text>
<text text-anchor="start" x="56.5185" y="-322.5" font-family="Helvetica,sans-Serif" font-size="10.00">+ getName()</text>
<text text-anchor="start" x="56.5185" y="-311.5" font-family="Helvetica,sans-Serif" font-size="10.00">+ getType()</text>
<text text-anchor="start" x="56.5185" y="-300.5" font-family="Helvetica,sans-Serif" font-size="10.00">+ getFingersInvolved()</text>
<text text-anchor="start" x="56.5185" y="-289.5" font-family="Helvetica,sans-Serif" font-size="10.00">+ getJointsInvolvedCount()</text>
<text text-anchor="start" x="56.5185" y="-278.5" font-family="Helvetica,sans-Serif" font-size="10.00">+ getJointPos()</text>
<text text-anchor="start" x="56.5185" y="-267.5" font-family="Helvetica,sans-Serif" font-size="10.00">+ getAllJointPos()</text>
<text text-anchor="start" x="56.5185" y="-256.5" font-family="Helvetica,sans-Serif" font-size="10.00">+ print()</text>
<text text-anchor="start" x="56.5185" y="-245.5" font-family="Helvetica,sans-Serif" font-size="10.00">+ emitYaml()</text>
<text text-anchor="start" x="56.5185" y="-234.5" font-family="Helvetica,sans-Serif" font-size="10.00">+ fillFromYaml()</text>
<text text-anchor="start" x="56.5185" y="-223.5" font-family="Helvetica,sans-Serif" font-size="10.00"># Action()</text>
<text text-anchor="start" x="56.5185" y="-212.5" font-family="Helvetica,sans-Serif" font-size="10.00"># Action()</text>
</a>
</g>
</g>
<!-- Node2&#45;&gt;Node1 -->
<g id="edge1" class="edge"><title>Node2&#45;&gt;Node1</title>
<path fill="none" stroke="midnightblue" d="M120.519,-195.113C120.519,-185.984 120.519,-176.794 120.519,-167.826"/>
<polygon fill="none" stroke="midnightblue" points="117.019,-195.379 120.519,-205.379 124.019,-195.379 117.019,-195.379"/>
</g>
<!-- Node3 -->
<g id="node3" class="node"><title>Node3</title>
<polygon fill="none" stroke="#bfbfbf" points="59.0185,-437 59.0185,-494 182.019,-494 182.019,-437 59.0185,-437"/>
<text text-anchor="middle" x="120.519" y="-482" font-family="Helvetica,sans-Serif" font-size="10.00">std::set&lt; std::string &gt;</text>
<polyline fill="none" stroke="#bfbfbf" points="59.0185,-475 182.019,-475 "/>
<text text-anchor="middle" x="120.519" y="-463" font-family="Helvetica,sans-Serif" font-size="10.00"> </text>
<polyline fill="none" stroke="#bfbfbf" points="59.0185,-456 182.019,-456 "/>
<text text-anchor="middle" x="120.519" y="-444" font-family="Helvetica,sans-Serif" font-size="10.00"> </text>
</g>
<!-- Node3&#45;&gt;Node2 -->
<g id="edge2" class="edge"><title>Node3&#45;&gt;Node2</title>
<path fill="none" stroke="#404040" d="M120.519,-436.971C120.519,-425.31 120.519,-410.94 120.519,-395.872"/>
<polygon fill="none" stroke="#404040" points="120.519,-395.676 116.519,-389.676 120.519,-383.676 124.519,-389.676 120.519,-395.676"/>
<text text-anchor="middle" x="162.019" y="-405" font-family="Helvetica,sans-Serif" font-size="10.00"> #fingersInvolved</text>
</g>
<!-- Node4 -->
<g id="node4" class="node"><title>Node4</title>
<g id="a_node4"><a xlink:title="STL class. ">
<polygon fill="none" stroke="#bfbfbf" points="88.0185,-547.5 88.0185,-604.5 153.019,-604.5 153.019,-547.5 88.0185,-547.5"/>
<text text-anchor="middle" x="120.519" y="-592.5" font-family="Helvetica,sans-Serif" font-size="10.00">std::string</text>
<polyline fill="none" stroke="#bfbfbf" points="88.0185,-585.5 153.019,-585.5 "/>
<text text-anchor="middle" x="120.519" y="-573.5" font-family="Helvetica,sans-Serif" font-size="10.00"> </text>
<polyline fill="none" stroke="#bfbfbf" points="88.0185,-566.5 153.019,-566.5 "/>
<text text-anchor="middle" x="120.519" y="-554.5" font-family="Helvetica,sans-Serif" font-size="10.00"> </text>
</a>
</g>
</g>
<!-- Node4&#45;&gt;Node2 -->
<g id="edge7" class="edge"><title>Node4&#45;&gt;Node2</title>
<path fill="none" stroke="#404040" d="M87.8677,-563.036C61.4157,-551.399 25.9387,-530.912 9.5185,-500 -4.86777,-472.917 -0.799919,-459.879 9.5185,-431 16.575,-411.251 27.8851,-392.308 40.645,-375.172"/>
<polygon fill="none" stroke="#404040" points="40.9491,-374.78 41.466,-367.587 48.3042,-365.298 47.7872,-372.491 40.9491,-374.78"/>
<text text-anchor="middle" x="29.5185" y="-463" font-family="Helvetica,sans-Serif" font-size="10.00"> #name</text>
</g>
<!-- Node4&#45;&gt;Node3 -->
<g id="edge3" class="edge"><title>Node4&#45;&gt;Node3</title>
<path fill="none" stroke="#404040" d="M120.519,-547.34C120.519,-534.842 120.519,-519.842 120.519,-506.176"/>
<polygon fill="none" stroke="#404040" points="120.519,-506.109 116.519,-500.109 120.519,-494.109 124.519,-500.109 120.519,-506.109"/>
<text text-anchor="middle" x="137.519" y="-521" font-family="Helvetica,sans-Serif" font-size="10.00"> +keys</text>
</g>
<!-- Node6 -->
<g id="node6" class="node"><title>Node6</title>
<polygon fill="none" stroke="#bfbfbf" points="200.519,-431.5 200.519,-499.5 322.519,-499.5 322.519,-431.5 200.519,-431.5"/>
<text text-anchor="start" x="208.519" y="-487.5" font-family="Helvetica,sans-Serif" font-size="10.00">std::map&lt; std::string,</text>
<text text-anchor="middle" x="261.519" y="-476.5" font-family="Helvetica,sans-Serif" font-size="10.00"> unsigned int &gt;</text>
<polyline fill="none" stroke="#bfbfbf" points="200.519,-469.5 322.519,-469.5 "/>
<text text-anchor="start" x="208.519" y="-457.5" font-family="Helvetica,sans-Serif" font-size="10.00">+ elements</text>
<polyline fill="none" stroke="#bfbfbf" points="200.519,-450.5 322.519,-450.5 "/>
<text text-anchor="middle" x="261.519" y="-438.5" font-family="Helvetica,sans-Serif" font-size="10.00"> </text>
</g>
<!-- Node4&#45;&gt;Node6 -->
<g id="edge6" class="edge"><title>Node4&#45;&gt;Node6</title>
<path fill="none" stroke="#404040" d="M153.221,-549.835C169.778,-537.094 190.285,-521.315 208.984,-506.925"/>
<polygon fill="none" stroke="#404040" points="209.057,-506.869 211.373,-500.04 218.568,-499.551 216.252,-506.38 209.057,-506.869"/>
<text text-anchor="middle" x="208.519" y="-521" font-family="Helvetica,sans-Serif" font-size="10.00"> +keys</text>
</g>
<!-- Node5 -->
<g id="node5" class="node"><title>Node5</title>
<g id="a_node5"><a xlink:title="STL class. ">
<polygon fill="none" stroke="#bfbfbf" points="69.0185,-642.5 69.0185,-710.5 172.019,-710.5 172.019,-642.5 69.0185,-642.5"/>
<text text-anchor="start" x="77.0185" y="-698.5" font-family="Helvetica,sans-Serif" font-size="10.00">std::basic_string&lt;</text>
<text text-anchor="middle" x="120.519" y="-687.5" font-family="Helvetica,sans-Serif" font-size="10.00"> char &gt;</text>
<polyline fill="none" stroke="#bfbfbf" points="69.0185,-680.5 172.019,-680.5 "/>
<text text-anchor="middle" x="120.519" y="-668.5" font-family="Helvetica,sans-Serif" font-size="10.00"> </text>
<polyline fill="none" stroke="#bfbfbf" points="69.0185,-661.5 172.019,-661.5 "/>
<text text-anchor="middle" x="120.519" y="-649.5" font-family="Helvetica,sans-Serif" font-size="10.00"> </text>
</a>
</g>
</g>
<!-- Node5&#45;&gt;Node4 -->
<g id="edge4" class="edge"><title>Node5&#45;&gt;Node4</title>
<path fill="none" stroke="midnightblue" d="M120.519,-632.375C120.519,-622.94 120.519,-613.201 120.519,-604.571"/>
<polygon fill="none" stroke="midnightblue" points="117.019,-632.427 120.519,-642.427 124.019,-632.427 117.019,-632.427"/>
</g>
<!-- Node6&#45;&gt;Node2 -->
<g id="edge5" class="edge"><title>Node6&#45;&gt;Node2</title>
<path fill="none" stroke="#404040" d="M233.661,-431.111C223.918,-419.432 212.433,-405.667 200.581,-391.462"/>
<polygon fill="none" stroke="#404040" points="200.442,-391.295 193.527,-389.25 192.755,-382.081 199.67,-384.125 200.442,-391.295"/>
<text text-anchor="middle" x="269.019" y="-405" font-family="Helvetica,sans-Serif" font-size="10.00"> #jointsInvolvedCount</text>
</g>
</g>
</svg>
