<?xml version="1.0" encoding="UTF-8" standalone="no"?>
<!DOCTYPE svg PUBLIC "-//W3C//DTD SVG 1.1//EN"
 "http://www.w3.org/Graphics/SVG/1.1/DTD/svg11.dtd">
<!-- Generated by graphviz version 2.38.0 (20140413.2041)
 -->
<!-- Title: ROSEE::ActionComposed Pages: 1 -->
<svg width="617pt" height="992pt"
 viewBox="0.00 0.00 617.00 992.00" xmlns="http://www.w3.org/2000/svg" xmlns:xlink="http://www.w3.org/1999/xlink">
<g id="graph0" class="graph" transform="scale(1 1) rotate(0) translate(4 988)">
<title>ROSEE::ActionComposed</title>
<!-- Node1 -->
<g id="node1" class="node"><title>Node1</title>
<polygon fill="#bfbfbf" stroke="black" points="320.5,-0.5 320.5,-200.5 465.5,-200.5 465.5,-0.5 320.5,-0.5"/>
<text text-anchor="middle" x="393" y="-188.5" font-family="Helvetica,sans-Serif" font-size="10.00">ROSEE::ActionComposed</text>
<polyline fill="none" stroke="black" points="320.5,-181.5 465.5,-181.5 "/>
<text text-anchor="start" x="328.5" y="-169.5" font-family="Helvetica,sans-Serif" font-size="10.00"># nInnerActions</text>
<text text-anchor="start" x="328.5" y="-158.5" font-family="Helvetica,sans-Serif" font-size="10.00"># independent</text>
<polyline fill="none" stroke="black" points="320.5,-151.5 465.5,-151.5 "/>
<text text-anchor="start" x="328.5" y="-139.5" font-family="Helvetica,sans-Serif" font-size="10.00">+ ActionComposed()</text>
<text text-anchor="start" x="328.5" y="-128.5" font-family="Helvetica,sans-Serif" font-size="10.00">+ ActionComposed()</text>
<text text-anchor="start" x="328.5" y="-117.5" font-family="Helvetica,sans-Serif" font-size="10.00">+ ActionComposed()</text>
<text text-anchor="start" x="328.5" y="-106.5" font-family="Helvetica,sans-Serif" font-size="10.00">+ ActionComposed()</text>
<text text-anchor="start" x="328.5" y="-95.5" font-family="Helvetica,sans-Serif" font-size="10.00">+ numberOfInnerActions()</text>
<text text-anchor="start" x="328.5" y="-84.5" font-family="Helvetica,sans-Serif" font-size="10.00">+ isIndependent()</text>
<text text-anchor="start" x="328.5" y="-73.5" font-family="Helvetica,sans-Serif" font-size="10.00">+ getInnerActionsNames()</text>
<text text-anchor="start" x="328.5" y="-62.5" font-family="Helvetica,sans-Serif" font-size="10.00">+ print()</text>
<text text-anchor="start" x="328.5" y="-51.5" font-family="Helvetica,sans-Serif" font-size="10.00">+ emitYaml()</text>
<text text-anchor="start" x="328.5" y="-40.5" font-family="Helvetica,sans-Serif" font-size="10.00">+ fillFromYaml()</text>
<text text-anchor="start" x="328.5" y="-29.5" font-family="Helvetica,sans-Serif" font-size="10.00">+ sumAction()</text>
<text text-anchor="start" x="328.5" y="-18.5" font-family="Helvetica,sans-Serif" font-size="10.00">+ empty()</text>
<text text-anchor="start" x="328.5" y="-7.5" font-family="Helvetica,sans-Serif" font-size="10.00"># checkIndependency()</text>
</g>
<!-- Node2 -->
<g id="node2" class="node"><title>Node2</title>
<g id="a_node2"><a xlink:href="classROSEE_1_1ActionGeneric.html" target="_top" xlink:title="Class to handle a generic, simple action. ">
<polygon fill="none" stroke="black" points="194,-238.5 194,-383.5 316,-383.5 316,-238.5 194,-238.5"/>
<text text-anchor="middle" x="255" y="-371.5" font-family="Helvetica,sans-Serif" font-size="10.00">ROSEE::ActionGeneric</text>
<polyline fill="none" stroke="black" points="194,-364.5 316,-364.5 "/>
<text text-anchor="middle" x="255" y="-352.5" font-family="Helvetica,sans-Serif" font-size="10.00"> </text>
<polyline fill="none" stroke="black" points="194,-345.5 316,-345.5 "/>
<text text-anchor="start" x="202" y="-333.5" font-family="Helvetica,sans-Serif" font-size="10.00">+ ActionGeneric()</text>
<text text-anchor="start" x="202" y="-322.5" font-family="Helvetica,sans-Serif" font-size="10.00">+ ActionGeneric()</text>
<text text-anchor="start" x="202" y="-311.5" font-family="Helvetica,sans-Serif" font-size="10.00">+ ActionGeneric()</text>
<text text-anchor="start" x="202" y="-300.5" font-family="Helvetica,sans-Serif" font-size="10.00">+ ActionGeneric()</text>
<text text-anchor="start" x="202" y="-289.5" font-family="Helvetica,sans-Serif" font-size="10.00">+ getJointPos()</text>
<text text-anchor="start" x="202" y="-278.5" font-family="Helvetica,sans-Serif" font-size="10.00">+ getAllJointPos()</text>
<text text-anchor="start" x="202" y="-267.5" font-family="Helvetica,sans-Serif" font-size="10.00">+ emitYaml()</text>
<text text-anchor="start" x="202" y="-256.5" font-family="Helvetica,sans-Serif" font-size="10.00">+ fillFromYaml()</text>
<text text-anchor="start" x="202" y="-245.5" font-family="Helvetica,sans-Serif" font-size="10.00"># ActionGeneric()</text>
</a>
</g>
</g>
<!-- Node2&#45;&gt;Node1 -->
<g id="edge1" class="edge"><title>Node2&#45;&gt;Node1</title>
<path fill="none" stroke="midnightblue" d="M308.203,-229.617C314.485,-220.125 320.952,-210.355 327.38,-200.643"/>
<polygon fill="none" stroke="midnightblue" points="305.092,-227.975 302.492,-238.246 310.93,-231.839 305.092,-227.975"/>
</g>
<!-- Node3 -->
<g id="node3" class="node"><title>Node3</title>
<g id="a_node3"><a xlink:href="classROSEE_1_1Action.html" target="_top" xlink:title="The pure virtual class representing an Action. ">
<polygon fill="none" stroke="black" points="183,-431.5 183,-609.5 327,-609.5 327,-431.5 183,-431.5"/>
<text text-anchor="middle" x="255" y="-597.5" font-family="Helvetica,sans-Serif" font-size="10.00">ROSEE::Action</text>
<polyline fill="none" stroke="black" points="183,-590.5 327,-590.5 "/>
<text text-anchor="start" x="191" y="-578.5" font-family="Helvetica,sans-Serif" font-size="10.00"># type</text>
<polyline fill="none" stroke="black" points="183,-571.5 327,-571.5 "/>
<text text-anchor="start" x="191" y="-559.5" font-family="Helvetica,sans-Serif" font-size="10.00">+ ~Action()</text>
<text text-anchor="start" x="191" y="-548.5" font-family="Helvetica,sans-Serif" font-size="10.00">+ getName()</text>
<text text-anchor="start" x="191" y="-537.5" font-family="Helvetica,sans-Serif" font-size="10.00">+ getType()</text>
<text text-anchor="start" x="191" y="-526.5" font-family="Helvetica,sans-Serif" font-size="10.00">+ getFingersInvolved()</text>
<text text-anchor="start" x="191" y="-515.5" font-family="Helvetica,sans-Serif" font-size="10.00">+ getJointsInvolvedCount()</text>
<text text-anchor="start" x="191" y="-504.5" font-family="Helvetica,sans-Serif" font-size="10.00">+ getJointPos()</text>
<text text-anchor="start" x="191" y="-493.5" font-family="Helvetica,sans-Serif" font-size="10.00">+ getAllJointPos()</text>
<text text-anchor="start" x="191" y="-482.5" font-family="Helvetica,sans-Serif" font-size="10.00">+ print()</text>
<text text-anchor="start" x="191" y="-471.5" font-family="Helvetica,sans-Serif" font-size="10.00">+ emitYaml()</text>
<text text-anchor="start" x="191" y="-460.5" font-family="Helvetica,sans-Serif" font-size="10.00">+ fillFromYaml()</text>
<text text-anchor="start" x="191" y="-449.5" font-family="Helvetica,sans-Serif" font-size="10.00"># Action()</text>
<text text-anchor="start" x="191" y="-438.5" font-family="Helvetica,sans-Serif" font-size="10.00"># Action()</text>
</a>
</g>
</g>
<!-- Node3&#45;&gt;Node2 -->
<g id="edge2" class="edge"><title>Node3&#45;&gt;Node2</title>
<path fill="none" stroke="midnightblue" d="M255,-421.097C255,-408.453 255,-395.703 255,-383.6"/>
<polygon fill="none" stroke="midnightblue" points="251.5,-421.2 255,-431.2 258.5,-421.2 251.5,-421.2"/>
</g>
<!-- Node4 -->
<g id="node4" class="node"><title>Node4</title>
<polygon fill="none" stroke="#bfbfbf" points="248.5,-710 248.5,-767 371.5,-767 371.5,-710 248.5,-710"/>
<text text-anchor="middle" x="310" y="-755" font-family="Helvetica,sans-Serif" font-size="10.00">std::set&lt; std::string &gt;</text>
<polyline fill="none" stroke="#bfbfbf" points="248.5,-748 371.5,-748 "/>
<text text-anchor="middle" x="310" y="-736" font-family="Helvetica,sans-Serif" font-size="10.00"> </text>
<polyline fill="none" stroke="#bfbfbf" points="248.5,-729 371.5,-729 "/>
<text text-anchor="middle" x="310" y="-717" font-family="Helvetica,sans-Serif" font-size="10.00"> </text>
</g>
<!-- Node4&#45;&gt;Node3 -->
<g id="edge3" class="edge"><title>Node4&#45;&gt;Node3</title>
<path fill="none" stroke="#404040" d="M272.69,-709.767C265.915,-702.818 259.8,-694.801 256,-686 247.403,-666.089 243.819,-643.516 243.029,-621.613"/>
<polygon fill="none" stroke="#404040" points="243.028,-621.533 238.946,-615.588 242.864,-609.534 246.946,-615.479 243.028,-621.533"/>
<text text-anchor="middle" x="297.5" y="-654.5" font-family="Helvetica,sans-Serif" font-size="10.00"> #fingersInvolved</text>
</g>
<!-- Node5 -->
<g id="node5" class="node"><title>Node5</title>
<g id="a_node5"><a xlink:title="STL class. ">
<polygon fill="none" stroke="#bfbfbf" points="277.5,-820.5 277.5,-877.5 342.5,-877.5 342.5,-820.5 277.5,-820.5"/>
<text text-anchor="middle" x="310" y="-865.5" font-family="Helvetica,sans-Serif" font-size="10.00">std::string</text>
<polyline fill="none" stroke="#bfbfbf" points="277.5,-858.5 342.5,-858.5 "/>
<text text-anchor="middle" x="310" y="-846.5" font-family="Helvetica,sans-Serif" font-size="10.00"> </text>
<polyline fill="none" stroke="#bfbfbf" points="277.5,-839.5 342.5,-839.5 "/>
<text text-anchor="middle" x="310" y="-827.5" font-family="Helvetica,sans-Serif" font-size="10.00"> </text>
</a>
</g>
</g>
<!-- Node5&#45;&gt;Node3 -->
<g id="edge8" class="edge"><title>Node5&#45;&gt;Node3</title>
<path fill="none" stroke="#404040" d="M277.349,-836.036C250.897,-824.399 215.42,-803.912 199,-773 174.182,-726.278 184.247,-669.048 202.261,-620.991"/>
<polygon fill="none" stroke="#404040" points="202.341,-620.787 200.815,-613.74 206.733,-609.62 208.26,-616.668 202.341,-620.787"/>
<text text-anchor="middle" x="219" y="-736" font-family="Helvetica,sans-Serif" font-size="10.00"> #name</text>
</g>
<!-- Node5&#45;&gt;Node4 -->
<g id="edge4" class="edge"><title>Node5&#45;&gt;Node4</title>
<path fill="none" stroke="#404040" d="M310,-820.34C310,-807.842 310,-792.842 310,-779.176"/>
<polygon fill="none" stroke="#404040" points="310,-779.109 306,-773.109 310,-767.109 314,-773.109 310,-779.109"/>
<text text-anchor="middle" x="327" y="-794" font-family="Helvetica,sans-Serif" font-size="10.00"> +keys</text>
</g>
<!-- Node7 -->
<g id="node7" class="node"><title>Node7</title>
<polygon fill="none" stroke="#bfbfbf" points="390,-704.5 390,-772.5 512,-772.5 512,-704.5 390,-704.5"/>
<text text-anchor="start" x="398" y="-760.5" font-family="Helvetica,sans-Serif" font-size="10.00">std::map&lt; std::string,</text>
<text text-anchor="middle" x="451" y="-749.5" font-family="Helvetica,sans-Serif" font-size="10.00"> unsigned int &gt;</text>
<polyline fill="none" stroke="#bfbfbf" points="390,-742.5 512,-742.5 "/>
<text text-anchor="start" x="398" y="-730.5" font-family="Helvetica,sans-Serif" font-size="10.00">+ elements</text>
<polyline fill="none" stroke="#bfbfbf" points="390,-723.5 512,-723.5 "/>
<text text-anchor="middle" x="451" y="-711.5" font-family="Helvetica,sans-Serif" font-size="10.00"> </text>
</g>
<!-- Node5&#45;&gt;Node7 -->
<g id="edge7" class="edge"><title>Node5&#45;&gt;Node7</title>
<path fill="none" stroke="#404040" d="M342.703,-822.835C359.26,-810.094 379.766,-794.315 398.466,-779.925"/>
<polygon fill="none" stroke="#404040" points="398.539,-779.869 400.855,-773.04 408.049,-772.551 405.733,-779.38 398.539,-779.869"/>
<text text-anchor="middle" x="398" y="-794" font-family="Helvetica,sans-Serif" font-size="10.00"> +keys</text>
</g>
<!-- Node8 -->
<g id="node8" class="node"><title>Node8</title>
<polygon fill="none" stroke="#bfbfbf" points="16.5,-704.5 16.5,-772.5 153.5,-772.5 153.5,-704.5 16.5,-704.5"/>
<text text-anchor="start" x="24.5" y="-760.5" font-family="Helvetica,sans-Serif" font-size="10.00">std::map&lt; std::string,</text>
<text text-anchor="middle" x="85" y="-749.5" font-family="Helvetica,sans-Serif" font-size="10.00"> std::vector&lt; double &gt; &gt;</text>
<polyline fill="none" stroke="#bfbfbf" points="16.5,-742.5 153.5,-742.5 "/>
<text text-anchor="middle" x="85" y="-730.5" font-family="Helvetica,sans-Serif" font-size="10.00"> </text>
<polyline fill="none" stroke="#bfbfbf" points="16.5,-723.5 153.5,-723.5 "/>
<text text-anchor="middle" x="85" y="-711.5" font-family="Helvetica,sans-Serif" font-size="10.00"> </text>
</g>
<!-- Node5&#45;&gt;Node8 -->
<g id="edge10" class="edge"><title>Node5&#45;&gt;Node8</title>
<path fill="none" stroke="#404040" d="M277.216,-844.525C241.697,-839.56 184.427,-827.973 142,-802 133.088,-796.544 124.726,-789.293 117.298,-781.665"/>
<polygon fill="none" stroke="#404040" points="117.127,-781.479 110.126,-779.75 109.029,-772.623 116.03,-774.352 117.127,-781.479"/>
<text text-anchor="middle" x="159" y="-794" font-family="Helvetica,sans-Serif" font-size="10.00"> +keys</text>
</g>
<!-- Node10 -->
<g id="node10" class="node"><title>Node10</title>
<polygon fill="none" stroke="#bfbfbf" points="471,-628.5 471,-685.5 609,-685.5 609,-628.5 471,-628.5"/>
<text text-anchor="middle" x="540" y="-673.5" font-family="Helvetica,sans-Serif" font-size="10.00">std::vector&lt; std::string &gt;</text>
<polyline fill="none" stroke="#bfbfbf" points="471,-666.5 609,-666.5 "/>
<text text-anchor="middle" x="540" y="-654.5" font-family="Helvetica,sans-Serif" font-size="10.00"> </text>
<polyline fill="none" stroke="#bfbfbf" points="471,-647.5 609,-647.5 "/>
<text text-anchor="middle" x="540" y="-635.5" font-family="Helvetica,sans-Serif" font-size="10.00"> </text>
</g>
<!-- Node5&#45;&gt;Node10 -->
<g id="edge13" class="edge"><title>Node5&#45;&gt;Node10</title>
<path fill="none" stroke="#404040" d="M342.877,-846.288C390.029,-841.951 476.106,-826.68 521,-773 538.246,-752.379 542.71,-722.192 543.013,-697.92"/>
<polygon fill="none" stroke="#404040" points="543.012,-697.848 538.926,-691.906 542.838,-685.849 546.925,-691.79 543.012,-697.848"/>
<text text-anchor="middle" x="528.5" y="-794" font-family="Helvetica,sans-Serif" font-size="10.00"> +elements</text>
</g>
<!-- Node6 -->
<g id="node6" class="node"><title>Node6</title>
<g id="a_node6"><a xlink:title="STL class. ">
<polygon fill="none" stroke="#bfbfbf" points="258.5,-915.5 258.5,-983.5 361.5,-983.5 361.5,-915.5 258.5,-915.5"/>
<text text-anchor="start" x="266.5" y="-971.5" font-family="Helvetica,sans-Serif" font-size="10.00">std::basic_string&lt;</text>
<text text-anchor="middle" x="310" y="-960.5" font-family="Helvetica,sans-Serif" font-size="10.00"> char &gt;</text>
<polyline fill="none" stroke="#bfbfbf" points="258.5,-953.5 361.5,-953.5 "/>
<text text-anchor="middle" x="310" y="-941.5" font-family="Helvetica,sans-Serif" font-size="10.00"> </text>
<polyline fill="none" stroke="#bfbfbf" points="258.5,-934.5 361.5,-934.5 "/>
<text text-anchor="middle" x="310" y="-922.5" font-family="Helvetica,sans-Serif" font-size="10.00"> </text>
</a>
</g>
</g>
<!-- Node6&#45;&gt;Node5 -->
<g id="edge5" class="edge"><title>Node6&#45;&gt;Node5</title>
<path fill="none" stroke="midnightblue" d="M310,-905.375C310,-895.94 310,-886.201 310,-877.571"/>
<polygon fill="none" stroke="midnightblue" points="306.5,-905.427 310,-915.427 313.5,-905.427 306.5,-905.427"/>
</g>
<!-- Node7&#45;&gt;Node3 -->
<g id="edge6" class="edge"><title>Node7&#45;&gt;Node3</title>
<path fill="none" stroke="#404040" d="M389.875,-708.531C375.199,-700.589 362.241,-692.411 357,-686 339.918,-665.102 351.568,-651.886 339,-628 337.274,-624.719 335.442,-621.439 333.525,-618.173"/>
<polygon fill="none" stroke="#404040" points="333.428,-618.016 326.875,-615.006 327.133,-607.799 333.686,-610.809 333.428,-618.016"/>
<text text-anchor="middle" x="409.5" y="-654.5" font-family="Helvetica,sans-Serif" font-size="10.00"> #jointsInvolvedCount</text>
</g>
<!-- Node8&#45;&gt;Node2 -->
<g id="edge9" class="edge"><title>Node8&#45;&gt;Node2</title>
<path fill="none" stroke="#404040" d="M82.1952,-704.462C78.7014,-645.816 78.0717,-521.216 125,-431 139.086,-403.922 161.933,-379.877 184.576,-360.614"/>
<polygon fill="none" stroke="#404040" points="184.64,-360.561 186.725,-353.658 193.899,-352.929 191.814,-359.832 184.64,-360.561"/>
<text text-anchor="middle" x="149.5" y="-518" font-family="Helvetica,sans-Serif" font-size="10.00"> #jointPos</text>
</g>
<!-- Node9 -->
<g id="node9" class="node"><title>Node9</title>
<polygon fill="none" stroke="#bfbfbf" points="0,-820.5 0,-877.5 122,-877.5 122,-820.5 0,-820.5"/>
<text text-anchor="middle" x="61" y="-865.5" font-family="Helvetica,sans-Serif" font-size="10.00">std::vector&lt; double &gt;</text>
<polyline fill="none" stroke="#bfbfbf" points="0,-858.5 122,-858.5 "/>
<text text-anchor="start" x="8" y="-846.5" font-family="Helvetica,sans-Serif" font-size="10.00">+ elements</text>
<polyline fill="none" stroke="#bfbfbf" points="0,-839.5 122,-839.5 "/>
<text text-anchor="middle" x="61" y="-827.5" font-family="Helvetica,sans-Serif" font-size="10.00"> </text>
</g>
<!-- Node9&#45;&gt;Node8 -->
<g id="edge11" class="edge"><title>Node9&#45;&gt;Node8</title>
<path fill="none" stroke="#404040" d="M59.2668,-820.484C59.2549,-811.04 59.8948,-800.468 62,-791 62.5101,-788.706 63.1267,-786.389 63.8253,-784.075"/>
<polygon fill="none" stroke="#404040" points="63.8737,-783.938 62.112,-776.945 67.8891,-772.63 69.6508,-779.622 63.8737,-783.938"/>
<text text-anchor="middle" x="90.5" y="-794" font-family="Helvetica,sans-Serif" font-size="10.00"> +elements</text>
</g>
<!-- Node10&#45;&gt;Node1 -->
<g id="edge12" class="edge"><title>Node10&#45;&gt;Node1</title>
<path fill="none" stroke="#404040" d="M532.61,-628.122C512.702,-553.029 457.118,-343.362 422.389,-212.358"/>
<polygon fill="none" stroke="#404040" points="422.378,-212.316 416.974,-207.542 419.303,-200.717 424.707,-205.492 422.378,-212.316"/>
<text text-anchor="middle" x="529" y="-405" font-family="Helvetica,sans-Serif" font-size="10.00"> #innerActionsNames</text>
</g>
</g>
</svg>
