<?xml version="1.0" encoding="UTF-8" standalone="no"?>
<!DOCTYPE svg PUBLIC "-//W3C//DTD SVG 1.1//EN"
 "http://www.w3.org/Graphics/SVG/1.1/DTD/svg11.dtd">
<!-- Generated by graphviz version 2.38.0 (20140413.2041)
 -->
<!-- Title: ROSEE::MapActionHandler Pages: 1 -->
<svg width="742pt" height="720pt"
 viewBox="0.00 0.00 742.00 720.00" xmlns="http://www.w3.org/2000/svg" xmlns:xlink="http://www.w3.org/1999/xlink">
<g id="graph0" class="graph" transform="scale(1 1) rotate(0) translate(4 716)">
<title>ROSEE::MapActionHandler</title>
<!-- Node1 -->
<g id="node1" class="node"><title>Node1</title>
<polygon fill="#bfbfbf" stroke="black" points="248,-0.5 248,-178.5 391,-178.5 391,-0.5 248,-0.5"/>
<text text-anchor="middle" x="319.5" y="-166.5" font-family="Helvetica,sans-Serif" font-size="10.00">ROSEE::MapActionHandler</text>
<polyline fill="none" stroke="black" points="248,-159.5 391,-159.5 "/>
<text text-anchor="middle" x="319.5" y="-147.5" font-family="Helvetica,sans-Serif" font-size="10.00"> </text>
<polyline fill="none" stroke="black" points="248,-140.5 391,-140.5 "/>
<text text-anchor="start" x="256" y="-128.5" font-family="Helvetica,sans-Serif" font-size="10.00">+ MapActionHandler()</text>
<text text-anchor="start" x="256" y="-117.5" font-family="Helvetica,sans-Serif" font-size="10.00">+ parseAllPrimitives()</text>
<text text-anchor="start" x="256" y="-106.5" font-family="Helvetica,sans-Serif" font-size="10.00">+ parseAllGenerics()</text>
<text text-anchor="start" x="256" y="-95.5" font-family="Helvetica,sans-Serif" font-size="10.00">+ parseAllTimeds()</text>
<text text-anchor="start" x="256" y="-84.5" font-family="Helvetica,sans-Serif" font-size="10.00">+ parseAllActions()</text>
<text text-anchor="start" x="256" y="-73.5" font-family="Helvetica,sans-Serif" font-size="10.00">+ getPrimitiveMap()</text>
<text text-anchor="start" x="256" y="-62.5" font-family="Helvetica,sans-Serif" font-size="10.00">+ getPrimitiveMap()</text>
<text text-anchor="start" x="256" y="-51.5" font-family="Helvetica,sans-Serif" font-size="10.00">+ getAllPrimitiveMaps()</text>
<text text-anchor="start" x="256" y="-40.5" font-family="Helvetica,sans-Serif" font-size="10.00">+ getPrimitive()</text>
<text text-anchor="start" x="256" y="-29.5" font-family="Helvetica,sans-Serif" font-size="10.00">+ getPrimitive()</text>
<text text-anchor="start" x="256" y="-18.5" font-family="Helvetica,sans-Serif" font-size="10.00">and 16 more...</text>
<text text-anchor="start" x="256" y="-7.5" font-family="Helvetica,sans-Serif" font-size="10.00">&#45; findPinchPairsMap()</text>
</g>
<!-- Node2 -->
<g id="node2" class="node"><title>Node2</title>
<polygon fill="none" stroke="#bfbfbf" points="244.5,-324.5 244.5,-403.5 394.5,-403.5 394.5,-324.5 244.5,-324.5"/>
<text text-anchor="start" x="252.5" y="-391.5" font-family="Helvetica,sans-Serif" font-size="10.00">std::map&lt; std::string,</text>
<text text-anchor="start" x="252.5" y="-380.5" font-family="Helvetica,sans-Serif" font-size="10.00"> std::shared_ptr&lt; ROSEE</text>
<text text-anchor="middle" x="319.5" y="-369.5" font-family="Helvetica,sans-Serif" font-size="10.00">::ROSEE::ActionGeneric &gt; &gt;</text>
<polyline fill="none" stroke="#bfbfbf" points="244.5,-362.5 394.5,-362.5 "/>
<text text-anchor="start" x="252.5" y="-350.5" font-family="Helvetica,sans-Serif" font-size="10.00">+ elements</text>
<polyline fill="none" stroke="#bfbfbf" points="244.5,-343.5 394.5,-343.5 "/>
<text text-anchor="middle" x="319.5" y="-331.5" font-family="Helvetica,sans-Serif" font-size="10.00"> </text>
</g>
<!-- Node2&#45;&gt;Node1 -->
<g id="edge1" class="edge"><title>Node2&#45;&gt;Node1</title>
<path fill="none" stroke="#404040" d="M319.5,-324.247C319.5,-289.581 319.5,-237.234 319.5,-190.859"/>
<polygon fill="none" stroke="#404040" points="319.5,-190.587 315.5,-184.587 319.5,-178.587 323.5,-184.587 319.5,-190.587"/>
<text text-anchor="middle" x="343.5" y="-269" font-family="Helvetica,sans-Serif" font-size="10.00"> &#45;generics</text>
</g>
<!-- Node3 -->
<g id="node3" class="node"><title>Node3</title>
<g id="a_node3"><a xlink:title="STL class. ">
<polygon fill="none" stroke="#bfbfbf" points="382,-538.5 382,-595.5 447,-595.5 447,-538.5 382,-538.5"/>
<text text-anchor="middle" x="414.5" y="-583.5" font-family="Helvetica,sans-Serif" font-size="10.00">std::string</text>
<polyline fill="none" stroke="#bfbfbf" points="382,-576.5 447,-576.5 "/>
<text text-anchor="middle" x="414.5" y="-564.5" font-family="Helvetica,sans-Serif" font-size="10.00"> </text>
<polyline fill="none" stroke="#bfbfbf" points="382,-557.5 447,-557.5 "/>
<text text-anchor="middle" x="414.5" y="-545.5" font-family="Helvetica,sans-Serif" font-size="10.00"> </text>
</a>
</g>
</g>
<!-- Node3&#45;&gt;Node1 -->
<g id="edge10" class="edge"><title>Node3&#45;&gt;Node1</title>
<path fill="none" stroke="#404040" d="M381.647,-555.288C326.92,-535.446 218.737,-487.232 174.5,-404 133.257,-326.402 186.746,-234.916 240.025,-170.869"/>
<polygon fill="none" stroke="#404040" points="240.107,-170.772 240.941,-163.609 247.873,-161.623 247.04,-168.786 240.107,-170.772"/>
<text text-anchor="middle" x="205" y="-361.5" font-family="Helvetica,sans-Serif" font-size="10.00"> &#45;handName</text>
</g>
<!-- Node3&#45;&gt;Node2 -->
<g id="edge2" class="edge"><title>Node3&#45;&gt;Node2</title>
<path fill="none" stroke="#404040" d="M399.8,-538.387C396.672,-532.356 393.431,-525.987 390.5,-520 373.48,-485.23 355.319,-445.53 341.625,-415.013"/>
<polygon fill="none" stroke="#404040" points="341.507,-414.75 335.406,-410.906 336.607,-403.796 342.708,-407.64 341.507,-414.75"/>
<text text-anchor="middle" x="407.5" y="-512" font-family="Helvetica,sans-Serif" font-size="10.00"> +keys</text>
</g>
<!-- Node5 -->
<g id="node5" class="node"><title>Node5</title>
<polygon fill="none" stroke="#bfbfbf" points="400,-324.5 400,-403.5 543,-403.5 543,-324.5 400,-324.5"/>
<text text-anchor="start" x="408" y="-391.5" font-family="Helvetica,sans-Serif" font-size="10.00">std::map&lt; std::string,</text>
<text text-anchor="start" x="408" y="-380.5" font-family="Helvetica,sans-Serif" font-size="10.00"> std::shared_ptr&lt; ROSEE</text>
<text text-anchor="middle" x="471.5" y="-369.5" font-family="Helvetica,sans-Serif" font-size="10.00">::ROSEE::ActionTimed &gt; &gt;</text>
<polyline fill="none" stroke="#bfbfbf" points="400,-362.5 543,-362.5 "/>
<text text-anchor="start" x="408" y="-350.5" font-family="Helvetica,sans-Serif" font-size="10.00">+ elements</text>
<polyline fill="none" stroke="#bfbfbf" points="400,-343.5 543,-343.5 "/>
<text text-anchor="middle" x="471.5" y="-331.5" font-family="Helvetica,sans-Serif" font-size="10.00"> </text>
</g>
<!-- Node3&#45;&gt;Node5 -->
<g id="edge5" class="edge"><title>Node3&#45;&gt;Node5</title>
<path fill="none" stroke="#404040" d="M422.306,-538.473C431.286,-506.806 446.214,-454.167 457.275,-415.163"/>
<polygon fill="none" stroke="#404040" points="457.298,-415.079 455.087,-408.216 460.572,-403.535 462.784,-410.398 457.298,-415.079"/>
<text text-anchor="middle" x="447.5" y="-512" font-family="Helvetica,sans-Serif" font-size="10.00"> +keys</text>
</g>
<!-- Node6 -->
<g id="node6" class="node"><title>Node6</title>
<polygon fill="none" stroke="#bfbfbf" points="490,-237.5 490,-305.5 627,-305.5 627,-237.5 490,-237.5"/>
<text text-anchor="start" x="498" y="-293.5" font-family="Helvetica,sans-Serif" font-size="10.00">std::map&lt; std::string,</text>
<text text-anchor="middle" x="558.5" y="-282.5" font-family="Helvetica,sans-Serif" font-size="10.00"> std::set&lt; std::string &gt; &gt;</text>
<polyline fill="none" stroke="#bfbfbf" points="490,-275.5 627,-275.5 "/>
<text text-anchor="middle" x="558.5" y="-263.5" font-family="Helvetica,sans-Serif" font-size="10.00"> </text>
<polyline fill="none" stroke="#bfbfbf" points="490,-256.5 627,-256.5 "/>
<text text-anchor="middle" x="558.5" y="-244.5" font-family="Helvetica,sans-Serif" font-size="10.00"> </text>
</g>
<!-- Node3&#45;&gt;Node6 -->
<g id="edge9" class="edge"><title>Node3&#45;&gt;Node6</title>
<path fill="none" stroke="#404040" d="M447.019,-540.904C454.46,-534.472 462.066,-527.298 468.5,-520 509.262,-473.769 523.769,-462.044 544.5,-404 554.355,-376.408 557.863,-343.646 558.904,-317.727"/>
<polygon fill="none" stroke="#404040" points="558.907,-317.6 555.072,-311.494 559.234,-305.605 563.069,-311.711 558.907,-317.6"/>
<text text-anchor="middle" x="554.5" y="-454" font-family="Helvetica,sans-Serif" font-size="10.00"> +keys</text>
</g>
<!-- Node7 -->
<g id="node7" class="node"><title>Node7</title>
<polygon fill="none" stroke="#bfbfbf" points="611,-428 611,-485 734,-485 734,-428 611,-428"/>
<text text-anchor="middle" x="672.5" y="-473" font-family="Helvetica,sans-Serif" font-size="10.00">std::set&lt; std::string &gt;</text>
<polyline fill="none" stroke="#bfbfbf" points="611,-466 734,-466 "/>
<text text-anchor="middle" x="672.5" y="-454" font-family="Helvetica,sans-Serif" font-size="10.00"> </text>
<polyline fill="none" stroke="#bfbfbf" points="611,-447 734,-447 "/>
<text text-anchor="middle" x="672.5" y="-435" font-family="Helvetica,sans-Serif" font-size="10.00"> </text>
</g>
<!-- Node3&#45;&gt;Node7 -->
<g id="edge8" class="edge"><title>Node3&#45;&gt;Node7</title>
<path fill="none" stroke="#404040" d="M447.198,-559.256C479.811,-551.895 530.91,-538.621 572.5,-520 589.974,-512.177 608.026,-501.729 623.901,-491.618"/>
<polygon fill="none" stroke="#404040" points="623.933,-491.597 626.781,-484.973 633.992,-485.053 631.144,-491.678 623.933,-491.597"/>
<text text-anchor="middle" x="610.5" y="-512" font-family="Helvetica,sans-Serif" font-size="10.00"> +keys</text>
</g>
<!-- Node8 -->
<g id="node8" class="node"><title>Node8</title>
<polygon fill="none" stroke="#bfbfbf" points="28.5,-422.5 28.5,-490.5 150.5,-490.5 150.5,-422.5 28.5,-422.5"/>
<text text-anchor="start" x="36.5" y="-478.5" font-family="Helvetica,sans-Serif" font-size="10.00">std::map&lt; std::string,</text>
<text text-anchor="middle" x="89.5" y="-467.5" font-family="Helvetica,sans-Serif" font-size="10.00"> ActionPrimitiveMap &gt;</text>
<polyline fill="none" stroke="#bfbfbf" points="28.5,-460.5 150.5,-460.5 "/>
<text text-anchor="middle" x="89.5" y="-448.5" font-family="Helvetica,sans-Serif" font-size="10.00"> </text>
<polyline fill="none" stroke="#bfbfbf" points="28.5,-441.5 150.5,-441.5 "/>
<text text-anchor="middle" x="89.5" y="-429.5" font-family="Helvetica,sans-Serif" font-size="10.00"> </text>
</g>
<!-- Node3&#45;&gt;Node8 -->
<g id="edge15" class="edge"><title>Node3&#45;&gt;Node8</title>
<path fill="none" stroke="#404040" d="M381.779,-563.993C316.226,-559.45 171.567,-546.637 130.5,-520 122.94,-515.097 116.465,-508.255 111.042,-500.887"/>
<polygon fill="none" stroke="#404040" points="110.898,-500.668 104.257,-497.858 104.297,-490.647 110.938,-493.457 110.898,-500.668"/>
<text text-anchor="middle" x="147.5" y="-512" font-family="Helvetica,sans-Serif" font-size="10.00"> +keys</text>
</g>
<!-- Node4 -->
<g id="node4" class="node"><title>Node4</title>
<g id="a_node4"><a xlink:title="STL class. ">
<polygon fill="none" stroke="#bfbfbf" points="363,-643.5 363,-711.5 466,-711.5 466,-643.5 363,-643.5"/>
<text text-anchor="start" x="371" y="-699.5" font-family="Helvetica,sans-Serif" font-size="10.00">std::basic_string&lt;</text>
<text text-anchor="middle" x="414.5" y="-688.5" font-family="Helvetica,sans-Serif" font-size="10.00"> char &gt;</text>
<polyline fill="none" stroke="#bfbfbf" points="363,-681.5 466,-681.5 "/>
<text text-anchor="middle" x="414.5" y="-669.5" font-family="Helvetica,sans-Serif" font-size="10.00"> </text>
<polyline fill="none" stroke="#bfbfbf" points="363,-662.5 466,-662.5 "/>
<text text-anchor="middle" x="414.5" y="-650.5" font-family="Helvetica,sans-Serif" font-size="10.00"> </text>
</a>
</g>
</g>
<!-- Node4&#45;&gt;Node3 -->
<g id="edge3" class="edge"><title>Node4&#45;&gt;Node3</title>
<path fill="none" stroke="midnightblue" d="M414.5,-633.064C414.5,-620.511 414.5,-607.152 414.5,-595.827"/>
<polygon fill="none" stroke="midnightblue" points="411,-633.357 414.5,-643.357 418,-633.357 411,-633.357"/>
</g>
<!-- Node5&#45;&gt;Node1 -->
<g id="edge4" class="edge"><title>Node5&#45;&gt;Node1</title>
<path fill="none" stroke="#404040" d="M449.884,-324.247C430.3,-289.139 400.601,-235.895 374.491,-189.086"/>
<polygon fill="none" stroke="#404040" points="374.481,-189.067 368.064,-185.776 368.635,-178.587 375.051,-181.878 374.481,-189.067"/>
<text text-anchor="middle" x="459.5" y="-269" font-family="Helvetica,sans-Serif" font-size="10.00"> &#45;timeds</text>
</g>
<!-- Node6&#45;&gt;Node1 -->
<g id="edge6" class="edge"><title>Node6&#45;&gt;Node1</title>
<path fill="none" stroke="#404040" d="M514.664,-237.485C482.995,-213.634 439.283,-180.713 401.254,-152.072"/>
<polygon fill="none" stroke="#404040" points="400.793,-151.725 393.594,-151.311 391.208,-144.506 398.407,-144.92 400.793,-151.725"/>
<text text-anchor="middle" x="541" y="-211" font-family="Helvetica,sans-Serif" font-size="10.00"> &#45;pinchLoosePairsMap</text>
<text text-anchor="middle" x="541" y="-200" font-family="Helvetica,sans-Serif" font-size="10.00">&#45;pinchTightPairsMap</text>
</g>
<!-- Node7&#45;&gt;Node6 -->
<g id="edge7" class="edge"><title>Node7&#45;&gt;Node6</title>
<path fill="none" stroke="#404040" d="M655.186,-427.706C636.671,-397.985 607.066,-350.461 585.488,-315.823"/>
<polygon fill="none" stroke="#404040" points="585.415,-315.706 578.848,-312.728 579.07,-305.521 585.638,-308.498 585.415,-315.706"/>
<text text-anchor="middle" x="667" y="-361.5" font-family="Helvetica,sans-Serif" font-size="10.00"> +elements</text>
</g>
<!-- Node8&#45;&gt;Node1 -->
<g id="edge11" class="edge"><title>Node8&#45;&gt;Node1</title>
<path fill="none" stroke="#404040" d="M84.741,-422.312C79.9586,-377.23 77.3985,-295.553 110.5,-237 138.663,-187.183 191.6,-150.345 237.149,-126.07"/>
<polygon fill="none" stroke="#404040" points="237.291,-125.996 240.777,-119.683 247.945,-120.473 244.459,-126.786 237.291,-125.996"/>
<text text-anchor="middle" x="137.5" y="-269" font-family="Helvetica,sans-Serif" font-size="10.00"> &#45;primitives</text>
</g>
<!-- Node9 -->
<g id="node9" class="node"><title>Node9</title>
<g id="a_node9"><a xlink:title="STL class. ">
<polygon fill="none" stroke="#bfbfbf" points="0,-538.5 0,-595.5 99,-595.5 99,-538.5 0,-538.5"/>
<text text-anchor="middle" x="49.5" y="-583.5" font-family="Helvetica,sans-Serif" font-size="10.00">std::map&lt; K, T &gt;</text>
<polyline fill="none" stroke="#bfbfbf" points="0,-576.5 99,-576.5 "/>
<text text-anchor="middle" x="49.5" y="-564.5" font-family="Helvetica,sans-Serif" font-size="10.00"> </text>
<polyline fill="none" stroke="#bfbfbf" points="0,-557.5 99,-557.5 "/>
<text text-anchor="middle" x="49.5" y="-545.5" font-family="Helvetica,sans-Serif" font-size="10.00"> </text>
</a>
</g>
</g>
<!-- Node9&#45;&gt;Node8 -->
<g id="edge12" class="edge"><title>Node9&#45;&gt;Node8</title>
<path fill="none" stroke="#404040" d="M46.5547,-538.429C46.4237,-528.883 47.2986,-518.261 50.5,-509 51.3932,-506.416 52.4699,-503.858 53.687,-501.343"/>
<polygon fill="none" stroke="#404040" points="53.8393,-501.076 53.3406,-493.882 59.7892,-490.655 60.288,-497.849 53.8393,-501.076"/>
<text text-anchor="middle" x="79" y="-512" font-family="Helvetica,sans-Serif" font-size="10.00"> +elements</text>
</g>
<!-- Node10 -->
<g id="node10" class="node"><title>Node10</title>
<polygon fill="none" stroke="#bfbfbf" points="7,-649 7,-706 36,-706 36,-649 7,-649"/>
<text text-anchor="middle" x="21.5" y="-694" font-family="Helvetica,sans-Serif" font-size="10.00">K</text>
<polyline fill="none" stroke="#bfbfbf" points="7,-687 36,-687 "/>
<text text-anchor="middle" x="21.5" y="-675" font-family="Helvetica,sans-Serif" font-size="10.00"> </text>
<polyline fill="none" stroke="#bfbfbf" points="7,-668 36,-668 "/>
<text text-anchor="middle" x="21.5" y="-656" font-family="Helvetica,sans-Serif" font-size="10.00"> </text>
</g>
<!-- Node10&#45;&gt;Node9 -->
<g id="edge13" class="edge"><title>Node10&#45;&gt;Node9</title>
<path fill="none" stroke="#404040" d="M18.9358,-648.991C18.6759,-637.933 19.3649,-625.18 22.5,-614 23.1836,-611.562 24.0293,-609.12 24.9945,-606.703"/>
<polygon fill="none" stroke="#404040" points="25.0808,-606.521 24.0383,-599.385 30.2239,-595.679 31.2663,-602.814 25.0808,-606.521"/>
<text text-anchor="middle" x="39.5" y="-617" font-family="Helvetica,sans-Serif" font-size="10.00"> +keys</text>
</g>
<!-- Node11 -->
<g id="node11" class="node"><title>Node11</title>
<polygon fill="none" stroke="#bfbfbf" points="64,-649 64,-706 93,-706 93,-649 64,-649"/>
<text text-anchor="middle" x="78.5" y="-694" font-family="Helvetica,sans-Serif" font-size="10.00">T</text>
<polyline fill="none" stroke="#bfbfbf" points="64,-687 93,-687 "/>
<text text-anchor="middle" x="78.5" y="-675" font-family="Helvetica,sans-Serif" font-size="10.00"> </text>
<polyline fill="none" stroke="#bfbfbf" points="64,-668 93,-668 "/>
<text text-anchor="middle" x="78.5" y="-656" font-family="Helvetica,sans-Serif" font-size="10.00"> </text>
</g>
<!-- Node11&#45;&gt;Node9 -->
<g id="edge14" class="edge"><title>Node11&#45;&gt;Node9</title>
<path fill="none" stroke="#404040" d="M71.107,-648.84C67.7324,-636.214 63.6755,-621.036 59.9929,-607.258"/>
<polygon fill="none" stroke="#404040" points="59.9781,-607.202 54.5644,-602.439 56.8795,-595.609 62.2931,-600.373 59.9781,-607.202"/>
<text text-anchor="middle" x="93" y="-617" font-family="Helvetica,sans-Serif" font-size="10.00"> +elements</text>
</g>
</g>
</svg>
