<?xml version="1.0" encoding="UTF-8" standalone="no"?>
<!DOCTYPE svg PUBLIC "-//W3C//DTD SVG 1.1//EN"
 "http://www.w3.org/Graphics/SVG/1.1/DTD/svg11.dtd">
<!-- Generated by graphviz version 2.38.0 (20140413.2041)
 -->
<!-- Title: ROSEE::Parser Pages: 1 -->
<svg width="660pt" height="809pt"
 viewBox="0.00 0.00 660.07 809.00" xmlns="http://www.w3.org/2000/svg" xmlns:xlink="http://www.w3.org/1999/xlink">
<g id="graph0" class="graph" transform="scale(1 1) rotate(0) translate(4 805)">
<title>ROSEE::Parser</title>
<!-- Node1 -->
<g id="node1" class="node"><title>Node1</title>
<polygon fill="#bfbfbf" stroke="black" points="192.571,-0.5 192.571,-299.5 327.571,-299.5 327.571,-0.5 192.571,-0.5"/>
<text text-anchor="middle" x="260.071" y="-287.5" font-family="Helvetica,sans-Serif" font-size="10.00">ROSEE::Parser</text>
<polyline fill="none" stroke="black" points="192.571,-280.5 327.571,-280.5 "/>
<text text-anchor="start" x="200.571" y="-268.5" font-family="Helvetica,sans-Serif" font-size="10.00">&#45; _nh</text>
<text text-anchor="start" x="200.571" y="-257.5" font-family="Helvetica,sans-Serif" font-size="10.00">&#45; _is_initialized</text>
<text text-anchor="start" x="200.571" y="-246.5" font-family="Helvetica,sans-Serif" font-size="10.00">&#45; _urdf_model</text>
<text text-anchor="start" x="200.571" y="-235.5" font-family="Helvetica,sans-Serif" font-size="10.00">&#45; _robot_tree</text>
<text text-anchor="start" x="200.571" y="-224.5" font-family="Helvetica,sans-Serif" font-size="10.00">&#45; _srdfdom</text>
<text text-anchor="start" x="200.571" y="-213.5" font-family="Helvetica,sans-Serif" font-size="10.00">&#45; _fingers_num</text>
<text text-anchor="start" x="200.571" y="-202.5" font-family="Helvetica,sans-Serif" font-size="10.00">&#45; _joints_num</text>
<polyline fill="none" stroke="black" points="192.571,-195.5 327.571,-195.5 "/>
<text text-anchor="start" x="200.571" y="-183.5" font-family="Helvetica,sans-Serif" font-size="10.00">+ Parser()</text>
<text text-anchor="start" x="200.571" y="-172.5" font-family="Helvetica,sans-Serif" font-size="10.00">+ ~Parser()</text>
<text text-anchor="start" x="200.571" y="-161.5" font-family="Helvetica,sans-Serif" font-size="10.00">+ init()</text>
<text text-anchor="start" x="200.571" y="-150.5" font-family="Helvetica,sans-Serif" font-size="10.00">+ init()</text>
<text text-anchor="start" x="200.571" y="-139.5" font-family="Helvetica,sans-Serif" font-size="10.00">+ getUrdfJointMap()</text>
<text text-anchor="start" x="200.571" y="-128.5" font-family="Helvetica,sans-Serif" font-size="10.00">+ getFingerJointMap()</text>
<text text-anchor="start" x="200.571" y="-117.5" font-family="Helvetica,sans-Serif" font-size="10.00">+ getFingerJointMap()</text>
<text text-anchor="start" x="200.571" y="-106.5" font-family="Helvetica,sans-Serif" font-size="10.00">+ getJointFingerMap()</text>
<text text-anchor="start" x="200.571" y="-95.5" font-family="Helvetica,sans-Serif" font-size="10.00">+ getJointFingerMap()</text>
<text text-anchor="start" x="200.571" y="-84.5" font-family="Helvetica,sans-Serif" font-size="10.00">+ getEndEffectorName()</text>
<text text-anchor="start" x="200.571" y="-73.5" font-family="Helvetica,sans-Serif" font-size="10.00">and 6 more...</text>
<text text-anchor="start" x="200.571" y="-62.5" font-family="Helvetica,sans-Serif" font-size="10.00">&#45; configure()</text>
<text text-anchor="start" x="200.571" y="-51.5" font-family="Helvetica,sans-Serif" font-size="10.00">&#45; parseURDF()</text>
<text text-anchor="start" x="200.571" y="-40.5" font-family="Helvetica,sans-Serif" font-size="10.00">&#45; parseSRDF()</text>
<text text-anchor="start" x="200.571" y="-29.5" font-family="Helvetica,sans-Serif" font-size="10.00">&#45; addNotInFingerJoints()</text>
<text text-anchor="start" x="200.571" y="-18.5" font-family="Helvetica,sans-Serif" font-size="10.00">&#45; removePassiveJoints()</text>
<text text-anchor="start" x="200.571" y="-7.5" font-family="Helvetica,sans-Serif" font-size="10.00">&#45; getJointsInFinger()</text>
</g>
<!-- Node2 -->
<g id="node2" class="node"><title>Node2</title>
<polygon fill="none" stroke="#bfbfbf" points="13.071,-347.5 13.071,-415.5 165.071,-415.5 165.071,-347.5 13.071,-347.5"/>
<text text-anchor="start" x="21.071" y="-403.5" font-family="Helvetica,sans-Serif" font-size="10.00">std::map&lt; std::string,</text>
<text text-anchor="middle" x="89.071" y="-392.5" font-family="Helvetica,sans-Serif" font-size="10.00"> std::vector&lt; std::string &gt; &gt;</text>
<polyline fill="none" stroke="#bfbfbf" points="13.071,-385.5 165.071,-385.5 "/>
<text text-anchor="middle" x="89.071" y="-373.5" font-family="Helvetica,sans-Serif" font-size="10.00"> </text>
<polyline fill="none" stroke="#bfbfbf" points="13.071,-366.5 165.071,-366.5 "/>
<text text-anchor="middle" x="89.071" y="-354.5" font-family="Helvetica,sans-Serif" font-size="10.00"> </text>
</g>
<!-- Node2&#45;&gt;Node1 -->
<g id="edge1" class="edge"><title>Node2&#45;&gt;Node1</title>
<path fill="none" stroke="#404040" d="M88.0975,-347.275C88.8949,-337.48 90.868,-326.985 95.071,-318 114.961,-275.481 150.35,-237.418 183.267,-208.409"/>
<polygon fill="none" stroke="#404040" points="183.384,-208.308 185.315,-201.36 192.471,-200.471 190.54,-207.418 183.384,-208.308"/>
<text text-anchor="middle" x="141.071" y="-321" font-family="Helvetica,sans-Serif" font-size="10.00"> &#45;_finger_joint_map</text>
</g>
<!-- Node3 -->
<g id="node3" class="node"><title>Node3</title>
<g id="a_node3"><a xlink:title="STL class. ">
<polygon fill="none" stroke="#bfbfbf" points="168.571,-637.5 168.571,-694.5 233.571,-694.5 233.571,-637.5 168.571,-637.5"/>
<text text-anchor="middle" x="201.071" y="-682.5" font-family="Helvetica,sans-Serif" font-size="10.00">std::string</text>
<polyline fill="none" stroke="#bfbfbf" points="168.571,-675.5 233.571,-675.5 "/>
<text text-anchor="middle" x="201.071" y="-663.5" font-family="Helvetica,sans-Serif" font-size="10.00"> </text>
<polyline fill="none" stroke="#bfbfbf" points="168.571,-656.5 233.571,-656.5 "/>
<text text-anchor="middle" x="201.071" y="-644.5" font-family="Helvetica,sans-Serif" font-size="10.00"> </text>
</a>
</g>
</g>
<!-- Node3&#45;&gt;Node1 -->
<g id="edge10" class="edge"><title>Node3&#45;&gt;Node1</title>
<path fill="none" stroke="#404040" d="M168.372,-654.775C147.022,-647.089 119.279,-635.113 98.071,-619 44.7859,-578.514 24.7456,-565.963 2.07105,-503 -2.07105,-491.498 2.21848,-350.645 4.07105,-347 41.57,-273.211 121.163,-219.271 181.709,-186.87"/>
<polygon fill="none" stroke="#404040" points="181.767,-186.839 185.224,-180.51 192.395,-181.267 188.939,-187.595 181.767,-186.839"/>
<text text-anchor="middle" x="35.071" y="-488" font-family="Helvetica,sans-Serif" font-size="10.00"> &#45;_urdf_string</text>
<text text-anchor="middle" x="35.071" y="-477" font-family="Helvetica,sans-Serif" font-size="10.00">&#45;_action_path</text>
<text text-anchor="middle" x="35.071" y="-466" font-family="Helvetica,sans-Serif" font-size="10.00">&#45;_srdf_string</text>
<text text-anchor="middle" x="35.071" y="-455" font-family="Helvetica,sans-Serif" font-size="10.00">&#45;_srdf_path</text>
<text text-anchor="middle" x="35.071" y="-444" font-family="Helvetica,sans-Serif" font-size="10.00">&#45;_urdf_path</text>
</g>
<!-- Node3&#45;&gt;Node2 -->
<g id="edge2" class="edge"><title>Node3&#45;&gt;Node2</title>
<path fill="none" stroke="#404040" d="M168.529,-650.362C141.703,-636.317 105.493,-612.313 89.071,-579 65.6461,-531.479 70.6427,-469.298 78.1979,-427.733"/>
<polygon fill="none" stroke="#404040" points="78.2292,-427.574 75.4598,-420.915 80.5406,-415.798 83.31,-422.456 78.2292,-427.574"/>
<text text-anchor="middle" x="106.071" y="-547.5" font-family="Helvetica,sans-Serif" font-size="10.00"> +keys</text>
</g>
<!-- Node5 -->
<g id="node5" class="node"><title>Node5</title>
<polygon fill="none" stroke="#bfbfbf" points="132.071,-521.5 132.071,-578.5 270.071,-578.5 270.071,-521.5 132.071,-521.5"/>
<text text-anchor="middle" x="201.071" y="-566.5" font-family="Helvetica,sans-Serif" font-size="10.00">std::vector&lt; std::string &gt;</text>
<polyline fill="none" stroke="#bfbfbf" points="132.071,-559.5 270.071,-559.5 "/>
<text text-anchor="middle" x="201.071" y="-547.5" font-family="Helvetica,sans-Serif" font-size="10.00"> </text>
<polyline fill="none" stroke="#bfbfbf" points="132.071,-540.5 270.071,-540.5 "/>
<text text-anchor="middle" x="201.071" y="-528.5" font-family="Helvetica,sans-Serif" font-size="10.00"> </text>
</g>
<!-- Node3&#45;&gt;Node5 -->
<g id="edge5" class="edge"><title>Node3&#45;&gt;Node5</title>
<path fill="none" stroke="#404040" d="M201.071,-637.404C201.071,-623.504 201.071,-606.392 201.071,-591.073"/>
<polygon fill="none" stroke="#404040" points="201.071,-590.737 197.071,-584.737 201.071,-578.737 205.071,-584.737 201.071,-590.737"/>
<text text-anchor="middle" x="229.571" y="-605.5" font-family="Helvetica,sans-Serif" font-size="10.00"> +elements</text>
</g>
<!-- Node6 -->
<g id="node6" class="node"><title>Node6</title>
<polygon fill="none" stroke="#bfbfbf" points="222.071,-434.5 222.071,-502.5 374.071,-502.5 374.071,-434.5 222.071,-434.5"/>
<text text-anchor="start" x="230.071" y="-490.5" font-family="Helvetica,sans-Serif" font-size="10.00">std::map&lt; std::string,</text>
<text text-anchor="middle" x="298.071" y="-479.5" font-family="Helvetica,sans-Serif" font-size="10.00"> urdf::JointConstSharedPtr &gt;</text>
<polyline fill="none" stroke="#bfbfbf" points="222.071,-472.5 374.071,-472.5 "/>
<text text-anchor="start" x="230.071" y="-460.5" font-family="Helvetica,sans-Serif" font-size="10.00">+ elements</text>
<polyline fill="none" stroke="#bfbfbf" points="222.071,-453.5 374.071,-453.5 "/>
<text text-anchor="middle" x="298.071" y="-441.5" font-family="Helvetica,sans-Serif" font-size="10.00"> </text>
</g>
<!-- Node3&#45;&gt;Node6 -->
<g id="edge7" class="edge"><title>Node3&#45;&gt;Node6</title>
<path fill="none" stroke="#404040" d="M233.583,-645.313C243.693,-638.011 254.231,-629.034 262.071,-619 285.289,-589.286 293.845,-546.848 296.851,-514.774"/>
<polygon fill="none" stroke="#404040" points="296.866,-514.569 293.332,-508.283 297.776,-502.603 301.309,-508.889 296.866,-514.569"/>
<text text-anchor="middle" x="292.071" y="-605.5" font-family="Helvetica,sans-Serif" font-size="10.00"> +keys</text>
</g>
<!-- Node7 -->
<g id="node7" class="node"><title>Node7</title>
<polygon fill="none" stroke="#bfbfbf" points="379.071,-434.5 379.071,-502.5 501.071,-502.5 501.071,-434.5 379.071,-434.5"/>
<text text-anchor="start" x="387.071" y="-490.5" font-family="Helvetica,sans-Serif" font-size="10.00">std::map&lt; std::string,</text>
<text text-anchor="middle" x="440.071" y="-479.5" font-family="Helvetica,sans-Serif" font-size="10.00"> std::string &gt;</text>
<polyline fill="none" stroke="#bfbfbf" points="379.071,-472.5 501.071,-472.5 "/>
<text text-anchor="middle" x="440.071" y="-460.5" font-family="Helvetica,sans-Serif" font-size="10.00"> </text>
<polyline fill="none" stroke="#bfbfbf" points="379.071,-453.5 501.071,-453.5 "/>
<text text-anchor="middle" x="440.071" y="-441.5" font-family="Helvetica,sans-Serif" font-size="10.00"> </text>
</g>
<!-- Node3&#45;&gt;Node7 -->
<g id="edge9" class="edge"><title>Node3&#45;&gt;Node7</title>
<path fill="none" stroke="#404040" d="M234.051,-656.036C257.549,-648.603 289.09,-636.417 313.071,-619 353.102,-589.926 388.599,-545.705 411.815,-512.891"/>
<polygon fill="none" stroke="#404040" points="412.067,-512.528 412.204,-505.319 418.912,-502.672 418.775,-509.882 412.067,-512.528"/>
<text text-anchor="middle" x="368.571" y="-611" font-family="Helvetica,sans-Serif" font-size="10.00"> +elements</text>
<text text-anchor="middle" x="368.571" y="-600" font-family="Helvetica,sans-Serif" font-size="10.00">+keys</text>
</g>
<!-- Node4 -->
<g id="node4" class="node"><title>Node4</title>
<g id="a_node4"><a xlink:title="STL class. ">
<polygon fill="none" stroke="#bfbfbf" points="149.571,-732.5 149.571,-800.5 252.571,-800.5 252.571,-732.5 149.571,-732.5"/>
<text text-anchor="start" x="157.571" y="-788.5" font-family="Helvetica,sans-Serif" font-size="10.00">std::basic_string&lt;</text>
<text text-anchor="middle" x="201.071" y="-777.5" font-family="Helvetica,sans-Serif" font-size="10.00"> char &gt;</text>
<polyline fill="none" stroke="#bfbfbf" points="149.571,-770.5 252.571,-770.5 "/>
<text text-anchor="middle" x="201.071" y="-758.5" font-family="Helvetica,sans-Serif" font-size="10.00"> </text>
<polyline fill="none" stroke="#bfbfbf" points="149.571,-751.5 252.571,-751.5 "/>
<text text-anchor="middle" x="201.071" y="-739.5" font-family="Helvetica,sans-Serif" font-size="10.00"> </text>
</a>
</g>
</g>
<!-- Node4&#45;&gt;Node3 -->
<g id="edge3" class="edge"><title>Node4&#45;&gt;Node3</title>
<path fill="none" stroke="midnightblue" d="M201.071,-722.375C201.071,-712.94 201.071,-703.201 201.071,-694.571"/>
<polygon fill="none" stroke="midnightblue" points="197.571,-722.427 201.071,-732.427 204.571,-722.427 197.571,-722.427"/>
</g>
<!-- Node5&#45;&gt;Node1 -->
<g id="edge12" class="edge"><title>Node5&#45;&gt;Node1</title>
<path fill="none" stroke="#404040" d="M198.538,-521.369C195.53,-482.292 191.977,-408.758 201.071,-347 202.789,-335.332 205.053,-323.396 207.693,-311.456"/>
<polygon fill="none" stroke="#404040" points="207.748,-311.217 205.203,-304.47 210.452,-299.525 212.997,-306.272 207.748,-311.217"/>
<text text-anchor="middle" x="242.571" y="-379" font-family="Helvetica,sans-Serif" font-size="10.00"> &#45;_fingers_names</text>
</g>
<!-- Node5&#45;&gt;Node2 -->
<g id="edge4" class="edge"><title>Node5&#45;&gt;Node2</title>
<path fill="none" stroke="#404040" d="M149.109,-521.347C142.04,-515.963 135.397,-509.835 130.071,-503 113.049,-481.154 102.867,-451.819 96.9077,-427.562"/>
<polygon fill="none" stroke="#404040" points="96.8862,-427.467 91.6599,-422.498 94.2361,-415.763 99.4624,-420.731 96.8862,-427.467"/>
<text text-anchor="middle" x="158.571" y="-466" font-family="Helvetica,sans-Serif" font-size="10.00"> +elements</text>
</g>
<!-- Node6&#45;&gt;Node1 -->
<g id="edge6" class="edge"><title>Node6&#45;&gt;Node1</title>
<path fill="none" stroke="#404040" d="M295.858,-434.46C294.105,-410.218 291.401,-376.516 288.071,-347 286.77,-335.472 285.326,-323.577 283.799,-311.612"/>
<polygon fill="none" stroke="#404040" points="283.789,-311.536 279.05,-306.1 282.246,-299.635 286.984,-305.071 283.789,-311.536"/>
<text text-anchor="middle" x="337.071" y="-379" font-family="Helvetica,sans-Serif" font-size="10.00"> &#45;_urdf_joint_map</text>
</g>
<!-- Node7&#45;&gt;Node1 -->
<g id="edge8" class="edge"><title>Node7&#45;&gt;Node1</title>
<path fill="none" stroke="#404040" d="M425.621,-434.242C414.67,-409.744 398.859,-375.822 383.071,-347 368.054,-319.585 350.802,-290.728 334.062,-263.839"/>
<polygon fill="none" stroke="#404040" points="334.043,-263.809 327.47,-260.845 327.677,-253.637 334.251,-256.601 334.043,-263.809"/>
<text text-anchor="middle" x="462.071" y="-379" font-family="Helvetica,sans-Serif" font-size="10.00"> &#45;_joint_finger_map</text>
</g>
<!-- Node8 -->
<g id="node8" class="node"><title>Node8</title>
<polygon fill="none" stroke="#bfbfbf" points="550.071,-353 550.071,-410 652.071,-410 652.071,-353 550.071,-353"/>
<text text-anchor="middle" x="601.071" y="-398" font-family="Helvetica,sans-Serif" font-size="10.00">std::vector&lt; int &gt;</text>
<polyline fill="none" stroke="#bfbfbf" points="550.071,-391 652.071,-391 "/>
<text text-anchor="start" x="558.071" y="-379" font-family="Helvetica,sans-Serif" font-size="10.00">+ elements</text>
<polyline fill="none" stroke="#bfbfbf" points="550.071,-372 652.071,-372 "/>
<text text-anchor="middle" x="601.071" y="-360" font-family="Helvetica,sans-Serif" font-size="10.00"> </text>
</g>
<!-- Node8&#45;&gt;Node1 -->
<g id="edge11" class="edge"><title>Node8&#45;&gt;Node1</title>
<path fill="none" stroke="#404040" d="M559.938,-352.817C505.067,-315.887 406.828,-249.77 337.782,-203.301"/>
<polygon fill="none" stroke="#404040" points="337.771,-203.294 330.56,-203.262 327.816,-196.594 335.027,-196.625 337.771,-203.294"/>
<text text-anchor="middle" x="563.571" y="-321" font-family="Helvetica,sans-Serif" font-size="10.00"> &#45;_fingers_group_id</text>
</g>
</g>
</svg>
