<?xml version="1.0" encoding="UTF-8" standalone="no"?>
<!DOCTYPE svg PUBLIC "-//W3C//DTD SVG 1.1//EN"
 "http://www.w3.org/Graphics/SVG/1.1/DTD/svg11.dtd">
<!-- Generated by graphviz version 2.38.0 (20140413.2041)
 -->
<!-- Title: ROSEE::ActionMultiplePinchTight Pages: 1 -->
<svg width="331pt" height="1063pt"
 viewBox="0.00 0.00 330.52 1063.00" xmlns="http://www.w3.org/2000/svg" xmlns:xlink="http://www.w3.org/1999/xlink">
<g id="graph0" class="graph" transform="scale(1 1) rotate(0) translate(4 1059)">
<title>ROSEE::ActionMultiplePinchTight</title>
<!-- Node1 -->
<g id="node1" class="node"><title>Node1</title>
<polygon fill="#bfbfbf" stroke="black" points="45.0185,-0.5 45.0185,-178.5 196.019,-178.5 196.019,-0.5 45.0185,-0.5"/>
<text text-anchor="start" x="53.0185" y="-166.5" font-family="Helvetica,sans-Serif" font-size="10.00">ROSEE::ActionMultiplePinch</text>
<text text-anchor="middle" x="120.519" y="-155.5" font-family="Helvetica,sans-Serif" font-size="10.00">Tight</text>
<polyline fill="none" stroke="black" points="45.0185,-148.5 196.019,-148.5 "/>
<text text-anchor="middle" x="120.519" y="-136.5" font-family="Helvetica,sans-Serif" font-size="10.00"> </text>
<polyline fill="none" stroke="black" points="45.0185,-129.5 196.019,-129.5 "/>
<text text-anchor="start" x="53.0185" y="-117.5" font-family="Helvetica,sans-Serif" font-size="10.00">+ ActionMultiplePinchTight()</text>
<text text-anchor="start" x="53.0185" y="-106.5" font-family="Helvetica,sans-Serif" font-size="10.00">+ ActionMultiplePinchTight()</text>
<text text-anchor="start" x="53.0185" y="-95.5" font-family="Helvetica,sans-Serif" font-size="10.00">+ ActionMultiplePinchTight()</text>
<text text-anchor="start" x="53.0185" y="-84.5" font-family="Helvetica,sans-Serif" font-size="10.00">+ getJointPos()</text>
<text text-anchor="start" x="53.0185" y="-73.5" font-family="Helvetica,sans-Serif" font-size="10.00">+ getJointPos()</text>
<text text-anchor="start" x="53.0185" y="-62.5" font-family="Helvetica,sans-Serif" font-size="10.00">+ getAllJointPos()</text>
<text text-anchor="start" x="53.0185" y="-51.5" font-family="Helvetica,sans-Serif" font-size="10.00">+ getActionStates()</text>
<text text-anchor="start" x="53.0185" y="-40.5" font-family="Helvetica,sans-Serif" font-size="10.00">+ insertActionState()</text>
<text text-anchor="start" x="53.0185" y="-29.5" font-family="Helvetica,sans-Serif" font-size="10.00">+ print()</text>
<text text-anchor="start" x="53.0185" y="-18.5" font-family="Helvetica,sans-Serif" font-size="10.00">+ emitYaml()</text>
<text text-anchor="start" x="53.0185" y="-7.5" font-family="Helvetica,sans-Serif" font-size="10.00">+ fillFromYaml()</text>
</g>
<!-- Node2 -->
<g id="node2" class="node"><title>Node2</title>
<g id="a_node2"><a xlink:href="classROSEE_1_1ActionPinchGeneric.html" target="_top" xlink:title="A base virtual class for the PinchTight and PinchLoose classes. ">
<polygon fill="none" stroke="black" points="47.0185,-216.5 47.0185,-306.5 194.019,-306.5 194.019,-216.5 47.0185,-216.5"/>
<text text-anchor="middle" x="120.519" y="-294.5" font-family="Helvetica,sans-Serif" font-size="10.00">ROSEE::ActionPinchGeneric</text>
<polyline fill="none" stroke="black" points="47.0185,-287.5 194.019,-287.5 "/>
<text text-anchor="middle" x="120.519" y="-275.5" font-family="Helvetica,sans-Serif" font-size="10.00"> </text>
<polyline fill="none" stroke="black" points="47.0185,-268.5 194.019,-268.5 "/>
<text text-anchor="start" x="55.0185" y="-256.5" font-family="Helvetica,sans-Serif" font-size="10.00">+ ActionPinchGeneric()</text>
<text text-anchor="start" x="55.0185" y="-245.5" font-family="Helvetica,sans-Serif" font-size="10.00">+ ActionPinchGeneric()</text>
<text text-anchor="start" x="55.0185" y="-234.5" font-family="Helvetica,sans-Serif" font-size="10.00">+ ActionPinchGeneric()</text>
<text text-anchor="start" x="55.0185" y="-223.5" font-family="Helvetica,sans-Serif" font-size="10.00">+ getKeyElements()</text>
</a>
</g>
</g>
<!-- Node2&#45;&gt;Node1 -->
<g id="edge1" class="edge"><title>Node2&#45;&gt;Node1</title>
<path fill="none" stroke="midnightblue" d="M120.519,-206.195C120.519,-197.384 120.519,-188.064 120.519,-178.692"/>
<polygon fill="none" stroke="midnightblue" points="117.019,-206.278 120.519,-216.278 124.019,-206.278 117.019,-206.278"/>
</g>
<!-- Node3 -->
<g id="node3" class="node"><title>Node3</title>
<g id="a_node3"><a xlink:href="classROSEE_1_1ActionPrimitive.html" target="_top" xlink:title="Virtual class, Base of all the primitive actions. ">
<polygon fill="none" stroke="black" points="38.5185,-344.5 38.5185,-511.5 202.519,-511.5 202.519,-344.5 38.5185,-344.5"/>
<text text-anchor="middle" x="120.519" y="-499.5" font-family="Helvetica,sans-Serif" font-size="10.00">ROSEE::ActionPrimitive</text>
<polyline fill="none" stroke="black" points="38.5185,-492.5 202.519,-492.5 "/>
<text text-anchor="start" x="46.5185" y="-480.5" font-family="Helvetica,sans-Serif" font-size="10.00"># nFingersInvolved</text>
<text text-anchor="start" x="46.5185" y="-469.5" font-family="Helvetica,sans-Serif" font-size="10.00"># maxStoredActionStates</text>
<text text-anchor="start" x="46.5185" y="-458.5" font-family="Helvetica,sans-Serif" font-size="10.00"># primitiveType</text>
<polyline fill="none" stroke="black" points="38.5185,-451.5 202.519,-451.5 "/>
<text text-anchor="start" x="46.5185" y="-439.5" font-family="Helvetica,sans-Serif" font-size="10.00">+ ~ActionPrimitive()</text>
<text text-anchor="start" x="46.5185" y="-428.5" font-family="Helvetica,sans-Serif" font-size="10.00">+ getPrimitiveType()</text>
<text text-anchor="start" x="46.5185" y="-417.5" font-family="Helvetica,sans-Serif" font-size="10.00">+ getMaxStoredActionStates()</text>
<text text-anchor="start" x="46.5185" y="-406.5" font-family="Helvetica,sans-Serif" font-size="10.00">+ getnFingersInvolved()</text>
<text text-anchor="start" x="46.5185" y="-395.5" font-family="Helvetica,sans-Serif" font-size="10.00">+ getKeyElements()</text>
<text text-anchor="start" x="46.5185" y="-384.5" font-family="Helvetica,sans-Serif" font-size="10.00">+ setJointsInvolvedCount()</text>
<text text-anchor="start" x="46.5185" y="-373.5" font-family="Helvetica,sans-Serif" font-size="10.00">+ emitYaml()</text>
<text text-anchor="start" x="46.5185" y="-362.5" font-family="Helvetica,sans-Serif" font-size="10.00"># ActionPrimitive()</text>
<text text-anchor="start" x="46.5185" y="-351.5" font-family="Helvetica,sans-Serif" font-size="10.00"># ActionPrimitive()</text>
</a>
</g>
</g>
<!-- Node3&#45;&gt;Node2 -->
<g id="edge2" class="edge"><title>Node3&#45;&gt;Node2</title>
<path fill="none" stroke="midnightblue" d="M120.519,-333.967C120.519,-324.522 120.519,-315.269 120.519,-306.72"/>
<polygon fill="none" stroke="midnightblue" points="117.019,-334.268 120.519,-344.268 124.019,-334.268 117.019,-334.268"/>
</g>
<!-- Node4 -->
<g id="node4" class="node"><title>Node4</title>
<g id="a_node4"><a xlink:href="classROSEE_1_1Action.html" target="_top" xlink:title="The pure virtual class representing an Action. ">
<polygon fill="none" stroke="black" points="48.5185,-549.5 48.5185,-727.5 192.519,-727.5 192.519,-549.5 48.5185,-549.5"/>
<text text-anchor="middle" x="120.519" y="-715.5" font-family="Helvetica,sans-Serif" font-size="10.00">ROSEE::Action</text>
<polyline fill="none" stroke="black" points="48.5185,-708.5 192.519,-708.5 "/>
<text text-anchor="start" x="56.5185" y="-696.5" font-family="Helvetica,sans-Serif" font-size="10.00"># type</text>
<polyline fill="none" stroke="black" points="48.5185,-689.5 192.519,-689.5 "/>
<text text-anchor="start" x="56.5185" y="-677.5" font-family="Helvetica,sans-Serif" font-size="10.00">+ ~Action()</text>
<text text-anchor="start" x="56.5185" y="-666.5" font-family="Helvetica,sans-Serif" font-size="10.00">+ getName()</text>
<text text-anchor="start" x="56.5185" y="-655.5" font-family="Helvetica,sans-Serif" font-size="10.00">+ getType()</text>
<text text-anchor="start" x="56.5185" y="-644.5" font-family="Helvetica,sans-Serif" font-size="10.00">+ getFingersInvolved()</text>
<text text-anchor="start" x="56.5185" y="-633.5" font-family="Helvetica,sans-Serif" font-size="10.00">+ getJointsInvolvedCount()</text>
<text text-anchor="start" x="56.5185" y="-622.5" font-family="Helvetica,sans-Serif" font-size="10.00">+ getJointPos()</text>
<text text-anchor="start" x="56.5185" y="-611.5" font-family="Helvetica,sans-Serif" font-size="10.00">+ getAllJointPos()</text>
<text text-anchor="start" x="56.5185" y="-600.5" font-family="Helvetica,sans-Serif" font-size="10.00">+ print()</text>
<text text-anchor="start" x="56.5185" y="-589.5" font-family="Helvetica,sans-Serif" font-size="10.00">+ emitYaml()</text>
<text text-anchor="start" x="56.5185" y="-578.5" font-family="Helvetica,sans-Serif" font-size="10.00">+ fillFromYaml()</text>
<text text-anchor="start" x="56.5185" y="-567.5" font-family="Helvetica,sans-Serif" font-size="10.00"># Action()</text>
<text text-anchor="start" x="56.5185" y="-556.5" font-family="Helvetica,sans-Serif" font-size="10.00"># Action()</text>
</a>
</g>
</g>
<!-- Node4&#45;&gt;Node3 -->
<g id="edge3" class="edge"><title>Node4&#45;&gt;Node3</title>
<path fill="none" stroke="midnightblue" d="M120.519,-539.113C120.519,-529.984 120.519,-520.794 120.519,-511.826"/>
<polygon fill="none" stroke="midnightblue" points="117.019,-539.379 120.519,-549.379 124.019,-539.379 117.019,-539.379"/>
</g>
<!-- Node5 -->
<g id="node5" class="node"><title>Node5</title>
<polygon fill="none" stroke="#bfbfbf" points="59.0185,-781 59.0185,-838 182.019,-838 182.019,-781 59.0185,-781"/>
<text text-anchor="middle" x="120.519" y="-826" font-family="Helvetica,sans-Serif" font-size="10.00">std::set&lt; std::string &gt;</text>
<polyline fill="none" stroke="#bfbfbf" points="59.0185,-819 182.019,-819 "/>
<text text-anchor="middle" x="120.519" y="-807" font-family="Helvetica,sans-Serif" font-size="10.00"> </text>
<polyline fill="none" stroke="#bfbfbf" points="59.0185,-800 182.019,-800 "/>
<text text-anchor="middle" x="120.519" y="-788" font-family="Helvetica,sans-Serif" font-size="10.00"> </text>
</g>
<!-- Node5&#45;&gt;Node4 -->
<g id="edge4" class="edge"><title>Node5&#45;&gt;Node4</title>
<path fill="none" stroke="#404040" d="M120.519,-780.971C120.519,-769.31 120.519,-754.94 120.519,-739.872"/>
<polygon fill="none" stroke="#404040" points="120.519,-739.676 116.519,-733.676 120.519,-727.676 124.519,-733.676 120.519,-739.676"/>
<text text-anchor="middle" x="162.019" y="-749" font-family="Helvetica,sans-Serif" font-size="10.00"> #fingersInvolved</text>
</g>
<!-- Node6 -->
<g id="node6" class="node"><title>Node6</title>
<g id="a_node6"><a xlink:title="STL class. ">
<polygon fill="none" stroke="#bfbfbf" points="88.0185,-891.5 88.0185,-948.5 153.019,-948.5 153.019,-891.5 88.0185,-891.5"/>
<text text-anchor="middle" x="120.519" y="-936.5" font-family="Helvetica,sans-Serif" font-size="10.00">std::string</text>
<polyline fill="none" stroke="#bfbfbf" points="88.0185,-929.5 153.019,-929.5 "/>
<text text-anchor="middle" x="120.519" y="-917.5" font-family="Helvetica,sans-Serif" font-size="10.00"> </text>
<polyline fill="none" stroke="#bfbfbf" points="88.0185,-910.5 153.019,-910.5 "/>
<text text-anchor="middle" x="120.519" y="-898.5" font-family="Helvetica,sans-Serif" font-size="10.00"> </text>
</a>
</g>
</g>
<!-- Node6&#45;&gt;Node4 -->
<g id="edge9" class="edge"><title>Node6&#45;&gt;Node4</title>
<path fill="none" stroke="#404040" d="M87.8677,-907.036C61.4157,-895.399 25.9387,-874.912 9.5185,-844 -4.86777,-816.917 -0.799919,-803.879 9.5185,-775 16.575,-755.251 27.8851,-736.308 40.645,-719.172"/>
<polygon fill="none" stroke="#404040" points="40.9491,-718.78 41.466,-711.587 48.3042,-709.298 47.7872,-716.491 40.9491,-718.78"/>
<text text-anchor="middle" x="29.5185" y="-807" font-family="Helvetica,sans-Serif" font-size="10.00"> #name</text>
</g>
<!-- Node6&#45;&gt;Node5 -->
<g id="edge5" class="edge"><title>Node6&#45;&gt;Node5</title>
<path fill="none" stroke="#404040" d="M120.519,-891.34C120.519,-878.842 120.519,-863.842 120.519,-850.176"/>
<polygon fill="none" stroke="#404040" points="120.519,-850.109 116.519,-844.109 120.519,-838.109 124.519,-844.109 120.519,-850.109"/>
<text text-anchor="middle" x="137.519" y="-865" font-family="Helvetica,sans-Serif" font-size="10.00"> +keys</text>
</g>
<!-- Node8 -->
<g id="node8" class="node"><title>Node8</title>
<polygon fill="none" stroke="#bfbfbf" points="200.519,-775.5 200.519,-843.5 322.519,-843.5 322.519,-775.5 200.519,-775.5"/>
<text text-anchor="start" x="208.519" y="-831.5" font-family="Helvetica,sans-Serif" font-size="10.00">std::map&lt; std::string,</text>
<text text-anchor="middle" x="261.519" y="-820.5" font-family="Helvetica,sans-Serif" font-size="10.00"> unsigned int &gt;</text>
<polyline fill="none" stroke="#bfbfbf" points="200.519,-813.5 322.519,-813.5 "/>
<text text-anchor="start" x="208.519" y="-801.5" font-family="Helvetica,sans-Serif" font-size="10.00">+ elements</text>
<polyline fill="none" stroke="#bfbfbf" points="200.519,-794.5 322.519,-794.5 "/>
<text text-anchor="middle" x="261.519" y="-782.5" font-family="Helvetica,sans-Serif" font-size="10.00"> </text>
</g>
<!-- Node6&#45;&gt;Node8 -->
<g id="edge8" class="edge"><title>Node6&#45;&gt;Node8</title>
<path fill="none" stroke="#404040" d="M153.221,-893.835C169.778,-881.094 190.285,-865.315 208.984,-850.925"/>
<polygon fill="none" stroke="#404040" points="209.057,-850.869 211.373,-844.04 218.568,-843.551 216.252,-850.38 209.057,-850.869"/>
<text text-anchor="middle" x="208.519" y="-865" font-family="Helvetica,sans-Serif" font-size="10.00"> +keys</text>
</g>
<!-- Node7 -->
<g id="node7" class="node"><title>Node7</title>
<g id="a_node7"><a xlink:title="STL class. ">
<polygon fill="none" stroke="#bfbfbf" points="69.0185,-986.5 69.0185,-1054.5 172.019,-1054.5 172.019,-986.5 69.0185,-986.5"/>
<text text-anchor="start" x="77.0185" y="-1042.5" font-family="Helvetica,sans-Serif" font-size="10.00">std::basic_string&lt;</text>
<text text-anchor="middle" x="120.519" y="-1031.5" font-family="Helvetica,sans-Serif" font-size="10.00"> char &gt;</text>
<polyline fill="none" stroke="#bfbfbf" points="69.0185,-1024.5 172.019,-1024.5 "/>
<text text-anchor="middle" x="120.519" y="-1012.5" font-family="Helvetica,sans-Serif" font-size="10.00"> </text>
<polyline fill="none" stroke="#bfbfbf" points="69.0185,-1005.5 172.019,-1005.5 "/>
<text text-anchor="middle" x="120.519" y="-993.5" font-family="Helvetica,sans-Serif" font-size="10.00"> </text>
</a>
</g>
</g>
<!-- Node7&#45;&gt;Node6 -->
<g id="edge6" class="edge"><title>Node7&#45;&gt;Node6</title>
<path fill="none" stroke="midnightblue" d="M120.519,-976.375C120.519,-966.94 120.519,-957.201 120.519,-948.571"/>
<polygon fill="none" stroke="midnightblue" points="117.019,-976.427 120.519,-986.427 124.019,-976.427 117.019,-976.427"/>
</g>
<!-- Node8&#45;&gt;Node4 -->
<g id="edge7" class="edge"><title>Node8&#45;&gt;Node4</title>
<path fill="none" stroke="#404040" d="M233.661,-775.111C223.918,-763.432 212.433,-749.667 200.581,-735.462"/>
<polygon fill="none" stroke="#404040" points="200.442,-735.295 193.527,-733.25 192.755,-726.081 199.67,-728.125 200.442,-735.295"/>
<text text-anchor="middle" x="269.019" y="-749" font-family="Helvetica,sans-Serif" font-size="10.00"> #jointsInvolvedCount</text>
</g>
</g>
</svg>
