<?xml version="1.0" encoding="UTF-8" standalone="no"?>
<!DOCTYPE svg PUBLIC "-//W3C//DTD SVG 1.1//EN"
 "http://www.w3.org/Graphics/SVG/1.1/DTD/svg11.dtd">
<!-- Generated by graphviz version 2.38.0 (20140413.2041)
 -->
<!-- Title: ROSEE::Parser Pages: 1 -->
<svg width="674pt" height="828pt"
 viewBox="0.00 0.00 674.32 828.00" xmlns="http://www.w3.org/2000/svg" xmlns:xlink="http://www.w3.org/1999/xlink">
<g id="graph0" class="graph" transform="scale(1 1) rotate(0) translate(4 824)">
<title>ROSEE::Parser</title>
<!-- Node1 -->
<g id="node1" class="node"><title>Node1</title>
<polygon fill="#bfbfbf" stroke="black" points="198.316,-0.5 198.316,-310.5 350.316,-310.5 350.316,-0.5 198.316,-0.5"/>
<text text-anchor="middle" x="274.316" y="-298.5" font-family="Helvetica,sans-Serif" font-size="10.00">ROSEE::Parser</text>
<polyline fill="none" stroke="black" points="198.316,-291.5 350.316,-291.5 "/>
<text text-anchor="start" x="206.316" y="-279.5" font-family="Helvetica,sans-Serif" font-size="10.00">&#45; _nh</text>
<text text-anchor="start" x="206.316" y="-268.5" font-family="Helvetica,sans-Serif" font-size="10.00">&#45; _is_initialized</text>
<text text-anchor="start" x="206.316" y="-257.5" font-family="Helvetica,sans-Serif" font-size="10.00">&#45; _urdf_model</text>
<text text-anchor="start" x="206.316" y="-246.5" font-family="Helvetica,sans-Serif" font-size="10.00">&#45; _robot_tree</text>
<text text-anchor="start" x="206.316" y="-235.5" font-family="Helvetica,sans-Serif" font-size="10.00">&#45; _srdfdom</text>
<text text-anchor="start" x="206.316" y="-224.5" font-family="Helvetica,sans-Serif" font-size="10.00">&#45; _fingers_num</text>
<text text-anchor="start" x="206.316" y="-213.5" font-family="Helvetica,sans-Serif" font-size="10.00">&#45; _joints_num</text>
<polyline fill="none" stroke="black" points="198.316,-206.5 350.316,-206.5 "/>
<text text-anchor="start" x="206.316" y="-194.5" font-family="Helvetica,sans-Serif" font-size="10.00">+ Parser()</text>
<text text-anchor="start" x="206.316" y="-183.5" font-family="Helvetica,sans-Serif" font-size="10.00">+ ~Parser()</text>
<text text-anchor="start" x="206.316" y="-172.5" font-family="Helvetica,sans-Serif" font-size="10.00">+ init()</text>
<text text-anchor="start" x="206.316" y="-161.5" font-family="Helvetica,sans-Serif" font-size="10.00">+ init()</text>
<text text-anchor="start" x="206.316" y="-150.5" font-family="Helvetica,sans-Serif" font-size="10.00">+ getUrdfJointMap()</text>
<text text-anchor="start" x="206.316" y="-139.5" font-family="Helvetica,sans-Serif" font-size="10.00">+ getFingerJointMap()</text>
<text text-anchor="start" x="206.316" y="-128.5" font-family="Helvetica,sans-Serif" font-size="10.00">+ getFingerJointMap()</text>
<text text-anchor="start" x="206.316" y="-117.5" font-family="Helvetica,sans-Serif" font-size="10.00">+ getJointFingerMap()</text>
<text text-anchor="start" x="206.316" y="-106.5" font-family="Helvetica,sans-Serif" font-size="10.00">+ getJointFingerMap()</text>
<text text-anchor="start" x="206.316" y="-95.5" font-family="Helvetica,sans-Serif" font-size="10.00">+ getEndEffectorName()</text>
<text text-anchor="start" x="206.316" y="-84.5" font-family="Helvetica,sans-Serif" font-size="10.00">and 6 more...</text>
<text text-anchor="start" x="206.316" y="-73.5" font-family="Helvetica,sans-Serif" font-size="10.00">&#45; configure()</text>
<text text-anchor="start" x="206.316" y="-62.5" font-family="Helvetica,sans-Serif" font-size="10.00">&#45; getROSEndEffectorConfig()</text>
<text text-anchor="start" x="206.316" y="-51.5" font-family="Helvetica,sans-Serif" font-size="10.00">&#45; parseURDF()</text>
<text text-anchor="start" x="206.316" y="-40.5" font-family="Helvetica,sans-Serif" font-size="10.00">&#45; parseSRDF()</text>
<text text-anchor="start" x="206.316" y="-29.5" font-family="Helvetica,sans-Serif" font-size="10.00">&#45; addNotInFingerJoints()</text>
<text text-anchor="start" x="206.316" y="-18.5" font-family="Helvetica,sans-Serif" font-size="10.00">&#45; removePassiveJoints()</text>
<text text-anchor="start" x="206.316" y="-7.5" font-family="Helvetica,sans-Serif" font-size="10.00">&#45; getJointsInFinger()</text>
</g>
<!-- Node2 -->
<g id="node2" class="node"><title>Node2</title>
<polygon fill="none" stroke="#bfbfbf" points="27.3164,-358.5 27.3164,-426.5 179.316,-426.5 179.316,-358.5 27.3164,-358.5"/>
<text text-anchor="start" x="35.3164" y="-414.5" font-family="Helvetica,sans-Serif" font-size="10.00">std::map&lt; std::string,</text>
<text text-anchor="middle" x="103.316" y="-403.5" font-family="Helvetica,sans-Serif" font-size="10.00"> std::vector&lt; std::string &gt; &gt;</text>
<polyline fill="none" stroke="#bfbfbf" points="27.3164,-396.5 179.316,-396.5 "/>
<text text-anchor="middle" x="103.316" y="-384.5" font-family="Helvetica,sans-Serif" font-size="10.00"> </text>
<polyline fill="none" stroke="#bfbfbf" points="27.3164,-377.5 179.316,-377.5 "/>
<text text-anchor="middle" x="103.316" y="-365.5" font-family="Helvetica,sans-Serif" font-size="10.00"> </text>
</g>
<!-- Node2&#45;&gt;Node1 -->
<g id="edge1" class="edge"><title>Node2&#45;&gt;Node1</title>
<path fill="none" stroke="#404040" d="M102.434,-358.317C103.234,-348.523 105.186,-338.019 109.316,-329 127.534,-289.219 158.789,-252.911 189.23,-223.977"/>
<polygon fill="none" stroke="#404040" points="189.42,-223.8 191.09,-216.785 198.207,-215.628 196.538,-222.643 189.42,-223.8"/>
<text text-anchor="middle" x="155.316" y="-332" font-family="Helvetica,sans-Serif" font-size="10.00"> &#45;_finger_joint_map</text>
</g>
<!-- Node3 -->
<g id="node3" class="node"><title>Node3</title>
<g id="a_node3"><a xlink:title="STL class. ">
<polygon fill="none" stroke="#bfbfbf" points="182.816,-656.5 182.816,-713.5 247.816,-713.5 247.816,-656.5 182.816,-656.5"/>
<text text-anchor="middle" x="215.316" y="-701.5" font-family="Helvetica,sans-Serif" font-size="10.00">std::string</text>
<polyline fill="none" stroke="#bfbfbf" points="182.816,-694.5 247.816,-694.5 "/>
<text text-anchor="middle" x="215.316" y="-682.5" font-family="Helvetica,sans-Serif" font-size="10.00"> </text>
<polyline fill="none" stroke="#bfbfbf" points="182.816,-675.5 247.816,-675.5 "/>
<text text-anchor="middle" x="215.316" y="-663.5" font-family="Helvetica,sans-Serif" font-size="10.00"> </text>
</a>
</g>
</g>
<!-- Node3&#45;&gt;Node1 -->
<g id="edge10" class="edge"><title>Node3&#45;&gt;Node1</title>
<path fill="none" stroke="#404040" d="M182.404,-673.256C161.225,-665.42 133.754,-653.474 112.316,-638 55.6888,-597.125 31.5836,-587.108 6.31643,-522 -6.06498,-490.096 3.97291,-479.142 6.31643,-445 8.98937,-406.059 -1.09563,-391.863 18.3164,-358 57.5082,-289.632 129.869,-235.997 187.686,-201.309"/>
<polygon fill="none" stroke="#404040" points="187.962,-201.145 191.101,-194.653 198.301,-195.053 195.162,-201.545 187.962,-201.145"/>
<text text-anchor="middle" x="44.3164" y="-514" font-family="Helvetica,sans-Serif" font-size="10.00"> &#45;_urdf_string</text>
<text text-anchor="middle" x="44.3164" y="-503" font-family="Helvetica,sans-Serif" font-size="10.00">&#45;_action_path</text>
<text text-anchor="middle" x="44.3164" y="-492" font-family="Helvetica,sans-Serif" font-size="10.00">&#45;_srdf_string</text>
<text text-anchor="middle" x="44.3164" y="-481" font-family="Helvetica,sans-Serif" font-size="10.00">&#45;_srdf_path</text>
<text text-anchor="middle" x="44.3164" y="-470" font-family="Helvetica,sans-Serif" font-size="10.00">&#45;_urdf_path</text>
<text text-anchor="start" x="6.31643" y="-459" font-family="Helvetica,sans-Serif" font-size="10.00">&#45;_ros_ee_config</text>
<text text-anchor="middle" x="44.3164" y="-448" font-family="Helvetica,sans-Serif" font-size="10.00">_path</text>
</g>
<!-- Node3&#45;&gt;Node2 -->
<g id="edge2" class="edge"><title>Node3&#45;&gt;Node2</title>
<path fill="none" stroke="#404040" d="M182.774,-669.362C155.948,-655.317 119.738,-631.313 103.316,-598 78.5466,-547.751 84.3124,-481.751 92.3811,-438.509"/>
<polygon fill="none" stroke="#404040" points="92.3942,-438.443 89.6514,-431.774 94.7525,-426.677 97.4954,-433.346 92.3942,-438.443"/>
<text text-anchor="middle" x="120.316" y="-566.5" font-family="Helvetica,sans-Serif" font-size="10.00"> +keys</text>
</g>
<!-- Node5 -->
<g id="node5" class="node"><title>Node5</title>
<polygon fill="none" stroke="#bfbfbf" points="146.316,-540.5 146.316,-597.5 284.316,-597.5 284.316,-540.5 146.316,-540.5"/>
<text text-anchor="middle" x="215.316" y="-585.5" font-family="Helvetica,sans-Serif" font-size="10.00">std::vector&lt; std::string &gt;</text>
<polyline fill="none" stroke="#bfbfbf" points="146.316,-578.5 284.316,-578.5 "/>
<text text-anchor="middle" x="215.316" y="-566.5" font-family="Helvetica,sans-Serif" font-size="10.00"> </text>
<polyline fill="none" stroke="#bfbfbf" points="146.316,-559.5 284.316,-559.5 "/>
<text text-anchor="middle" x="215.316" y="-547.5" font-family="Helvetica,sans-Serif" font-size="10.00"> </text>
</g>
<!-- Node3&#45;&gt;Node5 -->
<g id="edge5" class="edge"><title>Node3&#45;&gt;Node5</title>
<path fill="none" stroke="#404040" d="M215.316,-656.404C215.316,-642.504 215.316,-625.392 215.316,-610.073"/>
<polygon fill="none" stroke="#404040" points="215.317,-609.737 211.316,-603.737 215.316,-597.737 219.316,-603.737 215.317,-609.737"/>
<text text-anchor="middle" x="243.816" y="-624.5" font-family="Helvetica,sans-Serif" font-size="10.00"> +elements</text>
</g>
<!-- Node6 -->
<g id="node6" class="node"><title>Node6</title>
<polygon fill="none" stroke="#bfbfbf" points="236.316,-449.5 236.316,-517.5 388.316,-517.5 388.316,-449.5 236.316,-449.5"/>
<text text-anchor="start" x="244.316" y="-505.5" font-family="Helvetica,sans-Serif" font-size="10.00">std::map&lt; std::string,</text>
<text text-anchor="middle" x="312.316" y="-494.5" font-family="Helvetica,sans-Serif" font-size="10.00"> urdf::JointConstSharedPtr &gt;</text>
<polyline fill="none" stroke="#bfbfbf" points="236.316,-487.5 388.316,-487.5 "/>
<text text-anchor="start" x="244.316" y="-475.5" font-family="Helvetica,sans-Serif" font-size="10.00">+ elements</text>
<polyline fill="none" stroke="#bfbfbf" points="236.316,-468.5 388.316,-468.5 "/>
<text text-anchor="middle" x="312.316" y="-456.5" font-family="Helvetica,sans-Serif" font-size="10.00"> </text>
</g>
<!-- Node3&#45;&gt;Node6 -->
<g id="edge7" class="edge"><title>Node3&#45;&gt;Node6</title>
<path fill="none" stroke="#404040" d="M247.828,-664.313C257.938,-657.011 268.476,-648.034 276.316,-638 300.451,-607.112 308.849,-562.748 311.565,-529.65"/>
<polygon fill="none" stroke="#404040" points="311.571,-529.543 307.968,-523.296 312.348,-517.568 315.951,-523.814 311.571,-529.543"/>
<text text-anchor="middle" x="306.316" y="-624.5" font-family="Helvetica,sans-Serif" font-size="10.00"> +keys</text>
</g>
<!-- Node7 -->
<g id="node7" class="node"><title>Node7</title>
<polygon fill="none" stroke="#bfbfbf" points="393.316,-449.5 393.316,-517.5 515.316,-517.5 515.316,-449.5 393.316,-449.5"/>
<text text-anchor="start" x="401.316" y="-505.5" font-family="Helvetica,sans-Serif" font-size="10.00">std::map&lt; std::string,</text>
<text text-anchor="middle" x="454.316" y="-494.5" font-family="Helvetica,sans-Serif" font-size="10.00"> std::string &gt;</text>
<polyline fill="none" stroke="#bfbfbf" points="393.316,-487.5 515.316,-487.5 "/>
<text text-anchor="middle" x="454.316" y="-475.5" font-family="Helvetica,sans-Serif" font-size="10.00"> </text>
<polyline fill="none" stroke="#bfbfbf" points="393.316,-468.5 515.316,-468.5 "/>
<text text-anchor="middle" x="454.316" y="-456.5" font-family="Helvetica,sans-Serif" font-size="10.00"> </text>
</g>
<!-- Node3&#45;&gt;Node7 -->
<g id="edge9" class="edge"><title>Node3&#45;&gt;Node7</title>
<path fill="none" stroke="#404040" d="M247.866,-675.287C271.449,-667.915 303.279,-655.697 327.316,-638 368.334,-607.8 404.187,-561.549 427.244,-527.708"/>
<polygon fill="none" stroke="#404040" points="427.309,-527.611 427.32,-520.4 433.981,-517.636 433.97,-524.847 427.309,-527.611"/>
<text text-anchor="middle" x="379.816" y="-630" font-family="Helvetica,sans-Serif" font-size="10.00"> +elements</text>
<text text-anchor="middle" x="379.816" y="-619" font-family="Helvetica,sans-Serif" font-size="10.00">+keys</text>
</g>
<!-- Node4 -->
<g id="node4" class="node"><title>Node4</title>
<g id="a_node4"><a xlink:title="STL class. ">
<polygon fill="none" stroke="#bfbfbf" points="163.816,-751.5 163.816,-819.5 266.816,-819.5 266.816,-751.5 163.816,-751.5"/>
<text text-anchor="start" x="171.816" y="-807.5" font-family="Helvetica,sans-Serif" font-size="10.00">std::basic_string&lt;</text>
<text text-anchor="middle" x="215.316" y="-796.5" font-family="Helvetica,sans-Serif" font-size="10.00"> char &gt;</text>
<polyline fill="none" stroke="#bfbfbf" points="163.816,-789.5 266.816,-789.5 "/>
<text text-anchor="middle" x="215.316" y="-777.5" font-family="Helvetica,sans-Serif" font-size="10.00"> </text>
<polyline fill="none" stroke="#bfbfbf" points="163.816,-770.5 266.816,-770.5 "/>
<text text-anchor="middle" x="215.316" y="-758.5" font-family="Helvetica,sans-Serif" font-size="10.00"> </text>
</a>
</g>
</g>
<!-- Node4&#45;&gt;Node3 -->
<g id="edge3" class="edge"><title>Node4&#45;&gt;Node3</title>
<path fill="none" stroke="midnightblue" d="M215.316,-741.375C215.316,-731.94 215.316,-722.201 215.316,-713.571"/>
<polygon fill="none" stroke="midnightblue" points="211.817,-741.427 215.316,-751.427 218.817,-741.427 211.817,-741.427"/>
</g>
<!-- Node5&#45;&gt;Node1 -->
<g id="edge12" class="edge"><title>Node5&#45;&gt;Node1</title>
<path fill="none" stroke="#404040" d="M212.828,-540.304C209.765,-499.961 206.027,-422.78 215.316,-358 216.985,-346.363 219.17,-334.461 221.714,-322.544"/>
<polygon fill="none" stroke="#404040" points="221.758,-322.344 219.161,-315.617 224.372,-310.632 226.969,-317.359 221.758,-322.344"/>
<text text-anchor="middle" x="256.816" y="-390" font-family="Helvetica,sans-Serif" font-size="10.00"> &#45;_fingers_names</text>
</g>
<!-- Node5&#45;&gt;Node2 -->
<g id="edge4" class="edge"><title>Node5&#45;&gt;Node2</title>
<path fill="none" stroke="#404040" d="M163.238,-540.437C156.184,-535.041 149.577,-528.886 144.316,-522 125.846,-497.824 115.564,-465.089 109.915,-438.71"/>
<polygon fill="none" stroke="#404040" points="109.872,-438.491 104.794,-433.372 107.566,-426.715 112.645,-431.834 109.872,-438.491"/>
<text text-anchor="middle" x="172.816" y="-481" font-family="Helvetica,sans-Serif" font-size="10.00"> +elements</text>
</g>
<!-- Node6&#45;&gt;Node1 -->
<g id="edge6" class="edge"><title>Node6&#45;&gt;Node1</title>
<path fill="none" stroke="#404040" d="M310.183,-449.422C308.437,-424.306 305.705,-388.932 302.316,-358 301.054,-346.48 299.656,-334.603 298.177,-322.649"/>
<polygon fill="none" stroke="#404040" points="298.169,-322.587 293.452,-317.132 296.673,-310.68 301.39,-316.135 298.169,-322.587"/>
<text text-anchor="middle" x="351.316" y="-390" font-family="Helvetica,sans-Serif" font-size="10.00"> &#45;_urdf_joint_map</text>
</g>
<!-- Node7&#45;&gt;Node1 -->
<g id="edge8" class="edge"><title>Node7&#45;&gt;Node1</title>
<path fill="none" stroke="#404040" d="M440.475,-449.481C429.525,-424.087 413.443,-388.33 397.316,-358 384.787,-334.437 370.674,-309.824 356.594,-286.22"/>
<polygon fill="none" stroke="#404040" points="356.524,-286.104 350.007,-283.017 350.35,-275.814 356.867,-278.901 356.524,-286.104"/>
<text text-anchor="middle" x="475.316" y="-390" font-family="Helvetica,sans-Serif" font-size="10.00"> &#45;_joint_finger_map</text>
</g>
<!-- Node8 -->
<g id="node8" class="node"><title>Node8</title>
<polygon fill="none" stroke="#bfbfbf" points="564.316,-364 564.316,-421 666.316,-421 666.316,-364 564.316,-364"/>
<text text-anchor="middle" x="615.316" y="-409" font-family="Helvetica,sans-Serif" font-size="10.00">std::vector&lt; int &gt;</text>
<polyline fill="none" stroke="#bfbfbf" points="564.316,-402 666.316,-402 "/>
<text text-anchor="start" x="572.316" y="-390" font-family="Helvetica,sans-Serif" font-size="10.00">+ elements</text>
<polyline fill="none" stroke="#bfbfbf" points="564.316,-383 666.316,-383 "/>
<text text-anchor="middle" x="615.316" y="-371" font-family="Helvetica,sans-Serif" font-size="10.00"> </text>
</g>
<!-- Node8&#45;&gt;Node1 -->
<g id="edge11" class="edge"><title>Node8&#45;&gt;Node1</title>
<path fill="none" stroke="#404040" d="M575.197,-363.851C522.674,-327.656 429.208,-263.243 360.343,-215.785"/>
<polygon fill="none" stroke="#404040" points="360.249,-215.721 353.039,-215.61 350.369,-208.911 357.579,-209.022 360.249,-215.721"/>
<text text-anchor="middle" x="577.816" y="-332" font-family="Helvetica,sans-Serif" font-size="10.00"> &#45;_fingers_group_id</text>
</g>
</g>
</svg>
