<?xml version="1.0" encoding="UTF-8" standalone="no"?>
<!DOCTYPE svg PUBLIC "-//W3C//DTD SVG 1.1//EN"
 "http://www.w3.org/Graphics/SVG/1.1/DTD/svg11.dtd">
<!-- Generated by graphviz version 2.38.0 (20140413.2041)
 -->
<!-- Title: ROSEE::XBot2Hal Pages: 1 -->
<svg width="336pt" height="851pt"
 viewBox="0.00 0.00 335.50 851.00" xmlns="http://www.w3.org/2000/svg" xmlns:xlink="http://www.w3.org/1999/xlink">
<g id="graph0" class="graph" transform="scale(1 1) rotate(0) translate(4 847)">
<title>ROSEE::XBot2Hal</title>
<!-- Node1 -->
<g id="node1" class="node"><title>Node1</title>
<polygon fill="#bfbfbf" stroke="black" points="22,-0.5 22,-112.5 177,-112.5 177,-0.5 22,-0.5"/>
<text text-anchor="middle" x="99.5" y="-100.5" font-family="Helvetica,sans-Serif" font-size="10.00">ROSEE::XBot2Hal</text>
<polyline fill="none" stroke="black" points="22,-93.5 177,-93.5 "/>
<text text-anchor="start" x="30" y="-81.5" font-family="Helvetica,sans-Serif" font-size="10.00">&#45; _robot</text>
<text text-anchor="start" x="30" y="-70.5" font-family="Helvetica,sans-Serif" font-size="10.00">&#45; _jointPositionActualMap</text>
<text text-anchor="start" x="30" y="-59.5" font-family="Helvetica,sans-Serif" font-size="10.00">&#45; _jointPositionReferenceMap</text>
<polyline fill="none" stroke="black" points="22,-52.5 177,-52.5 "/>
<text text-anchor="start" x="30" y="-40.5" font-family="Helvetica,sans-Serif" font-size="10.00">+ XBot2Hal()</text>
<text text-anchor="start" x="30" y="-29.5" font-family="Helvetica,sans-Serif" font-size="10.00">+ ~XBot2Hal()</text>
<text text-anchor="start" x="30" y="-18.5" font-family="Helvetica,sans-Serif" font-size="10.00">+ sense()</text>
<text text-anchor="start" x="30" y="-7.5" font-family="Helvetica,sans-Serif" font-size="10.00">+ move()</text>
</g>
<!-- Node2 -->
<g id="node2" class="node"><title>Node2</title>
<g id="a_node2"><a xlink:href="classROSEE_1_1EEHal.html" target="_top" xlink:title="Class representing an end&#45;effector. ">
<polygon fill="none" stroke="black" points="28.5,-150.5 28.5,-515.5 170.5,-515.5 170.5,-150.5 28.5,-150.5"/>
<text text-anchor="middle" x="99.5" y="-503.5" font-family="Helvetica,sans-Serif" font-size="10.00">ROSEE::EEHal</text>
<polyline fill="none" stroke="black" points="28.5,-496.5 170.5,-496.5 "/>
<text text-anchor="start" x="36.5" y="-484.5" font-family="Helvetica,sans-Serif" font-size="10.00">+ _pressure_active</text>
<text text-anchor="start" x="36.5" y="-473.5" font-family="Helvetica,sans-Serif" font-size="10.00"># _nh</text>
<text text-anchor="start" x="36.5" y="-462.5" font-family="Helvetica,sans-Serif" font-size="10.00"># _mr_msg</text>
<text text-anchor="start" x="36.5" y="-451.5" font-family="Helvetica,sans-Serif" font-size="10.00"># _motor_reference_sub</text>
<text text-anchor="start" x="36.5" y="-440.5" font-family="Helvetica,sans-Serif" font-size="10.00"># _js_msg</text>
<text text-anchor="start" x="36.5" y="-429.5" font-family="Helvetica,sans-Serif" font-size="10.00"># _joint_state_pub</text>
<text text-anchor="start" x="36.5" y="-418.5" font-family="Helvetica,sans-Serif" font-size="10.00"># _pressure_msg</text>
<text text-anchor="start" x="36.5" y="-407.5" font-family="Helvetica,sans-Serif" font-size="10.00"># _pressure_pub</text>
<text text-anchor="start" x="36.5" y="-396.5" font-family="Helvetica,sans-Serif" font-size="10.00"># tips_frictions</text>
<text text-anchor="start" x="36.5" y="-385.5" font-family="Helvetica,sans-Serif" font-size="10.00"># motors_torque_limits</text>
<text text-anchor="start" x="36.5" y="-374.5" font-family="Helvetica,sans-Serif" font-size="10.00"># motors_stiffness</text>
<text text-anchor="start" x="36.5" y="-363.5" font-family="Helvetica,sans-Serif" font-size="10.00"># tip_joint_to_tip_frame_x</text>
<text text-anchor="start" x="36.5" y="-352.5" font-family="Helvetica,sans-Serif" font-size="10.00"># tip_joint_to_tip_frame_y</text>
<text text-anchor="start" x="36.5" y="-341.5" font-family="Helvetica,sans-Serif" font-size="10.00"># _hand_info_server</text>
<text text-anchor="start" x="36.5" y="-330.5" font-family="Helvetica,sans-Serif" font-size="10.00"># _hand_info_response</text>
<text text-anchor="start" x="36.5" y="-319.5" font-family="Helvetica,sans-Serif" font-size="10.00">&#45; _hand_info_present</text>
<polyline fill="none" stroke="black" points="28.5,-312.5 170.5,-312.5 "/>
<text text-anchor="start" x="36.5" y="-300.5" font-family="Helvetica,sans-Serif" font-size="10.00">+ EEHal()</text>
<text text-anchor="start" x="36.5" y="-289.5" font-family="Helvetica,sans-Serif" font-size="10.00">+ ~EEHal()</text>
<text text-anchor="start" x="36.5" y="-278.5" font-family="Helvetica,sans-Serif" font-size="10.00">+ sense()</text>
<text text-anchor="start" x="36.5" y="-267.5" font-family="Helvetica,sans-Serif" font-size="10.00">+ move()</text>
<text text-anchor="start" x="36.5" y="-256.5" font-family="Helvetica,sans-Serif" font-size="10.00">+ publish_joint_state()</text>
<text text-anchor="start" x="36.5" y="-245.5" font-family="Helvetica,sans-Serif" font-size="10.00">+ checkCommandPub()</text>
<text text-anchor="start" x="36.5" y="-234.5" font-family="Helvetica,sans-Serif" font-size="10.00">+ getFingersNames()</text>
<text text-anchor="start" x="36.5" y="-223.5" font-family="Helvetica,sans-Serif" font-size="10.00">+ getMotorsNames()</text>
<text text-anchor="start" x="36.5" y="-212.5" font-family="Helvetica,sans-Serif" font-size="10.00">+ getMotorStiffness()</text>
<text text-anchor="start" x="36.5" y="-201.5" font-family="Helvetica,sans-Serif" font-size="10.00">+ getTipsFrictions()</text>
<text text-anchor="start" x="36.5" y="-190.5" font-family="Helvetica,sans-Serif" font-size="10.00">and 19 more...</text>
<text text-anchor="start" x="36.5" y="-179.5" font-family="Helvetica,sans-Serif" font-size="10.00"># initPressureSensing()</text>
<text text-anchor="start" x="36.5" y="-168.5" font-family="Helvetica,sans-Serif" font-size="10.00">&#45; handInfoEEHalCallback()</text>
<text text-anchor="start" x="36.5" y="-157.5" font-family="Helvetica,sans-Serif" font-size="10.00">&#45; motor_reference_clbk()</text>
</a>
</g>
</g>
<!-- Node2&#45;&gt;Node1 -->
<g id="edge1" class="edge"><title>Node2&#45;&gt;Node1</title>
<path fill="none" stroke="midnightblue" d="M99.5,-140.16C99.5,-130.444 99.5,-121.163 99.5,-112.564"/>
<polygon fill="none" stroke="midnightblue" points="96.0001,-140.433 99.5,-150.433 103,-140.433 96.0001,-140.433"/>
</g>
<!-- Node3 -->
<g id="node3" class="node"><title>Node3</title>
<g id="a_node3"><a xlink:title="STL class. ">
<polygon fill="none" stroke="#bfbfbf" points="19,-679.5 19,-736.5 84,-736.5 84,-679.5 19,-679.5"/>
<text text-anchor="middle" x="51.5" y="-724.5" font-family="Helvetica,sans-Serif" font-size="10.00">std::string</text>
<polyline fill="none" stroke="#bfbfbf" points="19,-717.5 84,-717.5 "/>
<text text-anchor="middle" x="51.5" y="-705.5" font-family="Helvetica,sans-Serif" font-size="10.00"> </text>
<polyline fill="none" stroke="#bfbfbf" points="19,-698.5 84,-698.5 "/>
<text text-anchor="middle" x="51.5" y="-686.5" font-family="Helvetica,sans-Serif" font-size="10.00"> </text>
</a>
</g>
</g>
<!-- Node3&#45;&gt;Node2 -->
<g id="edge2" class="edge"><title>Node3&#45;&gt;Node2</title>
<path fill="none" stroke="#404040" d="M48.2903,-679.261C46.8137,-665.135 45.23,-647.676 44.5,-632 43.3009,-606.25 41.6026,-599.614 44.5,-574 46.2134,-558.853 48.5166,-543.269 51.2122,-527.664"/>
<polygon fill="none" stroke="#404040" points="51.2333,-527.545 48.3525,-520.935 53.3467,-515.733 56.2274,-522.344 51.2333,-527.545"/>
<text text-anchor="middle" x="112.5" y="-600.5" font-family="Helvetica,sans-Serif" font-size="10.00"> #_hand_info_service_name</text>
</g>
<!-- Node5 -->
<g id="node5" class="node"><title>Node5</title>
<polygon fill="none" stroke="#bfbfbf" points="189.5,-574.5 189.5,-631.5 327.5,-631.5 327.5,-574.5 189.5,-574.5"/>
<text text-anchor="middle" x="258.5" y="-619.5" font-family="Helvetica,sans-Serif" font-size="10.00">std::vector&lt; std::string &gt;</text>
<polyline fill="none" stroke="#bfbfbf" points="189.5,-612.5 327.5,-612.5 "/>
<text text-anchor="middle" x="258.5" y="-600.5" font-family="Helvetica,sans-Serif" font-size="10.00"> </text>
<polyline fill="none" stroke="#bfbfbf" points="189.5,-593.5 327.5,-593.5 "/>
<text text-anchor="middle" x="258.5" y="-581.5" font-family="Helvetica,sans-Serif" font-size="10.00"> </text>
</g>
<!-- Node3&#45;&gt;Node5 -->
<g id="edge5" class="edge"><title>Node3&#45;&gt;Node5</title>
<path fill="none" stroke="#404040" d="M84.2998,-690.679C113.124,-676.337 155.962,-655.021 191.944,-637.117"/>
<polygon fill="none" stroke="#404040" points="192.124,-637.028 195.714,-630.774 202.867,-631.682 199.277,-637.936 192.124,-637.028"/>
<text text-anchor="middle" x="189" y="-653" font-family="Helvetica,sans-Serif" font-size="10.00"> +elements</text>
</g>
<!-- Node4 -->
<g id="node4" class="node"><title>Node4</title>
<g id="a_node4"><a xlink:title="STL class. ">
<polygon fill="none" stroke="#bfbfbf" points="0,-774.5 0,-842.5 103,-842.5 103,-774.5 0,-774.5"/>
<text text-anchor="start" x="8" y="-830.5" font-family="Helvetica,sans-Serif" font-size="10.00">std::basic_string&lt;</text>
<text text-anchor="middle" x="51.5" y="-819.5" font-family="Helvetica,sans-Serif" font-size="10.00"> char &gt;</text>
<polyline fill="none" stroke="#bfbfbf" points="0,-812.5 103,-812.5 "/>
<text text-anchor="middle" x="51.5" y="-800.5" font-family="Helvetica,sans-Serif" font-size="10.00"> </text>
<polyline fill="none" stroke="#bfbfbf" points="0,-793.5 103,-793.5 "/>
<text text-anchor="middle" x="51.5" y="-781.5" font-family="Helvetica,sans-Serif" font-size="10.00"> </text>
</a>
</g>
</g>
<!-- Node4&#45;&gt;Node3 -->
<g id="edge3" class="edge"><title>Node4&#45;&gt;Node3</title>
<path fill="none" stroke="midnightblue" d="M51.5,-764.375C51.5,-754.94 51.5,-745.201 51.5,-736.571"/>
<polygon fill="none" stroke="midnightblue" points="48.0001,-764.427 51.5,-774.427 55.0001,-764.427 48.0001,-764.427"/>
</g>
<!-- Node5&#45;&gt;Node2 -->
<g id="edge4" class="edge"><title>Node5&#45;&gt;Node2</title>
<path fill="none" stroke="#404040" d="M242.083,-574.329C226.357,-547.822 201.439,-505.822 176.803,-464.297"/>
<polygon fill="none" stroke="#404040" points="176.674,-464.08 170.173,-460.96 170.551,-453.759 177.053,-456.878 176.674,-464.08"/>
<text text-anchor="middle" x="270" y="-548" font-family="Helvetica,sans-Serif" font-size="10.00"> #motors_names</text>
<text text-anchor="middle" x="270" y="-537" font-family="Helvetica,sans-Serif" font-size="10.00">#fingers_names</text>
</g>
</g>
</svg>
