<?xml version="1.0" encoding="UTF-8" standalone="no"?>
<!DOCTYPE svg PUBLIC "-//W3C//DTD SVG 1.1//EN"
 "http://www.w3.org/Graphics/SVG/1.1/DTD/svg11.dtd">
<!-- Generated by graphviz version 2.38.0 (20140413.2041)
 -->
<!-- Title: ROSEE::IMotor Pages: 1 -->
<svg width="115pt" height="463pt"
 viewBox="0.00 0.00 115.00 463.00" xmlns="http://www.w3.org/2000/svg" xmlns:xlink="http://www.w3.org/1999/xlink">
<g id="graph0" class="graph" transform="scale(1 1) rotate(0) translate(4 459)">
<title>ROSEE::IMotor</title>
<!-- Node1 -->
<g id="node1" class="node"><title>Node1</title>
<polygon fill="#bfbfbf" stroke="black" points="1,-364.5 1,-454.5 106,-454.5 106,-364.5 1,-364.5"/>
<text text-anchor="middle" x="53.5" y="-442.5" font-family="Helvetica,sans-Serif" font-size="10.00">ROSEE::IMotor</text>
<polyline fill="none" stroke="black" points="1,-435.5 106,-435.5 "/>
<text text-anchor="middle" x="53.5" y="-423.5" font-family="Helvetica,sans-Serif" font-size="10.00"> </text>
<polyline fill="none" stroke="black" points="1,-416.5 106,-416.5 "/>
<text text-anchor="start" x="9" y="-404.5" font-family="Helvetica,sans-Serif" font-size="10.00">+ getMotorPosition()</text>
<text text-anchor="start" x="9" y="-393.5" font-family="Helvetica,sans-Serif" font-size="10.00">+ getMotorVelocity()</text>
<text text-anchor="start" x="9" y="-382.5" font-family="Helvetica,sans-Serif" font-size="10.00">+ getMotorEffort()</text>
<text text-anchor="start" x="9" y="-371.5" font-family="Helvetica,sans-Serif" font-size="10.00">+ moveMotor()</text>
</g>
<!-- Node2 -->
<g id="node2" class="node"><title>Node2</title>
<g id="a_node2"><a xlink:href="classROSEE_1_1EEHal.html" target="_top" xlink:title="Class representing an end&#45;effector. ">
<polygon fill="none" stroke="black" points="3,-171.5 3,-327.5 104,-327.5 104,-171.5 3,-171.5"/>
<text text-anchor="middle" x="53.5" y="-315.5" font-family="Helvetica,sans-Serif" font-size="10.00">ROSEE::EEHal</text>
<polyline fill="none" stroke="black" points="3,-308.5 104,-308.5 "/>
<text text-anchor="start" x="11" y="-296.5" font-family="Helvetica,sans-Serif" font-size="10.00"># _ee_inteface</text>
<polyline fill="none" stroke="black" points="3,-289.5 104,-289.5 "/>
<text text-anchor="start" x="11" y="-277.5" font-family="Helvetica,sans-Serif" font-size="10.00">+ EEHal()</text>
<text text-anchor="start" x="11" y="-266.5" font-family="Helvetica,sans-Serif" font-size="10.00">+ ~EEHal()</text>
<text text-anchor="start" x="11" y="-255.5" font-family="Helvetica,sans-Serif" font-size="10.00">+ sense()</text>
<text text-anchor="start" x="11" y="-244.5" font-family="Helvetica,sans-Serif" font-size="10.00">+ move()</text>
<text text-anchor="start" x="11" y="-233.5" font-family="Helvetica,sans-Serif" font-size="10.00"># setJointPosition()</text>
<text text-anchor="start" x="11" y="-222.5" font-family="Helvetica,sans-Serif" font-size="10.00"># setJointVelocity()</text>
<text text-anchor="start" x="11" y="-211.5" font-family="Helvetica,sans-Serif" font-size="10.00"># setJointEffort()</text>
<text text-anchor="start" x="11" y="-200.5" font-family="Helvetica,sans-Serif" font-size="10.00"># getJointPosition()</text>
<text text-anchor="start" x="11" y="-189.5" font-family="Helvetica,sans-Serif" font-size="10.00"># getJointVelocity()</text>
<text text-anchor="start" x="11" y="-178.5" font-family="Helvetica,sans-Serif" font-size="10.00"># getJointEffort()</text>
</a>
</g>
</g>
<!-- Node1&#45;&gt;Node2 -->
<g id="edge1" class="edge"><title>Node1&#45;&gt;Node2</title>
<path fill="none" stroke="midnightblue" d="M53.5,-354.232C53.5,-345.62 53.5,-336.572 53.5,-327.558"/>
<polygon fill="none" stroke="midnightblue" points="50.0001,-354.488 53.5,-364.488 57.0001,-354.488 50.0001,-354.488"/>
</g>
<!-- Node3 -->
<g id="node3" class="node"><title>Node3</title>
<g id="a_node3"><a xlink:href="classROSEE_1_1DummyHal.html" target="_top" xlink:title="Class representing an end&#45;effector. ">
<polygon fill="none" stroke="black" points="-7.10543e-15,-0.5 -7.10543e-15,-134.5 107,-134.5 107,-0.5 -7.10543e-15,-0.5"/>
<text text-anchor="middle" x="53.5" y="-122.5" font-family="Helvetica,sans-Serif" font-size="10.00">ROSEE::DummyHal</text>
<polyline fill="none" stroke="black" points="-7.10543e-15,-115.5 107,-115.5 "/>
<text text-anchor="middle" x="53.5" y="-103.5" font-family="Helvetica,sans-Serif" font-size="10.00"> </text>
<polyline fill="none" stroke="black" points="-7.10543e-15,-96.5 107,-96.5 "/>
<text text-anchor="start" x="8" y="-84.5" font-family="Helvetica,sans-Serif" font-size="10.00">+ DummyHal()</text>
<text text-anchor="start" x="8" y="-73.5" font-family="Helvetica,sans-Serif" font-size="10.00">+ ~DummyHal()</text>
<text text-anchor="start" x="8" y="-62.5" font-family="Helvetica,sans-Serif" font-size="10.00">+ getMotorPosition()</text>
<text text-anchor="start" x="8" y="-51.5" font-family="Helvetica,sans-Serif" font-size="10.00">+ getMotorVelocity()</text>
<text text-anchor="start" x="8" y="-40.5" font-family="Helvetica,sans-Serif" font-size="10.00">+ getMotorEffort()</text>
<text text-anchor="start" x="8" y="-29.5" font-family="Helvetica,sans-Serif" font-size="10.00">+ moveMotor()</text>
<text text-anchor="start" x="8" y="-18.5" font-family="Helvetica,sans-Serif" font-size="10.00">+ sense()</text>
<text text-anchor="start" x="8" y="-7.5" font-family="Helvetica,sans-Serif" font-size="10.00">+ move()</text>
</a>
</g>
</g>
<!-- Node2&#45;&gt;Node3 -->
<g id="edge2" class="edge"><title>Node2&#45;&gt;Node3</title>
<path fill="none" stroke="midnightblue" d="M53.5,-161.308C53.5,-152.356 53.5,-143.366 53.5,-134.695"/>
<polygon fill="none" stroke="midnightblue" points="50.0001,-161.38 53.5,-171.38 57.0001,-161.381 50.0001,-161.38"/>
</g>
</g>
</svg>
