<?xml version="1.0" encoding="UTF-8" standalone="no"?>
<!DOCTYPE svg PUBLIC "-//W3C//DTD SVG 1.1//EN"
 "http://www.w3.org/Graphics/SVG/1.1/DTD/svg11.dtd">
<!-- Generated by graphviz version 2.38.0 (20140413.2041)
 -->
<!-- Title: ROSEE::ParserMoveIt Pages: 1 -->
<svg width="1250pt" height="831pt"
 viewBox="0.00 0.00 1249.65 831.00" xmlns="http://www.w3.org/2000/svg" xmlns:xlink="http://www.w3.org/1999/xlink">
<g id="graph0" class="graph" transform="scale(1 1) rotate(0) translate(4 827)">
<title>ROSEE::ParserMoveIt</title>
<!-- Node1 -->
<g id="node1" class="node"><title>Node1</title>
<polygon fill="#bfbfbf" stroke="black" points="510.649,-0.5 510.649,-255.5 680.649,-255.5 680.649,-0.5 510.649,-0.5"/>
<text text-anchor="middle" x="595.649" y="-243.5" font-family="Helvetica,sans-Serif" font-size="10.00">ROSEE::ParserMoveIt</text>
<polyline fill="none" stroke="black" points="510.649,-236.5 680.649,-236.5 "/>
<text text-anchor="start" x="518.649" y="-224.5" font-family="Helvetica,sans-Serif" font-size="10.00">&#45; robot_model</text>
<text text-anchor="start" x="518.649" y="-213.5" font-family="Helvetica,sans-Serif" font-size="10.00">&#45; nFingers</text>
<polyline fill="none" stroke="black" points="510.649,-206.5 680.649,-206.5 "/>
<text text-anchor="start" x="518.649" y="-194.5" font-family="Helvetica,sans-Serif" font-size="10.00">+ ParserMoveIt()</text>
<text text-anchor="start" x="518.649" y="-183.5" font-family="Helvetica,sans-Serif" font-size="10.00">+ ~ParserMoveIt()</text>
<text text-anchor="start" x="518.649" y="-172.5" font-family="Helvetica,sans-Serif" font-size="10.00">+ init()</text>
<text text-anchor="start" x="518.649" y="-161.5" font-family="Helvetica,sans-Serif" font-size="10.00">+ getHandName()</text>
<text text-anchor="start" x="518.649" y="-150.5" font-family="Helvetica,sans-Serif" font-size="10.00">+ getNFingers()</text>
<text text-anchor="start" x="518.649" y="-139.5" font-family="Helvetica,sans-Serif" font-size="10.00">+ getFingertipNames()</text>
<text text-anchor="start" x="518.649" y="-128.5" font-family="Helvetica,sans-Serif" font-size="10.00">+ getActiveJointNames()</text>
<text text-anchor="start" x="518.649" y="-117.5" font-family="Helvetica,sans-Serif" font-size="10.00">+ getActiveJointModels()</text>
<text text-anchor="start" x="518.649" y="-106.5" font-family="Helvetica,sans-Serif" font-size="10.00">+ getPassiveJointNames()</text>
<text text-anchor="start" x="518.649" y="-95.5" font-family="Helvetica,sans-Serif" font-size="10.00">+ getDescendantLinksOfJoint()</text>
<text text-anchor="start" x="518.649" y="-84.5" font-family="Helvetica,sans-Serif" font-size="10.00">and 27 more...</text>
<text text-anchor="start" x="518.649" y="-73.5" font-family="Helvetica,sans-Serif" font-size="10.00">&#45; lookForFingertips()</text>
<text text-anchor="start" x="518.649" y="-62.5" font-family="Helvetica,sans-Serif" font-size="10.00">&#45; lookForActiveJoints()</text>
<text text-anchor="start" x="518.649" y="-51.5" font-family="Helvetica,sans-Serif" font-size="10.00">&#45; lookForPassiveJoints()</text>
<text text-anchor="start" x="518.649" y="-40.5" font-family="Helvetica,sans-Serif" font-size="10.00">&#45; lookJointsTipsCorrelation()</text>
<text text-anchor="start" x="518.649" y="-29.5" font-family="Helvetica,sans-Serif" font-size="10.00">&#45; lookForDescendants()</text>
<text text-anchor="start" x="518.649" y="-18.5" font-family="Helvetica,sans-Serif" font-size="10.00">&#45; getRealDescendantLinkModels</text>
<text text-anchor="start" x="518.649" y="-7.5" font-family="Helvetica,sans-Serif" font-size="10.00">Recursive()</text>
</g>
<!-- Node2 -->
<g id="node2" class="node"><title>Node2</title>
<polygon fill="none" stroke="#bfbfbf" points="363.649,-314.5 363.649,-393.5 507.649,-393.5 507.649,-314.5 363.649,-314.5"/>
<text text-anchor="start" x="371.649" y="-381.5" font-family="Helvetica,sans-Serif" font-size="10.00">std::map&lt; std::string,</text>
<text text-anchor="start" x="371.649" y="-370.5" font-family="Helvetica,sans-Serif" font-size="10.00"> std::vector&lt; const moveit</text>
<text text-anchor="middle" x="435.649" y="-359.5" font-family="Helvetica,sans-Serif" font-size="10.00">::core::JointModel * &gt; &gt;</text>
<polyline fill="none" stroke="#bfbfbf" points="363.649,-352.5 507.649,-352.5 "/>
<text text-anchor="middle" x="435.649" y="-340.5" font-family="Helvetica,sans-Serif" font-size="10.00"> </text>
<polyline fill="none" stroke="#bfbfbf" points="363.649,-333.5 507.649,-333.5 "/>
<text text-anchor="middle" x="435.649" y="-321.5" font-family="Helvetica,sans-Serif" font-size="10.00"> </text>
</g>
<!-- Node2&#45;&gt;Node1 -->
<g id="edge1" class="edge"><title>Node2&#45;&gt;Node1</title>
<path fill="none" stroke="#404040" d="M451.37,-314.14C457.328,-300.994 464.63,-286.49 472.649,-274 481.778,-259.781 492.174,-245.451 502.965,-231.623"/>
<polygon fill="none" stroke="#404040" points="503.031,-231.539 503.626,-224.353 510.488,-222.137 509.893,-229.324 503.031,-231.539"/>
<text text-anchor="middle" x="532.649" y="-282.5" font-family="Helvetica,sans-Serif" font-size="10.00"> &#45;descendantJointsOfJoint</text>
</g>
<!-- Node3 -->
<g id="node3" class="node"><title>Node3</title>
<polygon fill="none" stroke="#bfbfbf" points="285.649,-516 285.649,-584 439.649,-584 439.649,-516 285.649,-516"/>
<text text-anchor="start" x="293.649" y="-572" font-family="Helvetica,sans-Serif" font-size="10.00">std::vector&lt; const</text>
<text text-anchor="middle" x="362.649" y="-561" font-family="Helvetica,sans-Serif" font-size="10.00"> moveit::core::JointModel * &gt;</text>
<polyline fill="none" stroke="#bfbfbf" points="285.649,-554 439.649,-554 "/>
<text text-anchor="start" x="293.649" y="-542" font-family="Helvetica,sans-Serif" font-size="10.00">+ elements</text>
<polyline fill="none" stroke="#bfbfbf" points="285.649,-535 439.649,-535 "/>
<text text-anchor="middle" x="362.649" y="-523" font-family="Helvetica,sans-Serif" font-size="10.00"> </text>
</g>
<!-- Node3&#45;&gt;Node1 -->
<g id="edge5" class="edge"><title>Node3&#45;&gt;Node1</title>
<path fill="none" stroke="#404040" d="M329.81,-515.747C287.765,-468.969 224.833,-381.866 264.649,-314 314.712,-228.666 420.068,-179.767 498.544,-153.932"/>
<polygon fill="none" stroke="#404040" points="498.978,-153.794 503.472,-148.154 510.406,-150.134 505.912,-155.773 498.978,-153.794"/>
<text text-anchor="middle" x="309.649" y="-351.5" font-family="Helvetica,sans-Serif" font-size="10.00"> &#45;activeJointModels</text>
</g>
<!-- Node3&#45;&gt;Node2 -->
<g id="edge2" class="edge"><title>Node3&#45;&gt;Node2</title>
<path fill="none" stroke="#404040" d="M375.198,-515.65C386.661,-485.185 403.768,-439.723 416.861,-404.928"/>
<polygon fill="none" stroke="#404040" points="416.907,-404.805 415.277,-397.781 421.134,-393.574 422.764,-400.598 416.907,-404.805"/>
<text text-anchor="middle" x="443.149" y="-449.5" font-family="Helvetica,sans-Serif" font-size="10.00"> +elements</text>
</g>
<!-- Node4 -->
<g id="node4" class="node"><title>Node4</title>
<g id="a_node4"><a xlink:title="STL class. ">
<polygon fill="none" stroke="#bfbfbf" points="595.149,-654 595.149,-711 660.149,-711 660.149,-654 595.149,-654"/>
<text text-anchor="middle" x="627.649" y="-699" font-family="Helvetica,sans-Serif" font-size="10.00">std::string</text>
<polyline fill="none" stroke="#bfbfbf" points="595.149,-692 660.149,-692 "/>
<text text-anchor="middle" x="627.649" y="-680" font-family="Helvetica,sans-Serif" font-size="10.00"> </text>
<polyline fill="none" stroke="#bfbfbf" points="595.149,-673 660.149,-673 "/>
<text text-anchor="middle" x="627.649" y="-661" font-family="Helvetica,sans-Serif" font-size="10.00"> </text>
</a>
</g>
</g>
<!-- Node4&#45;&gt;Node1 -->
<g id="edge14" class="edge"><title>Node4&#45;&gt;Node1</title>
<path fill="none" stroke="#404040" d="M594.827,-678.818C535.577,-673.423 407.191,-659.196 302.649,-630 168.64,-592.574 93.1323,-611.37 21.6485,-492 -97.5405,-292.968 305.549,-185.451 498.502,-146.347"/>
<polygon fill="none" stroke="#404040" points="498.571,-146.333 503.671,-141.234 510.338,-143.98 505.239,-149.079 498.571,-146.333"/>
<text text-anchor="middle" x="65.6485" y="-455" font-family="Helvetica,sans-Serif" font-size="10.00"> &#45;handName</text>
<text text-anchor="middle" x="65.6485" y="-444" font-family="Helvetica,sans-Serif" font-size="10.00">&#45;robot_description</text>
</g>
<!-- Node4&#45;&gt;Node2 -->
<g id="edge3" class="edge"><title>Node4&#45;&gt;Node2</title>
<path fill="none" stroke="#404040" d="M601.898,-653.713C586.61,-636.289 567.558,-612.865 553.649,-590 508.758,-516.208 517.999,-487.278 475.649,-412 474.144,-409.326 472.545,-406.623 470.885,-403.921"/>
<polygon fill="none" stroke="#404040" points="470.731,-403.68 464.124,-400.791 464.249,-393.581 470.856,-396.47 470.731,-403.68"/>
<text text-anchor="middle" x="570.649" y="-547.5" font-family="Helvetica,sans-Serif" font-size="10.00"> +keys</text>
</g>
<!-- Node6 -->
<g id="node6" class="node"><title>Node6</title>
<polygon fill="none" stroke="#bfbfbf" points="118.649,-412.5 118.649,-491.5 240.649,-491.5 240.649,-412.5 118.649,-412.5"/>
<text text-anchor="start" x="126.649" y="-479.5" font-family="Helvetica,sans-Serif" font-size="10.00">std::map&lt; std::string,</text>
<text text-anchor="start" x="126.649" y="-468.5" font-family="Helvetica,sans-Serif" font-size="10.00"> std::pair&lt; std::string,</text>
<text text-anchor="middle" x="179.649" y="-457.5" font-family="Helvetica,sans-Serif" font-size="10.00"> std::string &gt; &gt;</text>
<polyline fill="none" stroke="#bfbfbf" points="118.649,-450.5 240.649,-450.5 "/>
<text text-anchor="start" x="126.649" y="-438.5" font-family="Helvetica,sans-Serif" font-size="10.00">+ elements</text>
<polyline fill="none" stroke="#bfbfbf" points="118.649,-431.5 240.649,-431.5 "/>
<text text-anchor="middle" x="179.649" y="-419.5" font-family="Helvetica,sans-Serif" font-size="10.00"> </text>
</g>
<!-- Node4&#45;&gt;Node6 -->
<g id="edge7" class="edge"><title>Node4&#45;&gt;Node6</title>
<path fill="none" stroke="#404040" d="M595.072,-680.314C529.217,-676.452 377.92,-660.008 276.649,-590 244.73,-567.935 219.773,-531.762 203.172,-502.125"/>
<polygon fill="none" stroke="#404040" points="203.153,-502.091 196.778,-498.721 197.436,-491.54 203.811,-494.91 203.153,-502.091"/>
<text text-anchor="middle" x="368.649" y="-616.5" font-family="Helvetica,sans-Serif" font-size="10.00"> +keys</text>
</g>
<!-- Node7 -->
<g id="node7" class="node"><title>Node7</title>
<polygon fill="none" stroke="#bfbfbf" points="525.649,-320 525.649,-388 677.649,-388 677.649,-320 525.649,-320"/>
<text text-anchor="start" x="533.649" y="-376" font-family="Helvetica,sans-Serif" font-size="10.00">std::map&lt; std::string,</text>
<text text-anchor="middle" x="601.649" y="-365" font-family="Helvetica,sans-Serif" font-size="10.00"> std::vector&lt; std::string &gt; &gt;</text>
<polyline fill="none" stroke="#bfbfbf" points="525.649,-358 677.649,-358 "/>
<text text-anchor="middle" x="601.649" y="-346" font-family="Helvetica,sans-Serif" font-size="10.00"> </text>
<polyline fill="none" stroke="#bfbfbf" points="525.649,-339 677.649,-339 "/>
<text text-anchor="middle" x="601.649" y="-327" font-family="Helvetica,sans-Serif" font-size="10.00"> </text>
</g>
<!-- Node4&#45;&gt;Node7 -->
<g id="edge9" class="edge"><title>Node4&#45;&gt;Node7</title>
<path fill="none" stroke="#404040" d="M615.956,-653.635C609.116,-635.795 601.156,-611.956 597.649,-590 587.219,-524.716 591.594,-447.937 596.211,-400.363"/>
<polygon fill="none" stroke="#404040" points="596.22,-400.275 592.853,-393.899 597.444,-388.338 600.811,-394.715 596.22,-400.275"/>
<text text-anchor="middle" x="614.649" y="-547.5" font-family="Helvetica,sans-Serif" font-size="10.00"> +keys</text>
</g>
<!-- Node8 -->
<g id="node8" class="node"><title>Node8</title>
<polygon fill="none" stroke="#bfbfbf" points="640.649,-521.5 640.649,-578.5 778.649,-578.5 778.649,-521.5 640.649,-521.5"/>
<text text-anchor="middle" x="709.649" y="-566.5" font-family="Helvetica,sans-Serif" font-size="10.00">std::vector&lt; std::string &gt;</text>
<polyline fill="none" stroke="#bfbfbf" points="640.649,-559.5 778.649,-559.5 "/>
<text text-anchor="middle" x="709.649" y="-547.5" font-family="Helvetica,sans-Serif" font-size="10.00"> </text>
<polyline fill="none" stroke="#bfbfbf" points="640.649,-540.5 778.649,-540.5 "/>
<text text-anchor="middle" x="709.649" y="-528.5" font-family="Helvetica,sans-Serif" font-size="10.00"> </text>
</g>
<!-- Node4&#45;&gt;Node8 -->
<g id="edge11" class="edge"><title>Node4&#45;&gt;Node8</title>
<path fill="none" stroke="#404040" d="M645.039,-653.824C656.889,-634.965 672.73,-609.754 685.761,-589.016"/>
<polygon fill="none" stroke="#404040" points="685.899,-588.796 685.704,-581.588 692.283,-578.636 692.478,-585.844 685.899,-588.796"/>
<text text-anchor="middle" x="702.149" y="-616.5" font-family="Helvetica,sans-Serif" font-size="10.00"> +elements</text>
</g>
<!-- Node9 -->
<g id="node9" class="node"><title>Node9</title>
<polygon fill="none" stroke="#bfbfbf" points="796.649,-516 796.649,-584 918.649,-584 918.649,-516 796.649,-516"/>
<text text-anchor="start" x="804.649" y="-572" font-family="Helvetica,sans-Serif" font-size="10.00">std::map&lt; std::string,</text>
<text text-anchor="middle" x="857.649" y="-561" font-family="Helvetica,sans-Serif" font-size="10.00"> std::string &gt;</text>
<polyline fill="none" stroke="#bfbfbf" points="796.649,-554 918.649,-554 "/>
<text text-anchor="middle" x="857.649" y="-542" font-family="Helvetica,sans-Serif" font-size="10.00"> </text>
<polyline fill="none" stroke="#bfbfbf" points="796.649,-535 918.649,-535 "/>
<text text-anchor="middle" x="857.649" y="-523" font-family="Helvetica,sans-Serif" font-size="10.00"> </text>
</g>
<!-- Node4&#45;&gt;Node9 -->
<g id="edge13" class="edge"><title>Node4&#45;&gt;Node9</title>
<path fill="none" stroke="#404040" d="M660.483,-666.962C681.928,-657.16 710.355,-643.581 734.649,-630 756.06,-618.03 778.836,-603.838 798.895,-590.808"/>
<polygon fill="none" stroke="#404040" points="799.075,-590.69 801.904,-584.057 809.115,-584.117 806.286,-590.75 799.075,-590.69"/>
<text text-anchor="middle" x="798.149" y="-622" font-family="Helvetica,sans-Serif" font-size="10.00"> +elements</text>
<text text-anchor="middle" x="798.149" y="-611" font-family="Helvetica,sans-Serif" font-size="10.00">+keys</text>
</g>
<!-- Node10 -->
<g id="node10" class="node"><title>Node10</title>
<polygon fill="none" stroke="#bfbfbf" points="1038.65,-510.5 1038.65,-589.5 1182.65,-589.5 1182.65,-510.5 1038.65,-510.5"/>
<text text-anchor="start" x="1046.65" y="-577.5" font-family="Helvetica,sans-Serif" font-size="10.00">std::map&lt; std::string,</text>
<text text-anchor="start" x="1046.65" y="-566.5" font-family="Helvetica,sans-Serif" font-size="10.00"> std::vector&lt; const moveit</text>
<text text-anchor="middle" x="1110.65" y="-555.5" font-family="Helvetica,sans-Serif" font-size="10.00">::core::LinkModel * &gt; &gt;</text>
<polyline fill="none" stroke="#bfbfbf" points="1038.65,-548.5 1182.65,-548.5 "/>
<text text-anchor="middle" x="1110.65" y="-536.5" font-family="Helvetica,sans-Serif" font-size="10.00"> </text>
<polyline fill="none" stroke="#bfbfbf" points="1038.65,-529.5 1182.65,-529.5 "/>
<text text-anchor="middle" x="1110.65" y="-517.5" font-family="Helvetica,sans-Serif" font-size="10.00"> </text>
</g>
<!-- Node4&#45;&gt;Node10 -->
<g id="edge17" class="edge"><title>Node4&#45;&gt;Node10</title>
<path fill="none" stroke="#404040" d="M660.47,-680.621C722.938,-678.082 862.516,-668.223 972.649,-630 996.966,-621.56 1021.88,-608.788 1043.72,-595.959"/>
<polygon fill="none" stroke="#404040" points="1043.9,-595.854 1046.98,-589.336 1054.18,-589.676 1051.1,-596.194 1043.9,-595.854"/>
<text text-anchor="middle" x="1037.65" y="-616.5" font-family="Helvetica,sans-Serif" font-size="10.00"> +keys</text>
</g>
<!-- Node12 -->
<g id="node12" class="node"><title>Node12</title>
<polygon fill="none" stroke="#bfbfbf" points="969.149,-314.5 969.149,-393.5 1094.15,-393.5 1094.15,-314.5 969.149,-314.5"/>
<text text-anchor="start" x="977.149" y="-381.5" font-family="Helvetica,sans-Serif" font-size="10.00">std::map&lt; std::string,</text>
<text text-anchor="start" x="977.149" y="-370.5" font-family="Helvetica,sans-Serif" font-size="10.00"> std::map&lt; std::string,</text>
<text text-anchor="middle" x="1031.65" y="-359.5" font-family="Helvetica,sans-Serif" font-size="10.00"> std::string &gt; &gt;</text>
<polyline fill="none" stroke="#bfbfbf" points="969.149,-352.5 1094.15,-352.5 "/>
<text text-anchor="middle" x="1031.65" y="-340.5" font-family="Helvetica,sans-Serif" font-size="10.00"> </text>
<polyline fill="none" stroke="#bfbfbf" points="969.149,-333.5 1094.15,-333.5 "/>
<text text-anchor="middle" x="1031.65" y="-321.5" font-family="Helvetica,sans-Serif" font-size="10.00"> </text>
</g>
<!-- Node4&#45;&gt;Node12 -->
<g id="edge20" class="edge"><title>Node4&#45;&gt;Node12</title>
<path fill="none" stroke="#404040" d="M660.487,-680.886C721.467,-677.957 852.785,-662.977 927.649,-590 979.665,-539.294 1007.58,-458.029 1021.02,-405.586"/>
<polygon fill="none" stroke="#404040" points="1021.03,-405.536 1018.58,-398.754 1023.9,-393.884 1026.35,-400.666 1021.03,-405.536"/>
<text text-anchor="middle" x="1000.65" y="-547.5" font-family="Helvetica,sans-Serif" font-size="10.00"> +keys</text>
</g>
<!-- Node5 -->
<g id="node5" class="node"><title>Node5</title>
<g id="a_node5"><a xlink:title="STL class. ">
<polygon fill="none" stroke="#bfbfbf" points="576.149,-754.5 576.149,-822.5 679.149,-822.5 679.149,-754.5 576.149,-754.5"/>
<text text-anchor="start" x="584.149" y="-810.5" font-family="Helvetica,sans-Serif" font-size="10.00">std::basic_string&lt;</text>
<text text-anchor="middle" x="627.649" y="-799.5" font-family="Helvetica,sans-Serif" font-size="10.00"> char &gt;</text>
<polyline fill="none" stroke="#bfbfbf" points="576.149,-792.5 679.149,-792.5 "/>
<text text-anchor="middle" x="627.649" y="-780.5" font-family="Helvetica,sans-Serif" font-size="10.00"> </text>
<polyline fill="none" stroke="#bfbfbf" points="576.149,-773.5 679.149,-773.5 "/>
<text text-anchor="middle" x="627.649" y="-761.5" font-family="Helvetica,sans-Serif" font-size="10.00"> </text>
</a>
</g>
</g>
<!-- Node5&#45;&gt;Node4 -->
<g id="edge4" class="edge"><title>Node5&#45;&gt;Node4</title>
<path fill="none" stroke="midnightblue" d="M627.649,-744.247C627.649,-733.054 627.649,-721.304 627.649,-711.154"/>
<polygon fill="none" stroke="midnightblue" points="624.149,-744.308 627.649,-754.308 631.149,-744.308 624.149,-744.308"/>
</g>
<!-- Node6&#45;&gt;Node1 -->
<g id="edge6" class="edge"><title>Node6&#45;&gt;Node1</title>
<path fill="none" stroke="#404040" d="M118.303,-414.814C112.028,-408.661 106.541,-401.724 102.649,-394 86.6481,-362.248 82.3995,-343.226 102.649,-314 191.776,-185.359 382.162,-146.038 498.524,-134.103"/>
<polygon fill="none" stroke="#404040" points="498.648,-134.092 504.235,-129.533 510.592,-132.937 505.005,-137.495 498.648,-134.092"/>
<text text-anchor="middle" x="168.149" y="-351.5" font-family="Helvetica,sans-Serif" font-size="10.00"> &#45;mimicNLFatherOfJointMap</text>
</g>
<!-- Node7&#45;&gt;Node1 -->
<g id="edge8" class="edge"><title>Node7&#45;&gt;Node1</title>
<path fill="none" stroke="#404040" d="M598.283,-319.876C597.616,-312.055 597.011,-303.74 596.649,-296 596.22,-286.836 595.882,-277.387 595.619,-267.862"/>
<polygon fill="none" stroke="#404040" points="595.617,-267.769 591.472,-261.868 595.324,-255.773 599.469,-261.673 595.617,-267.769"/>
<text text-anchor="middle" x="648.149" y="-288" font-family="Helvetica,sans-Serif" font-size="10.00"> &#45;fingertipsOfJointMap</text>
<text text-anchor="middle" x="648.149" y="-277" font-family="Helvetica,sans-Serif" font-size="10.00">&#45;jointsOfFingertipMap</text>
</g>
<!-- Node8&#45;&gt;Node1 -->
<g id="edge21" class="edge"><title>Node8&#45;&gt;Node1</title>
<path fill="none" stroke="#404040" d="M713.799,-521.118C720.245,-470.35 729.078,-360.121 699.649,-274 696.154,-263.774 691.681,-253.643 686.561,-243.77"/>
<polygon fill="none" stroke="#404040" points="686.521,-243.697 680.134,-240.35 680.767,-233.167 687.154,-236.514 686.521,-243.697"/>
<text text-anchor="middle" x="768.149" y="-362.5" font-family="Helvetica,sans-Serif" font-size="10.00"> &#45;activeJointNames</text>
<text text-anchor="middle" x="768.149" y="-351.5" font-family="Helvetica,sans-Serif" font-size="10.00">&#45;fingertipNames</text>
<text text-anchor="middle" x="768.149" y="-340.5" font-family="Helvetica,sans-Serif" font-size="10.00">&#45;passiveJointNames</text>
</g>
<!-- Node8&#45;&gt;Node7 -->
<g id="edge10" class="edge"><title>Node8&#45;&gt;Node7</title>
<path fill="none" stroke="#404040" d="M669.401,-521.229C659.514,-512.806 649.744,-502.87 642.649,-492 624.561,-464.292 614.194,-428.302 608.412,-400.163"/>
<polygon fill="none" stroke="#404040" points="608.386,-400.027 603.331,-394.883 606.135,-388.24 611.189,-393.383 608.386,-400.027"/>
<text text-anchor="middle" x="671.149" y="-449.5" font-family="Helvetica,sans-Serif" font-size="10.00"> +elements</text>
</g>
<!-- Node9&#45;&gt;Node1 -->
<g id="edge12" class="edge"><title>Node9&#45;&gt;Node1</title>
<path fill="none" stroke="#404040" d="M859.378,-515.83C860.376,-468.004 856.535,-378.365 819.649,-314 789.159,-260.796 737.106,-216.401 690.85,-184.448"/>
<polygon fill="none" stroke="#404040" points="690.705,-184.35 683.494,-184.294 680.772,-177.616 687.983,-177.672 690.705,-184.35"/>
<text text-anchor="middle" x="901.649" y="-357" font-family="Helvetica,sans-Serif" font-size="10.00"> &#45;fingerOfFingertipMap</text>
<text text-anchor="middle" x="901.649" y="-346" font-family="Helvetica,sans-Serif" font-size="10.00">&#45;fingertipOfFingerMap</text>
</g>
<!-- Node9&#45;&gt;Node12 -->
<g id="edge19" class="edge"><title>Node9&#45;&gt;Node12</title>
<path fill="none" stroke="#404040" d="M860.954,-515.851C865.174,-480.206 873.655,-426.665 887.649,-412 908.934,-389.692 925.853,-405.025 954.649,-394 955.689,-393.602 956.735,-393.193 957.783,-392.776"/>
<polygon fill="none" stroke="#404040" points="958.038,-392.669 962.014,-386.653 969.097,-388.009 965.121,-394.025 958.038,-392.669"/>
<text text-anchor="middle" x="916.149" y="-449.5" font-family="Helvetica,sans-Serif" font-size="10.00"> +elements</text>
</g>
<!-- Node10&#45;&gt;Node1 -->
<g id="edge15" class="edge"><title>Node10&#45;&gt;Node1</title>
<path fill="none" stroke="#404040" d="M1118.49,-510.122C1126.3,-461.577 1133.18,-377.229 1102.65,-314 1090.72,-289.299 1079.65,-287.276 1055.65,-274 938.71,-209.319 788.797,-168.931 692.471,-147.684"/>
<polygon fill="none" stroke="#404040" points="692.43,-147.675 685.717,-150.309 680.704,-145.125 687.417,-142.491 692.43,-147.675"/>
<text text-anchor="middle" x="1182.65" y="-351.5" font-family="Helvetica,sans-Serif" font-size="10.00"> &#45;descendantLinksOfJoint</text>
</g>
<!-- Node11 -->
<g id="node11" class="node"><title>Node11</title>
<polygon fill="none" stroke="#bfbfbf" points="1034.65,-648.5 1034.65,-716.5 1186.65,-716.5 1186.65,-648.5 1034.65,-648.5"/>
<text text-anchor="start" x="1042.65" y="-704.5" font-family="Helvetica,sans-Serif" font-size="10.00">std::vector&lt; const</text>
<text text-anchor="middle" x="1110.65" y="-693.5" font-family="Helvetica,sans-Serif" font-size="10.00"> moveit::core::LinkModel * &gt;</text>
<polyline fill="none" stroke="#bfbfbf" points="1034.65,-686.5 1186.65,-686.5 "/>
<text text-anchor="start" x="1042.65" y="-674.5" font-family="Helvetica,sans-Serif" font-size="10.00">+ elements</text>
<polyline fill="none" stroke="#bfbfbf" points="1034.65,-667.5 1186.65,-667.5 "/>
<text text-anchor="middle" x="1110.65" y="-655.5" font-family="Helvetica,sans-Serif" font-size="10.00"> </text>
</g>
<!-- Node11&#45;&gt;Node10 -->
<g id="edge16" class="edge"><title>Node11&#45;&gt;Node10</title>
<path fill="none" stroke="#404040" d="M1110.65,-648.232C1110.65,-634.169 1110.65,-617.474 1110.65,-601.921"/>
<polygon fill="none" stroke="#404040" points="1110.65,-601.765 1106.65,-595.765 1110.65,-589.765 1114.65,-595.765 1110.65,-601.765"/>
<text text-anchor="middle" x="1139.15" y="-616.5" font-family="Helvetica,sans-Serif" font-size="10.00"> +elements</text>
</g>
<!-- Node12&#45;&gt;Node1 -->
<g id="edge18" class="edge"><title>Node12&#45;&gt;Node1</title>
<path fill="none" stroke="#404040" d="M968.716,-320.668C896.082,-283.351 775.832,-221.571 691.537,-178.264"/>
<polygon fill="none" stroke="#404040" points="691.341,-178.163 684.176,-178.979 680.667,-172.679 687.832,-171.863 691.341,-178.163"/>
<text text-anchor="middle" x="983.649" y="-282.5" font-family="Helvetica,sans-Serif" font-size="10.00"> &#45;mimicNLJointsOfFatherMap</text>
</g>
</g>
</svg>
