<?xml version="1.0" encoding="UTF-8" standalone="no"?>
<!DOCTYPE svg PUBLIC "-//W3C//DTD SVG 1.1//EN"
 "http://www.w3.org/Graphics/SVG/1.1/DTD/svg11.dtd">
<!-- Generated by graphviz version 2.38.0 (20140413.2041)
 -->
<!-- Title: ROSEE::UniversalRosEndEffectorExecutor Pages: 1 -->
<svg width="893pt" height="1172pt"
 viewBox="0.00 0.00 892.50 1172.00" xmlns="http://www.w3.org/2000/svg" xmlns:xlink="http://www.w3.org/1999/xlink">
<g id="graph0" class="graph" transform="scale(1 1) rotate(0) translate(4 1168)">
<title>ROSEE::UniversalRosEndEffectorExecutor</title>
<!-- Node1 -->
<g id="node1" class="node"><title>Node1</title>
<polygon fill="#bfbfbf" stroke="black" points="346.5,-0.5 346.5,-343.5 540.5,-343.5 540.5,-0.5 346.5,-0.5"/>
<text text-anchor="start" x="354.5" y="-331.5" font-family="Helvetica,sans-Serif" font-size="10.00">ROSEE::UniversalRosEndEffector</text>
<text text-anchor="middle" x="443.5" y="-320.5" font-family="Helvetica,sans-Serif" font-size="10.00">Executor</text>
<polyline fill="none" stroke="black" points="346.5,-313.5 540.5,-313.5 "/>
<text text-anchor="start" x="354.5" y="-301.5" font-family="Helvetica,sans-Serif" font-size="10.00">&#45; _nh</text>
<text text-anchor="start" x="354.5" y="-290.5" font-family="Helvetica,sans-Serif" font-size="10.00">&#45; _loop_timer</text>
<text text-anchor="start" x="354.5" y="-279.5" font-family="Helvetica,sans-Serif" font-size="10.00">&#45; _time</text>
<text text-anchor="start" x="354.5" y="-268.5" font-family="Helvetica,sans-Serif" font-size="10.00">&#45; _period</text>
<text text-anchor="start" x="354.5" y="-257.5" font-family="Helvetica,sans-Serif" font-size="10.00">&#45; _rate</text>
<text text-anchor="start" x="354.5" y="-246.5" font-family="Helvetica,sans-Serif" font-size="10.00">&#45; _ee</text>
<text text-anchor="start" x="354.5" y="-235.5" font-family="Helvetica,sans-Serif" font-size="10.00">&#45; _motor_reference_pub</text>
<text text-anchor="start" x="354.5" y="-224.5" font-family="Helvetica,sans-Serif" font-size="10.00">&#45; _mr_msg</text>
<text text-anchor="start" x="354.5" y="-213.5" font-family="Helvetica,sans-Serif" font-size="10.00">&#45; _motors_num</text>
<text text-anchor="start" x="354.5" y="-202.5" font-family="Helvetica,sans-Serif" font-size="10.00">&#45; _seq_id</text>
<text text-anchor="start" x="354.5" y="-191.5" font-family="Helvetica,sans-Serif" font-size="10.00">and 13 more...</text>
<polyline fill="none" stroke="black" points="346.5,-184.5 540.5,-184.5 "/>
<text text-anchor="start" x="354.5" y="-172.5" font-family="Helvetica,sans-Serif" font-size="10.00">+ UniversalRosEndEffectorExecutor()</text>
<text text-anchor="start" x="354.5" y="-161.5" font-family="Helvetica,sans-Serif" font-size="10.00">+ ~UniversalRosEndEffector</text>
<text text-anchor="start" x="354.5" y="-150.5" font-family="Helvetica,sans-Serif" font-size="10.00">Executor()</text>
<text text-anchor="start" x="354.5" y="-139.5" font-family="Helvetica,sans-Serif" font-size="10.00">+ spin()</text>
<text text-anchor="start" x="354.5" y="-128.5" font-family="Helvetica,sans-Serif" font-size="10.00">+ timer_callback()</text>
<text text-anchor="start" x="354.5" y="-117.5" font-family="Helvetica,sans-Serif" font-size="10.00">&#45; init_motor_reference_pub()</text>
<text text-anchor="start" x="354.5" y="-106.5" font-family="Helvetica,sans-Serif" font-size="10.00">&#45; init_qref_filter()</text>
<text text-anchor="start" x="354.5" y="-95.5" font-family="Helvetica,sans-Serif" font-size="10.00">&#45; init_joint_state_sub()</text>
<text text-anchor="start" x="354.5" y="-84.5" font-family="Helvetica,sans-Serif" font-size="10.00">&#45; init_grasping_primitive()</text>
<text text-anchor="start" x="354.5" y="-73.5" font-family="Helvetica,sans-Serif" font-size="10.00">&#45; publish_motor_reference()</text>
<text text-anchor="start" x="354.5" y="-62.5" font-family="Helvetica,sans-Serif" font-size="10.00">&#45; updateGoal()</text>
<text text-anchor="start" x="354.5" y="-51.5" font-family="Helvetica,sans-Serif" font-size="10.00">&#45; readOptionalCommands()</text>
<text text-anchor="start" x="354.5" y="-40.5" font-family="Helvetica,sans-Serif" font-size="10.00">&#45; updateRefGoal()</text>
<text text-anchor="start" x="354.5" y="-29.5" font-family="Helvetica,sans-Serif" font-size="10.00">&#45; sendFeedbackGoal()</text>
<text text-anchor="start" x="354.5" y="-18.5" font-family="Helvetica,sans-Serif" font-size="10.00">&#45; update_send_timed()</text>
<text text-anchor="start" x="354.5" y="-7.5" font-family="Helvetica,sans-Serif" font-size="10.00">&#45; joint_state_clbk()</text>
</g>
<!-- Node2 -->
<g id="node2" class="node"><title>Node2</title>
<g id="a_node2"><a xlink:href="classROSEE_1_1Utils_1_1Timer.html" target="_top" xlink:title="{ROSEE::Utils::Timer\l\&lt; Clock \&gt;\n|&#45; start_point\l|+ Timer()\l+ reset()\l+ elapsed_time()\l}">
<polygon fill="none" stroke="black" points="0,-562 0,-652 109,-652 109,-562 0,-562"/>
<text text-anchor="start" x="8" y="-640" font-family="Helvetica,sans-Serif" font-size="10.00">ROSEE::Utils::Timer</text>
<text text-anchor="middle" x="54.5" y="-629" font-family="Helvetica,sans-Serif" font-size="10.00">&lt; Clock &gt;</text>
<polyline fill="none" stroke="black" points="0,-622 109,-622 "/>
<text text-anchor="start" x="8" y="-610" font-family="Helvetica,sans-Serif" font-size="10.00">&#45; start_point</text>
<polyline fill="none" stroke="black" points="0,-603 109,-603 "/>
<text text-anchor="start" x="8" y="-591" font-family="Helvetica,sans-Serif" font-size="10.00">+ Timer()</text>
<text text-anchor="start" x="8" y="-580" font-family="Helvetica,sans-Serif" font-size="10.00">+ reset()</text>
<text text-anchor="start" x="8" y="-569" font-family="Helvetica,sans-Serif" font-size="10.00">+ elapsed_time()</text>
</a>
</g>
</g>
<!-- Node2&#45;&gt;Node1 -->
<g id="edge1" class="edge"><title>Node2&#45;&gt;Node1</title>
<path fill="none" stroke="#404040" d="M64.3429,-561.726C73.8682,-525.425 90.8355,-473.875 117.5,-435 174.261,-352.246 264.747,-282.484 336.003,-235.805"/>
<polygon fill="none" stroke="#404040" points="336.3,-235.612 339.16,-228.993 346.37,-229.086 343.51,-235.706 336.3,-235.612"/>
<text text-anchor="middle" x="192" y="-387" font-family="Helvetica,sans-Serif" font-size="10.00"> &#45;timer</text>
</g>
<!-- Node3 -->
<g id="node3" class="node"><title>Node3</title>
<g id="a_node3"><a xlink:href="classROSEE_1_1Utils_1_1SecondOrderFilter.html" target="_top" xlink:title="{ROSEE::Utils::SecondOrder\lFilter\&lt; Eigen::VectorXd \&gt;\n|&#45; _omega\l&#45; _eps\l&#45; _ts\l&#45; _b1\l&#45; _b2\l&#45; _a0\l&#45; _a1\l&#45; _a2\l&#45; _reset_has_been_called\l&#45; _y\l&#45; _yd\l&#45; _ydd\l&#45; _u\l&#45; _ud\l&#45; _udd\l|+ SecondOrderFilter()\l+ SecondOrderFilter()\l+ reset()\l+ process()\l+ getOutput()\l+ setOmega()\l+ getOmega()\l+ setDamping()\l+ getDamping()\l+ setTimeStep()\l+ getTimeStep()\l&#45; computeCoeff()\l}">
<polygon fill="none" stroke="black" points="127,-435.5 127,-778.5 272,-778.5 272,-435.5 127,-435.5"/>
<text text-anchor="start" x="135" y="-766.5" font-family="Helvetica,sans-Serif" font-size="10.00">ROSEE::Utils::SecondOrder</text>
<text text-anchor="middle" x="199.5" y="-755.5" font-family="Helvetica,sans-Serif" font-size="10.00">Filter&lt; Eigen::VectorXd &gt;</text>
<polyline fill="none" stroke="black" points="127,-748.5 272,-748.5 "/>
<text text-anchor="start" x="135" y="-736.5" font-family="Helvetica,sans-Serif" font-size="10.00">&#45; _omega</text>
<text text-anchor="start" x="135" y="-725.5" font-family="Helvetica,sans-Serif" font-size="10.00">&#45; _eps</text>
<text text-anchor="start" x="135" y="-714.5" font-family="Helvetica,sans-Serif" font-size="10.00">&#45; _ts</text>
<text text-anchor="start" x="135" y="-703.5" font-family="Helvetica,sans-Serif" font-size="10.00">&#45; _b1</text>
<text text-anchor="start" x="135" y="-692.5" font-family="Helvetica,sans-Serif" font-size="10.00">&#45; _b2</text>
<text text-anchor="start" x="135" y="-681.5" font-family="Helvetica,sans-Serif" font-size="10.00">&#45; _a0</text>
<text text-anchor="start" x="135" y="-670.5" font-family="Helvetica,sans-Serif" font-size="10.00">&#45; _a1</text>
<text text-anchor="start" x="135" y="-659.5" font-family="Helvetica,sans-Serif" font-size="10.00">&#45; _a2</text>
<text text-anchor="start" x="135" y="-648.5" font-family="Helvetica,sans-Serif" font-size="10.00">&#45; _reset_has_been_called</text>
<text text-anchor="start" x="135" y="-637.5" font-family="Helvetica,sans-Serif" font-size="10.00">&#45; _y</text>
<text text-anchor="start" x="135" y="-626.5" font-family="Helvetica,sans-Serif" font-size="10.00">&#45; _yd</text>
<text text-anchor="start" x="135" y="-615.5" font-family="Helvetica,sans-Serif" font-size="10.00">&#45; _ydd</text>
<text text-anchor="start" x="135" y="-604.5" font-family="Helvetica,sans-Serif" font-size="10.00">&#45; _u</text>
<text text-anchor="start" x="135" y="-593.5" font-family="Helvetica,sans-Serif" font-size="10.00">&#45; _ud</text>
<text text-anchor="start" x="135" y="-582.5" font-family="Helvetica,sans-Serif" font-size="10.00">&#45; _udd</text>
<polyline fill="none" stroke="black" points="127,-575.5 272,-575.5 "/>
<text text-anchor="start" x="135" y="-563.5" font-family="Helvetica,sans-Serif" font-size="10.00">+ SecondOrderFilter()</text>
<text text-anchor="start" x="135" y="-552.5" font-family="Helvetica,sans-Serif" font-size="10.00">+ SecondOrderFilter()</text>
<text text-anchor="start" x="135" y="-541.5" font-family="Helvetica,sans-Serif" font-size="10.00">+ reset()</text>
<text text-anchor="start" x="135" y="-530.5" font-family="Helvetica,sans-Serif" font-size="10.00">+ process()</text>
<text text-anchor="start" x="135" y="-519.5" font-family="Helvetica,sans-Serif" font-size="10.00">+ getOutput()</text>
<text text-anchor="start" x="135" y="-508.5" font-family="Helvetica,sans-Serif" font-size="10.00">+ setOmega()</text>
<text text-anchor="start" x="135" y="-497.5" font-family="Helvetica,sans-Serif" font-size="10.00">+ getOmega()</text>
<text text-anchor="start" x="135" y="-486.5" font-family="Helvetica,sans-Serif" font-size="10.00">+ setDamping()</text>
<text text-anchor="start" x="135" y="-475.5" font-family="Helvetica,sans-Serif" font-size="10.00">+ getDamping()</text>
<text text-anchor="start" x="135" y="-464.5" font-family="Helvetica,sans-Serif" font-size="10.00">+ setTimeStep()</text>
<text text-anchor="start" x="135" y="-453.5" font-family="Helvetica,sans-Serif" font-size="10.00">+ getTimeStep()</text>
<text text-anchor="start" x="135" y="-442.5" font-family="Helvetica,sans-Serif" font-size="10.00">&#45; computeCoeff()</text>
</a>
</g>
</g>
<!-- Node3&#45;&gt;Node1 -->
<g id="edge2" class="edge"><title>Node3&#45;&gt;Node1</title>
<path fill="none" stroke="#404040" d="M229.124,-435.21C237.011,-409.81 246.96,-384.601 259.5,-362 279.621,-325.736 308.532,-291.478 337.496,-262.344"/>
<polygon fill="none" stroke="#404040" points="337.534,-262.307 338.988,-255.244 346.067,-253.869 344.613,-260.932 337.534,-262.307"/>
<text text-anchor="middle" x="277" y="-387" font-family="Helvetica,sans-Serif" font-size="10.00"> &#45;_filt_q</text>
</g>
<!-- Node4 -->
<g id="node4" class="node"><title>Node4</title>
<polygon fill="none" stroke="#bfbfbf" points="533.5,-797.5 533.5,-865.5 655.5,-865.5 655.5,-797.5 533.5,-797.5"/>
<text text-anchor="start" x="541.5" y="-853.5" font-family="Helvetica,sans-Serif" font-size="10.00">std::map&lt; std::string,</text>
<text text-anchor="middle" x="594.5" y="-842.5" font-family="Helvetica,sans-Serif" font-size="10.00"> unsigned int &gt;</text>
<polyline fill="none" stroke="#bfbfbf" points="533.5,-835.5 655.5,-835.5 "/>
<text text-anchor="start" x="541.5" y="-823.5" font-family="Helvetica,sans-Serif" font-size="10.00">+ elements</text>
<polyline fill="none" stroke="#bfbfbf" points="533.5,-816.5 655.5,-816.5 "/>
<text text-anchor="middle" x="594.5" y="-804.5" font-family="Helvetica,sans-Serif" font-size="10.00"> </text>
</g>
<!-- Node4&#45;&gt;Node1 -->
<g id="edge3" class="edge"><title>Node4&#45;&gt;Node1</title>
<path fill="none" stroke="#404040" d="M533.336,-798.39C514.844,-788.551 499.172,-780.015 498.5,-779 492.611,-770.098 472.227,-530.781 458.003,-355.607"/>
<polygon fill="none" stroke="#404040" points="458.002,-355.598 453.531,-349.941 457.033,-343.638 461.504,-349.295 458.002,-355.598"/>
<text text-anchor="middle" x="557.5" y="-604.5" font-family="Helvetica,sans-Serif" font-size="10.00"> &#45;_motor_involved_mask</text>
</g>
<!-- Node5 -->
<g id="node5" class="node"><title>Node5</title>
<g id="a_node5"><a xlink:title="STL class. ">
<polygon fill="none" stroke="#bfbfbf" points="562,-1000.5 562,-1057.5 627,-1057.5 627,-1000.5 562,-1000.5"/>
<text text-anchor="middle" x="594.5" y="-1045.5" font-family="Helvetica,sans-Serif" font-size="10.00">std::string</text>
<polyline fill="none" stroke="#bfbfbf" points="562,-1038.5 627,-1038.5 "/>
<text text-anchor="middle" x="594.5" y="-1026.5" font-family="Helvetica,sans-Serif" font-size="10.00"> </text>
<polyline fill="none" stroke="#bfbfbf" points="562,-1019.5 627,-1019.5 "/>
<text text-anchor="middle" x="594.5" y="-1007.5" font-family="Helvetica,sans-Serif" font-size="10.00"> </text>
</a>
</g>
</g>
<!-- Node5&#45;&gt;Node1 -->
<g id="edge9" class="edge"><title>Node5&#45;&gt;Node1</title>
<path fill="none" stroke="#404040" d="M561.787,-1005.98C524.057,-978.397 464.074,-927.23 439.5,-866 430.118,-842.623 434.725,-553.183 439.032,-355.842"/>
<polygon fill="none" stroke="#404040" points="439.038,-355.568 435.171,-349.482 439.302,-343.571 443.169,-349.658 439.038,-355.568"/>
<text text-anchor="middle" x="482" y="-829" font-family="Helvetica,sans-Serif" font-size="10.00"> &#45;folderForActions</text>
</g>
<!-- Node5&#45;&gt;Node4 -->
<g id="edge4" class="edge"><title>Node5&#45;&gt;Node4</title>
<path fill="none" stroke="#404040" d="M594.5,-1000.4C594.5,-968.536 594.5,-915.643 594.5,-877.735"/>
<polygon fill="none" stroke="#404040" points="594.5,-877.506 590.5,-871.506 594.5,-865.506 598.5,-871.506 594.5,-877.506"/>
<text text-anchor="middle" x="611.5" y="-974" font-family="Helvetica,sans-Serif" font-size="10.00"> +keys</text>
</g>
<!-- Node8 -->
<g id="node8" class="node"><title>Node8</title>
<polygon fill="none" stroke="#bfbfbf" points="623,-890 623,-947 746,-947 746,-890 623,-890"/>
<text text-anchor="middle" x="684.5" y="-935" font-family="Helvetica,sans-Serif" font-size="10.00">std::set&lt; std::string &gt;</text>
<polyline fill="none" stroke="#bfbfbf" points="623,-928 746,-928 "/>
<text text-anchor="middle" x="684.5" y="-916" font-family="Helvetica,sans-Serif" font-size="10.00"> </text>
<polyline fill="none" stroke="#bfbfbf" points="623,-909 746,-909 "/>
<text text-anchor="middle" x="684.5" y="-897" font-family="Helvetica,sans-Serif" font-size="10.00"> </text>
</g>
<!-- Node5&#45;&gt;Node8 -->
<g id="edge8" class="edge"><title>Node5&#45;&gt;Node8</title>
<path fill="none" stroke="#404040" d="M617.444,-1000.34C628.445,-987.077 641.784,-970.996 653.658,-956.681"/>
<polygon fill="none" stroke="#404040" points="653.937,-956.345 654.689,-949.174 661.598,-947.109 660.846,-954.281 653.937,-956.345"/>
<text text-anchor="middle" x="656.5" y="-974" font-family="Helvetica,sans-Serif" font-size="10.00"> +keys</text>
</g>
<!-- Node9 -->
<g id="node9" class="node"><title>Node9</title>
<polygon fill="none" stroke="#bfbfbf" points="723.5,-803 723.5,-860 861.5,-860 861.5,-803 723.5,-803"/>
<text text-anchor="middle" x="792.5" y="-848" font-family="Helvetica,sans-Serif" font-size="10.00">std::vector&lt; std::string &gt;</text>
<polyline fill="none" stroke="#bfbfbf" points="723.5,-841 861.5,-841 "/>
<text text-anchor="middle" x="792.5" y="-829" font-family="Helvetica,sans-Serif" font-size="10.00"> </text>
<polyline fill="none" stroke="#bfbfbf" points="723.5,-822 861.5,-822 "/>
<text text-anchor="middle" x="792.5" y="-810" font-family="Helvetica,sans-Serif" font-size="10.00"> </text>
</g>
<!-- Node5&#45;&gt;Node9 -->
<g id="edge11" class="edge"><title>Node5&#45;&gt;Node9</title>
<path fill="none" stroke="#404040" d="M627.086,-1021.19C663.474,-1011.92 721.685,-991.837 755.5,-953 775.074,-930.519 784.293,-897.847 788.635,-872.193"/>
<polygon fill="none" stroke="#404040" points="788.647,-872.111 785.566,-865.591 790.399,-860.239 793.48,-866.759 788.647,-872.111"/>
<text text-anchor="middle" x="764" y="-974" font-family="Helvetica,sans-Serif" font-size="10.00"> +elements</text>
</g>
<!-- Node10 -->
<g id="node10" class="node"><title>Node10</title>
<polygon fill="none" stroke="#bfbfbf" points="242,-884.5 242,-952.5 379,-952.5 379,-884.5 242,-884.5"/>
<text text-anchor="start" x="250" y="-940.5" font-family="Helvetica,sans-Serif" font-size="10.00">std::map&lt; std::string,</text>
<text text-anchor="middle" x="310.5" y="-929.5" font-family="Helvetica,sans-Serif" font-size="10.00"> std::vector&lt; double &gt; &gt;</text>
<polyline fill="none" stroke="#bfbfbf" points="242,-922.5 379,-922.5 "/>
<text text-anchor="middle" x="310.5" y="-910.5" font-family="Helvetica,sans-Serif" font-size="10.00"> </text>
<polyline fill="none" stroke="#bfbfbf" points="242,-903.5 379,-903.5 "/>
<text text-anchor="middle" x="310.5" y="-891.5" font-family="Helvetica,sans-Serif" font-size="10.00"> </text>
</g>
<!-- Node5&#45;&gt;Node10 -->
<g id="edge13" class="edge"><title>Node5&#45;&gt;Node10</title>
<path fill="none" stroke="#404040" d="M561.832,-1024.57C521.292,-1019.4 450.762,-1007.38 395.5,-982 382.755,-976.146 370.03,-968.202 358.453,-959.943"/>
<polygon fill="none" stroke="#404040" points="358.246,-959.79 351.044,-959.433 348.603,-952.648 355.805,-953.004 358.246,-959.79"/>
<text text-anchor="middle" x="412.5" y="-974" font-family="Helvetica,sans-Serif" font-size="10.00"> +keys</text>
</g>
<!-- Node6 -->
<g id="node6" class="node"><title>Node6</title>
<g id="a_node6"><a xlink:title="STL class. ">
<polygon fill="none" stroke="#bfbfbf" points="543,-1095.5 543,-1163.5 646,-1163.5 646,-1095.5 543,-1095.5"/>
<text text-anchor="start" x="551" y="-1151.5" font-family="Helvetica,sans-Serif" font-size="10.00">std::basic_string&lt;</text>
<text text-anchor="middle" x="594.5" y="-1140.5" font-family="Helvetica,sans-Serif" font-size="10.00"> char &gt;</text>
<polyline fill="none" stroke="#bfbfbf" points="543,-1133.5 646,-1133.5 "/>
<text text-anchor="middle" x="594.5" y="-1121.5" font-family="Helvetica,sans-Serif" font-size="10.00"> </text>
<polyline fill="none" stroke="#bfbfbf" points="543,-1114.5 646,-1114.5 "/>
<text text-anchor="middle" x="594.5" y="-1102.5" font-family="Helvetica,sans-Serif" font-size="10.00"> </text>
</a>
</g>
</g>
<!-- Node6&#45;&gt;Node5 -->
<g id="edge5" class="edge"><title>Node6&#45;&gt;Node5</title>
<path fill="none" stroke="midnightblue" d="M594.5,-1085.38C594.5,-1075.94 594.5,-1066.2 594.5,-1057.57"/>
<polygon fill="none" stroke="midnightblue" points="591,-1085.43 594.5,-1095.43 598,-1085.43 591,-1085.43"/>
</g>
<!-- Node7 -->
<g id="node7" class="node"><title>Node7</title>
<polygon fill="none" stroke="#bfbfbf" points="625.5,-562 625.5,-652 757.5,-652 757.5,-562 625.5,-562"/>
<text text-anchor="start" x="633.5" y="-640" font-family="Helvetica,sans-Serif" font-size="10.00">std::map&lt; std::set</text>
<text text-anchor="start" x="633.5" y="-629" font-family="Helvetica,sans-Serif" font-size="10.00">&lt; std::string &gt;, ROSEE</text>
<text text-anchor="start" x="633.5" y="-618" font-family="Helvetica,sans-Serif" font-size="10.00">::ROSEE::ActionPrimitive</text>
<text text-anchor="middle" x="691.5" y="-607" font-family="Helvetica,sans-Serif" font-size="10.00">::Ptr &gt;</text>
<polyline fill="none" stroke="#bfbfbf" points="625.5,-600 757.5,-600 "/>
<text text-anchor="start" x="633.5" y="-588" font-family="Helvetica,sans-Serif" font-size="10.00">+ elements</text>
<polyline fill="none" stroke="#bfbfbf" points="625.5,-581 757.5,-581 "/>
<text text-anchor="middle" x="691.5" y="-569" font-family="Helvetica,sans-Serif" font-size="10.00"> </text>
</g>
<!-- Node7&#45;&gt;Node1 -->
<g id="edge6" class="edge"><title>Node7&#45;&gt;Node1</title>
<path fill="none" stroke="#404040" d="M672.836,-561.986C657.532,-526.972 634.684,-477.049 611.5,-435 591.851,-399.362 569.222,-362.016 547.068,-327.052"/>
<polygon fill="none" stroke="#404040" points="546.968,-326.895 540.372,-323.981 540.524,-316.772 547.12,-319.685 546.968,-326.895"/>
<text text-anchor="middle" x="657" y="-409" font-family="Helvetica,sans-Serif" font-size="10.00"> &#45;_pinchParsedMap</text>
<text text-anchor="middle" x="657" y="-398" font-family="Helvetica,sans-Serif" font-size="10.00">&#45;_tipFlexParsedMap</text>
<text text-anchor="middle" x="657" y="-387" font-family="Helvetica,sans-Serif" font-size="10.00">&#45;_fingFlexParsedMap</text>
<text text-anchor="middle" x="657" y="-376" font-family="Helvetica,sans-Serif" font-size="10.00">&#45;_pinchLooseParsedMap</text>
<text text-anchor="middle" x="657" y="-365" font-family="Helvetica,sans-Serif" font-size="10.00">&#45;_trigParsedMap</text>
</g>
<!-- Node8&#45;&gt;Node7 -->
<g id="edge7" class="edge"><title>Node8&#45;&gt;Node7</title>
<path fill="none" stroke="#404040" d="M681.967,-889.994C681.361,-882.241 680.802,-873.796 680.5,-866 677.806,-796.531 682.412,-716.558 686.462,-664.295"/>
<polygon fill="none" stroke="#404040" points="686.467,-664.241 682.957,-657.942 687.422,-652.279 690.932,-658.579 686.467,-664.241"/>
<text text-anchor="middle" x="697.5" y="-829" font-family="Helvetica,sans-Serif" font-size="10.00"> +keys</text>
</g>
<!-- Node9&#45;&gt;Node1 -->
<g id="edge10" class="edge"><title>Node9&#45;&gt;Node1</title>
<path fill="none" stroke="#404040" d="M795.333,-802.75C801.07,-736.931 810.071,-566.994 766.5,-435 733.25,-334.274 631.798,-262.874 551.367,-220.312"/>
<polygon fill="none" stroke="#404040" points="551.317,-220.286 544.149,-221.069 540.669,-214.753 547.837,-213.97 551.317,-220.286"/>
<text text-anchor="middle" x="842" y="-604.5" font-family="Helvetica,sans-Serif" font-size="10.00"> &#45;_motors_names</text>
</g>
<!-- Node10&#45;&gt;Node1 -->
<g id="edge12" class="edge"><title>Node10&#45;&gt;Node1</title>
<path fill="none" stroke="#404040" d="M306.782,-884.45C298.872,-805.469 284.069,-600.057 322.5,-435 328.713,-408.314 337.794,-381.073 348.233,-354.732"/>
<polygon fill="none" stroke="#404040" points="348.277,-354.623 346.825,-347.56 352.786,-343.503 354.238,-350.566 348.277,-354.623"/>
<text text-anchor="middle" x="376" y="-610" font-family="Helvetica,sans-Serif" font-size="10.00"> &#45;_joint_actual_pos</text>
<text text-anchor="middle" x="376" y="-599" font-family="Helvetica,sans-Serif" font-size="10.00">&#45;_motor_position_goal</text>
</g>
<!-- Node11 -->
<g id="node11" class="node"><title>Node11</title>
<polygon fill="none" stroke="#bfbfbf" points="249.5,-1000.5 249.5,-1057.5 371.5,-1057.5 371.5,-1000.5 249.5,-1000.5"/>
<text text-anchor="middle" x="310.5" y="-1045.5" font-family="Helvetica,sans-Serif" font-size="10.00">std::vector&lt; double &gt;</text>
<polyline fill="none" stroke="#bfbfbf" points="249.5,-1038.5 371.5,-1038.5 "/>
<text text-anchor="start" x="257.5" y="-1026.5" font-family="Helvetica,sans-Serif" font-size="10.00">+ elements</text>
<polyline fill="none" stroke="#bfbfbf" points="249.5,-1019.5 371.5,-1019.5 "/>
<text text-anchor="middle" x="310.5" y="-1007.5" font-family="Helvetica,sans-Serif" font-size="10.00"> </text>
</g>
<!-- Node11&#45;&gt;Node10 -->
<g id="edge14" class="edge"><title>Node11&#45;&gt;Node10</title>
<path fill="none" stroke="#404040" d="M310.5,-1000.34C310.5,-989.529 310.5,-976.847 310.5,-964.775"/>
<polygon fill="none" stroke="#404040" points="310.5,-964.519 306.5,-958.519 310.5,-952.519 314.5,-958.519 310.5,-964.519"/>
<text text-anchor="middle" x="339" y="-974" font-family="Helvetica,sans-Serif" font-size="10.00"> +elements</text>
</g>
</g>
</svg>
