<?xml version="1.0" encoding="UTF-8" standalone="no"?>
<!DOCTYPE svg PUBLIC "-//W3C//DTD SVG 1.1//EN"
 "http://www.w3.org/Graphics/SVG/1.1/DTD/svg11.dtd">
<!-- Generated by graphviz version 2.38.0 (20140413.2041)
 -->
<!-- Title: ROSEE::ActionSingleJointMultipleTips Pages: 1 -->
<svg width="566pt" height="967pt"
 viewBox="0.00 0.00 566.00 967.00" xmlns="http://www.w3.org/2000/svg" xmlns:xlink="http://www.w3.org/1999/xlink">
<g id="graph0" class="graph" transform="scale(1 1) rotate(0) translate(4 963)">
<title>ROSEE::ActionSingleJointMultipleTips</title>
<!-- Node1 -->
<g id="node1" class="node"><title>Node1</title>
<polygon fill="#bfbfbf" stroke="black" points="105,-0.5 105,-189.5 275,-189.5 275,-0.5 105,-0.5"/>
<text text-anchor="start" x="113" y="-177.5" font-family="Helvetica,sans-Serif" font-size="10.00">ROSEE::ActionSingleJoint</text>
<text text-anchor="middle" x="190" y="-166.5" font-family="Helvetica,sans-Serif" font-size="10.00">MultipleTips</text>
<polyline fill="none" stroke="black" points="105,-159.5 275,-159.5 "/>
<text text-anchor="middle" x="190" y="-147.5" font-family="Helvetica,sans-Serif" font-size="10.00"> </text>
<polyline fill="none" stroke="black" points="105,-140.5 275,-140.5 "/>
<text text-anchor="start" x="113" y="-128.5" font-family="Helvetica,sans-Serif" font-size="10.00">+ ActionSingleJointMultipleTips()</text>
<text text-anchor="start" x="113" y="-117.5" font-family="Helvetica,sans-Serif" font-size="10.00">+ ActionSingleJointMultipleTips()</text>
<text text-anchor="start" x="113" y="-106.5" font-family="Helvetica,sans-Serif" font-size="10.00">+ ActionSingleJointMultipleTips()</text>
<text text-anchor="start" x="113" y="-95.5" font-family="Helvetica,sans-Serif" font-size="10.00">+ getAllJointPos()</text>
<text text-anchor="start" x="113" y="-84.5" font-family="Helvetica,sans-Serif" font-size="10.00">+ getJointPos()</text>
<text text-anchor="start" x="113" y="-73.5" font-family="Helvetica,sans-Serif" font-size="10.00">+ getKeyElements()</text>
<text text-anchor="start" x="113" y="-62.5" font-family="Helvetica,sans-Serif" font-size="10.00">+ getJointPosFurther()</text>
<text text-anchor="start" x="113" y="-51.5" font-family="Helvetica,sans-Serif" font-size="10.00">+ getJointPosNearer()</text>
<text text-anchor="start" x="113" y="-40.5" font-family="Helvetica,sans-Serif" font-size="10.00">+ getJointName()</text>
<text text-anchor="start" x="113" y="-29.5" font-family="Helvetica,sans-Serif" font-size="10.00">+ print()</text>
<text text-anchor="start" x="113" y="-18.5" font-family="Helvetica,sans-Serif" font-size="10.00">+ emitYaml()</text>
<text text-anchor="start" x="113" y="-7.5" font-family="Helvetica,sans-Serif" font-size="10.00">+ fillFromYaml()</text>
</g>
<!-- Node2 -->
<g id="node2" class="node"><title>Node2</title>
<g id="a_node2"><a xlink:href="classROSEE_1_1ActionPrimitive.html" target="_top" xlink:title="Virtual class, Base of all the primitive actions. ">
<polygon fill="none" stroke="black" points="230,-227.5 230,-394.5 394,-394.5 394,-227.5 230,-227.5"/>
<text text-anchor="middle" x="312" y="-382.5" font-family="Helvetica,sans-Serif" font-size="10.00">ROSEE::ActionPrimitive</text>
<polyline fill="none" stroke="black" points="230,-375.5 394,-375.5 "/>
<text text-anchor="start" x="238" y="-363.5" font-family="Helvetica,sans-Serif" font-size="10.00"># nFingersInvolved</text>
<text text-anchor="start" x="238" y="-352.5" font-family="Helvetica,sans-Serif" font-size="10.00"># maxStoredActionStates</text>
<text text-anchor="start" x="238" y="-341.5" font-family="Helvetica,sans-Serif" font-size="10.00"># primitiveType</text>
<polyline fill="none" stroke="black" points="230,-334.5 394,-334.5 "/>
<text text-anchor="start" x="238" y="-322.5" font-family="Helvetica,sans-Serif" font-size="10.00">+ ~ActionPrimitive()</text>
<text text-anchor="start" x="238" y="-311.5" font-family="Helvetica,sans-Serif" font-size="10.00">+ getPrimitiveType()</text>
<text text-anchor="start" x="238" y="-300.5" font-family="Helvetica,sans-Serif" font-size="10.00">+ getMaxStoredActionStates()</text>
<text text-anchor="start" x="238" y="-289.5" font-family="Helvetica,sans-Serif" font-size="10.00">+ getnFingersInvolved()</text>
<text text-anchor="start" x="238" y="-278.5" font-family="Helvetica,sans-Serif" font-size="10.00">+ getKeyElements()</text>
<text text-anchor="start" x="238" y="-267.5" font-family="Helvetica,sans-Serif" font-size="10.00">+ setJointsInvolvedCount()</text>
<text text-anchor="start" x="238" y="-256.5" font-family="Helvetica,sans-Serif" font-size="10.00">+ emitYaml()</text>
<text text-anchor="start" x="238" y="-245.5" font-family="Helvetica,sans-Serif" font-size="10.00"># ActionPrimitive()</text>
<text text-anchor="start" x="238" y="-234.5" font-family="Helvetica,sans-Serif" font-size="10.00"># ActionPrimitive()</text>
</a>
</g>
</g>
<!-- Node2&#45;&gt;Node1 -->
<g id="edge1" class="edge"><title>Node2&#45;&gt;Node1</title>
<path fill="none" stroke="midnightblue" d="M259.844,-218.513C254.377,-208.924 248.814,-199.165 243.334,-189.553"/>
<polygon fill="none" stroke="midnightblue" points="256.838,-220.308 264.832,-227.262 262.92,-216.841 256.838,-220.308"/>
</g>
<!-- Node3 -->
<g id="node3" class="node"><title>Node3</title>
<g id="a_node3"><a xlink:href="classROSEE_1_1Action.html" target="_top" xlink:title="The pure virtual class representing an Action. ">
<polygon fill="none" stroke="black" points="277,-453.5 277,-631.5 421,-631.5 421,-453.5 277,-453.5"/>
<text text-anchor="middle" x="349" y="-619.5" font-family="Helvetica,sans-Serif" font-size="10.00">ROSEE::Action</text>
<polyline fill="none" stroke="black" points="277,-612.5 421,-612.5 "/>
<text text-anchor="start" x="285" y="-600.5" font-family="Helvetica,sans-Serif" font-size="10.00"># type</text>
<polyline fill="none" stroke="black" points="277,-593.5 421,-593.5 "/>
<text text-anchor="start" x="285" y="-581.5" font-family="Helvetica,sans-Serif" font-size="10.00">+ ~Action()</text>
<text text-anchor="start" x="285" y="-570.5" font-family="Helvetica,sans-Serif" font-size="10.00">+ getName()</text>
<text text-anchor="start" x="285" y="-559.5" font-family="Helvetica,sans-Serif" font-size="10.00">+ getType()</text>
<text text-anchor="start" x="285" y="-548.5" font-family="Helvetica,sans-Serif" font-size="10.00">+ getFingersInvolved()</text>
<text text-anchor="start" x="285" y="-537.5" font-family="Helvetica,sans-Serif" font-size="10.00">+ getJointsInvolvedCount()</text>
<text text-anchor="start" x="285" y="-526.5" font-family="Helvetica,sans-Serif" font-size="10.00">+ getJointPos()</text>
<text text-anchor="start" x="285" y="-515.5" font-family="Helvetica,sans-Serif" font-size="10.00">+ getAllJointPos()</text>
<text text-anchor="start" x="285" y="-504.5" font-family="Helvetica,sans-Serif" font-size="10.00">+ print()</text>
<text text-anchor="start" x="285" y="-493.5" font-family="Helvetica,sans-Serif" font-size="10.00">+ emitYaml()</text>
<text text-anchor="start" x="285" y="-482.5" font-family="Helvetica,sans-Serif" font-size="10.00">+ fillFromYaml()</text>
<text text-anchor="start" x="285" y="-471.5" font-family="Helvetica,sans-Serif" font-size="10.00"># Action()</text>
<text text-anchor="start" x="285" y="-460.5" font-family="Helvetica,sans-Serif" font-size="10.00"># Action()</text>
</a>
</g>
</g>
<!-- Node3&#45;&gt;Node2 -->
<g id="edge2" class="edge"><title>Node3&#45;&gt;Node2</title>
<path fill="none" stroke="midnightblue" d="M333.18,-443.371C330.558,-427.108 327.862,-410.39 325.31,-394.561"/>
<polygon fill="none" stroke="midnightblue" points="329.754,-444.11 334.801,-453.426 336.664,-442.996 329.754,-444.11"/>
</g>
<!-- Node4 -->
<g id="node4" class="node"><title>Node4</title>
<polygon fill="none" stroke="#bfbfbf" points="294.5,-685 294.5,-742 417.5,-742 417.5,-685 294.5,-685"/>
<text text-anchor="middle" x="356" y="-730" font-family="Helvetica,sans-Serif" font-size="10.00">std::set&lt; std::string &gt;</text>
<polyline fill="none" stroke="#bfbfbf" points="294.5,-723 417.5,-723 "/>
<text text-anchor="middle" x="356" y="-711" font-family="Helvetica,sans-Serif" font-size="10.00"> </text>
<polyline fill="none" stroke="#bfbfbf" points="294.5,-704 417.5,-704 "/>
<text text-anchor="middle" x="356" y="-692" font-family="Helvetica,sans-Serif" font-size="10.00"> </text>
</g>
<!-- Node4&#45;&gt;Node3 -->
<g id="edge3" class="edge"><title>Node4&#45;&gt;Node3</title>
<path fill="none" stroke="#404040" d="M354.86,-684.971C354.377,-673.31 353.782,-658.94 353.157,-643.872"/>
<polygon fill="none" stroke="#404040" points="353.149,-643.665 348.904,-637.836 352.652,-631.676 356.897,-637.505 353.149,-643.665"/>
<text text-anchor="middle" x="395.5" y="-653" font-family="Helvetica,sans-Serif" font-size="10.00"> #fingersInvolved</text>
</g>
<!-- Node5 -->
<g id="node5" class="node"><title>Node5</title>
<g id="a_node5"><a xlink:title="STL class. ">
<polygon fill="none" stroke="#bfbfbf" points="203.5,-795.5 203.5,-852.5 268.5,-852.5 268.5,-795.5 203.5,-795.5"/>
<text text-anchor="middle" x="236" y="-840.5" font-family="Helvetica,sans-Serif" font-size="10.00">std::string</text>
<polyline fill="none" stroke="#bfbfbf" points="203.5,-833.5 268.5,-833.5 "/>
<text text-anchor="middle" x="236" y="-821.5" font-family="Helvetica,sans-Serif" font-size="10.00"> </text>
<polyline fill="none" stroke="#bfbfbf" points="203.5,-814.5 268.5,-814.5 "/>
<text text-anchor="middle" x="236" y="-802.5" font-family="Helvetica,sans-Serif" font-size="10.00"> </text>
</a>
</g>
</g>
<!-- Node5&#45;&gt;Node1 -->
<g id="edge9" class="edge"><title>Node5&#45;&gt;Node1</title>
<path fill="none" stroke="#404040" d="M217.024,-795.344C204.353,-774.184 190,-743.758 190,-714.5 190,-714.5 190,-714.5 190,-310 190,-274.772 190,-236.281 190,-201.778"/>
<polygon fill="none" stroke="#404040" points="190,-201.752 186,-195.752 190,-189.752 194,-195.752 190,-201.752"/>
<text text-anchor="middle" x="223.5" y="-540" font-family="Helvetica,sans-Serif" font-size="10.00"> &#45;jointInvolved</text>
</g>
<!-- Node5&#45;&gt;Node3 -->
<g id="edge8" class="edge"><title>Node5&#45;&gt;Node3</title>
<path fill="none" stroke="#404040" d="M233.067,-795.479C230.946,-765.747 230.585,-717.468 245,-679 251.13,-662.642 259.945,-646.638 269.885,-631.691"/>
<polygon fill="none" stroke="#404040" points="270.096,-631.386 270.223,-624.176 276.927,-621.52 276.8,-628.73 270.096,-631.386"/>
<text text-anchor="middle" x="265" y="-711" font-family="Helvetica,sans-Serif" font-size="10.00"> #name</text>
</g>
<!-- Node5&#45;&gt;Node4 -->
<g id="edge4" class="edge"><title>Node5&#45;&gt;Node4</title>
<path fill="none" stroke="#404040" d="M266.592,-795.34C281.684,-781.694 300.074,-765.066 316.243,-750.447"/>
<polygon fill="none" stroke="#404040" points="316.563,-750.157 318.331,-743.166 325.464,-742.109 323.696,-749.1 316.563,-750.157"/>
<text text-anchor="middle" x="313" y="-769" font-family="Helvetica,sans-Serif" font-size="10.00"> +keys</text>
</g>
<!-- Node7 -->
<g id="node7" class="node"><title>Node7</title>
<polygon fill="none" stroke="#bfbfbf" points="436,-679.5 436,-747.5 558,-747.5 558,-679.5 436,-679.5"/>
<text text-anchor="start" x="444" y="-735.5" font-family="Helvetica,sans-Serif" font-size="10.00">std::map&lt; std::string,</text>
<text text-anchor="middle" x="497" y="-724.5" font-family="Helvetica,sans-Serif" font-size="10.00"> unsigned int &gt;</text>
<polyline fill="none" stroke="#bfbfbf" points="436,-717.5 558,-717.5 "/>
<text text-anchor="start" x="444" y="-705.5" font-family="Helvetica,sans-Serif" font-size="10.00">+ elements</text>
<polyline fill="none" stroke="#bfbfbf" points="436,-698.5 558,-698.5 "/>
<text text-anchor="middle" x="497" y="-686.5" font-family="Helvetica,sans-Serif" font-size="10.00"> </text>
</g>
<!-- Node5&#45;&gt;Node7 -->
<g id="edge7" class="edge"><title>Node5&#45;&gt;Node7</title>
<path fill="none" stroke="#404040" d="M268.736,-810.968C304.769,-797.546 364.58,-774.746 424.476,-749.005"/>
<polygon fill="none" stroke="#404040" points="424.643,-748.933 428.56,-742.878 435.655,-744.166 431.738,-750.22 424.643,-748.933"/>
<text text-anchor="middle" x="397" y="-769" font-family="Helvetica,sans-Serif" font-size="10.00"> +keys</text>
</g>
<!-- Node8 -->
<g id="node8" class="node"><title>Node8</title>
<polygon fill="none" stroke="#bfbfbf" points="24.5,-679.5 24.5,-747.5 161.5,-747.5 161.5,-679.5 24.5,-679.5"/>
<text text-anchor="start" x="32.5" y="-735.5" font-family="Helvetica,sans-Serif" font-size="10.00">std::map&lt; std::string,</text>
<text text-anchor="middle" x="93" y="-724.5" font-family="Helvetica,sans-Serif" font-size="10.00"> std::vector&lt; double &gt; &gt;</text>
<polyline fill="none" stroke="#bfbfbf" points="24.5,-717.5 161.5,-717.5 "/>
<text text-anchor="middle" x="93" y="-705.5" font-family="Helvetica,sans-Serif" font-size="10.00"> </text>
<polyline fill="none" stroke="#bfbfbf" points="24.5,-698.5 161.5,-698.5 "/>
<text text-anchor="middle" x="93" y="-686.5" font-family="Helvetica,sans-Serif" font-size="10.00"> </text>
</g>
<!-- Node5&#45;&gt;Node8 -->
<g id="edge11" class="edge"><title>Node5&#45;&gt;Node8</title>
<path fill="none" stroke="#404040" d="M203.443,-811.339C184.312,-803.491 160.358,-791.861 142,-777 135.001,-771.334 128.383,-764.491 122.409,-757.441"/>
<polygon fill="none" stroke="#404040" points="122.182,-757.158 115.31,-754.972 114.684,-747.788 121.556,-749.974 122.182,-757.158"/>
<text text-anchor="middle" x="159" y="-769" font-family="Helvetica,sans-Serif" font-size="10.00"> +keys</text>
</g>
<!-- Node6 -->
<g id="node6" class="node"><title>Node6</title>
<g id="a_node6"><a xlink:title="STL class. ">
<polygon fill="none" stroke="#bfbfbf" points="184.5,-890.5 184.5,-958.5 287.5,-958.5 287.5,-890.5 184.5,-890.5"/>
<text text-anchor="start" x="192.5" y="-946.5" font-family="Helvetica,sans-Serif" font-size="10.00">std::basic_string&lt;</text>
<text text-anchor="middle" x="236" y="-935.5" font-family="Helvetica,sans-Serif" font-size="10.00"> char &gt;</text>
<polyline fill="none" stroke="#bfbfbf" points="184.5,-928.5 287.5,-928.5 "/>
<text text-anchor="middle" x="236" y="-916.5" font-family="Helvetica,sans-Serif" font-size="10.00"> </text>
<polyline fill="none" stroke="#bfbfbf" points="184.5,-909.5 287.5,-909.5 "/>
<text text-anchor="middle" x="236" y="-897.5" font-family="Helvetica,sans-Serif" font-size="10.00"> </text>
</a>
</g>
</g>
<!-- Node6&#45;&gt;Node5 -->
<g id="edge5" class="edge"><title>Node6&#45;&gt;Node5</title>
<path fill="none" stroke="midnightblue" d="M236,-880.375C236,-870.94 236,-861.201 236,-852.571"/>
<polygon fill="none" stroke="midnightblue" points="232.5,-880.427 236,-890.427 239.5,-880.427 232.5,-880.427"/>
</g>
<!-- Node7&#45;&gt;Node3 -->
<g id="edge6" class="edge"><title>Node7&#45;&gt;Node3</title>
<path fill="none" stroke="#404040" d="M467.76,-679.111C456.493,-666.245 443.008,-650.847 429.233,-635.117"/>
<polygon fill="none" stroke="#404040" points="429.009,-634.862 422.047,-632.983 421.103,-625.834 428.065,-627.713 429.009,-634.862"/>
<text text-anchor="middle" x="501.5" y="-653" font-family="Helvetica,sans-Serif" font-size="10.00"> #jointsInvolvedCount</text>
</g>
<!-- Node8&#45;&gt;Node1 -->
<g id="edge10" class="edge"><title>Node8&#45;&gt;Node1</title>
<path fill="none" stroke="#404040" d="M90.7097,-679.468C87.4988,-624.028 83.547,-508.904 98,-413 108.871,-340.867 131.678,-262.09 151.863,-201.111"/>
<polygon fill="none" stroke="#404040" points="151.924,-200.93 150.033,-193.971 155.73,-189.549 157.62,-196.508 151.924,-200.93"/>
<text text-anchor="middle" x="137" y="-427" font-family="Helvetica,sans-Serif" font-size="10.00"> &#45;jointPosNearer</text>
<text text-anchor="middle" x="137" y="-416" font-family="Helvetica,sans-Serif" font-size="10.00">&#45;jointPosFurther</text>
</g>
<!-- Node9 -->
<g id="node9" class="node"><title>Node9</title>
<polygon fill="none" stroke="#bfbfbf" points="0,-795.5 0,-852.5 122,-852.5 122,-795.5 0,-795.5"/>
<text text-anchor="middle" x="61" y="-840.5" font-family="Helvetica,sans-Serif" font-size="10.00">std::vector&lt; double &gt;</text>
<polyline fill="none" stroke="#bfbfbf" points="0,-833.5 122,-833.5 "/>
<text text-anchor="start" x="8" y="-821.5" font-family="Helvetica,sans-Serif" font-size="10.00">+ elements</text>
<polyline fill="none" stroke="#bfbfbf" points="0,-814.5 122,-814.5 "/>
<text text-anchor="middle" x="61" y="-802.5" font-family="Helvetica,sans-Serif" font-size="10.00"> </text>
</g>
<!-- Node9&#45;&gt;Node8 -->
<g id="edge12" class="edge"><title>Node9&#45;&gt;Node8</title>
<path fill="none" stroke="#404040" d="M58.6127,-795.317C58.5482,-785.861 59.3224,-775.322 62,-766 62.6977,-763.571 63.5409,-761.14 64.4957,-758.73"/>
<polygon fill="none" stroke="#404040" points="64.575,-758.56 63.4888,-751.432 69.6515,-747.687 70.7377,-754.816 64.575,-758.56"/>
<text text-anchor="middle" x="90.5" y="-769" font-family="Helvetica,sans-Serif" font-size="10.00"> +elements</text>
</g>
</g>
</svg>
