<?xml version="1.0" encoding="UTF-8" standalone="no"?>
<!DOCTYPE svg PUBLIC "-//W3C//DTD SVG 1.1//EN"
 "http://www.w3.org/Graphics/SVG/1.1/DTD/svg11.dtd">
<!-- Generated by graphviz version 2.38.0 (20140413.2041)
 -->
<!-- Title: ROSEE::ActionSingleJointMultipleTips Pages: 1 -->
<svg width="331pt" height="946pt"
 viewBox="0.00 0.00 330.52 946.00" xmlns="http://www.w3.org/2000/svg" xmlns:xlink="http://www.w3.org/1999/xlink">
<g id="graph0" class="graph" transform="scale(1 1) rotate(0) translate(4 942)">
<title>ROSEE::ActionSingleJointMultipleTips</title>
<!-- Node1 -->
<g id="node1" class="node"><title>Node1</title>
<polygon fill="#bfbfbf" stroke="black" points="35.5185,-0.5 35.5185,-189.5 205.519,-189.5 205.519,-0.5 35.5185,-0.5"/>
<text text-anchor="start" x="43.5185" y="-177.5" font-family="Helvetica,sans-Serif" font-size="10.00">ROSEE::ActionSingleJoint</text>
<text text-anchor="middle" x="120.519" y="-166.5" font-family="Helvetica,sans-Serif" font-size="10.00">MultipleTips</text>
<polyline fill="none" stroke="black" points="35.5185,-159.5 205.519,-159.5 "/>
<text text-anchor="middle" x="120.519" y="-147.5" font-family="Helvetica,sans-Serif" font-size="10.00"> </text>
<polyline fill="none" stroke="black" points="35.5185,-140.5 205.519,-140.5 "/>
<text text-anchor="start" x="43.5185" y="-128.5" font-family="Helvetica,sans-Serif" font-size="10.00">+ ActionSingleJointMultipleTips()</text>
<text text-anchor="start" x="43.5185" y="-117.5" font-family="Helvetica,sans-Serif" font-size="10.00">+ ActionSingleJointMultipleTips()</text>
<text text-anchor="start" x="43.5185" y="-106.5" font-family="Helvetica,sans-Serif" font-size="10.00">+ ActionSingleJointMultipleTips()</text>
<text text-anchor="start" x="43.5185" y="-95.5" font-family="Helvetica,sans-Serif" font-size="10.00">+ getAllJointPos()</text>
<text text-anchor="start" x="43.5185" y="-84.5" font-family="Helvetica,sans-Serif" font-size="10.00">+ getJointPos()</text>
<text text-anchor="start" x="43.5185" y="-73.5" font-family="Helvetica,sans-Serif" font-size="10.00">+ getKeyElements()</text>
<text text-anchor="start" x="43.5185" y="-62.5" font-family="Helvetica,sans-Serif" font-size="10.00">+ getJointPosFurther()</text>
<text text-anchor="start" x="43.5185" y="-51.5" font-family="Helvetica,sans-Serif" font-size="10.00">+ getJointPosNearer()</text>
<text text-anchor="start" x="43.5185" y="-40.5" font-family="Helvetica,sans-Serif" font-size="10.00">+ getJointName()</text>
<text text-anchor="start" x="43.5185" y="-29.5" font-family="Helvetica,sans-Serif" font-size="10.00">+ print()</text>
<text text-anchor="start" x="43.5185" y="-18.5" font-family="Helvetica,sans-Serif" font-size="10.00">+ emitYaml()</text>
<text text-anchor="start" x="43.5185" y="-7.5" font-family="Helvetica,sans-Serif" font-size="10.00">+ fillFromYaml()</text>
</g>
<!-- Node2 -->
<g id="node2" class="node"><title>Node2</title>
<g id="a_node2"><a xlink:href="classROSEE_1_1ActionPrimitive.html" target="_top" xlink:title="Virtual class, Base of all the primitive actions. ">
<polygon fill="none" stroke="black" points="38.5185,-227.5 38.5185,-394.5 202.519,-394.5 202.519,-227.5 38.5185,-227.5"/>
<text text-anchor="middle" x="120.519" y="-382.5" font-family="Helvetica,sans-Serif" font-size="10.00">ROSEE::ActionPrimitive</text>
<polyline fill="none" stroke="black" points="38.5185,-375.5 202.519,-375.5 "/>
<text text-anchor="start" x="46.5185" y="-363.5" font-family="Helvetica,sans-Serif" font-size="10.00"># nFingersInvolved</text>
<text text-anchor="start" x="46.5185" y="-352.5" font-family="Helvetica,sans-Serif" font-size="10.00"># maxStoredActionStates</text>
<text text-anchor="start" x="46.5185" y="-341.5" font-family="Helvetica,sans-Serif" font-size="10.00"># primitiveType</text>
<polyline fill="none" stroke="black" points="38.5185,-334.5 202.519,-334.5 "/>
<text text-anchor="start" x="46.5185" y="-322.5" font-family="Helvetica,sans-Serif" font-size="10.00">+ ~ActionPrimitive()</text>
<text text-anchor="start" x="46.5185" y="-311.5" font-family="Helvetica,sans-Serif" font-size="10.00">+ getPrimitiveType()</text>
<text text-anchor="start" x="46.5185" y="-300.5" font-family="Helvetica,sans-Serif" font-size="10.00">+ getMaxStoredActionStates()</text>
<text text-anchor="start" x="46.5185" y="-289.5" font-family="Helvetica,sans-Serif" font-size="10.00">+ getnFingersInvolved()</text>
<text text-anchor="start" x="46.5185" y="-278.5" font-family="Helvetica,sans-Serif" font-size="10.00">+ getKeyElements()</text>
<text text-anchor="start" x="46.5185" y="-267.5" font-family="Helvetica,sans-Serif" font-size="10.00">+ setJointsInvolvedCount()</text>
<text text-anchor="start" x="46.5185" y="-256.5" font-family="Helvetica,sans-Serif" font-size="10.00">+ emitYaml()</text>
<text text-anchor="start" x="46.5185" y="-245.5" font-family="Helvetica,sans-Serif" font-size="10.00"># ActionPrimitive()</text>
<text text-anchor="start" x="46.5185" y="-234.5" font-family="Helvetica,sans-Serif" font-size="10.00"># ActionPrimitive()</text>
</a>
</g>
</g>
<!-- Node2&#45;&gt;Node1 -->
<g id="edge1" class="edge"><title>Node2&#45;&gt;Node1</title>
<path fill="none" stroke="midnightblue" d="M120.519,-217.044C120.519,-207.928 120.519,-198.675 120.519,-189.553"/>
<polygon fill="none" stroke="midnightblue" points="117.019,-217.262 120.519,-227.262 124.019,-217.262 117.019,-217.262"/>
</g>
<!-- Node3 -->
<g id="node3" class="node"><title>Node3</title>
<g id="a_node3"><a xlink:href="classROSEE_1_1Action.html" target="_top" xlink:title="The pure virtual class representing an Action. ">
<polygon fill="none" stroke="black" points="48.5185,-432.5 48.5185,-610.5 192.519,-610.5 192.519,-432.5 48.5185,-432.5"/>
<text text-anchor="middle" x="120.519" y="-598.5" font-family="Helvetica,sans-Serif" font-size="10.00">ROSEE::Action</text>
<polyline fill="none" stroke="black" points="48.5185,-591.5 192.519,-591.5 "/>
<text text-anchor="start" x="56.5185" y="-579.5" font-family="Helvetica,sans-Serif" font-size="10.00"># type</text>
<polyline fill="none" stroke="black" points="48.5185,-572.5 192.519,-572.5 "/>
<text text-anchor="start" x="56.5185" y="-560.5" font-family="Helvetica,sans-Serif" font-size="10.00">+ ~Action()</text>
<text text-anchor="start" x="56.5185" y="-549.5" font-family="Helvetica,sans-Serif" font-size="10.00">+ getName()</text>
<text text-anchor="start" x="56.5185" y="-538.5" font-family="Helvetica,sans-Serif" font-size="10.00">+ getType()</text>
<text text-anchor="start" x="56.5185" y="-527.5" font-family="Helvetica,sans-Serif" font-size="10.00">+ getFingersInvolved()</text>
<text text-anchor="start" x="56.5185" y="-516.5" font-family="Helvetica,sans-Serif" font-size="10.00">+ getJointsInvolvedCount()</text>
<text text-anchor="start" x="56.5185" y="-505.5" font-family="Helvetica,sans-Serif" font-size="10.00">+ getJointPos()</text>
<text text-anchor="start" x="56.5185" y="-494.5" font-family="Helvetica,sans-Serif" font-size="10.00">+ getAllJointPos()</text>
<text text-anchor="start" x="56.5185" y="-483.5" font-family="Helvetica,sans-Serif" font-size="10.00">+ print()</text>
<text text-anchor="start" x="56.5185" y="-472.5" font-family="Helvetica,sans-Serif" font-size="10.00">+ emitYaml()</text>
<text text-anchor="start" x="56.5185" y="-461.5" font-family="Helvetica,sans-Serif" font-size="10.00">+ fillFromYaml()</text>
<text text-anchor="start" x="56.5185" y="-450.5" font-family="Helvetica,sans-Serif" font-size="10.00"># Action()</text>
<text text-anchor="start" x="56.5185" y="-439.5" font-family="Helvetica,sans-Serif" font-size="10.00"># Action()</text>
</a>
</g>
</g>
<!-- Node3&#45;&gt;Node2 -->
<g id="edge2" class="edge"><title>Node3&#45;&gt;Node2</title>
<path fill="none" stroke="midnightblue" d="M120.519,-422.113C120.519,-412.984 120.519,-403.794 120.519,-394.826"/>
<polygon fill="none" stroke="midnightblue" points="117.019,-422.379 120.519,-432.379 124.019,-422.379 117.019,-422.379"/>
</g>
<!-- Node4 -->
<g id="node4" class="node"><title>Node4</title>
<polygon fill="none" stroke="#bfbfbf" points="59.0185,-664 59.0185,-721 182.019,-721 182.019,-664 59.0185,-664"/>
<text text-anchor="middle" x="120.519" y="-709" font-family="Helvetica,sans-Serif" font-size="10.00">std::set&lt; std::string &gt;</text>
<polyline fill="none" stroke="#bfbfbf" points="59.0185,-702 182.019,-702 "/>
<text text-anchor="middle" x="120.519" y="-690" font-family="Helvetica,sans-Serif" font-size="10.00"> </text>
<polyline fill="none" stroke="#bfbfbf" points="59.0185,-683 182.019,-683 "/>
<text text-anchor="middle" x="120.519" y="-671" font-family="Helvetica,sans-Serif" font-size="10.00"> </text>
</g>
<!-- Node4&#45;&gt;Node3 -->
<g id="edge3" class="edge"><title>Node4&#45;&gt;Node3</title>
<path fill="none" stroke="#404040" d="M120.519,-663.971C120.519,-652.31 120.519,-637.94 120.519,-622.872"/>
<polygon fill="none" stroke="#404040" points="120.519,-622.676 116.519,-616.676 120.519,-610.676 124.519,-616.676 120.519,-622.676"/>
<text text-anchor="middle" x="162.019" y="-632" font-family="Helvetica,sans-Serif" font-size="10.00"> #fingersInvolved</text>
</g>
<!-- Node5 -->
<g id="node5" class="node"><title>Node5</title>
<g id="a_node5"><a xlink:title="STL class. ">
<polygon fill="none" stroke="#bfbfbf" points="88.0185,-774.5 88.0185,-831.5 153.019,-831.5 153.019,-774.5 88.0185,-774.5"/>
<text text-anchor="middle" x="120.519" y="-819.5" font-family="Helvetica,sans-Serif" font-size="10.00">std::string</text>
<polyline fill="none" stroke="#bfbfbf" points="88.0185,-812.5 153.019,-812.5 "/>
<text text-anchor="middle" x="120.519" y="-800.5" font-family="Helvetica,sans-Serif" font-size="10.00"> </text>
<polyline fill="none" stroke="#bfbfbf" points="88.0185,-793.5 153.019,-793.5 "/>
<text text-anchor="middle" x="120.519" y="-781.5" font-family="Helvetica,sans-Serif" font-size="10.00"> </text>
</a>
</g>
</g>
<!-- Node5&#45;&gt;Node3 -->
<g id="edge8" class="edge"><title>Node5&#45;&gt;Node3</title>
<path fill="none" stroke="#404040" d="M87.8677,-790.036C61.4157,-778.399 25.9387,-757.912 9.5185,-727 -4.86777,-699.917 -0.799919,-686.879 9.5185,-658 16.575,-638.251 27.8851,-619.308 40.645,-602.172"/>
<polygon fill="none" stroke="#404040" points="40.9491,-601.78 41.466,-594.587 48.3042,-592.298 47.7872,-599.491 40.9491,-601.78"/>
<text text-anchor="middle" x="29.5185" y="-690" font-family="Helvetica,sans-Serif" font-size="10.00"> #name</text>
</g>
<!-- Node5&#45;&gt;Node4 -->
<g id="edge4" class="edge"><title>Node5&#45;&gt;Node4</title>
<path fill="none" stroke="#404040" d="M120.519,-774.34C120.519,-761.842 120.519,-746.842 120.519,-733.176"/>
<polygon fill="none" stroke="#404040" points="120.519,-733.109 116.519,-727.109 120.519,-721.109 124.519,-727.109 120.519,-733.109"/>
<text text-anchor="middle" x="137.519" y="-748" font-family="Helvetica,sans-Serif" font-size="10.00"> +keys</text>
</g>
<!-- Node7 -->
<g id="node7" class="node"><title>Node7</title>
<polygon fill="none" stroke="#bfbfbf" points="200.519,-658.5 200.519,-726.5 322.519,-726.5 322.519,-658.5 200.519,-658.5"/>
<text text-anchor="start" x="208.519" y="-714.5" font-family="Helvetica,sans-Serif" font-size="10.00">std::map&lt; std::string,</text>
<text text-anchor="middle" x="261.519" y="-703.5" font-family="Helvetica,sans-Serif" font-size="10.00"> unsigned int &gt;</text>
<polyline fill="none" stroke="#bfbfbf" points="200.519,-696.5 322.519,-696.5 "/>
<text text-anchor="start" x="208.519" y="-684.5" font-family="Helvetica,sans-Serif" font-size="10.00">+ elements</text>
<polyline fill="none" stroke="#bfbfbf" points="200.519,-677.5 322.519,-677.5 "/>
<text text-anchor="middle" x="261.519" y="-665.5" font-family="Helvetica,sans-Serif" font-size="10.00"> </text>
</g>
<!-- Node5&#45;&gt;Node7 -->
<g id="edge7" class="edge"><title>Node5&#45;&gt;Node7</title>
<path fill="none" stroke="#404040" d="M153.221,-776.835C169.778,-764.094 190.285,-748.315 208.984,-733.925"/>
<polygon fill="none" stroke="#404040" points="209.057,-733.869 211.373,-727.04 218.568,-726.551 216.252,-733.38 209.057,-733.869"/>
<text text-anchor="middle" x="208.519" y="-748" font-family="Helvetica,sans-Serif" font-size="10.00"> +keys</text>
</g>
<!-- Node6 -->
<g id="node6" class="node"><title>Node6</title>
<g id="a_node6"><a xlink:title="STL class. ">
<polygon fill="none" stroke="#bfbfbf" points="69.0185,-869.5 69.0185,-937.5 172.019,-937.5 172.019,-869.5 69.0185,-869.5"/>
<text text-anchor="start" x="77.0185" y="-925.5" font-family="Helvetica,sans-Serif" font-size="10.00">std::basic_string&lt;</text>
<text text-anchor="middle" x="120.519" y="-914.5" font-family="Helvetica,sans-Serif" font-size="10.00"> char &gt;</text>
<polyline fill="none" stroke="#bfbfbf" points="69.0185,-907.5 172.019,-907.5 "/>
<text text-anchor="middle" x="120.519" y="-895.5" font-family="Helvetica,sans-Serif" font-size="10.00"> </text>
<polyline fill="none" stroke="#bfbfbf" points="69.0185,-888.5 172.019,-888.5 "/>
<text text-anchor="middle" x="120.519" y="-876.5" font-family="Helvetica,sans-Serif" font-size="10.00"> </text>
</a>
</g>
</g>
<!-- Node6&#45;&gt;Node5 -->
<g id="edge5" class="edge"><title>Node6&#45;&gt;Node5</title>
<path fill="none" stroke="midnightblue" d="M120.519,-859.375C120.519,-849.94 120.519,-840.201 120.519,-831.571"/>
<polygon fill="none" stroke="midnightblue" points="117.019,-859.427 120.519,-869.427 124.019,-859.427 117.019,-859.427"/>
</g>
<!-- Node7&#45;&gt;Node3 -->
<g id="edge6" class="edge"><title>Node7&#45;&gt;Node3</title>
<path fill="none" stroke="#404040" d="M233.661,-658.111C223.918,-646.432 212.433,-632.667 200.581,-618.462"/>
<polygon fill="none" stroke="#404040" points="200.442,-618.295 193.527,-616.25 192.755,-609.081 199.67,-611.125 200.442,-618.295"/>
<text text-anchor="middle" x="269.019" y="-632" font-family="Helvetica,sans-Serif" font-size="10.00"> #jointsInvolvedCount</text>
</g>
</g>
</svg>
