<?xml version="1.0" encoding="UTF-8" standalone="no"?>
<!DOCTYPE svg PUBLIC "-//W3C//DTD SVG 1.1//EN"
 "http://www.w3.org/Graphics/SVG/1.1/DTD/svg11.dtd">
<!-- Generated by graphviz version 2.38.0 (20140413.2041)
 -->
<!-- Title: ROSEE::ActionPinchGeneric Pages: 1 -->
<svg width="331pt" height="847pt"
 viewBox="0.00 0.00 330.52 847.00" xmlns="http://www.w3.org/2000/svg" xmlns:xlink="http://www.w3.org/1999/xlink">
<g id="graph0" class="graph" transform="scale(1 1) rotate(0) translate(4 843)">
<title>ROSEE::ActionPinchGeneric</title>
<!-- Node1 -->
<g id="node1" class="node"><title>Node1</title>
<polygon fill="#bfbfbf" stroke="black" points="47.0185,-0.5 47.0185,-90.5 194.019,-90.5 194.019,-0.5 47.0185,-0.5"/>
<text text-anchor="middle" x="120.519" y="-78.5" font-family="Helvetica,sans-Serif" font-size="10.00">ROSEE::ActionPinchGeneric</text>
<polyline fill="none" stroke="black" points="47.0185,-71.5 194.019,-71.5 "/>
<text text-anchor="middle" x="120.519" y="-59.5" font-family="Helvetica,sans-Serif" font-size="10.00"> </text>
<polyline fill="none" stroke="black" points="47.0185,-52.5 194.019,-52.5 "/>
<text text-anchor="start" x="55.0185" y="-40.5" font-family="Helvetica,sans-Serif" font-size="10.00">+ ActionPinchGeneric()</text>
<text text-anchor="start" x="55.0185" y="-29.5" font-family="Helvetica,sans-Serif" font-size="10.00">+ ActionPinchGeneric()</text>
<text text-anchor="start" x="55.0185" y="-18.5" font-family="Helvetica,sans-Serif" font-size="10.00">+ ActionPinchGeneric()</text>
<text text-anchor="start" x="55.0185" y="-7.5" font-family="Helvetica,sans-Serif" font-size="10.00">+ getKeyElements()</text>
</g>
<!-- Node2 -->
<g id="node2" class="node"><title>Node2</title>
<g id="a_node2"><a xlink:href="classROSEE_1_1ActionPrimitive.html" target="_top" xlink:title="Virtual class, Base of all the primitive actions. ">
<polygon fill="none" stroke="black" points="38.5185,-128.5 38.5185,-295.5 202.519,-295.5 202.519,-128.5 38.5185,-128.5"/>
<text text-anchor="middle" x="120.519" y="-283.5" font-family="Helvetica,sans-Serif" font-size="10.00">ROSEE::ActionPrimitive</text>
<polyline fill="none" stroke="black" points="38.5185,-276.5 202.519,-276.5 "/>
<text text-anchor="start" x="46.5185" y="-264.5" font-family="Helvetica,sans-Serif" font-size="10.00"># nFingersInvolved</text>
<text text-anchor="start" x="46.5185" y="-253.5" font-family="Helvetica,sans-Serif" font-size="10.00"># maxStoredActionStates</text>
<text text-anchor="start" x="46.5185" y="-242.5" font-family="Helvetica,sans-Serif" font-size="10.00"># primitiveType</text>
<polyline fill="none" stroke="black" points="38.5185,-235.5 202.519,-235.5 "/>
<text text-anchor="start" x="46.5185" y="-223.5" font-family="Helvetica,sans-Serif" font-size="10.00">+ ~ActionPrimitive()</text>
<text text-anchor="start" x="46.5185" y="-212.5" font-family="Helvetica,sans-Serif" font-size="10.00">+ getPrimitiveType()</text>
<text text-anchor="start" x="46.5185" y="-201.5" font-family="Helvetica,sans-Serif" font-size="10.00">+ getMaxStoredActionStates()</text>
<text text-anchor="start" x="46.5185" y="-190.5" font-family="Helvetica,sans-Serif" font-size="10.00">+ getnFingersInvolved()</text>
<text text-anchor="start" x="46.5185" y="-179.5" font-family="Helvetica,sans-Serif" font-size="10.00">+ getKeyElements()</text>
<text text-anchor="start" x="46.5185" y="-168.5" font-family="Helvetica,sans-Serif" font-size="10.00">+ setJointsInvolvedCount()</text>
<text text-anchor="start" x="46.5185" y="-157.5" font-family="Helvetica,sans-Serif" font-size="10.00">+ emitYaml()</text>
<text text-anchor="start" x="46.5185" y="-146.5" font-family="Helvetica,sans-Serif" font-size="10.00"># ActionPrimitive()</text>
<text text-anchor="start" x="46.5185" y="-135.5" font-family="Helvetica,sans-Serif" font-size="10.00"># ActionPrimitive()</text>
</a>
</g>
</g>
<!-- Node2&#45;&gt;Node1 -->
<g id="edge1" class="edge"><title>Node2&#45;&gt;Node1</title>
<path fill="none" stroke="midnightblue" d="M120.519,-117.967C120.519,-108.522 120.519,-99.2693 120.519,-90.7199"/>
<polygon fill="none" stroke="midnightblue" points="117.019,-118.268 120.519,-128.268 124.019,-118.268 117.019,-118.268"/>
</g>
<!-- Node3 -->
<g id="node3" class="node"><title>Node3</title>
<g id="a_node3"><a xlink:href="classROSEE_1_1Action.html" target="_top" xlink:title="The pure virtual class representing an Action. ">
<polygon fill="none" stroke="black" points="48.5185,-333.5 48.5185,-511.5 192.519,-511.5 192.519,-333.5 48.5185,-333.5"/>
<text text-anchor="middle" x="120.519" y="-499.5" font-family="Helvetica,sans-Serif" font-size="10.00">ROSEE::Action</text>
<polyline fill="none" stroke="black" points="48.5185,-492.5 192.519,-492.5 "/>
<text text-anchor="start" x="56.5185" y="-480.5" font-family="Helvetica,sans-Serif" font-size="10.00"># type</text>
<polyline fill="none" stroke="black" points="48.5185,-473.5 192.519,-473.5 "/>
<text text-anchor="start" x="56.5185" y="-461.5" font-family="Helvetica,sans-Serif" font-size="10.00">+ ~Action()</text>
<text text-anchor="start" x="56.5185" y="-450.5" font-family="Helvetica,sans-Serif" font-size="10.00">+ getName()</text>
<text text-anchor="start" x="56.5185" y="-439.5" font-family="Helvetica,sans-Serif" font-size="10.00">+ getType()</text>
<text text-anchor="start" x="56.5185" y="-428.5" font-family="Helvetica,sans-Serif" font-size="10.00">+ getFingersInvolved()</text>
<text text-anchor="start" x="56.5185" y="-417.5" font-family="Helvetica,sans-Serif" font-size="10.00">+ getJointsInvolvedCount()</text>
<text text-anchor="start" x="56.5185" y="-406.5" font-family="Helvetica,sans-Serif" font-size="10.00">+ getJointPos()</text>
<text text-anchor="start" x="56.5185" y="-395.5" font-family="Helvetica,sans-Serif" font-size="10.00">+ getAllJointPos()</text>
<text text-anchor="start" x="56.5185" y="-384.5" font-family="Helvetica,sans-Serif" font-size="10.00">+ print()</text>
<text text-anchor="start" x="56.5185" y="-373.5" font-family="Helvetica,sans-Serif" font-size="10.00">+ emitYaml()</text>
<text text-anchor="start" x="56.5185" y="-362.5" font-family="Helvetica,sans-Serif" font-size="10.00">+ fillFromYaml()</text>
<text text-anchor="start" x="56.5185" y="-351.5" font-family="Helvetica,sans-Serif" font-size="10.00"># Action()</text>
<text text-anchor="start" x="56.5185" y="-340.5" font-family="Helvetica,sans-Serif" font-size="10.00"># Action()</text>
</a>
</g>
</g>
<!-- Node3&#45;&gt;Node2 -->
<g id="edge2" class="edge"><title>Node3&#45;&gt;Node2</title>
<path fill="none" stroke="midnightblue" d="M120.519,-323.113C120.519,-313.984 120.519,-304.794 120.519,-295.826"/>
<polygon fill="none" stroke="midnightblue" points="117.019,-323.379 120.519,-333.379 124.019,-323.379 117.019,-323.379"/>
</g>
<!-- Node4 -->
<g id="node4" class="node"><title>Node4</title>
<polygon fill="none" stroke="#bfbfbf" points="59.0185,-565 59.0185,-622 182.019,-622 182.019,-565 59.0185,-565"/>
<text text-anchor="middle" x="120.519" y="-610" font-family="Helvetica,sans-Serif" font-size="10.00">std::set&lt; std::string &gt;</text>
<polyline fill="none" stroke="#bfbfbf" points="59.0185,-603 182.019,-603 "/>
<text text-anchor="middle" x="120.519" y="-591" font-family="Helvetica,sans-Serif" font-size="10.00"> </text>
<polyline fill="none" stroke="#bfbfbf" points="59.0185,-584 182.019,-584 "/>
<text text-anchor="middle" x="120.519" y="-572" font-family="Helvetica,sans-Serif" font-size="10.00"> </text>
</g>
<!-- Node4&#45;&gt;Node3 -->
<g id="edge3" class="edge"><title>Node4&#45;&gt;Node3</title>
<path fill="none" stroke="#404040" d="M120.519,-564.971C120.519,-553.31 120.519,-538.94 120.519,-523.872"/>
<polygon fill="none" stroke="#404040" points="120.519,-523.676 116.519,-517.676 120.519,-511.676 124.519,-517.676 120.519,-523.676"/>
<text text-anchor="middle" x="162.019" y="-533" font-family="Helvetica,sans-Serif" font-size="10.00"> #fingersInvolved</text>
</g>
<!-- Node5 -->
<g id="node5" class="node"><title>Node5</title>
<g id="a_node5"><a xlink:title="STL class. ">
<polygon fill="none" stroke="#bfbfbf" points="88.0185,-675.5 88.0185,-732.5 153.019,-732.5 153.019,-675.5 88.0185,-675.5"/>
<text text-anchor="middle" x="120.519" y="-720.5" font-family="Helvetica,sans-Serif" font-size="10.00">std::string</text>
<polyline fill="none" stroke="#bfbfbf" points="88.0185,-713.5 153.019,-713.5 "/>
<text text-anchor="middle" x="120.519" y="-701.5" font-family="Helvetica,sans-Serif" font-size="10.00"> </text>
<polyline fill="none" stroke="#bfbfbf" points="88.0185,-694.5 153.019,-694.5 "/>
<text text-anchor="middle" x="120.519" y="-682.5" font-family="Helvetica,sans-Serif" font-size="10.00"> </text>
</a>
</g>
</g>
<!-- Node5&#45;&gt;Node3 -->
<g id="edge8" class="edge"><title>Node5&#45;&gt;Node3</title>
<path fill="none" stroke="#404040" d="M87.8677,-691.036C61.4157,-679.399 25.9387,-658.912 9.5185,-628 -4.86777,-600.917 -0.799919,-587.879 9.5185,-559 16.575,-539.251 27.8851,-520.308 40.645,-503.172"/>
<polygon fill="none" stroke="#404040" points="40.9491,-502.78 41.466,-495.587 48.3042,-493.298 47.7872,-500.491 40.9491,-502.78"/>
<text text-anchor="middle" x="29.5185" y="-591" font-family="Helvetica,sans-Serif" font-size="10.00"> #name</text>
</g>
<!-- Node5&#45;&gt;Node4 -->
<g id="edge4" class="edge"><title>Node5&#45;&gt;Node4</title>
<path fill="none" stroke="#404040" d="M120.519,-675.34C120.519,-662.842 120.519,-647.842 120.519,-634.176"/>
<polygon fill="none" stroke="#404040" points="120.519,-634.109 116.519,-628.109 120.519,-622.109 124.519,-628.109 120.519,-634.109"/>
<text text-anchor="middle" x="137.519" y="-649" font-family="Helvetica,sans-Serif" font-size="10.00"> +keys</text>
</g>
<!-- Node7 -->
<g id="node7" class="node"><title>Node7</title>
<polygon fill="none" stroke="#bfbfbf" points="200.519,-559.5 200.519,-627.5 322.519,-627.5 322.519,-559.5 200.519,-559.5"/>
<text text-anchor="start" x="208.519" y="-615.5" font-family="Helvetica,sans-Serif" font-size="10.00">std::map&lt; std::string,</text>
<text text-anchor="middle" x="261.519" y="-604.5" font-family="Helvetica,sans-Serif" font-size="10.00"> unsigned int &gt;</text>
<polyline fill="none" stroke="#bfbfbf" points="200.519,-597.5 322.519,-597.5 "/>
<text text-anchor="start" x="208.519" y="-585.5" font-family="Helvetica,sans-Serif" font-size="10.00">+ elements</text>
<polyline fill="none" stroke="#bfbfbf" points="200.519,-578.5 322.519,-578.5 "/>
<text text-anchor="middle" x="261.519" y="-566.5" font-family="Helvetica,sans-Serif" font-size="10.00"> </text>
</g>
<!-- Node5&#45;&gt;Node7 -->
<g id="edge7" class="edge"><title>Node5&#45;&gt;Node7</title>
<path fill="none" stroke="#404040" d="M153.221,-677.835C169.778,-665.094 190.285,-649.315 208.984,-634.925"/>
<polygon fill="none" stroke="#404040" points="209.057,-634.869 211.373,-628.04 218.568,-627.551 216.252,-634.38 209.057,-634.869"/>
<text text-anchor="middle" x="208.519" y="-649" font-family="Helvetica,sans-Serif" font-size="10.00"> +keys</text>
</g>
<!-- Node6 -->
<g id="node6" class="node"><title>Node6</title>
<g id="a_node6"><a xlink:title="STL class. ">
<polygon fill="none" stroke="#bfbfbf" points="69.0185,-770.5 69.0185,-838.5 172.019,-838.5 172.019,-770.5 69.0185,-770.5"/>
<text text-anchor="start" x="77.0185" y="-826.5" font-family="Helvetica,sans-Serif" font-size="10.00">std::basic_string&lt;</text>
<text text-anchor="middle" x="120.519" y="-815.5" font-family="Helvetica,sans-Serif" font-size="10.00"> char &gt;</text>
<polyline fill="none" stroke="#bfbfbf" points="69.0185,-808.5 172.019,-808.5 "/>
<text text-anchor="middle" x="120.519" y="-796.5" font-family="Helvetica,sans-Serif" font-size="10.00"> </text>
<polyline fill="none" stroke="#bfbfbf" points="69.0185,-789.5 172.019,-789.5 "/>
<text text-anchor="middle" x="120.519" y="-777.5" font-family="Helvetica,sans-Serif" font-size="10.00"> </text>
</a>
</g>
</g>
<!-- Node6&#45;&gt;Node5 -->
<g id="edge5" class="edge"><title>Node6&#45;&gt;Node5</title>
<path fill="none" stroke="midnightblue" d="M120.519,-760.375C120.519,-750.94 120.519,-741.201 120.519,-732.571"/>
<polygon fill="none" stroke="midnightblue" points="117.019,-760.427 120.519,-770.427 124.019,-760.427 117.019,-760.427"/>
</g>
<!-- Node7&#45;&gt;Node3 -->
<g id="edge6" class="edge"><title>Node7&#45;&gt;Node3</title>
<path fill="none" stroke="#404040" d="M233.661,-559.111C223.918,-547.432 212.433,-533.667 200.581,-519.462"/>
<polygon fill="none" stroke="#404040" points="200.442,-519.295 193.527,-517.25 192.755,-510.081 199.67,-512.125 200.442,-519.295"/>
<text text-anchor="middle" x="269.019" y="-533" font-family="Helvetica,sans-Serif" font-size="10.00"> #jointsInvolvedCount</text>
</g>
</g>
</svg>
