<?xml version="1.0" encoding="UTF-8" standalone="no"?>
<!DOCTYPE svg PUBLIC "-//W3C//DTD SVG 1.1//EN"
 "http://www.w3.org/Graphics/SVG/1.1/DTD/svg11.dtd">
<!-- Generated by graphviz version 2.38.0 (20140413.2041)
 -->
<!-- Title: ROSEE::ActionTrig Pages: 1 -->
<svg width="520pt" height="912pt"
 viewBox="0.00 0.00 520.00 912.00" xmlns="http://www.w3.org/2000/svg" xmlns:xlink="http://www.w3.org/1999/xlink">
<g id="graph0" class="graph" transform="scale(1 1) rotate(0) translate(4 908)">
<title>ROSEE::ActionTrig</title>
<!-- Node1 -->
<g id="node1" class="node"><title>Node1</title>
<polygon fill="#bfbfbf" stroke="black" points="63.5,-0.5 63.5,-145.5 182.5,-145.5 182.5,-0.5 63.5,-0.5"/>
<text text-anchor="middle" x="123" y="-133.5" font-family="Helvetica,sans-Serif" font-size="10.00">ROSEE::ActionTrig</text>
<polyline fill="none" stroke="black" points="63.5,-126.5 182.5,-126.5 "/>
<text text-anchor="middle" x="123" y="-114.5" font-family="Helvetica,sans-Serif" font-size="10.00"> </text>
<polyline fill="none" stroke="black" points="63.5,-107.5 182.5,-107.5 "/>
<text text-anchor="start" x="71.5" y="-95.5" font-family="Helvetica,sans-Serif" font-size="10.00">+ ActionTrig()</text>
<text text-anchor="start" x="71.5" y="-84.5" font-family="Helvetica,sans-Serif" font-size="10.00">+ ActionTrig()</text>
<text text-anchor="start" x="71.5" y="-73.5" font-family="Helvetica,sans-Serif" font-size="10.00">+ getAllJointPos()</text>
<text text-anchor="start" x="71.5" y="-62.5" font-family="Helvetica,sans-Serif" font-size="10.00">+ getKeyElements()</text>
<text text-anchor="start" x="71.5" y="-51.5" font-family="Helvetica,sans-Serif" font-size="10.00">+ getJointPos()</text>
<text text-anchor="start" x="71.5" y="-40.5" font-family="Helvetica,sans-Serif" font-size="10.00">+ setJointPos()</text>
<text text-anchor="start" x="71.5" y="-29.5" font-family="Helvetica,sans-Serif" font-size="10.00">+ getFingerInvolved()</text>
<text text-anchor="start" x="71.5" y="-18.5" font-family="Helvetica,sans-Serif" font-size="10.00">+ setFingerInvolved()</text>
<text text-anchor="start" x="71.5" y="-7.5" font-family="Helvetica,sans-Serif" font-size="10.00">+ fillFromYaml()</text>
</g>
<!-- Node2 -->
<g id="node2" class="node"><title>Node2</title>
<g id="a_node2"><a xlink:href="classROSEE_1_1ActionPrimitive.html" target="_top" xlink:title="Virtual class, Base of all the primitive actions. ">
<polygon fill="none" stroke="black" points="120,-183.5 120,-350.5 284,-350.5 284,-183.5 120,-183.5"/>
<text text-anchor="middle" x="202" y="-338.5" font-family="Helvetica,sans-Serif" font-size="10.00">ROSEE::ActionPrimitive</text>
<polyline fill="none" stroke="black" points="120,-331.5 284,-331.5 "/>
<text text-anchor="start" x="128" y="-319.5" font-family="Helvetica,sans-Serif" font-size="10.00"># nFingersInvolved</text>
<text text-anchor="start" x="128" y="-308.5" font-family="Helvetica,sans-Serif" font-size="10.00"># maxStoredActionStates</text>
<text text-anchor="start" x="128" y="-297.5" font-family="Helvetica,sans-Serif" font-size="10.00"># primitiveType</text>
<polyline fill="none" stroke="black" points="120,-290.5 284,-290.5 "/>
<text text-anchor="start" x="128" y="-278.5" font-family="Helvetica,sans-Serif" font-size="10.00">+ ~ActionPrimitive()</text>
<text text-anchor="start" x="128" y="-267.5" font-family="Helvetica,sans-Serif" font-size="10.00">+ getPrimitiveType()</text>
<text text-anchor="start" x="128" y="-256.5" font-family="Helvetica,sans-Serif" font-size="10.00">+ getMaxStoredActionStates()</text>
<text text-anchor="start" x="128" y="-245.5" font-family="Helvetica,sans-Serif" font-size="10.00">+ getnFingersInvolved()</text>
<text text-anchor="start" x="128" y="-234.5" font-family="Helvetica,sans-Serif" font-size="10.00">+ getKeyElements()</text>
<text text-anchor="start" x="128" y="-223.5" font-family="Helvetica,sans-Serif" font-size="10.00">+ setJointsInvolvedCount()</text>
<text text-anchor="start" x="128" y="-212.5" font-family="Helvetica,sans-Serif" font-size="10.00">+ emitYaml()</text>
<text text-anchor="start" x="128" y="-201.5" font-family="Helvetica,sans-Serif" font-size="10.00"># ActionPrimitive()</text>
<text text-anchor="start" x="128" y="-190.5" font-family="Helvetica,sans-Serif" font-size="10.00"># ActionPrimitive()</text>
</a>
</g>
</g>
<!-- Node2&#45;&gt;Node1 -->
<g id="edge1" class="edge"><title>Node2&#45;&gt;Node1</title>
<path fill="none" stroke="midnightblue" d="M164.131,-173.963C160.21,-164.434 156.268,-154.853 152.459,-145.596"/>
<polygon fill="none" stroke="midnightblue" points="160.997,-175.544 168.038,-183.46 167.47,-172.881 160.997,-175.544"/>
</g>
<!-- Node3 -->
<g id="node3" class="node"><title>Node3</title>
<g id="a_node3"><a xlink:href="classROSEE_1_1Action.html" target="_top" xlink:title="The pure virtual class representing an Action. ">
<polygon fill="none" stroke="black" points="150,-398.5 150,-576.5 294,-576.5 294,-398.5 150,-398.5"/>
<text text-anchor="middle" x="222" y="-564.5" font-family="Helvetica,sans-Serif" font-size="10.00">ROSEE::Action</text>
<polyline fill="none" stroke="black" points="150,-557.5 294,-557.5 "/>
<text text-anchor="start" x="158" y="-545.5" font-family="Helvetica,sans-Serif" font-size="10.00"># type</text>
<polyline fill="none" stroke="black" points="150,-538.5 294,-538.5 "/>
<text text-anchor="start" x="158" y="-526.5" font-family="Helvetica,sans-Serif" font-size="10.00">+ ~Action()</text>
<text text-anchor="start" x="158" y="-515.5" font-family="Helvetica,sans-Serif" font-size="10.00">+ getName()</text>
<text text-anchor="start" x="158" y="-504.5" font-family="Helvetica,sans-Serif" font-size="10.00">+ getType()</text>
<text text-anchor="start" x="158" y="-493.5" font-family="Helvetica,sans-Serif" font-size="10.00">+ getFingersInvolved()</text>
<text text-anchor="start" x="158" y="-482.5" font-family="Helvetica,sans-Serif" font-size="10.00">+ getJointsInvolvedCount()</text>
<text text-anchor="start" x="158" y="-471.5" font-family="Helvetica,sans-Serif" font-size="10.00">+ getJointPos()</text>
<text text-anchor="start" x="158" y="-460.5" font-family="Helvetica,sans-Serif" font-size="10.00">+ getAllJointPos()</text>
<text text-anchor="start" x="158" y="-449.5" font-family="Helvetica,sans-Serif" font-size="10.00">+ print()</text>
<text text-anchor="start" x="158" y="-438.5" font-family="Helvetica,sans-Serif" font-size="10.00">+ emitYaml()</text>
<text text-anchor="start" x="158" y="-427.5" font-family="Helvetica,sans-Serif" font-size="10.00">+ fillFromYaml()</text>
<text text-anchor="start" x="158" y="-416.5" font-family="Helvetica,sans-Serif" font-size="10.00"># Action()</text>
<text text-anchor="start" x="158" y="-405.5" font-family="Helvetica,sans-Serif" font-size="10.00"># Action()</text>
</a>
</g>
</g>
<!-- Node3&#45;&gt;Node2 -->
<g id="edge2" class="edge"><title>Node3&#45;&gt;Node2</title>
<path fill="none" stroke="midnightblue" d="M213.004,-388.221C211.852,-375.638 210.683,-362.859 209.557,-350.56"/>
<polygon fill="none" stroke="midnightblue" points="209.526,-388.618 213.923,-398.258 216.497,-387.98 209.526,-388.618"/>
</g>
<!-- Node4 -->
<g id="node4" class="node"><title>Node4</title>
<polygon fill="none" stroke="#bfbfbf" points="248.5,-630 248.5,-687 371.5,-687 371.5,-630 248.5,-630"/>
<text text-anchor="middle" x="310" y="-675" font-family="Helvetica,sans-Serif" font-size="10.00">std::set&lt; std::string &gt;</text>
<polyline fill="none" stroke="#bfbfbf" points="248.5,-668 371.5,-668 "/>
<text text-anchor="middle" x="310" y="-656" font-family="Helvetica,sans-Serif" font-size="10.00"> </text>
<polyline fill="none" stroke="#bfbfbf" points="248.5,-649 371.5,-649 "/>
<text text-anchor="middle" x="310" y="-637" font-family="Helvetica,sans-Serif" font-size="10.00"> </text>
</g>
<!-- Node4&#45;&gt;Node3 -->
<g id="edge3" class="edge"><title>Node4&#45;&gt;Node3</title>
<path fill="none" stroke="#404040" d="M295.665,-629.971C289.413,-617.964 281.665,-603.084 273.564,-587.527"/>
<polygon fill="none" stroke="#404040" points="273.456,-587.319 267.137,-583.845 267.914,-576.676 274.233,-580.15 273.456,-587.319"/>
<text text-anchor="middle" x="323.5" y="-598" font-family="Helvetica,sans-Serif" font-size="10.00"> #fingersInvolved</text>
</g>
<!-- Node5 -->
<g id="node5" class="node"><title>Node5</title>
<g id="a_node5"><a xlink:title="STL class. ">
<polygon fill="none" stroke="#bfbfbf" points="195.5,-740.5 195.5,-797.5 260.5,-797.5 260.5,-740.5 195.5,-740.5"/>
<text text-anchor="middle" x="228" y="-785.5" font-family="Helvetica,sans-Serif" font-size="10.00">std::string</text>
<polyline fill="none" stroke="#bfbfbf" points="195.5,-778.5 260.5,-778.5 "/>
<text text-anchor="middle" x="228" y="-766.5" font-family="Helvetica,sans-Serif" font-size="10.00"> </text>
<polyline fill="none" stroke="#bfbfbf" points="195.5,-759.5 260.5,-759.5 "/>
<text text-anchor="middle" x="228" y="-747.5" font-family="Helvetica,sans-Serif" font-size="10.00"> </text>
</a>
</g>
</g>
<!-- Node5&#45;&gt;Node3 -->
<g id="edge8" class="edge"><title>Node5&#45;&gt;Node3</title>
<path fill="none" stroke="#404040" d="M214.439,-740.231C208.419,-726.394 202.022,-709.194 199,-693 192.711,-659.296 194.369,-622.124 198.9,-588.82"/>
<polygon fill="none" stroke="#404040" points="198.931,-588.61 195.853,-582.088 200.689,-576.739 203.767,-583.261 198.931,-588.61"/>
<text text-anchor="middle" x="219" y="-656" font-family="Helvetica,sans-Serif" font-size="10.00"> #name</text>
</g>
<!-- Node5&#45;&gt;Node4 -->
<g id="edge4" class="edge"><title>Node5&#45;&gt;Node4</title>
<path fill="none" stroke="#404040" d="M248.904,-740.34C258.832,-727.204 270.848,-711.305 281.587,-697.095"/>
<polygon fill="none" stroke="#404040" points="281.899,-696.683 282.325,-689.484 289.134,-687.109 288.707,-694.308 281.899,-696.683"/>
<text text-anchor="middle" x="286" y="-714" font-family="Helvetica,sans-Serif" font-size="10.00"> +keys</text>
</g>
<!-- Node7 -->
<g id="node7" class="node"><title>Node7</title>
<polygon fill="none" stroke="#bfbfbf" points="390,-624.5 390,-692.5 512,-692.5 512,-624.5 390,-624.5"/>
<text text-anchor="start" x="398" y="-680.5" font-family="Helvetica,sans-Serif" font-size="10.00">std::map&lt; std::string,</text>
<text text-anchor="middle" x="451" y="-669.5" font-family="Helvetica,sans-Serif" font-size="10.00"> unsigned int &gt;</text>
<polyline fill="none" stroke="#bfbfbf" points="390,-662.5 512,-662.5 "/>
<text text-anchor="start" x="398" y="-650.5" font-family="Helvetica,sans-Serif" font-size="10.00">+ elements</text>
<polyline fill="none" stroke="#bfbfbf" points="390,-643.5 512,-643.5 "/>
<text text-anchor="middle" x="451" y="-631.5" font-family="Helvetica,sans-Serif" font-size="10.00"> </text>
</g>
<!-- Node5&#45;&gt;Node7 -->
<g id="edge7" class="edge"><title>Node5&#45;&gt;Node7</title>
<path fill="none" stroke="#404040" d="M260.904,-751.99C291.802,-736.957 339.082,-713.954 378.758,-694.649"/>
<polygon fill="none" stroke="#404040" points="378.937,-694.562 382.582,-688.34 389.728,-689.312 386.083,-695.534 378.937,-694.562"/>
<text text-anchor="middle" x="356" y="-714" font-family="Helvetica,sans-Serif" font-size="10.00"> +keys</text>
</g>
<!-- Node8 -->
<g id="node8" class="node"><title>Node8</title>
<polygon fill="none" stroke="#bfbfbf" points="16.5,-624.5 16.5,-692.5 153.5,-692.5 153.5,-624.5 16.5,-624.5"/>
<text text-anchor="start" x="24.5" y="-680.5" font-family="Helvetica,sans-Serif" font-size="10.00">std::map&lt; std::string,</text>
<text text-anchor="middle" x="85" y="-669.5" font-family="Helvetica,sans-Serif" font-size="10.00"> std::vector&lt; double &gt; &gt;</text>
<polyline fill="none" stroke="#bfbfbf" points="16.5,-662.5 153.5,-662.5 "/>
<text text-anchor="middle" x="85" y="-650.5" font-family="Helvetica,sans-Serif" font-size="10.00"> </text>
<polyline fill="none" stroke="#bfbfbf" points="16.5,-643.5 153.5,-643.5 "/>
<text text-anchor="middle" x="85" y="-631.5" font-family="Helvetica,sans-Serif" font-size="10.00"> </text>
</g>
<!-- Node5&#45;&gt;Node8 -->
<g id="edge10" class="edge"><title>Node5&#45;&gt;Node8</title>
<path fill="none" stroke="#404040" d="M195.379,-753.812C178.599,-745.728 158.303,-734.686 142,-722 134.34,-716.039 126.836,-708.99 119.917,-701.812"/>
<polygon fill="none" stroke="#404040" points="119.654,-701.528 112.642,-699.844 111.5,-692.724 118.512,-694.408 119.654,-701.528"/>
<text text-anchor="middle" x="159" y="-714" font-family="Helvetica,sans-Serif" font-size="10.00"> +keys</text>
</g>
<!-- Node6 -->
<g id="node6" class="node"><title>Node6</title>
<g id="a_node6"><a xlink:title="STL class. ">
<polygon fill="none" stroke="#bfbfbf" points="176.5,-835.5 176.5,-903.5 279.5,-903.5 279.5,-835.5 176.5,-835.5"/>
<text text-anchor="start" x="184.5" y="-891.5" font-family="Helvetica,sans-Serif" font-size="10.00">std::basic_string&lt;</text>
<text text-anchor="middle" x="228" y="-880.5" font-family="Helvetica,sans-Serif" font-size="10.00"> char &gt;</text>
<polyline fill="none" stroke="#bfbfbf" points="176.5,-873.5 279.5,-873.5 "/>
<text text-anchor="middle" x="228" y="-861.5" font-family="Helvetica,sans-Serif" font-size="10.00"> </text>
<polyline fill="none" stroke="#bfbfbf" points="176.5,-854.5 279.5,-854.5 "/>
<text text-anchor="middle" x="228" y="-842.5" font-family="Helvetica,sans-Serif" font-size="10.00"> </text>
</a>
</g>
</g>
<!-- Node6&#45;&gt;Node5 -->
<g id="edge5" class="edge"><title>Node6&#45;&gt;Node5</title>
<path fill="none" stroke="midnightblue" d="M228,-825.375C228,-815.94 228,-806.201 228,-797.571"/>
<polygon fill="none" stroke="midnightblue" points="224.5,-825.427 228,-835.427 231.5,-825.427 224.5,-825.427"/>
</g>
<!-- Node7&#45;&gt;Node3 -->
<g id="edge6" class="edge"><title>Node7&#45;&gt;Node3</title>
<path fill="none" stroke="#404040" d="M407.741,-624.218C395.283,-614.717 381.643,-604.396 369,-595 348.037,-579.421 325.241,-562.768 303.996,-547.368"/>
<polygon fill="none" stroke="#404040" points="303.752,-547.192 296.547,-546.913 294.032,-540.155 301.238,-540.433 303.752,-547.192"/>
<text text-anchor="middle" x="434.5" y="-598" font-family="Helvetica,sans-Serif" font-size="10.00"> #jointsInvolvedCount</text>
</g>
<!-- Node8&#45;&gt;Node1 -->
<g id="edge9" class="edge"><title>Node8&#45;&gt;Node1</title>
<path fill="none" stroke="#404040" d="M86.1884,-624.38C89.101,-547.023 97.3681,-348.475 111,-183 111.675,-174.811 112.463,-166.285 113.307,-157.768"/>
<polygon fill="none" stroke="#404040" points="113.313,-157.708 109.944,-151.333 114.532,-145.77 117.902,-152.145 113.313,-157.708"/>
<text text-anchor="middle" x="121.5" y="-372" font-family="Helvetica,sans-Serif" font-size="10.00"> &#45;jointPos</text>
</g>
<!-- Node9 -->
<g id="node9" class="node"><title>Node9</title>
<polygon fill="none" stroke="#bfbfbf" points="0,-740.5 0,-797.5 122,-797.5 122,-740.5 0,-740.5"/>
<text text-anchor="middle" x="61" y="-785.5" font-family="Helvetica,sans-Serif" font-size="10.00">std::vector&lt; double &gt;</text>
<polyline fill="none" stroke="#bfbfbf" points="0,-778.5 122,-778.5 "/>
<text text-anchor="start" x="8" y="-766.5" font-family="Helvetica,sans-Serif" font-size="10.00">+ elements</text>
<polyline fill="none" stroke="#bfbfbf" points="0,-759.5 122,-759.5 "/>
<text text-anchor="middle" x="61" y="-747.5" font-family="Helvetica,sans-Serif" font-size="10.00"> </text>
</g>
<!-- Node9&#45;&gt;Node8 -->
<g id="edge11" class="edge"><title>Node9&#45;&gt;Node8</title>
<path fill="none" stroke="#404040" d="M59.2668,-740.484C59.2549,-731.04 59.8948,-720.468 62,-711 62.5101,-708.706 63.1267,-706.389 63.8253,-704.075"/>
<polygon fill="none" stroke="#404040" points="63.8737,-703.938 62.112,-696.945 67.8891,-692.63 69.6508,-699.622 63.8737,-703.938"/>
<text text-anchor="middle" x="90.5" y="-714" font-family="Helvetica,sans-Serif" font-size="10.00"> +elements</text>
</g>
</g>
</svg>
