<?xml version="1.0" encoding="UTF-8" standalone="no"?>
<!DOCTYPE svg PUBLIC "-//W3C//DTD SVG 1.1//EN"
 "http://www.w3.org/Graphics/SVG/1.1/DTD/svg11.dtd">
<!-- Generated by graphviz version 2.38.0 (20140413.2041)
 -->
<!-- Title: ROSEE::ActionTrig Pages: 1 -->
<svg width="331pt" height="902pt"
 viewBox="0.00 0.00 330.52 902.00" xmlns="http://www.w3.org/2000/svg" xmlns:xlink="http://www.w3.org/1999/xlink">
<g id="graph0" class="graph" transform="scale(1 1) rotate(0) translate(4 898)">
<title>ROSEE::ActionTrig</title>
<!-- Node1 -->
<g id="node1" class="node"><title>Node1</title>
<polygon fill="#bfbfbf" stroke="black" points="61.0185,-0.5 61.0185,-145.5 180.019,-145.5 180.019,-0.5 61.0185,-0.5"/>
<text text-anchor="middle" x="120.519" y="-133.5" font-family="Helvetica,sans-Serif" font-size="10.00">ROSEE::ActionTrig</text>
<polyline fill="none" stroke="black" points="61.0185,-126.5 180.019,-126.5 "/>
<text text-anchor="middle" x="120.519" y="-114.5" font-family="Helvetica,sans-Serif" font-size="10.00"> </text>
<polyline fill="none" stroke="black" points="61.0185,-107.5 180.019,-107.5 "/>
<text text-anchor="start" x="69.0185" y="-95.5" font-family="Helvetica,sans-Serif" font-size="10.00">+ ActionTrig()</text>
<text text-anchor="start" x="69.0185" y="-84.5" font-family="Helvetica,sans-Serif" font-size="10.00">+ ActionTrig()</text>
<text text-anchor="start" x="69.0185" y="-73.5" font-family="Helvetica,sans-Serif" font-size="10.00">+ getAllJointPos()</text>
<text text-anchor="start" x="69.0185" y="-62.5" font-family="Helvetica,sans-Serif" font-size="10.00">+ getKeyElements()</text>
<text text-anchor="start" x="69.0185" y="-51.5" font-family="Helvetica,sans-Serif" font-size="10.00">+ getJointPos()</text>
<text text-anchor="start" x="69.0185" y="-40.5" font-family="Helvetica,sans-Serif" font-size="10.00">+ setJointPos()</text>
<text text-anchor="start" x="69.0185" y="-29.5" font-family="Helvetica,sans-Serif" font-size="10.00">+ getFingerInvolved()</text>
<text text-anchor="start" x="69.0185" y="-18.5" font-family="Helvetica,sans-Serif" font-size="10.00">+ setFingerInvolved()</text>
<text text-anchor="start" x="69.0185" y="-7.5" font-family="Helvetica,sans-Serif" font-size="10.00">+ fillFromYaml()</text>
</g>
<!-- Node2 -->
<g id="node2" class="node"><title>Node2</title>
<g id="a_node2"><a xlink:href="classROSEE_1_1ActionPrimitive.html" target="_top" xlink:title="Virtual class, Base of all the primitive actions. ">
<polygon fill="none" stroke="black" points="38.5185,-183.5 38.5185,-350.5 202.519,-350.5 202.519,-183.5 38.5185,-183.5"/>
<text text-anchor="middle" x="120.519" y="-338.5" font-family="Helvetica,sans-Serif" font-size="10.00">ROSEE::ActionPrimitive</text>
<polyline fill="none" stroke="black" points="38.5185,-331.5 202.519,-331.5 "/>
<text text-anchor="start" x="46.5185" y="-319.5" font-family="Helvetica,sans-Serif" font-size="10.00"># nFingersInvolved</text>
<text text-anchor="start" x="46.5185" y="-308.5" font-family="Helvetica,sans-Serif" font-size="10.00"># maxStoredActionStates</text>
<text text-anchor="start" x="46.5185" y="-297.5" font-family="Helvetica,sans-Serif" font-size="10.00"># primitiveType</text>
<polyline fill="none" stroke="black" points="38.5185,-290.5 202.519,-290.5 "/>
<text text-anchor="start" x="46.5185" y="-278.5" font-family="Helvetica,sans-Serif" font-size="10.00">+ ~ActionPrimitive()</text>
<text text-anchor="start" x="46.5185" y="-267.5" font-family="Helvetica,sans-Serif" font-size="10.00">+ getPrimitiveType()</text>
<text text-anchor="start" x="46.5185" y="-256.5" font-family="Helvetica,sans-Serif" font-size="10.00">+ getMaxStoredActionStates()</text>
<text text-anchor="start" x="46.5185" y="-245.5" font-family="Helvetica,sans-Serif" font-size="10.00">+ getnFingersInvolved()</text>
<text text-anchor="start" x="46.5185" y="-234.5" font-family="Helvetica,sans-Serif" font-size="10.00">+ getKeyElements()</text>
<text text-anchor="start" x="46.5185" y="-223.5" font-family="Helvetica,sans-Serif" font-size="10.00">+ setJointsInvolvedCount()</text>
<text text-anchor="start" x="46.5185" y="-212.5" font-family="Helvetica,sans-Serif" font-size="10.00">+ emitYaml()</text>
<text text-anchor="start" x="46.5185" y="-201.5" font-family="Helvetica,sans-Serif" font-size="10.00"># ActionPrimitive()</text>
<text text-anchor="start" x="46.5185" y="-190.5" font-family="Helvetica,sans-Serif" font-size="10.00"># ActionPrimitive()</text>
</a>
</g>
</g>
<!-- Node2&#45;&gt;Node1 -->
<g id="edge1" class="edge"><title>Node2&#45;&gt;Node1</title>
<path fill="none" stroke="midnightblue" d="M120.519,-173.367C120.519,-164.035 120.519,-154.66 120.519,-145.596"/>
<polygon fill="none" stroke="midnightblue" points="117.019,-173.46 120.519,-183.46 124.019,-173.46 117.019,-173.46"/>
</g>
<!-- Node3 -->
<g id="node3" class="node"><title>Node3</title>
<g id="a_node3"><a xlink:href="classROSEE_1_1Action.html" target="_top" xlink:title="The pure virtual class representing an Action. ">
<polygon fill="none" stroke="black" points="48.5185,-388.5 48.5185,-566.5 192.519,-566.5 192.519,-388.5 48.5185,-388.5"/>
<text text-anchor="middle" x="120.519" y="-554.5" font-family="Helvetica,sans-Serif" font-size="10.00">ROSEE::Action</text>
<polyline fill="none" stroke="black" points="48.5185,-547.5 192.519,-547.5 "/>
<text text-anchor="start" x="56.5185" y="-535.5" font-family="Helvetica,sans-Serif" font-size="10.00"># type</text>
<polyline fill="none" stroke="black" points="48.5185,-528.5 192.519,-528.5 "/>
<text text-anchor="start" x="56.5185" y="-516.5" font-family="Helvetica,sans-Serif" font-size="10.00">+ ~Action()</text>
<text text-anchor="start" x="56.5185" y="-505.5" font-family="Helvetica,sans-Serif" font-size="10.00">+ getName()</text>
<text text-anchor="start" x="56.5185" y="-494.5" font-family="Helvetica,sans-Serif" font-size="10.00">+ getType()</text>
<text text-anchor="start" x="56.5185" y="-483.5" font-family="Helvetica,sans-Serif" font-size="10.00">+ getFingersInvolved()</text>
<text text-anchor="start" x="56.5185" y="-472.5" font-family="Helvetica,sans-Serif" font-size="10.00">+ getJointsInvolvedCount()</text>
<text text-anchor="start" x="56.5185" y="-461.5" font-family="Helvetica,sans-Serif" font-size="10.00">+ getJointPos()</text>
<text text-anchor="start" x="56.5185" y="-450.5" font-family="Helvetica,sans-Serif" font-size="10.00">+ getAllJointPos()</text>
<text text-anchor="start" x="56.5185" y="-439.5" font-family="Helvetica,sans-Serif" font-size="10.00">+ print()</text>
<text text-anchor="start" x="56.5185" y="-428.5" font-family="Helvetica,sans-Serif" font-size="10.00">+ emitYaml()</text>
<text text-anchor="start" x="56.5185" y="-417.5" font-family="Helvetica,sans-Serif" font-size="10.00">+ fillFromYaml()</text>
<text text-anchor="start" x="56.5185" y="-406.5" font-family="Helvetica,sans-Serif" font-size="10.00"># Action()</text>
<text text-anchor="start" x="56.5185" y="-395.5" font-family="Helvetica,sans-Serif" font-size="10.00"># Action()</text>
</a>
</g>
</g>
<!-- Node3&#45;&gt;Node2 -->
<g id="edge2" class="edge"><title>Node3&#45;&gt;Node2</title>
<path fill="none" stroke="midnightblue" d="M120.519,-378.113C120.519,-368.984 120.519,-359.794 120.519,-350.826"/>
<polygon fill="none" stroke="midnightblue" points="117.019,-378.379 120.519,-388.379 124.019,-378.379 117.019,-378.379"/>
</g>
<!-- Node4 -->
<g id="node4" class="node"><title>Node4</title>
<polygon fill="none" stroke="#bfbfbf" points="59.0185,-620 59.0185,-677 182.019,-677 182.019,-620 59.0185,-620"/>
<text text-anchor="middle" x="120.519" y="-665" font-family="Helvetica,sans-Serif" font-size="10.00">std::set&lt; std::string &gt;</text>
<polyline fill="none" stroke="#bfbfbf" points="59.0185,-658 182.019,-658 "/>
<text text-anchor="middle" x="120.519" y="-646" font-family="Helvetica,sans-Serif" font-size="10.00"> </text>
<polyline fill="none" stroke="#bfbfbf" points="59.0185,-639 182.019,-639 "/>
<text text-anchor="middle" x="120.519" y="-627" font-family="Helvetica,sans-Serif" font-size="10.00"> </text>
</g>
<!-- Node4&#45;&gt;Node3 -->
<g id="edge3" class="edge"><title>Node4&#45;&gt;Node3</title>
<path fill="none" stroke="#404040" d="M120.519,-619.971C120.519,-608.31 120.519,-593.94 120.519,-578.872"/>
<polygon fill="none" stroke="#404040" points="120.519,-578.676 116.519,-572.676 120.519,-566.676 124.519,-572.676 120.519,-578.676"/>
<text text-anchor="middle" x="162.019" y="-588" font-family="Helvetica,sans-Serif" font-size="10.00"> #fingersInvolved</text>
</g>
<!-- Node5 -->
<g id="node5" class="node"><title>Node5</title>
<g id="a_node5"><a xlink:title="STL class. ">
<polygon fill="none" stroke="#bfbfbf" points="88.0185,-730.5 88.0185,-787.5 153.019,-787.5 153.019,-730.5 88.0185,-730.5"/>
<text text-anchor="middle" x="120.519" y="-775.5" font-family="Helvetica,sans-Serif" font-size="10.00">std::string</text>
<polyline fill="none" stroke="#bfbfbf" points="88.0185,-768.5 153.019,-768.5 "/>
<text text-anchor="middle" x="120.519" y="-756.5" font-family="Helvetica,sans-Serif" font-size="10.00"> </text>
<polyline fill="none" stroke="#bfbfbf" points="88.0185,-749.5 153.019,-749.5 "/>
<text text-anchor="middle" x="120.519" y="-737.5" font-family="Helvetica,sans-Serif" font-size="10.00"> </text>
</a>
</g>
</g>
<!-- Node5&#45;&gt;Node3 -->
<g id="edge8" class="edge"><title>Node5&#45;&gt;Node3</title>
<path fill="none" stroke="#404040" d="M87.8677,-746.036C61.4157,-734.399 25.9387,-713.912 9.5185,-683 -4.86777,-655.917 -0.799919,-642.879 9.5185,-614 16.575,-594.251 27.8851,-575.308 40.645,-558.172"/>
<polygon fill="none" stroke="#404040" points="40.9491,-557.78 41.466,-550.587 48.3042,-548.298 47.7872,-555.491 40.9491,-557.78"/>
<text text-anchor="middle" x="29.5185" y="-646" font-family="Helvetica,sans-Serif" font-size="10.00"> #name</text>
</g>
<!-- Node5&#45;&gt;Node4 -->
<g id="edge4" class="edge"><title>Node5&#45;&gt;Node4</title>
<path fill="none" stroke="#404040" d="M120.519,-730.34C120.519,-717.842 120.519,-702.842 120.519,-689.176"/>
<polygon fill="none" stroke="#404040" points="120.519,-689.109 116.519,-683.109 120.519,-677.109 124.519,-683.109 120.519,-689.109"/>
<text text-anchor="middle" x="137.519" y="-704" font-family="Helvetica,sans-Serif" font-size="10.00"> +keys</text>
</g>
<!-- Node7 -->
<g id="node7" class="node"><title>Node7</title>
<polygon fill="none" stroke="#bfbfbf" points="200.519,-614.5 200.519,-682.5 322.519,-682.5 322.519,-614.5 200.519,-614.5"/>
<text text-anchor="start" x="208.519" y="-670.5" font-family="Helvetica,sans-Serif" font-size="10.00">std::map&lt; std::string,</text>
<text text-anchor="middle" x="261.519" y="-659.5" font-family="Helvetica,sans-Serif" font-size="10.00"> unsigned int &gt;</text>
<polyline fill="none" stroke="#bfbfbf" points="200.519,-652.5 322.519,-652.5 "/>
<text text-anchor="start" x="208.519" y="-640.5" font-family="Helvetica,sans-Serif" font-size="10.00">+ elements</text>
<polyline fill="none" stroke="#bfbfbf" points="200.519,-633.5 322.519,-633.5 "/>
<text text-anchor="middle" x="261.519" y="-621.5" font-family="Helvetica,sans-Serif" font-size="10.00"> </text>
</g>
<!-- Node5&#45;&gt;Node7 -->
<g id="edge7" class="edge"><title>Node5&#45;&gt;Node7</title>
<path fill="none" stroke="#404040" d="M153.221,-732.835C169.778,-720.094 190.285,-704.315 208.984,-689.925"/>
<polygon fill="none" stroke="#404040" points="209.057,-689.869 211.373,-683.04 218.568,-682.551 216.252,-689.38 209.057,-689.869"/>
<text text-anchor="middle" x="208.519" y="-704" font-family="Helvetica,sans-Serif" font-size="10.00"> +keys</text>
</g>
<!-- Node6 -->
<g id="node6" class="node"><title>Node6</title>
<g id="a_node6"><a xlink:title="STL class. ">
<polygon fill="none" stroke="#bfbfbf" points="69.0185,-825.5 69.0185,-893.5 172.019,-893.5 172.019,-825.5 69.0185,-825.5"/>
<text text-anchor="start" x="77.0185" y="-881.5" font-family="Helvetica,sans-Serif" font-size="10.00">std::basic_string&lt;</text>
<text text-anchor="middle" x="120.519" y="-870.5" font-family="Helvetica,sans-Serif" font-size="10.00"> char &gt;</text>
<polyline fill="none" stroke="#bfbfbf" points="69.0185,-863.5 172.019,-863.5 "/>
<text text-anchor="middle" x="120.519" y="-851.5" font-family="Helvetica,sans-Serif" font-size="10.00"> </text>
<polyline fill="none" stroke="#bfbfbf" points="69.0185,-844.5 172.019,-844.5 "/>
<text text-anchor="middle" x="120.519" y="-832.5" font-family="Helvetica,sans-Serif" font-size="10.00"> </text>
</a>
</g>
</g>
<!-- Node6&#45;&gt;Node5 -->
<g id="edge5" class="edge"><title>Node6&#45;&gt;Node5</title>
<path fill="none" stroke="midnightblue" d="M120.519,-815.375C120.519,-805.94 120.519,-796.201 120.519,-787.571"/>
<polygon fill="none" stroke="midnightblue" points="117.019,-815.427 120.519,-825.427 124.019,-815.427 117.019,-815.427"/>
</g>
<!-- Node7&#45;&gt;Node3 -->
<g id="edge6" class="edge"><title>Node7&#45;&gt;Node3</title>
<path fill="none" stroke="#404040" d="M233.661,-614.111C223.918,-602.432 212.433,-588.667 200.581,-574.462"/>
<polygon fill="none" stroke="#404040" points="200.442,-574.295 193.527,-572.25 192.755,-565.081 199.67,-567.125 200.442,-574.295"/>
<text text-anchor="middle" x="269.019" y="-588" font-family="Helvetica,sans-Serif" font-size="10.00"> #jointsInvolvedCount</text>
</g>
</g>
</svg>
