<?xml version="1.0" encoding="UTF-8" standalone="no"?>
<!DOCTYPE svg PUBLIC "-//W3C//DTD SVG 1.1//EN"
 "http://www.w3.org/Graphics/SVG/1.1/DTD/svg11.dtd">
<!-- Generated by graphviz version 2.38.0 (20140413.2041)
 -->
<!-- Title: ROSEE::ActionTimed Pages: 1 -->
<svg width="1105pt" height="831pt"
 viewBox="0.00 0.00 1105.00 831.00" xmlns="http://www.w3.org/2000/svg" xmlns:xlink="http://www.w3.org/1999/xlink">
<g id="graph0" class="graph" transform="scale(1 1) rotate(0) translate(4 827)">
<title>ROSEE::ActionTimed</title>
<!-- Node1 -->
<g id="node1" class="node"><title>Node1</title>
<polygon fill="#bfbfbf" stroke="black" points="358.5,-0.5 358.5,-211.5 503.5,-211.5 503.5,-0.5 358.5,-0.5"/>
<text text-anchor="middle" x="431" y="-199.5" font-family="Helvetica,sans-Serif" font-size="10.00">ROSEE::ActionTimed</text>
<polyline fill="none" stroke="black" points="358.5,-192.5 503.5,-192.5 "/>
<text text-anchor="middle" x="431" y="-180.5" font-family="Helvetica,sans-Serif" font-size="10.00"> </text>
<polyline fill="none" stroke="black" points="358.5,-173.5 503.5,-173.5 "/>
<text text-anchor="start" x="366.5" y="-161.5" font-family="Helvetica,sans-Serif" font-size="10.00">+ ActionTimed()</text>
<text text-anchor="start" x="366.5" y="-150.5" font-family="Helvetica,sans-Serif" font-size="10.00">+ ActionTimed()</text>
<text text-anchor="start" x="366.5" y="-139.5" font-family="Helvetica,sans-Serif" font-size="10.00">+ ~ActionTimed()</text>
<text text-anchor="start" x="366.5" y="-128.5" font-family="Helvetica,sans-Serif" font-size="10.00">+ getJointPos()</text>
<text text-anchor="start" x="366.5" y="-117.5" font-family="Helvetica,sans-Serif" font-size="10.00">+ getAllJointPos()</text>
<text text-anchor="start" x="366.5" y="-106.5" font-family="Helvetica,sans-Serif" font-size="10.00">+ getAllJointCountAction()</text>
<text text-anchor="start" x="366.5" y="-95.5" font-family="Helvetica,sans-Serif" font-size="10.00">+ getAllActionMargins()</text>
<text text-anchor="start" x="366.5" y="-84.5" font-family="Helvetica,sans-Serif" font-size="10.00">+ getJointPosAction()</text>
<text text-anchor="start" x="366.5" y="-73.5" font-family="Helvetica,sans-Serif" font-size="10.00">+ getActionMargins()</text>
<text text-anchor="start" x="366.5" y="-62.5" font-family="Helvetica,sans-Serif" font-size="10.00">+ getJointCountAction()</text>
<text text-anchor="start" x="366.5" y="-51.5" font-family="Helvetica,sans-Serif" font-size="10.00">+ getInnerActionsNames()</text>
<text text-anchor="start" x="366.5" y="-40.5" font-family="Helvetica,sans-Serif" font-size="10.00">+ print()</text>
<text text-anchor="start" x="366.5" y="-29.5" font-family="Helvetica,sans-Serif" font-size="10.00">+ emitYaml()</text>
<text text-anchor="start" x="366.5" y="-18.5" font-family="Helvetica,sans-Serif" font-size="10.00">+ fillFromYaml()</text>
<text text-anchor="start" x="366.5" y="-7.5" font-family="Helvetica,sans-Serif" font-size="10.00">+ insertAction()</text>
</g>
<!-- Node2 -->
<g id="node2" class="node"><title>Node2</title>
<g id="a_node2"><a xlink:href="classROSEE_1_1Action.html" target="_top" xlink:title="The pure virtual class representing an Action. ">
<polygon fill="none" stroke="black" points="471,-249.5 471,-427.5 615,-427.5 615,-249.5 471,-249.5"/>
<text text-anchor="middle" x="543" y="-415.5" font-family="Helvetica,sans-Serif" font-size="10.00">ROSEE::Action</text>
<polyline fill="none" stroke="black" points="471,-408.5 615,-408.5 "/>
<text text-anchor="start" x="479" y="-396.5" font-family="Helvetica,sans-Serif" font-size="10.00"># type</text>
<polyline fill="none" stroke="black" points="471,-389.5 615,-389.5 "/>
<text text-anchor="start" x="479" y="-377.5" font-family="Helvetica,sans-Serif" font-size="10.00">+ ~Action()</text>
<text text-anchor="start" x="479" y="-366.5" font-family="Helvetica,sans-Serif" font-size="10.00">+ getName()</text>
<text text-anchor="start" x="479" y="-355.5" font-family="Helvetica,sans-Serif" font-size="10.00">+ getType()</text>
<text text-anchor="start" x="479" y="-344.5" font-family="Helvetica,sans-Serif" font-size="10.00">+ getFingersInvolved()</text>
<text text-anchor="start" x="479" y="-333.5" font-family="Helvetica,sans-Serif" font-size="10.00">+ getJointsInvolvedCount()</text>
<text text-anchor="start" x="479" y="-322.5" font-family="Helvetica,sans-Serif" font-size="10.00">+ getJointPos()</text>
<text text-anchor="start" x="479" y="-311.5" font-family="Helvetica,sans-Serif" font-size="10.00">+ getAllJointPos()</text>
<text text-anchor="start" x="479" y="-300.5" font-family="Helvetica,sans-Serif" font-size="10.00">+ print()</text>
<text text-anchor="start" x="479" y="-289.5" font-family="Helvetica,sans-Serif" font-size="10.00">+ emitYaml()</text>
<text text-anchor="start" x="479" y="-278.5" font-family="Helvetica,sans-Serif" font-size="10.00">+ fillFromYaml()</text>
<text text-anchor="start" x="479" y="-267.5" font-family="Helvetica,sans-Serif" font-size="10.00"># Action()</text>
<text text-anchor="start" x="479" y="-256.5" font-family="Helvetica,sans-Serif" font-size="10.00"># Action()</text>
</a>
</g>
</g>
<!-- Node2&#45;&gt;Node1 -->
<g id="edge1" class="edge"><title>Node2&#45;&gt;Node1</title>
<path fill="none" stroke="midnightblue" d="M495.793,-240.346C491.188,-230.869 486.502,-221.226 481.864,-211.679"/>
<polygon fill="none" stroke="midnightblue" points="492.66,-241.906 500.178,-249.371 498.956,-238.847 492.66,-241.906"/>
</g>
<!-- Node3 -->
<g id="node3" class="node"><title>Node3</title>
<polygon fill="none" stroke="#bfbfbf" points="552.5,-539 552.5,-596 675.5,-596 675.5,-539 552.5,-539"/>
<text text-anchor="middle" x="614" y="-584" font-family="Helvetica,sans-Serif" font-size="10.00">std::set&lt; std::string &gt;</text>
<polyline fill="none" stroke="#bfbfbf" points="552.5,-577 675.5,-577 "/>
<text text-anchor="middle" x="614" y="-565" font-family="Helvetica,sans-Serif" font-size="10.00"> </text>
<polyline fill="none" stroke="#bfbfbf" points="552.5,-558 675.5,-558 "/>
<text text-anchor="middle" x="614" y="-546" font-family="Helvetica,sans-Serif" font-size="10.00"> </text>
</g>
<!-- Node3&#45;&gt;Node2 -->
<g id="edge2" class="edge"><title>Node3&#45;&gt;Node2</title>
<path fill="none" stroke="#404040" d="M552.463,-538.741C543.859,-532.196 536.194,-524.336 531,-515 518.438,-492.422 515.49,-465.6 517.172,-439.805"/>
<polygon fill="none" stroke="#404040" points="517.192,-439.596 513.763,-433.252 518.301,-427.647 521.729,-433.991 517.192,-439.596"/>
<text text-anchor="middle" x="572.5" y="-478" font-family="Helvetica,sans-Serif" font-size="10.00"> #fingersInvolved</text>
</g>
<!-- Node4 -->
<g id="node4" class="node"><title>Node4</title>
<g id="a_node4"><a xlink:title="STL class. ">
<polygon fill="none" stroke="#bfbfbf" points="521.5,-649.5 521.5,-706.5 586.5,-706.5 586.5,-649.5 521.5,-649.5"/>
<text text-anchor="middle" x="554" y="-694.5" font-family="Helvetica,sans-Serif" font-size="10.00">std::string</text>
<polyline fill="none" stroke="#bfbfbf" points="521.5,-687.5 586.5,-687.5 "/>
<text text-anchor="middle" x="554" y="-675.5" font-family="Helvetica,sans-Serif" font-size="10.00"> </text>
<polyline fill="none" stroke="#bfbfbf" points="521.5,-668.5 586.5,-668.5 "/>
<text text-anchor="middle" x="554" y="-656.5" font-family="Helvetica,sans-Serif" font-size="10.00"> </text>
</a>
</g>
</g>
<!-- Node4&#45;&gt;Node2 -->
<g id="edge7" class="edge"><title>Node4&#45;&gt;Node2</title>
<path fill="none" stroke="#404040" d="M529.207,-649.208C518.972,-635.905 508.281,-619.156 503,-602 486.836,-549.484 494.396,-488.965 507.091,-439.28"/>
<polygon fill="none" stroke="#404040" points="507.128,-439.14 504.817,-432.309 510.234,-427.549 512.545,-434.38 507.128,-439.14"/>
<text text-anchor="middle" x="523" y="-565" font-family="Helvetica,sans-Serif" font-size="10.00"> #name</text>
</g>
<!-- Node4&#45;&gt;Node3 -->
<g id="edge3" class="edge"><title>Node4&#45;&gt;Node3</title>
<path fill="none" stroke="#404040" d="M569.296,-649.34C576.419,-636.459 585.011,-620.922 592.751,-606.924"/>
<polygon fill="none" stroke="#404040" points="592.925,-606.611 592.328,-599.424 598.732,-596.109 599.329,-603.296 592.925,-606.611"/>
<text text-anchor="middle" x="601" y="-623" font-family="Helvetica,sans-Serif" font-size="10.00"> +keys</text>
</g>
<!-- Node6 -->
<g id="node6" class="node"><title>Node6</title>
<polygon fill="none" stroke="#bfbfbf" points="694,-533.5 694,-601.5 816,-601.5 816,-533.5 694,-533.5"/>
<text text-anchor="start" x="702" y="-589.5" font-family="Helvetica,sans-Serif" font-size="10.00">std::map&lt; std::string,</text>
<text text-anchor="middle" x="755" y="-578.5" font-family="Helvetica,sans-Serif" font-size="10.00"> unsigned int &gt;</text>
<polyline fill="none" stroke="#bfbfbf" points="694,-571.5 816,-571.5 "/>
<text text-anchor="start" x="702" y="-559.5" font-family="Helvetica,sans-Serif" font-size="10.00">+ elements</text>
<polyline fill="none" stroke="#bfbfbf" points="694,-552.5 816,-552.5 "/>
<text text-anchor="middle" x="755" y="-540.5" font-family="Helvetica,sans-Serif" font-size="10.00"> </text>
</g>
<!-- Node4&#45;&gt;Node6 -->
<g id="edge6" class="edge"><title>Node4&#45;&gt;Node6</title>
<path fill="none" stroke="#404040" d="M586.741,-659.326C612.727,-645.299 650.025,-625.166 682.904,-607.418"/>
<polygon fill="none" stroke="#404040" points="683.302,-607.203 686.682,-600.833 693.862,-601.502 690.482,-607.872 683.302,-607.203"/>
<text text-anchor="middle" x="672" y="-623" font-family="Helvetica,sans-Serif" font-size="10.00"> +keys</text>
</g>
<!-- Node7 -->
<g id="node7" class="node"><title>Node7</title>
<polygon fill="none" stroke="#bfbfbf" points="0,-533.5 0,-601.5 162,-601.5 162,-533.5 0,-533.5"/>
<text text-anchor="start" x="8" y="-589.5" font-family="Helvetica,sans-Serif" font-size="10.00">std::map&lt; std::string,</text>
<text text-anchor="middle" x="81" y="-578.5" font-family="Helvetica,sans-Serif" font-size="10.00"> ROSEE::JointsInvolvedCount &gt;</text>
<polyline fill="none" stroke="#bfbfbf" points="0,-571.5 162,-571.5 "/>
<text text-anchor="middle" x="81" y="-559.5" font-family="Helvetica,sans-Serif" font-size="10.00"> </text>
<polyline fill="none" stroke="#bfbfbf" points="0,-552.5 162,-552.5 "/>
<text text-anchor="middle" x="81" y="-540.5" font-family="Helvetica,sans-Serif" font-size="10.00"> </text>
</g>
<!-- Node4&#45;&gt;Node7 -->
<g id="edge12" class="edge"><title>Node4&#45;&gt;Node7</title>
<path fill="none" stroke="#404040" d="M521.267,-673.703C476.465,-668.443 394.072,-656.081 328,-631 318.878,-627.537 318.24,-623.136 309,-620 253.976,-601.322 233.528,-614.988 174.158,-602.425"/>
<polygon fill="none" stroke="#404040" points="173.866,-602.358 167.119,-604.903 162.175,-599.654 168.922,-597.109 173.866,-602.358"/>
<text text-anchor="middle" x="345" y="-623" font-family="Helvetica,sans-Serif" font-size="10.00"> +keys</text>
</g>
<!-- Node11 -->
<g id="node11" class="node"><title>Node11</title>
<polygon fill="none" stroke="#bfbfbf" points="746.5,-446.5 746.5,-514.5 909.5,-514.5 909.5,-446.5 746.5,-446.5"/>
<text text-anchor="start" x="754.5" y="-502.5" font-family="Helvetica,sans-Serif" font-size="10.00">std::map&lt; std::string,</text>
<text text-anchor="middle" x="828" y="-491.5" font-family="Helvetica,sans-Serif" font-size="10.00"> std::pair&lt; double, double &gt; &gt;</text>
<polyline fill="none" stroke="#bfbfbf" points="746.5,-484.5 909.5,-484.5 "/>
<text text-anchor="start" x="754.5" y="-472.5" font-family="Helvetica,sans-Serif" font-size="10.00">+ elements</text>
<polyline fill="none" stroke="#bfbfbf" points="746.5,-465.5 909.5,-465.5 "/>
<text text-anchor="middle" x="828" y="-453.5" font-family="Helvetica,sans-Serif" font-size="10.00"> </text>
</g>
<!-- Node4&#45;&gt;Node11 -->
<g id="edge14" class="edge"><title>Node4&#45;&gt;Node11</title>
<path fill="none" stroke="#404040" d="M586.83,-672.786C652.345,-663.64 795.561,-639.71 825,-602 841.304,-581.115 842.215,-551.415 838.971,-526.726"/>
<polygon fill="none" stroke="#404040" points="838.943,-526.555 834.035,-521.271 837.025,-514.709 841.932,-519.992 838.943,-526.555"/>
<text text-anchor="middle" x="815" y="-623" font-family="Helvetica,sans-Serif" font-size="10.00"> +keys</text>
</g>
<!-- Node12 -->
<g id="node12" class="node"><title>Node12</title>
<polygon fill="none" stroke="#bfbfbf" points="915,-452 915,-509 1053,-509 1053,-452 915,-452"/>
<text text-anchor="middle" x="984" y="-497" font-family="Helvetica,sans-Serif" font-size="10.00">std::vector&lt; std::string &gt;</text>
<polyline fill="none" stroke="#bfbfbf" points="915,-490 1053,-490 "/>
<text text-anchor="middle" x="984" y="-478" font-family="Helvetica,sans-Serif" font-size="10.00"> </text>
<polyline fill="none" stroke="#bfbfbf" points="915,-471 1053,-471 "/>
<text text-anchor="middle" x="984" y="-459" font-family="Helvetica,sans-Serif" font-size="10.00"> </text>
</g>
<!-- Node4&#45;&gt;Node12 -->
<g id="edge16" class="edge"><title>Node4&#45;&gt;Node12</title>
<path fill="none" stroke="#404040" d="M586.585,-674.23C651.169,-668.33 792.903,-653.222 836,-631 887.26,-604.569 931.594,-553.862 958.043,-518.884"/>
<polygon fill="none" stroke="#404040" points="958.202,-518.669 958.557,-511.466 965.342,-509.024 964.987,-516.226 958.202,-518.669"/>
<text text-anchor="middle" x="882.5" y="-623" font-family="Helvetica,sans-Serif" font-size="10.00"> +elements</text>
</g>
<!-- Node13 -->
<g id="node13" class="node"><title>Node13</title>
<polygon fill="none" stroke="#bfbfbf" points="320.5,-533.5 320.5,-601.5 457.5,-601.5 457.5,-533.5 320.5,-533.5"/>
<text text-anchor="start" x="328.5" y="-589.5" font-family="Helvetica,sans-Serif" font-size="10.00">std::map&lt; std::string,</text>
<text text-anchor="middle" x="389" y="-578.5" font-family="Helvetica,sans-Serif" font-size="10.00"> std::vector&lt; double &gt; &gt;</text>
<polyline fill="none" stroke="#bfbfbf" points="320.5,-571.5 457.5,-571.5 "/>
<text text-anchor="middle" x="389" y="-559.5" font-family="Helvetica,sans-Serif" font-size="10.00"> </text>
<polyline fill="none" stroke="#bfbfbf" points="320.5,-552.5 457.5,-552.5 "/>
<text text-anchor="middle" x="389" y="-540.5" font-family="Helvetica,sans-Serif" font-size="10.00"> </text>
</g>
<!-- Node4&#45;&gt;Node13 -->
<g id="edge18" class="edge"><title>Node4&#45;&gt;Node13</title>
<path fill="none" stroke="#404040" d="M521.422,-667.229C498.959,-659.544 469.105,-647.391 446,-631 437.915,-625.264 430.131,-618.208 423.051,-610.927"/>
<polygon fill="none" stroke="#404040" points="422.636,-610.477 415.625,-608.786 414.49,-601.665 421.5,-603.356 422.636,-610.477"/>
<text text-anchor="middle" x="463" y="-623" font-family="Helvetica,sans-Serif" font-size="10.00"> +keys</text>
</g>
<!-- Node15 -->
<g id="node15" class="node"><title>Node15</title>
<polygon fill="none" stroke="#bfbfbf" points="180,-533.5 180,-601.5 302,-601.5 302,-533.5 180,-533.5"/>
<text text-anchor="start" x="188" y="-589.5" font-family="Helvetica,sans-Serif" font-size="10.00">std::map&lt; std::string,</text>
<text text-anchor="middle" x="241" y="-578.5" font-family="Helvetica,sans-Serif" font-size="10.00"> ROSEE::JointPos &gt;</text>
<polyline fill="none" stroke="#bfbfbf" points="180,-571.5 302,-571.5 "/>
<text text-anchor="middle" x="241" y="-559.5" font-family="Helvetica,sans-Serif" font-size="10.00"> </text>
<polyline fill="none" stroke="#bfbfbf" points="180,-552.5 302,-552.5 "/>
<text text-anchor="middle" x="241" y="-540.5" font-family="Helvetica,sans-Serif" font-size="10.00"> </text>
</g>
<!-- Node4&#45;&gt;Node15 -->
<g id="edge22" class="edge"><title>Node4&#45;&gt;Node15</title>
<path fill="none" stroke="#404040" d="M521.423,-668.215C489.337,-659.398 439.021,-645.132 396,-631 382.508,-626.568 379.417,-624.654 366,-620 344.832,-612.658 336.923,-611.712 313.678,-602.865"/>
<polygon fill="none" stroke="#404040" points="313.425,-602.765 306.378,-604.291 302.259,-598.372 309.307,-596.846 313.425,-602.765"/>
<text text-anchor="middle" x="413" y="-623" font-family="Helvetica,sans-Serif" font-size="10.00"> +keys</text>
</g>
<!-- Node5 -->
<g id="node5" class="node"><title>Node5</title>
<g id="a_node5"><a xlink:title="STL class. ">
<polygon fill="none" stroke="#bfbfbf" points="502.5,-754.5 502.5,-822.5 605.5,-822.5 605.5,-754.5 502.5,-754.5"/>
<text text-anchor="start" x="510.5" y="-810.5" font-family="Helvetica,sans-Serif" font-size="10.00">std::basic_string&lt;</text>
<text text-anchor="middle" x="554" y="-799.5" font-family="Helvetica,sans-Serif" font-size="10.00"> char &gt;</text>
<polyline fill="none" stroke="#bfbfbf" points="502.5,-792.5 605.5,-792.5 "/>
<text text-anchor="middle" x="554" y="-780.5" font-family="Helvetica,sans-Serif" font-size="10.00"> </text>
<polyline fill="none" stroke="#bfbfbf" points="502.5,-773.5 605.5,-773.5 "/>
<text text-anchor="middle" x="554" y="-761.5" font-family="Helvetica,sans-Serif" font-size="10.00"> </text>
</a>
</g>
</g>
<!-- Node5&#45;&gt;Node4 -->
<g id="edge4" class="edge"><title>Node5&#45;&gt;Node4</title>
<path fill="none" stroke="midnightblue" d="M554,-744.064C554,-731.511 554,-718.152 554,-706.827"/>
<polygon fill="none" stroke="midnightblue" points="550.5,-744.357 554,-754.357 557.5,-744.357 550.5,-744.357"/>
</g>
<!-- Node6&#45;&gt;Node2 -->
<g id="edge5" class="edge"><title>Node6&#45;&gt;Node2</title>
<path fill="none" stroke="#404040" d="M693.995,-537.206C690.629,-535.749 687.282,-534.338 684,-533 661.353,-523.769 648.605,-532.955 632,-515 610.481,-491.732 626.969,-474.918 614,-446 612.892,-443.529 611.728,-441.052 610.517,-438.575"/>
<polygon fill="none" stroke="#404040" points="610.426,-438.398 604.12,-434.899 604.925,-427.733 611.23,-431.232 610.426,-438.398"/>
<text text-anchor="middle" x="684.5" y="-478" font-family="Helvetica,sans-Serif" font-size="10.00"> #jointsInvolvedCount</text>
</g>
<!-- Node7&#45;&gt;Node1 -->
<g id="edge8" class="edge"><title>Node7&#45;&gt;Node1</title>
<path fill="none" stroke="#404040" d="M75.8833,-533.486C68.1299,-471.257 60.3902,-335.136 124,-249 177.011,-177.216 275.26,-140.619 346.362,-122.729"/>
<polygon fill="none" stroke="#404040" points="346.753,-122.634 351.643,-117.334 358.416,-119.808 353.526,-125.109 346.753,-122.634"/>
<text text-anchor="middle" x="179.5" y="-336" font-family="Helvetica,sans-Serif" font-size="10.00"> &#45;actionsJointCountMap</text>
</g>
<!-- Node8 -->
<g id="node8" class="node"><title>Node8</title>
<g id="a_node8"><a xlink:title="STL class. ">
<polygon fill="none" stroke="#bfbfbf" points="57.5,-649.5 57.5,-706.5 156.5,-706.5 156.5,-649.5 57.5,-649.5"/>
<text text-anchor="middle" x="107" y="-694.5" font-family="Helvetica,sans-Serif" font-size="10.00">std::map&lt; K, T &gt;</text>
<polyline fill="none" stroke="#bfbfbf" points="57.5,-687.5 156.5,-687.5 "/>
<text text-anchor="middle" x="107" y="-675.5" font-family="Helvetica,sans-Serif" font-size="10.00"> </text>
<polyline fill="none" stroke="#bfbfbf" points="57.5,-668.5 156.5,-668.5 "/>
<text text-anchor="middle" x="107" y="-656.5" font-family="Helvetica,sans-Serif" font-size="10.00"> </text>
</a>
</g>
</g>
<!-- Node8&#45;&gt;Node7 -->
<g id="edge9" class="edge"><title>Node8&#45;&gt;Node7</title>
<path fill="none" stroke="#404040" d="M95.6145,-649.078C93.5121,-643.18 91.5077,-636.942 90,-631 88.5752,-625.385 87.3551,-619.425 86.3159,-613.502"/>
<polygon fill="none" stroke="#404040" points="86.2954,-613.371 81.411,-608.066 84.4294,-601.517 89.3137,-606.822 86.2954,-613.371"/>
<text text-anchor="middle" x="118.5" y="-623" font-family="Helvetica,sans-Serif" font-size="10.00"> +elements</text>
</g>
<!-- Node8&#45;&gt;Node15 -->
<g id="edge21" class="edge"><title>Node8&#45;&gt;Node15</title>
<path fill="none" stroke="#404040" d="M137.652,-649.24C148.363,-639.777 160.568,-629.255 172,-620 176.484,-616.37 181.184,-612.664 185.933,-608.988"/>
<polygon fill="none" stroke="#404040" points="186.167,-608.809 188.501,-601.986 195.697,-601.516 193.363,-608.339 186.167,-608.809"/>
<text text-anchor="middle" x="200.5" y="-623" font-family="Helvetica,sans-Serif" font-size="10.00"> +elements</text>
</g>
<!-- Node9 -->
<g id="node9" class="node"><title>Node9</title>
<polygon fill="none" stroke="#bfbfbf" points="64.5,-760 64.5,-817 93.5,-817 93.5,-760 64.5,-760"/>
<text text-anchor="middle" x="79" y="-805" font-family="Helvetica,sans-Serif" font-size="10.00">K</text>
<polyline fill="none" stroke="#bfbfbf" points="64.5,-798 93.5,-798 "/>
<text text-anchor="middle" x="79" y="-786" font-family="Helvetica,sans-Serif" font-size="10.00"> </text>
<polyline fill="none" stroke="#bfbfbf" points="64.5,-779 93.5,-779 "/>
<text text-anchor="middle" x="79" y="-767" font-family="Helvetica,sans-Serif" font-size="10.00"> </text>
</g>
<!-- Node9&#45;&gt;Node8 -->
<g id="edge10" class="edge"><title>Node9&#45;&gt;Node8</title>
<path fill="none" stroke="#404040" d="M76.4358,-759.991C76.1759,-748.933 76.8649,-736.18 80,-725 80.6836,-722.562 81.5293,-720.12 82.4945,-717.703"/>
<polygon fill="none" stroke="#404040" points="82.5808,-717.521 81.5383,-710.385 87.7239,-706.679 88.7663,-713.814 82.5808,-717.521"/>
<text text-anchor="middle" x="97" y="-728" font-family="Helvetica,sans-Serif" font-size="10.00"> +keys</text>
</g>
<!-- Node10 -->
<g id="node10" class="node"><title>Node10</title>
<polygon fill="none" stroke="#bfbfbf" points="121.5,-760 121.5,-817 150.5,-817 150.5,-760 121.5,-760"/>
<text text-anchor="middle" x="136" y="-805" font-family="Helvetica,sans-Serif" font-size="10.00">T</text>
<polyline fill="none" stroke="#bfbfbf" points="121.5,-798 150.5,-798 "/>
<text text-anchor="middle" x="136" y="-786" font-family="Helvetica,sans-Serif" font-size="10.00"> </text>
<polyline fill="none" stroke="#bfbfbf" points="121.5,-779 150.5,-779 "/>
<text text-anchor="middle" x="136" y="-767" font-family="Helvetica,sans-Serif" font-size="10.00"> </text>
</g>
<!-- Node10&#45;&gt;Node8 -->
<g id="edge11" class="edge"><title>Node10&#45;&gt;Node8</title>
<path fill="none" stroke="#404040" d="M128.607,-759.84C125.232,-747.214 121.176,-732.036 117.493,-718.258"/>
<polygon fill="none" stroke="#404040" points="117.478,-718.202 112.064,-713.439 114.379,-706.609 119.793,-711.373 117.478,-718.202"/>
<text text-anchor="middle" x="150.5" y="-728" font-family="Helvetica,sans-Serif" font-size="10.00"> +elements</text>
</g>
<!-- Node11&#45;&gt;Node1 -->
<g id="edge13" class="edge"><title>Node11&#45;&gt;Node1</title>
<path fill="none" stroke="#404040" d="M802.283,-446.214C765.418,-399.536 694.224,-313.161 624,-249 590.039,-217.971 549.405,-187.252 514.2,-162.366"/>
<polygon fill="none" stroke="#404040" points="513.769,-162.063 506.56,-161.892 503.945,-155.172 511.154,-155.343 513.769,-162.063"/>
<text text-anchor="middle" x="847.5" y="-336" font-family="Helvetica,sans-Serif" font-size="10.00"> &#45;actionsTimeMarginsMap</text>
</g>
<!-- Node12&#45;&gt;Node1 -->
<g id="edge15" class="edge"><title>Node12&#45;&gt;Node1</title>
<path fill="none" stroke="#404040" d="M983.526,-451.827C981.17,-403.747 969.303,-304.615 913,-249 805.431,-142.746 622.582,-115.278 515.693,-108.618"/>
<polygon fill="none" stroke="#404040" points="515.663,-108.617 509.446,-112.271 503.682,-107.938 509.899,-104.284 515.663,-108.617"/>
<text text-anchor="middle" x="1039.5" y="-336" font-family="Helvetica,sans-Serif" font-size="10.00"> &#45;actionsNamesOrdered</text>
</g>
<!-- Node13&#45;&gt;Node1 -->
<g id="edge17" class="edge"><title>Node13&#45;&gt;Node1</title>
<path fill="none" stroke="#404040" d="M387.144,-533.402C384.447,-475.457 381.158,-351.997 395,-249 396.13,-240.595 397.576,-231.971 399.236,-223.327"/>
<polygon fill="none" stroke="#404040" points="399.24,-223.307 396.512,-216.632 401.625,-211.546 404.353,-218.221 399.24,-223.307"/>
<text text-anchor="middle" x="428.5" y="-336" font-family="Helvetica,sans-Serif" font-size="10.00"> &#45;jointPosFinal</text>
</g>
<!-- Node14 -->
<g id="node14" class="node"><title>Node14</title>
<polygon fill="none" stroke="#bfbfbf" points="190,-649.5 190,-706.5 312,-706.5 312,-649.5 190,-649.5"/>
<text text-anchor="middle" x="251" y="-694.5" font-family="Helvetica,sans-Serif" font-size="10.00">std::vector&lt; double &gt;</text>
<polyline fill="none" stroke="#bfbfbf" points="190,-687.5 312,-687.5 "/>
<text text-anchor="start" x="198" y="-675.5" font-family="Helvetica,sans-Serif" font-size="10.00">+ elements</text>
<polyline fill="none" stroke="#bfbfbf" points="190,-668.5 312,-668.5 "/>
<text text-anchor="middle" x="251" y="-656.5" font-family="Helvetica,sans-Serif" font-size="10.00"> </text>
</g>
<!-- Node14&#45;&gt;Node13 -->
<g id="edge19" class="edge"><title>Node14&#45;&gt;Node13</title>
<path fill="none" stroke="#404040" d="M245.084,-649.27C244.476,-639.167 245.803,-628.218 252,-620 266.572,-600.676 281.333,-608.787 308.677,-602.066"/>
<polygon fill="none" stroke="#404040" points="308.79,-602.031 313.351,-596.446 320.261,-598.507 315.7,-604.093 308.79,-602.031"/>
<text text-anchor="middle" x="280.5" y="-623" font-family="Helvetica,sans-Serif" font-size="10.00"> +elements</text>
</g>
<!-- Node15&#45;&gt;Node1 -->
<g id="edge20" class="edge"><title>Node15&#45;&gt;Node1</title>
<path fill="none" stroke="#404040" d="M238.12,-533.322C234.368,-473.123 233.157,-343.406 281,-249 297.096,-217.239 323.271,-188.754 349.286,-165.781"/>
<polygon fill="none" stroke="#404040" points="349.365,-165.713 351.307,-158.768 358.464,-157.889 356.523,-164.834 349.365,-165.713"/>
<text text-anchor="middle" x="331" y="-336" font-family="Helvetica,sans-Serif" font-size="10.00"> &#45;actionsJointPosMap</text>
</g>
</g>
</svg>
