<?xml version="1.0" encoding="UTF-8" standalone="no"?>
<!DOCTYPE svg PUBLIC "-//W3C//DTD SVG 1.1//EN"
 "http://www.w3.org/Graphics/SVG/1.1/DTD/svg11.dtd">
<!-- Generated by graphviz version 2.38.0 (20140413.2041)
 -->
<!-- Title: ROSEE::EEHal Pages: 1 -->
<svg width="113pt" height="292pt"
 viewBox="0.00 0.00 113.00 292.00" xmlns="http://www.w3.org/2000/svg" xmlns:xlink="http://www.w3.org/1999/xlink">
<g id="graph0" class="graph" transform="scale(1 1) rotate(0) translate(4 288)">
<title>ROSEE::EEHal</title>
<!-- Node1 -->
<g id="node1" class="node"><title>Node1</title>
<polygon fill="#bfbfbf" stroke="black" points="2,-0.5 2,-156.5 103,-156.5 103,-0.5 2,-0.5"/>
<text text-anchor="middle" x="52.5" y="-144.5" font-family="Helvetica,sans-Serif" font-size="10.00">ROSEE::EEHal</text>
<polyline fill="none" stroke="black" points="2,-137.5 103,-137.5 "/>
<text text-anchor="start" x="10" y="-125.5" font-family="Helvetica,sans-Serif" font-size="10.00"># _ee_inteface</text>
<polyline fill="none" stroke="black" points="2,-118.5 103,-118.5 "/>
<text text-anchor="start" x="10" y="-106.5" font-family="Helvetica,sans-Serif" font-size="10.00">+ EEHal()</text>
<text text-anchor="start" x="10" y="-95.5" font-family="Helvetica,sans-Serif" font-size="10.00">+ ~EEHal()</text>
<text text-anchor="start" x="10" y="-84.5" font-family="Helvetica,sans-Serif" font-size="10.00">+ sense()</text>
<text text-anchor="start" x="10" y="-73.5" font-family="Helvetica,sans-Serif" font-size="10.00">+ move()</text>
<text text-anchor="start" x="10" y="-62.5" font-family="Helvetica,sans-Serif" font-size="10.00"># setJointPosition()</text>
<text text-anchor="start" x="10" y="-51.5" font-family="Helvetica,sans-Serif" font-size="10.00"># setJointVelocity()</text>
<text text-anchor="start" x="10" y="-40.5" font-family="Helvetica,sans-Serif" font-size="10.00"># setJointEffort()</text>
<text text-anchor="start" x="10" y="-29.5" font-family="Helvetica,sans-Serif" font-size="10.00"># getJointPosition()</text>
<text text-anchor="start" x="10" y="-18.5" font-family="Helvetica,sans-Serif" font-size="10.00"># getJointVelocity()</text>
<text text-anchor="start" x="10" y="-7.5" font-family="Helvetica,sans-Serif" font-size="10.00"># getJointEffort()</text>
</g>
<!-- Node2 -->
<g id="node2" class="node"><title>Node2</title>
<g id="a_node2"><a xlink:href="classROSEE_1_1IMotor.html" target="_top" xlink:title="Class representing a Motor. ">
<polygon fill="none" stroke="black" points="0,-193.5 0,-283.5 105,-283.5 105,-193.5 0,-193.5"/>
<text text-anchor="middle" x="52.5" y="-271.5" font-family="Helvetica,sans-Serif" font-size="10.00">ROSEE::IMotor</text>
<polyline fill="none" stroke="black" points="0,-264.5 105,-264.5 "/>
<text text-anchor="middle" x="52.5" y="-252.5" font-family="Helvetica,sans-Serif" font-size="10.00"> </text>
<polyline fill="none" stroke="black" points="0,-245.5 105,-245.5 "/>
<text text-anchor="start" x="8" y="-233.5" font-family="Helvetica,sans-Serif" font-size="10.00">+ getMotorPosition()</text>
<text text-anchor="start" x="8" y="-222.5" font-family="Helvetica,sans-Serif" font-size="10.00">+ getMotorVelocity()</text>
<text text-anchor="start" x="8" y="-211.5" font-family="Helvetica,sans-Serif" font-size="10.00">+ getMotorEffort()</text>
<text text-anchor="start" x="8" y="-200.5" font-family="Helvetica,sans-Serif" font-size="10.00">+ moveMotor()</text>
</a>
</g>
</g>
<!-- Node2&#45;&gt;Node1 -->
<g id="edge1" class="edge"><title>Node2&#45;&gt;Node1</title>
<path fill="none" stroke="midnightblue" d="M52.5,-183.232C52.5,-174.62 52.5,-165.572 52.5,-156.558"/>
<polygon fill="none" stroke="midnightblue" points="49.0001,-183.488 52.5,-193.488 56.0001,-183.488 49.0001,-183.488"/>
</g>
</g>
</svg>
