<?xml version="1.0" encoding="UTF-8" standalone="no"?>
<!DOCTYPE svg PUBLIC "-//W3C//DTD SVG 1.1//EN"
 "http://www.w3.org/Graphics/SVG/1.1/DTD/svg11.dtd">
<!-- Generated by graphviz version 2.38.0 (20140413.2041)
 -->
<!-- Title: ROSEE::ActionMultiplePinchTight Pages: 1 -->
<svg width="393pt" height="1073pt"
 viewBox="0.00 0.00 393.02 1073.00" xmlns="http://www.w3.org/2000/svg" xmlns:xlink="http://www.w3.org/1999/xlink">
<g id="graph0" class="graph" transform="scale(1 1) rotate(0) translate(4 1069)">
<title>ROSEE::ActionMultiplePinchTight</title>
<!-- Node1 -->
<g id="node1" class="node"><title>Node1</title>
<polygon fill="#bfbfbf" stroke="black" points="178.019,-0.5 178.019,-178.5 329.019,-178.5 329.019,-0.5 178.019,-0.5"/>
<text text-anchor="start" x="186.019" y="-166.5" font-family="Helvetica,sans-Serif" font-size="10.00">ROSEE::ActionMultiplePinch</text>
<text text-anchor="middle" x="253.519" y="-155.5" font-family="Helvetica,sans-Serif" font-size="10.00">Tight</text>
<polyline fill="none" stroke="black" points="178.019,-148.5 329.019,-148.5 "/>
<text text-anchor="middle" x="253.519" y="-136.5" font-family="Helvetica,sans-Serif" font-size="10.00"> </text>
<polyline fill="none" stroke="black" points="178.019,-129.5 329.019,-129.5 "/>
<text text-anchor="start" x="186.019" y="-117.5" font-family="Helvetica,sans-Serif" font-size="10.00">+ ActionMultiplePinchTight()</text>
<text text-anchor="start" x="186.019" y="-106.5" font-family="Helvetica,sans-Serif" font-size="10.00">+ ActionMultiplePinchTight()</text>
<text text-anchor="start" x="186.019" y="-95.5" font-family="Helvetica,sans-Serif" font-size="10.00">+ ActionMultiplePinchTight()</text>
<text text-anchor="start" x="186.019" y="-84.5" font-family="Helvetica,sans-Serif" font-size="10.00">+ getJointPos()</text>
<text text-anchor="start" x="186.019" y="-73.5" font-family="Helvetica,sans-Serif" font-size="10.00">+ getJointPos()</text>
<text text-anchor="start" x="186.019" y="-62.5" font-family="Helvetica,sans-Serif" font-size="10.00">+ getAllJointPos()</text>
<text text-anchor="start" x="186.019" y="-51.5" font-family="Helvetica,sans-Serif" font-size="10.00">+ getActionStates()</text>
<text text-anchor="start" x="186.019" y="-40.5" font-family="Helvetica,sans-Serif" font-size="10.00">+ insertActionState()</text>
<text text-anchor="start" x="186.019" y="-29.5" font-family="Helvetica,sans-Serif" font-size="10.00">+ print()</text>
<text text-anchor="start" x="186.019" y="-18.5" font-family="Helvetica,sans-Serif" font-size="10.00">+ emitYaml()</text>
<text text-anchor="start" x="186.019" y="-7.5" font-family="Helvetica,sans-Serif" font-size="10.00">+ fillFromYaml()</text>
</g>
<!-- Node2 -->
<g id="node2" class="node"><title>Node2</title>
<g id="a_node2"><a xlink:href="classROSEE_1_1ActionPinchGeneric.html" target="_top" xlink:title="A base virtual class for the PinchTight and PinchLoose classes. ">
<polygon fill="none" stroke="black" points="47.0185,-226.5 47.0185,-316.5 194.019,-316.5 194.019,-226.5 47.0185,-226.5"/>
<text text-anchor="middle" x="120.519" y="-304.5" font-family="Helvetica,sans-Serif" font-size="10.00">ROSEE::ActionPinchGeneric</text>
<polyline fill="none" stroke="black" points="47.0185,-297.5 194.019,-297.5 "/>
<text text-anchor="middle" x="120.519" y="-285.5" font-family="Helvetica,sans-Serif" font-size="10.00"> </text>
<polyline fill="none" stroke="black" points="47.0185,-278.5 194.019,-278.5 "/>
<text text-anchor="start" x="55.0185" y="-266.5" font-family="Helvetica,sans-Serif" font-size="10.00">+ ActionPinchGeneric()</text>
<text text-anchor="start" x="55.0185" y="-255.5" font-family="Helvetica,sans-Serif" font-size="10.00">+ ActionPinchGeneric()</text>
<text text-anchor="start" x="55.0185" y="-244.5" font-family="Helvetica,sans-Serif" font-size="10.00">+ ActionPinchGeneric()</text>
<text text-anchor="start" x="55.0185" y="-233.5" font-family="Helvetica,sans-Serif" font-size="10.00">+ getKeyElements()</text>
</a>
</g>
</g>
<!-- Node2&#45;&gt;Node1 -->
<g id="edge1" class="edge"><title>Node2&#45;&gt;Node1</title>
<path fill="none" stroke="midnightblue" d="M159.225,-218.116C168.35,-205.765 178.327,-192.262 188.267,-178.81"/>
<polygon fill="none" stroke="midnightblue" points="156.182,-216.344 153.054,-226.467 161.812,-220.504 156.182,-216.344"/>
</g>
<!-- Node3 -->
<g id="node3" class="node"><title>Node3</title>
<g id="a_node3"><a xlink:href="classROSEE_1_1ActionPrimitive.html" target="_top" xlink:title="Virtual class, Base of all the primitive actions. ">
<polygon fill="none" stroke="black" points="38.5185,-354.5 38.5185,-521.5 202.519,-521.5 202.519,-354.5 38.5185,-354.5"/>
<text text-anchor="middle" x="120.519" y="-509.5" font-family="Helvetica,sans-Serif" font-size="10.00">ROSEE::ActionPrimitive</text>
<polyline fill="none" stroke="black" points="38.5185,-502.5 202.519,-502.5 "/>
<text text-anchor="start" x="46.5185" y="-490.5" font-family="Helvetica,sans-Serif" font-size="10.00"># nFingersInvolved</text>
<text text-anchor="start" x="46.5185" y="-479.5" font-family="Helvetica,sans-Serif" font-size="10.00"># maxStoredActionStates</text>
<text text-anchor="start" x="46.5185" y="-468.5" font-family="Helvetica,sans-Serif" font-size="10.00"># primitiveType</text>
<polyline fill="none" stroke="black" points="38.5185,-461.5 202.519,-461.5 "/>
<text text-anchor="start" x="46.5185" y="-449.5" font-family="Helvetica,sans-Serif" font-size="10.00">+ ~ActionPrimitive()</text>
<text text-anchor="start" x="46.5185" y="-438.5" font-family="Helvetica,sans-Serif" font-size="10.00">+ getPrimitiveType()</text>
<text text-anchor="start" x="46.5185" y="-427.5" font-family="Helvetica,sans-Serif" font-size="10.00">+ getMaxStoredActionStates()</text>
<text text-anchor="start" x="46.5185" y="-416.5" font-family="Helvetica,sans-Serif" font-size="10.00">+ getnFingersInvolved()</text>
<text text-anchor="start" x="46.5185" y="-405.5" font-family="Helvetica,sans-Serif" font-size="10.00">+ getKeyElements()</text>
<text text-anchor="start" x="46.5185" y="-394.5" font-family="Helvetica,sans-Serif" font-size="10.00">+ setJointsInvolvedCount()</text>
<text text-anchor="start" x="46.5185" y="-383.5" font-family="Helvetica,sans-Serif" font-size="10.00">+ emitYaml()</text>
<text text-anchor="start" x="46.5185" y="-372.5" font-family="Helvetica,sans-Serif" font-size="10.00"># ActionPrimitive()</text>
<text text-anchor="start" x="46.5185" y="-361.5" font-family="Helvetica,sans-Serif" font-size="10.00"># ActionPrimitive()</text>
</a>
</g>
</g>
<!-- Node3&#45;&gt;Node2 -->
<g id="edge2" class="edge"><title>Node3&#45;&gt;Node2</title>
<path fill="none" stroke="midnightblue" d="M120.519,-343.967C120.519,-334.522 120.519,-325.269 120.519,-316.72"/>
<polygon fill="none" stroke="midnightblue" points="117.019,-344.268 120.519,-354.268 124.019,-344.268 117.019,-344.268"/>
</g>
<!-- Node4 -->
<g id="node4" class="node"><title>Node4</title>
<g id="a_node4"><a xlink:href="classROSEE_1_1Action.html" target="_top" xlink:title="The pure virtual class representing an Action. ">
<polygon fill="none" stroke="black" points="48.5185,-559.5 48.5185,-737.5 192.519,-737.5 192.519,-559.5 48.5185,-559.5"/>
<text text-anchor="middle" x="120.519" y="-725.5" font-family="Helvetica,sans-Serif" font-size="10.00">ROSEE::Action</text>
<polyline fill="none" stroke="black" points="48.5185,-718.5 192.519,-718.5 "/>
<text text-anchor="start" x="56.5185" y="-706.5" font-family="Helvetica,sans-Serif" font-size="10.00"># type</text>
<polyline fill="none" stroke="black" points="48.5185,-699.5 192.519,-699.5 "/>
<text text-anchor="start" x="56.5185" y="-687.5" font-family="Helvetica,sans-Serif" font-size="10.00">+ ~Action()</text>
<text text-anchor="start" x="56.5185" y="-676.5" font-family="Helvetica,sans-Serif" font-size="10.00">+ getName()</text>
<text text-anchor="start" x="56.5185" y="-665.5" font-family="Helvetica,sans-Serif" font-size="10.00">+ getType()</text>
<text text-anchor="start" x="56.5185" y="-654.5" font-family="Helvetica,sans-Serif" font-size="10.00">+ getFingersInvolved()</text>
<text text-anchor="start" x="56.5185" y="-643.5" font-family="Helvetica,sans-Serif" font-size="10.00">+ getJointsInvolvedCount()</text>
<text text-anchor="start" x="56.5185" y="-632.5" font-family="Helvetica,sans-Serif" font-size="10.00">+ getJointPos()</text>
<text text-anchor="start" x="56.5185" y="-621.5" font-family="Helvetica,sans-Serif" font-size="10.00">+ getAllJointPos()</text>
<text text-anchor="start" x="56.5185" y="-610.5" font-family="Helvetica,sans-Serif" font-size="10.00">+ print()</text>
<text text-anchor="start" x="56.5185" y="-599.5" font-family="Helvetica,sans-Serif" font-size="10.00">+ emitYaml()</text>
<text text-anchor="start" x="56.5185" y="-588.5" font-family="Helvetica,sans-Serif" font-size="10.00">+ fillFromYaml()</text>
<text text-anchor="start" x="56.5185" y="-577.5" font-family="Helvetica,sans-Serif" font-size="10.00"># Action()</text>
<text text-anchor="start" x="56.5185" y="-566.5" font-family="Helvetica,sans-Serif" font-size="10.00"># Action()</text>
</a>
</g>
</g>
<!-- Node4&#45;&gt;Node3 -->
<g id="edge3" class="edge"><title>Node4&#45;&gt;Node3</title>
<path fill="none" stroke="midnightblue" d="M120.519,-549.113C120.519,-539.984 120.519,-530.794 120.519,-521.826"/>
<polygon fill="none" stroke="midnightblue" points="117.019,-549.379 120.519,-559.379 124.019,-549.379 117.019,-549.379"/>
</g>
<!-- Node5 -->
<g id="node5" class="node"><title>Node5</title>
<polygon fill="none" stroke="#bfbfbf" points="59.0185,-791 59.0185,-848 182.019,-848 182.019,-791 59.0185,-791"/>
<text text-anchor="middle" x="120.519" y="-836" font-family="Helvetica,sans-Serif" font-size="10.00">std::set&lt; std::string &gt;</text>
<polyline fill="none" stroke="#bfbfbf" points="59.0185,-829 182.019,-829 "/>
<text text-anchor="middle" x="120.519" y="-817" font-family="Helvetica,sans-Serif" font-size="10.00"> </text>
<polyline fill="none" stroke="#bfbfbf" points="59.0185,-810 182.019,-810 "/>
<text text-anchor="middle" x="120.519" y="-798" font-family="Helvetica,sans-Serif" font-size="10.00"> </text>
</g>
<!-- Node5&#45;&gt;Node4 -->
<g id="edge4" class="edge"><title>Node5&#45;&gt;Node4</title>
<path fill="none" stroke="#404040" d="M120.519,-790.971C120.519,-779.31 120.519,-764.94 120.519,-749.872"/>
<polygon fill="none" stroke="#404040" points="120.519,-749.676 116.519,-743.676 120.519,-737.676 124.519,-743.676 120.519,-749.676"/>
<text text-anchor="middle" x="162.019" y="-759" font-family="Helvetica,sans-Serif" font-size="10.00"> #fingersInvolved</text>
</g>
<!-- Node6 -->
<g id="node6" class="node"><title>Node6</title>
<g id="a_node6"><a xlink:title="STL class. ">
<polygon fill="none" stroke="#bfbfbf" points="88.0185,-901.5 88.0185,-958.5 153.019,-958.5 153.019,-901.5 88.0185,-901.5"/>
<text text-anchor="middle" x="120.519" y="-946.5" font-family="Helvetica,sans-Serif" font-size="10.00">std::string</text>
<polyline fill="none" stroke="#bfbfbf" points="88.0185,-939.5 153.019,-939.5 "/>
<text text-anchor="middle" x="120.519" y="-927.5" font-family="Helvetica,sans-Serif" font-size="10.00"> </text>
<polyline fill="none" stroke="#bfbfbf" points="88.0185,-920.5 153.019,-920.5 "/>
<text text-anchor="middle" x="120.519" y="-908.5" font-family="Helvetica,sans-Serif" font-size="10.00"> </text>
</a>
</g>
</g>
<!-- Node6&#45;&gt;Node4 -->
<g id="edge9" class="edge"><title>Node6&#45;&gt;Node4</title>
<path fill="none" stroke="#404040" d="M87.8677,-917.036C61.4157,-905.399 25.9387,-884.912 9.5185,-854 -4.86777,-826.917 -0.799919,-813.879 9.5185,-785 16.575,-765.251 27.8851,-746.308 40.645,-729.172"/>
<polygon fill="none" stroke="#404040" points="40.9491,-728.78 41.466,-721.587 48.3042,-719.298 47.7872,-726.491 40.9491,-728.78"/>
<text text-anchor="middle" x="29.5185" y="-817" font-family="Helvetica,sans-Serif" font-size="10.00"> #name</text>
</g>
<!-- Node6&#45;&gt;Node5 -->
<g id="edge5" class="edge"><title>Node6&#45;&gt;Node5</title>
<path fill="none" stroke="#404040" d="M120.519,-901.34C120.519,-888.842 120.519,-873.842 120.519,-860.176"/>
<polygon fill="none" stroke="#404040" points="120.519,-860.109 116.519,-854.109 120.519,-848.109 124.519,-854.109 120.519,-860.109"/>
<text text-anchor="middle" x="137.519" y="-875" font-family="Helvetica,sans-Serif" font-size="10.00"> +keys</text>
</g>
<!-- Node8 -->
<g id="node8" class="node"><title>Node8</title>
<polygon fill="none" stroke="#bfbfbf" points="200.519,-785.5 200.519,-853.5 322.519,-853.5 322.519,-785.5 200.519,-785.5"/>
<text text-anchor="start" x="208.519" y="-841.5" font-family="Helvetica,sans-Serif" font-size="10.00">std::map&lt; std::string,</text>
<text text-anchor="middle" x="261.519" y="-830.5" font-family="Helvetica,sans-Serif" font-size="10.00"> unsigned int &gt;</text>
<polyline fill="none" stroke="#bfbfbf" points="200.519,-823.5 322.519,-823.5 "/>
<text text-anchor="start" x="208.519" y="-811.5" font-family="Helvetica,sans-Serif" font-size="10.00">+ elements</text>
<polyline fill="none" stroke="#bfbfbf" points="200.519,-804.5 322.519,-804.5 "/>
<text text-anchor="middle" x="261.519" y="-792.5" font-family="Helvetica,sans-Serif" font-size="10.00"> </text>
</g>
<!-- Node6&#45;&gt;Node8 -->
<g id="edge8" class="edge"><title>Node6&#45;&gt;Node8</title>
<path fill="none" stroke="#404040" d="M153.221,-903.835C169.778,-891.094 190.285,-875.315 208.984,-860.925"/>
<polygon fill="none" stroke="#404040" points="209.057,-860.869 211.373,-854.04 218.568,-853.551 216.252,-860.38 209.057,-860.869"/>
<text text-anchor="middle" x="208.519" y="-875" font-family="Helvetica,sans-Serif" font-size="10.00"> +keys</text>
</g>
<!-- Node7 -->
<g id="node7" class="node"><title>Node7</title>
<g id="a_node7"><a xlink:title="STL class. ">
<polygon fill="none" stroke="#bfbfbf" points="69.0185,-996.5 69.0185,-1064.5 172.019,-1064.5 172.019,-996.5 69.0185,-996.5"/>
<text text-anchor="start" x="77.0185" y="-1052.5" font-family="Helvetica,sans-Serif" font-size="10.00">std::basic_string&lt;</text>
<text text-anchor="middle" x="120.519" y="-1041.5" font-family="Helvetica,sans-Serif" font-size="10.00"> char &gt;</text>
<polyline fill="none" stroke="#bfbfbf" points="69.0185,-1034.5 172.019,-1034.5 "/>
<text text-anchor="middle" x="120.519" y="-1022.5" font-family="Helvetica,sans-Serif" font-size="10.00"> </text>
<polyline fill="none" stroke="#bfbfbf" points="69.0185,-1015.5 172.019,-1015.5 "/>
<text text-anchor="middle" x="120.519" y="-1003.5" font-family="Helvetica,sans-Serif" font-size="10.00"> </text>
</a>
</g>
</g>
<!-- Node7&#45;&gt;Node6 -->
<g id="edge6" class="edge"><title>Node7&#45;&gt;Node6</title>
<path fill="none" stroke="midnightblue" d="M120.519,-986.375C120.519,-976.94 120.519,-967.201 120.519,-958.571"/>
<polygon fill="none" stroke="midnightblue" points="117.019,-986.427 120.519,-996.427 124.019,-986.427 117.019,-986.427"/>
</g>
<!-- Node8&#45;&gt;Node4 -->
<g id="edge7" class="edge"><title>Node8&#45;&gt;Node4</title>
<path fill="none" stroke="#404040" d="M233.661,-785.111C223.918,-773.432 212.433,-759.667 200.581,-745.462"/>
<polygon fill="none" stroke="#404040" points="200.442,-745.295 193.527,-743.25 192.755,-736.081 199.67,-738.125 200.442,-745.295"/>
<text text-anchor="middle" x="269.019" y="-759" font-family="Helvetica,sans-Serif" font-size="10.00"> #jointsInvolvedCount</text>
</g>
<!-- Node9 -->
<g id="node9" class="node"><title>Node9</title>
<polygon fill="none" stroke="#bfbfbf" points="212.019,-232 212.019,-311 385.019,-311 385.019,-232 212.019,-232"/>
<text text-anchor="start" x="220.019" y="-299" font-family="Helvetica,sans-Serif" font-size="10.00">std::set&lt; StateWithDepth,</text>
<text text-anchor="start" x="220.019" y="-288" font-family="Helvetica,sans-Serif" font-size="10.00"> ROSEE::ActionMultiplePinchTight</text>
<text text-anchor="middle" x="298.519" y="-277" font-family="Helvetica,sans-Serif" font-size="10.00">::depthComp &gt;</text>
<polyline fill="none" stroke="#bfbfbf" points="212.019,-270 385.019,-270 "/>
<text text-anchor="start" x="220.019" y="-258" font-family="Helvetica,sans-Serif" font-size="10.00">+ keys</text>
<polyline fill="none" stroke="#bfbfbf" points="212.019,-251 385.019,-251 "/>
<text text-anchor="middle" x="298.519" y="-239" font-family="Helvetica,sans-Serif" font-size="10.00"> </text>
</g>
<!-- Node9&#45;&gt;Node1 -->
<g id="edge10" class="edge"><title>Node9&#45;&gt;Node1</title>
<path fill="none" stroke="#404040" d="M288.865,-231.885C285.767,-219.496 282.182,-205.152 278.506,-190.45"/>
<polygon fill="none" stroke="#404040" points="278.457,-190.255 273.121,-185.404 275.547,-178.613 280.883,-183.464 278.457,-190.255"/>
<text text-anchor="middle" x="317.519" y="-200" font-family="Helvetica,sans-Serif" font-size="10.00"> &#45;actionStates</text>
</g>
</g>
</svg>
