<?xml version="1.0" encoding="UTF-8" standalone="no"?>
<!DOCTYPE svg PUBLIC "-//W3C//DTD SVG 1.1//EN"
 "http://www.w3.org/Graphics/SVG/1.1/DTD/svg11.dtd">
<!-- Generated by graphviz version 2.38.0 (20140413.2041)
 -->
<!-- Title: ROSEE::EEInterface Pages: 1 -->
<svg width="770pt" height="732pt"
 viewBox="0.00 0.00 770.00 732.00" xmlns="http://www.w3.org/2000/svg" xmlns:xlink="http://www.w3.org/1999/xlink">
<g id="graph0" class="graph" transform="scale(1 1) rotate(0) translate(4 728)">
<title>ROSEE::EEInterface</title>
<!-- Node1 -->
<g id="node1" class="node"><title>Node1</title>
<polygon fill="#bfbfbf" stroke="black" points="215.5,-0.5 215.5,-222.5 396.5,-222.5 396.5,-0.5 215.5,-0.5"/>
<text text-anchor="middle" x="306" y="-210.5" font-family="Helvetica,sans-Serif" font-size="10.00">ROSEE::EEInterface</text>
<polyline fill="none" stroke="black" points="215.5,-203.5 396.5,-203.5 "/>
<text text-anchor="start" x="223.5" y="-191.5" font-family="Helvetica,sans-Serif" font-size="10.00">&#45; _upper_limits</text>
<text text-anchor="start" x="223.5" y="-180.5" font-family="Helvetica,sans-Serif" font-size="10.00">&#45; _lower_limits</text>
<text text-anchor="start" x="223.5" y="-169.5" font-family="Helvetica,sans-Serif" font-size="10.00">&#45; _joints_num</text>
<polyline fill="none" stroke="black" points="215.5,-162.5 396.5,-162.5 "/>
<text text-anchor="start" x="223.5" y="-150.5" font-family="Helvetica,sans-Serif" font-size="10.00">+ EEInterface()</text>
<text text-anchor="start" x="223.5" y="-139.5" font-family="Helvetica,sans-Serif" font-size="10.00">+ ~EEInterface()</text>
<text text-anchor="start" x="223.5" y="-128.5" font-family="Helvetica,sans-Serif" font-size="10.00">+ getFingers()</text>
<text text-anchor="start" x="223.5" y="-117.5" font-family="Helvetica,sans-Serif" font-size="10.00">+ isFinger()</text>
<text text-anchor="start" x="223.5" y="-106.5" font-family="Helvetica,sans-Serif" font-size="10.00">+ getActuatedJoints()</text>
<text text-anchor="start" x="223.5" y="-95.5" font-family="Helvetica,sans-Serif" font-size="10.00">+ getActuatedJointsInFinger()</text>
<text text-anchor="start" x="223.5" y="-84.5" font-family="Helvetica,sans-Serif" font-size="10.00">+ getActuatedJointsNum()</text>
<text text-anchor="start" x="223.5" y="-73.5" font-family="Helvetica,sans-Serif" font-size="10.00">+ getActuatedJointsNumInFinger()</text>
<text text-anchor="start" x="223.5" y="-62.5" font-family="Helvetica,sans-Serif" font-size="10.00">+ getUpperPositionLimits()</text>
<text text-anchor="start" x="223.5" y="-51.5" font-family="Helvetica,sans-Serif" font-size="10.00">+ getLowerPositionLimits()</text>
<text text-anchor="start" x="223.5" y="-40.5" font-family="Helvetica,sans-Serif" font-size="10.00">+ getInternalIdsForFinger()</text>
<text text-anchor="start" x="223.5" y="-29.5" font-family="Helvetica,sans-Serif" font-size="10.00">+ getInternalIdForJoint()</text>
<text text-anchor="start" x="223.5" y="-18.5" font-family="Helvetica,sans-Serif" font-size="10.00">+ getFingersNumber()</text>
<text text-anchor="start" x="223.5" y="-7.5" font-family="Helvetica,sans-Serif" font-size="10.00">+ getName()</text>
</g>
<!-- Node2 -->
<g id="node2" class="node"><title>Node2</title>
<polygon fill="none" stroke="#bfbfbf" points="261,-357.5 261,-425.5 383,-425.5 383,-357.5 261,-357.5"/>
<text text-anchor="start" x="269" y="-413.5" font-family="Helvetica,sans-Serif" font-size="10.00">std::map&lt; std::string,</text>
<text text-anchor="middle" x="322" y="-402.5" font-family="Helvetica,sans-Serif" font-size="10.00"> int &gt;</text>
<polyline fill="none" stroke="#bfbfbf" points="261,-395.5 383,-395.5 "/>
<text text-anchor="start" x="269" y="-383.5" font-family="Helvetica,sans-Serif" font-size="10.00">+ elements</text>
<polyline fill="none" stroke="#bfbfbf" points="261,-376.5 383,-376.5 "/>
<text text-anchor="middle" x="322" y="-364.5" font-family="Helvetica,sans-Serif" font-size="10.00"> </text>
</g>
<!-- Node2&#45;&gt;Node1 -->
<g id="edge1" class="edge"><title>Node2&#45;&gt;Node1</title>
<path fill="none" stroke="#404040" d="M266.698,-357.427C261.211,-351.958 256.417,-345.815 253,-339 236.817,-306.728 238.399,-269.376 247.312,-234.426"/>
<polygon fill="none" stroke="#404040" points="247.366,-234.232 245.132,-227.376 250.601,-222.676 252.836,-229.532 247.366,-234.232"/>
<text text-anchor="middle" x="313" y="-302" font-family="Helvetica,sans-Serif" font-size="10.00"> &#45;_joints_internal_id_map</text>
</g>
<!-- Node3 -->
<g id="node3" class="node"><title>Node3</title>
<g id="a_node3"><a xlink:title="STL class. ">
<polygon fill="none" stroke="#bfbfbf" points="333.5,-560.5 333.5,-617.5 398.5,-617.5 398.5,-560.5 333.5,-560.5"/>
<text text-anchor="middle" x="366" y="-605.5" font-family="Helvetica,sans-Serif" font-size="10.00">std::string</text>
<polyline fill="none" stroke="#bfbfbf" points="333.5,-598.5 398.5,-598.5 "/>
<text text-anchor="middle" x="366" y="-586.5" font-family="Helvetica,sans-Serif" font-size="10.00"> </text>
<polyline fill="none" stroke="#bfbfbf" points="333.5,-579.5 398.5,-579.5 "/>
<text text-anchor="middle" x="366" y="-567.5" font-family="Helvetica,sans-Serif" font-size="10.00"> </text>
</a>
</g>
</g>
<!-- Node3&#45;&gt;Node1 -->
<g id="edge8" class="edge"><title>Node3&#45;&gt;Node1</title>
<path fill="none" stroke="#404040" d="M333.431,-569.178C291.987,-543.113 222.38,-491.715 194,-426 160.366,-348.118 205.895,-318.23 241,-241 242.114,-238.55 243.249,-236.078 244.401,-233.592"/>
<polygon fill="none" stroke="#404040" points="244.456,-233.475 243.385,-226.344 249.555,-222.612 250.627,-229.743 244.456,-233.475"/>
<text text-anchor="middle" x="223" y="-389" font-family="Helvetica,sans-Serif" font-size="10.00"> &#45;_ee_name</text>
</g>
<!-- Node3&#45;&gt;Node2 -->
<g id="edge2" class="edge"><title>Node3&#45;&gt;Node2</title>
<path fill="none" stroke="#404040" d="M355.676,-560.478C353.624,-554.441 351.608,-548.047 350,-542 340.825,-507.501 333.532,-467.748 328.692,-437.911"/>
<polygon fill="none" stroke="#404040" points="328.647,-437.627 323.757,-432.327 326.769,-425.775 331.659,-431.075 328.647,-437.627"/>
<text text-anchor="middle" x="367" y="-534" font-family="Helvetica,sans-Serif" font-size="10.00"> +keys</text>
</g>
<!-- Node5 -->
<g id="node5" class="node"><title>Node5</title>
<polygon fill="none" stroke="#bfbfbf" points="382,-270.5 382,-338.5 534,-338.5 534,-270.5 382,-270.5"/>
<text text-anchor="start" x="390" y="-326.5" font-family="Helvetica,sans-Serif" font-size="10.00">std::map&lt; std::string,</text>
<text text-anchor="middle" x="458" y="-315.5" font-family="Helvetica,sans-Serif" font-size="10.00"> std::vector&lt; std::string &gt; &gt;</text>
<polyline fill="none" stroke="#bfbfbf" points="382,-308.5 534,-308.5 "/>
<text text-anchor="middle" x="458" y="-296.5" font-family="Helvetica,sans-Serif" font-size="10.00"> </text>
<polyline fill="none" stroke="#bfbfbf" points="382,-289.5 534,-289.5 "/>
<text text-anchor="middle" x="458" y="-277.5" font-family="Helvetica,sans-Serif" font-size="10.00"> </text>
</g>
<!-- Node3&#45;&gt;Node5 -->
<g id="edge5" class="edge"><title>Node3&#45;&gt;Node5</title>
<path fill="none" stroke="#404040" d="M377.498,-560.497C379.814,-554.459 382.114,-548.059 384,-542 397.296,-499.282 394.135,-486.849 407,-444 416.563,-412.147 429.539,-376.991 440.009,-350.07"/>
<polygon fill="none" stroke="#404040" points="440.088,-349.867 438.557,-342.82 444.473,-338.697 446.004,-345.743 440.088,-349.867"/>
<text text-anchor="middle" x="424" y="-476" font-family="Helvetica,sans-Serif" font-size="10.00"> +keys</text>
</g>
<!-- Node6 -->
<g id="node6" class="node"><title>Node6</title>
<polygon fill="none" stroke="#bfbfbf" points="450,-450 450,-507 588,-507 588,-450 450,-450"/>
<text text-anchor="middle" x="519" y="-495" font-family="Helvetica,sans-Serif" font-size="10.00">std::vector&lt; std::string &gt;</text>
<polyline fill="none" stroke="#bfbfbf" points="450,-488 588,-488 "/>
<text text-anchor="middle" x="519" y="-476" font-family="Helvetica,sans-Serif" font-size="10.00"> </text>
<polyline fill="none" stroke="#bfbfbf" points="450,-469 588,-469 "/>
<text text-anchor="middle" x="519" y="-457" font-family="Helvetica,sans-Serif" font-size="10.00"> </text>
</g>
<!-- Node3&#45;&gt;Node6 -->
<g id="edge7" class="edge"><title>Node3&#45;&gt;Node6</title>
<path fill="none" stroke="#404040" d="M398.822,-564.724C419.55,-550.025 446.712,-530.763 469.968,-514.271"/>
<polygon fill="none" stroke="#404040" points="470.214,-514.096 472.795,-507.363 480.003,-507.155 477.422,-513.889 470.214,-514.096"/>
<text text-anchor="middle" x="471.5" y="-534" font-family="Helvetica,sans-Serif" font-size="10.00"> +elements</text>
</g>
<!-- Node7 -->
<g id="node7" class="node"><title>Node7</title>
<polygon fill="none" stroke="#bfbfbf" points="599,-357.5 599,-425.5 751,-425.5 751,-357.5 599,-357.5"/>
<text text-anchor="start" x="607" y="-413.5" font-family="Helvetica,sans-Serif" font-size="10.00">std::map&lt; std::string,</text>
<text text-anchor="middle" x="675" y="-402.5" font-family="Helvetica,sans-Serif" font-size="10.00"> urdf::JointConstSharedPtr &gt;</text>
<polyline fill="none" stroke="#bfbfbf" points="599,-395.5 751,-395.5 "/>
<text text-anchor="start" x="607" y="-383.5" font-family="Helvetica,sans-Serif" font-size="10.00">+ elements</text>
<polyline fill="none" stroke="#bfbfbf" points="599,-376.5 751,-376.5 "/>
<text text-anchor="middle" x="675" y="-364.5" font-family="Helvetica,sans-Serif" font-size="10.00"> </text>
</g>
<!-- Node3&#45;&gt;Node7 -->
<g id="edge10" class="edge"><title>Node3&#45;&gt;Node7</title>
<path fill="none" stroke="#404040" d="M398.677,-584.377C446.564,-577.636 536.649,-559.37 597,-513 622.821,-493.161 642.603,-462.182 655.785,-436.603"/>
<polygon fill="none" stroke="#404040" points="655.88,-436.411 654.956,-429.26 661.202,-425.656 662.126,-432.807 655.88,-436.411"/>
<text text-anchor="middle" x="587" y="-534" font-family="Helvetica,sans-Serif" font-size="10.00"> +keys</text>
</g>
<!-- Node8 -->
<g id="node8" class="node"><title>Node8</title>
<polygon fill="none" stroke="#bfbfbf" points="0,-444.5 0,-512.5 122,-512.5 122,-444.5 0,-444.5"/>
<text text-anchor="start" x="8" y="-500.5" font-family="Helvetica,sans-Serif" font-size="10.00">std::map&lt; std::string,</text>
<text text-anchor="middle" x="61" y="-489.5" font-family="Helvetica,sans-Serif" font-size="10.00"> std::vector&lt; int &gt; &gt;</text>
<polyline fill="none" stroke="#bfbfbf" points="0,-482.5 122,-482.5 "/>
<text text-anchor="middle" x="61" y="-470.5" font-family="Helvetica,sans-Serif" font-size="10.00"> </text>
<polyline fill="none" stroke="#bfbfbf" points="0,-463.5 122,-463.5 "/>
<text text-anchor="middle" x="61" y="-451.5" font-family="Helvetica,sans-Serif" font-size="10.00"> </text>
</g>
<!-- Node3&#45;&gt;Node8 -->
<g id="edge13" class="edge"><title>Node3&#45;&gt;Node8</title>
<path fill="none" stroke="#404040" d="M333.284,-585.15C289.86,-580.461 211.508,-568.809 150,-542 136.613,-536.165 123.192,-528.151 110.978,-519.807"/>
<polygon fill="none" stroke="#404040" points="110.823,-519.697 103.614,-519.494 101.03,-512.761 108.238,-512.965 110.823,-519.697"/>
<text text-anchor="middle" x="167" y="-534" font-family="Helvetica,sans-Serif" font-size="10.00"> +keys</text>
</g>
<!-- Node4 -->
<g id="node4" class="node"><title>Node4</title>
<g id="a_node4"><a xlink:title="STL class. ">
<polygon fill="none" stroke="#bfbfbf" points="314.5,-655.5 314.5,-723.5 417.5,-723.5 417.5,-655.5 314.5,-655.5"/>
<text text-anchor="start" x="322.5" y="-711.5" font-family="Helvetica,sans-Serif" font-size="10.00">std::basic_string&lt;</text>
<text text-anchor="middle" x="366" y="-700.5" font-family="Helvetica,sans-Serif" font-size="10.00"> char &gt;</text>
<polyline fill="none" stroke="#bfbfbf" points="314.5,-693.5 417.5,-693.5 "/>
<text text-anchor="middle" x="366" y="-681.5" font-family="Helvetica,sans-Serif" font-size="10.00"> </text>
<polyline fill="none" stroke="#bfbfbf" points="314.5,-674.5 417.5,-674.5 "/>
<text text-anchor="middle" x="366" y="-662.5" font-family="Helvetica,sans-Serif" font-size="10.00"> </text>
</a>
</g>
</g>
<!-- Node4&#45;&gt;Node3 -->
<g id="edge3" class="edge"><title>Node4&#45;&gt;Node3</title>
<path fill="none" stroke="midnightblue" d="M366,-645.375C366,-635.94 366,-626.201 366,-617.571"/>
<polygon fill="none" stroke="midnightblue" points="362.5,-645.427 366,-655.427 369.5,-645.427 362.5,-645.427"/>
</g>
<!-- Node5&#45;&gt;Node1 -->
<g id="edge4" class="edge"><title>Node5&#45;&gt;Node1</title>
<path fill="none" stroke="#404040" d="M431.524,-270.23C422.747,-259.202 412.409,-246.212 401.497,-232.499"/>
<polygon fill="none" stroke="#404040" points="401.334,-232.295 394.468,-230.091 393.862,-222.905 400.728,-225.109 401.334,-232.295"/>
<text text-anchor="middle" x="455" y="-244" font-family="Helvetica,sans-Serif" font-size="10.00"> &#45;_ee_description</text>
</g>
<!-- Node6&#45;&gt;Node1 -->
<g id="edge11" class="edge"><title>Node6&#45;&gt;Node1</title>
<path fill="none" stroke="#404040" d="M543.591,-449.832C548.675,-442.557 553.301,-434.384 556,-426 566.662,-392.887 561.563,-299.42 543,-270 511.01,-219.3 456.096,-181.277 407.18,-155.304"/>
<polygon fill="none" stroke="#404040" points="407.175,-155.302 400.007,-156.093 396.52,-149.781 403.688,-148.99 407.175,-155.302"/>
<text text-anchor="middle" x="601.5" y="-307.5" font-family="Helvetica,sans-Serif" font-size="10.00"> &#45;_fingers_names</text>
<text text-anchor="middle" x="601.5" y="-296.5" font-family="Helvetica,sans-Serif" font-size="10.00">&#45;_actuated_joints</text>
</g>
<!-- Node6&#45;&gt;Node5 -->
<g id="edge6" class="edge"><title>Node6&#45;&gt;Node5</title>
<path fill="none" stroke="#404040" d="M507.988,-449.785C505.005,-442.106 501.822,-433.751 499,-426 489.89,-400.98 480.272,-372.817 472.643,-350.012"/>
<polygon fill="none" stroke="#404040" points="472.641,-350.005 466.95,-345.577 468.848,-338.621 474.54,-343.049 472.641,-350.005"/>
<text text-anchor="middle" x="527.5" y="-389" font-family="Helvetica,sans-Serif" font-size="10.00"> +elements</text>
</g>
<!-- Node7&#45;&gt;Node1 -->
<g id="edge9" class="edge"><title>Node7&#45;&gt;Node1</title>
<path fill="none" stroke="#404040" d="M678.198,-357.31C678.952,-331.078 675.848,-294.863 657,-270 597.198,-191.113 488.992,-150.778 408.473,-130.797"/>
<polygon fill="none" stroke="#404040" points="408.472,-130.797 401.703,-133.285 396.803,-127.995 403.571,-125.506 408.472,-130.797"/>
<text text-anchor="middle" x="720" y="-302" font-family="Helvetica,sans-Serif" font-size="10.00"> &#45;_urdf_joint_map</text>
</g>
<!-- Node8&#45;&gt;Node1 -->
<g id="edge12" class="edge"><title>Node8&#45;&gt;Node1</title>
<path fill="none" stroke="#404040" d="M54.1962,-444.45C47.1241,-401.281 40.9581,-324.765 72,-270 101.353,-218.214 155.59,-180.097 204.46,-154.343"/>
<polygon fill="none" stroke="#404040" points="204.765,-154.187 208.279,-147.89 215.443,-148.712 211.929,-155.009 204.765,-154.187"/>
<text text-anchor="start" x="72" y="-307.5" font-family="Helvetica,sans-Serif" font-size="10.00"> &#45;_finger_joints_internal</text>
<text text-anchor="middle" x="128" y="-296.5" font-family="Helvetica,sans-Serif" font-size="10.00">_id_map</text>
</g>
<!-- Node9 -->
<g id="node9" class="node"><title>Node9</title>
<polygon fill="none" stroke="#bfbfbf" points="10,-560.5 10,-617.5 112,-617.5 112,-560.5 10,-560.5"/>
<text text-anchor="middle" x="61" y="-605.5" font-family="Helvetica,sans-Serif" font-size="10.00">std::vector&lt; int &gt;</text>
<polyline fill="none" stroke="#bfbfbf" points="10,-598.5 112,-598.5 "/>
<text text-anchor="start" x="18" y="-586.5" font-family="Helvetica,sans-Serif" font-size="10.00">+ elements</text>
<polyline fill="none" stroke="#bfbfbf" points="10,-579.5 112,-579.5 "/>
<text text-anchor="middle" x="61" y="-567.5" font-family="Helvetica,sans-Serif" font-size="10.00"> </text>
</g>
<!-- Node9&#45;&gt;Node8 -->
<g id="edge14" class="edge"><title>Node9&#45;&gt;Node8</title>
<path fill="none" stroke="#404040" d="M61,-560.34C61,-549.529 61,-536.847 61,-524.775"/>
<polygon fill="none" stroke="#404040" points="61.0001,-524.519 57,-518.519 61,-512.519 65,-518.519 61.0001,-524.519"/>
<text text-anchor="middle" x="89.5" y="-534" font-family="Helvetica,sans-Serif" font-size="10.00"> +elements</text>
</g>
</g>
</svg>
