<?xml version="1.0" encoding="UTF-8" standalone="no"?>
<!DOCTYPE svg PUBLIC "-//W3C//DTD SVG 1.1//EN"
 "http://www.w3.org/Graphics/SVG/1.1/DTD/svg11.dtd">
<!-- Generated by graphviz version 2.38.0 (20140413.2041)
 -->
<!-- Title: ROSEE::ActionGeneric Pages: 1 -->
<svg width="520pt" height="697pt"
 viewBox="0.00 0.00 520.00 697.00" xmlns="http://www.w3.org/2000/svg" xmlns:xlink="http://www.w3.org/1999/xlink">
<g id="graph0" class="graph" transform="scale(1 1) rotate(0) translate(4 693)">
<title>ROSEE::ActionGeneric</title>
<!-- Node1 -->
<g id="node1" class="node"><title>Node1</title>
<polygon fill="#bfbfbf" stroke="black" points="107,-0.5 107,-145.5 229,-145.5 229,-0.5 107,-0.5"/>
<text text-anchor="middle" x="168" y="-133.5" font-family="Helvetica,sans-Serif" font-size="10.00">ROSEE::ActionGeneric</text>
<polyline fill="none" stroke="black" points="107,-126.5 229,-126.5 "/>
<text text-anchor="middle" x="168" y="-114.5" font-family="Helvetica,sans-Serif" font-size="10.00"> </text>
<polyline fill="none" stroke="black" points="107,-107.5 229,-107.5 "/>
<text text-anchor="start" x="115" y="-95.5" font-family="Helvetica,sans-Serif" font-size="10.00">+ ActionGeneric()</text>
<text text-anchor="start" x="115" y="-84.5" font-family="Helvetica,sans-Serif" font-size="10.00">+ ActionGeneric()</text>
<text text-anchor="start" x="115" y="-73.5" font-family="Helvetica,sans-Serif" font-size="10.00">+ ActionGeneric()</text>
<text text-anchor="start" x="115" y="-62.5" font-family="Helvetica,sans-Serif" font-size="10.00">+ ActionGeneric()</text>
<text text-anchor="start" x="115" y="-51.5" font-family="Helvetica,sans-Serif" font-size="10.00">+ getJointPos()</text>
<text text-anchor="start" x="115" y="-40.5" font-family="Helvetica,sans-Serif" font-size="10.00">+ getAllJointPos()</text>
<text text-anchor="start" x="115" y="-29.5" font-family="Helvetica,sans-Serif" font-size="10.00">+ emitYaml()</text>
<text text-anchor="start" x="115" y="-18.5" font-family="Helvetica,sans-Serif" font-size="10.00">+ fillFromYaml()</text>
<text text-anchor="start" x="115" y="-7.5" font-family="Helvetica,sans-Serif" font-size="10.00"># ActionGeneric()</text>
</g>
<!-- Node2 -->
<g id="node2" class="node"><title>Node2</title>
<g id="a_node2"><a xlink:href="classROSEE_1_1Action.html" target="_top" xlink:title="The pure virtual class representing an Action. ">
<polygon fill="none" stroke="black" points="202,-183.5 202,-361.5 346,-361.5 346,-183.5 202,-183.5"/>
<text text-anchor="middle" x="274" y="-349.5" font-family="Helvetica,sans-Serif" font-size="10.00">ROSEE::Action</text>
<polyline fill="none" stroke="black" points="202,-342.5 346,-342.5 "/>
<text text-anchor="start" x="210" y="-330.5" font-family="Helvetica,sans-Serif" font-size="10.00"># type</text>
<polyline fill="none" stroke="black" points="202,-323.5 346,-323.5 "/>
<text text-anchor="start" x="210" y="-311.5" font-family="Helvetica,sans-Serif" font-size="10.00">+ ~Action()</text>
<text text-anchor="start" x="210" y="-300.5" font-family="Helvetica,sans-Serif" font-size="10.00">+ getName()</text>
<text text-anchor="start" x="210" y="-289.5" font-family="Helvetica,sans-Serif" font-size="10.00">+ getType()</text>
<text text-anchor="start" x="210" y="-278.5" font-family="Helvetica,sans-Serif" font-size="10.00">+ getFingersInvolved()</text>
<text text-anchor="start" x="210" y="-267.5" font-family="Helvetica,sans-Serif" font-size="10.00">+ getJointsInvolvedCount()</text>
<text text-anchor="start" x="210" y="-256.5" font-family="Helvetica,sans-Serif" font-size="10.00">+ getJointPos()</text>
<text text-anchor="start" x="210" y="-245.5" font-family="Helvetica,sans-Serif" font-size="10.00">+ getAllJointPos()</text>
<text text-anchor="start" x="210" y="-234.5" font-family="Helvetica,sans-Serif" font-size="10.00">+ print()</text>
<text text-anchor="start" x="210" y="-223.5" font-family="Helvetica,sans-Serif" font-size="10.00">+ emitYaml()</text>
<text text-anchor="start" x="210" y="-212.5" font-family="Helvetica,sans-Serif" font-size="10.00">+ fillFromYaml()</text>
<text text-anchor="start" x="210" y="-201.5" font-family="Helvetica,sans-Serif" font-size="10.00"># Action()</text>
<text text-anchor="start" x="210" y="-190.5" font-family="Helvetica,sans-Serif" font-size="10.00"># Action()</text>
</a>
</g>
</g>
<!-- Node2&#45;&gt;Node1 -->
<g id="edge1" class="edge"><title>Node2&#45;&gt;Node1</title>
<path fill="none" stroke="midnightblue" d="M221.945,-174.511C216.72,-164.775 211.482,-155.016 206.435,-145.612"/>
<polygon fill="none" stroke="midnightblue" points="218.922,-176.28 226.735,-183.436 225.09,-172.969 218.922,-176.28"/>
</g>
<!-- Node3 -->
<g id="node3" class="node"><title>Node3</title>
<polygon fill="none" stroke="#bfbfbf" points="248.5,-415 248.5,-472 371.5,-472 371.5,-415 248.5,-415"/>
<text text-anchor="middle" x="310" y="-460" font-family="Helvetica,sans-Serif" font-size="10.00">std::set&lt; std::string &gt;</text>
<polyline fill="none" stroke="#bfbfbf" points="248.5,-453 371.5,-453 "/>
<text text-anchor="middle" x="310" y="-441" font-family="Helvetica,sans-Serif" font-size="10.00"> </text>
<polyline fill="none" stroke="#bfbfbf" points="248.5,-434 371.5,-434 "/>
<text text-anchor="middle" x="310" y="-422" font-family="Helvetica,sans-Serif" font-size="10.00"> </text>
</g>
<!-- Node3&#45;&gt;Node2 -->
<g id="edge2" class="edge"><title>Node3&#45;&gt;Node2</title>
<path fill="none" stroke="#404040" d="M304.136,-414.971C301.627,-403.195 298.53,-388.655 295.286,-373.424"/>
<polygon fill="none" stroke="#404040" points="295.283,-373.412 290.121,-368.377 292.783,-361.676 297.945,-366.711 295.283,-373.412"/>
<text text-anchor="middle" x="340.5" y="-383" font-family="Helvetica,sans-Serif" font-size="10.00"> #fingersInvolved</text>
</g>
<!-- Node4 -->
<g id="node4" class="node"><title>Node4</title>
<g id="a_node4"><a xlink:title="STL class. ">
<polygon fill="none" stroke="#bfbfbf" points="195.5,-525.5 195.5,-582.5 260.5,-582.5 260.5,-525.5 195.5,-525.5"/>
<text text-anchor="middle" x="228" y="-570.5" font-family="Helvetica,sans-Serif" font-size="10.00">std::string</text>
<polyline fill="none" stroke="#bfbfbf" points="195.5,-563.5 260.5,-563.5 "/>
<text text-anchor="middle" x="228" y="-551.5" font-family="Helvetica,sans-Serif" font-size="10.00"> </text>
<polyline fill="none" stroke="#bfbfbf" points="195.5,-544.5 260.5,-544.5 "/>
<text text-anchor="middle" x="228" y="-532.5" font-family="Helvetica,sans-Serif" font-size="10.00"> </text>
</a>
</g>
</g>
<!-- Node4&#45;&gt;Node2 -->
<g id="edge7" class="edge"><title>Node4&#45;&gt;Node2</title>
<path fill="none" stroke="#404040" d="M214.439,-525.231C208.419,-511.394 202.022,-494.194 199,-478 193.375,-447.854 191.331,-438.692 199,-409 202.134,-396.867 206.612,-384.661 211.842,-372.81"/>
<polygon fill="none" stroke="#404040" points="212.008,-372.453 210.91,-365.326 217.067,-361.572 218.165,-368.699 212.008,-372.453"/>
<text text-anchor="middle" x="219" y="-441" font-family="Helvetica,sans-Serif" font-size="10.00"> #name</text>
</g>
<!-- Node4&#45;&gt;Node3 -->
<g id="edge3" class="edge"><title>Node4&#45;&gt;Node3</title>
<path fill="none" stroke="#404040" d="M248.904,-525.34C258.832,-512.204 270.848,-496.305 281.587,-482.095"/>
<polygon fill="none" stroke="#404040" points="281.899,-481.683 282.325,-474.484 289.134,-472.109 288.707,-479.308 281.899,-481.683"/>
<text text-anchor="middle" x="286" y="-499" font-family="Helvetica,sans-Serif" font-size="10.00"> +keys</text>
</g>
<!-- Node6 -->
<g id="node6" class="node"><title>Node6</title>
<polygon fill="none" stroke="#bfbfbf" points="390,-409.5 390,-477.5 512,-477.5 512,-409.5 390,-409.5"/>
<text text-anchor="start" x="398" y="-465.5" font-family="Helvetica,sans-Serif" font-size="10.00">std::map&lt; std::string,</text>
<text text-anchor="middle" x="451" y="-454.5" font-family="Helvetica,sans-Serif" font-size="10.00"> unsigned int &gt;</text>
<polyline fill="none" stroke="#bfbfbf" points="390,-447.5 512,-447.5 "/>
<text text-anchor="start" x="398" y="-435.5" font-family="Helvetica,sans-Serif" font-size="10.00">+ elements</text>
<polyline fill="none" stroke="#bfbfbf" points="390,-428.5 512,-428.5 "/>
<text text-anchor="middle" x="451" y="-416.5" font-family="Helvetica,sans-Serif" font-size="10.00"> </text>
</g>
<!-- Node4&#45;&gt;Node6 -->
<g id="edge6" class="edge"><title>Node4&#45;&gt;Node6</title>
<path fill="none" stroke="#404040" d="M260.904,-536.99C291.802,-521.957 339.082,-498.954 378.758,-479.649"/>
<polygon fill="none" stroke="#404040" points="378.937,-479.562 382.582,-473.34 389.728,-474.312 386.083,-480.534 378.937,-479.562"/>
<text text-anchor="middle" x="356" y="-499" font-family="Helvetica,sans-Serif" font-size="10.00"> +keys</text>
</g>
<!-- Node7 -->
<g id="node7" class="node"><title>Node7</title>
<polygon fill="none" stroke="#bfbfbf" points="16.5,-409.5 16.5,-477.5 153.5,-477.5 153.5,-409.5 16.5,-409.5"/>
<text text-anchor="start" x="24.5" y="-465.5" font-family="Helvetica,sans-Serif" font-size="10.00">std::map&lt; std::string,</text>
<text text-anchor="middle" x="85" y="-454.5" font-family="Helvetica,sans-Serif" font-size="10.00"> std::vector&lt; double &gt; &gt;</text>
<polyline fill="none" stroke="#bfbfbf" points="16.5,-447.5 153.5,-447.5 "/>
<text text-anchor="middle" x="85" y="-435.5" font-family="Helvetica,sans-Serif" font-size="10.00"> </text>
<polyline fill="none" stroke="#bfbfbf" points="16.5,-428.5 153.5,-428.5 "/>
<text text-anchor="middle" x="85" y="-416.5" font-family="Helvetica,sans-Serif" font-size="10.00"> </text>
</g>
<!-- Node4&#45;&gt;Node7 -->
<g id="edge9" class="edge"><title>Node4&#45;&gt;Node7</title>
<path fill="none" stroke="#404040" d="M195.379,-538.812C178.599,-530.728 158.303,-519.686 142,-507 134.34,-501.039 126.836,-493.99 119.917,-486.812"/>
<polygon fill="none" stroke="#404040" points="119.654,-486.528 112.642,-484.844 111.5,-477.724 118.512,-479.408 119.654,-486.528"/>
<text text-anchor="middle" x="159" y="-499" font-family="Helvetica,sans-Serif" font-size="10.00"> +keys</text>
</g>
<!-- Node5 -->
<g id="node5" class="node"><title>Node5</title>
<g id="a_node5"><a xlink:title="STL class. ">
<polygon fill="none" stroke="#bfbfbf" points="176.5,-620.5 176.5,-688.5 279.5,-688.5 279.5,-620.5 176.5,-620.5"/>
<text text-anchor="start" x="184.5" y="-676.5" font-family="Helvetica,sans-Serif" font-size="10.00">std::basic_string&lt;</text>
<text text-anchor="middle" x="228" y="-665.5" font-family="Helvetica,sans-Serif" font-size="10.00"> char &gt;</text>
<polyline fill="none" stroke="#bfbfbf" points="176.5,-658.5 279.5,-658.5 "/>
<text text-anchor="middle" x="228" y="-646.5" font-family="Helvetica,sans-Serif" font-size="10.00"> </text>
<polyline fill="none" stroke="#bfbfbf" points="176.5,-639.5 279.5,-639.5 "/>
<text text-anchor="middle" x="228" y="-627.5" font-family="Helvetica,sans-Serif" font-size="10.00"> </text>
</a>
</g>
</g>
<!-- Node5&#45;&gt;Node4 -->
<g id="edge4" class="edge"><title>Node5&#45;&gt;Node4</title>
<path fill="none" stroke="midnightblue" d="M228,-610.375C228,-600.94 228,-591.201 228,-582.571"/>
<polygon fill="none" stroke="midnightblue" points="224.5,-610.427 228,-620.427 231.5,-610.427 224.5,-610.427"/>
</g>
<!-- Node6&#45;&gt;Node2 -->
<g id="edge5" class="edge"><title>Node6&#45;&gt;Node2</title>
<path fill="none" stroke="#404040" d="M416.626,-409.379C406.749,-399.882 395.957,-389.521 386,-380 375.925,-370.366 365.326,-360.256 354.831,-350.26"/>
<polygon fill="none" stroke="#404040" points="354.745,-350.178 347.641,-348.938 346.054,-341.903 353.158,-343.144 354.745,-350.178"/>
<text text-anchor="middle" x="448.5" y="-383" font-family="Helvetica,sans-Serif" font-size="10.00"> #jointsInvolvedCount</text>
</g>
<!-- Node7&#45;&gt;Node1 -->
<g id="edge8" class="edge"><title>Node7&#45;&gt;Node1</title>
<path fill="none" stroke="#404040" d="M92.4387,-409.474C105.099,-353.267 131.203,-237.369 149.154,-157.671"/>
<polygon fill="none" stroke="#404040" points="149.214,-157.403 146.631,-150.671 151.851,-145.696 154.435,-152.429 149.214,-157.403"/>
<text text-anchor="middle" x="167.5" y="-270" font-family="Helvetica,sans-Serif" font-size="10.00"> #jointPos</text>
</g>
<!-- Node8 -->
<g id="node8" class="node"><title>Node8</title>
<polygon fill="none" stroke="#bfbfbf" points="0,-525.5 0,-582.5 122,-582.5 122,-525.5 0,-525.5"/>
<text text-anchor="middle" x="61" y="-570.5" font-family="Helvetica,sans-Serif" font-size="10.00">std::vector&lt; double &gt;</text>
<polyline fill="none" stroke="#bfbfbf" points="0,-563.5 122,-563.5 "/>
<text text-anchor="start" x="8" y="-551.5" font-family="Helvetica,sans-Serif" font-size="10.00">+ elements</text>
<polyline fill="none" stroke="#bfbfbf" points="0,-544.5 122,-544.5 "/>
<text text-anchor="middle" x="61" y="-532.5" font-family="Helvetica,sans-Serif" font-size="10.00"> </text>
</g>
<!-- Node8&#45;&gt;Node7 -->
<g id="edge10" class="edge"><title>Node8&#45;&gt;Node7</title>
<path fill="none" stroke="#404040" d="M59.2668,-525.484C59.2549,-516.04 59.8948,-505.468 62,-496 62.5101,-493.706 63.1267,-491.389 63.8253,-489.075"/>
<polygon fill="none" stroke="#404040" points="63.8737,-488.938 62.112,-481.945 67.8891,-477.63 69.6508,-484.622 63.8737,-488.938"/>
<text text-anchor="middle" x="90.5" y="-499" font-family="Helvetica,sans-Serif" font-size="10.00"> +elements</text>
</g>
</g>
</svg>
