<?xml version="1.0" encoding="UTF-8" standalone="no"?>
<!DOCTYPE svg PUBLIC "-//W3C//DTD SVG 1.1//EN"
 "http://www.w3.org/Graphics/SVG/1.1/DTD/svg11.dtd">
<!-- Generated by graphviz version 2.38.0 (20140413.2041)
 -->
<!-- Title: ROSEE::EEHal Pages: 1 -->
<svg width="336pt" height="668pt"
 viewBox="0.00 0.00 335.50 668.00" xmlns="http://www.w3.org/2000/svg" xmlns:xlink="http://www.w3.org/1999/xlink">
<g id="graph0" class="graph" transform="scale(1 1) rotate(0) translate(4 664)">
<title>ROSEE::EEHal</title>
<!-- Node1 -->
<g id="node1" class="node"><title>Node1</title>
<polygon fill="#bfbfbf" stroke="black" points="28.5,-0.5 28.5,-332.5 170.5,-332.5 170.5,-0.5 28.5,-0.5"/>
<text text-anchor="middle" x="99.5" y="-320.5" font-family="Helvetica,sans-Serif" font-size="10.00">ROSEE::EEHal</text>
<polyline fill="none" stroke="black" points="28.5,-313.5 170.5,-313.5 "/>
<text text-anchor="start" x="36.5" y="-301.5" font-family="Helvetica,sans-Serif" font-size="10.00">+ _pressure_active</text>
<text text-anchor="start" x="36.5" y="-290.5" font-family="Helvetica,sans-Serif" font-size="10.00"># _nh</text>
<text text-anchor="start" x="36.5" y="-279.5" font-family="Helvetica,sans-Serif" font-size="10.00"># _mr_msg</text>
<text text-anchor="start" x="36.5" y="-268.5" font-family="Helvetica,sans-Serif" font-size="10.00"># _motor_reference_sub</text>
<text text-anchor="start" x="36.5" y="-257.5" font-family="Helvetica,sans-Serif" font-size="10.00"># _js_msg</text>
<text text-anchor="start" x="36.5" y="-246.5" font-family="Helvetica,sans-Serif" font-size="10.00"># _joint_state_pub</text>
<text text-anchor="start" x="36.5" y="-235.5" font-family="Helvetica,sans-Serif" font-size="10.00"># _pressure_msg</text>
<text text-anchor="start" x="36.5" y="-224.5" font-family="Helvetica,sans-Serif" font-size="10.00"># _pressure_pub</text>
<text text-anchor="start" x="36.5" y="-213.5" font-family="Helvetica,sans-Serif" font-size="10.00"># tips_frictions</text>
<text text-anchor="start" x="36.5" y="-202.5" font-family="Helvetica,sans-Serif" font-size="10.00"># motors_torque_limits</text>
<text text-anchor="start" x="36.5" y="-191.5" font-family="Helvetica,sans-Serif" font-size="10.00"># motors_stiffness</text>
<text text-anchor="start" x="36.5" y="-180.5" font-family="Helvetica,sans-Serif" font-size="10.00"># tip_joint_to_tip_frame_x</text>
<text text-anchor="start" x="36.5" y="-169.5" font-family="Helvetica,sans-Serif" font-size="10.00"># tip_joint_to_tip_frame_y</text>
<text text-anchor="start" x="36.5" y="-158.5" font-family="Helvetica,sans-Serif" font-size="10.00"># _hand_info_server</text>
<text text-anchor="start" x="36.5" y="-147.5" font-family="Helvetica,sans-Serif" font-size="10.00"># _hand_info_response</text>
<polyline fill="none" stroke="black" points="28.5,-140.5 170.5,-140.5 "/>
<text text-anchor="start" x="36.5" y="-128.5" font-family="Helvetica,sans-Serif" font-size="10.00">+ EEHal()</text>
<text text-anchor="start" x="36.5" y="-117.5" font-family="Helvetica,sans-Serif" font-size="10.00">+ ~EEHal()</text>
<text text-anchor="start" x="36.5" y="-106.5" font-family="Helvetica,sans-Serif" font-size="10.00">+ sense()</text>
<text text-anchor="start" x="36.5" y="-95.5" font-family="Helvetica,sans-Serif" font-size="10.00">+ move()</text>
<text text-anchor="start" x="36.5" y="-84.5" font-family="Helvetica,sans-Serif" font-size="10.00">+ publish_joint_state()</text>
<text text-anchor="start" x="36.5" y="-73.5" font-family="Helvetica,sans-Serif" font-size="10.00">+ checkCommandPub()</text>
<text text-anchor="start" x="36.5" y="-62.5" font-family="Helvetica,sans-Serif" font-size="10.00">+ getFingersNames()</text>
<text text-anchor="start" x="36.5" y="-51.5" font-family="Helvetica,sans-Serif" font-size="10.00">+ getMotorsNames()</text>
<text text-anchor="start" x="36.5" y="-40.5" font-family="Helvetica,sans-Serif" font-size="10.00">+ getMotorStiffness()</text>
<text text-anchor="start" x="36.5" y="-29.5" font-family="Helvetica,sans-Serif" font-size="10.00">+ getTipsFrictions()</text>
<text text-anchor="start" x="36.5" y="-18.5" font-family="Helvetica,sans-Serif" font-size="10.00">and 19 more...</text>
<text text-anchor="start" x="36.5" y="-7.5" font-family="Helvetica,sans-Serif" font-size="10.00"># initPressureSensing()</text>
</g>
<!-- Node2 -->
<g id="node2" class="node"><title>Node2</title>
<g id="a_node2"><a xlink:title="STL class. ">
<polygon fill="none" stroke="#bfbfbf" points="19,-496.5 19,-553.5 84,-553.5 84,-496.5 19,-496.5"/>
<text text-anchor="middle" x="51.5" y="-541.5" font-family="Helvetica,sans-Serif" font-size="10.00">std::string</text>
<polyline fill="none" stroke="#bfbfbf" points="19,-534.5 84,-534.5 "/>
<text text-anchor="middle" x="51.5" y="-522.5" font-family="Helvetica,sans-Serif" font-size="10.00"> </text>
<polyline fill="none" stroke="#bfbfbf" points="19,-515.5 84,-515.5 "/>
<text text-anchor="middle" x="51.5" y="-503.5" font-family="Helvetica,sans-Serif" font-size="10.00"> </text>
</a>
</g>
</g>
<!-- Node2&#45;&gt;Node1 -->
<g id="edge1" class="edge"><title>Node2&#45;&gt;Node1</title>
<path fill="none" stroke="#404040" d="M48.2903,-496.261C46.8137,-482.135 45.23,-464.676 44.5,-449 43.3009,-423.25 41.3976,-416.59 44.5,-391 46.3395,-375.827 48.8572,-360.198 51.8093,-344.589"/>
<polygon fill="none" stroke="#404040" points="51.8385,-344.439 49.0677,-337.782 54.1475,-332.664 56.9182,-339.321 51.8385,-344.439"/>
<text text-anchor="middle" x="112.5" y="-417.5" font-family="Helvetica,sans-Serif" font-size="10.00"> #_hand_info_service_name</text>
</g>
<!-- Node4 -->
<g id="node4" class="node"><title>Node4</title>
<polygon fill="none" stroke="#bfbfbf" points="189.5,-391.5 189.5,-448.5 327.5,-448.5 327.5,-391.5 189.5,-391.5"/>
<text text-anchor="middle" x="258.5" y="-436.5" font-family="Helvetica,sans-Serif" font-size="10.00">std::vector&lt; std::string &gt;</text>
<polyline fill="none" stroke="#bfbfbf" points="189.5,-429.5 327.5,-429.5 "/>
<text text-anchor="middle" x="258.5" y="-417.5" font-family="Helvetica,sans-Serif" font-size="10.00"> </text>
<polyline fill="none" stroke="#bfbfbf" points="189.5,-410.5 327.5,-410.5 "/>
<text text-anchor="middle" x="258.5" y="-398.5" font-family="Helvetica,sans-Serif" font-size="10.00"> </text>
</g>
<!-- Node2&#45;&gt;Node4 -->
<g id="edge4" class="edge"><title>Node2&#45;&gt;Node4</title>
<path fill="none" stroke="#404040" d="M84.2998,-507.679C113.124,-493.337 155.962,-472.021 191.944,-454.117"/>
<polygon fill="none" stroke="#404040" points="192.124,-454.028 195.714,-447.774 202.867,-448.682 199.277,-454.936 192.124,-454.028"/>
<text text-anchor="middle" x="189" y="-470" font-family="Helvetica,sans-Serif" font-size="10.00"> +elements</text>
</g>
<!-- Node3 -->
<g id="node3" class="node"><title>Node3</title>
<g id="a_node3"><a xlink:title="STL class. ">
<polygon fill="none" stroke="#bfbfbf" points="0,-591.5 0,-659.5 103,-659.5 103,-591.5 0,-591.5"/>
<text text-anchor="start" x="8" y="-647.5" font-family="Helvetica,sans-Serif" font-size="10.00">std::basic_string&lt;</text>
<text text-anchor="middle" x="51.5" y="-636.5" font-family="Helvetica,sans-Serif" font-size="10.00"> char &gt;</text>
<polyline fill="none" stroke="#bfbfbf" points="0,-629.5 103,-629.5 "/>
<text text-anchor="middle" x="51.5" y="-617.5" font-family="Helvetica,sans-Serif" font-size="10.00"> </text>
<polyline fill="none" stroke="#bfbfbf" points="0,-610.5 103,-610.5 "/>
<text text-anchor="middle" x="51.5" y="-598.5" font-family="Helvetica,sans-Serif" font-size="10.00"> </text>
</a>
</g>
</g>
<!-- Node3&#45;&gt;Node2 -->
<g id="edge2" class="edge"><title>Node3&#45;&gt;Node2</title>
<path fill="none" stroke="midnightblue" d="M51.5,-581.375C51.5,-571.94 51.5,-562.201 51.5,-553.571"/>
<polygon fill="none" stroke="midnightblue" points="48.0001,-581.427 51.5,-591.427 55.0001,-581.427 48.0001,-581.427"/>
</g>
<!-- Node4&#45;&gt;Node1 -->
<g id="edge3" class="edge"><title>Node4&#45;&gt;Node1</title>
<path fill="none" stroke="#404040" d="M240.877,-391.124C225.209,-366.341 201.149,-328.284 177.294,-290.552"/>
<polygon fill="none" stroke="#404040" points="176.991,-290.072 170.404,-287.138 170.578,-279.929 177.166,-282.863 176.991,-290.072"/>
<text text-anchor="middle" x="270" y="-365" font-family="Helvetica,sans-Serif" font-size="10.00"> #motors_names</text>
<text text-anchor="middle" x="270" y="-354" font-family="Helvetica,sans-Serif" font-size="10.00">#fingers_names</text>
</g>
</g>
</svg>
