<?xml version="1.0" encoding="UTF-8" standalone="no"?>
<!DOCTYPE svg PUBLIC "-//W3C//DTD SVG 1.1//EN"
 "http://www.w3.org/Graphics/SVG/1.1/DTD/svg11.dtd">
<!-- Generated by graphviz version 2.38.0 (20140413.2041)
 -->
<!-- Title: ROSEE::ActionPinchTight Pages: 1 -->
<svg width="371pt" height="1084pt"
 viewBox="0.00 0.00 371.02 1084.00" xmlns="http://www.w3.org/2000/svg" xmlns:xlink="http://www.w3.org/1999/xlink">
<g id="graph0" class="graph" transform="scale(1 1) rotate(0) translate(4 1080)">
<title>ROSEE::ActionPinchTight</title>
<!-- Node1 -->
<g id="node1" class="node"><title>Node1</title>
<polygon fill="#bfbfbf" stroke="black" points="178.519,-0.5 178.519,-189.5 312.519,-189.5 312.519,-0.5 178.519,-0.5"/>
<text text-anchor="middle" x="245.519" y="-177.5" font-family="Helvetica,sans-Serif" font-size="10.00">ROSEE::ActionPinchTight</text>
<polyline fill="none" stroke="black" points="178.519,-170.5 312.519,-170.5 "/>
<text text-anchor="middle" x="245.519" y="-158.5" font-family="Helvetica,sans-Serif" font-size="10.00"> </text>
<polyline fill="none" stroke="black" points="178.519,-151.5 312.519,-151.5 "/>
<text text-anchor="start" x="186.519" y="-139.5" font-family="Helvetica,sans-Serif" font-size="10.00">+ ActionPinchTight()</text>
<text text-anchor="start" x="186.519" y="-128.5" font-family="Helvetica,sans-Serif" font-size="10.00">+ ActionPinchTight()</text>
<text text-anchor="start" x="186.519" y="-117.5" font-family="Helvetica,sans-Serif" font-size="10.00">+ ActionPinchTight()</text>
<text text-anchor="start" x="186.519" y="-106.5" font-family="Helvetica,sans-Serif" font-size="10.00">+ ActionPinchTight()</text>
<text text-anchor="start" x="186.519" y="-95.5" font-family="Helvetica,sans-Serif" font-size="10.00">+ getJointPos()</text>
<text text-anchor="start" x="186.519" y="-84.5" font-family="Helvetica,sans-Serif" font-size="10.00">+ getJointPos()</text>
<text text-anchor="start" x="186.519" y="-73.5" font-family="Helvetica,sans-Serif" font-size="10.00">+ getAllJointPos()</text>
<text text-anchor="start" x="186.519" y="-62.5" font-family="Helvetica,sans-Serif" font-size="10.00">+ getActionStates()</text>
<text text-anchor="start" x="186.519" y="-51.5" font-family="Helvetica,sans-Serif" font-size="10.00">+ insertActionState()</text>
<text text-anchor="start" x="186.519" y="-40.5" font-family="Helvetica,sans-Serif" font-size="10.00">+ print()</text>
<text text-anchor="start" x="186.519" y="-29.5" font-family="Helvetica,sans-Serif" font-size="10.00">+ emitYaml()</text>
<text text-anchor="start" x="186.519" y="-18.5" font-family="Helvetica,sans-Serif" font-size="10.00">+ fillFromYaml()</text>
<text text-anchor="start" x="186.519" y="-7.5" font-family="Helvetica,sans-Serif" font-size="10.00">&#45; emitYamlForContact()</text>
</g>
<!-- Node2 -->
<g id="node2" class="node"><title>Node2</title>
<g id="a_node2"><a xlink:href="classROSEE_1_1ActionPinchGeneric.html" target="_top" xlink:title="A base virtual class for the PinchTight and PinchLoose classes. ">
<polygon fill="none" stroke="black" points="47.0185,-237.5 47.0185,-327.5 194.019,-327.5 194.019,-237.5 47.0185,-237.5"/>
<text text-anchor="middle" x="120.519" y="-315.5" font-family="Helvetica,sans-Serif" font-size="10.00">ROSEE::ActionPinchGeneric</text>
<polyline fill="none" stroke="black" points="47.0185,-308.5 194.019,-308.5 "/>
<text text-anchor="middle" x="120.519" y="-296.5" font-family="Helvetica,sans-Serif" font-size="10.00"> </text>
<polyline fill="none" stroke="black" points="47.0185,-289.5 194.019,-289.5 "/>
<text text-anchor="start" x="55.0185" y="-277.5" font-family="Helvetica,sans-Serif" font-size="10.00">+ ActionPinchGeneric()</text>
<text text-anchor="start" x="55.0185" y="-266.5" font-family="Helvetica,sans-Serif" font-size="10.00">+ ActionPinchGeneric()</text>
<text text-anchor="start" x="55.0185" y="-255.5" font-family="Helvetica,sans-Serif" font-size="10.00">+ ActionPinchGeneric()</text>
<text text-anchor="start" x="55.0185" y="-244.5" font-family="Helvetica,sans-Serif" font-size="10.00">+ getKeyElements()</text>
</a>
</g>
</g>
<!-- Node2&#45;&gt;Node1 -->
<g id="edge1" class="edge"><title>Node2&#45;&gt;Node1</title>
<path fill="none" stroke="midnightblue" d="M156.285,-228.423C164.484,-216.256 173.439,-202.966 182.411,-189.652"/>
<polygon fill="none" stroke="midnightblue" points="153.145,-226.819 150.459,-237.068 158.95,-230.731 153.145,-226.819"/>
</g>
<!-- Node3 -->
<g id="node3" class="node"><title>Node3</title>
<g id="a_node3"><a xlink:href="classROSEE_1_1ActionPrimitive.html" target="_top" xlink:title="Virtual class, Base of all the primitive actions. ">
<polygon fill="none" stroke="black" points="38.5185,-365.5 38.5185,-532.5 202.519,-532.5 202.519,-365.5 38.5185,-365.5"/>
<text text-anchor="middle" x="120.519" y="-520.5" font-family="Helvetica,sans-Serif" font-size="10.00">ROSEE::ActionPrimitive</text>
<polyline fill="none" stroke="black" points="38.5185,-513.5 202.519,-513.5 "/>
<text text-anchor="start" x="46.5185" y="-501.5" font-family="Helvetica,sans-Serif" font-size="10.00"># nFingersInvolved</text>
<text text-anchor="start" x="46.5185" y="-490.5" font-family="Helvetica,sans-Serif" font-size="10.00"># maxStoredActionStates</text>
<text text-anchor="start" x="46.5185" y="-479.5" font-family="Helvetica,sans-Serif" font-size="10.00"># primitiveType</text>
<polyline fill="none" stroke="black" points="38.5185,-472.5 202.519,-472.5 "/>
<text text-anchor="start" x="46.5185" y="-460.5" font-family="Helvetica,sans-Serif" font-size="10.00">+ ~ActionPrimitive()</text>
<text text-anchor="start" x="46.5185" y="-449.5" font-family="Helvetica,sans-Serif" font-size="10.00">+ getPrimitiveType()</text>
<text text-anchor="start" x="46.5185" y="-438.5" font-family="Helvetica,sans-Serif" font-size="10.00">+ getMaxStoredActionStates()</text>
<text text-anchor="start" x="46.5185" y="-427.5" font-family="Helvetica,sans-Serif" font-size="10.00">+ getnFingersInvolved()</text>
<text text-anchor="start" x="46.5185" y="-416.5" font-family="Helvetica,sans-Serif" font-size="10.00">+ getKeyElements()</text>
<text text-anchor="start" x="46.5185" y="-405.5" font-family="Helvetica,sans-Serif" font-size="10.00">+ setJointsInvolvedCount()</text>
<text text-anchor="start" x="46.5185" y="-394.5" font-family="Helvetica,sans-Serif" font-size="10.00">+ emitYaml()</text>
<text text-anchor="start" x="46.5185" y="-383.5" font-family="Helvetica,sans-Serif" font-size="10.00"># ActionPrimitive()</text>
<text text-anchor="start" x="46.5185" y="-372.5" font-family="Helvetica,sans-Serif" font-size="10.00"># ActionPrimitive()</text>
</a>
</g>
</g>
<!-- Node3&#45;&gt;Node2 -->
<g id="edge2" class="edge"><title>Node3&#45;&gt;Node2</title>
<path fill="none" stroke="midnightblue" d="M120.519,-354.967C120.519,-345.522 120.519,-336.269 120.519,-327.72"/>
<polygon fill="none" stroke="midnightblue" points="117.019,-355.268 120.519,-365.268 124.019,-355.268 117.019,-355.268"/>
</g>
<!-- Node4 -->
<g id="node4" class="node"><title>Node4</title>
<g id="a_node4"><a xlink:href="classROSEE_1_1Action.html" target="_top" xlink:title="The pure virtual class representing an Action. ">
<polygon fill="none" stroke="black" points="48.5185,-570.5 48.5185,-748.5 192.519,-748.5 192.519,-570.5 48.5185,-570.5"/>
<text text-anchor="middle" x="120.519" y="-736.5" font-family="Helvetica,sans-Serif" font-size="10.00">ROSEE::Action</text>
<polyline fill="none" stroke="black" points="48.5185,-729.5 192.519,-729.5 "/>
<text text-anchor="start" x="56.5185" y="-717.5" font-family="Helvetica,sans-Serif" font-size="10.00"># type</text>
<polyline fill="none" stroke="black" points="48.5185,-710.5 192.519,-710.5 "/>
<text text-anchor="start" x="56.5185" y="-698.5" font-family="Helvetica,sans-Serif" font-size="10.00">+ ~Action()</text>
<text text-anchor="start" x="56.5185" y="-687.5" font-family="Helvetica,sans-Serif" font-size="10.00">+ getName()</text>
<text text-anchor="start" x="56.5185" y="-676.5" font-family="Helvetica,sans-Serif" font-size="10.00">+ getType()</text>
<text text-anchor="start" x="56.5185" y="-665.5" font-family="Helvetica,sans-Serif" font-size="10.00">+ getFingersInvolved()</text>
<text text-anchor="start" x="56.5185" y="-654.5" font-family="Helvetica,sans-Serif" font-size="10.00">+ getJointsInvolvedCount()</text>
<text text-anchor="start" x="56.5185" y="-643.5" font-family="Helvetica,sans-Serif" font-size="10.00">+ getJointPos()</text>
<text text-anchor="start" x="56.5185" y="-632.5" font-family="Helvetica,sans-Serif" font-size="10.00">+ getAllJointPos()</text>
<text text-anchor="start" x="56.5185" y="-621.5" font-family="Helvetica,sans-Serif" font-size="10.00">+ print()</text>
<text text-anchor="start" x="56.5185" y="-610.5" font-family="Helvetica,sans-Serif" font-size="10.00">+ emitYaml()</text>
<text text-anchor="start" x="56.5185" y="-599.5" font-family="Helvetica,sans-Serif" font-size="10.00">+ fillFromYaml()</text>
<text text-anchor="start" x="56.5185" y="-588.5" font-family="Helvetica,sans-Serif" font-size="10.00"># Action()</text>
<text text-anchor="start" x="56.5185" y="-577.5" font-family="Helvetica,sans-Serif" font-size="10.00"># Action()</text>
</a>
</g>
</g>
<!-- Node4&#45;&gt;Node3 -->
<g id="edge3" class="edge"><title>Node4&#45;&gt;Node3</title>
<path fill="none" stroke="midnightblue" d="M120.519,-560.113C120.519,-550.984 120.519,-541.794 120.519,-532.826"/>
<polygon fill="none" stroke="midnightblue" points="117.019,-560.379 120.519,-570.379 124.019,-560.379 117.019,-560.379"/>
</g>
<!-- Node5 -->
<g id="node5" class="node"><title>Node5</title>
<polygon fill="none" stroke="#bfbfbf" points="59.0185,-802 59.0185,-859 182.019,-859 182.019,-802 59.0185,-802"/>
<text text-anchor="middle" x="120.519" y="-847" font-family="Helvetica,sans-Serif" font-size="10.00">std::set&lt; std::string &gt;</text>
<polyline fill="none" stroke="#bfbfbf" points="59.0185,-840 182.019,-840 "/>
<text text-anchor="middle" x="120.519" y="-828" font-family="Helvetica,sans-Serif" font-size="10.00"> </text>
<polyline fill="none" stroke="#bfbfbf" points="59.0185,-821 182.019,-821 "/>
<text text-anchor="middle" x="120.519" y="-809" font-family="Helvetica,sans-Serif" font-size="10.00"> </text>
</g>
<!-- Node5&#45;&gt;Node4 -->
<g id="edge4" class="edge"><title>Node5&#45;&gt;Node4</title>
<path fill="none" stroke="#404040" d="M120.519,-801.971C120.519,-790.31 120.519,-775.94 120.519,-760.872"/>
<polygon fill="none" stroke="#404040" points="120.519,-760.676 116.519,-754.676 120.519,-748.676 124.519,-754.676 120.519,-760.676"/>
<text text-anchor="middle" x="162.019" y="-770" font-family="Helvetica,sans-Serif" font-size="10.00"> #fingersInvolved</text>
</g>
<!-- Node6 -->
<g id="node6" class="node"><title>Node6</title>
<g id="a_node6"><a xlink:title="STL class. ">
<polygon fill="none" stroke="#bfbfbf" points="88.0185,-912.5 88.0185,-969.5 153.019,-969.5 153.019,-912.5 88.0185,-912.5"/>
<text text-anchor="middle" x="120.519" y="-957.5" font-family="Helvetica,sans-Serif" font-size="10.00">std::string</text>
<polyline fill="none" stroke="#bfbfbf" points="88.0185,-950.5 153.019,-950.5 "/>
<text text-anchor="middle" x="120.519" y="-938.5" font-family="Helvetica,sans-Serif" font-size="10.00"> </text>
<polyline fill="none" stroke="#bfbfbf" points="88.0185,-931.5 153.019,-931.5 "/>
<text text-anchor="middle" x="120.519" y="-919.5" font-family="Helvetica,sans-Serif" font-size="10.00"> </text>
</a>
</g>
</g>
<!-- Node6&#45;&gt;Node4 -->
<g id="edge9" class="edge"><title>Node6&#45;&gt;Node4</title>
<path fill="none" stroke="#404040" d="M87.8677,-928.036C61.4157,-916.399 25.9387,-895.912 9.5185,-865 -4.86777,-837.917 -0.799919,-824.879 9.5185,-796 16.575,-776.251 27.8851,-757.308 40.645,-740.172"/>
<polygon fill="none" stroke="#404040" points="40.9491,-739.78 41.466,-732.587 48.3042,-730.298 47.7872,-737.491 40.9491,-739.78"/>
<text text-anchor="middle" x="29.5185" y="-828" font-family="Helvetica,sans-Serif" font-size="10.00"> #name</text>
</g>
<!-- Node6&#45;&gt;Node5 -->
<g id="edge5" class="edge"><title>Node6&#45;&gt;Node5</title>
<path fill="none" stroke="#404040" d="M120.519,-912.34C120.519,-899.842 120.519,-884.842 120.519,-871.176"/>
<polygon fill="none" stroke="#404040" points="120.519,-871.109 116.519,-865.109 120.519,-859.109 124.519,-865.109 120.519,-871.109"/>
<text text-anchor="middle" x="137.519" y="-886" font-family="Helvetica,sans-Serif" font-size="10.00"> +keys</text>
</g>
<!-- Node8 -->
<g id="node8" class="node"><title>Node8</title>
<polygon fill="none" stroke="#bfbfbf" points="200.519,-796.5 200.519,-864.5 322.519,-864.5 322.519,-796.5 200.519,-796.5"/>
<text text-anchor="start" x="208.519" y="-852.5" font-family="Helvetica,sans-Serif" font-size="10.00">std::map&lt; std::string,</text>
<text text-anchor="middle" x="261.519" y="-841.5" font-family="Helvetica,sans-Serif" font-size="10.00"> unsigned int &gt;</text>
<polyline fill="none" stroke="#bfbfbf" points="200.519,-834.5 322.519,-834.5 "/>
<text text-anchor="start" x="208.519" y="-822.5" font-family="Helvetica,sans-Serif" font-size="10.00">+ elements</text>
<polyline fill="none" stroke="#bfbfbf" points="200.519,-815.5 322.519,-815.5 "/>
<text text-anchor="middle" x="261.519" y="-803.5" font-family="Helvetica,sans-Serif" font-size="10.00"> </text>
</g>
<!-- Node6&#45;&gt;Node8 -->
<g id="edge8" class="edge"><title>Node6&#45;&gt;Node8</title>
<path fill="none" stroke="#404040" d="M153.221,-914.835C169.778,-902.094 190.285,-886.315 208.984,-871.925"/>
<polygon fill="none" stroke="#404040" points="209.057,-871.869 211.373,-865.04 218.568,-864.551 216.252,-871.38 209.057,-871.869"/>
<text text-anchor="middle" x="208.519" y="-886" font-family="Helvetica,sans-Serif" font-size="10.00"> +keys</text>
</g>
<!-- Node7 -->
<g id="node7" class="node"><title>Node7</title>
<g id="a_node7"><a xlink:title="STL class. ">
<polygon fill="none" stroke="#bfbfbf" points="69.0185,-1007.5 69.0185,-1075.5 172.019,-1075.5 172.019,-1007.5 69.0185,-1007.5"/>
<text text-anchor="start" x="77.0185" y="-1063.5" font-family="Helvetica,sans-Serif" font-size="10.00">std::basic_string&lt;</text>
<text text-anchor="middle" x="120.519" y="-1052.5" font-family="Helvetica,sans-Serif" font-size="10.00"> char &gt;</text>
<polyline fill="none" stroke="#bfbfbf" points="69.0185,-1045.5 172.019,-1045.5 "/>
<text text-anchor="middle" x="120.519" y="-1033.5" font-family="Helvetica,sans-Serif" font-size="10.00"> </text>
<polyline fill="none" stroke="#bfbfbf" points="69.0185,-1026.5 172.019,-1026.5 "/>
<text text-anchor="middle" x="120.519" y="-1014.5" font-family="Helvetica,sans-Serif" font-size="10.00"> </text>
</a>
</g>
</g>
<!-- Node7&#45;&gt;Node6 -->
<g id="edge6" class="edge"><title>Node7&#45;&gt;Node6</title>
<path fill="none" stroke="midnightblue" d="M120.519,-997.375C120.519,-987.94 120.519,-978.201 120.519,-969.571"/>
<polygon fill="none" stroke="midnightblue" points="117.019,-997.427 120.519,-1007.43 124.019,-997.427 117.019,-997.427"/>
</g>
<!-- Node8&#45;&gt;Node4 -->
<g id="edge7" class="edge"><title>Node8&#45;&gt;Node4</title>
<path fill="none" stroke="#404040" d="M233.661,-796.111C223.918,-784.432 212.433,-770.667 200.581,-756.462"/>
<polygon fill="none" stroke="#404040" points="200.442,-756.295 193.527,-754.25 192.755,-747.081 199.67,-749.125 200.442,-756.295"/>
<text text-anchor="middle" x="269.019" y="-770" font-family="Helvetica,sans-Serif" font-size="10.00"> #jointsInvolvedCount</text>
</g>
<!-- Node9 -->
<g id="node9" class="node"><title>Node9</title>
<polygon fill="none" stroke="#bfbfbf" points="212.019,-243 212.019,-322 363.019,-322 363.019,-243 212.019,-243"/>
<text text-anchor="start" x="220.019" y="-310" font-family="Helvetica,sans-Serif" font-size="10.00">std::set&lt; StateWithContact,</text>
<text text-anchor="start" x="220.019" y="-299" font-family="Helvetica,sans-Serif" font-size="10.00"> ROSEE::ActionPinchTight</text>
<text text-anchor="middle" x="287.519" y="-288" font-family="Helvetica,sans-Serif" font-size="10.00">::depthComp &gt;</text>
<polyline fill="none" stroke="#bfbfbf" points="212.019,-281 363.019,-281 "/>
<text text-anchor="start" x="220.019" y="-269" font-family="Helvetica,sans-Serif" font-size="10.00">+ keys</text>
<polyline fill="none" stroke="#bfbfbf" points="212.019,-262 363.019,-262 "/>
<text text-anchor="middle" x="287.519" y="-250" font-family="Helvetica,sans-Serif" font-size="10.00"> </text>
</g>
<!-- Node9&#45;&gt;Node1 -->
<g id="edge10" class="edge"><title>Node9&#45;&gt;Node1</title>
<path fill="none" stroke="#404040" d="M278.714,-242.613C275.943,-230.374 272.738,-216.22 269.435,-201.632"/>
<polygon fill="none" stroke="#404040" points="269.422,-201.572 264.196,-196.604 266.772,-189.869 271.998,-194.837 269.422,-201.572"/>
<text text-anchor="middle" x="307.519" y="-211" font-family="Helvetica,sans-Serif" font-size="10.00"> &#45;actionStates</text>
</g>
</g>
</svg>
