<?xml version="1.0" encoding="UTF-8" standalone="no"?>
<!DOCTYPE svg PUBLIC "-//W3C//DTD SVG 1.1//EN"
 "http://www.w3.org/Graphics/SVG/1.1/DTD/svg11.dtd">
<!-- Generated by graphviz version 2.38.0 (20140413.2041)
 -->
<!-- Title: ROSEE::FindActions Pages: 1 -->
<svg width="198pt" height="602pt"
 viewBox="0.00 0.00 198.00 602.00" xmlns="http://www.w3.org/2000/svg" xmlns:xlink="http://www.w3.org/1999/xlink">
<g id="graph0" class="graph" transform="scale(1 1) rotate(0) translate(4 598)">
<title>ROSEE::FindActions</title>
<!-- Node1 -->
<g id="node1" class="node"><title>Node1</title>
<polygon fill="#bfbfbf" stroke="black" points="0,-0.5 0,-255.5 190,-255.5 190,-0.5 0,-0.5"/>
<text text-anchor="middle" x="95" y="-243.5" font-family="Helvetica,sans-Serif" font-size="10.00">ROSEE::FindActions</text>
<polyline fill="none" stroke="black" points="0,-236.5 190,-236.5 "/>
<text text-anchor="start" x="8" y="-224.5" font-family="Helvetica,sans-Serif" font-size="10.00">&#45; parserMoveIt</text>
<polyline fill="none" stroke="black" points="0,-217.5 190,-217.5 "/>
<text text-anchor="start" x="8" y="-205.5" font-family="Helvetica,sans-Serif" font-size="10.00">+ FindActions()</text>
<text text-anchor="start" x="8" y="-194.5" font-family="Helvetica,sans-Serif" font-size="10.00">+ findPinch()</text>
<text text-anchor="start" x="8" y="-183.5" font-family="Helvetica,sans-Serif" font-size="10.00">+ findMultiplePinch()</text>
<text text-anchor="start" x="8" y="-172.5" font-family="Helvetica,sans-Serif" font-size="10.00">+ findTrig()</text>
<text text-anchor="start" x="8" y="-161.5" font-family="Helvetica,sans-Serif" font-size="10.00">+ findSingleJointMultipleTips()</text>
<text text-anchor="start" x="8" y="-150.5" font-family="Helvetica,sans-Serif" font-size="10.00">&#45; checkCollisions()</text>
<text text-anchor="start" x="8" y="-139.5" font-family="Helvetica,sans-Serif" font-size="10.00">&#45; checkDistances()</text>
<text text-anchor="start" x="8" y="-128.5" font-family="Helvetica,sans-Serif" font-size="10.00">&#45; checkWhichTipsCollideWithout</text>
<text text-anchor="start" x="8" y="-117.5" font-family="Helvetica,sans-Serif" font-size="10.00">Bounds()</text>
<text text-anchor="start" x="8" y="-106.5" font-family="Helvetica,sans-Serif" font-size="10.00">&#45; checkCollisionsForMultiple</text>
<text text-anchor="start" x="8" y="-95.5" font-family="Helvetica,sans-Serif" font-size="10.00">Pinch()</text>
<text text-anchor="start" x="8" y="-84.5" font-family="Helvetica,sans-Serif" font-size="10.00">&#45; removeBoundsOfNotCollidingTips()</text>
<text text-anchor="start" x="8" y="-73.5" font-family="Helvetica,sans-Serif" font-size="10.00">&#45; fillNotCollidingTips()</text>
<text text-anchor="start" x="8" y="-62.5" font-family="Helvetica,sans-Serif" font-size="10.00">&#45; changeFingertipsToFinger</text>
<text text-anchor="start" x="8" y="-51.5" font-family="Helvetica,sans-Serif" font-size="10.00">Names()</text>
<text text-anchor="start" x="8" y="-40.5" font-family="Helvetica,sans-Serif" font-size="10.00">&#45; trig()</text>
<text text-anchor="start" x="8" y="-29.5" font-family="Helvetica,sans-Serif" font-size="10.00">&#45; tipFlex()</text>
<text text-anchor="start" x="8" y="-18.5" font-family="Helvetica,sans-Serif" font-size="10.00">&#45; fingFlex()</text>
<text text-anchor="start" x="8" y="-7.5" font-family="Helvetica,sans-Serif" font-size="10.00">and 9 more...</text>
</g>
<!-- Node2 -->
<g id="node2" class="node"><title>Node2</title>
<polygon fill="none" stroke="#bfbfbf" points="34,-303.5 34,-382.5 156,-382.5 156,-303.5 34,-303.5"/>
<text text-anchor="start" x="42" y="-370.5" font-family="Helvetica,sans-Serif" font-size="10.00">std::map&lt; std::string,</text>
<text text-anchor="start" x="42" y="-359.5" font-family="Helvetica,sans-Serif" font-size="10.00"> std::pair&lt; std::string,</text>
<text text-anchor="middle" x="95" y="-348.5" font-family="Helvetica,sans-Serif" font-size="10.00"> std::string &gt; &gt;</text>
<polyline fill="none" stroke="#bfbfbf" points="34,-341.5 156,-341.5 "/>
<text text-anchor="start" x="42" y="-329.5" font-family="Helvetica,sans-Serif" font-size="10.00">+ elements</text>
<polyline fill="none" stroke="#bfbfbf" points="34,-322.5 156,-322.5 "/>
<text text-anchor="middle" x="95" y="-310.5" font-family="Helvetica,sans-Serif" font-size="10.00"> </text>
</g>
<!-- Node2&#45;&gt;Node1 -->
<g id="edge1" class="edge"><title>Node2&#45;&gt;Node1</title>
<path fill="none" stroke="#404040" d="M95,-303.427C95,-292.78 95,-280.578 95,-267.682"/>
<polygon fill="none" stroke="#404040" points="95.0001,-267.667 91,-261.667 95,-255.667 99,-261.667 95.0001,-267.667"/>
<text text-anchor="middle" x="137" y="-277" font-family="Helvetica,sans-Serif" font-size="10.00"> &#45;mimicNLRelMap</text>
</g>
<!-- Node3 -->
<g id="node3" class="node"><title>Node3</title>
<g id="a_node3"><a xlink:title="STL class. ">
<polygon fill="none" stroke="#bfbfbf" points="62.5,-430.5 62.5,-487.5 127.5,-487.5 127.5,-430.5 62.5,-430.5"/>
<text text-anchor="middle" x="95" y="-475.5" font-family="Helvetica,sans-Serif" font-size="10.00">std::string</text>
<polyline fill="none" stroke="#bfbfbf" points="62.5,-468.5 127.5,-468.5 "/>
<text text-anchor="middle" x="95" y="-456.5" font-family="Helvetica,sans-Serif" font-size="10.00"> </text>
<polyline fill="none" stroke="#bfbfbf" points="62.5,-449.5 127.5,-449.5 "/>
<text text-anchor="middle" x="95" y="-437.5" font-family="Helvetica,sans-Serif" font-size="10.00"> </text>
</a>
</g>
</g>
<!-- Node3&#45;&gt;Node2 -->
<g id="edge2" class="edge"><title>Node3&#45;&gt;Node2</title>
<path fill="none" stroke="#404040" d="M95,-430.404C95,-419.63 95,-406.926 95,-394.623"/>
<polygon fill="none" stroke="#404040" points="95.0001,-394.541 91,-388.541 95,-382.541 99,-388.541 95.0001,-394.541"/>
<text text-anchor="middle" x="112" y="-404" font-family="Helvetica,sans-Serif" font-size="10.00"> +keys</text>
</g>
<!-- Node4 -->
<g id="node4" class="node"><title>Node4</title>
<g id="a_node4"><a xlink:title="STL class. ">
<polygon fill="none" stroke="#bfbfbf" points="43.5,-525.5 43.5,-593.5 146.5,-593.5 146.5,-525.5 43.5,-525.5"/>
<text text-anchor="start" x="51.5" y="-581.5" font-family="Helvetica,sans-Serif" font-size="10.00">std::basic_string&lt;</text>
<text text-anchor="middle" x="95" y="-570.5" font-family="Helvetica,sans-Serif" font-size="10.00"> char &gt;</text>
<polyline fill="none" stroke="#bfbfbf" points="43.5,-563.5 146.5,-563.5 "/>
<text text-anchor="middle" x="95" y="-551.5" font-family="Helvetica,sans-Serif" font-size="10.00"> </text>
<polyline fill="none" stroke="#bfbfbf" points="43.5,-544.5 146.5,-544.5 "/>
<text text-anchor="middle" x="95" y="-532.5" font-family="Helvetica,sans-Serif" font-size="10.00"> </text>
</a>
</g>
</g>
<!-- Node4&#45;&gt;Node3 -->
<g id="edge3" class="edge"><title>Node4&#45;&gt;Node3</title>
<path fill="none" stroke="midnightblue" d="M95,-515.375C95,-505.94 95,-496.201 95,-487.571"/>
<polygon fill="none" stroke="midnightblue" points="91.5001,-515.427 95,-525.427 98.5001,-515.427 91.5001,-515.427"/>
</g>
</g>
</svg>
