<?xml version="1.0" encoding="UTF-8" standalone="no"?>
<!DOCTYPE svg PUBLIC "-//W3C//DTD SVG 1.1//EN"
 "http://www.w3.org/Graphics/SVG/1.1/DTD/svg11.dtd">
<!-- Generated by graphviz version 2.38.0 (20140413.2041)
 -->
<!-- Title: /home/travis/build/ADVRHumanoids/ROSEndEffector/include/ROSEndEffector/DummyHal.h Pages: 1 -->
<svg width="928pt" height="274pt"
 viewBox="0.00 0.00 928.00 274.00" xmlns="http://www.w3.org/2000/svg" xmlns:xlink="http://www.w3.org/1999/xlink">
<g id="graph0" class="graph" transform="scale(1 1) rotate(0) translate(4 270)">
<title>/home/travis/build/ADVRHumanoids/ROSEndEffector/include/ROSEndEffector/DummyHal.h</title>
<!-- Node1 -->
<g id="node1" class="node"><title>Node1</title>
<polygon fill="#bfbfbf" stroke="black" points="723,-224.5 723,-265.5 920,-265.5 920,-224.5 723,-224.5"/>
<text text-anchor="start" x="731" y="-253.5" font-family="Helvetica,sans-Serif" font-size="10.00">/home/travis/build</text>
<text text-anchor="start" x="731" y="-242.5" font-family="Helvetica,sans-Serif" font-size="10.00">/ADVRHumanoids/ROSEndEffector</text>
<text text-anchor="middle" x="821.5" y="-231.5" font-family="Helvetica,sans-Serif" font-size="10.00">/include/ROSEndEffector/DummyHal.h</text>
</g>
<!-- Node2 -->
<g id="node2" class="node"><title>Node2</title>
<g id="a_node2"><a xlink:href="EEHal_8h.html" target="_top" xlink:title="ROSEndEffector/EEHal.h">
<polygon fill="none" stroke="black" points="623,-168.5 623,-187.5 754,-187.5 754,-168.5 623,-168.5"/>
<text text-anchor="middle" x="688.5" y="-175.5" font-family="Helvetica,sans-Serif" font-size="10.00">ROSEndEffector/EEHal.h</text>
</a>
</g>
</g>
<!-- Node1&#45;&gt;Node2 -->
<g id="edge1" class="edge"><title>Node1&#45;&gt;Node2</title>
<path fill="none" stroke="midnightblue" d="M781.596,-224.498C760.126,-214.005 734.228,-201.348 715.204,-192.051"/>
<polygon fill="midnightblue" stroke="midnightblue" points="716.726,-188.899 706.204,-187.652 713.652,-195.188 716.726,-188.899"/>
</g>
<!-- Node4 -->
<g id="node4" class="node"><title>Node4</title>
<polygon fill="none" stroke="#bfbfbf" points="761.5,-56.5 761.5,-75.5 805.5,-75.5 805.5,-56.5 761.5,-56.5"/>
<text text-anchor="middle" x="783.5" y="-63.5" font-family="Helvetica,sans-Serif" font-size="10.00">string</text>
</g>
<!-- Node1&#45;&gt;Node4 -->
<g id="edge19" class="edge"><title>Node1&#45;&gt;Node4</title>
<path fill="none" stroke="midnightblue" d="M817.288,-224.382C809.892,-189.932 794.673,-119.042 787.459,-85.4424"/>
<polygon fill="midnightblue" stroke="midnightblue" points="790.864,-84.6263 785.343,-75.5838 784.02,-86.0957 790.864,-84.6263"/>
</g>
<!-- Node5 -->
<g id="node5" class="node"><title>Node5</title>
<polygon fill="none" stroke="#bfbfbf" points="622,-0.5 622,-19.5 679,-19.5 679,-0.5 622,-0.5"/>
<text text-anchor="middle" x="650.5" y="-7.5" font-family="Helvetica,sans-Serif" font-size="10.00">memory</text>
</g>
<!-- Node1&#45;&gt;Node5 -->
<g id="edge20" class="edge"><title>Node1&#45;&gt;Node5</title>
<path fill="none" stroke="midnightblue" d="M827.623,-224.365C837.945,-187.013 854.052,-105.085 814.5,-56 798.851,-36.5788 732.424,-23.192 689.06,-16.3338"/>
<polygon fill="midnightblue" stroke="midnightblue" points="689.528,-12.8647 679.113,-14.8105 688.468,-19.784 689.528,-12.8647"/>
</g>
<!-- Node3 -->
<g id="node3" class="node"><title>Node3</title>
<g id="a_node3"><a xlink:href="IMotor_8h.html" target="_top" xlink:title="ROSEndEffector/IMotor.h">
<polygon fill="none" stroke="black" points="621.5,-112.5 621.5,-131.5 755.5,-131.5 755.5,-112.5 621.5,-112.5"/>
<text text-anchor="middle" x="688.5" y="-119.5" font-family="Helvetica,sans-Serif" font-size="10.00">ROSEndEffector/IMotor.h</text>
</a>
</g>
</g>
<!-- Node2&#45;&gt;Node3 -->
<g id="edge2" class="edge"><title>Node2&#45;&gt;Node3</title>
<path fill="none" stroke="midnightblue" d="M688.5,-168.083C688.5,-161.006 688.5,-150.861 688.5,-141.986"/>
<polygon fill="midnightblue" stroke="midnightblue" points="692,-141.751 688.5,-131.751 685,-141.751 692,-141.751"/>
</g>
<!-- Node2&#45;&gt;Node4 -->
<g id="edge17" class="edge"><title>Node2&#45;&gt;Node4</title>
<path fill="none" stroke="midnightblue" d="M712.345,-168.408C729.222,-161.162 751.145,-149.197 764.5,-132 774.856,-118.665 779.572,-99.836 781.717,-85.8736"/>
<polygon fill="midnightblue" stroke="midnightblue" points="785.195,-86.2705 782.945,-75.9173 778.247,-85.4138 785.195,-86.2705"/>
</g>
<!-- Node2&#45;&gt;Node5 -->
<g id="edge18" class="edge"><title>Node2&#45;&gt;Node5</title>
<path fill="none" stroke="midnightblue" d="M660.485,-168.397C643.326,-161.515 622.752,-149.984 612.5,-132 592.969,-97.737 619.371,-52.1848 636.992,-27.9144"/>
<polygon fill="midnightblue" stroke="midnightblue" points="639.95,-29.8061 643.201,-19.7224 634.371,-25.5777 639.95,-29.8061"/>
</g>
<!-- Node6 -->
<g id="node6" class="node"><title>Node6</title>
<g id="a_node6"><a xlink:href="EEInterface_8h.html" target="_top" xlink:title="ROSEndEffector/EEInterface.h">
<polygon fill="none" stroke="black" points="366.5,-112.5 366.5,-131.5 524.5,-131.5 524.5,-112.5 366.5,-112.5"/>
<text text-anchor="middle" x="445.5" y="-119.5" font-family="Helvetica,sans-Serif" font-size="10.00">ROSEndEffector/EEInterface.h</text>
</a>
</g>
</g>
<!-- Node2&#45;&gt;Node6 -->
<g id="edge5" class="edge"><title>Node2&#45;&gt;Node6</title>
<path fill="none" stroke="midnightblue" d="M649.996,-168.444C607.694,-159.043 539.681,-143.929 493.827,-133.739"/>
<polygon fill="midnightblue" stroke="midnightblue" points="494.345,-130.269 483.824,-131.516 492.827,-137.102 494.345,-130.269"/>
</g>
<!-- Node3&#45;&gt;Node4 -->
<g id="edge3" class="edge"><title>Node3&#45;&gt;Node4</title>
<path fill="none" stroke="midnightblue" d="M703.763,-112.324C718.721,-103.822 741.755,-90.7288 759.227,-80.7975"/>
<polygon fill="midnightblue" stroke="midnightblue" points="761.31,-83.639 768.274,-75.6545 757.851,-77.5534 761.31,-83.639"/>
</g>
<!-- Node3&#45;&gt;Node5 -->
<g id="edge4" class="edge"><title>Node3&#45;&gt;Node5</title>
<path fill="none" stroke="midnightblue" d="M685.518,-112.368C679.358,-94.5366 665.111,-53.2953 656.812,-29.2717"/>
<polygon fill="midnightblue" stroke="midnightblue" points="660.041,-27.9005 653.468,-19.5914 653.425,-30.1862 660.041,-27.9005"/>
</g>
<!-- Node6&#45;&gt;Node5 -->
<g id="edge8" class="edge"><title>Node6&#45;&gt;Node5</title>
<path fill="none" stroke="midnightblue" d="M463.789,-112.347C482.279,-103.508 511.602,-89.2396 536.5,-76 568.324,-59.0779 604.351,-38.2473 627.233,-24.8016"/>
<polygon fill="midnightblue" stroke="midnightblue" points="629.06,-27.7876 635.897,-19.6941 625.505,-21.7574 629.06,-27.7876"/>
</g>
<!-- Node7 -->
<g id="node7" class="node"><title>Node7</title>
<polygon fill="none" stroke="#bfbfbf" points="489.5,-56.5 489.5,-75.5 527.5,-75.5 527.5,-56.5 489.5,-56.5"/>
<text text-anchor="middle" x="508.5" y="-63.5" font-family="Helvetica,sans-Serif" font-size="10.00">map</text>
</g>
<!-- Node6&#45;&gt;Node7 -->
<g id="edge6" class="edge"><title>Node6&#45;&gt;Node7</title>
<path fill="none" stroke="midnightblue" d="M455.622,-112.324C465.026,-104.263 479.244,-92.0765 490.569,-82.3695"/>
<polygon fill="midnightblue" stroke="midnightblue" points="492.879,-84.9993 498.194,-75.8339 488.323,-79.6844 492.879,-84.9993"/>
</g>
<!-- Node8 -->
<g id="node8" class="node"><title>Node8</title>
<polygon fill="none" stroke="#bfbfbf" points="177,-56.5 177,-75.5 224,-75.5 224,-56.5 177,-56.5"/>
<text text-anchor="middle" x="200.5" y="-63.5" font-family="Helvetica,sans-Serif" font-size="10.00">vector</text>
</g>
<!-- Node6&#45;&gt;Node8 -->
<g id="edge7" class="edge"><title>Node6&#45;&gt;Node8</title>
<path fill="none" stroke="midnightblue" d="M400.839,-112.456C359.801,-104.405 297.078,-91.602 234.293,-76.3308"/>
<polygon fill="midnightblue" stroke="midnightblue" points="234.766,-72.8429 224.22,-73.859 233.097,-79.6413 234.766,-72.8429"/>
</g>
<!-- Node9 -->
<g id="node9" class="node"><title>Node9</title>
<g id="a_node9"><a xlink:href="Parser_8h.html" target="_top" xlink:title="ROSEndEffector/Parser.h">
<polygon fill="none" stroke="black" points="337.5,-56.5 337.5,-75.5 471.5,-75.5 471.5,-56.5 337.5,-56.5"/>
<text text-anchor="middle" x="404.5" y="-63.5" font-family="Helvetica,sans-Serif" font-size="10.00">ROSEndEffector/Parser.h</text>
</a>
</g>
</g>
<!-- Node6&#45;&gt;Node9 -->
<g id="edge9" class="edge"><title>Node6&#45;&gt;Node9</title>
<path fill="none" stroke="midnightblue" d="M438.73,-112.083C432.938,-104.455 424.442,-93.2645 417.362,-83.9408"/>
<polygon fill="midnightblue" stroke="midnightblue" points="419.979,-81.5991 411.144,-75.7511 414.404,-85.8321 419.979,-81.5991"/>
</g>
<!-- Node15 -->
<g id="node15" class="node"><title>Node15</title>
<polygon fill="none" stroke="#bfbfbf" points="242,-56.5 242,-75.5 319,-75.5 319,-56.5 242,-56.5"/>
<text text-anchor="middle" x="280.5" y="-63.5" font-family="Helvetica,sans-Serif" font-size="10.00">Eigen/Dense</text>
</g>
<!-- Node6&#45;&gt;Node15 -->
<g id="edge16" class="edge"><title>Node6&#45;&gt;Node15</title>
<path fill="none" stroke="midnightblue" d="M419.355,-112.444C391.477,-103.32 347.152,-88.8133 316.1,-78.6509"/>
<polygon fill="midnightblue" stroke="midnightblue" points="317.115,-75.3005 306.522,-75.5164 314.938,-81.9533 317.115,-75.3005"/>
</g>
<!-- Node9&#45;&gt;Node5 -->
<g id="edge10" class="edge"><title>Node9&#45;&gt;Node5</title>
<path fill="none" stroke="midnightblue" d="M445.205,-56.4387C485.125,-47.9878 547.973,-34.5382 612.011,-20.0762"/>
<polygon fill="midnightblue" stroke="midnightblue" points="612.9,-23.4637 621.88,-17.8415 611.354,-16.6365 612.9,-23.4637"/>
</g>
<!-- Node10 -->
<g id="node10" class="node"><title>Node10</title>
<polygon fill="none" stroke="#bfbfbf" points="0,-0.5 0,-19.5 59,-19.5 59,-0.5 0,-0.5"/>
<text text-anchor="middle" x="29.5" y="-7.5" font-family="Helvetica,sans-Serif" font-size="10.00">ros/ros.h</text>
</g>
<!-- Node9&#45;&gt;Node10 -->
<g id="edge11" class="edge"><title>Node9&#45;&gt;Node10</title>
<path fill="none" stroke="midnightblue" d="M337.239,-56.7501C258.79,-47.0022 132.766,-30.9225 69.2573,-19.9508"/>
<polygon fill="midnightblue" stroke="midnightblue" points="69.7099,-16.4764 59.251,-18.1678 68.4819,-23.3678 69.7099,-16.4764"/>
</g>
<!-- Node11 -->
<g id="node11" class="node"><title>Node11</title>
<polygon fill="none" stroke="#bfbfbf" points="77.5,-0.5 77.5,-19.5 173.5,-19.5 173.5,-0.5 77.5,-0.5"/>
<text text-anchor="middle" x="125.5" y="-7.5" font-family="Helvetica,sans-Serif" font-size="10.00">yaml&#45;cpp/yaml.h</text>
</g>
<!-- Node9&#45;&gt;Node11 -->
<g id="edge12" class="edge"><title>Node9&#45;&gt;Node11</title>
<path fill="none" stroke="midnightblue" d="M360.292,-56.4435C311.213,-46.9444 231.99,-31.611 179.336,-21.4198"/>
<polygon fill="midnightblue" stroke="midnightblue" points="179.984,-17.9805 169.502,-19.5164 178.654,-24.853 179.984,-17.9805"/>
</g>
<!-- Node12 -->
<g id="node12" class="node"><title>Node12</title>
<polygon fill="none" stroke="#bfbfbf" points="191.5,-0.5 191.5,-19.5 329.5,-19.5 329.5,-0.5 191.5,-0.5"/>
<text text-anchor="middle" x="260.5" y="-7.5" font-family="Helvetica,sans-Serif" font-size="10.00">urdf_parser/urdf_parser.h</text>
</g>
<!-- Node9&#45;&gt;Node12 -->
<g id="edge13" class="edge"><title>Node9&#45;&gt;Node12</title>
<path fill="none" stroke="midnightblue" d="M381.683,-56.4435C357.668,-47.4381 319.671,-33.1891 292.631,-23.049"/>
<polygon fill="midnightblue" stroke="midnightblue" points="293.803,-19.7506 283.21,-19.5164 291.345,-26.3049 293.803,-19.7506"/>
</g>
<!-- Node13 -->
<g id="node13" class="node"><title>Node13</title>
<polygon fill="none" stroke="#bfbfbf" points="347.5,-0.5 347.5,-19.5 487.5,-19.5 487.5,-0.5 347.5,-0.5"/>
<text text-anchor="middle" x="417.5" y="-7.5" font-family="Helvetica,sans-Serif" font-size="10.00">kdl_parser/kdl_parser.hpp</text>
</g>
<!-- Node9&#45;&gt;Node13 -->
<g id="edge14" class="edge"><title>Node9&#45;&gt;Node13</title>
<path fill="none" stroke="midnightblue" d="M406.647,-56.083C408.369,-48.9272 410.847,-38.6353 413,-29.6911"/>
<polygon fill="midnightblue" stroke="midnightblue" points="416.455,-30.2925 415.393,-19.7511 409.65,-28.6541 416.455,-30.2925"/>
</g>
<!-- Node14 -->
<g id="node14" class="node"><title>Node14</title>
<polygon fill="none" stroke="#bfbfbf" points="505.5,-0.5 505.5,-19.5 603.5,-19.5 603.5,-0.5 505.5,-0.5"/>
<text text-anchor="middle" x="554.5" y="-7.5" font-family="Helvetica,sans-Serif" font-size="10.00">srdfdom/model.h</text>
</g>
<!-- Node9&#45;&gt;Node14 -->
<g id="edge15" class="edge"><title>Node9&#45;&gt;Node14</title>
<path fill="none" stroke="midnightblue" d="M428.268,-56.4435C453.393,-47.3986 493.211,-33.064 521.4,-22.9158"/>
<polygon fill="midnightblue" stroke="midnightblue" points="522.62,-26.1968 530.843,-19.5164 520.249,-19.6106 522.62,-26.1968"/>
</g>
</g>
</svg>
