<?xml version="1.0" encoding="UTF-8" standalone="no"?>
<!DOCTYPE svg PUBLIC "-//W3C//DTD SVG 1.1//EN"
 "http://www.w3.org/Graphics/SVG/1.1/DTD/svg11.dtd">
<!-- Generated by graphviz version 2.38.0 (20140413.2041)
 -->
<!-- Title: /home/travis/build/ADVRHumanoids/ROSEndEffector/src/DummyHal.cpp Pages: 1 -->
<svg width="1040pt" height="330pt"
 viewBox="0.00 0.00 1040.00 330.00" xmlns="http://www.w3.org/2000/svg" xmlns:xlink="http://www.w3.org/1999/xlink">
<g id="graph0" class="graph" transform="scale(1 1) rotate(0) translate(4 326)">
<title>/home/travis/build/ADVRHumanoids/ROSEndEffector/src/DummyHal.cpp</title>
<!-- Node1 -->
<g id="node1" class="node"><title>Node1</title>
<polygon fill="#bfbfbf" stroke="black" points="853,-280.5 853,-321.5 1032,-321.5 1032,-280.5 853,-280.5"/>
<text text-anchor="start" x="861" y="-309.5" font-family="Helvetica,sans-Serif" font-size="10.00">/home/travis/build</text>
<text text-anchor="start" x="861" y="-298.5" font-family="Helvetica,sans-Serif" font-size="10.00">/ADVRHumanoids/ROSEndEffector</text>
<text text-anchor="middle" x="942.5" y="-287.5" font-family="Helvetica,sans-Serif" font-size="10.00">/src/DummyHal.cpp</text>
</g>
<!-- Node2 -->
<g id="node2" class="node"><title>Node2</title>
<g id="a_node2"><a xlink:href="DummyHal_8h.html" target="_top" xlink:title="ROSEndEffector/DummyHal.h">
<polygon fill="none" stroke="black" points="863.5,-224.5 863.5,-243.5 1021.5,-243.5 1021.5,-224.5 863.5,-224.5"/>
<text text-anchor="middle" x="942.5" y="-231.5" font-family="Helvetica,sans-Serif" font-size="10.00">ROSEndEffector/DummyHal.h</text>
</a>
</g>
</g>
<!-- Node1&#45;&gt;Node2 -->
<g id="edge1" class="edge"><title>Node1&#45;&gt;Node2</title>
<path fill="none" stroke="midnightblue" d="M942.5,-280.498C942.5,-272.065 942.5,-262.235 942.5,-253.874"/>
<polygon fill="midnightblue" stroke="midnightblue" points="946,-253.652 942.5,-243.652 939,-253.653 946,-253.652"/>
</g>
<!-- Node3 -->
<g id="node3" class="node"><title>Node3</title>
<g id="a_node3"><a xlink:href="EEHal_8h.html" target="_top" xlink:title="ROSEndEffector/EEHal.h">
<polygon fill="none" stroke="black" points="744,-168.5 744,-187.5 875,-187.5 875,-168.5 744,-168.5"/>
<text text-anchor="middle" x="809.5" y="-175.5" font-family="Helvetica,sans-Serif" font-size="10.00">ROSEndEffector/EEHal.h</text>
</a>
</g>
</g>
<!-- Node2&#45;&gt;Node3 -->
<g id="edge2" class="edge"><title>Node2&#45;&gt;Node3</title>
<path fill="none" stroke="midnightblue" d="M921.426,-224.444C899.44,-215.517 864.766,-201.439 839.836,-191.317"/>
<polygon fill="midnightblue" stroke="midnightblue" points="841.058,-188.035 830.476,-187.516 838.424,-194.521 841.058,-188.035"/>
</g>
<!-- Node5 -->
<g id="node5" class="node"><title>Node5</title>
<polygon fill="none" stroke="#bfbfbf" points="882.5,-56.5 882.5,-75.5 926.5,-75.5 926.5,-56.5 882.5,-56.5"/>
<text text-anchor="middle" x="904.5" y="-63.5" font-family="Helvetica,sans-Serif" font-size="10.00">string</text>
</g>
<!-- Node2&#45;&gt;Node5 -->
<g id="edge21" class="edge"><title>Node2&#45;&gt;Node5</title>
<path fill="none" stroke="midnightblue" d="M940.457,-224.075C934.475,-197.945 916.91,-121.211 908.753,-85.577"/>
<polygon fill="midnightblue" stroke="midnightblue" points="912.105,-84.5349 906.461,-75.5681 905.281,-86.097 912.105,-84.5349"/>
</g>
<!-- Node6 -->
<g id="node6" class="node"><title>Node6</title>
<polygon fill="none" stroke="#bfbfbf" points="781,-0.5 781,-19.5 838,-19.5 838,-0.5 781,-0.5"/>
<text text-anchor="middle" x="809.5" y="-7.5" font-family="Helvetica,sans-Serif" font-size="10.00">memory</text>
</g>
<!-- Node2&#45;&gt;Node6 -->
<g id="edge22" class="edge"><title>Node2&#45;&gt;Node6</title>
<path fill="none" stroke="midnightblue" d="M945.327,-224.112C953.655,-196.057 975.118,-108.165 935.5,-56 915.105,-29.146 877.322,-18.2776 848.431,-13.9003"/>
<polygon fill="midnightblue" stroke="midnightblue" points="848.608,-10.3937 838.238,-12.5638 847.698,-17.3343 848.608,-10.3937"/>
</g>
<!-- Node4 -->
<g id="node4" class="node"><title>Node4</title>
<g id="a_node4"><a xlink:href="IMotor_8h.html" target="_top" xlink:title="ROSEndEffector/IMotor.h">
<polygon fill="none" stroke="black" points="742.5,-112.5 742.5,-131.5 876.5,-131.5 876.5,-112.5 742.5,-112.5"/>
<text text-anchor="middle" x="809.5" y="-119.5" font-family="Helvetica,sans-Serif" font-size="10.00">ROSEndEffector/IMotor.h</text>
</a>
</g>
</g>
<!-- Node3&#45;&gt;Node4 -->
<g id="edge3" class="edge"><title>Node3&#45;&gt;Node4</title>
<path fill="none" stroke="midnightblue" d="M809.5,-168.083C809.5,-161.006 809.5,-150.861 809.5,-141.986"/>
<polygon fill="midnightblue" stroke="midnightblue" points="813,-141.751 809.5,-131.751 806,-141.751 813,-141.751"/>
</g>
<!-- Node3&#45;&gt;Node5 -->
<g id="edge19" class="edge"><title>Node3&#45;&gt;Node5</title>
<path fill="none" stroke="midnightblue" d="M833.345,-168.408C850.222,-161.162 872.145,-149.197 885.5,-132 895.856,-118.665 900.572,-99.836 902.717,-85.8736"/>
<polygon fill="midnightblue" stroke="midnightblue" points="906.195,-86.2705 903.945,-75.9173 899.247,-85.4138 906.195,-86.2705"/>
</g>
<!-- Node3&#45;&gt;Node6 -->
<g id="edge20" class="edge"><title>Node3&#45;&gt;Node6</title>
<path fill="none" stroke="midnightblue" d="M781.485,-168.397C764.326,-161.515 743.752,-149.984 733.5,-132 729.098,-124.278 730.682,-120.431 733.5,-112 745.125,-77.2165 773.962,-44.8034 792.584,-26.4901"/>
<polygon fill="midnightblue" stroke="midnightblue" points="795.046,-28.9779 799.859,-19.539 790.211,-23.9166 795.046,-28.9779"/>
</g>
<!-- Node7 -->
<g id="node7" class="node"><title>Node7</title>
<g id="a_node7"><a xlink:href="EEInterface_8h.html" target="_top" xlink:title="ROSEndEffector/EEInterface.h">
<polygon fill="none" stroke="black" points="487.5,-112.5 487.5,-131.5 645.5,-131.5 645.5,-112.5 487.5,-112.5"/>
<text text-anchor="middle" x="566.5" y="-119.5" font-family="Helvetica,sans-Serif" font-size="10.00">ROSEndEffector/EEInterface.h</text>
</a>
</g>
</g>
<!-- Node3&#45;&gt;Node7 -->
<g id="edge6" class="edge"><title>Node3&#45;&gt;Node7</title>
<path fill="none" stroke="midnightblue" d="M770.996,-168.444C728.694,-159.043 660.681,-143.929 614.827,-133.739"/>
<polygon fill="midnightblue" stroke="midnightblue" points="615.345,-130.269 604.824,-131.516 613.827,-137.102 615.345,-130.269"/>
</g>
<!-- Node4&#45;&gt;Node5 -->
<g id="edge4" class="edge"><title>Node4&#45;&gt;Node5</title>
<path fill="none" stroke="midnightblue" d="M824.763,-112.324C839.721,-103.822 862.755,-90.7288 880.227,-80.7975"/>
<polygon fill="midnightblue" stroke="midnightblue" points="882.31,-83.639 889.274,-75.6545 878.851,-77.5534 882.31,-83.639"/>
</g>
<!-- Node4&#45;&gt;Node6 -->
<g id="edge5" class="edge"><title>Node4&#45;&gt;Node6</title>
<path fill="none" stroke="midnightblue" d="M809.5,-112.368C809.5,-94.617 809.5,-53.6664 809.5,-29.5974"/>
<polygon fill="midnightblue" stroke="midnightblue" points="813,-29.5914 809.5,-19.5914 806,-29.5915 813,-29.5914"/>
</g>
<!-- Node7&#45;&gt;Node6 -->
<g id="edge9" class="edge"><title>Node7&#45;&gt;Node6</title>
<path fill="none" stroke="midnightblue" d="M584.158,-112.271C615.131,-96.9876 678.087,-66.0515 700.5,-56 726.419,-44.3761 756.261,-32.1333 778.161,-23.3571"/>
<polygon fill="midnightblue" stroke="midnightblue" points="779.629,-26.5395 787.621,-19.5834 777.036,-20.0377 779.629,-26.5395"/>
</g>
<!-- Node8 -->
<g id="node8" class="node"><title>Node8</title>
<polygon fill="none" stroke="#bfbfbf" points="610.5,-56.5 610.5,-75.5 648.5,-75.5 648.5,-56.5 610.5,-56.5"/>
<text text-anchor="middle" x="629.5" y="-63.5" font-family="Helvetica,sans-Serif" font-size="10.00">map</text>
</g>
<!-- Node7&#45;&gt;Node8 -->
<g id="edge7" class="edge"><title>Node7&#45;&gt;Node8</title>
<path fill="none" stroke="midnightblue" d="M576.622,-112.324C586.026,-104.263 600.244,-92.0765 611.569,-82.3695"/>
<polygon fill="midnightblue" stroke="midnightblue" points="613.879,-84.9993 619.194,-75.8339 609.323,-79.6844 613.879,-84.9993"/>
</g>
<!-- Node9 -->
<g id="node9" class="node"><title>Node9</title>
<polygon fill="none" stroke="#bfbfbf" points="298,-56.5 298,-75.5 345,-75.5 345,-56.5 298,-56.5"/>
<text text-anchor="middle" x="321.5" y="-63.5" font-family="Helvetica,sans-Serif" font-size="10.00">vector</text>
</g>
<!-- Node7&#45;&gt;Node9 -->
<g id="edge8" class="edge"><title>Node7&#45;&gt;Node9</title>
<path fill="none" stroke="midnightblue" d="M521.839,-112.456C480.801,-104.405 418.078,-91.602 355.293,-76.3308"/>
<polygon fill="midnightblue" stroke="midnightblue" points="355.766,-72.8429 345.22,-73.859 354.097,-79.6413 355.766,-72.8429"/>
</g>
<!-- Node10 -->
<g id="node10" class="node"><title>Node10</title>
<g id="a_node10"><a xlink:href="Parser_8h.html" target="_top" xlink:title="ROSEndEffector/Parser.h">
<polygon fill="none" stroke="black" points="458.5,-56.5 458.5,-75.5 592.5,-75.5 592.5,-56.5 458.5,-56.5"/>
<text text-anchor="middle" x="525.5" y="-63.5" font-family="Helvetica,sans-Serif" font-size="10.00">ROSEndEffector/Parser.h</text>
</a>
</g>
</g>
<!-- Node7&#45;&gt;Node10 -->
<g id="edge10" class="edge"><title>Node7&#45;&gt;Node10</title>
<path fill="none" stroke="midnightblue" d="M559.73,-112.083C553.938,-104.455 545.442,-93.2645 538.362,-83.9408"/>
<polygon fill="midnightblue" stroke="midnightblue" points="540.979,-81.5991 532.144,-75.7511 535.404,-85.8321 540.979,-81.5991"/>
</g>
<!-- Node17 -->
<g id="node17" class="node"><title>Node17</title>
<polygon fill="none" stroke="#bfbfbf" points="363,-56.5 363,-75.5 440,-75.5 440,-56.5 363,-56.5"/>
<text text-anchor="middle" x="401.5" y="-63.5" font-family="Helvetica,sans-Serif" font-size="10.00">Eigen/Dense</text>
</g>
<!-- Node7&#45;&gt;Node17 -->
<g id="edge18" class="edge"><title>Node7&#45;&gt;Node17</title>
<path fill="none" stroke="midnightblue" d="M540.355,-112.444C512.477,-103.32 468.152,-88.8133 437.1,-78.6509"/>
<polygon fill="midnightblue" stroke="midnightblue" points="438.115,-75.3005 427.522,-75.5164 435.938,-81.9533 438.115,-75.3005"/>
</g>
<!-- Node10&#45;&gt;Node6 -->
<g id="edge11" class="edge"><title>Node10&#45;&gt;Node6</title>
<path fill="none" stroke="midnightblue" d="M576.533,-56.456C624.249,-48.2892 697.713,-35.2611 771.03,-20.008"/>
<polygon fill="midnightblue" stroke="midnightblue" points="771.832,-23.4161 780.902,-17.9403 770.396,-16.5648 771.832,-23.4161"/>
</g>
<!-- Node11 -->
<g id="node11" class="node"><title>Node11</title>
<polygon fill="none" stroke="#bfbfbf" points="0,-0.5 0,-19.5 59,-19.5 59,-0.5 0,-0.5"/>
<text text-anchor="middle" x="29.5" y="-7.5" font-family="Helvetica,sans-Serif" font-size="10.00">ros/ros.h</text>
</g>
<!-- Node10&#45;&gt;Node11 -->
<g id="edge12" class="edge"><title>Node10&#45;&gt;Node11</title>
<path fill="none" stroke="midnightblue" d="M458.318,-57.0598C454.999,-56.6951 451.712,-56.3398 448.5,-56 283.009,-38.4915 237.676,-46.8002 69.184,-19.8949"/>
<polygon fill="midnightblue" stroke="midnightblue" points="69.6604,-16.4266 59.2304,-18.2877 68.5446,-23.3371 69.6604,-16.4266"/>
</g>
<!-- Node12 -->
<g id="node12" class="node"><title>Node12</title>
<polygon fill="none" stroke="#bfbfbf" points="77.5,-0.5 77.5,-19.5 173.5,-19.5 173.5,-0.5 77.5,-0.5"/>
<text text-anchor="middle" x="125.5" y="-7.5" font-family="Helvetica,sans-Serif" font-size="10.00">yaml&#45;cpp/yaml.h</text>
</g>
<!-- Node10&#45;&gt;Node12 -->
<g id="edge13" class="edge"><title>Node10&#45;&gt;Node12</title>
<path fill="none" stroke="midnightblue" d="M458.39,-56.7223C391.422,-48.3425 285.311,-34.7422 183.811,-20.1594"/>
<polygon fill="midnightblue" stroke="midnightblue" points="184.086,-16.6628 173.689,-18.6995 183.087,-23.5911 184.086,-16.6628"/>
</g>
<!-- Node13 -->
<g id="node13" class="node"><title>Node13</title>
<polygon fill="none" stroke="#bfbfbf" points="191.5,-0.5 191.5,-19.5 329.5,-19.5 329.5,-0.5 191.5,-0.5"/>
<text text-anchor="middle" x="260.5" y="-7.5" font-family="Helvetica,sans-Serif" font-size="10.00">urdf_parser/urdf_parser.h</text>
</g>
<!-- Node10&#45;&gt;Node13 -->
<g id="edge14" class="edge"><title>Node10&#45;&gt;Node13</title>
<path fill="none" stroke="midnightblue" d="M483.51,-56.4435C437.088,-46.9839 362.272,-31.7384 312.26,-21.5472"/>
<polygon fill="midnightblue" stroke="midnightblue" points="312.791,-18.0837 302.294,-19.5164 311.393,-24.9427 312.791,-18.0837"/>
</g>
<!-- Node14 -->
<g id="node14" class="node"><title>Node14</title>
<polygon fill="none" stroke="#bfbfbf" points="347.5,-0.5 347.5,-19.5 487.5,-19.5 487.5,-0.5 347.5,-0.5"/>
<text text-anchor="middle" x="417.5" y="-7.5" font-family="Helvetica,sans-Serif" font-size="10.00">kdl_parser/kdl_parser.hpp</text>
</g>
<!-- Node10&#45;&gt;Node14 -->
<g id="edge15" class="edge"><title>Node10&#45;&gt;Node14</title>
<path fill="none" stroke="midnightblue" d="M508.148,-56.324C490.828,-47.6641 463.985,-34.2424 443.998,-24.249"/>
<polygon fill="midnightblue" stroke="midnightblue" points="445.319,-20.9962 434.809,-19.6545 442.188,-27.2572 445.319,-20.9962"/>
</g>
<!-- Node15 -->
<g id="node15" class="node"><title>Node15</title>
<polygon fill="none" stroke="#bfbfbf" points="505.5,-0.5 505.5,-19.5 603.5,-19.5 603.5,-0.5 505.5,-0.5"/>
<text text-anchor="middle" x="554.5" y="-7.5" font-family="Helvetica,sans-Serif" font-size="10.00">srdfdom/model.h</text>
</g>
<!-- Node10&#45;&gt;Node15 -->
<g id="edge16" class="edge"><title>Node10&#45;&gt;Node15</title>
<path fill="none" stroke="midnightblue" d="M530.289,-56.083C534.258,-48.6913 540.025,-37.9533 544.935,-28.8111"/>
<polygon fill="midnightblue" stroke="midnightblue" points="548.153,-30.217 549.8,-19.7511 541.986,-26.9051 548.153,-30.217"/>
</g>
<!-- Node16 -->
<g id="node16" class="node"><title>Node16</title>
<polygon fill="none" stroke="#bfbfbf" points="622,-0.5 622,-19.5 763,-19.5 763,-0.5 622,-0.5"/>
<text text-anchor="middle" x="692.5" y="-7.5" font-family="Helvetica,sans-Serif" font-size="10.00">boost/filesystem/path.hpp</text>
</g>
<!-- Node10&#45;&gt;Node16 -->
<g id="edge17" class="edge"><title>Node10&#45;&gt;Node16</title>
<path fill="none" stroke="midnightblue" d="M551.962,-56.4435C580.178,-47.3196 625.04,-32.8133 656.468,-22.6509"/>
<polygon fill="midnightblue" stroke="midnightblue" points="657.724,-25.9234 666.162,-19.5164 655.57,-19.263 657.724,-25.9234"/>
</g>
</g>
</svg>
