<?xml version="1.0" encoding="UTF-8" standalone="no"?>
<!DOCTYPE svg PUBLIC "-//W3C//DTD SVG 1.1//EN"
 "http://www.w3.org/Graphics/SVG/1.1/DTD/svg11.dtd">
<!-- Generated by graphviz version 2.38.0 (20140413.2041)
 -->
<!-- Title: /home/travis/build/ADVRHumanoids/ROSEndEffector/include/ros_end_effector/HAL/DummyHal.h Pages: 1 -->
<svg width="1488pt" height="240pt"
 viewBox="0.00 0.00 1488.00 240.00" xmlns="http://www.w3.org/2000/svg" xmlns:xlink="http://www.w3.org/1999/xlink">
<g id="graph0" class="graph" transform="scale(1 1) rotate(0) translate(4 236)">
<title>/home/travis/build/ADVRHumanoids/ROSEndEffector/include/ros_end_effector/HAL/DummyHal.h</title>
<!-- Node1 -->
<g id="node1" class="node"><title>Node1</title>
<polygon fill="#bfbfbf" stroke="black" points="371,-179.5 371,-231.5 550,-231.5 550,-179.5 371,-179.5"/>
<text text-anchor="start" x="379" y="-219.5" font-family="Helvetica,sans-Serif" font-size="10.00">/home/travis/build</text>
<text text-anchor="start" x="379" y="-208.5" font-family="Helvetica,sans-Serif" font-size="10.00">/ADVRHumanoids/ROSEndEffector</text>
<text text-anchor="start" x="379" y="-197.5" font-family="Helvetica,sans-Serif" font-size="10.00">/include/ros_end_effector</text>
<text text-anchor="middle" x="460.5" y="-186.5" font-family="Helvetica,sans-Serif" font-size="10.00">/HAL/DummyHal.h</text>
</g>
<!-- Node2 -->
<g id="node2" class="node"><title>Node2</title>
<polygon fill="none" stroke="#bfbfbf" points="0,-56.5 0,-75.5 59,-75.5 59,-56.5 0,-56.5"/>
<text text-anchor="middle" x="29.5" y="-63.5" font-family="Helvetica,sans-Serif" font-size="10.00">ros/ros.h</text>
</g>
<!-- Node1&#45;&gt;Node2 -->
<g id="edge1" class="edge"><title>Node1&#45;&gt;Node2</title>
<path fill="none" stroke="midnightblue" d="M381.949,-179.44C288.223,-149.539 135.485,-100.812 65.993,-78.6422"/>
<polygon fill="midnightblue" stroke="midnightblue" points="66.9518,-75.2743 56.3611,-75.5694 64.8242,-81.9432 66.9518,-75.2743"/>
</g>
<!-- Node3 -->
<g id="node3" class="node"><title>Node3</title>
<g id="a_node3"><a xlink:href="EEHal_8h.html" target="_top" xlink:title="ros_end_effector/HAL\l/EEHal.h">
<polygon fill="none" stroke="black" points="551,-112.5 551,-142.5 670,-142.5 670,-112.5 551,-112.5"/>
<text text-anchor="start" x="559" y="-130.5" font-family="Helvetica,sans-Serif" font-size="10.00">ros_end_effector/HAL</text>
<text text-anchor="middle" x="610.5" y="-119.5" font-family="Helvetica,sans-Serif" font-size="10.00">/EEHal.h</text>
</a>
</g>
</g>
<!-- Node1&#45;&gt;Node3 -->
<g id="edge2" class="edge"><title>Node1&#45;&gt;Node3</title>
<path fill="none" stroke="midnightblue" d="M510.031,-179.404C530.712,-168.926 554.324,-156.963 573.459,-147.267"/>
<polygon fill="midnightblue" stroke="midnightblue" points="575.122,-150.348 582.461,-142.707 571.958,-144.104 575.122,-150.348"/>
</g>
<!-- Node5 -->
<g id="node5" class="node"><title>Node5</title>
<polygon fill="none" stroke="#bfbfbf" points="77.5,-56.5 77.5,-75.5 121.5,-75.5 121.5,-56.5 77.5,-56.5"/>
<text text-anchor="middle" x="99.5" y="-63.5" font-family="Helvetica,sans-Serif" font-size="10.00">string</text>
</g>
<!-- Node1&#45;&gt;Node5 -->
<g id="edge29" class="edge"><title>Node1&#45;&gt;Node5</title>
<path fill="none" stroke="midnightblue" d="M415.558,-179.417C377.753,-159.106 321.806,-130.866 270.5,-112 213.145,-90.9093 194.301,-92.7128 131.808,-76.2558"/>
<polygon fill="midnightblue" stroke="midnightblue" points="132.394,-72.789 121.828,-73.5715 130.575,-79.5488 132.394,-72.789"/>
</g>
<!-- Node7 -->
<g id="node7" class="node"><title>Node7</title>
<polygon fill="none" stroke="#bfbfbf" points="1423,-0.5 1423,-19.5 1480,-19.5 1480,-0.5 1423,-0.5"/>
<text text-anchor="middle" x="1451.5" y="-7.5" font-family="Helvetica,sans-Serif" font-size="10.00">memory</text>
</g>
<!-- Node1&#45;&gt;Node7 -->
<g id="edge30" class="edge"><title>Node1&#45;&gt;Node7</title>
<path fill="none" stroke="midnightblue" d="M550.362,-199.523C783.412,-185.705 1393.28,-143.384 1452.5,-76 1463.42,-63.5698 1461.51,-44.0554 1457.87,-29.6495"/>
<polygon fill="midnightblue" stroke="midnightblue" points="1461.16,-28.4138 1454.95,-19.831 1454.45,-30.4142 1461.16,-28.4138"/>
</g>
<!-- Node3&#45;&gt;Node2 -->
<g id="edge3" class="edge"><title>Node3&#45;&gt;Node2</title>
<path fill="none" stroke="midnightblue" d="M550.822,-123.558C452.447,-118.135 249.99,-104.557 69.1865,-75.8902"/>
<polygon fill="midnightblue" stroke="midnightblue" points="69.6578,-72.4211 59.2296,-74.2925 68.5488,-79.3327 69.6578,-72.4211"/>
</g>
<!-- Node4 -->
<g id="node4" class="node"><title>Node4</title>
<polygon fill="none" stroke="#bfbfbf" points="1219,-56.5 1219,-75.5 1358,-75.5 1358,-56.5 1219,-56.5"/>
<text text-anchor="middle" x="1288.5" y="-63.5" font-family="Helvetica,sans-Serif" font-size="10.00">sensor_msgs/JointState.h</text>
</g>
<!-- Node3&#45;&gt;Node4 -->
<g id="edge4" class="edge"><title>Node3&#45;&gt;Node4</title>
<path fill="none" stroke="midnightblue" d="M670.066,-122.06C776.066,-114.031 1004.66,-96.142 1208.72,-76.0503"/>
<polygon fill="midnightblue" stroke="midnightblue" points="1209.12,-79.5281 1218.72,-75.0614 1208.43,-72.562 1209.12,-79.5281"/>
</g>
<!-- Node3&#45;&gt;Node5 -->
<g id="edge5" class="edge"><title>Node3&#45;&gt;Node5</title>
<path fill="none" stroke="midnightblue" d="M550.878,-123.639C461.586,-118.605 287.823,-105.915 131.973,-75.966"/>
<polygon fill="midnightblue" stroke="midnightblue" points="132.22,-72.4482 121.735,-73.9683 130.879,-79.3186 132.22,-72.4482"/>
</g>
<!-- Node6 -->
<g id="node6" class="node"><title>Node6</title>
<polygon fill="none" stroke="#bfbfbf" points="1376,-56.5 1376,-75.5 1423,-75.5 1423,-56.5 1376,-56.5"/>
<text text-anchor="middle" x="1399.5" y="-63.5" font-family="Helvetica,sans-Serif" font-size="10.00">vector</text>
</g>
<!-- Node3&#45;&gt;Node6 -->
<g id="edge6" class="edge"><title>Node3&#45;&gt;Node6</title>
<path fill="none" stroke="midnightblue" d="M670.372,-126.706C797.352,-126.238 1102.92,-120.32 1365.74,-75.9692"/>
<polygon fill="midnightblue" stroke="midnightblue" points="1366.59,-79.3747 1375.86,-74.2392 1365.41,-72.4748 1366.59,-79.3747"/>
</g>
<!-- Node3&#45;&gt;Node7 -->
<g id="edge7" class="edge"><title>Node3&#45;&gt;Node7</title>
<path fill="none" stroke="midnightblue" d="M670.07,-126.728C849.044,-126.883 1373.32,-123.26 1432.5,-76 1446.12,-65.1257 1450.33,-45.0543 1451.47,-30.0809"/>
<polygon fill="midnightblue" stroke="midnightblue" points="1454.98,-29.9827 1451.85,-19.8611 1447.98,-29.7261 1454.98,-29.9827"/>
</g>
<!-- Node8 -->
<g id="node8" class="node"><title>Node8</title>
<polygon fill="none" stroke="#bfbfbf" points="564,-56.5 564,-75.5 657,-75.5 657,-56.5 564,-56.5"/>
<text text-anchor="middle" x="610.5" y="-63.5" font-family="Helvetica,sans-Serif" font-size="10.00">unordered_map</text>
</g>
<!-- Node3&#45;&gt;Node8 -->
<g id="edge8" class="edge"><title>Node3&#45;&gt;Node8</title>
<path fill="none" stroke="midnightblue" d="M610.5,-112.399C610.5,-104.466 610.5,-94.458 610.5,-85.8583"/>
<polygon fill="midnightblue" stroke="midnightblue" points="614,-85.6577 610.5,-75.6578 607,-85.6578 614,-85.6577"/>
</g>
<!-- Node9 -->
<g id="node9" class="node"><title>Node9</title>
<polygon fill="none" stroke="#bfbfbf" points="554.5,-0.5 554.5,-19.5 608.5,-19.5 608.5,-0.5 554.5,-0.5"/>
<text text-anchor="middle" x="581.5" y="-7.5" font-family="Helvetica,sans-Serif" font-size="10.00">fstream</text>
</g>
<!-- Node3&#45;&gt;Node9 -->
<g id="edge9" class="edge"><title>Node3&#45;&gt;Node9</title>
<path fill="none" stroke="midnightblue" d="M634.826,-112.457C655.228,-98.7769 679.158,-77.0242 666.5,-56 655.963,-38.4991 636.084,-27.448 618.199,-20.679"/>
<polygon fill="midnightblue" stroke="midnightblue" points="619.134,-17.2994 608.539,-17.3453 616.85,-23.9164 619.134,-17.2994"/>
</g>
<!-- Node10 -->
<g id="node10" class="node"><title>Node10</title>
<polygon fill="none" stroke="#bfbfbf" points="285,-0.5 285,-19.5 362,-19.5 362,-0.5 285,-0.5"/>
<text text-anchor="middle" x="323.5" y="-7.5" font-family="Helvetica,sans-Serif" font-size="10.00">Eigen/Dense</text>
</g>
<!-- Node3&#45;&gt;Node10 -->
<g id="edge10" class="edge"><title>Node3&#45;&gt;Node10</title>
<path fill="none" stroke="midnightblue" d="M550.794,-122.434C481.355,-116.507 372.406,-103.107 342.5,-76 329.588,-64.2972 325.259,-44.3566 323.902,-29.6403"/>
<polygon fill="midnightblue" stroke="midnightblue" points="327.395,-29.4203 323.351,-19.6279 320.406,-29.8052 327.395,-29.4203"/>
</g>
<!-- Node11 -->
<g id="node11" class="node"><title>Node11</title>
<polygon fill="none" stroke="#bfbfbf" points="410.5,-0.5 410.5,-19.5 506.5,-19.5 506.5,-0.5 410.5,-0.5"/>
<text text-anchor="middle" x="458.5" y="-7.5" font-family="Helvetica,sans-Serif" font-size="10.00">yaml&#45;cpp/yaml.h</text>
</g>
<!-- Node3&#45;&gt;Node11 -->
<g id="edge11" class="edge"><title>Node3&#45;&gt;Node11</title>
<path fill="none" stroke="midnightblue" d="M591.862,-112.337C562.981,-90.392 507.679,-48.3698 478.178,-25.953"/>
<polygon fill="midnightblue" stroke="midnightblue" points="479.989,-22.9329 469.909,-19.6695 475.754,-28.5064 479.989,-22.9329"/>
</g>
<!-- Node12 -->
<g id="node12" class="node"><title>Node12</title>
<g id="a_node12"><a xlink:href="Utils_8h.html" target="_top" xlink:title="ros_end_effector/Utils.h">
<polygon fill="none" stroke="black" points="713.5,-56.5 713.5,-75.5 843.5,-75.5 843.5,-56.5 713.5,-56.5"/>
<text text-anchor="middle" x="778.5" y="-63.5" font-family="Helvetica,sans-Serif" font-size="10.00">ros_end_effector/Utils.h</text>
</a>
</g>
</g>
<!-- Node3&#45;&gt;Node12 -->
<g id="edge12" class="edge"><title>Node3&#45;&gt;Node12</title>
<path fill="none" stroke="midnightblue" d="M650.314,-112.399C679.005,-102.238 717.31,-88.6716 744.555,-79.0221"/>
<polygon fill="midnightblue" stroke="midnightblue" points="745.797,-82.2955 754.055,-75.6578 743.46,-75.6971 745.797,-82.2955"/>
</g>
<!-- Node19 -->
<g id="node19" class="node"><title>Node19</title>
<g id="a_node19"><a xlink:href="UtilsEigen_8h.html" target="_top" xlink:title="ros_end_effector/UtilsEigen.h">
<polygon fill="none" stroke="black" points="139.5,-56.5 139.5,-75.5 295.5,-75.5 295.5,-56.5 139.5,-56.5"/>
<text text-anchor="middle" x="217.5" y="-63.5" font-family="Helvetica,sans-Serif" font-size="10.00">ros_end_effector/UtilsEigen.h</text>
</a>
</g>
</g>
<!-- Node3&#45;&gt;Node19 -->
<g id="edge21" class="edge"><title>Node3&#45;&gt;Node19</title>
<path fill="none" stroke="midnightblue" d="M550.812,-117.463C479.033,-106.596 358.904,-88.4085 284.155,-77.0915"/>
<polygon fill="midnightblue" stroke="midnightblue" points="284.33,-73.5782 273.918,-75.5417 283.282,-80.4993 284.33,-73.5782"/>
</g>
<!-- Node21 -->
<g id="node21" class="node"><title>Node21</title>
<g id="a_node21"><a xlink:href="UtilsYAML_8h.html" target="_top" xlink:title="ros_end_effector/UtilsYAML.h">
<polygon fill="none" stroke="black" points="352,-56.5 352,-75.5 507,-75.5 507,-56.5 352,-56.5"/>
<text text-anchor="middle" x="429.5" y="-63.5" font-family="Helvetica,sans-Serif" font-size="10.00">ros_end_effector/UtilsYAML.h</text>
</a>
</g>
</g>
<!-- Node3&#45;&gt;Node21 -->
<g id="edge24" class="edge"><title>Node3&#45;&gt;Node21</title>
<path fill="none" stroke="midnightblue" d="M567.606,-112.399C536.465,-102.163 494.813,-88.4703 465.421,-78.8082"/>
<polygon fill="midnightblue" stroke="midnightblue" points="466.166,-75.3689 455.573,-75.5709 463.98,-82.0188 466.166,-75.3689"/>
</g>
<!-- Node22 -->
<g id="node22" class="node"><title>Node22</title>
<polygon fill="none" stroke="#bfbfbf" points="862,-56.5 862,-75.5 987,-75.5 987,-56.5 862,-56.5"/>
<text text-anchor="middle" x="924.5" y="-63.5" font-family="Helvetica,sans-Serif" font-size="10.00">rosee_msg/HandInfo.h</text>
</g>
<!-- Node3&#45;&gt;Node22 -->
<g id="edge27" class="edge"><title>Node3&#45;&gt;Node22</title>
<path fill="none" stroke="midnightblue" d="M670.3,-115.168C727.589,-104.313 813.346,-88.0627 869.113,-77.4952"/>
<polygon fill="midnightblue" stroke="midnightblue" points="869.99,-80.8914 879.164,-75.5907 868.687,-74.0138 869.99,-80.8914"/>
</g>
<!-- Node23 -->
<g id="node23" class="node"><title>Node23</title>
<polygon fill="none" stroke="#bfbfbf" points="1004.5,-56.5 1004.5,-75.5 1200.5,-75.5 1200.5,-56.5 1004.5,-56.5"/>
<text text-anchor="middle" x="1102.5" y="-63.5" font-family="Helvetica,sans-Serif" font-size="10.00">rosee_msg/MotorPhalangePressure.h</text>
</g>
<!-- Node3&#45;&gt;Node23 -->
<g id="edge28" class="edge"><title>Node3&#45;&gt;Node23</title>
<path fill="none" stroke="midnightblue" d="M670.337,-119.264C758.389,-108.615 923.074,-88.6989 1021.76,-76.7646"/>
<polygon fill="midnightblue" stroke="midnightblue" points="1022.47,-80.2037 1031.98,-75.5284 1021.63,-73.2544 1022.47,-80.2037"/>
</g>
<!-- Node12&#45;&gt;Node7 -->
<g id="edge14" class="edge"><title>Node12&#45;&gt;Node7</title>
<path fill="none" stroke="midnightblue" d="M843.523,-57.0185C846.896,-56.6604 850.237,-56.3184 853.5,-56 1064.24,-35.4366 1317.56,-19.145 1412.8,-13.316"/>
<polygon fill="midnightblue" stroke="midnightblue" points="1413.06,-16.8064 1422.83,-12.7049 1412.64,-9.8194 1413.06,-16.8064"/>
</g>
<!-- Node12&#45;&gt;Node9 -->
<g id="edge18" class="edge"><title>Node12&#45;&gt;Node9</title>
<path fill="none" stroke="midnightblue" d="M747.285,-56.4435C712.377,-46.8749 655.873,-31.3864 618.7,-21.1971"/>
<polygon fill="midnightblue" stroke="midnightblue" points="619.332,-17.7412 608.763,-18.473 617.482,-24.4922 619.332,-17.7412"/>
</g>
<!-- Node13 -->
<g id="node13" class="node"><title>Node13</title>
<polygon fill="none" stroke="#bfbfbf" points="1041,-0.5 1041,-19.5 1088,-19.5 1088,-0.5 1041,-0.5"/>
<text text-anchor="middle" x="1064.5" y="-7.5" font-family="Helvetica,sans-Serif" font-size="10.00">cmath</text>
</g>
<!-- Node12&#45;&gt;Node13 -->
<g id="edge13" class="edge"><title>Node12&#45;&gt;Node13</title>
<path fill="none" stroke="midnightblue" d="M835.063,-56.4382C884.318,-48.643 957.82,-36.1966 1030.93,-19.9568"/>
<polygon fill="midnightblue" stroke="midnightblue" points="1031.78,-23.3526 1040.77,-17.7465 1030.25,-16.5227 1031.78,-23.3526"/>
</g>
<!-- Node14 -->
<g id="node14" class="node"><title>Node14</title>
<polygon fill="none" stroke="#bfbfbf" points="627,-0.5 627,-19.5 686,-19.5 686,-0.5 627,-0.5"/>
<text text-anchor="middle" x="656.5" y="-7.5" font-family="Helvetica,sans-Serif" font-size="10.00">iostream</text>
</g>
<!-- Node12&#45;&gt;Node14 -->
<g id="edge15" class="edge"><title>Node12&#45;&gt;Node14</title>
<path fill="none" stroke="midnightblue" d="M759.169,-56.4435C739.18,-47.5961 707.757,-33.6875 684.936,-23.5865"/>
<polygon fill="midnightblue" stroke="midnightblue" points="686.302,-20.3635 675.741,-19.5164 683.468,-26.7645 686.302,-20.3635"/>
</g>
<!-- Node15 -->
<g id="node15" class="node"><title>Node15</title>
<polygon fill="none" stroke="#bfbfbf" points="704.5,-0.5 704.5,-19.5 752.5,-19.5 752.5,-0.5 704.5,-0.5"/>
<text text-anchor="middle" x="728.5" y="-7.5" font-family="Helvetica,sans-Serif" font-size="10.00">dlfcn.h</text>
</g>
<!-- Node12&#45;&gt;Node15 -->
<g id="edge16" class="edge"><title>Node12&#45;&gt;Node15</title>
<path fill="none" stroke="midnightblue" d="M770.244,-56.083C763.035,-48.2982 752.39,-36.8015 743.654,-27.3665"/>
<polygon fill="midnightblue" stroke="midnightblue" points="745.965,-24.7108 736.603,-19.7511 740.829,-29.4666 745.965,-24.7108"/>
</g>
<!-- Node16 -->
<g id="node16" class="node"><title>Node16</title>
<polygon fill="none" stroke="#bfbfbf" points="770.5,-0.5 770.5,-19.5 886.5,-19.5 886.5,-0.5 770.5,-0.5"/>
<text text-anchor="middle" x="828.5" y="-7.5" font-family="Helvetica,sans-Serif" font-size="10.00">boost/filesystem.hpp</text>
</g>
<!-- Node12&#45;&gt;Node16 -->
<g id="edge17" class="edge"><title>Node12&#45;&gt;Node16</title>
<path fill="none" stroke="midnightblue" d="M786.756,-56.083C793.965,-48.2982 804.61,-36.8015 813.346,-27.3665"/>
<polygon fill="midnightblue" stroke="midnightblue" points="816.171,-29.4666 820.397,-19.7511 811.035,-24.7108 816.171,-29.4666"/>
</g>
<!-- Node17 -->
<g id="node17" class="node"><title>Node17</title>
<polygon fill="none" stroke="#bfbfbf" points="904.5,-0.5 904.5,-19.5 954.5,-19.5 954.5,-0.5 904.5,-0.5"/>
<text text-anchor="middle" x="929.5" y="-7.5" font-family="Helvetica,sans-Serif" font-size="10.00">chrono</text>
</g>
<!-- Node12&#45;&gt;Node17 -->
<g id="edge19" class="edge"><title>Node12&#45;&gt;Node17</title>
<path fill="none" stroke="midnightblue" d="M802.426,-56.4435C827.719,-47.3986 867.802,-33.064 896.18,-22.9158"/>
<polygon fill="midnightblue" stroke="midnightblue" points="897.448,-26.1794 905.686,-19.5164 895.091,-19.5882 897.448,-26.1794"/>
</g>
<!-- Node18 -->
<g id="node18" class="node"><title>Node18</title>
<polygon fill="none" stroke="#bfbfbf" points="972.5,-0.5 972.5,-19.5 1022.5,-19.5 1022.5,-0.5 972.5,-0.5"/>
<text text-anchor="middle" x="997.5" y="-7.5" font-family="Helvetica,sans-Serif" font-size="10.00">atomic</text>
</g>
<!-- Node12&#45;&gt;Node18 -->
<g id="edge20" class="edge"><title>Node12&#45;&gt;Node18</title>
<path fill="none" stroke="midnightblue" d="M814.711,-56.4199C850.004,-48.007 905.438,-34.6596 962.371,-20.2512"/>
<polygon fill="midnightblue" stroke="midnightblue" points="963.432,-23.5931 972.264,-17.7407 961.71,-16.8082 963.432,-23.5931"/>
</g>
<!-- Node19&#45;&gt;Node10 -->
<g id="edge22" class="edge"><title>Node19&#45;&gt;Node10</title>
<path fill="none" stroke="midnightblue" d="M234.531,-56.324C251.53,-47.6641 277.876,-34.2424 297.493,-24.249"/>
<polygon fill="midnightblue" stroke="midnightblue" points="299.19,-27.3125 306.512,-19.6545 296.012,-21.0752 299.19,-27.3125"/>
</g>
<!-- Node20 -->
<g id="node20" class="node"><title>Node20</title>
<polygon fill="none" stroke="#bfbfbf" points="108.5,-0.5 108.5,-19.5 266.5,-19.5 266.5,-0.5 108.5,-0.5"/>
<text text-anchor="middle" x="187.5" y="-7.5" font-family="Helvetica,sans-Serif" font-size="10.00">std_msgs/Float32MultiArray.h</text>
</g>
<!-- Node19&#45;&gt;Node20 -->
<g id="edge23" class="edge"><title>Node19&#45;&gt;Node20</title>
<path fill="none" stroke="midnightblue" d="M212.546,-56.083C208.396,-48.6127 202.347,-37.7244 197.233,-28.5199"/>
<polygon fill="midnightblue" stroke="midnightblue" points="200.278,-26.7929 192.362,-19.7511 194.159,-30.1924 200.278,-26.7929"/>
</g>
<!-- Node21&#45;&gt;Node10 -->
<g id="edge26" class="edge"><title>Node21&#45;&gt;Node10</title>
<path fill="none" stroke="midnightblue" d="M412.469,-56.324C395.47,-47.6641 369.124,-34.2424 349.507,-24.249"/>
<polygon fill="midnightblue" stroke="midnightblue" points="350.988,-21.0752 340.488,-19.6545 347.81,-27.3125 350.988,-21.0752"/>
</g>
<!-- Node21&#45;&gt;Node11 -->
<g id="edge25" class="edge"><title>Node21&#45;&gt;Node11</title>
<path fill="none" stroke="midnightblue" d="M434.289,-56.083C438.258,-48.6913 444.025,-37.9533 448.935,-28.8111"/>
<polygon fill="midnightblue" stroke="midnightblue" points="452.153,-30.217 453.8,-19.7511 445.986,-26.9051 452.153,-30.217"/>
</g>
</g>
</svg>
