<?xml version="1.0" encoding="UTF-8" standalone="no"?>
<!DOCTYPE svg PUBLIC "-//W3C//DTD SVG 1.1//EN"
 "http://www.w3.org/Graphics/SVG/1.1/DTD/svg11.dtd">
<!-- Generated by graphviz version 2.38.0 (20140413.2041)
 -->
<!-- Title: /home/lucamuratore/src/ros_end_effector__ws/src/ROSEndEffector/include/ROSEndEffector/DummyHal.h Pages: 1 -->
<svg width="434pt" height="240pt"
 viewBox="0.00 0.00 434.00 240.00" xmlns="http://www.w3.org/2000/svg" xmlns:xlink="http://www.w3.org/1999/xlink">
<g id="graph0" class="graph" transform="scale(1 1) rotate(0) translate(4 236)">
<title>/home/lucamuratore/src/ros_end_effector__ws/src/ROSEndEffector/include/ROSEndEffector/DummyHal.h</title>
<!-- Node1 -->
<g id="node1" class="node"><title>Node1</title>
<polygon fill="#bfbfbf" stroke="black" points="66,-168.5 66,-231.5 199,-231.5 199,-168.5 66,-168.5"/>
<text text-anchor="start" x="74" y="-219.5" font-family="Helvetica,sans-Serif" font-size="10.00">/home/lucamuratore</text>
<text text-anchor="start" x="74" y="-208.5" font-family="Helvetica,sans-Serif" font-size="10.00">/src/ros_end_effector</text>
<text text-anchor="start" x="74" y="-197.5" font-family="Helvetica,sans-Serif" font-size="10.00">__ws/src/ROSEndEffector</text>
<text text-anchor="start" x="74" y="-186.5" font-family="Helvetica,sans-Serif" font-size="10.00">/include/ROSEndEffector</text>
<text text-anchor="middle" x="132.5" y="-175.5" font-family="Helvetica,sans-Serif" font-size="10.00">/DummyHal.h</text>
</g>
<!-- Node2 -->
<g id="node2" class="node"><title>Node2</title>
<g id="a_node2"><a xlink:href="EEHal_8h.html" target="_top" xlink:title="ROSEndEffector/EEHal.h">
<polygon fill="none" stroke="black" points="67.5,-112.5 67.5,-131.5 197.5,-131.5 197.5,-112.5 67.5,-112.5"/>
<text text-anchor="middle" x="132.5" y="-119.5" font-family="Helvetica,sans-Serif" font-size="10.00">ROSEndEffector/EEHal.h</text>
</a>
</g>
</g>
<!-- Node1&#45;&gt;Node2 -->
<g id="edge1" class="edge"><title>Node1&#45;&gt;Node2</title>
<path fill="none" stroke="midnightblue" d="M132.5,-168.088C132.5,-159.15 132.5,-149.669 132.5,-141.719"/>
<polygon fill="midnightblue" stroke="midnightblue" points="136,-141.718 132.5,-131.718 129,-141.718 136,-141.718"/>
</g>
<!-- Node4 -->
<g id="node4" class="node"><title>Node4</title>
<polygon fill="none" stroke="#bfbfbf" points="0,-0.5 0,-19.5 41,-19.5 41,-0.5 0,-0.5"/>
<text text-anchor="middle" x="20.5" y="-7.5" font-family="Helvetica,sans-Serif" font-size="10.00">string</text>
</g>
<!-- Node1&#45;&gt;Node4 -->
<g id="edge11" class="edge"><title>Node1&#45;&gt;Node4</title>
<path fill="none" stroke="midnightblue" d="M92.7242,-168.442C67.3932,-146.092 37.2156,-113.26 25.5,-76 20.7738,-60.9687 19.7093,-43.0628 19.7216,-29.8542"/>
<polygon fill="midnightblue" stroke="midnightblue" points="23.2253,-29.7204 19.9447,-19.6463 16.227,-29.5674 23.2253,-29.7204"/>
</g>
<!-- Node5 -->
<g id="node5" class="node"><title>Node5</title>
<polygon fill="none" stroke="#bfbfbf" points="199.5,-0.5 199.5,-19.5 251.5,-19.5 251.5,-0.5 199.5,-0.5"/>
<text text-anchor="middle" x="225.5" y="-7.5" font-family="Helvetica,sans-Serif" font-size="10.00">memory</text>
</g>
<!-- Node1&#45;&gt;Node5 -->
<g id="edge12" class="edge"><title>Node1&#45;&gt;Node5</title>
<path fill="none" stroke="midnightblue" d="M176.14,-168.33C187.738,-158.077 199.085,-145.723 206.5,-132 224.214,-99.2147 226.58,-54.6136 226.309,-29.7375"/>
<polygon fill="midnightblue" stroke="midnightblue" points="229.802,-29.4297 226.033,-19.5281 222.805,-29.6191 229.802,-29.4297"/>
</g>
<!-- Node3 -->
<g id="node3" class="node"><title>Node3</title>
<g id="a_node3"><a xlink:href="IMotor_8h.html" target="_top" xlink:title="ROSEndEffector/IMotor.h">
<polygon fill="none" stroke="black" points="49,-56.5 49,-75.5 178,-75.5 178,-56.5 49,-56.5"/>
<text text-anchor="middle" x="113.5" y="-63.5" font-family="Helvetica,sans-Serif" font-size="10.00">ROSEndEffector/IMotor.h</text>
</a>
</g>
</g>
<!-- Node2&#45;&gt;Node3 -->
<g id="edge2" class="edge"><title>Node2&#45;&gt;Node3</title>
<path fill="none" stroke="midnightblue" d="M129.363,-112.083C126.817,-104.849 123.144,-94.4087 119.973,-85.3968"/>
<polygon fill="midnightblue" stroke="midnightblue" points="123.2,-84.0225 116.579,-75.7511 116.597,-86.3459 123.2,-84.0225"/>
</g>
<!-- Node2&#45;&gt;Node4 -->
<g id="edge9" class="edge"><title>Node2&#45;&gt;Node4</title>
<path fill="none" stroke="midnightblue" d="M99.3951,-112.43C79.4094,-105.646 54.9095,-94.2111 39.5,-76 28.474,-62.9693 23.8432,-43.812 21.9002,-29.6687"/>
<polygon fill="midnightblue" stroke="midnightblue" points="25.3699,-29.1949 20.8474,-19.6138 18.4079,-29.9239 25.3699,-29.1949"/>
</g>
<!-- Node2&#45;&gt;Node5 -->
<g id="edge10" class="edge"><title>Node2&#45;&gt;Node5</title>
<path fill="none" stroke="midnightblue" d="M145.113,-112.384C156.773,-104.006 174.116,-90.4591 186.5,-76 198.916,-61.5038 209.781,-42.5706 216.868,-28.8804"/>
<polygon fill="midnightblue" stroke="midnightblue" points="220.169,-30.1029 221.513,-19.5937 213.909,-26.9711 220.169,-30.1029"/>
</g>
<!-- Node6 -->
<g id="node6" class="node"><title>Node6</title>
<g id="a_node6"><a xlink:href="EEInterface_8h.html" target="_top" xlink:title="ROSEndEffector/EEInterface.h">
<polygon fill="none" stroke="black" points="273,-56.5 273,-75.5 426,-75.5 426,-56.5 273,-56.5"/>
<text text-anchor="middle" x="349.5" y="-63.5" font-family="Helvetica,sans-Serif" font-size="10.00">ROSEndEffector/EEInterface.h</text>
</a>
</g>
</g>
<!-- Node2&#45;&gt;Node6 -->
<g id="edge5" class="edge"><title>Node2&#45;&gt;Node6</title>
<path fill="none" stroke="midnightblue" d="M166.884,-112.444C204.422,-103.102 264.631,-88.1194 305.567,-77.9326"/>
<polygon fill="midnightblue" stroke="midnightblue" points="306.418,-81.3278 315.277,-75.5164 304.727,-74.5349 306.418,-81.3278"/>
</g>
<!-- Node3&#45;&gt;Node4 -->
<g id="edge3" class="edge"><title>Node3&#45;&gt;Node4</title>
<path fill="none" stroke="midnightblue" d="M98.5579,-56.324C83.9148,-47.8215 61.3663,-34.7288 44.2623,-24.7975"/>
<polygon fill="midnightblue" stroke="midnightblue" points="45.8104,-21.6491 35.405,-19.6545 42.2954,-27.7027 45.8104,-21.6491"/>
</g>
<!-- Node3&#45;&gt;Node5 -->
<g id="edge4" class="edge"><title>Node3&#45;&gt;Node5</title>
<path fill="none" stroke="midnightblue" d="M131.495,-56.324C149.538,-47.6247 177.547,-34.1202 198.303,-24.113"/>
<polygon fill="midnightblue" stroke="midnightblue" points="200.062,-27.1502 207.55,-19.6545 197.022,-20.8449 200.062,-27.1502"/>
</g>
<!-- Node6&#45;&gt;Node5 -->
<g id="edge8" class="edge"><title>Node6&#45;&gt;Node5</title>
<path fill="none" stroke="midnightblue" d="M329.852,-56.4435C309.535,-47.5961 277.597,-33.6875 254.402,-23.5865"/>
<polygon fill="midnightblue" stroke="midnightblue" points="255.622,-20.3002 245.056,-19.5164 252.827,-26.7181 255.622,-20.3002"/>
</g>
<!-- Node7 -->
<g id="node7" class="node"><title>Node7</title>
<polygon fill="none" stroke="#bfbfbf" points="303,-0.5 303,-19.5 338,-19.5 338,-0.5 303,-0.5"/>
<text text-anchor="middle" x="320.5" y="-7.5" font-family="Helvetica,sans-Serif" font-size="10.00">map</text>
</g>
<!-- Node6&#45;&gt;Node7 -->
<g id="edge6" class="edge"><title>Node6&#45;&gt;Node7</title>
<path fill="none" stroke="midnightblue" d="M344.711,-56.083C340.742,-48.6913 334.975,-37.9533 330.065,-28.8111"/>
<polygon fill="midnightblue" stroke="midnightblue" points="333.014,-26.9051 325.2,-19.7511 326.847,-30.217 333.014,-26.9051"/>
</g>
<!-- Node8 -->
<g id="node8" class="node"><title>Node8</title>
<polygon fill="none" stroke="#bfbfbf" points="356.5,-0.5 356.5,-19.5 400.5,-19.5 400.5,-0.5 356.5,-0.5"/>
<text text-anchor="middle" x="378.5" y="-7.5" font-family="Helvetica,sans-Serif" font-size="10.00">vector</text>
</g>
<!-- Node6&#45;&gt;Node8 -->
<g id="edge7" class="edge"><title>Node6&#45;&gt;Node8</title>
<path fill="none" stroke="midnightblue" d="M354.289,-56.083C358.258,-48.6913 364.025,-37.9533 368.935,-28.8111"/>
<polygon fill="midnightblue" stroke="midnightblue" points="372.153,-30.217 373.8,-19.7511 365.986,-26.9051 372.153,-30.217"/>
</g>
</g>
</svg>
