<?xml version="1.0" encoding="UTF-8" standalone="no"?>
<!DOCTYPE svg PUBLIC "-//W3C//DTD SVG 1.1//EN"
 "http://www.w3.org/Graphics/SVG/1.1/DTD/svg11.dtd">
<!-- Generated by graphviz version 2.38.0 (20140413.2041)
 -->
<!-- Title: /home/travis/build/ADVRHumanoids/ROSEndEffector/src/HAL/DummyHal.cpp Pages: 1 -->
<svg width="1428pt" height="274pt"
 viewBox="0.00 0.00 1428.00 274.00" xmlns="http://www.w3.org/2000/svg" xmlns:xlink="http://www.w3.org/1999/xlink">
<g id="graph0" class="graph" transform="scale(1 1) rotate(0) translate(4 270)">
<title>/home/travis/build/ADVRHumanoids/ROSEndEffector/src/HAL/DummyHal.cpp</title>
<!-- Node1 -->
<g id="node1" class="node"><title>Node1</title>
<polygon fill="#bfbfbf" stroke="black" points="338,-224.5 338,-265.5 517,-265.5 517,-224.5 338,-224.5"/>
<text text-anchor="start" x="346" y="-253.5" font-family="Helvetica,sans-Serif" font-size="10.00">/home/travis/build</text>
<text text-anchor="start" x="346" y="-242.5" font-family="Helvetica,sans-Serif" font-size="10.00">/ADVRHumanoids/ROSEndEffector</text>
<text text-anchor="middle" x="427.5" y="-231.5" font-family="Helvetica,sans-Serif" font-size="10.00">/src/HAL/DummyHal.cpp</text>
</g>
<!-- Node2 -->
<g id="node2" class="node"><title>Node2</title>
<g id="a_node2"><a xlink:href="DummyHal_8h.html" target="_top" xlink:title="end_effector/HAL/DummyHal.h">
<polygon fill="none" stroke="black" points="345,-168.5 345,-187.5 510,-187.5 510,-168.5 345,-168.5"/>
<text text-anchor="middle" x="427.5" y="-175.5" font-family="Helvetica,sans-Serif" font-size="10.00">end_effector/HAL/DummyHal.h</text>
</a>
</g>
</g>
<!-- Node1&#45;&gt;Node2 -->
<g id="edge1" class="edge"><title>Node1&#45;&gt;Node2</title>
<path fill="none" stroke="midnightblue" d="M427.5,-224.498C427.5,-216.065 427.5,-206.235 427.5,-197.874"/>
<polygon fill="midnightblue" stroke="midnightblue" points="431,-197.652 427.5,-187.652 424,-197.653 431,-197.652"/>
</g>
<!-- Node3 -->
<g id="node3" class="node"><title>Node3</title>
<polygon fill="none" stroke="#bfbfbf" points="0,-56.5 0,-75.5 59,-75.5 59,-56.5 0,-56.5"/>
<text text-anchor="middle" x="29.5" y="-63.5" font-family="Helvetica,sans-Serif" font-size="10.00">ros/ros.h</text>
</g>
<!-- Node2&#45;&gt;Node3 -->
<g id="edge2" class="edge"><title>Node2&#45;&gt;Node3</title>
<path fill="none" stroke="midnightblue" d="M390.758,-168.484C353.899,-159.808 295.571,-145.715 245.5,-132 182.035,-114.617 108.827,-92.05 66.0068,-78.5933"/>
<polygon fill="midnightblue" stroke="midnightblue" points="66.9045,-75.2066 56.3149,-75.5399 64.801,-81.8831 66.9045,-75.2066"/>
</g>
<!-- Node4 -->
<g id="node4" class="node"><title>Node4</title>
<g id="a_node4"><a xlink:href="EEHal_8h.html" target="_top" xlink:title="end_effector/HAL/EEHal.h">
<polygon fill="none" stroke="black" points="501,-112.5 501,-131.5 640,-131.5 640,-112.5 501,-112.5"/>
<text text-anchor="middle" x="570.5" y="-119.5" font-family="Helvetica,sans-Serif" font-size="10.00">end_effector/HAL/EEHal.h</text>
</a>
</g>
</g>
<!-- Node2&#45;&gt;Node4 -->
<g id="edge3" class="edge"><title>Node2&#45;&gt;Node4</title>
<path fill="none" stroke="midnightblue" d="M450.159,-168.444C473.902,-159.478 511.409,-145.314 538.238,-135.183"/>
<polygon fill="midnightblue" stroke="midnightblue" points="539.829,-138.324 547.947,-131.516 537.356,-131.775 539.829,-138.324"/>
</g>
<!-- Node6 -->
<g id="node6" class="node"><title>Node6</title>
<polygon fill="none" stroke="#bfbfbf" points="77.5,-56.5 77.5,-75.5 121.5,-75.5 121.5,-56.5 77.5,-56.5"/>
<text text-anchor="middle" x="99.5" y="-63.5" font-family="Helvetica,sans-Serif" font-size="10.00">string</text>
</g>
<!-- Node2&#45;&gt;Node6 -->
<g id="edge30" class="edge"><title>Node2&#45;&gt;Node6</title>
<path fill="none" stroke="midnightblue" d="M404.628,-168.466C370.246,-155.72 303.127,-131.161 245.5,-112 206.55,-99.049 161.338,-85.3117 131.669,-76.4713"/>
<polygon fill="midnightblue" stroke="midnightblue" points="132.441,-73.0496 121.859,-73.5579 130.448,-79.76 132.441,-73.0496"/>
</g>
<!-- Node8 -->
<g id="node8" class="node"><title>Node8</title>
<polygon fill="none" stroke="#bfbfbf" points="1363,-0.5 1363,-19.5 1420,-19.5 1420,-0.5 1363,-0.5"/>
<text text-anchor="middle" x="1391.5" y="-7.5" font-family="Helvetica,sans-Serif" font-size="10.00">memory</text>
</g>
<!-- Node2&#45;&gt;Node8 -->
<g id="edge31" class="edge"><title>Node2&#45;&gt;Node8</title>
<path fill="none" stroke="midnightblue" d="M510.372,-174.543C733.464,-167.082 1333.87,-141.082 1392.5,-76 1403.58,-63.7047 1401.64,-44.1707 1397.96,-29.7234"/>
<polygon fill="midnightblue" stroke="midnightblue" points="1401.23,-28.4379 1394.99,-19.8712 1394.52,-30.4556 1401.23,-28.4379"/>
</g>
<!-- Node4&#45;&gt;Node3 -->
<g id="edge4" class="edge"><title>Node4&#45;&gt;Node3</title>
<path fill="none" stroke="midnightblue" d="M500.696,-117.777C405.383,-112.702 229.081,-100.916 69.2449,-75.8926"/>
<polygon fill="midnightblue" stroke="midnightblue" points="69.6528,-72.4136 59.2278,-74.3034 68.5559,-79.3272 69.6528,-72.4136"/>
</g>
<!-- Node5 -->
<g id="node5" class="node"><title>Node5</title>
<polygon fill="none" stroke="#bfbfbf" points="1159,-56.5 1159,-75.5 1298,-75.5 1298,-56.5 1159,-56.5"/>
<text text-anchor="middle" x="1228.5" y="-63.5" font-family="Helvetica,sans-Serif" font-size="10.00">sensor_msgs/JointState.h</text>
</g>
<!-- Node4&#45;&gt;Node5 -->
<g id="edge5" class="edge"><title>Node4&#45;&gt;Node5</title>
<path fill="none" stroke="midnightblue" d="M640.088,-116.401C746.97,-109.159 958.239,-94.1338 1148.53,-76.0593"/>
<polygon fill="midnightblue" stroke="midnightblue" points="1149.11,-79.5207 1158.73,-75.0862 1148.44,-72.5524 1149.11,-79.5207"/>
</g>
<!-- Node4&#45;&gt;Node6 -->
<g id="edge6" class="edge"><title>Node4&#45;&gt;Node6</title>
<path fill="none" stroke="midnightblue" d="M500.963,-117.773C415.882,-112.96 267.423,-101.761 131.883,-75.9422"/>
<polygon fill="midnightblue" stroke="midnightblue" points="132.216,-72.4417 121.733,-73.9762 130.885,-79.3139 132.216,-72.4417"/>
</g>
<!-- Node7 -->
<g id="node7" class="node"><title>Node7</title>
<polygon fill="none" stroke="#bfbfbf" points="1316,-56.5 1316,-75.5 1363,-75.5 1363,-56.5 1316,-56.5"/>
<text text-anchor="middle" x="1339.5" y="-63.5" font-family="Helvetica,sans-Serif" font-size="10.00">vector</text>
</g>
<!-- Node4&#45;&gt;Node7 -->
<g id="edge7" class="edge"><title>Node4&#45;&gt;Node7</title>
<path fill="none" stroke="midnightblue" d="M640.154,-121.666C769.866,-121.836 1057.12,-117.177 1305.91,-75.9273"/>
<polygon fill="midnightblue" stroke="midnightblue" points="1306.58,-79.364 1315.86,-74.2544 1305.42,-72.4609 1306.58,-79.364"/>
</g>
<!-- Node4&#45;&gt;Node8 -->
<g id="edge8" class="edge"><title>Node4&#45;&gt;Node8</title>
<path fill="none" stroke="midnightblue" d="M640.184,-121.613C824.725,-122.611 1315.89,-120.966 1372.5,-76 1386.15,-65.1619 1390.36,-45.0847 1391.49,-30.1001"/>
<polygon fill="midnightblue" stroke="midnightblue" points="1394.99,-29.9905 1391.86,-19.8713 1388,-29.7391 1394.99,-29.9905"/>
</g>
<!-- Node9 -->
<g id="node9" class="node"><title>Node9</title>
<polygon fill="none" stroke="#bfbfbf" points="524,-56.5 524,-75.5 617,-75.5 617,-56.5 524,-56.5"/>
<text text-anchor="middle" x="570.5" y="-63.5" font-family="Helvetica,sans-Serif" font-size="10.00">unordered_map</text>
</g>
<!-- Node4&#45;&gt;Node9 -->
<g id="edge9" class="edge"><title>Node4&#45;&gt;Node9</title>
<path fill="none" stroke="midnightblue" d="M570.5,-112.083C570.5,-105.006 570.5,-94.8611 570.5,-85.9865"/>
<polygon fill="midnightblue" stroke="midnightblue" points="574,-85.751 570.5,-75.7511 567,-85.7511 574,-85.751"/>
</g>
<!-- Node10 -->
<g id="node10" class="node"><title>Node10</title>
<polygon fill="none" stroke="#bfbfbf" points="514.5,-0.5 514.5,-19.5 568.5,-19.5 568.5,-0.5 514.5,-0.5"/>
<text text-anchor="middle" x="541.5" y="-7.5" font-family="Helvetica,sans-Serif" font-size="10.00">fstream</text>
</g>
<!-- Node4&#45;&gt;Node10 -->
<g id="edge10" class="edge"><title>Node4&#45;&gt;Node10</title>
<path fill="none" stroke="midnightblue" d="M587.172,-112.464C607.857,-100.674 638.865,-78.3219 625.5,-56 615.174,-38.7538 595.728,-27.7416 578.145,-20.9308"/>
<polygon fill="midnightblue" stroke="midnightblue" points="579.233,-17.6031 568.639,-17.5663 576.898,-24.2021 579.233,-17.6031"/>
</g>
<!-- Node11 -->
<g id="node11" class="node"><title>Node11</title>
<polygon fill="none" stroke="#bfbfbf" points="275,-0.5 275,-19.5 352,-19.5 352,-0.5 275,-0.5"/>
<text text-anchor="middle" x="313.5" y="-7.5" font-family="Helvetica,sans-Serif" font-size="10.00">Eigen/Dense</text>
</g>
<!-- Node4&#45;&gt;Node11 -->
<g id="edge11" class="edge"><title>Node4&#45;&gt;Node11</title>
<path fill="none" stroke="midnightblue" d="M500.732,-117.305C436.132,-112.351 346.54,-101.069 322.5,-76 311.052,-64.0617 309.694,-44.7578 310.664,-30.2827"/>
<polygon fill="midnightblue" stroke="midnightblue" points="314.187,-30.263 311.792,-19.9423 307.228,-29.5036 314.187,-30.263"/>
</g>
<!-- Node12 -->
<g id="node12" class="node"><title>Node12</title>
<polygon fill="none" stroke="#bfbfbf" points="390.5,-0.5 390.5,-19.5 486.5,-19.5 486.5,-0.5 390.5,-0.5"/>
<text text-anchor="middle" x="438.5" y="-7.5" font-family="Helvetica,sans-Serif" font-size="10.00">yaml&#45;cpp/yaml.h</text>
</g>
<!-- Node4&#45;&gt;Node12 -->
<g id="edge12" class="edge"><title>Node4&#45;&gt;Node12</title>
<path fill="none" stroke="midnightblue" d="M559.685,-112.47C548.348,-103.491 530.054,-88.8959 514.5,-76 494.201,-59.1702 471.238,-39.432 455.917,-26.1597"/>
<polygon fill="midnightblue" stroke="midnightblue" points="458.103,-23.4225 448.257,-19.5109 453.514,-28.709 458.103,-23.4225"/>
</g>
<!-- Node13 -->
<g id="node13" class="node"><title>Node13</title>
<g id="a_node13"><a xlink:href="Utils_8h.html" target="_top" xlink:title="end_effector/Utils.h">
<polygon fill="none" stroke="black" points="673.5,-56.5 673.5,-75.5 783.5,-75.5 783.5,-56.5 673.5,-56.5"/>
<text text-anchor="middle" x="728.5" y="-63.5" font-family="Helvetica,sans-Serif" font-size="10.00">end_effector/Utils.h</text>
</a>
</g>
</g>
<!-- Node4&#45;&gt;Node13 -->
<g id="edge13" class="edge"><title>Node4&#45;&gt;Node13</title>
<path fill="none" stroke="midnightblue" d="M595.536,-112.444C622.116,-103.359 664.309,-88.9388 694.023,-78.7831"/>
<polygon fill="midnightblue" stroke="midnightblue" points="695.251,-82.0625 703.582,-75.5164 692.987,-75.4386 695.251,-82.0625"/>
</g>
<!-- Node20 -->
<g id="node20" class="node"><title>Node20</title>
<g id="a_node20"><a xlink:href="UtilsEigen_8h.html" target="_top" xlink:title="end_effector/UtilsEigen.h">
<polygon fill="none" stroke="black" points="139.5,-56.5 139.5,-75.5 275.5,-75.5 275.5,-56.5 139.5,-56.5"/>
<text text-anchor="middle" x="207.5" y="-63.5" font-family="Helvetica,sans-Serif" font-size="10.00">end_effector/UtilsEigen.h</text>
</a>
</g>
</g>
<!-- Node4&#45;&gt;Node20 -->
<g id="edge22" class="edge"><title>Node4&#45;&gt;Node20</title>
<path fill="none" stroke="midnightblue" d="M512.982,-112.444C448.33,-102.826 343.474,-87.2275 274.997,-77.0409"/>
<polygon fill="midnightblue" stroke="midnightblue" points="275.156,-73.526 264.749,-75.5164 274.125,-80.4498 275.156,-73.526"/>
</g>
<!-- Node22 -->
<g id="node22" class="node"><title>Node22</title>
<g id="a_node22"><a xlink:href="UtilsYAML_8h.html" target="_top" xlink:title="end_effector/UtilsYAML.h">
<polygon fill="none" stroke="black" points="332,-56.5 332,-75.5 467,-75.5 467,-56.5 332,-56.5"/>
<text text-anchor="middle" x="399.5" y="-63.5" font-family="Helvetica,sans-Serif" font-size="10.00">end_effector/UtilsYAML.h</text>
</a>
</g>
</g>
<!-- Node4&#45;&gt;Node22 -->
<g id="edge25" class="edge"><title>Node4&#45;&gt;Node22</title>
<path fill="none" stroke="midnightblue" d="M543.405,-112.444C514.512,-103.32 468.575,-88.8133 436.395,-78.6509"/>
<polygon fill="midnightblue" stroke="midnightblue" points="437.059,-75.1903 426.469,-75.5164 434.951,-81.8654 437.059,-75.1903"/>
</g>
<!-- Node23 -->
<g id="node23" class="node"><title>Node23</title>
<polygon fill="none" stroke="#bfbfbf" points="802,-56.5 802,-75.5 927,-75.5 927,-56.5 802,-56.5"/>
<text text-anchor="middle" x="864.5" y="-63.5" font-family="Helvetica,sans-Serif" font-size="10.00">rosee_msg/HandInfo.h</text>
</g>
<!-- Node4&#45;&gt;Node23 -->
<g id="edge28" class="edge"><title>Node4&#45;&gt;Node23</title>
<path fill="none" stroke="midnightblue" d="M617.085,-112.444C668.91,-102.925 752.632,-87.5472 808.115,-77.3563"/>
<polygon fill="midnightblue" stroke="midnightblue" points="808.93,-80.7654 818.133,-75.5164 807.665,-73.8806 808.93,-80.7654"/>
</g>
<!-- Node24 -->
<g id="node24" class="node"><title>Node24</title>
<polygon fill="none" stroke="#bfbfbf" points="944.5,-56.5 944.5,-75.5 1140.5,-75.5 1140.5,-56.5 944.5,-56.5"/>
<text text-anchor="middle" x="1042.5" y="-63.5" font-family="Helvetica,sans-Serif" font-size="10.00">rosee_msg/MotorPhalangePressure.h</text>
</g>
<!-- Node4&#45;&gt;Node24 -->
<g id="edge29" class="edge"><title>Node4&#45;&gt;Node24</title>
<path fill="none" stroke="midnightblue" d="M640.145,-113.032C724.677,-103.361 867.145,-87.0618 957.906,-76.6781"/>
<polygon fill="midnightblue" stroke="midnightblue" points="958.352,-80.15 967.889,-75.536 957.556,-73.1954 958.352,-80.15"/>
</g>
<!-- Node13&#45;&gt;Node8 -->
<g id="edge15" class="edge"><title>Node13&#45;&gt;Node8</title>
<path fill="none" stroke="midnightblue" d="M783.789,-57.1052C787.073,-56.7108 790.328,-56.3386 793.5,-56 1004.04,-33.5242 1257.48,-18.3588 1352.77,-13.0736"/>
<polygon fill="midnightblue" stroke="midnightblue" points="1353.02,-16.5654 1362.81,-12.521 1352.63,-9.57594 1353.02,-16.5654"/>
</g>
<!-- Node13&#45;&gt;Node10 -->
<g id="edge19" class="edge"><title>Node13&#45;&gt;Node10</title>
<path fill="none" stroke="midnightblue" d="M698.869,-56.4435C666.25,-47.0241 613.765,-31.8679 578.475,-21.6774"/>
<polygon fill="midnightblue" stroke="midnightblue" points="579.142,-18.2269 568.563,-18.8151 577.2,-24.9521 579.142,-18.2269"/>
</g>
<!-- Node14 -->
<g id="node14" class="node"><title>Node14</title>
<polygon fill="none" stroke="#bfbfbf" points="1001,-0.5 1001,-19.5 1048,-19.5 1048,-0.5 1001,-0.5"/>
<text text-anchor="middle" x="1024.5" y="-7.5" font-family="Helvetica,sans-Serif" font-size="10.00">cmath</text>
</g>
<!-- Node13&#45;&gt;Node14 -->
<g id="edge14" class="edge"><title>Node13&#45;&gt;Node14</title>
<path fill="none" stroke="midnightblue" d="M783.707,-57.1442C834.942,-49.4952 913.496,-36.8592 990.858,-19.9574"/>
<polygon fill="midnightblue" stroke="midnightblue" points="991.766,-23.3411 1000.78,-17.7654 990.255,-16.5061 991.766,-23.3411"/>
</g>
<!-- Node15 -->
<g id="node15" class="node"><title>Node15</title>
<polygon fill="none" stroke="#bfbfbf" points="587,-0.5 587,-19.5 646,-19.5 646,-0.5 587,-0.5"/>
<text text-anchor="middle" x="616.5" y="-7.5" font-family="Helvetica,sans-Serif" font-size="10.00">iostream</text>
</g>
<!-- Node13&#45;&gt;Node15 -->
<g id="edge16" class="edge"><title>Node13&#45;&gt;Node15</title>
<path fill="none" stroke="midnightblue" d="M710.505,-56.324C692.462,-47.6247 664.453,-34.1202 643.697,-24.113"/>
<polygon fill="midnightblue" stroke="midnightblue" points="644.978,-20.8449 634.45,-19.6545 641.938,-27.1502 644.978,-20.8449"/>
</g>
<!-- Node16 -->
<g id="node16" class="node"><title>Node16</title>
<polygon fill="none" stroke="#bfbfbf" points="664.5,-0.5 664.5,-19.5 712.5,-19.5 712.5,-0.5 664.5,-0.5"/>
<text text-anchor="middle" x="688.5" y="-7.5" font-family="Helvetica,sans-Serif" font-size="10.00">dlfcn.h</text>
</g>
<!-- Node13&#45;&gt;Node16 -->
<g id="edge17" class="edge"><title>Node13&#45;&gt;Node16</title>
<path fill="none" stroke="midnightblue" d="M721.895,-56.083C716.245,-48.4554 707.955,-37.2645 701.049,-27.9408"/>
<polygon fill="midnightblue" stroke="midnightblue" points="703.747,-25.7034 694.982,-19.7511 698.122,-29.87 703.747,-25.7034"/>
</g>
<!-- Node17 -->
<g id="node17" class="node"><title>Node17</title>
<polygon fill="none" stroke="#bfbfbf" points="730.5,-0.5 730.5,-19.5 846.5,-19.5 846.5,-0.5 730.5,-0.5"/>
<text text-anchor="middle" x="788.5" y="-7.5" font-family="Helvetica,sans-Serif" font-size="10.00">boost/filesystem.hpp</text>
</g>
<!-- Node13&#45;&gt;Node17 -->
<g id="edge18" class="edge"><title>Node13&#45;&gt;Node17</title>
<path fill="none" stroke="midnightblue" d="M738.14,-56.324C747.01,-48.3414 760.375,-36.3128 771.108,-26.6529"/>
<polygon fill="midnightblue" stroke="midnightblue" points="773.593,-29.1251 778.685,-19.8339 768.91,-23.922 773.593,-29.1251"/>
</g>
<!-- Node18 -->
<g id="node18" class="node"><title>Node18</title>
<polygon fill="none" stroke="#bfbfbf" points="864.5,-0.5 864.5,-19.5 914.5,-19.5 914.5,-0.5 864.5,-0.5"/>
<text text-anchor="middle" x="889.5" y="-7.5" font-family="Helvetica,sans-Serif" font-size="10.00">chrono</text>
</g>
<!-- Node13&#45;&gt;Node18 -->
<g id="edge20" class="edge"><title>Node13&#45;&gt;Node18</title>
<path fill="none" stroke="midnightblue" d="M754.011,-56.4435C781.176,-47.3324 824.343,-32.8539 854.636,-22.6936"/>
<polygon fill="midnightblue" stroke="midnightblue" points="856.006,-25.9259 864.373,-19.4275 853.78,-19.2892 856.006,-25.9259"/>
</g>
<!-- Node19 -->
<g id="node19" class="node"><title>Node19</title>
<polygon fill="none" stroke="#bfbfbf" points="932.5,-0.5 932.5,-19.5 982.5,-19.5 982.5,-0.5 932.5,-0.5"/>
<text text-anchor="middle" x="957.5" y="-7.5" font-family="Helvetica,sans-Serif" font-size="10.00">atomic</text>
</g>
<!-- Node13&#45;&gt;Node19 -->
<g id="edge21" class="edge"><title>Node13&#45;&gt;Node19</title>
<path fill="none" stroke="midnightblue" d="M767.066,-56.4821C804.389,-48.154 862.802,-34.8973 922.324,-20.2352"/>
<polygon fill="midnightblue" stroke="midnightblue" points="923.405,-23.5733 932.272,-17.774 921.724,-16.7782 923.405,-23.5733"/>
</g>
<!-- Node20&#45;&gt;Node11 -->
<g id="edge23" class="edge"><title>Node20&#45;&gt;Node11</title>
<path fill="none" stroke="midnightblue" d="M224.531,-56.324C241.53,-47.6641 267.876,-34.2424 287.493,-24.249"/>
<polygon fill="midnightblue" stroke="midnightblue" points="289.19,-27.3125 296.512,-19.6545 286.012,-21.0752 289.19,-27.3125"/>
</g>
<!-- Node21 -->
<g id="node21" class="node"><title>Node21</title>
<polygon fill="none" stroke="#bfbfbf" points="98.5,-0.5 98.5,-19.5 256.5,-19.5 256.5,-0.5 98.5,-0.5"/>
<text text-anchor="middle" x="177.5" y="-7.5" font-family="Helvetica,sans-Serif" font-size="10.00">std_msgs/Float32MultiArray.h</text>
</g>
<!-- Node20&#45;&gt;Node21 -->
<g id="edge24" class="edge"><title>Node20&#45;&gt;Node21</title>
<path fill="none" stroke="midnightblue" d="M202.546,-56.083C198.396,-48.6127 192.347,-37.7244 187.233,-28.5199"/>
<polygon fill="midnightblue" stroke="midnightblue" points="190.278,-26.7929 182.362,-19.7511 184.159,-30.1924 190.278,-26.7929"/>
</g>
<!-- Node22&#45;&gt;Node11 -->
<g id="edge27" class="edge"><title>Node22&#45;&gt;Node11</title>
<path fill="none" stroke="midnightblue" d="M385.683,-56.324C372.267,-47.9002 351.676,-34.9709 335.914,-25.0741"/>
<polygon fill="midnightblue" stroke="midnightblue" points="337.613,-22.0081 327.283,-19.6545 333.891,-27.9364 337.613,-22.0081"/>
</g>
<!-- Node22&#45;&gt;Node12 -->
<g id="edge26" class="edge"><title>Node22&#45;&gt;Node12</title>
<path fill="none" stroke="midnightblue" d="M405.94,-56.083C411.449,-48.4554 419.531,-37.2645 426.265,-27.9408"/>
<polygon fill="midnightblue" stroke="midnightblue" points="429.162,-29.9071 432.18,-19.7511 423.487,-25.8087 429.162,-29.9071"/>
</g>
</g>
</svg>
