<?xml version="1.0" encoding="UTF-8" standalone="no"?>
<!DOCTYPE svg PUBLIC "-//W3C//DTD SVG 1.1//EN"
 "http://www.w3.org/Graphics/SVG/1.1/DTD/svg11.dtd">
<!-- Generated by graphviz version 2.38.0 (20140413.2041)
 -->
<!-- Title: /home/travis/build/ADVRHumanoids/ROSEndEffector/include/ROSEndEffector/DummyHal.h Pages: 1 -->
<svg width="500pt" height="217pt"
 viewBox="0.00 0.00 500.00 217.00" xmlns="http://www.w3.org/2000/svg" xmlns:xlink="http://www.w3.org/1999/xlink">
<g id="graph0" class="graph" transform="scale(1 1) rotate(0) translate(4 213)">
<title>/home/travis/build/ADVRHumanoids/ROSEndEffector/include/ROSEndEffector/DummyHal.h</title>
<!-- Node1 -->
<g id="node1" class="node"><title>Node1</title>
<polygon fill="#bfbfbf" stroke="black" points="201,-167.5 201,-208.5 398,-208.5 398,-167.5 201,-167.5"/>
<text text-anchor="start" x="209" y="-196.5" font-family="Helvetica,sans-Serif" font-size="10.00">/home/travis/build</text>
<text text-anchor="start" x="209" y="-185.5" font-family="Helvetica,sans-Serif" font-size="10.00">/ADVRHumanoids/ROSEndEffector</text>
<text text-anchor="middle" x="299.5" y="-174.5" font-family="Helvetica,sans-Serif" font-size="10.00">/include/ROSEndEffector/DummyHal.h</text>
</g>
<!-- Node2 -->
<g id="node2" class="node"><title>Node2</title>
<g id="a_node2"><a xlink:href="UniversalRosEndEffectorExecutor_8h.html" target="_top" xlink:title="/home/travis/build\l/ADVRHumanoids/ROSEndEffector\l/include/ROSEndEffector/UniversalRos\lEndEffectorExecutor.h">
<polygon fill="none" stroke="black" points="98.5,-78.5 98.5,-130.5 294.5,-130.5 294.5,-78.5 98.5,-78.5"/>
<text text-anchor="start" x="106.5" y="-118.5" font-family="Helvetica,sans-Serif" font-size="10.00">/home/travis/build</text>
<text text-anchor="start" x="106.5" y="-107.5" font-family="Helvetica,sans-Serif" font-size="10.00">/ADVRHumanoids/ROSEndEffector</text>
<text text-anchor="start" x="106.5" y="-96.5" font-family="Helvetica,sans-Serif" font-size="10.00">/include/ROSEndEffector/UniversalRos</text>
<text text-anchor="middle" x="196.5" y="-85.5" font-family="Helvetica,sans-Serif" font-size="10.00">EndEffectorExecutor.h</text>
</a>
</g>
</g>
<!-- Node1&#45;&gt;Node2 -->
<g id="edge1" class="edge"><title>Node1&#45;&gt;Node2</title>
<path fill="none" stroke="midnightblue" d="M266.653,-161.01C254.41,-151.322 240.539,-140.347 228.383,-130.728"/>
<polygon fill="midnightblue" stroke="midnightblue" points="264.815,-164.018 274.829,-167.479 269.159,-158.529 264.815,-164.018"/>
</g>
<!-- Node5 -->
<g id="node5" class="node"><title>Node5</title>
<g id="a_node5"><a xlink:href="DummyHal_8cpp.html" target="_top" xlink:title="/home/travis/build\l/ADVRHumanoids/ROSEndEffector\l/src/DummyHal.cpp">
<polygon fill="none" stroke="black" points="313,-84 313,-125 492,-125 492,-84 313,-84"/>
<text text-anchor="start" x="321" y="-113" font-family="Helvetica,sans-Serif" font-size="10.00">/home/travis/build</text>
<text text-anchor="start" x="321" y="-102" font-family="Helvetica,sans-Serif" font-size="10.00">/ADVRHumanoids/ROSEndEffector</text>
<text text-anchor="middle" x="402.5" y="-91" font-family="Helvetica,sans-Serif" font-size="10.00">/src/DummyHal.cpp</text>
</a>
</g>
</g>
<!-- Node1&#45;&gt;Node5 -->
<g id="edge4" class="edge"><title>Node1&#45;&gt;Node5</title>
<path fill="none" stroke="midnightblue" d="M332.081,-161.22C346.832,-149.548 363.988,-135.973 377.673,-125.144"/>
<polygon fill="midnightblue" stroke="midnightblue" points="329.841,-158.529 324.171,-167.479 334.185,-164.018 329.841,-158.529"/>
</g>
<!-- Node3 -->
<g id="node3" class="node"><title>Node3</title>
<g id="a_node3"><a xlink:href="UniversalRosEndEffector_8cpp.html" target="_top" xlink:title="/home/travis/build\l/ADVRHumanoids/ROSEndEffector\l/src/UniversalRosEndEffector.cpp">
<polygon fill="none" stroke="black" points="0,-0.5 0,-41.5 179,-41.5 179,-0.5 0,-0.5"/>
<text text-anchor="start" x="8" y="-29.5" font-family="Helvetica,sans-Serif" font-size="10.00">/home/travis/build</text>
<text text-anchor="start" x="8" y="-18.5" font-family="Helvetica,sans-Serif" font-size="10.00">/ADVRHumanoids/ROSEndEffector</text>
<text text-anchor="middle" x="89.5" y="-7.5" font-family="Helvetica,sans-Serif" font-size="10.00">/src/UniversalRosEndEffector.cpp</text>
</a>
</g>
</g>
<!-- Node2&#45;&gt;Node3 -->
<g id="edge2" class="edge"><title>Node2&#45;&gt;Node3</title>
<path fill="none" stroke="midnightblue" d="M155.338,-72.1475C141.912,-61.921 127.389,-50.8594 115.408,-41.7338"/>
<polygon fill="midnightblue" stroke="midnightblue" points="153.447,-75.1073 163.523,-78.3823 157.689,-69.5386 153.447,-75.1073"/>
</g>
<!-- Node4 -->
<g id="node4" class="node"><title>Node4</title>
<g id="a_node4"><a xlink:href="UniversalRosEndEffectorExecutor_8cpp.html" target="_top" xlink:title="/home/travis/build\l/ADVRHumanoids/ROSEndEffector\l/src/UniversalRosEndEffectorExecutor.cpp">
<polygon fill="none" stroke="black" points="197,-0.5 197,-41.5 412,-41.5 412,-0.5 197,-0.5"/>
<text text-anchor="start" x="205" y="-29.5" font-family="Helvetica,sans-Serif" font-size="10.00">/home/travis/build</text>
<text text-anchor="start" x="205" y="-18.5" font-family="Helvetica,sans-Serif" font-size="10.00">/ADVRHumanoids/ROSEndEffector</text>
<text text-anchor="middle" x="304.5" y="-7.5" font-family="Helvetica,sans-Serif" font-size="10.00">/src/UniversalRosEndEffectorExecutor.cpp</text>
</a>
</g>
</g>
<!-- Node2&#45;&gt;Node4 -->
<g id="edge3" class="edge"><title>Node2&#45;&gt;Node4</title>
<path fill="none" stroke="midnightblue" d="M238.047,-72.1475C251.599,-61.921 266.257,-50.8594 278.35,-41.7338"/>
<polygon fill="midnightblue" stroke="midnightblue" points="235.659,-69.5648 229.785,-78.3823 239.875,-75.1524 235.659,-69.5648"/>
</g>
</g>
</svg>
