<?xml version="1.0" encoding="UTF-8" standalone="no"?>
<!DOCTYPE svg PUBLIC "-//W3C//DTD SVG 1.1//EN"
 "http://www.w3.org/Graphics/SVG/1.1/DTD/svg11.dtd">
<!-- Generated by graphviz version 2.38.0 (20140413.2041)
 -->
<!-- Title: /home/travis/build/ADVRHumanoids/ROSEndEffector/include/ros_end_effector/HAL/EEHal.h Pages: 1 -->
<svg width="1470pt" height="173pt"
 viewBox="0.00 0.00 1469.50 173.00" xmlns="http://www.w3.org/2000/svg" xmlns:xlink="http://www.w3.org/1999/xlink">
<g id="graph0" class="graph" transform="scale(1 1) rotate(0) translate(4 169)">
<title>/home/travis/build/ADVRHumanoids/ROSEndEffector/include/ros_end_effector/HAL/EEHal.h</title>
<!-- Node1 -->
<g id="node1" class="node"><title>Node1</title>
<polygon fill="#bfbfbf" stroke="black" points="479,-112.5 479,-164.5 658,-164.5 658,-112.5 479,-112.5"/>
<text text-anchor="start" x="487" y="-152.5" font-family="Helvetica,sans-Serif" font-size="10.00">/home/travis/build</text>
<text text-anchor="start" x="487" y="-141.5" font-family="Helvetica,sans-Serif" font-size="10.00">/ADVRHumanoids/ROSEndEffector</text>
<text text-anchor="start" x="487" y="-130.5" font-family="Helvetica,sans-Serif" font-size="10.00">/include/ros_end_effector</text>
<text text-anchor="middle" x="568.5" y="-119.5" font-family="Helvetica,sans-Serif" font-size="10.00">/HAL/EEHal.h</text>
</g>
<!-- Node2 -->
<g id="node2" class="node"><title>Node2</title>
<polygon fill="none" stroke="#bfbfbf" points="0,-56.5 0,-75.5 59,-75.5 59,-56.5 0,-56.5"/>
<text text-anchor="middle" x="29.5" y="-63.5" font-family="Helvetica,sans-Serif" font-size="10.00">ros/ros.h</text>
</g>
<!-- Node1&#45;&gt;Node2 -->
<g id="edge1" class="edge"><title>Node1&#45;&gt;Node2</title>
<path fill="none" stroke="midnightblue" d="M478.911,-129.513C380.588,-120.066 217.978,-102.44 69.516,-76.2094"/>
<polygon fill="midnightblue" stroke="midnightblue" points="69.765,-72.6986 59.3057,-74.3877 68.5354,-79.5898 69.765,-72.6986"/>
</g>
<!-- Node3 -->
<g id="node3" class="node"><title>Node3</title>
<polygon fill="none" stroke="#bfbfbf" points="77,-56.5 77,-75.5 216,-75.5 216,-56.5 77,-56.5"/>
<text text-anchor="middle" x="146.5" y="-63.5" font-family="Helvetica,sans-Serif" font-size="10.00">sensor_msgs/JointState.h</text>
</g>
<!-- Node1&#45;&gt;Node3 -->
<g id="edge2" class="edge"><title>Node1&#45;&gt;Node3</title>
<path fill="none" stroke="midnightblue" d="M478.746,-122.506C397.093,-108.864 278.771,-89.0975 207.57,-77.2025"/>
<polygon fill="midnightblue" stroke="midnightblue" points="207.857,-73.702 197.417,-75.5063 206.704,-80.6063 207.857,-73.702"/>
</g>
<!-- Node4 -->
<g id="node4" class="node"><title>Node4</title>
<polygon fill="none" stroke="#bfbfbf" points="234.5,-56.5 234.5,-75.5 278.5,-75.5 278.5,-56.5 234.5,-56.5"/>
<text text-anchor="middle" x="256.5" y="-63.5" font-family="Helvetica,sans-Serif" font-size="10.00">string</text>
</g>
<!-- Node1&#45;&gt;Node4 -->
<g id="edge3" class="edge"><title>Node1&#45;&gt;Node4</title>
<path fill="none" stroke="midnightblue" d="M478.975,-119.217C426.336,-108.14 358.303,-93.2643 288.67,-75.9231"/>
<polygon fill="midnightblue" stroke="midnightblue" points="289.386,-72.4944 278.836,-73.46 287.686,-79.2847 289.386,-72.4944"/>
</g>
<!-- Node5 -->
<g id="node5" class="node"><title>Node5</title>
<polygon fill="none" stroke="#bfbfbf" points="297,-56.5 297,-75.5 344,-75.5 344,-56.5 297,-56.5"/>
<text text-anchor="middle" x="320.5" y="-63.5" font-family="Helvetica,sans-Serif" font-size="10.00">vector</text>
</g>
<!-- Node1&#45;&gt;Node5 -->
<g id="edge4" class="edge"><title>Node1&#45;&gt;Node5</title>
<path fill="none" stroke="midnightblue" d="M480.366,-112.446C436.522,-99.9821 386.133,-85.6577 353.837,-76.4768"/>
<polygon fill="midnightblue" stroke="midnightblue" points="354.594,-73.0534 344.018,-73.6856 352.68,-79.7867 354.594,-73.0534"/>
</g>
<!-- Node6 -->
<g id="node6" class="node"><title>Node6</title>
<polygon fill="none" stroke="#bfbfbf" points="134,-0.5 134,-19.5 191,-19.5 191,-0.5 134,-0.5"/>
<text text-anchor="middle" x="162.5" y="-7.5" font-family="Helvetica,sans-Serif" font-size="10.00">memory</text>
</g>
<!-- Node1&#45;&gt;Node6 -->
<g id="edge5" class="edge"><title>Node1&#45;&gt;Node6</title>
<path fill="none" stroke="midnightblue" d="M481.806,-112.491C451.127,-102.527 416.741,-90.0661 386.5,-76 370.95,-68.7671 369.375,-62.4881 353.5,-56 291.74,-30.7591 270.406,-35.5343 201.222,-20.1029"/>
<polygon fill="midnightblue" stroke="midnightblue" points="201.662,-16.6131 191.133,-17.7862 200.096,-23.4356 201.662,-16.6131"/>
</g>
<!-- Node7 -->
<g id="node7" class="node"><title>Node7</title>
<polygon fill="none" stroke="#bfbfbf" points="587,-56.5 587,-75.5 680,-75.5 680,-56.5 587,-56.5"/>
<text text-anchor="middle" x="633.5" y="-63.5" font-family="Helvetica,sans-Serif" font-size="10.00">unordered_map</text>
</g>
<!-- Node1&#45;&gt;Node7 -->
<g id="edge6" class="edge"><title>Node1&#45;&gt;Node7</title>
<path fill="none" stroke="midnightblue" d="M591.6,-112.446C600.559,-102.728 610.561,-91.8797 618.546,-83.2196"/>
<polygon fill="midnightblue" stroke="midnightblue" points="621.278,-85.42 625.483,-75.6955 616.131,-80.6751 621.278,-85.42"/>
</g>
<!-- Node8 -->
<g id="node8" class="node"><title>Node8</title>
<polygon fill="none" stroke="#bfbfbf" points="209.5,-0.5 209.5,-19.5 263.5,-19.5 263.5,-0.5 209.5,-0.5"/>
<text text-anchor="middle" x="236.5" y="-7.5" font-family="Helvetica,sans-Serif" font-size="10.00">fstream</text>
</g>
<!-- Node1&#45;&gt;Node8 -->
<g id="edge7" class="edge"><title>Node1&#45;&gt;Node8</title>
<path fill="none" stroke="midnightblue" d="M511.246,-112.457C486.116,-101.391 456.294,-88.1573 429.5,-76 410.306,-67.2911 406.201,-63.4921 386.5,-56 348.714,-41.63 304.218,-28.7718 273.555,-20.517"/>
<polygon fill="midnightblue" stroke="midnightblue" points="274.279,-17.0882 263.716,-17.8986 272.479,-23.8527 274.279,-17.0882"/>
</g>
<!-- Node9 -->
<g id="node9" class="node"><title>Node9</title>
<polygon fill="none" stroke="#bfbfbf" points="937,-0.5 937,-19.5 1014,-19.5 1014,-0.5 937,-0.5"/>
<text text-anchor="middle" x="975.5" y="-7.5" font-family="Helvetica,sans-Serif" font-size="10.00">Eigen/Dense</text>
</g>
<!-- Node1&#45;&gt;Node9 -->
<g id="edge8" class="edge"><title>Node1&#45;&gt;Node9</title>
<path fill="none" stroke="midnightblue" d="M658.062,-126.451C717.66,-117.268 796.932,-101.49 863.5,-76 881.608,-69.066 926.166,-41.9638 953.306,-25.0215"/>
<polygon fill="midnightblue" stroke="midnightblue" points="955.166,-27.9866 961.779,-19.7092 951.447,-22.0558 955.166,-27.9866"/>
</g>
<!-- Node10 -->
<g id="node10" class="node"><title>Node10</title>
<polygon fill="none" stroke="#bfbfbf" points="1041.5,-0.5 1041.5,-19.5 1137.5,-19.5 1137.5,-0.5 1041.5,-0.5"/>
<text text-anchor="middle" x="1089.5" y="-7.5" font-family="Helvetica,sans-Serif" font-size="10.00">yaml&#45;cpp/yaml.h</text>
</g>
<!-- Node1&#45;&gt;Node10 -->
<g id="edge9" class="edge"><title>Node1&#45;&gt;Node10</title>
<path fill="none" stroke="midnightblue" d="M658.266,-132.221C795.621,-123.316 1045.31,-103.548 1075.5,-76 1088.14,-64.4672 1090.84,-44.4998 1090.87,-29.7307"/>
<polygon fill="midnightblue" stroke="midnightblue" points="1094.36,-29.538 1090.49,-19.6757 1087.37,-29.7996 1094.36,-29.538"/>
</g>
<!-- Node11 -->
<g id="node11" class="node"><title>Node11</title>
<g id="a_node11"><a xlink:href="Utils_8h.html" target="_top" xlink:title="ros_end_effector/Utils.h">
<polygon fill="none" stroke="black" points="438.5,-56.5 438.5,-75.5 568.5,-75.5 568.5,-56.5 438.5,-56.5"/>
<text text-anchor="middle" x="503.5" y="-63.5" font-family="Helvetica,sans-Serif" font-size="10.00">ros_end_effector/Utils.h</text>
</a>
</g>
</g>
<!-- Node1&#45;&gt;Node11 -->
<g id="edge10" class="edge"><title>Node1&#45;&gt;Node11</title>
<path fill="none" stroke="midnightblue" d="M545.4,-112.446C536.441,-102.728 526.439,-91.8797 518.454,-83.2196"/>
<polygon fill="midnightblue" stroke="midnightblue" points="520.869,-80.6751 511.517,-75.6955 515.722,-85.42 520.869,-80.6751"/>
</g>
<!-- Node18 -->
<g id="node18" class="node"><title>Node18</title>
<g id="a_node18"><a xlink:href="UtilsEigen_8h.html" target="_top" xlink:title="ros_end_effector/UtilsEigen.h">
<polygon fill="none" stroke="black" points="698.5,-56.5 698.5,-75.5 854.5,-75.5 854.5,-56.5 698.5,-56.5"/>
<text text-anchor="middle" x="776.5" y="-63.5" font-family="Helvetica,sans-Serif" font-size="10.00">ros_end_effector/UtilsEigen.h</text>
</a>
</g>
</g>
<!-- Node1&#45;&gt;Node18 -->
<g id="edge19" class="edge"><title>Node1&#45;&gt;Node18</title>
<path fill="none" stroke="midnightblue" d="M642.419,-112.446C676.173,-101.005 714.553,-87.9966 741.575,-78.8375"/>
<polygon fill="midnightblue" stroke="midnightblue" points="742.995,-82.0519 751.342,-75.527 740.748,-75.4223 742.995,-82.0519"/>
</g>
<!-- Node20 -->
<g id="node20" class="node"><title>Node20</title>
<g id="a_node20"><a xlink:href="UtilsYAML_8h.html" target="_top" xlink:title="ros_end_effector/UtilsYAML.h">
<polygon fill="none" stroke="black" points="911,-56.5 911,-75.5 1066,-75.5 1066,-56.5 911,-56.5"/>
<text text-anchor="middle" x="988.5" y="-63.5" font-family="Helvetica,sans-Serif" font-size="10.00">ros_end_effector/UtilsYAML.h</text>
</a>
</g>
</g>
<!-- Node1&#45;&gt;Node20 -->
<g id="edge22" class="edge"><title>Node1&#45;&gt;Node20</title>
<path fill="none" stroke="midnightblue" d="M658.085,-122.462C739.257,-108.837 856.683,-89.1265 927.495,-77.2401"/>
<polygon fill="midnightblue" stroke="midnightblue" points="928.313,-80.6519 937.595,-75.5447 927.154,-73.7485 928.313,-80.6519"/>
</g>
<!-- Node21 -->
<g id="node21" class="node"><title>Node21</title>
<polygon fill="none" stroke="#bfbfbf" points="1123,-56.5 1123,-75.5 1248,-75.5 1248,-56.5 1123,-56.5"/>
<text text-anchor="middle" x="1185.5" y="-63.5" font-family="Helvetica,sans-Serif" font-size="10.00">rosee_msg/HandInfo.h</text>
</g>
<!-- Node1&#45;&gt;Node21 -->
<g id="edge25" class="edge"><title>Node1&#45;&gt;Node21</title>
<path fill="none" stroke="midnightblue" d="M658.324,-127.352C765.495,-115.226 950.089,-94.2783 1108.5,-76 1109.96,-75.8313 1111.44,-75.6605 1112.93,-75.4882"/>
<polygon fill="midnightblue" stroke="midnightblue" points="1113.36,-78.9623 1122.89,-74.3341 1112.55,-72.0089 1113.36,-78.9623"/>
</g>
<!-- Node22 -->
<g id="node22" class="node"><title>Node22</title>
<polygon fill="none" stroke="#bfbfbf" points="1265.5,-56.5 1265.5,-75.5 1461.5,-75.5 1461.5,-56.5 1265.5,-56.5"/>
<text text-anchor="middle" x="1363.5" y="-63.5" font-family="Helvetica,sans-Serif" font-size="10.00">rosee_msg/MotorPhalangePressure.h</text>
</g>
<!-- Node1&#45;&gt;Node22 -->
<g id="edge26" class="edge"><title>Node1&#45;&gt;Node22</title>
<path fill="none" stroke="midnightblue" d="M658.151,-129.55C805.769,-116.459 1099.33,-90.4261 1257.19,-76.4277"/>
<polygon fill="midnightblue" stroke="midnightblue" points="1257.73,-79.893 1267.39,-75.5233 1257.12,-72.9204 1257.73,-79.893"/>
</g>
<!-- Node11&#45;&gt;Node6 -->
<g id="edge12" class="edge"><title>Node11&#45;&gt;Node6</title>
<path fill="none" stroke="midnightblue" d="M438.212,-56.9373C378.887,-49.2394 288.769,-36.621 200.943,-19.9371"/>
<polygon fill="midnightblue" stroke="midnightblue" points="201.558,-16.4913 191.078,-18.0437 200.239,-23.3658 201.558,-16.4913"/>
</g>
<!-- Node11&#45;&gt;Node8 -->
<g id="edge16" class="edge"><title>Node11&#45;&gt;Node8</title>
<path fill="none" stroke="midnightblue" d="M455.567,-56.4225C410.936,-48.2654 342.325,-35.2929 273.711,-20.1798"/>
<polygon fill="midnightblue" stroke="midnightblue" points="274.111,-16.6836 263.591,-17.9348 272.595,-23.5174 274.111,-16.6836"/>
</g>
<!-- Node12 -->
<g id="node12" class="node"><title>Node12</title>
<polygon fill="none" stroke="#bfbfbf" points="552,-0.5 552,-19.5 599,-19.5 599,-0.5 552,-0.5"/>
<text text-anchor="middle" x="575.5" y="-7.5" font-family="Helvetica,sans-Serif" font-size="10.00">cmath</text>
</g>
<!-- Node11&#45;&gt;Node12 -->
<g id="edge11" class="edge"><title>Node11&#45;&gt;Node12</title>
<path fill="none" stroke="midnightblue" d="M515.068,-56.324C525.92,-48.1849 542.381,-35.8395 555.383,-26.0874"/>
<polygon fill="midnightblue" stroke="midnightblue" points="557.821,-28.6339 563.721,-19.8339 553.621,-23.0339 557.821,-28.6339"/>
</g>
<!-- Node13 -->
<g id="node13" class="node"><title>Node13</title>
<polygon fill="none" stroke="#bfbfbf" points="617,-0.5 617,-19.5 676,-19.5 676,-0.5 617,-0.5"/>
<text text-anchor="middle" x="646.5" y="-7.5" font-family="Helvetica,sans-Serif" font-size="10.00">iostream</text>
</g>
<!-- Node11&#45;&gt;Node13 -->
<g id="edge13" class="edge"><title>Node11&#45;&gt;Node13</title>
<path fill="none" stroke="midnightblue" d="M526.159,-56.4435C549.902,-47.4776 587.409,-33.314 614.238,-23.1827"/>
<polygon fill="midnightblue" stroke="midnightblue" points="615.829,-26.3235 623.947,-19.5164 613.356,-19.7749 615.829,-26.3235"/>
</g>
<!-- Node14 -->
<g id="node14" class="node"><title>Node14</title>
<polygon fill="none" stroke="#bfbfbf" points="694.5,-0.5 694.5,-19.5 742.5,-19.5 742.5,-0.5 694.5,-0.5"/>
<text text-anchor="middle" x="718.5" y="-7.5" font-family="Helvetica,sans-Serif" font-size="10.00">dlfcn.h</text>
</g>
<!-- Node11&#45;&gt;Node14 -->
<g id="edge14" class="edge"><title>Node11&#45;&gt;Node14</title>
<path fill="none" stroke="midnightblue" d="M539.135,-56.4552C573.864,-48.0688 628.405,-34.7425 684.601,-20.1902"/>
<polygon fill="midnightblue" stroke="midnightblue" points="685.569,-23.5551 694.367,-17.653 683.808,-16.78 685.569,-23.5551"/>
</g>
<!-- Node15 -->
<g id="node15" class="node"><title>Node15</title>
<polygon fill="none" stroke="#bfbfbf" points="281.5,-0.5 281.5,-19.5 397.5,-19.5 397.5,-0.5 281.5,-0.5"/>
<text text-anchor="middle" x="339.5" y="-7.5" font-family="Helvetica,sans-Serif" font-size="10.00">boost/filesystem.hpp</text>
</g>
<!-- Node11&#45;&gt;Node15 -->
<g id="edge15" class="edge"><title>Node11&#45;&gt;Node15</title>
<path fill="none" stroke="midnightblue" d="M477.514,-56.4435C449.804,-47.3196 405.748,-32.8133 374.884,-22.6509"/>
<polygon fill="midnightblue" stroke="midnightblue" points="375.958,-19.3196 365.365,-19.5164 373.768,-25.9684 375.958,-19.3196"/>
</g>
<!-- Node16 -->
<g id="node16" class="node"><title>Node16</title>
<polygon fill="none" stroke="#bfbfbf" points="415.5,-0.5 415.5,-19.5 465.5,-19.5 465.5,-0.5 415.5,-0.5"/>
<text text-anchor="middle" x="440.5" y="-7.5" font-family="Helvetica,sans-Serif" font-size="10.00">chrono</text>
</g>
<!-- Node11&#45;&gt;Node16 -->
<g id="edge17" class="edge"><title>Node11&#45;&gt;Node16</title>
<path fill="none" stroke="midnightblue" d="M493.378,-56.324C483.974,-48.2631 469.756,-36.0765 458.431,-26.3695"/>
<polygon fill="midnightblue" stroke="midnightblue" points="460.677,-23.6844 450.806,-19.8339 456.121,-28.9993 460.677,-23.6844"/>
</g>
<!-- Node17 -->
<g id="node17" class="node"><title>Node17</title>
<polygon fill="none" stroke="#bfbfbf" points="483.5,-0.5 483.5,-19.5 533.5,-19.5 533.5,-0.5 483.5,-0.5"/>
<text text-anchor="middle" x="508.5" y="-7.5" font-family="Helvetica,sans-Serif" font-size="10.00">atomic</text>
</g>
<!-- Node11&#45;&gt;Node17 -->
<g id="edge18" class="edge"><title>Node11&#45;&gt;Node17</title>
<path fill="none" stroke="midnightblue" d="M504.326,-56.083C504.981,-49.0059 505.92,-38.8611 506.742,-29.9865"/>
<polygon fill="midnightblue" stroke="midnightblue" points="510.253,-30.0312 507.69,-19.7511 503.283,-29.3858 510.253,-30.0312"/>
</g>
<!-- Node18&#45;&gt;Node9 -->
<g id="edge20" class="edge"><title>Node18&#45;&gt;Node9</title>
<path fill="none" stroke="midnightblue" d="M808.032,-56.4435C842.092,-47.2011 896.506,-32.4356 934.015,-22.2572"/>
<polygon fill="midnightblue" stroke="midnightblue" points="935.381,-25.5132 944.115,-19.5164 933.548,-18.7575 935.381,-25.5132"/>
</g>
<!-- Node19 -->
<g id="node19" class="node"><title>Node19</title>
<polygon fill="none" stroke="#bfbfbf" points="760.5,-0.5 760.5,-19.5 918.5,-19.5 918.5,-0.5 760.5,-0.5"/>
<text text-anchor="middle" x="839.5" y="-7.5" font-family="Helvetica,sans-Serif" font-size="10.00">std_msgs/Float32MultiArray.h</text>
</g>
<!-- Node18&#45;&gt;Node19 -->
<g id="edge21" class="edge"><title>Node18&#45;&gt;Node19</title>
<path fill="none" stroke="midnightblue" d="M786.622,-56.324C796.026,-48.2631 810.244,-36.0765 821.569,-26.3695"/>
<polygon fill="midnightblue" stroke="midnightblue" points="823.879,-28.9993 829.194,-19.8339 819.323,-23.6844 823.879,-28.9993"/>
</g>
<!-- Node20&#45;&gt;Node9 -->
<g id="edge24" class="edge"><title>Node20&#45;&gt;Node9</title>
<path fill="none" stroke="midnightblue" d="M986.353,-56.083C984.631,-48.9272 982.153,-38.6353 980,-29.6911"/>
<polygon fill="midnightblue" stroke="midnightblue" points="983.35,-28.6541 977.607,-19.7511 976.545,-30.2925 983.35,-28.6541"/>
</g>
<!-- Node20&#45;&gt;Node10 -->
<g id="edge23" class="edge"><title>Node20&#45;&gt;Node10</title>
<path fill="none" stroke="midnightblue" d="M1004.73,-56.324C1020.85,-47.7034 1045.8,-34.3643 1064.46,-24.3855"/>
<polygon fill="midnightblue" stroke="midnightblue" points="1066.14,-27.456 1073.31,-19.6545 1062.84,-21.283 1066.14,-27.456"/>
</g>
</g>
</svg>
