<?xml version="1.0" encoding="UTF-8" standalone="no"?>
<!DOCTYPE svg PUBLIC "-//W3C//DTD SVG 1.1//EN"
 "http://www.w3.org/Graphics/SVG/1.1/DTD/svg11.dtd">
<!-- Generated by graphviz version 2.38.0 (20140413.2041)
 -->
<!-- Title: /home/travis/build/ADVRHumanoids/ROSEndEffector/src/HAL/EEHalExecutor.cpp Pages: 1 -->
<svg width="1515pt" height="218pt"
 viewBox="0.00 0.00 1514.50 218.00" xmlns="http://www.w3.org/2000/svg" xmlns:xlink="http://www.w3.org/1999/xlink">
<g id="graph0" class="graph" transform="scale(1 1) rotate(0) translate(4 214)">
<title>/home/travis/build/ADVRHumanoids/ROSEndEffector/src/HAL/EEHalExecutor.cpp</title>
<!-- Node1 -->
<g id="node1" class="node"><title>Node1</title>
<polygon fill="#bfbfbf" stroke="black" points="62,-168.5 62,-209.5 241,-209.5 241,-168.5 62,-168.5"/>
<text text-anchor="start" x="70" y="-197.5" font-family="Helvetica,sans-Serif" font-size="10.00">/home/travis/build</text>
<text text-anchor="start" x="70" y="-186.5" font-family="Helvetica,sans-Serif" font-size="10.00">/ADVRHumanoids/ROSEndEffector</text>
<text text-anchor="middle" x="151.5" y="-175.5" font-family="Helvetica,sans-Serif" font-size="10.00">/src/HAL/EEHalExecutor.cpp</text>
</g>
<!-- Node2 -->
<g id="node2" class="node"><title>Node2</title>
<polygon fill="none" stroke="#bfbfbf" points="0,-56.5 0,-75.5 47,-75.5 47,-56.5 0,-56.5"/>
<text text-anchor="middle" x="23.5" y="-63.5" font-family="Helvetica,sans-Serif" font-size="10.00">vector</text>
</g>
<!-- Node1&#45;&gt;Node2 -->
<g id="edge1" class="edge"><title>Node1&#45;&gt;Node2</title>
<path fill="none" stroke="midnightblue" d="M130.65,-168.29C105.302,-144.329 63.0516,-104.389 39.9031,-82.5061"/>
<polygon fill="midnightblue" stroke="midnightblue" points="42.2422,-79.9009 32.5709,-75.5748 37.4335,-84.9879 42.2422,-79.9009"/>
</g>
<!-- Node3 -->
<g id="node3" class="node"><title>Node3</title>
<polygon fill="none" stroke="#bfbfbf" points="65,-56.5 65,-75.5 158,-75.5 158,-56.5 65,-56.5"/>
<text text-anchor="middle" x="111.5" y="-63.5" font-family="Helvetica,sans-Serif" font-size="10.00">unordered_map</text>
</g>
<!-- Node1&#45;&gt;Node3 -->
<g id="edge2" class="edge"><title>Node1&#45;&gt;Node3</title>
<path fill="none" stroke="midnightblue" d="M144.984,-168.29C137.374,-145.27 124.89,-107.503 117.506,-85.1677"/>
<polygon fill="midnightblue" stroke="midnightblue" points="120.797,-83.9709 114.335,-75.5748 114.15,-86.168 120.797,-83.9709"/>
</g>
<!-- Node4 -->
<g id="node4" class="node"><title>Node4</title>
<polygon fill="none" stroke="#bfbfbf" points="176,-56.5 176,-75.5 235,-75.5 235,-56.5 176,-56.5"/>
<text text-anchor="middle" x="205.5" y="-63.5" font-family="Helvetica,sans-Serif" font-size="10.00">ros/ros.h</text>
</g>
<!-- Node1&#45;&gt;Node4 -->
<g id="edge3" class="edge"><title>Node1&#45;&gt;Node4</title>
<path fill="none" stroke="midnightblue" d="M160.296,-168.29C170.616,-145.166 187.577,-107.16 197.528,-84.8641"/>
<polygon fill="midnightblue" stroke="midnightblue" points="200.794,-86.1331 201.673,-75.5748 194.402,-83.2803 200.794,-86.1331"/>
</g>
<!-- Node5 -->
<g id="node5" class="node"><title>Node5</title>
<g id="a_node5"><a xlink:href="EEHal_8h.html" target="_top" xlink:title="end_effector/HAL/EEHal.h">
<polygon fill="none" stroke="black" points="720,-112.5 720,-131.5 859,-131.5 859,-112.5 720,-112.5"/>
<text text-anchor="middle" x="789.5" y="-119.5" font-family="Helvetica,sans-Serif" font-size="10.00">end_effector/HAL/EEHal.h</text>
</a>
</g>
</g>
<!-- Node1&#45;&gt;Node5 -->
<g id="edge4" class="edge"><title>Node1&#45;&gt;Node5</title>
<path fill="none" stroke="midnightblue" d="M241.22,-178.859C366.114,-166.135 590.433,-143.281 709.76,-131.124"/>
<polygon fill="midnightblue" stroke="midnightblue" points="710.327,-134.584 719.92,-130.089 709.617,-127.62 710.327,-134.584"/>
</g>
<!-- Node5&#45;&gt;Node2 -->
<g id="edge8" class="edge"><title>Node5&#45;&gt;Node2</title>
<path fill="none" stroke="midnightblue" d="M719.873,-121.641C590.566,-121.762 304.696,-117.016 57.0425,-75.9203"/>
<polygon fill="midnightblue" stroke="midnightblue" points="57.5798,-72.4616 47.1377,-74.2537 56.4183,-79.3646 57.5798,-72.4616"/>
</g>
<!-- Node5&#45;&gt;Node3 -->
<g id="edge10" class="edge"><title>Node5&#45;&gt;Node3</title>
<path fill="none" stroke="midnightblue" d="M719.699,-118.013C606.146,-112.7 374.179,-99.9632 168.358,-76.1271"/>
<polygon fill="midnightblue" stroke="midnightblue" points="168.606,-72.6323 158.267,-74.947 167.793,-79.585 168.606,-72.6323"/>
</g>
<!-- Node5&#45;&gt;Node4 -->
<g id="edge5" class="edge"><title>Node5&#45;&gt;Node4</title>
<path fill="none" stroke="midnightblue" d="M719.865,-118.47C617.801,-114.05 421.513,-102.849 245.202,-75.8722"/>
<polygon fill="midnightblue" stroke="midnightblue" points="245.643,-72.3988 235.224,-74.3252 244.57,-79.3161 245.643,-72.3988"/>
</g>
<!-- Node6 -->
<g id="node6" class="node"><title>Node6</title>
<polygon fill="none" stroke="#bfbfbf" points="610,-56.5 610,-75.5 749,-75.5 749,-56.5 610,-56.5"/>
<text text-anchor="middle" x="679.5" y="-63.5" font-family="Helvetica,sans-Serif" font-size="10.00">sensor_msgs/JointState.h</text>
</g>
<!-- Node5&#45;&gt;Node6 -->
<g id="edge6" class="edge"><title>Node5&#45;&gt;Node6</title>
<path fill="none" stroke="midnightblue" d="M771.827,-112.324C754.106,-103.625 726.597,-90.1202 706.212,-80.113"/>
<polygon fill="midnightblue" stroke="midnightblue" points="707.649,-76.9195 697.13,-75.6545 704.564,-83.2031 707.649,-76.9195"/>
</g>
<!-- Node7 -->
<g id="node7" class="node"><title>Node7</title>
<polygon fill="none" stroke="#bfbfbf" points="767.5,-56.5 767.5,-75.5 811.5,-75.5 811.5,-56.5 767.5,-56.5"/>
<text text-anchor="middle" x="789.5" y="-63.5" font-family="Helvetica,sans-Serif" font-size="10.00">string</text>
</g>
<!-- Node5&#45;&gt;Node7 -->
<g id="edge7" class="edge"><title>Node5&#45;&gt;Node7</title>
<path fill="none" stroke="midnightblue" d="M789.5,-112.083C789.5,-105.006 789.5,-94.8611 789.5,-85.9865"/>
<polygon fill="midnightblue" stroke="midnightblue" points="793,-85.751 789.5,-75.7511 786,-85.7511 793,-85.751"/>
</g>
<!-- Node8 -->
<g id="node8" class="node"><title>Node8</title>
<polygon fill="none" stroke="#bfbfbf" points="1063,-0.5 1063,-19.5 1120,-19.5 1120,-0.5 1063,-0.5"/>
<text text-anchor="middle" x="1091.5" y="-7.5" font-family="Helvetica,sans-Serif" font-size="10.00">memory</text>
</g>
<!-- Node5&#45;&gt;Node8 -->
<g id="edge9" class="edge"><title>Node5&#45;&gt;Node8</title>
<path fill="none" stroke="midnightblue" d="M850.122,-112.472C889.909,-105.598 942.523,-94.0482 986.5,-76 1018.64,-62.8114 1052.15,-40.2802 1072.43,-25.5152"/>
<polygon fill="midnightblue" stroke="midnightblue" points="1074.56,-28.2909 1080.52,-19.526 1070.4,-22.6661 1074.56,-28.2909"/>
</g>
<!-- Node9 -->
<g id="node9" class="node"><title>Node9</title>
<polygon fill="none" stroke="#bfbfbf" points="511.5,-0.5 511.5,-19.5 565.5,-19.5 565.5,-0.5 511.5,-0.5"/>
<text text-anchor="middle" x="538.5" y="-7.5" font-family="Helvetica,sans-Serif" font-size="10.00">fstream</text>
</g>
<!-- Node5&#45;&gt;Node9 -->
<g id="edge11" class="edge"><title>Node5&#45;&gt;Node9</title>
<path fill="none" stroke="midnightblue" d="M799.503,-112.162C813.434,-98.8057 835.379,-73.2153 820.5,-56 786.136,-16.2413 643.618,-29.2397 575.448,-19.7259"/>
<polygon fill="midnightblue" stroke="midnightblue" points="576.002,-16.2701 565.562,-18.0726 574.847,-23.1742 576.002,-16.2701"/>
</g>
<!-- Node10 -->
<g id="node10" class="node"><title>Node10</title>
<polygon fill="none" stroke="#bfbfbf" points="1253,-0.5 1253,-19.5 1330,-19.5 1330,-0.5 1253,-0.5"/>
<text text-anchor="middle" x="1291.5" y="-7.5" font-family="Helvetica,sans-Serif" font-size="10.00">Eigen/Dense</text>
</g>
<!-- Node5&#45;&gt;Node10 -->
<g id="edge12" class="edge"><title>Node5&#45;&gt;Node10</title>
<path fill="none" stroke="midnightblue" d="M859.442,-118.097C982.64,-112.432 1228.4,-98.457 1260.5,-76 1275.83,-65.2722 1283.83,-44.8701 1287.83,-29.773"/>
<polygon fill="midnightblue" stroke="midnightblue" points="1291.27,-30.4607 1290.09,-19.9317 1284.44,-28.8978 1291.27,-30.4607"/>
</g>
<!-- Node11 -->
<g id="node11" class="node"><title>Node11</title>
<polygon fill="none" stroke="#bfbfbf" points="1138.5,-0.5 1138.5,-19.5 1234.5,-19.5 1234.5,-0.5 1138.5,-0.5"/>
<text text-anchor="middle" x="1186.5" y="-7.5" font-family="Helvetica,sans-Serif" font-size="10.00">yaml&#45;cpp/yaml.h</text>
</g>
<!-- Node5&#45;&gt;Node11 -->
<g id="edge13" class="edge"><title>Node5&#45;&gt;Node11</title>
<path fill="none" stroke="midnightblue" d="M848.319,-112.454C895.202,-104.937 962.25,-92.5986 1019.5,-76 1069.6,-61.475 1125.7,-38.0963 1158.46,-23.6905"/>
<polygon fill="midnightblue" stroke="midnightblue" points="1160.12,-26.782 1167.84,-19.5275 1157.28,-20.3834 1160.12,-26.782"/>
</g>
<!-- Node12 -->
<g id="node12" class="node"><title>Node12</title>
<g id="a_node12"><a xlink:href="Utils_8h.html" target="_top" xlink:title="end_effector/Utils.h">
<polygon fill="none" stroke="black" points="867.5,-56.5 867.5,-75.5 977.5,-75.5 977.5,-56.5 867.5,-56.5"/>
<text text-anchor="middle" x="922.5" y="-63.5" font-family="Helvetica,sans-Serif" font-size="10.00">end_effector/Utils.h</text>
</a>
</g>
</g>
<!-- Node5&#45;&gt;Node12 -->
<g id="edge14" class="edge"><title>Node5&#45;&gt;Node12</title>
<path fill="none" stroke="midnightblue" d="M810.574,-112.444C832.56,-103.517 867.234,-89.4387 892.164,-79.3168"/>
<polygon fill="midnightblue" stroke="midnightblue" points="893.576,-82.5213 901.524,-75.5164 890.942,-76.0355 893.576,-82.5213"/>
</g>
<!-- Node19 -->
<g id="node19" class="node"><title>Node19</title>
<g id="a_node19"><a xlink:href="UtilsEigen_8h.html" target="_top" xlink:title="end_effector/UtilsEigen.h">
<polygon fill="none" stroke="black" points="1307.5,-56.5 1307.5,-75.5 1443.5,-75.5 1443.5,-56.5 1307.5,-56.5"/>
<text text-anchor="middle" x="1375.5" y="-63.5" font-family="Helvetica,sans-Serif" font-size="10.00">end_effector/UtilsEigen.h</text>
</a>
</g>
</g>
<!-- Node5&#45;&gt;Node19 -->
<g id="edge23" class="edge"><title>Node5&#45;&gt;Node19</title>
<path fill="none" stroke="midnightblue" d="M859.249,-115.222C956.558,-107.059 1138.55,-91.4187 1293.5,-76 1294.78,-75.8724 1296.08,-75.7426 1297.38,-75.611"/>
<polygon fill="midnightblue" stroke="midnightblue" points="1297.91,-79.0751 1307.5,-74.5709 1297.19,-72.1118 1297.91,-79.0751"/>
</g>
<!-- Node21 -->
<g id="node21" class="node"><title>Node21</title>
<g id="a_node21"><a xlink:href="UtilsYAML_8h.html" target="_top" xlink:title="end_effector/UtilsYAML.h">
<polygon fill="none" stroke="black" points="1116,-56.5 1116,-75.5 1251,-75.5 1251,-56.5 1116,-56.5"/>
<text text-anchor="middle" x="1183.5" y="-63.5" font-family="Helvetica,sans-Serif" font-size="10.00">end_effector/UtilsYAML.h</text>
</a>
</g>
</g>
<!-- Node5&#45;&gt;Node21 -->
<g id="edge26" class="edge"><title>Node5&#45;&gt;Node21</title>
<path fill="none" stroke="midnightblue" d="M851.93,-112.444C922.392,-102.786 1036.85,-87.0993 1111.15,-76.9157"/>
<polygon fill="midnightblue" stroke="midnightblue" points="1111.93,-80.342 1121.36,-75.5164 1110.98,-73.4068 1111.93,-80.342"/>
</g>
<!-- Node22 -->
<g id="node22" class="node"><title>Node22</title>
<polygon fill="none" stroke="#bfbfbf" points="253,-56.5 253,-75.5 378,-75.5 378,-56.5 253,-56.5"/>
<text text-anchor="middle" x="315.5" y="-63.5" font-family="Helvetica,sans-Serif" font-size="10.00">rosee_msg/HandInfo.h</text>
</g>
<!-- Node5&#45;&gt;Node22 -->
<g id="edge29" class="edge"><title>Node5&#45;&gt;Node22</title>
<path fill="none" stroke="midnightblue" d="M719.933,-113.55C641.774,-105.108 510.821,-90.749 388.507,-76.2261"/>
<polygon fill="midnightblue" stroke="midnightblue" points="388.557,-72.7074 378.214,-75.001 387.73,-79.6584 388.557,-72.7074"/>
</g>
<!-- Node23 -->
<g id="node23" class="node"><title>Node23</title>
<polygon fill="none" stroke="#bfbfbf" points="395.5,-56.5 395.5,-75.5 591.5,-75.5 591.5,-56.5 395.5,-56.5"/>
<text text-anchor="middle" x="493.5" y="-63.5" font-family="Helvetica,sans-Serif" font-size="10.00">rosee_msg/MotorPhalangePressure.h</text>
</g>
<!-- Node5&#45;&gt;Node23 -->
<g id="edge30" class="edge"><title>Node5&#45;&gt;Node23</title>
<path fill="none" stroke="midnightblue" d="M742.598,-112.444C690.42,-102.925 606.129,-87.5472 550.268,-77.3563"/>
<polygon fill="midnightblue" stroke="midnightblue" points="550.648,-73.868 540.183,-75.5164 549.392,-80.7544 550.648,-73.868"/>
</g>
<!-- Node12&#45;&gt;Node8 -->
<g id="edge16" class="edge"><title>Node12&#45;&gt;Node8</title>
<path fill="none" stroke="midnightblue" d="M949.279,-56.4435C977.833,-47.3196 1023.23,-32.8133 1055.04,-22.6509"/>
<polygon fill="midnightblue" stroke="midnightblue" points="1056.39,-25.8941 1064.85,-19.5164 1054.26,-19.2262 1056.39,-25.8941"/>
</g>
<!-- Node12&#45;&gt;Node9 -->
<g id="edge20" class="edge"><title>Node12&#45;&gt;Node9</title>
<path fill="none" stroke="midnightblue" d="M867.139,-57.7722C862.525,-57.1719 857.933,-56.5751 853.5,-56 732.659,-40.3229 699.048,-43.0469 575.402,-19.9787"/>
<polygon fill="midnightblue" stroke="midnightblue" points="576.027,-16.535 565.552,-18.1225 574.731,-23.4139 576.027,-16.535"/>
</g>
<!-- Node13 -->
<g id="node13" class="node"><title>Node13</title>
<polygon fill="none" stroke="#bfbfbf" points="652,-0.5 652,-19.5 699,-19.5 699,-0.5 652,-0.5"/>
<text text-anchor="middle" x="675.5" y="-7.5" font-family="Helvetica,sans-Serif" font-size="10.00">cmath</text>
</g>
<!-- Node12&#45;&gt;Node13 -->
<g id="edge15" class="edge"><title>Node12&#45;&gt;Node13</title>
<path fill="none" stroke="midnightblue" d="M878.064,-56.4508C836.781,-48.3303 773.38,-35.4089 709.146,-20.0425"/>
<polygon fill="midnightblue" stroke="midnightblue" points="709.792,-16.598 699.25,-17.6571 708.151,-23.4031 709.792,-16.598"/>
</g>
<!-- Node14 -->
<g id="node14" class="node"><title>Node14</title>
<polygon fill="none" stroke="#bfbfbf" points="717,-0.5 717,-19.5 776,-19.5 776,-0.5 717,-0.5"/>
<text text-anchor="middle" x="746.5" y="-7.5" font-family="Helvetica,sans-Serif" font-size="10.00">iostream</text>
</g>
<!-- Node12&#45;&gt;Node14 -->
<g id="edge17" class="edge"><title>Node12&#45;&gt;Node14</title>
<path fill="none" stroke="midnightblue" d="M894.612,-56.4435C864.746,-47.2801 817.185,-32.6876 784.044,-22.5192"/>
<polygon fill="midnightblue" stroke="midnightblue" points="784.844,-19.1037 774.257,-19.5164 782.791,-25.7958 784.844,-19.1037"/>
</g>
<!-- Node15 -->
<g id="node15" class="node"><title>Node15</title>
<polygon fill="none" stroke="#bfbfbf" points="794.5,-0.5 794.5,-19.5 842.5,-19.5 842.5,-0.5 794.5,-0.5"/>
<text text-anchor="middle" x="818.5" y="-7.5" font-family="Helvetica,sans-Serif" font-size="10.00">dlfcn.h</text>
</g>
<!-- Node12&#45;&gt;Node15 -->
<g id="edge18" class="edge"><title>Node12&#45;&gt;Node15</title>
<path fill="none" stroke="midnightblue" d="M905.791,-56.324C889.188,-47.7034 863.498,-34.3643 844.28,-24.3855"/>
<polygon fill="midnightblue" stroke="midnightblue" points="845.656,-21.1565 835.168,-19.6545 842.43,-27.3689 845.656,-21.1565"/>
</g>
<!-- Node16 -->
<g id="node16" class="node"><title>Node16</title>
<polygon fill="none" stroke="#bfbfbf" points="860.5,-0.5 860.5,-19.5 976.5,-19.5 976.5,-0.5 860.5,-0.5"/>
<text text-anchor="middle" x="918.5" y="-7.5" font-family="Helvetica,sans-Serif" font-size="10.00">boost/filesystem.hpp</text>
</g>
<!-- Node12&#45;&gt;Node16 -->
<g id="edge19" class="edge"><title>Node12&#45;&gt;Node16</title>
<path fill="none" stroke="midnightblue" d="M921.839,-56.083C921.315,-49.0059 920.564,-38.8611 919.906,-29.9865"/>
<polygon fill="midnightblue" stroke="midnightblue" points="923.377,-29.4652 919.148,-19.7511 916.397,-29.9823 923.377,-29.4652"/>
</g>
<!-- Node17 -->
<g id="node17" class="node"><title>Node17</title>
<polygon fill="none" stroke="#bfbfbf" points="994.5,-0.5 994.5,-19.5 1044.5,-19.5 1044.5,-0.5 994.5,-0.5"/>
<text text-anchor="middle" x="1019.5" y="-7.5" font-family="Helvetica,sans-Serif" font-size="10.00">chrono</text>
</g>
<!-- Node12&#45;&gt;Node17 -->
<g id="edge21" class="edge"><title>Node12&#45;&gt;Node17</title>
<path fill="none" stroke="midnightblue" d="M938.085,-56.324C953.499,-47.7428 977.312,-34.486 995.21,-24.5224"/>
<polygon fill="midnightblue" stroke="midnightblue" points="996.919,-27.5767 1003.95,-19.6545 993.514,-21.4606 996.919,-27.5767"/>
</g>
<!-- Node18 -->
<g id="node18" class="node"><title>Node18</title>
<polygon fill="none" stroke="#bfbfbf" points="583.5,-0.5 583.5,-19.5 633.5,-19.5 633.5,-0.5 583.5,-0.5"/>
<text text-anchor="middle" x="608.5" y="-7.5" font-family="Helvetica,sans-Serif" font-size="10.00">atomic</text>
</g>
<!-- Node12&#45;&gt;Node18 -->
<g id="edge22" class="edge"><title>Node12&#45;&gt;Node18</title>
<path fill="none" stroke="midnightblue" d="M867.434,-57.6404C810.96,-49.7367 720.705,-36.1171 643.5,-20 643.4,-19.9792 643.3,-19.9582 643.2,-19.9372"/>
<polygon fill="midnightblue" stroke="midnightblue" points="644.198,-16.5749 633.67,-17.7668 642.643,-23.4001 644.198,-16.5749"/>
</g>
<!-- Node19&#45;&gt;Node10 -->
<g id="edge24" class="edge"><title>Node19&#45;&gt;Node10</title>
<path fill="none" stroke="midnightblue" d="M1362,-56.324C1348.9,-47.9002 1328.79,-34.9709 1313.39,-25.0741"/>
<polygon fill="midnightblue" stroke="midnightblue" points="1315.27,-22.118 1304.96,-19.6545 1311.48,-28.0063 1315.27,-22.118"/>
</g>
<!-- Node20 -->
<g id="node20" class="node"><title>Node20</title>
<polygon fill="none" stroke="#bfbfbf" points="1348.5,-0.5 1348.5,-19.5 1506.5,-19.5 1506.5,-0.5 1348.5,-0.5"/>
<text text-anchor="middle" x="1427.5" y="-7.5" font-family="Helvetica,sans-Serif" font-size="10.00">std_msgs/Float32MultiArray.h</text>
</g>
<!-- Node19&#45;&gt;Node20 -->
<g id="edge25" class="edge"><title>Node19&#45;&gt;Node20</title>
<path fill="none" stroke="midnightblue" d="M1384.09,-56.083C1391.66,-48.2195 1402.88,-36.5688 1412.01,-27.0813"/>
<polygon fill="midnightblue" stroke="midnightblue" points="1414.66,-29.3821 1419.07,-19.7511 1409.62,-24.5266 1414.66,-29.3821"/>
</g>
<!-- Node21&#45;&gt;Node10 -->
<g id="edge28" class="edge"><title>Node21&#45;&gt;Node10</title>
<path fill="none" stroke="midnightblue" d="M1200.85,-56.324C1218.17,-47.6641 1245.02,-34.2424 1265,-24.249"/>
<polygon fill="midnightblue" stroke="midnightblue" points="1266.81,-27.2572 1274.19,-19.6545 1263.68,-20.9962 1266.81,-27.2572"/>
</g>
<!-- Node21&#45;&gt;Node11 -->
<g id="edge27" class="edge"><title>Node21&#45;&gt;Node11</title>
<path fill="none" stroke="midnightblue" d="M1184,-56.083C1184.39,-49.0059 1184.95,-38.8611 1185.45,-29.9865"/>
<polygon fill="midnightblue" stroke="midnightblue" points="1188.95,-29.9299 1186.01,-19.7511 1181.96,-29.5415 1188.95,-29.9299"/>
</g>
</g>
</svg>
