<?xml version="1.0" encoding="UTF-8" standalone="no"?>
<!DOCTYPE svg PUBLIC "-//W3C//DTD SVG 1.1//EN"
 "http://www.w3.org/Graphics/SVG/1.1/DTD/svg11.dtd">
<!-- Generated by graphviz version 2.38.0 (20140413.2041)
 -->
<!-- Title: /home/travis/build/ADVRHumanoids/ROSEndEffector/include/end_effector/HAL/EEHal.h Pages: 1 -->
<svg width="1410pt" height="162pt"
 viewBox="0.00 0.00 1409.50 162.00" xmlns="http://www.w3.org/2000/svg" xmlns:xlink="http://www.w3.org/1999/xlink">
<g id="graph0" class="graph" transform="scale(1 1) rotate(0) translate(4 158)">
<title>/home/travis/build/ADVRHumanoids/ROSEndEffector/include/end_effector/HAL/EEHal.h</title>
<!-- Node1 -->
<g id="node1" class="node"><title>Node1</title>
<polygon fill="#bfbfbf" stroke="black" points="464,-112.5 464,-153.5 643,-153.5 643,-112.5 464,-112.5"/>
<text text-anchor="start" x="472" y="-141.5" font-family="Helvetica,sans-Serif" font-size="10.00">/home/travis/build</text>
<text text-anchor="start" x="472" y="-130.5" font-family="Helvetica,sans-Serif" font-size="10.00">/ADVRHumanoids/ROSEndEffector</text>
<text text-anchor="middle" x="553.5" y="-119.5" font-family="Helvetica,sans-Serif" font-size="10.00">/include/end_effector/HAL/EEHal.h</text>
</g>
<!-- Node2 -->
<g id="node2" class="node"><title>Node2</title>
<polygon fill="none" stroke="#bfbfbf" points="0,-56.5 0,-75.5 59,-75.5 59,-56.5 0,-56.5"/>
<text text-anchor="middle" x="29.5" y="-63.5" font-family="Helvetica,sans-Serif" font-size="10.00">ros/ros.h</text>
</g>
<!-- Node1&#45;&gt;Node2 -->
<g id="edge1" class="edge"><title>Node1&#45;&gt;Node2</title>
<path fill="none" stroke="midnightblue" d="M463.917,-124.864C368.348,-116.529 212.424,-100.858 69.5642,-76.1998"/>
<polygon fill="midnightblue" stroke="midnightblue" points="69.7548,-72.6802 59.3019,-74.4088 68.5513,-79.576 69.7548,-72.6802"/>
</g>
<!-- Node3 -->
<g id="node3" class="node"><title>Node3</title>
<polygon fill="none" stroke="#bfbfbf" points="77,-56.5 77,-75.5 216,-75.5 216,-56.5 77,-56.5"/>
<text text-anchor="middle" x="146.5" y="-63.5" font-family="Helvetica,sans-Serif" font-size="10.00">sensor_msgs/JointState.h</text>
</g>
<!-- Node1&#45;&gt;Node3 -->
<g id="edge2" class="edge"><title>Node1&#45;&gt;Node3</title>
<path fill="none" stroke="midnightblue" d="M463.93,-117.695C387.127,-105.429 278.378,-88.0616 210.183,-77.1705"/>
<polygon fill="midnightblue" stroke="midnightblue" points="210.438,-73.6669 200.011,-75.546 209.334,-80.5793 210.438,-73.6669"/>
</g>
<!-- Node4 -->
<g id="node4" class="node"><title>Node4</title>
<polygon fill="none" stroke="#bfbfbf" points="234.5,-56.5 234.5,-75.5 278.5,-75.5 278.5,-56.5 234.5,-56.5"/>
<text text-anchor="middle" x="256.5" y="-63.5" font-family="Helvetica,sans-Serif" font-size="10.00">string</text>
</g>
<!-- Node1&#45;&gt;Node4 -->
<g id="edge3" class="edge"><title>Node1&#45;&gt;Node4</title>
<path fill="none" stroke="midnightblue" d="M463.926,-114.6C414.936,-104.721 352.998,-91.6448 288.742,-75.9246"/>
<polygon fill="midnightblue" stroke="midnightblue" points="289.377,-72.4763 278.83,-73.4828 287.702,-79.2732 289.377,-72.4763"/>
</g>
<!-- Node5 -->
<g id="node5" class="node"><title>Node5</title>
<polygon fill="none" stroke="#bfbfbf" points="297,-56.5 297,-75.5 344,-75.5 344,-56.5 297,-56.5"/>
<text text-anchor="middle" x="320.5" y="-63.5" font-family="Helvetica,sans-Serif" font-size="10.00">vector</text>
</g>
<!-- Node1&#45;&gt;Node5 -->
<g id="edge4" class="edge"><title>Node1&#45;&gt;Node5</title>
<path fill="none" stroke="midnightblue" d="M483.592,-112.498C440.71,-100.535 387.744,-85.7592 354.037,-76.3558"/>
<polygon fill="midnightblue" stroke="midnightblue" points="354.799,-72.9349 344.227,-73.619 352.918,-79.6775 354.799,-72.9349"/>
</g>
<!-- Node6 -->
<g id="node6" class="node"><title>Node6</title>
<polygon fill="none" stroke="#bfbfbf" points="92,-0.5 92,-19.5 149,-19.5 149,-0.5 92,-0.5"/>
<text text-anchor="middle" x="120.5" y="-7.5" font-family="Helvetica,sans-Serif" font-size="10.00">memory</text>
</g>
<!-- Node1&#45;&gt;Node6 -->
<g id="edge5" class="edge"><title>Node1&#45;&gt;Node6</title>
<path fill="none" stroke="midnightblue" d="M483.919,-112.454C453.42,-102.928 417.571,-90.4083 386.5,-76 370.941,-68.7852 369.528,-62.101 353.5,-56 274.03,-25.7499 246.665,-37.2666 158.935,-19.9468"/>
<polygon fill="midnightblue" stroke="midnightblue" points="159.598,-16.51 149.099,-17.9353 158.195,-23.368 159.598,-16.51"/>
</g>
<!-- Node7 -->
<g id="node7" class="node"><title>Node7</title>
<polygon fill="none" stroke="#bfbfbf" points="567,-56.5 567,-75.5 660,-75.5 660,-56.5 567,-56.5"/>
<text text-anchor="middle" x="613.5" y="-63.5" font-family="Helvetica,sans-Serif" font-size="10.00">unordered_map</text>
</g>
<!-- Node1&#45;&gt;Node7 -->
<g id="edge6" class="edge"><title>Node1&#45;&gt;Node7</title>
<path fill="none" stroke="midnightblue" d="M571.502,-112.498C580.17,-103.107 590.439,-91.9829 598.653,-83.0848"/>
<polygon fill="midnightblue" stroke="midnightblue" points="601.302,-85.3745 605.513,-75.6525 596.158,-80.6266 601.302,-85.3745"/>
</g>
<!-- Node8 -->
<g id="node8" class="node"><title>Node8</title>
<polygon fill="none" stroke="#bfbfbf" points="167.5,-0.5 167.5,-19.5 221.5,-19.5 221.5,-0.5 167.5,-0.5"/>
<text text-anchor="middle" x="194.5" y="-7.5" font-family="Helvetica,sans-Serif" font-size="10.00">fstream</text>
</g>
<!-- Node1&#45;&gt;Node8 -->
<g id="edge7" class="edge"><title>Node1&#45;&gt;Node8</title>
<path fill="none" stroke="midnightblue" d="M509.832,-112.422C486.052,-101.724 456.127,-88.2043 429.5,-76 410.34,-67.2179 406.433,-62.8514 386.5,-56 322.1,-33.864 301.451,-36.3561 231.362,-20.1363"/>
<polygon fill="midnightblue" stroke="midnightblue" points="232.151,-16.7264 221.614,-17.8345 230.542,-23.539 232.151,-16.7264"/>
</g>
<!-- Node9 -->
<g id="node9" class="node"><title>Node9</title>
<polygon fill="none" stroke="#bfbfbf" points="895,-0.5 895,-19.5 972,-19.5 972,-0.5 895,-0.5"/>
<text text-anchor="middle" x="933.5" y="-7.5" font-family="Helvetica,sans-Serif" font-size="10.00">Eigen/Dense</text>
</g>
<!-- Node1&#45;&gt;Node9 -->
<g id="edge8" class="edge"><title>Node1&#45;&gt;Node9</title>
<path fill="none" stroke="midnightblue" d="M643.154,-120.974C696.738,-112.543 765.457,-98.4532 823.5,-76 841.266,-69.1275 884.705,-42.2197 911.373,-25.2532"/>
<polygon fill="midnightblue" stroke="midnightblue" points="913.495,-28.0504 920.036,-19.7157 909.725,-22.1522 913.495,-28.0504"/>
</g>
<!-- Node10 -->
<g id="node10" class="node"><title>Node10</title>
<polygon fill="none" stroke="#bfbfbf" points="990.5,-0.5 990.5,-19.5 1086.5,-19.5 1086.5,-0.5 990.5,-0.5"/>
<text text-anchor="middle" x="1038.5" y="-7.5" font-family="Helvetica,sans-Serif" font-size="10.00">yaml&#45;cpp/yaml.h</text>
</g>
<!-- Node1&#45;&gt;Node10 -->
<g id="edge9" class="edge"><title>Node1&#45;&gt;Node10</title>
<path fill="none" stroke="midnightblue" d="M643.145,-132.058C761.054,-130.33 959.824,-120.625 1015.5,-76 1029.34,-64.9037 1034.87,-44.8674 1037.06,-29.9628"/>
<polygon fill="midnightblue" stroke="midnightblue" points="1040.57,-30.1205 1038.18,-19.7986 1033.61,-29.3577 1040.57,-30.1205"/>
</g>
<!-- Node11 -->
<g id="node11" class="node"><title>Node11</title>
<g id="a_node11"><a xlink:href="Utils_8h.html" target="_top" xlink:title="end_effector/Utils.h">
<polygon fill="none" stroke="black" points="438.5,-56.5 438.5,-75.5 548.5,-75.5 548.5,-56.5 438.5,-56.5"/>
<text text-anchor="middle" x="493.5" y="-63.5" font-family="Helvetica,sans-Serif" font-size="10.00">end_effector/Utils.h</text>
</a>
</g>
</g>
<!-- Node1&#45;&gt;Node11 -->
<g id="edge10" class="edge"><title>Node1&#45;&gt;Node11</title>
<path fill="none" stroke="midnightblue" d="M535.498,-112.498C526.83,-103.107 516.561,-91.9829 508.347,-83.0848"/>
<polygon fill="midnightblue" stroke="midnightblue" points="510.842,-80.6266 501.487,-75.6525 505.698,-85.3745 510.842,-80.6266"/>
</g>
<!-- Node18 -->
<g id="node18" class="node"><title>Node18</title>
<g id="a_node18"><a xlink:href="UtilsEigen_8h.html" target="_top" xlink:title="end_effector/UtilsEigen.h">
<polygon fill="none" stroke="black" points="678.5,-56.5 678.5,-75.5 814.5,-75.5 814.5,-56.5 678.5,-56.5"/>
<text text-anchor="middle" x="746.5" y="-63.5" font-family="Helvetica,sans-Serif" font-size="10.00">end_effector/UtilsEigen.h</text>
</a>
</g>
</g>
<!-- Node1&#45;&gt;Node18 -->
<g id="edge19" class="edge"><title>Node1&#45;&gt;Node18</title>
<path fill="none" stroke="midnightblue" d="M611.406,-112.498C643.941,-101.541 683.483,-88.2233 711.356,-78.8361"/>
<polygon fill="midnightblue" stroke="midnightblue" points="712.703,-82.0758 721.062,-75.5671 710.468,-75.4419 712.703,-82.0758"/>
</g>
<!-- Node20 -->
<g id="node20" class="node"><title>Node20</title>
<g id="a_node20"><a xlink:href="UtilsYAML_8h.html" target="_top" xlink:title="end_effector/UtilsYAML.h">
<polygon fill="none" stroke="black" points="871,-56.5 871,-75.5 1006,-75.5 1006,-56.5 871,-56.5"/>
<text text-anchor="middle" x="938.5" y="-63.5" font-family="Helvetica,sans-Serif" font-size="10.00">end_effector/UtilsYAML.h</text>
</a>
</g>
</g>
<!-- Node1&#45;&gt;Node20 -->
<g id="edge22" class="edge"><title>Node1&#45;&gt;Node20</title>
<path fill="none" stroke="midnightblue" d="M643.28,-116.842C715.474,-104.654 814.928,-87.8628 877.971,-77.2192"/>
<polygon fill="midnightblue" stroke="midnightblue" points="878.872,-80.6166 888.15,-75.5006 877.707,-73.7143 878.872,-80.6166"/>
</g>
<!-- Node21 -->
<g id="node21" class="node"><title>Node21</title>
<polygon fill="none" stroke="#bfbfbf" points="1063,-56.5 1063,-75.5 1188,-75.5 1188,-56.5 1063,-56.5"/>
<text text-anchor="middle" x="1125.5" y="-63.5" font-family="Helvetica,sans-Serif" font-size="10.00">rosee_msg/HandInfo.h</text>
</g>
<!-- Node1&#45;&gt;Node21 -->
<g id="edge25" class="edge"><title>Node1&#45;&gt;Node21</title>
<path fill="none" stroke="midnightblue" d="M643.385,-121.932C742.578,-110.799 906.948,-92.2795 1048.5,-76 1049.96,-75.8318 1051.44,-75.6616 1052.93,-75.4897"/>
<polygon fill="midnightblue" stroke="midnightblue" points="1053.36,-78.9639 1062.89,-74.338 1052.55,-72.0103 1053.36,-78.9639"/>
</g>
<!-- Node22 -->
<g id="node22" class="node"><title>Node22</title>
<polygon fill="none" stroke="#bfbfbf" points="1205.5,-56.5 1205.5,-75.5 1401.5,-75.5 1401.5,-56.5 1205.5,-56.5"/>
<text text-anchor="middle" x="1303.5" y="-63.5" font-family="Helvetica,sans-Serif" font-size="10.00">rosee_msg/MotorPhalangePressure.h</text>
</g>
<!-- Node1&#45;&gt;Node22 -->
<g id="edge26" class="edge"><title>Node1&#45;&gt;Node22</title>
<path fill="none" stroke="midnightblue" d="M643.223,-124.224C781.573,-112.234 1046.53,-89.271 1195.29,-76.378"/>
<polygon fill="midnightblue" stroke="midnightblue" points="1195.7,-79.8559 1205.36,-75.5054 1195.1,-72.882 1195.7,-79.8559"/>
</g>
<!-- Node11&#45;&gt;Node6 -->
<g id="edge12" class="edge"><title>Node11&#45;&gt;Node6</title>
<path fill="none" stroke="midnightblue" d="M438.399,-59.2924C373.876,-52.2312 263.61,-38.9923 159.158,-19.9478"/>
<polygon fill="midnightblue" stroke="midnightblue" points="159.539,-16.4591 149.07,-18.0867 158.269,-23.3429 159.539,-16.4591"/>
</g>
<!-- Node11&#45;&gt;Node8 -->
<g id="edge16" class="edge"><title>Node11&#45;&gt;Node8</title>
<path fill="none" stroke="midnightblue" d="M438.365,-56.8073C387.181,-48.9215 308.665,-36.1151 231.471,-20.0772"/>
<polygon fill="midnightblue" stroke="midnightblue" points="232.082,-16.6292 221.576,-18.0018 230.645,-23.4801 232.082,-16.6292"/>
</g>
<!-- Node12 -->
<g id="node12" class="node"><title>Node12</title>
<polygon fill="none" stroke="#bfbfbf" points="510,-0.5 510,-19.5 557,-19.5 557,-0.5 510,-0.5"/>
<text text-anchor="middle" x="533.5" y="-7.5" font-family="Helvetica,sans-Serif" font-size="10.00">cmath</text>
</g>
<!-- Node11&#45;&gt;Node12 -->
<g id="edge11" class="edge"><title>Node11&#45;&gt;Node12</title>
<path fill="none" stroke="midnightblue" d="M500.105,-56.083C505.755,-48.4554 514.045,-37.2645 520.951,-27.9408"/>
<polygon fill="midnightblue" stroke="midnightblue" points="523.878,-29.87 527.018,-19.7511 518.253,-25.7034 523.878,-29.87"/>
</g>
<!-- Node13 -->
<g id="node13" class="node"><title>Node13</title>
<polygon fill="none" stroke="#bfbfbf" points="575,-0.5 575,-19.5 634,-19.5 634,-0.5 575,-0.5"/>
<text text-anchor="middle" x="604.5" y="-7.5" font-family="Helvetica,sans-Serif" font-size="10.00">iostream</text>
</g>
<!-- Node11&#45;&gt;Node13 -->
<g id="edge13" class="edge"><title>Node11&#45;&gt;Node13</title>
<path fill="none" stroke="midnightblue" d="M511.334,-56.324C529.216,-47.6247 556.975,-34.1202 577.546,-24.113"/>
<polygon fill="midnightblue" stroke="midnightblue" points="579.249,-27.1765 586.71,-19.6545 576.187,-20.8819 579.249,-27.1765"/>
</g>
<!-- Node14 -->
<g id="node14" class="node"><title>Node14</title>
<polygon fill="none" stroke="#bfbfbf" points="652.5,-0.5 652.5,-19.5 700.5,-19.5 700.5,-0.5 652.5,-0.5"/>
<text text-anchor="middle" x="676.5" y="-7.5" font-family="Helvetica,sans-Serif" font-size="10.00">dlfcn.h</text>
</g>
<!-- Node11&#45;&gt;Node14 -->
<g id="edge14" class="edge"><title>Node11&#45;&gt;Node14</title>
<path fill="none" stroke="midnightblue" d="M522.497,-56.4435C555.152,-46.8075 608.153,-31.168 642.67,-20.9826"/>
<polygon fill="midnightblue" stroke="midnightblue" points="643.714,-24.324 652.314,-18.1368 641.732,-17.6102 643.714,-24.324"/>
</g>
<!-- Node15 -->
<g id="node15" class="node"><title>Node15</title>
<polygon fill="none" stroke="#bfbfbf" points="239.5,-0.5 239.5,-19.5 355.5,-19.5 355.5,-0.5 239.5,-0.5"/>
<text text-anchor="middle" x="297.5" y="-7.5" font-family="Helvetica,sans-Serif" font-size="10.00">boost/filesystem.hpp</text>
</g>
<!-- Node11&#45;&gt;Node15 -->
<g id="edge15" class="edge"><title>Node11&#45;&gt;Node15</title>
<path fill="none" stroke="midnightblue" d="M462.443,-56.4435C428.897,-47.2011 375.303,-32.4356 338.359,-22.2572"/>
<polygon fill="midnightblue" stroke="midnightblue" points="338.982,-18.7984 328.411,-19.5164 337.123,-25.5469 338.982,-18.7984"/>
</g>
<!-- Node16 -->
<g id="node16" class="node"><title>Node16</title>
<polygon fill="none" stroke="#bfbfbf" points="373.5,-0.5 373.5,-19.5 423.5,-19.5 423.5,-0.5 373.5,-0.5"/>
<text text-anchor="middle" x="398.5" y="-7.5" font-family="Helvetica,sans-Serif" font-size="10.00">chrono</text>
</g>
<!-- Node11&#45;&gt;Node16 -->
<g id="edge17" class="edge"><title>Node11&#45;&gt;Node16</title>
<path fill="none" stroke="midnightblue" d="M478.237,-56.324C463.279,-47.8215 440.245,-34.7288 422.773,-24.7975"/>
<polygon fill="midnightblue" stroke="midnightblue" points="424.149,-21.5534 413.726,-19.6545 420.69,-27.639 424.149,-21.5534"/>
</g>
<!-- Node17 -->
<g id="node17" class="node"><title>Node17</title>
<polygon fill="none" stroke="#bfbfbf" points="441.5,-0.5 441.5,-19.5 491.5,-19.5 491.5,-0.5 441.5,-0.5"/>
<text text-anchor="middle" x="466.5" y="-7.5" font-family="Helvetica,sans-Serif" font-size="10.00">atomic</text>
</g>
<!-- Node11&#45;&gt;Node17 -->
<g id="edge18" class="edge"><title>Node11&#45;&gt;Node17</title>
<path fill="none" stroke="midnightblue" d="M489.041,-56.083C485.346,-48.6913 479.977,-37.9533 475.406,-28.8111"/>
<polygon fill="midnightblue" stroke="midnightblue" points="478.478,-27.1301 470.876,-19.7511 472.217,-30.2606 478.478,-27.1301"/>
</g>
<!-- Node18&#45;&gt;Node9 -->
<g id="edge20" class="edge"><title>Node18&#45;&gt;Node9</title>
<path fill="none" stroke="midnightblue" d="M776.131,-56.4435C808,-47.2406 858.833,-32.5617 894.064,-22.3879"/>
<polygon fill="midnightblue" stroke="midnightblue" points="895.372,-25.6534 904.008,-19.5164 893.429,-18.9282 895.372,-25.6534"/>
</g>
<!-- Node19 -->
<g id="node19" class="node"><title>Node19</title>
<polygon fill="none" stroke="#bfbfbf" points="718.5,-0.5 718.5,-19.5 876.5,-19.5 876.5,-0.5 718.5,-0.5"/>
<text text-anchor="middle" x="797.5" y="-7.5" font-family="Helvetica,sans-Serif" font-size="10.00">std_msgs/Float32MultiArray.h</text>
</g>
<!-- Node18&#45;&gt;Node19 -->
<g id="edge21" class="edge"><title>Node18&#45;&gt;Node19</title>
<path fill="none" stroke="midnightblue" d="M754.922,-56.083C762.348,-48.2195 773.352,-36.5688 782.312,-27.0813"/>
<polygon fill="midnightblue" stroke="midnightblue" points="784.913,-29.4244 789.235,-19.7511 779.824,-24.618 784.913,-29.4244"/>
</g>
<!-- Node20&#45;&gt;Node9 -->
<g id="edge24" class="edge"><title>Node20&#45;&gt;Node9</title>
<path fill="none" stroke="midnightblue" d="M937.674,-56.083C937.019,-49.0059 936.08,-38.8611 935.258,-29.9865"/>
<polygon fill="midnightblue" stroke="midnightblue" points="938.717,-29.3858 934.31,-19.7511 931.747,-30.0312 938.717,-29.3858"/>
</g>
<!-- Node20&#45;&gt;Node10 -->
<g id="edge23" class="edge"><title>Node20&#45;&gt;Node10</title>
<path fill="none" stroke="midnightblue" d="M954.567,-56.324C970.458,-47.7428 995.007,-34.486 1013.46,-24.5224"/>
<polygon fill="midnightblue" stroke="midnightblue" points="1015.34,-27.4857 1022.47,-19.6545 1012.01,-21.3264 1015.34,-27.4857"/>
</g>
</g>
</svg>
