<?xml version="1.0" encoding="UTF-8" standalone="no"?>
<!DOCTYPE svg PUBLIC "-//W3C//DTD SVG 1.1//EN"
 "http://www.w3.org/Graphics/SVG/1.1/DTD/svg11.dtd">
<!-- Generated by graphviz version 2.38.0 (20140413.2041)
 -->
<!-- Title: /home/lucamuratore/src/ros_end_effector__ws/src/ROSEndEffector/src/EEHal.cpp Pages: 1 -->
<svg width="361pt" height="229pt"
 viewBox="0.00 0.00 360.89 229.00" xmlns="http://www.w3.org/2000/svg" xmlns:xlink="http://www.w3.org/1999/xlink">
<g id="graph0" class="graph" transform="scale(1 1) rotate(0) translate(4 225)">
<title>/home/lucamuratore/src/ros_end_effector__ws/src/ROSEndEffector/src/EEHal.cpp</title>
<!-- Node1 -->
<g id="node1" class="node"><title>Node1</title>
<polygon fill="#bfbfbf" stroke="black" points="57.8909,-168.5 57.8909,-220.5 190.891,-220.5 190.891,-168.5 57.8909,-168.5"/>
<text text-anchor="start" x="65.8909" y="-208.5" font-family="Helvetica,sans-Serif" font-size="10.00">/home/lucamuratore</text>
<text text-anchor="start" x="65.8909" y="-197.5" font-family="Helvetica,sans-Serif" font-size="10.00">/src/ros_end_effector</text>
<text text-anchor="start" x="65.8909" y="-186.5" font-family="Helvetica,sans-Serif" font-size="10.00">__ws/src/ROSEndEffector</text>
<text text-anchor="middle" x="124.391" y="-175.5" font-family="Helvetica,sans-Serif" font-size="10.00">/src/EEHal.cpp</text>
</g>
<!-- Node2 -->
<g id="node2" class="node"><title>Node2</title>
<g id="a_node2"><a xlink:href="EEHal_8h.html" target="_top" xlink:title="ROSEndEffector/EEHal.h">
<polygon fill="none" stroke="black" points="59.3909,-112.5 59.3909,-131.5 189.391,-131.5 189.391,-112.5 59.3909,-112.5"/>
<text text-anchor="middle" x="124.391" y="-119.5" font-family="Helvetica,sans-Serif" font-size="10.00">ROSEndEffector/EEHal.h</text>
</a>
</g>
</g>
<!-- Node1&#45;&gt;Node2 -->
<g id="edge1" class="edge"><title>Node1&#45;&gt;Node2</title>
<path fill="none" stroke="midnightblue" d="M124.391,-168.446C124.391,-159.73 124.391,-150.104 124.391,-141.964"/>
<polygon fill="midnightblue" stroke="midnightblue" points="127.891,-141.695 124.391,-131.695 120.891,-141.696 127.891,-141.695"/>
</g>
<!-- Node3 -->
<g id="node3" class="node"><title>Node3</title>
<g id="a_node3"><a xlink:href="IMotor_8h.html" target="_top" xlink:title="ROSEndEffector/IMotor.h">
<polygon fill="none" stroke="black" points="13.8909,-56.5 13.8909,-75.5 142.891,-75.5 142.891,-56.5 13.8909,-56.5"/>
<text text-anchor="middle" x="78.3909" y="-63.5" font-family="Helvetica,sans-Serif" font-size="10.00">ROSEndEffector/IMotor.h</text>
</a>
</g>
</g>
<!-- Node2&#45;&gt;Node3 -->
<g id="edge2" class="edge"><title>Node2&#45;&gt;Node3</title>
<path fill="none" stroke="midnightblue" d="M116.795,-112.083C110.163,-104.298 100.37,-92.8015 92.3327,-83.3665"/>
<polygon fill="midnightblue" stroke="midnightblue" points="94.9946,-81.0939 85.8455,-75.7511 89.6659,-85.6332 94.9946,-81.0939"/>
</g>
<!-- Node4 -->
<g id="node4" class="node"><title>Node4</title>
<polygon fill="none" stroke="#bfbfbf" points="10.8909,-0.5 10.8909,-19.5 51.8909,-19.5 51.8909,-0.5 10.8909,-0.5"/>
<text text-anchor="middle" x="31.3909" y="-7.5" font-family="Helvetica,sans-Serif" font-size="10.00">string</text>
</g>
<!-- Node2&#45;&gt;Node4 -->
<g id="edge9" class="edge"><title>Node2&#45;&gt;Node4</title>
<path fill="none" stroke="midnightblue" d="M61.968,-112.452C40.0617,-106.118 17.6347,-95.1108 4.39089,-76 -6.09943,-60.8625 5.12126,-41.0189 16.1246,-27.2575"/>
<polygon fill="midnightblue" stroke="midnightblue" points="18.8723,-29.4307 22.7516,-19.5716 13.5708,-24.8596 18.8723,-29.4307"/>
</g>
<!-- Node5 -->
<g id="node5" class="node"><title>Node5</title>
<polygon fill="none" stroke="#bfbfbf" points="145.391,-0.5 145.391,-19.5 197.391,-19.5 197.391,-0.5 145.391,-0.5"/>
<text text-anchor="middle" x="171.391" y="-7.5" font-family="Helvetica,sans-Serif" font-size="10.00">memory</text>
</g>
<!-- Node2&#45;&gt;Node5 -->
<g id="edge10" class="edge"><title>Node2&#45;&gt;Node5</title>
<path fill="none" stroke="midnightblue" d="M130.429,-112.378C136.391,-103.563 145.454,-89.3137 151.391,-76 158.153,-60.836 163.521,-42.718 166.986,-29.4671"/>
<polygon fill="midnightblue" stroke="midnightblue" points="170.41,-30.2029 169.438,-19.6528 163.618,-28.5062 170.41,-30.2029"/>
</g>
<!-- Node6 -->
<g id="node6" class="node"><title>Node6</title>
<g id="a_node6"><a xlink:href="EEInterface_8h.html" target="_top" xlink:title="ROSEndEffector/EEInterface.h">
<polygon fill="none" stroke="black" points="199.891,-56.5 199.891,-75.5 352.891,-75.5 352.891,-56.5 199.891,-56.5"/>
<text text-anchor="middle" x="276.391" y="-63.5" font-family="Helvetica,sans-Serif" font-size="10.00">ROSEndEffector/EEInterface.h</text>
</a>
</g>
</g>
<!-- Node2&#45;&gt;Node6 -->
<g id="edge5" class="edge"><title>Node2&#45;&gt;Node6</title>
<path fill="none" stroke="midnightblue" d="M148.476,-112.444C173.936,-103.399 214.285,-89.064 242.85,-78.9158"/>
<polygon fill="midnightblue" stroke="midnightblue" points="244.167,-82.1622 252.419,-75.5164 241.824,-75.5661 244.167,-82.1622"/>
</g>
<!-- Node3&#45;&gt;Node4 -->
<g id="edge3" class="edge"><title>Node3&#45;&gt;Node4</title>
<path fill="none" stroke="midnightblue" d="M70.6298,-56.083C63.8541,-48.2982 53.8477,-36.8015 45.6358,-27.3665"/>
<polygon fill="midnightblue" stroke="midnightblue" points="48.2129,-24.9963 39.0076,-19.7511 42.9328,-29.592 48.2129,-24.9963"/>
</g>
<!-- Node3&#45;&gt;Node5 -->
<g id="edge4" class="edge"><title>Node3&#45;&gt;Node5</title>
<path fill="none" stroke="midnightblue" d="M93.333,-56.324C107.976,-47.8215 130.525,-34.7288 147.629,-24.7975"/>
<polygon fill="midnightblue" stroke="midnightblue" points="149.596,-27.7027 156.486,-19.6545 146.081,-21.6491 149.596,-27.7027"/>
</g>
<!-- Node6&#45;&gt;Node5 -->
<g id="edge8" class="edge"><title>Node6&#45;&gt;Node5</title>
<path fill="none" stroke="midnightblue" d="M259.521,-56.324C242.682,-47.6641 216.584,-34.2424 197.153,-24.249"/>
<polygon fill="midnightblue" stroke="midnightblue" points="198.713,-21.1155 188.219,-19.6545 195.511,-27.3405 198.713,-21.1155"/>
</g>
<!-- Node7 -->
<g id="node7" class="node"><title>Node7</title>
<polygon fill="none" stroke="#bfbfbf" points="236.891,-0.5 236.891,-19.5 271.891,-19.5 271.891,-0.5 236.891,-0.5"/>
<text text-anchor="middle" x="254.391" y="-7.5" font-family="Helvetica,sans-Serif" font-size="10.00">map</text>
</g>
<!-- Node6&#45;&gt;Node7 -->
<g id="edge6" class="edge"><title>Node6&#45;&gt;Node7</title>
<path fill="none" stroke="midnightblue" d="M272.758,-56.083C269.779,-48.77 265.465,-38.1814 261.766,-29.1034"/>
<polygon fill="midnightblue" stroke="midnightblue" points="264.971,-27.6914 257.956,-19.7511 258.488,-30.3326 264.971,-27.6914"/>
</g>
<!-- Node8 -->
<g id="node8" class="node"><title>Node8</title>
<polygon fill="none" stroke="#bfbfbf" points="290.391,-0.5 290.391,-19.5 334.391,-19.5 334.391,-0.5 290.391,-0.5"/>
<text text-anchor="middle" x="312.391" y="-7.5" font-family="Helvetica,sans-Serif" font-size="10.00">vector</text>
</g>
<!-- Node6&#45;&gt;Node8 -->
<g id="edge7" class="edge"><title>Node6&#45;&gt;Node8</title>
<path fill="none" stroke="midnightblue" d="M282.336,-56.083C287.368,-48.5341 294.728,-37.4948 300.904,-28.2298"/>
<polygon fill="midnightblue" stroke="midnightblue" points="303.922,-30.0131 306.557,-19.7511 298.098,-26.1301 303.922,-30.0131"/>
</g>
</g>
</svg>
