<?xml version="1.0" encoding="UTF-8" standalone="no"?>
<!DOCTYPE svg PUBLIC "-//W3C//DTD SVG 1.1//EN"
 "http://www.w3.org/Graphics/SVG/1.1/DTD/svg11.dtd">
<!-- Generated by graphviz version 2.38.0 (20140413.2041)
 -->
<!-- Title: /home/travis/build/ADVRHumanoids/ROSEndEffector/src/HAL/EEHal.cpp Pages: 1 -->
<svg width="1410pt" height="218pt"
 viewBox="0.00 0.00 1409.50 218.00" xmlns="http://www.w3.org/2000/svg" xmlns:xlink="http://www.w3.org/1999/xlink">
<g id="graph0" class="graph" transform="scale(1 1) rotate(0) translate(4 214)">
<title>/home/travis/build/ADVRHumanoids/ROSEndEffector/src/HAL/EEHal.cpp</title>
<!-- Node1 -->
<g id="node1" class="node"><title>Node1</title>
<polygon fill="#bfbfbf" stroke="black" points="464,-168.5 464,-209.5 643,-209.5 643,-168.5 464,-168.5"/>
<text text-anchor="start" x="472" y="-197.5" font-family="Helvetica,sans-Serif" font-size="10.00">/home/travis/build</text>
<text text-anchor="start" x="472" y="-186.5" font-family="Helvetica,sans-Serif" font-size="10.00">/ADVRHumanoids/ROSEndEffector</text>
<text text-anchor="middle" x="553.5" y="-175.5" font-family="Helvetica,sans-Serif" font-size="10.00">/src/HAL/EEHal.cpp</text>
</g>
<!-- Node2 -->
<g id="node2" class="node"><title>Node2</title>
<g id="a_node2"><a xlink:href="EEHal_8h.html" target="_top" xlink:title="end_effector/HAL/EEHal.h">
<polygon fill="none" stroke="black" points="484,-112.5 484,-131.5 623,-131.5 623,-112.5 484,-112.5"/>
<text text-anchor="middle" x="553.5" y="-119.5" font-family="Helvetica,sans-Serif" font-size="10.00">end_effector/HAL/EEHal.h</text>
</a>
</g>
</g>
<!-- Node1&#45;&gt;Node2 -->
<g id="edge1" class="edge"><title>Node1&#45;&gt;Node2</title>
<path fill="none" stroke="midnightblue" d="M553.5,-168.498C553.5,-160.065 553.5,-150.235 553.5,-141.874"/>
<polygon fill="midnightblue" stroke="midnightblue" points="557,-141.652 553.5,-131.652 550,-141.653 557,-141.652"/>
</g>
<!-- Node3 -->
<g id="node3" class="node"><title>Node3</title>
<polygon fill="none" stroke="#bfbfbf" points="0,-56.5 0,-75.5 59,-75.5 59,-56.5 0,-56.5"/>
<text text-anchor="middle" x="29.5" y="-63.5" font-family="Helvetica,sans-Serif" font-size="10.00">ros/ros.h</text>
</g>
<!-- Node2&#45;&gt;Node3 -->
<g id="edge2" class="edge"><title>Node2&#45;&gt;Node3</title>
<path fill="none" stroke="midnightblue" d="M483.897,-117.629C391.228,-112.458 222.134,-100.642 69.3314,-76.1073"/>
<polygon fill="midnightblue" stroke="midnightblue" points="69.7235,-72.6251 59.2911,-74.4728 68.5987,-79.5342 69.7235,-72.6251"/>
</g>
<!-- Node4 -->
<g id="node4" class="node"><title>Node4</title>
<polygon fill="none" stroke="#bfbfbf" points="77,-56.5 77,-75.5 216,-75.5 216,-56.5 77,-56.5"/>
<text text-anchor="middle" x="146.5" y="-63.5" font-family="Helvetica,sans-Serif" font-size="10.00">sensor_msgs/JointState.h</text>
</g>
<!-- Node2&#45;&gt;Node4 -->
<g id="edge3" class="edge"><title>Node2&#45;&gt;Node4</title>
<path fill="none" stroke="midnightblue" d="M489.01,-112.444C416.074,-102.767 297.506,-87.0351 220.764,-76.8533"/>
<polygon fill="midnightblue" stroke="midnightblue" points="221.062,-73.3622 210.689,-75.5164 220.141,-80.3014 221.062,-73.3622"/>
</g>
<!-- Node5 -->
<g id="node5" class="node"><title>Node5</title>
<polygon fill="none" stroke="#bfbfbf" points="234.5,-56.5 234.5,-75.5 278.5,-75.5 278.5,-56.5 234.5,-56.5"/>
<text text-anchor="middle" x="256.5" y="-63.5" font-family="Helvetica,sans-Serif" font-size="10.00">string</text>
</g>
<!-- Node2&#45;&gt;Node5 -->
<g id="edge4" class="edge"><title>Node2&#45;&gt;Node5</title>
<path fill="none" stroke="midnightblue" d="M492.359,-112.498C440.733,-104.892 364.695,-92.6919 288.995,-75.8892"/>
<polygon fill="midnightblue" stroke="midnightblue" points="289.327,-72.3766 278.803,-73.5982 287.792,-79.2062 289.327,-72.3766"/>
</g>
<!-- Node6 -->
<g id="node6" class="node"><title>Node6</title>
<polygon fill="none" stroke="#bfbfbf" points="297,-56.5 297,-75.5 344,-75.5 344,-56.5 297,-56.5"/>
<text text-anchor="middle" x="320.5" y="-63.5" font-family="Helvetica,sans-Serif" font-size="10.00">vector</text>
</g>
<!-- Node2&#45;&gt;Node6 -->
<g id="edge5" class="edge"><title>Node2&#45;&gt;Node6</title>
<path fill="none" stroke="midnightblue" d="M516.102,-112.437C476.837,-103.431 413.307,-88.8141 358.5,-76 357.056,-75.6624 355.581,-75.3167 354.091,-74.9669"/>
<polygon fill="midnightblue" stroke="midnightblue" points="354.748,-71.5258 344.212,-72.6382 353.142,-78.3391 354.748,-71.5258"/>
</g>
<!-- Node7 -->
<g id="node7" class="node"><title>Node7</title>
<polygon fill="none" stroke="#bfbfbf" points="92,-0.5 92,-19.5 149,-19.5 149,-0.5 92,-0.5"/>
<text text-anchor="middle" x="120.5" y="-7.5" font-family="Helvetica,sans-Serif" font-size="10.00">memory</text>
</g>
<!-- Node2&#45;&gt;Node7 -->
<g id="edge6" class="edge"><title>Node2&#45;&gt;Node7</title>
<path fill="none" stroke="midnightblue" d="M508.404,-112.458C474.128,-105.112 426.258,-92.9987 386.5,-76 370.731,-69.2578 369.528,-62.101 353.5,-56 274.03,-25.7499 246.665,-37.2666 158.935,-19.9468"/>
<polygon fill="midnightblue" stroke="midnightblue" points="159.598,-16.51 149.099,-17.9353 158.195,-23.368 159.598,-16.51"/>
</g>
<!-- Node8 -->
<g id="node8" class="node"><title>Node8</title>
<polygon fill="none" stroke="#bfbfbf" points="567,-56.5 567,-75.5 660,-75.5 660,-56.5 567,-56.5"/>
<text text-anchor="middle" x="613.5" y="-63.5" font-family="Helvetica,sans-Serif" font-size="10.00">unordered_map</text>
</g>
<!-- Node2&#45;&gt;Node8 -->
<g id="edge7" class="edge"><title>Node2&#45;&gt;Node8</title>
<path fill="none" stroke="midnightblue" d="M563.14,-112.324C572.01,-104.341 585.375,-92.3128 596.108,-82.6529"/>
<polygon fill="midnightblue" stroke="midnightblue" points="598.593,-85.1251 603.685,-75.8339 593.91,-79.922 598.593,-85.1251"/>
</g>
<!-- Node9 -->
<g id="node9" class="node"><title>Node9</title>
<polygon fill="none" stroke="#bfbfbf" points="167.5,-0.5 167.5,-19.5 221.5,-19.5 221.5,-0.5 167.5,-0.5"/>
<text text-anchor="middle" x="194.5" y="-7.5" font-family="Helvetica,sans-Serif" font-size="10.00">fstream</text>
</g>
<!-- Node2&#45;&gt;Node9 -->
<g id="edge8" class="edge"><title>Node2&#45;&gt;Node9</title>
<path fill="none" stroke="midnightblue" d="M527.601,-112.339C502.339,-103.719 462.943,-89.8151 429.5,-76 410.019,-67.9528 406.433,-62.8514 386.5,-56 322.1,-33.864 301.451,-36.3561 231.362,-20.1363"/>
<polygon fill="midnightblue" stroke="midnightblue" points="232.151,-16.7264 221.614,-17.8345 230.542,-23.539 232.151,-16.7264"/>
</g>
<!-- Node10 -->
<g id="node10" class="node"><title>Node10</title>
<polygon fill="none" stroke="#bfbfbf" points="895,-0.5 895,-19.5 972,-19.5 972,-0.5 895,-0.5"/>
<text text-anchor="middle" x="933.5" y="-7.5" font-family="Helvetica,sans-Serif" font-size="10.00">Eigen/Dense</text>
</g>
<!-- Node2&#45;&gt;Node10 -->
<g id="edge9" class="edge"><title>Node2&#45;&gt;Node10</title>
<path fill="none" stroke="midnightblue" d="M623.249,-116.453C678.851,-111.165 757.976,-99.8755 823.5,-76 841.491,-69.4444 885.245,-42.1686 911.83,-25.1011"/>
<polygon fill="midnightblue" stroke="midnightblue" points="913.943,-27.9035 920.447,-19.5406 910.147,-22.0217 913.943,-27.9035"/>
</g>
<!-- Node11 -->
<g id="node11" class="node"><title>Node11</title>
<polygon fill="none" stroke="#bfbfbf" points="990.5,-0.5 990.5,-19.5 1086.5,-19.5 1086.5,-0.5 990.5,-0.5"/>
<text text-anchor="middle" x="1038.5" y="-7.5" font-family="Helvetica,sans-Serif" font-size="10.00">yaml&#45;cpp/yaml.h</text>
</g>
<!-- Node2&#45;&gt;Node11 -->
<g id="edge10" class="edge"><title>Node2&#45;&gt;Node11</title>
<path fill="none" stroke="midnightblue" d="M623.298,-118.293C744.834,-112.985 985.312,-99.6184 1015.5,-76 1029.47,-65.0673 1034.98,-45.0051 1037.13,-30.0498"/>
<polygon fill="midnightblue" stroke="midnightblue" points="1040.64,-30.1579 1038.21,-19.8447 1033.68,-29.42 1040.64,-30.1579"/>
</g>
<!-- Node12 -->
<g id="node12" class="node"><title>Node12</title>
<g id="a_node12"><a xlink:href="Utils_8h.html" target="_top" xlink:title="end_effector/Utils.h">
<polygon fill="none" stroke="black" points="438.5,-56.5 438.5,-75.5 548.5,-75.5 548.5,-56.5 438.5,-56.5"/>
<text text-anchor="middle" x="493.5" y="-63.5" font-family="Helvetica,sans-Serif" font-size="10.00">end_effector/Utils.h</text>
</a>
</g>
</g>
<!-- Node2&#45;&gt;Node12 -->
<g id="edge11" class="edge"><title>Node2&#45;&gt;Node12</title>
<path fill="none" stroke="midnightblue" d="M543.86,-112.324C534.99,-104.341 521.625,-92.3128 510.892,-82.6529"/>
<polygon fill="midnightblue" stroke="midnightblue" points="513.09,-79.922 503.315,-75.8339 508.407,-85.1251 513.09,-79.922"/>
</g>
<!-- Node19 -->
<g id="node19" class="node"><title>Node19</title>
<g id="a_node19"><a xlink:href="UtilsEigen_8h.html" target="_top" xlink:title="end_effector/UtilsEigen.h">
<polygon fill="none" stroke="black" points="678.5,-56.5 678.5,-75.5 814.5,-75.5 814.5,-56.5 678.5,-56.5"/>
<text text-anchor="middle" x="746.5" y="-63.5" font-family="Helvetica,sans-Serif" font-size="10.00">end_effector/UtilsEigen.h</text>
</a>
</g>
</g>
<!-- Node2&#45;&gt;Node19 -->
<g id="edge20" class="edge"><title>Node2&#45;&gt;Node19</title>
<path fill="none" stroke="midnightblue" d="M584.081,-112.444C617.115,-103.201 669.888,-88.4356 706.266,-78.2572"/>
<polygon fill="midnightblue" stroke="midnightblue" points="707.375,-81.5815 716.062,-75.5164 705.488,-74.8404 707.375,-81.5815"/>
</g>
<!-- Node21 -->
<g id="node21" class="node"><title>Node21</title>
<g id="a_node21"><a xlink:href="UtilsYAML_8h.html" target="_top" xlink:title="end_effector/UtilsYAML.h">
<polygon fill="none" stroke="black" points="871,-56.5 871,-75.5 1006,-75.5 1006,-56.5 871,-56.5"/>
<text text-anchor="middle" x="938.5" y="-63.5" font-family="Helvetica,sans-Serif" font-size="10.00">end_effector/UtilsYAML.h</text>
</a>
</g>
</g>
<!-- Node2&#45;&gt;Node21 -->
<g id="edge23" class="edge"><title>Node2&#45;&gt;Node21</title>
<path fill="none" stroke="midnightblue" d="M614.504,-112.444C683.356,-102.786 795.199,-87.0993 867.805,-76.9157"/>
<polygon fill="midnightblue" stroke="midnightblue" points="868.364,-80.3716 877.781,-75.5164 867.392,-73.4394 868.364,-80.3716"/>
</g>
<!-- Node22 -->
<g id="node22" class="node"><title>Node22</title>
<polygon fill="none" stroke="#bfbfbf" points="1063,-56.5 1063,-75.5 1188,-75.5 1188,-56.5 1063,-56.5"/>
<text text-anchor="middle" x="1125.5" y="-63.5" font-family="Helvetica,sans-Serif" font-size="10.00">rosee_msg/HandInfo.h</text>
</g>
<!-- Node2&#45;&gt;Node22 -->
<g id="edge26" class="edge"><title>Node2&#45;&gt;Node22</title>
<path fill="none" stroke="midnightblue" d="M623.234,-115.229C719.114,-107.164 897.01,-91.7366 1048.5,-76 1049.96,-75.8479 1051.44,-75.6924 1052.93,-75.534"/>
<polygon fill="midnightblue" stroke="midnightblue" points="1053.34,-79.0111 1062.9,-74.4531 1052.58,-72.052 1053.34,-79.0111"/>
</g>
<!-- Node23 -->
<g id="node23" class="node"><title>Node23</title>
<polygon fill="none" stroke="#bfbfbf" points="1205.5,-56.5 1205.5,-75.5 1401.5,-75.5 1401.5,-56.5 1205.5,-56.5"/>
<text text-anchor="middle" x="1303.5" y="-63.5" font-family="Helvetica,sans-Serif" font-size="10.00">rosee_msg/MotorPhalangePressure.h</text>
</g>
<!-- Node2&#45;&gt;Node23 -->
<g id="edge27" class="edge"><title>Node2&#45;&gt;Node23</title>
<path fill="none" stroke="midnightblue" d="M623.093,-116.479C739.382,-108.849 980.842,-92.686 1195.14,-76.1739"/>
<polygon fill="midnightblue" stroke="midnightblue" points="1195.63,-79.6471 1205.33,-75.3874 1195.09,-72.6679 1195.63,-79.6471"/>
</g>
<!-- Node12&#45;&gt;Node7 -->
<g id="edge13" class="edge"><title>Node12&#45;&gt;Node7</title>
<path fill="none" stroke="midnightblue" d="M438.399,-59.2924C373.876,-52.2312 263.61,-38.9923 159.158,-19.9478"/>
<polygon fill="midnightblue" stroke="midnightblue" points="159.539,-16.4591 149.07,-18.0867 158.269,-23.3429 159.539,-16.4591"/>
</g>
<!-- Node12&#45;&gt;Node9 -->
<g id="edge17" class="edge"><title>Node12&#45;&gt;Node9</title>
<path fill="none" stroke="midnightblue" d="M438.365,-56.8073C387.181,-48.9215 308.665,-36.1151 231.471,-20.0772"/>
<polygon fill="midnightblue" stroke="midnightblue" points="232.082,-16.6292 221.576,-18.0018 230.645,-23.4801 232.082,-16.6292"/>
</g>
<!-- Node13 -->
<g id="node13" class="node"><title>Node13</title>
<polygon fill="none" stroke="#bfbfbf" points="510,-0.5 510,-19.5 557,-19.5 557,-0.5 510,-0.5"/>
<text text-anchor="middle" x="533.5" y="-7.5" font-family="Helvetica,sans-Serif" font-size="10.00">cmath</text>
</g>
<!-- Node12&#45;&gt;Node13 -->
<g id="edge12" class="edge"><title>Node12&#45;&gt;Node13</title>
<path fill="none" stroke="midnightblue" d="M500.105,-56.083C505.755,-48.4554 514.045,-37.2645 520.951,-27.9408"/>
<polygon fill="midnightblue" stroke="midnightblue" points="523.878,-29.87 527.018,-19.7511 518.253,-25.7034 523.878,-29.87"/>
</g>
<!-- Node14 -->
<g id="node14" class="node"><title>Node14</title>
<polygon fill="none" stroke="#bfbfbf" points="575,-0.5 575,-19.5 634,-19.5 634,-0.5 575,-0.5"/>
<text text-anchor="middle" x="604.5" y="-7.5" font-family="Helvetica,sans-Serif" font-size="10.00">iostream</text>
</g>
<!-- Node12&#45;&gt;Node14 -->
<g id="edge14" class="edge"><title>Node12&#45;&gt;Node14</title>
<path fill="none" stroke="midnightblue" d="M511.334,-56.324C529.216,-47.6247 556.975,-34.1202 577.546,-24.113"/>
<polygon fill="midnightblue" stroke="midnightblue" points="579.249,-27.1765 586.71,-19.6545 576.187,-20.8819 579.249,-27.1765"/>
</g>
<!-- Node15 -->
<g id="node15" class="node"><title>Node15</title>
<polygon fill="none" stroke="#bfbfbf" points="652.5,-0.5 652.5,-19.5 700.5,-19.5 700.5,-0.5 652.5,-0.5"/>
<text text-anchor="middle" x="676.5" y="-7.5" font-family="Helvetica,sans-Serif" font-size="10.00">dlfcn.h</text>
</g>
<!-- Node12&#45;&gt;Node15 -->
<g id="edge15" class="edge"><title>Node12&#45;&gt;Node15</title>
<path fill="none" stroke="midnightblue" d="M522.497,-56.4435C555.152,-46.8075 608.153,-31.168 642.67,-20.9826"/>
<polygon fill="midnightblue" stroke="midnightblue" points="643.714,-24.324 652.314,-18.1368 641.732,-17.6102 643.714,-24.324"/>
</g>
<!-- Node16 -->
<g id="node16" class="node"><title>Node16</title>
<polygon fill="none" stroke="#bfbfbf" points="239.5,-0.5 239.5,-19.5 355.5,-19.5 355.5,-0.5 239.5,-0.5"/>
<text text-anchor="middle" x="297.5" y="-7.5" font-family="Helvetica,sans-Serif" font-size="10.00">boost/filesystem.hpp</text>
</g>
<!-- Node12&#45;&gt;Node16 -->
<g id="edge16" class="edge"><title>Node12&#45;&gt;Node16</title>
<path fill="none" stroke="midnightblue" d="M462.443,-56.4435C428.897,-47.2011 375.303,-32.4356 338.359,-22.2572"/>
<polygon fill="midnightblue" stroke="midnightblue" points="338.982,-18.7984 328.411,-19.5164 337.123,-25.5469 338.982,-18.7984"/>
</g>
<!-- Node17 -->
<g id="node17" class="node"><title>Node17</title>
<polygon fill="none" stroke="#bfbfbf" points="373.5,-0.5 373.5,-19.5 423.5,-19.5 423.5,-0.5 373.5,-0.5"/>
<text text-anchor="middle" x="398.5" y="-7.5" font-family="Helvetica,sans-Serif" font-size="10.00">chrono</text>
</g>
<!-- Node12&#45;&gt;Node17 -->
<g id="edge18" class="edge"><title>Node12&#45;&gt;Node17</title>
<path fill="none" stroke="midnightblue" d="M478.237,-56.324C463.279,-47.8215 440.245,-34.7288 422.773,-24.7975"/>
<polygon fill="midnightblue" stroke="midnightblue" points="424.149,-21.5534 413.726,-19.6545 420.69,-27.639 424.149,-21.5534"/>
</g>
<!-- Node18 -->
<g id="node18" class="node"><title>Node18</title>
<polygon fill="none" stroke="#bfbfbf" points="441.5,-0.5 441.5,-19.5 491.5,-19.5 491.5,-0.5 441.5,-0.5"/>
<text text-anchor="middle" x="466.5" y="-7.5" font-family="Helvetica,sans-Serif" font-size="10.00">atomic</text>
</g>
<!-- Node12&#45;&gt;Node18 -->
<g id="edge19" class="edge"><title>Node12&#45;&gt;Node18</title>
<path fill="none" stroke="midnightblue" d="M489.041,-56.083C485.346,-48.6913 479.977,-37.9533 475.406,-28.8111"/>
<polygon fill="midnightblue" stroke="midnightblue" points="478.478,-27.1301 470.876,-19.7511 472.217,-30.2606 478.478,-27.1301"/>
</g>
<!-- Node19&#45;&gt;Node10 -->
<g id="edge21" class="edge"><title>Node19&#45;&gt;Node10</title>
<path fill="none" stroke="midnightblue" d="M776.131,-56.4435C808,-47.2406 858.833,-32.5617 894.064,-22.3879"/>
<polygon fill="midnightblue" stroke="midnightblue" points="895.372,-25.6534 904.008,-19.5164 893.429,-18.9282 895.372,-25.6534"/>
</g>
<!-- Node20 -->
<g id="node20" class="node"><title>Node20</title>
<polygon fill="none" stroke="#bfbfbf" points="718.5,-0.5 718.5,-19.5 876.5,-19.5 876.5,-0.5 718.5,-0.5"/>
<text text-anchor="middle" x="797.5" y="-7.5" font-family="Helvetica,sans-Serif" font-size="10.00">std_msgs/Float32MultiArray.h</text>
</g>
<!-- Node19&#45;&gt;Node20 -->
<g id="edge22" class="edge"><title>Node19&#45;&gt;Node20</title>
<path fill="none" stroke="midnightblue" d="M754.922,-56.083C762.348,-48.2195 773.352,-36.5688 782.312,-27.0813"/>
<polygon fill="midnightblue" stroke="midnightblue" points="784.913,-29.4244 789.235,-19.7511 779.824,-24.618 784.913,-29.4244"/>
</g>
<!-- Node21&#45;&gt;Node10 -->
<g id="edge25" class="edge"><title>Node21&#45;&gt;Node10</title>
<path fill="none" stroke="midnightblue" d="M937.674,-56.083C937.019,-49.0059 936.08,-38.8611 935.258,-29.9865"/>
<polygon fill="midnightblue" stroke="midnightblue" points="938.717,-29.3858 934.31,-19.7511 931.747,-30.0312 938.717,-29.3858"/>
</g>
<!-- Node21&#45;&gt;Node11 -->
<g id="edge24" class="edge"><title>Node21&#45;&gt;Node11</title>
<path fill="none" stroke="midnightblue" d="M954.567,-56.324C970.458,-47.7428 995.007,-34.486 1013.46,-24.5224"/>
<polygon fill="midnightblue" stroke="midnightblue" points="1015.34,-27.4857 1022.47,-19.6545 1012.01,-21.3264 1015.34,-27.4857"/>
</g>
</g>
</svg>
