<?xml version="1.0" encoding="UTF-8" standalone="no"?>
<!DOCTYPE svg PUBLIC "-//W3C//DTD SVG 1.1//EN"
 "http://www.w3.org/Graphics/SVG/1.1/DTD/svg11.dtd">
<!-- Generated by graphviz version 2.38.0 (20140413.2041)
 -->
<!-- Title: /home/travis/build/ADVRHumanoids/ROSEndEffector/src/HAL/EEHalExecutor.cpp Pages: 1 -->
<svg width="1527pt" height="229pt"
 viewBox="0.00 0.00 1526.50 229.00" xmlns="http://www.w3.org/2000/svg" xmlns:xlink="http://www.w3.org/1999/xlink">
<g id="graph0" class="graph" transform="scale(1 1) rotate(0) translate(4 225)">
<title>/home/travis/build/ADVRHumanoids/ROSEndEffector/src/HAL/EEHalExecutor.cpp</title>
<!-- Node1 -->
<g id="node1" class="node"><title>Node1</title>
<polygon fill="#bfbfbf" stroke="black" points="62,-179.5 62,-220.5 241,-220.5 241,-179.5 62,-179.5"/>
<text text-anchor="start" x="70" y="-208.5" font-family="Helvetica,sans-Serif" font-size="10.00">/home/travis/build</text>
<text text-anchor="start" x="70" y="-197.5" font-family="Helvetica,sans-Serif" font-size="10.00">/ADVRHumanoids/ROSEndEffector</text>
<text text-anchor="middle" x="151.5" y="-186.5" font-family="Helvetica,sans-Serif" font-size="10.00">/src/HAL/EEHalExecutor.cpp</text>
</g>
<!-- Node2 -->
<g id="node2" class="node"><title>Node2</title>
<polygon fill="none" stroke="#bfbfbf" points="0,-56.5 0,-75.5 47,-75.5 47,-56.5 0,-56.5"/>
<text text-anchor="middle" x="23.5" y="-63.5" font-family="Helvetica,sans-Serif" font-size="10.00">vector</text>
</g>
<!-- Node1&#45;&gt;Node2 -->
<g id="edge1" class="edge"><title>Node1&#45;&gt;Node2</title>
<path fill="none" stroke="midnightblue" d="M132.337,-179.238C106.898,-153.004 62.4646,-107.182 39.0133,-82.9981"/>
<polygon fill="midnightblue" stroke="midnightblue" points="41.3965,-80.4281 31.9224,-75.6856 36.3712,-85.3012 41.3965,-80.4281"/>
</g>
<!-- Node3 -->
<g id="node3" class="node"><title>Node3</title>
<polygon fill="none" stroke="#bfbfbf" points="65,-56.5 65,-75.5 158,-75.5 158,-56.5 65,-56.5"/>
<text text-anchor="middle" x="111.5" y="-63.5" font-family="Helvetica,sans-Serif" font-size="10.00">unordered_map</text>
</g>
<!-- Node1&#45;&gt;Node3 -->
<g id="edge2" class="edge"><title>Node1&#45;&gt;Node3</title>
<path fill="none" stroke="midnightblue" d="M145.512,-179.238C137.804,-153.802 124.516,-109.953 117.035,-85.2652"/>
<polygon fill="midnightblue" stroke="midnightblue" points="120.382,-84.2408 114.132,-75.6856 113.683,-86.2709 120.382,-84.2408"/>
</g>
<!-- Node4 -->
<g id="node4" class="node"><title>Node4</title>
<polygon fill="none" stroke="#bfbfbf" points="176,-56.5 176,-75.5 235,-75.5 235,-56.5 176,-56.5"/>
<text text-anchor="middle" x="205.5" y="-63.5" font-family="Helvetica,sans-Serif" font-size="10.00">ros/ros.h</text>
</g>
<!-- Node1&#45;&gt;Node4 -->
<g id="edge3" class="edge"><title>Node1&#45;&gt;Node4</title>
<path fill="none" stroke="midnightblue" d="M159.584,-179.238C169.99,-153.802 187.928,-109.953 198.028,-85.2652"/>
<polygon fill="midnightblue" stroke="midnightblue" points="201.4,-86.2663 201.947,-75.6856 194.921,-83.6158 201.4,-86.2663"/>
</g>
<!-- Node5 -->
<g id="node5" class="node"><title>Node5</title>
<g id="a_node5"><a xlink:href="EEHal_8h.html" target="_top" xlink:title="ros_end_effector/HAL\l/EEHal.h">
<polygon fill="none" stroke="black" points="730,-112.5 730,-142.5 849,-142.5 849,-112.5 730,-112.5"/>
<text text-anchor="start" x="738" y="-130.5" font-family="Helvetica,sans-Serif" font-size="10.00">ros_end_effector/HAL</text>
<text text-anchor="middle" x="789.5" y="-119.5" font-family="Helvetica,sans-Serif" font-size="10.00">/EEHal.h</text>
</a>
</g>
</g>
<!-- Node1&#45;&gt;Node5 -->
<g id="edge4" class="edge"><title>Node1&#45;&gt;Node5</title>
<path fill="none" stroke="midnightblue" d="M241.22,-189.086C369.653,-174.894 603.226,-149.084 719.646,-136.219"/>
<polygon fill="midnightblue" stroke="midnightblue" points="720.306,-139.667 729.861,-135.09 719.537,-132.71 720.306,-139.667"/>
</g>
<!-- Node5&#45;&gt;Node2 -->
<g id="edge8" class="edge"><title>Node5&#45;&gt;Node2</title>
<path fill="none" stroke="midnightblue" d="M729.54,-126.526C605.341,-125.685 311.023,-119.05 57.2884,-75.9794"/>
<polygon fill="midnightblue" stroke="midnightblue" points="57.5898,-72.4799 47.1411,-74.2335 56.4029,-79.3785 57.5898,-72.4799"/>
</g>
<!-- Node5&#45;&gt;Node3 -->
<g id="edge10" class="edge"><title>Node5&#45;&gt;Node3</title>
<path fill="none" stroke="midnightblue" d="M729.631,-123.271C620.151,-117.012 380.155,-101.652 168.335,-76.1414"/>
<polygon fill="midnightblue" stroke="midnightblue" points="168.62,-72.6503 158.271,-74.9189 167.776,-79.5992 168.62,-72.6503"/>
</g>
<!-- Node5&#45;&gt;Node4 -->
<g id="edge5" class="edge"><title>Node5&#45;&gt;Node4</title>
<path fill="none" stroke="midnightblue" d="M729.896,-123.604C631.13,-118.23 427.239,-104.702 245.251,-75.8995"/>
<polygon fill="midnightblue" stroke="midnightblue" points="245.657,-72.4199 235.229,-74.2941 244.55,-79.3318 245.657,-72.4199"/>
</g>
<!-- Node6 -->
<g id="node6" class="node"><title>Node6</title>
<polygon fill="none" stroke="#bfbfbf" points="610,-56.5 610,-75.5 749,-75.5 749,-56.5 610,-56.5"/>
<text text-anchor="middle" x="679.5" y="-63.5" font-family="Helvetica,sans-Serif" font-size="10.00">sensor_msgs/JointState.h</text>
</g>
<!-- Node5&#45;&gt;Node6 -->
<g id="edge6" class="edge"><title>Node5&#45;&gt;Node6</title>
<path fill="none" stroke="midnightblue" d="M763.432,-112.399C745.635,-102.773 722.188,-90.0902 704.601,-80.5772"/>
<polygon fill="midnightblue" stroke="midnightblue" points="705.967,-77.337 695.506,-75.6578 702.636,-83.494 705.967,-77.337"/>
</g>
<!-- Node7 -->
<g id="node7" class="node"><title>Node7</title>
<polygon fill="none" stroke="#bfbfbf" points="767.5,-56.5 767.5,-75.5 811.5,-75.5 811.5,-56.5 767.5,-56.5"/>
<text text-anchor="middle" x="789.5" y="-63.5" font-family="Helvetica,sans-Serif" font-size="10.00">string</text>
</g>
<!-- Node5&#45;&gt;Node7 -->
<g id="edge7" class="edge"><title>Node5&#45;&gt;Node7</title>
<path fill="none" stroke="midnightblue" d="M789.5,-112.399C789.5,-104.466 789.5,-94.458 789.5,-85.8583"/>
<polygon fill="midnightblue" stroke="midnightblue" points="793,-85.6577 789.5,-75.6578 786,-85.6578 793,-85.6577"/>
</g>
<!-- Node8 -->
<g id="node8" class="node"><title>Node8</title>
<polygon fill="none" stroke="#bfbfbf" points="1075,-0.5 1075,-19.5 1132,-19.5 1132,-0.5 1075,-0.5"/>
<text text-anchor="middle" x="1103.5" y="-7.5" font-family="Helvetica,sans-Serif" font-size="10.00">memory</text>
</g>
<!-- Node5&#45;&gt;Node8 -->
<g id="edge9" class="edge"><title>Node5&#45;&gt;Node8</title>
<path fill="none" stroke="midnightblue" d="M849.357,-118.541C893.997,-111.2 955.761,-98.0235 1006.5,-76 1036.36,-63.0397 1066.92,-40.7656 1085.56,-25.9602"/>
<polygon fill="midnightblue" stroke="midnightblue" points="1087.9,-28.5688 1093.47,-19.5546 1083.49,-23.1296 1087.9,-28.5688"/>
</g>
<!-- Node9 -->
<g id="node9" class="node"><title>Node9</title>
<polygon fill="none" stroke="#bfbfbf" points="523.5,-0.5 523.5,-19.5 577.5,-19.5 577.5,-0.5 523.5,-0.5"/>
<text text-anchor="middle" x="550.5" y="-7.5" font-family="Helvetica,sans-Serif" font-size="10.00">fstream</text>
</g>
<!-- Node5&#45;&gt;Node9 -->
<g id="edge11" class="edge"><title>Node5&#45;&gt;Node9</title>
<path fill="none" stroke="midnightblue" d="M803.912,-112.456C817.835,-97.191 834.865,-72.7439 820.5,-56 787.982,-18.0972 652.83,-29.0765 587.436,-19.7354"/>
<polygon fill="midnightblue" stroke="midnightblue" points="588.012,-16.2832 577.566,-18.0511 586.835,-23.1834 588.012,-16.2832"/>
</g>
<!-- Node10 -->
<g id="node10" class="node"><title>Node10</title>
<polygon fill="none" stroke="#bfbfbf" points="1265,-0.5 1265,-19.5 1342,-19.5 1342,-0.5 1265,-0.5"/>
<text text-anchor="middle" x="1303.5" y="-7.5" font-family="Helvetica,sans-Serif" font-size="10.00">Eigen/Dense</text>
</g>
<!-- Node5&#45;&gt;Node10 -->
<g id="edge12" class="edge"><title>Node5&#45;&gt;Node10</title>
<path fill="none" stroke="midnightblue" d="M849.371,-127.087C962.523,-127.1 1202.45,-121.564 1269.5,-76 1285.27,-65.287 1294.22,-44.8824 1298.94,-29.7806"/>
<polygon fill="midnightblue" stroke="midnightblue" points="1302.37,-30.507 1301.66,-19.9358 1295.62,-28.6408 1302.37,-30.507"/>
</g>
<!-- Node11 -->
<g id="node11" class="node"><title>Node11</title>
<polygon fill="none" stroke="#bfbfbf" points="1150.5,-0.5 1150.5,-19.5 1246.5,-19.5 1246.5,-0.5 1150.5,-0.5"/>
<text text-anchor="middle" x="1198.5" y="-7.5" font-family="Helvetica,sans-Serif" font-size="10.00">yaml&#45;cpp/yaml.h</text>
</g>
<!-- Node5&#45;&gt;Node11 -->
<g id="edge13" class="edge"><title>Node5&#45;&gt;Node11</title>
<path fill="none" stroke="midnightblue" d="M849.129,-117.608C900.058,-109.256 974.945,-95.1729 1038.5,-76 1086.42,-61.5445 1139.88,-38.3025 1171.28,-23.8798"/>
<polygon fill="midnightblue" stroke="midnightblue" points="1173.06,-26.9107 1180.66,-19.5293 1170.11,-20.56 1173.06,-26.9107"/>
</g>
<!-- Node12 -->
<g id="node12" class="node"><title>Node12</title>
<g id="a_node12"><a xlink:href="Utils_8h.html" target="_top" xlink:title="ros_end_effector/Utils.h">
<polygon fill="none" stroke="black" points="867.5,-56.5 867.5,-75.5 997.5,-75.5 997.5,-56.5 867.5,-56.5"/>
<text text-anchor="middle" x="932.5" y="-63.5" font-family="Helvetica,sans-Serif" font-size="10.00">ros_end_effector/Utils.h</text>
</a>
</g>
</g>
<!-- Node5&#45;&gt;Node12 -->
<g id="edge14" class="edge"><title>Node5&#45;&gt;Node12</title>
<path fill="none" stroke="midnightblue" d="M823.389,-112.399C847.382,-102.416 879.274,-89.1465 902.377,-79.5335"/>
<polygon fill="midnightblue" stroke="midnightblue" points="903.804,-82.7308 911.692,-75.6578 901.115,-76.268 903.804,-82.7308"/>
</g>
<!-- Node19 -->
<g id="node19" class="node"><title>Node19</title>
<g id="a_node19"><a xlink:href="UtilsEigen_8h.html" target="_top" xlink:title="ros_end_effector/UtilsEigen.h">
<polygon fill="none" stroke="black" points="1316.5,-56.5 1316.5,-75.5 1472.5,-75.5 1472.5,-56.5 1316.5,-56.5"/>
<text text-anchor="middle" x="1394.5" y="-63.5" font-family="Helvetica,sans-Serif" font-size="10.00">ros_end_effector/UtilsEigen.h</text>
</a>
</g>
</g>
<!-- Node5&#45;&gt;Node19 -->
<g id="edge23" class="edge"><title>Node5&#45;&gt;Node19</title>
<path fill="none" stroke="midnightblue" d="M849.165,-120.632C956.16,-110.109 1181.12,-87.9849 1306.09,-75.695"/>
<polygon fill="midnightblue" stroke="midnightblue" points="1306.78,-79.1443 1316.39,-74.6823 1306.09,-72.1779 1306.78,-79.1443"/>
</g>
<!-- Node21 -->
<g id="node21" class="node"><title>Node21</title>
<g id="a_node21"><a xlink:href="UtilsYAML_8h.html" target="_top" xlink:title="ros_end_effector/UtilsYAML.h">
<polygon fill="none" stroke="black" points="1105,-56.5 1105,-75.5 1260,-75.5 1260,-56.5 1105,-56.5"/>
<text text-anchor="middle" x="1182.5" y="-63.5" font-family="Helvetica,sans-Serif" font-size="10.00">ros_end_effector/UtilsYAML.h</text>
</a>
</g>
</g>
<!-- Node5&#45;&gt;Node21 -->
<g id="edge26" class="edge"><title>Node5&#45;&gt;Node21</title>
<path fill="none" stroke="midnightblue" d="M849.188,-117.463C920.967,-106.596 1041.1,-88.4085 1115.85,-77.0915"/>
<polygon fill="midnightblue" stroke="midnightblue" points="1116.72,-80.4993 1126.08,-75.5417 1115.67,-73.5782 1116.72,-80.4993"/>
</g>
<!-- Node22 -->
<g id="node22" class="node"><title>Node22</title>
<polygon fill="none" stroke="#bfbfbf" points="253,-56.5 253,-75.5 378,-75.5 378,-56.5 253,-56.5"/>
<text text-anchor="middle" x="315.5" y="-63.5" font-family="Helvetica,sans-Serif" font-size="10.00">rosee_msg/HandInfo.h</text>
</g>
<!-- Node5&#45;&gt;Node22 -->
<g id="edge29" class="edge"><title>Node5&#45;&gt;Node22</title>
<path fill="none" stroke="midnightblue" d="M729.752,-119.04C653.066,-109.459 515.607,-92.2652 388.158,-76.2078"/>
<polygon fill="midnightblue" stroke="midnightblue" points="388.578,-72.7331 378.219,-74.9553 387.703,-79.6782 388.578,-72.7331"/>
</g>
<!-- Node23 -->
<g id="node23" class="node"><title>Node23</title>
<polygon fill="none" stroke="#bfbfbf" points="395.5,-56.5 395.5,-75.5 591.5,-75.5 591.5,-56.5 395.5,-56.5"/>
<text text-anchor="middle" x="493.5" y="-63.5" font-family="Helvetica,sans-Serif" font-size="10.00">rosee_msg/MotorPhalangePressure.h</text>
</g>
<!-- Node5&#45;&gt;Node23 -->
<g id="edge30" class="edge"><title>Node5&#45;&gt;Node23</title>
<path fill="none" stroke="midnightblue" d="M729.956,-114.531C676.144,-103.714 597.689,-87.9434 546.131,-77.5794"/>
<polygon fill="midnightblue" stroke="midnightblue" points="546.686,-74.1213 536.193,-75.5818 545.307,-80.984 546.686,-74.1213"/>
</g>
<!-- Node12&#45;&gt;Node8 -->
<g id="edge16" class="edge"><title>Node12&#45;&gt;Node8</title>
<path fill="none" stroke="midnightblue" d="M959.595,-56.4435C988.488,-47.3196 1034.42,-32.8133 1066.61,-22.6509"/>
<polygon fill="midnightblue" stroke="midnightblue" points="1068.05,-25.8654 1076.53,-19.5164 1065.94,-19.1903 1068.05,-25.8654"/>
</g>
<!-- Node12&#45;&gt;Node9 -->
<g id="edge20" class="edge"><title>Node12&#45;&gt;Node9</title>
<path fill="none" stroke="midnightblue" d="M867.234,-57.4261C786.675,-47.9269 653.23,-31.6638 587.502,-19.9575"/>
<polygon fill="midnightblue" stroke="midnightblue" points="588.022,-16.4944 577.553,-18.1195 586.75,-23.378 588.022,-16.4944"/>
</g>
<!-- Node13 -->
<g id="node13" class="node"><title>Node13</title>
<polygon fill="none" stroke="#bfbfbf" points="664,-0.5 664,-19.5 711,-19.5 711,-0.5 664,-0.5"/>
<text text-anchor="middle" x="687.5" y="-7.5" font-family="Helvetica,sans-Serif" font-size="10.00">cmath</text>
</g>
<!-- Node12&#45;&gt;Node13 -->
<g id="edge15" class="edge"><title>Node12&#45;&gt;Node13</title>
<path fill="none" stroke="midnightblue" d="M888.484,-56.4196C847.59,-48.277 784.783,-35.3395 721.068,-20.0281"/>
<polygon fill="midnightblue" stroke="midnightblue" points="721.794,-16.6028 711.251,-17.6516 720.147,-23.4063 721.794,-16.6028"/>
</g>
<!-- Node14 -->
<g id="node14" class="node"><title>Node14</title>
<polygon fill="none" stroke="#bfbfbf" points="729,-0.5 729,-19.5 788,-19.5 788,-0.5 729,-0.5"/>
<text text-anchor="middle" x="758.5" y="-7.5" font-family="Helvetica,sans-Serif" font-size="10.00">iostream</text>
</g>
<!-- Node12&#45;&gt;Node14 -->
<g id="edge17" class="edge"><title>Node12&#45;&gt;Node14</title>
<path fill="none" stroke="midnightblue" d="M904.929,-56.4435C875.403,-47.2801 828.382,-32.6876 795.617,-22.5192"/>
<polygon fill="midnightblue" stroke="midnightblue" points="796.53,-19.1378 785.942,-19.5164 794.455,-25.8232 796.53,-19.1378"/>
</g>
<!-- Node15 -->
<g id="node15" class="node"><title>Node15</title>
<polygon fill="none" stroke="#bfbfbf" points="806.5,-0.5 806.5,-19.5 854.5,-19.5 854.5,-0.5 806.5,-0.5"/>
<text text-anchor="middle" x="830.5" y="-7.5" font-family="Helvetica,sans-Serif" font-size="10.00">dlfcn.h</text>
</g>
<!-- Node12&#45;&gt;Node15 -->
<g id="edge18" class="edge"><title>Node12&#45;&gt;Node15</title>
<path fill="none" stroke="midnightblue" d="M916.112,-56.324C899.829,-47.7034 874.633,-34.3643 855.784,-24.3855"/>
<polygon fill="midnightblue" stroke="midnightblue" points="857.323,-21.2402 846.847,-19.6545 854.048,-27.4267 857.323,-21.2402"/>
</g>
<!-- Node16 -->
<g id="node16" class="node"><title>Node16</title>
<polygon fill="none" stroke="#bfbfbf" points="872.5,-0.5 872.5,-19.5 988.5,-19.5 988.5,-0.5 872.5,-0.5"/>
<text text-anchor="middle" x="930.5" y="-7.5" font-family="Helvetica,sans-Serif" font-size="10.00">boost/filesystem.hpp</text>
</g>
<!-- Node12&#45;&gt;Node16 -->
<g id="edge19" class="edge"><title>Node12&#45;&gt;Node16</title>
<path fill="none" stroke="midnightblue" d="M932.17,-56.083C931.908,-49.0059 931.532,-38.8611 931.203,-29.9865"/>
<polygon fill="midnightblue" stroke="midnightblue" points="934.692,-29.6147 930.824,-19.7511 927.697,-29.8738 934.692,-29.6147"/>
</g>
<!-- Node17 -->
<g id="node17" class="node"><title>Node17</title>
<polygon fill="none" stroke="#bfbfbf" points="1006.5,-0.5 1006.5,-19.5 1056.5,-19.5 1056.5,-0.5 1006.5,-0.5"/>
<text text-anchor="middle" x="1031.5" y="-7.5" font-family="Helvetica,sans-Serif" font-size="10.00">chrono</text>
</g>
<!-- Node12&#45;&gt;Node17 -->
<g id="edge21" class="edge"><title>Node12&#45;&gt;Node17</title>
<path fill="none" stroke="midnightblue" d="M948.406,-56.324C964.138,-47.7428 988.442,-34.486 1006.71,-24.5224"/>
<polygon fill="midnightblue" stroke="midnightblue" points="1008.53,-27.5157 1015.63,-19.6545 1005.18,-21.3704 1008.53,-27.5157"/>
</g>
<!-- Node18 -->
<g id="node18" class="node"><title>Node18</title>
<polygon fill="none" stroke="#bfbfbf" points="595.5,-0.5 595.5,-19.5 645.5,-19.5 645.5,-0.5 595.5,-0.5"/>
<text text-anchor="middle" x="620.5" y="-7.5" font-family="Helvetica,sans-Serif" font-size="10.00">atomic</text>
</g>
<!-- Node12&#45;&gt;Node18 -->
<g id="edge22" class="edge"><title>Node12&#45;&gt;Node18</title>
<path fill="none" stroke="midnightblue" d="M869.769,-56.4653C813.43,-48.4075 728.58,-35.2993 655.5,-20 655.4,-19.9791 655.3,-19.9581 655.2,-19.937"/>
<polygon fill="midnightblue" stroke="midnightblue" points="656.199,-16.5751 645.671,-17.7633 654.642,-23.3997 656.199,-16.5751"/>
</g>
<!-- Node19&#45;&gt;Node10 -->
<g id="edge24" class="edge"><title>Node19&#45;&gt;Node10</title>
<path fill="none" stroke="midnightblue" d="M1379.88,-56.324C1365.55,-47.8215 1343.49,-34.7288 1326.75,-24.7975"/>
<polygon fill="midnightblue" stroke="midnightblue" points="1328.47,-21.7478 1318.08,-19.6545 1324.9,-27.7677 1328.47,-21.7478"/>
</g>
<!-- Node20 -->
<g id="node20" class="node"><title>Node20</title>
<polygon fill="none" stroke="#bfbfbf" points="1360.5,-0.5 1360.5,-19.5 1518.5,-19.5 1518.5,-0.5 1360.5,-0.5"/>
<text text-anchor="middle" x="1439.5" y="-7.5" font-family="Helvetica,sans-Serif" font-size="10.00">std_msgs/Float32MultiArray.h</text>
</g>
<!-- Node19&#45;&gt;Node20 -->
<g id="edge25" class="edge"><title>Node19&#45;&gt;Node20</title>
<path fill="none" stroke="midnightblue" d="M1401.93,-56.083C1408.35,-48.3768 1417.81,-37.0333 1425.62,-27.6531"/>
<polygon fill="midnightblue" stroke="midnightblue" points="1428.49,-29.674 1432.21,-19.7511 1423.12,-25.1927 1428.49,-29.674"/>
</g>
<!-- Node21&#45;&gt;Node10 -->
<g id="edge28" class="edge"><title>Node21&#45;&gt;Node10</title>
<path fill="none" stroke="midnightblue" d="M1201.67,-56.4435C1221.41,-47.6356 1252.39,-33.8116 1274.99,-23.722"/>
<polygon fill="midnightblue" stroke="midnightblue" points="1276.71,-26.788 1284.42,-19.5164 1273.86,-20.3957 1276.71,-26.788"/>
</g>
<!-- Node21&#45;&gt;Node11 -->
<g id="edge27" class="edge"><title>Node21&#45;&gt;Node11</title>
<path fill="none" stroke="midnightblue" d="M1185.14,-56.083C1187.29,-48.8486 1190.38,-38.4087 1193.05,-29.3968"/>
<polygon fill="midnightblue" stroke="midnightblue" points="1196.42,-30.3334 1195.91,-19.7511 1189.71,-28.3447 1196.42,-30.3334"/>
</g>
</g>
</svg>
