<?xml version="1.0" encoding="UTF-8" standalone="no"?>
<!DOCTYPE svg PUBLIC "-//W3C//DTD SVG 1.1//EN"
 "http://www.w3.org/Graphics/SVG/1.1/DTD/svg11.dtd">
<!-- Generated by graphviz version 2.38.0 (20140413.2041)
 -->
<!-- Title: /home/travis/build/ADVRHumanoids/ROSEndEffector/include/end_effector/HAL/EEHal.h Pages: 1 -->
<svg width="778pt" height="217pt"
 viewBox="0.00 0.00 778.00 217.00" xmlns="http://www.w3.org/2000/svg" xmlns:xlink="http://www.w3.org/1999/xlink">
<g id="graph0" class="graph" transform="scale(1 1) rotate(0) translate(4 213)">
<title>/home/travis/build/ADVRHumanoids/ROSEndEffector/include/end_effector/HAL/EEHal.h</title>
<!-- Node1 -->
<g id="node1" class="node"><title>Node1</title>
<polygon fill="#bfbfbf" stroke="black" points="295,-167.5 295,-208.5 474,-208.5 474,-167.5 295,-167.5"/>
<text text-anchor="start" x="303" y="-196.5" font-family="Helvetica,sans-Serif" font-size="10.00">/home/travis/build</text>
<text text-anchor="start" x="303" y="-185.5" font-family="Helvetica,sans-Serif" font-size="10.00">/ADVRHumanoids/ROSEndEffector</text>
<text text-anchor="middle" x="384.5" y="-174.5" font-family="Helvetica,sans-Serif" font-size="10.00">/include/end_effector/HAL/EEHal.h</text>
</g>
<!-- Node2 -->
<g id="node2" class="node"><title>Node2</title>
<g id="a_node2"><a xlink:href="DummyHal_8h.html" target="_top" xlink:title="/home/travis/build\l/ADVRHumanoids/ROSEndEffector\l/include/end_effector/HAL\l/DummyHal.h">
<polygon fill="none" stroke="black" points="0,-78.5 0,-130.5 179,-130.5 179,-78.5 0,-78.5"/>
<text text-anchor="start" x="8" y="-118.5" font-family="Helvetica,sans-Serif" font-size="10.00">/home/travis/build</text>
<text text-anchor="start" x="8" y="-107.5" font-family="Helvetica,sans-Serif" font-size="10.00">/ADVRHumanoids/ROSEndEffector</text>
<text text-anchor="start" x="8" y="-96.5" font-family="Helvetica,sans-Serif" font-size="10.00">/include/end_effector/HAL</text>
<text text-anchor="middle" x="89.5" y="-85.5" font-family="Helvetica,sans-Serif" font-size="10.00">/DummyHal.h</text>
</a>
</g>
</g>
<!-- Node1&#45;&gt;Node2 -->
<g id="edge1" class="edge"><title>Node1&#45;&gt;Node2</title>
<path fill="none" stroke="midnightblue" d="M304.185,-164.811C265.511,-154.127 219,-141.277 179.172,-130.274"/>
<polygon fill="midnightblue" stroke="midnightblue" points="303.269,-168.189 313.84,-167.479 305.133,-161.442 303.269,-168.189"/>
</g>
<!-- Node4 -->
<g id="node4" class="node"><title>Node4</title>
<g id="a_node4"><a xlink:href="XBot2Hal_8h.html" target="_top" xlink:title="/home/travis/build\l/ADVRHumanoids/ROSEndEffector\l/include/end_effector/HAL\l/XBot2Hal.h">
<polygon fill="none" stroke="black" points="197,-78.5 197,-130.5 376,-130.5 376,-78.5 197,-78.5"/>
<text text-anchor="start" x="205" y="-118.5" font-family="Helvetica,sans-Serif" font-size="10.00">/home/travis/build</text>
<text text-anchor="start" x="205" y="-107.5" font-family="Helvetica,sans-Serif" font-size="10.00">/ADVRHumanoids/ROSEndEffector</text>
<text text-anchor="start" x="205" y="-96.5" font-family="Helvetica,sans-Serif" font-size="10.00">/include/end_effector/HAL</text>
<text text-anchor="middle" x="286.5" y="-85.5" font-family="Helvetica,sans-Serif" font-size="10.00">/XBot2Hal.h</text>
</a>
</g>
</g>
<!-- Node1&#45;&gt;Node4 -->
<g id="edge3" class="edge"><title>Node1&#45;&gt;Node4</title>
<path fill="none" stroke="midnightblue" d="M353.001,-160.804C341.363,-151.126 328.209,-140.187 316.69,-130.607"/>
<polygon fill="midnightblue" stroke="midnightblue" points="350.85,-163.568 360.777,-167.271 355.326,-158.186 350.85,-163.568"/>
</g>
<!-- Node6 -->
<g id="node6" class="node"><title>Node6</title>
<g id="a_node6"><a xlink:href="EEHal_8cpp.html" target="_top" xlink:title="/home/travis/build\l/ADVRHumanoids/ROSEndEffector\l/src/HAL/EEHal.cpp">
<polygon fill="none" stroke="black" points="394,-84 394,-125 573,-125 573,-84 394,-84"/>
<text text-anchor="start" x="402" y="-113" font-family="Helvetica,sans-Serif" font-size="10.00">/home/travis/build</text>
<text text-anchor="start" x="402" y="-102" font-family="Helvetica,sans-Serif" font-size="10.00">/ADVRHumanoids/ROSEndEffector</text>
<text text-anchor="middle" x="483.5" y="-91" font-family="Helvetica,sans-Serif" font-size="10.00">/src/HAL/EEHal.cpp</text>
</a>
</g>
</g>
<!-- Node1&#45;&gt;Node6 -->
<g id="edge5" class="edge"><title>Node1&#45;&gt;Node6</title>
<path fill="none" stroke="midnightblue" d="M416.21,-160.895C430.299,-149.297 446.606,-135.873 459.637,-125.144"/>
<polygon fill="midnightblue" stroke="midnightblue" points="413.709,-158.421 408.213,-167.479 418.158,-163.825 413.709,-158.421"/>
</g>
<!-- Node7 -->
<g id="node7" class="node"><title>Node7</title>
<g id="a_node7"><a xlink:href="EEHalExecutor_8cpp.html" target="_top" xlink:title="/home/travis/build\l/ADVRHumanoids/ROSEndEffector\l/src/HAL/EEHalExecutor.cpp">
<polygon fill="none" stroke="black" points="591,-84 591,-125 770,-125 770,-84 591,-84"/>
<text text-anchor="start" x="599" y="-113" font-family="Helvetica,sans-Serif" font-size="10.00">/home/travis/build</text>
<text text-anchor="start" x="599" y="-102" font-family="Helvetica,sans-Serif" font-size="10.00">/ADVRHumanoids/ROSEndEffector</text>
<text text-anchor="middle" x="680.5" y="-91" font-family="Helvetica,sans-Serif" font-size="10.00">/src/HAL/EEHalExecutor.cpp</text>
</a>
</g>
</g>
<!-- Node1&#45;&gt;Node7 -->
<g id="edge6" class="edge"><title>Node1&#45;&gt;Node7</title>
<path fill="none" stroke="midnightblue" d="M465.165,-164.79C510.351,-152.349 566.179,-136.977 609.667,-125.003"/>
<polygon fill="midnightblue" stroke="midnightblue" points="464.111,-161.45 455.399,-167.479 465.97,-168.198 464.111,-161.45"/>
</g>
<!-- Node3 -->
<g id="node3" class="node"><title>Node3</title>
<g id="a_node3"><a xlink:href="DummyHal_8cpp.html" target="_top" xlink:title="/home/travis/build\l/ADVRHumanoids/ROSEndEffector\l/src/HAL/DummyHal.cpp">
<polygon fill="none" stroke="black" points="0,-0.5 0,-41.5 179,-41.5 179,-0.5 0,-0.5"/>
<text text-anchor="start" x="8" y="-29.5" font-family="Helvetica,sans-Serif" font-size="10.00">/home/travis/build</text>
<text text-anchor="start" x="8" y="-18.5" font-family="Helvetica,sans-Serif" font-size="10.00">/ADVRHumanoids/ROSEndEffector</text>
<text text-anchor="middle" x="89.5" y="-7.5" font-family="Helvetica,sans-Serif" font-size="10.00">/src/HAL/DummyHal.cpp</text>
</a>
</g>
</g>
<!-- Node2&#45;&gt;Node3 -->
<g id="edge2" class="edge"><title>Node2&#45;&gt;Node3</title>
<path fill="none" stroke="midnightblue" d="M89.5,-68.1474C89.5,-59.0546 89.5,-49.5968 89.5,-41.6282"/>
<polygon fill="midnightblue" stroke="midnightblue" points="86.0001,-68.1596 89.5,-78.1596 93.0001,-68.1597 86.0001,-68.1596"/>
</g>
<!-- Node5 -->
<g id="node5" class="node"><title>Node5</title>
<g id="a_node5"><a xlink:href="XBot2Hal_8cpp.html" target="_top" xlink:title="/home/travis/build\l/ADVRHumanoids/ROSEndEffector\l/src/HAL/XBot2Hal.cpp">
<polygon fill="none" stroke="black" points="197,-0.5 197,-41.5 376,-41.5 376,-0.5 197,-0.5"/>
<text text-anchor="start" x="205" y="-29.5" font-family="Helvetica,sans-Serif" font-size="10.00">/home/travis/build</text>
<text text-anchor="start" x="205" y="-18.5" font-family="Helvetica,sans-Serif" font-size="10.00">/ADVRHumanoids/ROSEndEffector</text>
<text text-anchor="middle" x="286.5" y="-7.5" font-family="Helvetica,sans-Serif" font-size="10.00">/src/HAL/XBot2Hal.cpp</text>
</a>
</g>
</g>
<!-- Node4&#45;&gt;Node5 -->
<g id="edge4" class="edge"><title>Node4&#45;&gt;Node5</title>
<path fill="none" stroke="midnightblue" d="M286.5,-68.1474C286.5,-59.0546 286.5,-49.5968 286.5,-41.6282"/>
<polygon fill="midnightblue" stroke="midnightblue" points="283,-68.1596 286.5,-78.1596 290,-68.1597 283,-68.1596"/>
</g>
</g>
</svg>
