<?xml version="1.0" encoding="UTF-8" standalone="no"?>
<!DOCTYPE svg PUBLIC "-//W3C//DTD SVG 1.1//EN"
 "http://www.w3.org/Graphics/SVG/1.1/DTD/svg11.dtd">
<!-- Generated by graphviz version 2.38.0 (20140413.2041)
 -->
<!-- Title: /home/travis/build/ADVRHumanoids/ROSEndEffector/src/EEHal.cpp Pages: 1 -->
<svg width="834pt" height="274pt"
 viewBox="0.00 0.00 833.99 274.00" xmlns="http://www.w3.org/2000/svg" xmlns:xlink="http://www.w3.org/1999/xlink">
<g id="graph0" class="graph" transform="scale(1 1) rotate(0) translate(4 270)">
<title>/home/travis/build/ADVRHumanoids/ROSEndEffector/src/EEHal.cpp</title>
<!-- Node1 -->
<g id="node1" class="node"><title>Node1</title>
<polygon fill="#bfbfbf" stroke="black" points="38.4888,-224.5 38.4888,-265.5 217.489,-265.5 217.489,-224.5 38.4888,-224.5"/>
<text text-anchor="start" x="46.4888" y="-253.5" font-family="Helvetica,sans-Serif" font-size="10.00">/home/travis/build</text>
<text text-anchor="start" x="46.4888" y="-242.5" font-family="Helvetica,sans-Serif" font-size="10.00">/ADVRHumanoids/ROSEndEffector</text>
<text text-anchor="middle" x="127.989" y="-231.5" font-family="Helvetica,sans-Serif" font-size="10.00">/src/EEHal.cpp</text>
</g>
<!-- Node2 -->
<g id="node2" class="node"><title>Node2</title>
<g id="a_node2"><a xlink:href="EEHal_8h.html" target="_top" xlink:title="ROSEndEffector/EEHal.h">
<polygon fill="none" stroke="black" points="62.4888,-168.5 62.4888,-187.5 193.489,-187.5 193.489,-168.5 62.4888,-168.5"/>
<text text-anchor="middle" x="127.989" y="-175.5" font-family="Helvetica,sans-Serif" font-size="10.00">ROSEndEffector/EEHal.h</text>
</a>
</g>
</g>
<!-- Node1&#45;&gt;Node2 -->
<g id="edge1" class="edge"><title>Node1&#45;&gt;Node2</title>
<path fill="none" stroke="midnightblue" d="M127.989,-224.498C127.989,-216.065 127.989,-206.235 127.989,-197.874"/>
<polygon fill="midnightblue" stroke="midnightblue" points="131.489,-197.652 127.989,-187.652 124.489,-197.653 131.489,-197.652"/>
</g>
<!-- Node3 -->
<g id="node3" class="node"><title>Node3</title>
<g id="a_node3"><a xlink:href="IMotor_8h.html" target="_top" xlink:title="ROSEndEffector/IMotor.h">
<polygon fill="none" stroke="black" points="13.9888,-112.5 13.9888,-131.5 147.989,-131.5 147.989,-112.5 13.9888,-112.5"/>
<text text-anchor="middle" x="80.9888" y="-119.5" font-family="Helvetica,sans-Serif" font-size="10.00">ROSEndEffector/IMotor.h</text>
</a>
</g>
</g>
<!-- Node2&#45;&gt;Node3 -->
<g id="edge2" class="edge"><title>Node2&#45;&gt;Node3</title>
<path fill="none" stroke="midnightblue" d="M120.228,-168.083C113.452,-160.298 103.446,-148.801 95.2338,-139.367"/>
<polygon fill="midnightblue" stroke="midnightblue" points="97.8109,-136.996 88.6055,-131.751 92.5307,-141.592 97.8109,-136.996"/>
</g>
<!-- Node4 -->
<g id="node4" class="node"><title>Node4</title>
<polygon fill="none" stroke="#bfbfbf" points="0.988835,-56.5 0.988835,-75.5 44.9888,-75.5 44.9888,-56.5 0.988835,-56.5"/>
<text text-anchor="middle" x="22.9888" y="-63.5" font-family="Helvetica,sans-Serif" font-size="10.00">string</text>
</g>
<!-- Node2&#45;&gt;Node4 -->
<g id="edge17" class="edge"><title>Node2&#45;&gt;Node4</title>
<path fill="none" stroke="midnightblue" d="M62.7559,-168.47C40.7197,-162.123 18.3412,-151.103 4.98884,-132 -4.93103,-117.808 2.61522,-98.3234 10.7593,-84.396"/>
<polygon fill="midnightblue" stroke="midnightblue" points="13.8354,-86.0828 16.2858,-75.7752 7.94237,-82.305 13.8354,-86.0828"/>
</g>
<!-- Node5 -->
<g id="node5" class="node"><title>Node5</title>
<polygon fill="none" stroke="#bfbfbf" points="147.489,-0.5 147.489,-19.5 204.489,-19.5 204.489,-0.5 147.489,-0.5"/>
<text text-anchor="middle" x="175.989" y="-7.5" font-family="Helvetica,sans-Serif" font-size="10.00">memory</text>
</g>
<!-- Node2&#45;&gt;Node5 -->
<g id="edge18" class="edge"><title>Node2&#45;&gt;Node5</title>
<path fill="none" stroke="midnightblue" d="M135.185,-168.298C141.938,-159.648 151.759,-145.722 156.989,-132 170.134,-97.5064 174.188,-54.1548 175.436,-29.8193"/>
<polygon fill="midnightblue" stroke="midnightblue" points="178.946,-29.6553 175.851,-19.5225 171.951,-29.3735 178.946,-29.6553"/>
</g>
<!-- Node6 -->
<g id="node6" class="node"><title>Node6</title>
<g id="a_node6"><a xlink:href="EEInterface_8h.html" target="_top" xlink:title="ROSEndEffector/EEInterface.h">
<polygon fill="none" stroke="black" points="223.989,-112.5 223.989,-131.5 381.989,-131.5 381.989,-112.5 223.989,-112.5"/>
<text text-anchor="middle" x="302.989" y="-119.5" font-family="Helvetica,sans-Serif" font-size="10.00">ROSEndEffector/EEInterface.h</text>
</a>
</g>
</g>
<!-- Node2&#45;&gt;Node6 -->
<g id="edge5" class="edge"><title>Node2&#45;&gt;Node6</title>
<path fill="none" stroke="midnightblue" d="M155.718,-168.444C185.414,-159.28 232.705,-144.688 265.658,-134.519"/>
<polygon fill="midnightblue" stroke="midnightblue" points="266.866,-137.809 275.389,-131.516 264.802,-131.121 266.866,-137.809"/>
</g>
<!-- Node3&#45;&gt;Node4 -->
<g id="edge3" class="edge"><title>Node3&#45;&gt;Node4</title>
<path fill="none" stroke="midnightblue" d="M71.6701,-112.324C63.0962,-104.341 50.1766,-92.3128 39.8012,-82.6529"/>
<polygon fill="midnightblue" stroke="midnightblue" points="42.181,-80.0865 32.4771,-75.8339 37.4111,-85.2098 42.181,-80.0865"/>
</g>
<!-- Node3&#45;&gt;Node5 -->
<g id="edge4" class="edge"><title>Node3&#45;&gt;Node5</title>
<path fill="none" stroke="midnightblue" d="M88.4433,-112.368C104.26,-94.0547 141.401,-51.0489 161.858,-27.3624"/>
<polygon fill="midnightblue" stroke="midnightblue" points="164.682,-29.4474 168.569,-19.5914 159.384,-24.872 164.682,-29.4474"/>
</g>
<!-- Node6&#45;&gt;Node5 -->
<g id="edge8" class="edge"><title>Node6&#45;&gt;Node5</title>
<path fill="none" stroke="midnightblue" d="M287.107,-112.499C272.323,-104.202 250.064,-90.7098 232.989,-76 216.012,-61.3748 199.45,-41.7009 188.593,-27.8413"/>
<polygon fill="midnightblue" stroke="midnightblue" points="191.2,-25.4883 182.336,-19.6846 185.646,-29.7491 191.2,-25.4883"/>
</g>
<!-- Node7 -->
<g id="node7" class="node"><title>Node7</title>
<polygon fill="none" stroke="#bfbfbf" points="241.989,-56.5 241.989,-75.5 279.989,-75.5 279.989,-56.5 241.989,-56.5"/>
<text text-anchor="middle" x="260.989" y="-63.5" font-family="Helvetica,sans-Serif" font-size="10.00">map</text>
</g>
<!-- Node6&#45;&gt;Node7 -->
<g id="edge6" class="edge"><title>Node6&#45;&gt;Node7</title>
<path fill="none" stroke="midnightblue" d="M296.053,-112.083C290.06,-104.377 281.237,-93.0333 273.941,-83.6531"/>
<polygon fill="midnightblue" stroke="midnightblue" points="276.697,-81.4958 267.795,-75.7511 271.172,-85.7934 276.697,-81.4958"/>
</g>
<!-- Node8 -->
<g id="node8" class="node"><title>Node8</title>
<polygon fill="none" stroke="#bfbfbf" points="298.489,-56.5 298.489,-75.5 345.489,-75.5 345.489,-56.5 298.489,-56.5"/>
<text text-anchor="middle" x="321.989" y="-63.5" font-family="Helvetica,sans-Serif" font-size="10.00">vector</text>
</g>
<!-- Node6&#45;&gt;Node8 -->
<g id="edge7" class="edge"><title>Node6&#45;&gt;Node8</title>
<path fill="none" stroke="midnightblue" d="M306.126,-112.083C308.672,-104.849 312.345,-94.4087 315.516,-85.3968"/>
<polygon fill="midnightblue" stroke="midnightblue" points="318.892,-86.3459 318.91,-75.7511 312.289,-84.0225 318.892,-86.3459"/>
</g>
<!-- Node9 -->
<g id="node9" class="node"><title>Node9</title>
<g id="a_node9"><a xlink:href="Parser_8h.html" target="_top" xlink:title="ROSEndEffector/Parser.h">
<polygon fill="none" stroke="black" points="363.989,-56.5 363.989,-75.5 497.989,-75.5 497.989,-56.5 363.989,-56.5"/>
<text text-anchor="middle" x="430.989" y="-63.5" font-family="Helvetica,sans-Serif" font-size="10.00">ROSEndEffector/Parser.h</text>
</a>
</g>
</g>
<!-- Node6&#45;&gt;Node9 -->
<g id="edge9" class="edge"><title>Node6&#45;&gt;Node9</title>
<path fill="none" stroke="midnightblue" d="M323.271,-112.444C344.336,-103.557 377.506,-89.5632 401.474,-79.4514"/>
<polygon fill="midnightblue" stroke="midnightblue" points="402.949,-82.6283 410.802,-75.5164 400.228,-76.1787 402.949,-82.6283"/>
</g>
<!-- Node15 -->
<g id="node15" class="node"><title>Node15</title>
<polygon fill="none" stroke="#bfbfbf" points="516.489,-56.5 516.489,-75.5 593.489,-75.5 593.489,-56.5 516.489,-56.5"/>
<text text-anchor="middle" x="554.989" y="-63.5" font-family="Helvetica,sans-Serif" font-size="10.00">Eigen/Dense</text>
</g>
<!-- Node6&#45;&gt;Node15 -->
<g id="edge16" class="edge"><title>Node6&#45;&gt;Node15</title>
<path fill="none" stroke="midnightblue" d="M342.919,-112.444C387.268,-102.94 458.866,-87.5977 506.425,-77.4066"/>
<polygon fill="midnightblue" stroke="midnightblue" points="507.44,-80.7685 516.485,-75.2508 505.974,-73.9239 507.44,-80.7685"/>
</g>
<!-- Node9&#45;&gt;Node5 -->
<g id="edge10" class="edge"><title>Node9&#45;&gt;Node5</title>
<path fill="none" stroke="midnightblue" d="M387.463,-56.482C345.542,-48.174 280.097,-34.9317 214.714,-20.3346"/>
<polygon fill="midnightblue" stroke="midnightblue" points="215.172,-16.8504 204.649,-18.0763 213.64,-23.6806 215.172,-16.8504"/>
</g>
<!-- Node10 -->
<g id="node10" class="node"><title>Node10</title>
<polygon fill="none" stroke="#bfbfbf" points="222.489,-0.5 222.489,-19.5 281.489,-19.5 281.489,-0.5 222.489,-0.5"/>
<text text-anchor="middle" x="251.989" y="-7.5" font-family="Helvetica,sans-Serif" font-size="10.00">ros/ros.h</text>
</g>
<!-- Node9&#45;&gt;Node10 -->
<g id="edge11" class="edge"><title>Node9&#45;&gt;Node10</title>
<path fill="none" stroke="midnightblue" d="M402.626,-56.4435C372.251,-47.2801 323.879,-32.6876 290.173,-22.5192"/>
<polygon fill="midnightblue" stroke="midnightblue" points="290.804,-19.0538 280.219,-19.5164 288.782,-25.7555 290.804,-19.0538"/>
</g>
<!-- Node11 -->
<g id="node11" class="node"><title>Node11</title>
<polygon fill="none" stroke="#bfbfbf" points="299.989,-0.5 299.989,-19.5 395.989,-19.5 395.989,-0.5 299.989,-0.5"/>
<text text-anchor="middle" x="347.989" y="-7.5" font-family="Helvetica,sans-Serif" font-size="10.00">yaml&#45;cpp/yaml.h</text>
</g>
<!-- Node9&#45;&gt;Node11 -->
<g id="edge12" class="edge"><title>Node9&#45;&gt;Node11</title>
<path fill="none" stroke="midnightblue" d="M417.653,-56.324C404.827,-47.979 385.204,-35.2122 370.049,-25.3524"/>
<polygon fill="midnightblue" stroke="midnightblue" points="371.582,-22.1742 361.291,-19.6545 367.765,-28.0417 371.582,-22.1742"/>
</g>
<!-- Node12 -->
<g id="node12" class="node"><title>Node12</title>
<polygon fill="none" stroke="#bfbfbf" points="413.989,-0.5 413.989,-19.5 551.989,-19.5 551.989,-0.5 413.989,-0.5"/>
<text text-anchor="middle" x="482.989" y="-7.5" font-family="Helvetica,sans-Serif" font-size="10.00">urdf_parser/urdf_parser.h</text>
</g>
<!-- Node9&#45;&gt;Node12 -->
<g id="edge13" class="edge"><title>Node9&#45;&gt;Node12</title>
<path fill="none" stroke="midnightblue" d="M439.576,-56.083C447.148,-48.2195 458.367,-36.5688 467.503,-27.0813"/>
<polygon fill="midnightblue" stroke="midnightblue" points="470.147,-29.3821 474.562,-19.7511 465.104,-24.5266 470.147,-29.3821"/>
</g>
<!-- Node13 -->
<g id="node13" class="node"><title>Node13</title>
<polygon fill="none" stroke="#bfbfbf" points="569.989,-0.5 569.989,-19.5 709.989,-19.5 709.989,-0.5 569.989,-0.5"/>
<text text-anchor="middle" x="639.989" y="-7.5" font-family="Helvetica,sans-Serif" font-size="10.00">kdl_parser/kdl_parser.hpp</text>
</g>
<!-- Node9&#45;&gt;Node13 -->
<g id="edge14" class="edge"><title>Node9&#45;&gt;Node13</title>
<path fill="none" stroke="midnightblue" d="M464.106,-56.4435C500.106,-47.1419 557.759,-32.246 597.175,-22.062"/>
<polygon fill="midnightblue" stroke="midnightblue" points="598.221,-25.4068 607.027,-19.5164 596.469,-18.6294 598.221,-25.4068"/>
</g>
<!-- Node14 -->
<g id="node14" class="node"><title>Node14</title>
<polygon fill="none" stroke="#bfbfbf" points="727.989,-0.5 727.989,-19.5 825.989,-19.5 825.989,-0.5 727.989,-0.5"/>
<text text-anchor="middle" x="776.989" y="-7.5" font-family="Helvetica,sans-Serif" font-size="10.00">srdfdom/model.h</text>
</g>
<!-- Node9&#45;&gt;Node14 -->
<g id="edge15" class="edge"><title>Node9&#45;&gt;Node14</title>
<path fill="none" stroke="midnightblue" d="M485.814,-56.4435C549.03,-46.5775 652.572,-30.4177 717.64,-20.2625"/>
<polygon fill="midnightblue" stroke="midnightblue" points="718.4,-23.6864 727.741,-18.6861 717.321,-16.7701 718.4,-23.6864"/>
</g>
</g>
</svg>
