<?xml version="1.0" encoding="UTF-8" standalone="no"?>
<!DOCTYPE svg PUBLIC "-//W3C//DTD SVG 1.1//EN"
 "http://www.w3.org/Graphics/SVG/1.1/DTD/svg11.dtd">
<!-- Generated by graphviz version 2.38.0 (20140413.2041)
 -->
<!-- Title: /home/travis/build/ADVRHumanoids/ROSEndEffector/src/HAL/EEHalExecutor.cpp Pages: 1 -->
<svg width="1527pt" height="229pt"
 viewBox="0.00 0.00 1526.50 229.00" xmlns="http://www.w3.org/2000/svg" xmlns:xlink="http://www.w3.org/1999/xlink">
<g id="graph0" class="graph" transform="scale(1 1) rotate(0) translate(4 225)">
<title>/home/travis/build/ADVRHumanoids/ROSEndEffector/src/HAL/EEHalExecutor.cpp</title>
<!-- Node1 -->
<g id="node1" class="node"><title>Node1</title>
<polygon fill="#bfbfbf" stroke="black" points="449,-179.5 449,-220.5 628,-220.5 628,-179.5 449,-179.5"/>
<text text-anchor="start" x="457" y="-208.5" font-family="Helvetica,sans-Serif" font-size="10.00">/home/travis/build</text>
<text text-anchor="start" x="457" y="-197.5" font-family="Helvetica,sans-Serif" font-size="10.00">/ADVRHumanoids/ROSEndEffector</text>
<text text-anchor="middle" x="538.5" y="-186.5" font-family="Helvetica,sans-Serif" font-size="10.00">/src/HAL/EEHalExecutor.cpp</text>
</g>
<!-- Node2 -->
<g id="node2" class="node"><title>Node2</title>
<polygon fill="none" stroke="#bfbfbf" points="0,-56.5 0,-75.5 47,-75.5 47,-56.5 0,-56.5"/>
<text text-anchor="middle" x="23.5" y="-63.5" font-family="Helvetica,sans-Serif" font-size="10.00">vector</text>
</g>
<!-- Node1&#45;&gt;Node2 -->
<g id="edge1" class="edge"><title>Node1&#45;&gt;Node2</title>
<path fill="none" stroke="midnightblue" d="M448.986,-183.93C393.481,-173.903 320.912,-159.555 257.5,-143 184.689,-123.991 101.27,-95.1517 56.3277,-79.0151"/>
<polygon fill="midnightblue" stroke="midnightblue" points="57.4064,-75.6835 46.8121,-75.5815 55.0305,-82.268 57.4064,-75.6835"/>
</g>
<!-- Node3 -->
<g id="node3" class="node"><title>Node3</title>
<polygon fill="none" stroke="#bfbfbf" points="65,-56.5 65,-75.5 158,-75.5 158,-56.5 65,-56.5"/>
<text text-anchor="middle" x="111.5" y="-63.5" font-family="Helvetica,sans-Serif" font-size="10.00">unordered_map</text>
</g>
<!-- Node1&#45;&gt;Node3 -->
<g id="edge2" class="edge"><title>Node1&#45;&gt;Node3</title>
<path fill="none" stroke="midnightblue" d="M469.693,-179.47C433.513,-169.011 388.487,-155.698 348.5,-143 307.777,-130.069 298.142,-125.183 257.5,-112 221.164,-100.214 179.504,-87.4469 150.01,-78.5328"/>
<polygon fill="midnightblue" stroke="midnightblue" points="150.698,-75.0847 140.114,-75.5483 148.677,-81.7866 150.698,-75.0847"/>
</g>
<!-- Node4 -->
<g id="node4" class="node"><title>Node4</title>
<polygon fill="none" stroke="#bfbfbf" points="176,-56.5 176,-75.5 235,-75.5 235,-56.5 176,-56.5"/>
<text text-anchor="middle" x="205.5" y="-63.5" font-family="Helvetica,sans-Serif" font-size="10.00">ros/ros.h</text>
</g>
<!-- Node1&#45;&gt;Node4 -->
<g id="edge3" class="edge"><title>Node1&#45;&gt;Node4</title>
<path fill="none" stroke="midnightblue" d="M499.447,-179.381C461.459,-160.714 401.833,-132.51 348.5,-112 314.058,-98.7544 273.903,-86.3775 244.928,-77.9699"/>
<polygon fill="midnightblue" stroke="midnightblue" points="245.751,-74.5648 235.173,-75.1667 243.817,-81.2925 245.751,-74.5648"/>
</g>
<!-- Node5 -->
<g id="node5" class="node"><title>Node5</title>
<g id="a_node5"><a xlink:href="EEHal_8h.html" target="_top" xlink:title="ros_end_effector/HAL\l/EEHal.h">
<polygon fill="none" stroke="black" points="620,-112.5 620,-142.5 739,-142.5 739,-112.5 620,-112.5"/>
<text text-anchor="start" x="628" y="-130.5" font-family="Helvetica,sans-Serif" font-size="10.00">ros_end_effector/HAL</text>
<text text-anchor="middle" x="679.5" y="-119.5" font-family="Helvetica,sans-Serif" font-size="10.00">/EEHal.h</text>
</a>
</g>
</g>
<!-- Node1&#45;&gt;Node5 -->
<g id="edge4" class="edge"><title>Node1&#45;&gt;Node5</title>
<path fill="none" stroke="midnightblue" d="M577.776,-179.362C597.895,-169.302 622.265,-157.117 642.108,-147.196"/>
<polygon fill="midnightblue" stroke="midnightblue" points="643.781,-150.273 651.16,-142.67 640.65,-144.012 643.781,-150.273"/>
</g>
<!-- Node24 -->
<g id="node24" class="node"><title>Node24</title>
<polygon fill="none" stroke="#bfbfbf" points="757.5,-118 757.5,-137 897.5,-137 897.5,-118 757.5,-118"/>
<text text-anchor="middle" x="827.5" y="-125" font-family="Helvetica,sans-Serif" font-size="10.00">matlogger2/matlogger2.h</text>
</g>
<!-- Node1&#45;&gt;Node24 -->
<g id="edge31" class="edge"><title>Node1&#45;&gt;Node24</title>
<path fill="none" stroke="midnightblue" d="M618.619,-179.455C671.62,-166.526 739.148,-150.053 782.844,-139.394"/>
<polygon fill="midnightblue" stroke="midnightblue" points="783.717,-142.783 792.603,-137.013 782.058,-135.983 783.717,-142.783"/>
</g>
<!-- Node25 -->
<g id="node25" class="node"><title>Node25</title>
<polygon fill="none" stroke="#bfbfbf" points="916,-112.5 916,-142.5 1033,-142.5 1033,-112.5 916,-112.5"/>
<text text-anchor="start" x="924" y="-130.5" font-family="Helvetica,sans-Serif" font-size="10.00">matlogger2/utils/mat</text>
<text text-anchor="middle" x="974.5" y="-119.5" font-family="Helvetica,sans-Serif" font-size="10.00">_appender.h</text>
</g>
<!-- Node1&#45;&gt;Node25 -->
<g id="edge32" class="edge"><title>Node1&#45;&gt;Node25</title>
<path fill="none" stroke="midnightblue" d="M628.356,-186.838C700.612,-176.708 804.949,-161.294 905.869,-143.049"/>
<polygon fill="midnightblue" stroke="midnightblue" points="906.726,-146.451 915.938,-141.217 905.473,-139.564 906.726,-146.451"/>
</g>
<!-- Node5&#45;&gt;Node2 -->
<g id="edge8" class="edge"><title>Node5&#45;&gt;Node2</title>
<path fill="none" stroke="midnightblue" d="M619.641,-125.495C509.654,-122.816 268.07,-113.054 57.1661,-75.9868"/>
<polygon fill="midnightblue" stroke="midnightblue" points="57.6059,-72.5101 47.1469,-74.201 56.3775,-79.4015 57.6059,-72.5101"/>
</g>
<!-- Node5&#45;&gt;Node3 -->
<g id="edge10" class="edge"><title>Node5&#45;&gt;Node3</title>
<path fill="none" stroke="midnightblue" d="M619.725,-121.866C525.756,-114.307 337.532,-98.0529 168.364,-76.1777"/>
<polygon fill="midnightblue" stroke="midnightblue" points="168.646,-72.685 158.278,-74.8638 167.742,-79.6264 168.646,-72.685"/>
</g>
<!-- Node5&#45;&gt;Node4 -->
<g id="edge5" class="edge"><title>Node5&#45;&gt;Node4</title>
<path fill="none" stroke="midnightblue" d="M619.744,-121.682C537.593,-114.59 385.028,-99.7387 245.28,-75.9504"/>
<polygon fill="midnightblue" stroke="midnightblue" points="245.69,-72.4696 235.241,-74.2222 244.503,-79.3682 245.69,-72.4696"/>
</g>
<!-- Node6 -->
<g id="node6" class="node"><title>Node6</title>
<polygon fill="none" stroke="#bfbfbf" points="610,-56.5 610,-75.5 749,-75.5 749,-56.5 610,-56.5"/>
<text text-anchor="middle" x="679.5" y="-63.5" font-family="Helvetica,sans-Serif" font-size="10.00">sensor_msgs/JointState.h</text>
</g>
<!-- Node5&#45;&gt;Node6 -->
<g id="edge6" class="edge"><title>Node5&#45;&gt;Node6</title>
<path fill="none" stroke="midnightblue" d="M679.5,-112.399C679.5,-104.466 679.5,-94.458 679.5,-85.8583"/>
<polygon fill="midnightblue" stroke="midnightblue" points="683,-85.6577 679.5,-75.6578 676,-85.6578 683,-85.6577"/>
</g>
<!-- Node7 -->
<g id="node7" class="node"><title>Node7</title>
<polygon fill="none" stroke="#bfbfbf" points="767.5,-56.5 767.5,-75.5 811.5,-75.5 811.5,-56.5 767.5,-56.5"/>
<text text-anchor="middle" x="789.5" y="-63.5" font-family="Helvetica,sans-Serif" font-size="10.00">string</text>
</g>
<!-- Node5&#45;&gt;Node7 -->
<g id="edge7" class="edge"><title>Node5&#45;&gt;Node7</title>
<path fill="none" stroke="midnightblue" d="M705.568,-112.399C723.365,-102.773 746.812,-90.0902 764.399,-80.5772"/>
<polygon fill="midnightblue" stroke="midnightblue" points="766.364,-83.494 773.494,-75.6578 763.033,-77.337 766.364,-83.494"/>
</g>
<!-- Node8 -->
<g id="node8" class="node"><title>Node8</title>
<polygon fill="none" stroke="#bfbfbf" points="1075,-0.5 1075,-19.5 1132,-19.5 1132,-0.5 1075,-0.5"/>
<text text-anchor="middle" x="1103.5" y="-7.5" font-family="Helvetica,sans-Serif" font-size="10.00">memory</text>
</g>
<!-- Node5&#45;&gt;Node8 -->
<g id="edge9" class="edge"><title>Node5&#45;&gt;Node8</title>
<path fill="none" stroke="midnightblue" d="M739.291,-113.674C742.402,-113.088 745.485,-112.526 748.5,-112 862.552,-92.0833 898.329,-117.274 1006.5,-76 1037.08,-64.3338 1067.66,-41.5333 1086.09,-26.2803"/>
<polygon fill="midnightblue" stroke="midnightblue" points="1088.51,-28.8119 1093.88,-19.6755 1083.99,-23.4725 1088.51,-28.8119"/>
</g>
<!-- Node9 -->
<g id="node9" class="node"><title>Node9</title>
<polygon fill="none" stroke="#bfbfbf" points="523.5,-0.5 523.5,-19.5 577.5,-19.5 577.5,-0.5 523.5,-0.5"/>
<text text-anchor="middle" x="550.5" y="-7.5" font-family="Helvetica,sans-Serif" font-size="10.00">fstream</text>
</g>
<!-- Node5&#45;&gt;Node9 -->
<g id="edge11" class="edge"><title>Node5&#45;&gt;Node9</title>
<path fill="none" stroke="midnightblue" d="M739.36,-112.415C773.16,-103.119 810.583,-90.0854 820.5,-76 825.617,-68.7318 826.288,-62.7464 820.5,-56 787.982,-18.0972 652.83,-29.0765 587.436,-19.7354"/>
<polygon fill="midnightblue" stroke="midnightblue" points="588.012,-16.2832 577.566,-18.0511 586.835,-23.1834 588.012,-16.2832"/>
</g>
<!-- Node10 -->
<g id="node10" class="node"><title>Node10</title>
<polygon fill="none" stroke="#bfbfbf" points="1265,-0.5 1265,-19.5 1342,-19.5 1342,-0.5 1265,-0.5"/>
<text text-anchor="middle" x="1303.5" y="-7.5" font-family="Helvetica,sans-Serif" font-size="10.00">Eigen/Dense</text>
</g>
<!-- Node5&#45;&gt;Node10 -->
<g id="edge12" class="edge"><title>Node5&#45;&gt;Node10</title>
<path fill="none" stroke="midnightblue" d="M739.25,-113.417C742.372,-112.898 745.469,-112.421 748.5,-112 863.45,-96.0285 1172.36,-139.496 1269.5,-76 1285.63,-65.4591 1294.57,-44.6775 1299.18,-29.4395"/>
<polygon fill="midnightblue" stroke="midnightblue" points="1302.62,-30.1136 1301.82,-19.5494 1295.86,-28.3099 1302.62,-30.1136"/>
</g>
<!-- Node11 -->
<g id="node11" class="node"><title>Node11</title>
<polygon fill="none" stroke="#bfbfbf" points="1150.5,-0.5 1150.5,-19.5 1246.5,-19.5 1246.5,-0.5 1150.5,-0.5"/>
<text text-anchor="middle" x="1198.5" y="-7.5" font-family="Helvetica,sans-Serif" font-size="10.00">yaml&#45;cpp/yaml.h</text>
</g>
<!-- Node5&#45;&gt;Node11 -->
<g id="edge13" class="edge"><title>Node5&#45;&gt;Node11</title>
<path fill="none" stroke="midnightblue" d="M739.281,-113.618C742.395,-113.047 745.482,-112.504 748.5,-112 876.607,-90.6264 912.812,-108.723 1038.5,-76 1064.31,-69.2798 1131.53,-40.5035 1170.13,-23.5755"/>
<polygon fill="midnightblue" stroke="midnightblue" points="1171.54,-26.7785 1179.29,-19.5477 1168.72,-20.3713 1171.54,-26.7785"/>
</g>
<!-- Node12 -->
<g id="node12" class="node"><title>Node12</title>
<g id="a_node12"><a xlink:href="Utils_8h.html" target="_top" xlink:title="ros_end_effector/Utils.h">
<polygon fill="none" stroke="black" points="867.5,-56.5 867.5,-75.5 997.5,-75.5 997.5,-56.5 867.5,-56.5"/>
<text text-anchor="middle" x="932.5" y="-63.5" font-family="Helvetica,sans-Serif" font-size="10.00">ros_end_effector/Utils.h</text>
</a>
</g>
</g>
<!-- Node5&#45;&gt;Node12 -->
<g id="edge14" class="edge"><title>Node5&#45;&gt;Node12</title>
<path fill="none" stroke="midnightblue" d="M739.137,-112.475C784.214,-101.874 845.187,-87.534 886.525,-77.8123"/>
<polygon fill="midnightblue" stroke="midnightblue" points="887.397,-81.2028 896.33,-75.5064 885.794,-74.3887 887.397,-81.2028"/>
</g>
<!-- Node19 -->
<g id="node19" class="node"><title>Node19</title>
<g id="a_node19"><a xlink:href="UtilsEigen_8h.html" target="_top" xlink:title="ros_end_effector/UtilsEigen.h">
<polygon fill="none" stroke="black" points="1316.5,-56.5 1316.5,-75.5 1472.5,-75.5 1472.5,-56.5 1316.5,-56.5"/>
<text text-anchor="middle" x="1394.5" y="-63.5" font-family="Helvetica,sans-Serif" font-size="10.00">ros_end_effector/UtilsEigen.h</text>
</a>
</g>
</g>
<!-- Node5&#45;&gt;Node19 -->
<g id="edge23" class="edge"><title>Node5&#45;&gt;Node19</title>
<path fill="none" stroke="midnightblue" d="M739.248,-113.401C742.37,-112.887 745.468,-112.415 748.5,-112 992.963,-78.5438 1056.57,-96.0142 1302.5,-76 1303.62,-75.9089 1304.75,-75.816 1305.88,-75.7216"/>
<polygon fill="midnightblue" stroke="midnightblue" points="1306.56,-79.1766 1316.22,-74.8332 1305.96,-72.2023 1306.56,-79.1766"/>
</g>
<!-- Node21 -->
<g id="node21" class="node"><title>Node21</title>
<g id="a_node21"><a xlink:href="UtilsYAML_8h.html" target="_top" xlink:title="ros_end_effector/UtilsYAML.h">
<polygon fill="none" stroke="black" points="1105,-56.5 1105,-75.5 1260,-75.5 1260,-56.5 1105,-56.5"/>
<text text-anchor="middle" x="1182.5" y="-63.5" font-family="Helvetica,sans-Serif" font-size="10.00">ros_end_effector/UtilsYAML.h</text>
</a>
</g>
</g>
<!-- Node5&#45;&gt;Node21 -->
<g id="edge26" class="edge"><title>Node5&#45;&gt;Node21</title>
<path fill="none" stroke="midnightblue" d="M739.269,-113.543C742.386,-112.992 745.477,-112.473 748.5,-112 781.724,-106.801 977.676,-87.1628 1094.62,-75.6184"/>
<polygon fill="midnightblue" stroke="midnightblue" points="1095.03,-79.0951 1104.63,-74.6302 1094.34,-72.1289 1095.03,-79.0951"/>
</g>
<!-- Node22 -->
<g id="node22" class="node"><title>Node22</title>
<polygon fill="none" stroke="#bfbfbf" points="253,-56.5 253,-75.5 378,-75.5 378,-56.5 253,-56.5"/>
<text text-anchor="middle" x="315.5" y="-63.5" font-family="Helvetica,sans-Serif" font-size="10.00">rosee_msg/HandInfo.h</text>
</g>
<!-- Node5&#45;&gt;Node22 -->
<g id="edge29" class="edge"><title>Node5&#45;&gt;Node22</title>
<path fill="none" stroke="midnightblue" d="M619.8,-116.741C553.039,-105.829 445.414,-88.236 377.666,-77.1617"/>
<polygon fill="midnightblue" stroke="midnightblue" points="377.992,-73.6687 367.559,-75.5096 376.863,-80.577 377.992,-73.6687"/>
</g>
<!-- Node23 -->
<g id="node23" class="node"><title>Node23</title>
<polygon fill="none" stroke="#bfbfbf" points="395.5,-56.5 395.5,-75.5 591.5,-75.5 591.5,-56.5 395.5,-56.5"/>
<text text-anchor="middle" x="493.5" y="-63.5" font-family="Helvetica,sans-Serif" font-size="10.00">rosee_msg/MotorPhalangePressure.h</text>
</g>
<!-- Node5&#45;&gt;Node23 -->
<g id="edge30" class="edge"><title>Node5&#45;&gt;Node23</title>
<path fill="none" stroke="midnightblue" d="M635.421,-112.399C603.281,-102.118 560.243,-88.3506 530.018,-78.6818"/>
<polygon fill="midnightblue" stroke="midnightblue" points="530.884,-75.2842 520.293,-75.5709 528.751,-81.9514 530.884,-75.2842"/>
</g>
<!-- Node12&#45;&gt;Node8 -->
<g id="edge16" class="edge"><title>Node12&#45;&gt;Node8</title>
<path fill="none" stroke="midnightblue" d="M959.595,-56.4435C988.488,-47.3196 1034.42,-32.8133 1066.61,-22.6509"/>
<polygon fill="midnightblue" stroke="midnightblue" points="1068.05,-25.8654 1076.53,-19.5164 1065.94,-19.1903 1068.05,-25.8654"/>
</g>
<!-- Node12&#45;&gt;Node9 -->
<g id="edge20" class="edge"><title>Node12&#45;&gt;Node9</title>
<path fill="none" stroke="midnightblue" d="M867.234,-57.4261C786.675,-47.9269 653.23,-31.6638 587.502,-19.9575"/>
<polygon fill="midnightblue" stroke="midnightblue" points="588.022,-16.4944 577.553,-18.1195 586.75,-23.378 588.022,-16.4944"/>
</g>
<!-- Node13 -->
<g id="node13" class="node"><title>Node13</title>
<polygon fill="none" stroke="#bfbfbf" points="664,-0.5 664,-19.5 711,-19.5 711,-0.5 664,-0.5"/>
<text text-anchor="middle" x="687.5" y="-7.5" font-family="Helvetica,sans-Serif" font-size="10.00">cmath</text>
</g>
<!-- Node12&#45;&gt;Node13 -->
<g id="edge15" class="edge"><title>Node12&#45;&gt;Node13</title>
<path fill="none" stroke="midnightblue" d="M888.484,-56.4196C847.59,-48.277 784.783,-35.3395 721.068,-20.0281"/>
<polygon fill="midnightblue" stroke="midnightblue" points="721.794,-16.6028 711.251,-17.6516 720.147,-23.4063 721.794,-16.6028"/>
</g>
<!-- Node14 -->
<g id="node14" class="node"><title>Node14</title>
<polygon fill="none" stroke="#bfbfbf" points="729,-0.5 729,-19.5 788,-19.5 788,-0.5 729,-0.5"/>
<text text-anchor="middle" x="758.5" y="-7.5" font-family="Helvetica,sans-Serif" font-size="10.00">iostream</text>
</g>
<!-- Node12&#45;&gt;Node14 -->
<g id="edge17" class="edge"><title>Node12&#45;&gt;Node14</title>
<path fill="none" stroke="midnightblue" d="M904.929,-56.4435C875.403,-47.2801 828.382,-32.6876 795.617,-22.5192"/>
<polygon fill="midnightblue" stroke="midnightblue" points="796.53,-19.1378 785.942,-19.5164 794.455,-25.8232 796.53,-19.1378"/>
</g>
<!-- Node15 -->
<g id="node15" class="node"><title>Node15</title>
<polygon fill="none" stroke="#bfbfbf" points="806.5,-0.5 806.5,-19.5 854.5,-19.5 854.5,-0.5 806.5,-0.5"/>
<text text-anchor="middle" x="830.5" y="-7.5" font-family="Helvetica,sans-Serif" font-size="10.00">dlfcn.h</text>
</g>
<!-- Node12&#45;&gt;Node15 -->
<g id="edge18" class="edge"><title>Node12&#45;&gt;Node15</title>
<path fill="none" stroke="midnightblue" d="M916.112,-56.324C899.829,-47.7034 874.633,-34.3643 855.784,-24.3855"/>
<polygon fill="midnightblue" stroke="midnightblue" points="857.323,-21.2402 846.847,-19.6545 854.048,-27.4267 857.323,-21.2402"/>
</g>
<!-- Node16 -->
<g id="node16" class="node"><title>Node16</title>
<polygon fill="none" stroke="#bfbfbf" points="872.5,-0.5 872.5,-19.5 988.5,-19.5 988.5,-0.5 872.5,-0.5"/>
<text text-anchor="middle" x="930.5" y="-7.5" font-family="Helvetica,sans-Serif" font-size="10.00">boost/filesystem.hpp</text>
</g>
<!-- Node12&#45;&gt;Node16 -->
<g id="edge19" class="edge"><title>Node12&#45;&gt;Node16</title>
<path fill="none" stroke="midnightblue" d="M932.17,-56.083C931.908,-49.0059 931.532,-38.8611 931.203,-29.9865"/>
<polygon fill="midnightblue" stroke="midnightblue" points="934.692,-29.6147 930.824,-19.7511 927.697,-29.8738 934.692,-29.6147"/>
</g>
<!-- Node17 -->
<g id="node17" class="node"><title>Node17</title>
<polygon fill="none" stroke="#bfbfbf" points="1006.5,-0.5 1006.5,-19.5 1056.5,-19.5 1056.5,-0.5 1006.5,-0.5"/>
<text text-anchor="middle" x="1031.5" y="-7.5" font-family="Helvetica,sans-Serif" font-size="10.00">chrono</text>
</g>
<!-- Node12&#45;&gt;Node17 -->
<g id="edge21" class="edge"><title>Node12&#45;&gt;Node17</title>
<path fill="none" stroke="midnightblue" d="M948.406,-56.324C964.138,-47.7428 988.442,-34.486 1006.71,-24.5224"/>
<polygon fill="midnightblue" stroke="midnightblue" points="1008.53,-27.5157 1015.63,-19.6545 1005.18,-21.3704 1008.53,-27.5157"/>
</g>
<!-- Node18 -->
<g id="node18" class="node"><title>Node18</title>
<polygon fill="none" stroke="#bfbfbf" points="595.5,-0.5 595.5,-19.5 645.5,-19.5 645.5,-0.5 595.5,-0.5"/>
<text text-anchor="middle" x="620.5" y="-7.5" font-family="Helvetica,sans-Serif" font-size="10.00">atomic</text>
</g>
<!-- Node12&#45;&gt;Node18 -->
<g id="edge22" class="edge"><title>Node12&#45;&gt;Node18</title>
<path fill="none" stroke="midnightblue" d="M869.769,-56.4653C813.43,-48.4075 728.58,-35.2993 655.5,-20 655.4,-19.9791 655.3,-19.9581 655.2,-19.937"/>
<polygon fill="midnightblue" stroke="midnightblue" points="656.199,-16.5751 645.671,-17.7633 654.642,-23.3997 656.199,-16.5751"/>
</g>
<!-- Node19&#45;&gt;Node10 -->
<g id="edge24" class="edge"><title>Node19&#45;&gt;Node10</title>
<path fill="none" stroke="midnightblue" d="M1379.88,-56.324C1365.55,-47.8215 1343.49,-34.7288 1326.75,-24.7975"/>
<polygon fill="midnightblue" stroke="midnightblue" points="1328.47,-21.7478 1318.08,-19.6545 1324.9,-27.7677 1328.47,-21.7478"/>
</g>
<!-- Node20 -->
<g id="node20" class="node"><title>Node20</title>
<polygon fill="none" stroke="#bfbfbf" points="1360.5,-0.5 1360.5,-19.5 1518.5,-19.5 1518.5,-0.5 1360.5,-0.5"/>
<text text-anchor="middle" x="1439.5" y="-7.5" font-family="Helvetica,sans-Serif" font-size="10.00">std_msgs/Float32MultiArray.h</text>
</g>
<!-- Node19&#45;&gt;Node20 -->
<g id="edge25" class="edge"><title>Node19&#45;&gt;Node20</title>
<path fill="none" stroke="midnightblue" d="M1401.93,-56.083C1408.35,-48.3768 1417.81,-37.0333 1425.62,-27.6531"/>
<polygon fill="midnightblue" stroke="midnightblue" points="1428.49,-29.674 1432.21,-19.7511 1423.12,-25.1927 1428.49,-29.674"/>
</g>
<!-- Node21&#45;&gt;Node10 -->
<g id="edge28" class="edge"><title>Node21&#45;&gt;Node10</title>
<path fill="none" stroke="midnightblue" d="M1201.67,-56.4435C1221.41,-47.6356 1252.39,-33.8116 1274.99,-23.722"/>
<polygon fill="midnightblue" stroke="midnightblue" points="1276.71,-26.788 1284.42,-19.5164 1273.86,-20.3957 1276.71,-26.788"/>
</g>
<!-- Node21&#45;&gt;Node11 -->
<g id="edge27" class="edge"><title>Node21&#45;&gt;Node11</title>
<path fill="none" stroke="midnightblue" d="M1185.14,-56.083C1187.29,-48.8486 1190.38,-38.4087 1193.05,-29.3968"/>
<polygon fill="midnightblue" stroke="midnightblue" points="1196.42,-30.3334 1195.91,-19.7511 1189.71,-28.3447 1196.42,-30.3334"/>
</g>
</g>
</svg>
