<?xml version="1.0" encoding="UTF-8" standalone="no"?>
<!DOCTYPE svg PUBLIC "-//W3C//DTD SVG 1.1//EN"
 "http://www.w3.org/Graphics/SVG/1.1/DTD/svg11.dtd">
<!-- Generated by graphviz version 2.38.0 (20140413.2041)
 -->
<!-- Title: /home/lucamuratore/src/ros_end_effector__ws/src/ROSEndEffector/include/ROSEndEffector/EEHal.h Pages: 1 -->
<svg width="360pt" height="184pt"
 viewBox="0.00 0.00 360.14 184.00" xmlns="http://www.w3.org/2000/svg" xmlns:xlink="http://www.w3.org/1999/xlink">
<g id="graph0" class="graph" transform="scale(1 1) rotate(0) translate(4 180)">
<title>/home/lucamuratore/src/ros_end_effector__ws/src/ROSEndEffector/include/ROSEndEffector/EEHal.h</title>
<!-- Node1 -->
<g id="node1" class="node"><title>Node1</title>
<polygon fill="#bfbfbf" stroke="black" points="57.1427,-112.5 57.1427,-175.5 190.143,-175.5 190.143,-112.5 57.1427,-112.5"/>
<text text-anchor="start" x="65.1427" y="-163.5" font-family="Helvetica,sans-Serif" font-size="10.00">/home/lucamuratore</text>
<text text-anchor="start" x="65.1427" y="-152.5" font-family="Helvetica,sans-Serif" font-size="10.00">/src/ros_end_effector</text>
<text text-anchor="start" x="65.1427" y="-141.5" font-family="Helvetica,sans-Serif" font-size="10.00">__ws/src/ROSEndEffector</text>
<text text-anchor="start" x="65.1427" y="-130.5" font-family="Helvetica,sans-Serif" font-size="10.00">/include/ROSEndEffector</text>
<text text-anchor="middle" x="123.643" y="-119.5" font-family="Helvetica,sans-Serif" font-size="10.00">/EEHal.h</text>
</g>
<!-- Node2 -->
<g id="node2" class="node"><title>Node2</title>
<g id="a_node2"><a xlink:href="IMotor_8h.html" target="_top" xlink:title="ROSEndEffector/IMotor.h">
<polygon fill="none" stroke="black" points="13.1427,-56.5 13.1427,-75.5 142.143,-75.5 142.143,-56.5 13.1427,-56.5"/>
<text text-anchor="middle" x="77.6427" y="-63.5" font-family="Helvetica,sans-Serif" font-size="10.00">ROSEndEffector/IMotor.h</text>
</a>
</g>
</g>
<!-- Node1&#45;&gt;Node2 -->
<g id="edge1" class="edge"><title>Node1&#45;&gt;Node2</title>
<path fill="none" stroke="midnightblue" d="M104.933,-112.088C99.2118,-102.636 93.1237,-92.5773 88.1528,-84.3645"/>
<polygon fill="midnightblue" stroke="midnightblue" points="91.0918,-82.4609 82.9195,-75.7182 85.1033,-86.0855 91.0918,-82.4609"/>
</g>
<!-- Node3 -->
<g id="node3" class="node"><title>Node3</title>
<polygon fill="none" stroke="#bfbfbf" points="10.1427,-0.5 10.1427,-19.5 51.1427,-19.5 51.1427,-0.5 10.1427,-0.5"/>
<text text-anchor="middle" x="30.6427" y="-7.5" font-family="Helvetica,sans-Serif" font-size="10.00">string</text>
</g>
<!-- Node1&#45;&gt;Node3 -->
<g id="edge8" class="edge"><title>Node1&#45;&gt;Node3</title>
<path fill="none" stroke="midnightblue" d="M57.0935,-121.296C36.2559,-111.007 15.6005,-96.3718 3.64273,-76 -5.49086,-60.4396 4.89403,-41.2051 15.3201,-27.7114"/>
<polygon fill="midnightblue" stroke="midnightblue" points="18.2344,-29.6828 21.9728,-19.7694 12.8683,-25.1878 18.2344,-29.6828"/>
</g>
<!-- Node4 -->
<g id="node4" class="node"><title>Node4</title>
<polygon fill="none" stroke="#bfbfbf" points="144.643,-0.5 144.643,-19.5 196.643,-19.5 196.643,-0.5 144.643,-0.5"/>
<text text-anchor="middle" x="170.643" y="-7.5" font-family="Helvetica,sans-Serif" font-size="10.00">memory</text>
</g>
<!-- Node1&#45;&gt;Node4 -->
<g id="edge9" class="edge"><title>Node1&#45;&gt;Node4</title>
<path fill="none" stroke="midnightblue" d="M136.695,-112.187C141.314,-100.885 146.409,-87.9379 150.643,-76 156.13,-60.5253 161.558,-42.6825 165.371,-29.6107"/>
<polygon fill="midnightblue" stroke="midnightblue" points="168.761,-30.4869 168.16,-19.9091 162.033,-28.5526 168.761,-30.4869"/>
</g>
<!-- Node5 -->
<g id="node5" class="node"><title>Node5</title>
<g id="a_node5"><a xlink:href="EEInterface_8h.html" target="_top" xlink:title="ROSEndEffector/EEInterface.h">
<polygon fill="none" stroke="black" points="199.143,-56.5 199.143,-75.5 352.143,-75.5 352.143,-56.5 199.143,-56.5"/>
<text text-anchor="middle" x="275.643" y="-63.5" font-family="Helvetica,sans-Serif" font-size="10.00">ROSEndEffector/EEInterface.h</text>
</a>
</g>
</g>
<!-- Node1&#45;&gt;Node5 -->
<g id="edge4" class="edge"><title>Node1&#45;&gt;Node5</title>
<path fill="none" stroke="midnightblue" d="M185.029,-112.307C207.414,-101.114 231.557,-89.0427 249.29,-80.1766"/>
<polygon fill="midnightblue" stroke="midnightblue" points="251.05,-83.2094 258.429,-75.6067 247.92,-76.9484 251.05,-83.2094"/>
</g>
<!-- Node2&#45;&gt;Node3 -->
<g id="edge2" class="edge"><title>Node2&#45;&gt;Node3</title>
<path fill="none" stroke="midnightblue" d="M69.8816,-56.083C63.1059,-48.2982 53.0996,-36.8015 44.8877,-27.3665"/>
<polygon fill="midnightblue" stroke="midnightblue" points="47.4648,-24.9963 38.2594,-19.7511 42.1846,-29.592 47.4648,-24.9963"/>
</g>
<!-- Node2&#45;&gt;Node4 -->
<g id="edge3" class="edge"><title>Node2&#45;&gt;Node4</title>
<path fill="none" stroke="midnightblue" d="M92.5848,-56.324C107.228,-47.8215 129.776,-34.7288 146.88,-24.7975"/>
<polygon fill="midnightblue" stroke="midnightblue" points="148.847,-27.7027 155.738,-19.6545 145.332,-21.6491 148.847,-27.7027"/>
</g>
<!-- Node5&#45;&gt;Node4 -->
<g id="edge7" class="edge"><title>Node5&#45;&gt;Node4</title>
<path fill="none" stroke="midnightblue" d="M258.773,-56.324C241.934,-47.6641 215.836,-34.2424 196.405,-24.249"/>
<polygon fill="midnightblue" stroke="midnightblue" points="197.965,-21.1155 187.471,-19.6545 194.763,-27.3405 197.965,-21.1155"/>
</g>
<!-- Node6 -->
<g id="node6" class="node"><title>Node6</title>
<polygon fill="none" stroke="#bfbfbf" points="236.143,-0.5 236.143,-19.5 271.143,-19.5 271.143,-0.5 236.143,-0.5"/>
<text text-anchor="middle" x="253.643" y="-7.5" font-family="Helvetica,sans-Serif" font-size="10.00">map</text>
</g>
<!-- Node5&#45;&gt;Node6 -->
<g id="edge5" class="edge"><title>Node5&#45;&gt;Node6</title>
<path fill="none" stroke="midnightblue" d="M272.01,-56.083C269.03,-48.77 264.717,-38.1814 261.018,-29.1034"/>
<polygon fill="midnightblue" stroke="midnightblue" points="264.222,-27.6914 257.208,-19.7511 257.74,-30.3326 264.222,-27.6914"/>
</g>
<!-- Node7 -->
<g id="node7" class="node"><title>Node7</title>
<polygon fill="none" stroke="#bfbfbf" points="289.643,-0.5 289.643,-19.5 333.643,-19.5 333.643,-0.5 289.643,-0.5"/>
<text text-anchor="middle" x="311.643" y="-7.5" font-family="Helvetica,sans-Serif" font-size="10.00">vector</text>
</g>
<!-- Node5&#45;&gt;Node7 -->
<g id="edge6" class="edge"><title>Node5&#45;&gt;Node7</title>
<path fill="none" stroke="midnightblue" d="M281.587,-56.083C286.62,-48.5341 293.98,-37.4948 300.156,-28.2298"/>
<polygon fill="midnightblue" stroke="midnightblue" points="303.174,-30.0131 305.809,-19.7511 297.349,-26.1301 303.174,-30.0131"/>
</g>
</g>
</svg>
