<?xml version="1.0" encoding="UTF-8" standalone="no"?>
<!DOCTYPE svg PUBLIC "-//W3C//DTD SVG 1.1//EN"
 "http://www.w3.org/Graphics/SVG/1.1/DTD/svg11.dtd">
<!-- Generated by graphviz version 2.38.0 (20140413.2041)
 -->
<!-- Title: /home/travis/build/ADVRHumanoids/ROSEndEffector/src/EEHal.cpp Pages: 1 -->
<svg width="948pt" height="274pt"
 viewBox="0.00 0.00 947.87 274.00" xmlns="http://www.w3.org/2000/svg" xmlns:xlink="http://www.w3.org/1999/xlink">
<g id="graph0" class="graph" transform="scale(1 1) rotate(0) translate(4 270)">
<title>/home/travis/build/ADVRHumanoids/ROSEndEffector/src/EEHal.cpp</title>
<!-- Node1 -->
<g id="node1" class="node"><title>Node1</title>
<polygon fill="#bfbfbf" stroke="black" points="37.8745,-224.5 37.8745,-265.5 216.875,-265.5 216.875,-224.5 37.8745,-224.5"/>
<text text-anchor="start" x="45.8745" y="-253.5" font-family="Helvetica,sans-Serif" font-size="10.00">/home/travis/build</text>
<text text-anchor="start" x="45.8745" y="-242.5" font-family="Helvetica,sans-Serif" font-size="10.00">/ADVRHumanoids/ROSEndEffector</text>
<text text-anchor="middle" x="127.375" y="-231.5" font-family="Helvetica,sans-Serif" font-size="10.00">/src/EEHal.cpp</text>
</g>
<!-- Node2 -->
<g id="node2" class="node"><title>Node2</title>
<g id="a_node2"><a xlink:href="EEHal_8h.html" target="_top" xlink:title="ROSEndEffector/EEHal.h">
<polygon fill="none" stroke="black" points="61.8745,-168.5 61.8745,-187.5 192.875,-187.5 192.875,-168.5 61.8745,-168.5"/>
<text text-anchor="middle" x="127.375" y="-175.5" font-family="Helvetica,sans-Serif" font-size="10.00">ROSEndEffector/EEHal.h</text>
</a>
</g>
</g>
<!-- Node1&#45;&gt;Node2 -->
<g id="edge1" class="edge"><title>Node1&#45;&gt;Node2</title>
<path fill="none" stroke="midnightblue" d="M127.375,-224.498C127.375,-216.065 127.375,-206.235 127.375,-197.874"/>
<polygon fill="midnightblue" stroke="midnightblue" points="130.875,-197.652 127.375,-187.652 123.875,-197.653 130.875,-197.652"/>
</g>
<!-- Node3 -->
<g id="node3" class="node"><title>Node3</title>
<g id="a_node3"><a xlink:href="IMotor_8h.html" target="_top" xlink:title="ROSEndEffector/IMotor.h">
<polygon fill="none" stroke="black" points="13.3745,-112.5 13.3745,-131.5 147.375,-131.5 147.375,-112.5 13.3745,-112.5"/>
<text text-anchor="middle" x="80.3745" y="-119.5" font-family="Helvetica,sans-Serif" font-size="10.00">ROSEndEffector/IMotor.h</text>
</a>
</g>
</g>
<!-- Node2&#45;&gt;Node3 -->
<g id="edge2" class="edge"><title>Node2&#45;&gt;Node3</title>
<path fill="none" stroke="midnightblue" d="M119.613,-168.083C112.838,-160.298 102.831,-148.801 94.6195,-139.367"/>
<polygon fill="midnightblue" stroke="midnightblue" points="97.1966,-136.996 87.9912,-131.751 91.9164,-141.592 97.1966,-136.996"/>
</g>
<!-- Node4 -->
<g id="node4" class="node"><title>Node4</title>
<polygon fill="none" stroke="#bfbfbf" points="10.3745,-56.5 10.3745,-75.5 54.3745,-75.5 54.3745,-56.5 10.3745,-56.5"/>
<text text-anchor="middle" x="32.3745" y="-63.5" font-family="Helvetica,sans-Serif" font-size="10.00">string</text>
</g>
<!-- Node2&#45;&gt;Node4 -->
<g id="edge18" class="edge"><title>Node2&#45;&gt;Node4</title>
<path fill="none" stroke="midnightblue" d="M62.1416,-168.47C40.1054,-162.123 17.7269,-151.103 4.37454,-132 -6.23498,-116.821 5.35349,-96.9849 16.6795,-83.2366"/>
<polygon fill="midnightblue" stroke="midnightblue" points="19.4742,-85.3606 23.4968,-75.5591 14.2399,-80.7127 19.4742,-85.3606"/>
</g>
<!-- Node5 -->
<g id="node5" class="node"><title>Node5</title>
<polygon fill="none" stroke="#bfbfbf" points="101.875,-0.5 101.875,-19.5 158.875,-19.5 158.875,-0.5 101.875,-0.5"/>
<text text-anchor="middle" x="130.375" y="-7.5" font-family="Helvetica,sans-Serif" font-size="10.00">memory</text>
</g>
<!-- Node2&#45;&gt;Node5 -->
<g id="edge19" class="edge"><title>Node2&#45;&gt;Node5</title>
<path fill="none" stroke="midnightblue" d="M135.047,-168.459C142.153,-159.927 152.228,-146.088 156.375,-132 166.996,-95.91 150.926,-52.5857 139.707,-28.805"/>
<polygon fill="midnightblue" stroke="midnightblue" points="142.729,-27.0197 135.148,-19.6184 136.459,-30.1318 142.729,-27.0197"/>
</g>
<!-- Node6 -->
<g id="node6" class="node"><title>Node6</title>
<g id="a_node6"><a xlink:href="EEInterface_8h.html" target="_top" xlink:title="ROSEndEffector/EEInterface.h">
<polygon fill="none" stroke="black" points="223.375,-112.5 223.375,-131.5 381.375,-131.5 381.375,-112.5 223.375,-112.5"/>
<text text-anchor="middle" x="302.375" y="-119.5" font-family="Helvetica,sans-Serif" font-size="10.00">ROSEndEffector/EEInterface.h</text>
</a>
</g>
</g>
<!-- Node2&#45;&gt;Node6 -->
<g id="edge5" class="edge"><title>Node2&#45;&gt;Node6</title>
<path fill="none" stroke="midnightblue" d="M155.104,-168.444C184.8,-159.28 232.091,-144.688 265.044,-134.519"/>
<polygon fill="midnightblue" stroke="midnightblue" points="266.252,-137.809 274.775,-131.516 264.188,-131.121 266.252,-137.809"/>
</g>
<!-- Node3&#45;&gt;Node4 -->
<g id="edge3" class="edge"><title>Node3&#45;&gt;Node4</title>
<path fill="none" stroke="midnightblue" d="M72.4483,-112.083C65.5285,-104.298 55.3092,-92.8015 46.9226,-83.3665"/>
<polygon fill="midnightblue" stroke="midnightblue" points="49.4129,-80.8999 40.1533,-75.7511 44.181,-85.5505 49.4129,-80.8999"/>
</g>
<!-- Node3&#45;&gt;Node5 -->
<g id="edge4" class="edge"><title>Node3&#45;&gt;Node5</title>
<path fill="none" stroke="midnightblue" d="M84.298,-112.368C92.4398,-94.4563 111.318,-52.9233 122.216,-28.9482"/>
<polygon fill="midnightblue" stroke="midnightblue" points="125.518,-30.1434 126.469,-19.5914 119.145,-27.2468 125.518,-30.1434"/>
</g>
<!-- Node6&#45;&gt;Node5 -->
<g id="edge8" class="edge"><title>Node6&#45;&gt;Node5</title>
<path fill="none" stroke="midnightblue" d="M288.878,-112.368C259.363,-93.4924 188.831,-48.385 152.636,-25.2367"/>
<polygon fill="midnightblue" stroke="midnightblue" points="154.119,-22.0306 143.808,-19.5914 150.347,-27.9278 154.119,-22.0306"/>
</g>
<!-- Node7 -->
<g id="node7" class="node"><title>Node7</title>
<polygon fill="none" stroke="#bfbfbf" points="241.375,-56.5 241.375,-75.5 279.375,-75.5 279.375,-56.5 241.375,-56.5"/>
<text text-anchor="middle" x="260.375" y="-63.5" font-family="Helvetica,sans-Serif" font-size="10.00">map</text>
</g>
<!-- Node6&#45;&gt;Node7 -->
<g id="edge6" class="edge"><title>Node6&#45;&gt;Node7</title>
<path fill="none" stroke="midnightblue" d="M295.439,-112.083C289.445,-104.377 280.623,-93.0333 273.327,-83.6531"/>
<polygon fill="midnightblue" stroke="midnightblue" points="276.083,-81.4958 267.181,-75.7511 270.558,-85.7934 276.083,-81.4958"/>
</g>
<!-- Node8 -->
<g id="node8" class="node"><title>Node8</title>
<polygon fill="none" stroke="#bfbfbf" points="297.875,-56.5 297.875,-75.5 344.875,-75.5 344.875,-56.5 297.875,-56.5"/>
<text text-anchor="middle" x="321.375" y="-63.5" font-family="Helvetica,sans-Serif" font-size="10.00">vector</text>
</g>
<!-- Node6&#45;&gt;Node8 -->
<g id="edge7" class="edge"><title>Node6&#45;&gt;Node8</title>
<path fill="none" stroke="midnightblue" d="M305.512,-112.083C308.057,-104.849 311.731,-94.4087 314.902,-85.3968"/>
<polygon fill="midnightblue" stroke="midnightblue" points="318.278,-86.3459 318.295,-75.7511 311.675,-84.0225 318.278,-86.3459"/>
</g>
<!-- Node9 -->
<g id="node9" class="node"><title>Node9</title>
<g id="a_node9"><a xlink:href="Parser_8h.html" target="_top" xlink:title="ROSEndEffector/Parser.h">
<polygon fill="none" stroke="black" points="363.375,-56.5 363.375,-75.5 497.375,-75.5 497.375,-56.5 363.375,-56.5"/>
<text text-anchor="middle" x="430.375" y="-63.5" font-family="Helvetica,sans-Serif" font-size="10.00">ROSEndEffector/Parser.h</text>
</a>
</g>
</g>
<!-- Node6&#45;&gt;Node9 -->
<g id="edge9" class="edge"><title>Node6&#45;&gt;Node9</title>
<path fill="none" stroke="midnightblue" d="M322.657,-112.444C343.722,-103.557 376.891,-89.5632 400.86,-79.4514"/>
<polygon fill="midnightblue" stroke="midnightblue" points="402.334,-82.6283 410.187,-75.5164 399.613,-76.1787 402.334,-82.6283"/>
</g>
<!-- Node16 -->
<g id="node16" class="node"><title>Node16</title>
<polygon fill="none" stroke="#bfbfbf" points="515.875,-56.5 515.875,-75.5 592.875,-75.5 592.875,-56.5 515.875,-56.5"/>
<text text-anchor="middle" x="554.375" y="-63.5" font-family="Helvetica,sans-Serif" font-size="10.00">Eigen/Dense</text>
</g>
<!-- Node6&#45;&gt;Node16 -->
<g id="edge17" class="edge"><title>Node6&#45;&gt;Node16</title>
<path fill="none" stroke="midnightblue" d="M342.305,-112.444C386.653,-102.94 458.252,-87.5977 505.811,-77.4066"/>
<polygon fill="midnightblue" stroke="midnightblue" points="506.826,-80.7685 515.871,-75.2508 505.359,-73.9239 506.826,-80.7685"/>
</g>
<!-- Node9&#45;&gt;Node5 -->
<g id="edge10" class="edge"><title>Node9&#45;&gt;Node5</title>
<path fill="none" stroke="midnightblue" d="M373.729,-56.4678C322.617,-48.507 245.149,-35.7936 169.228,-20.2797"/>
<polygon fill="midnightblue" stroke="midnightblue" points="169.514,-16.7652 159.014,-18.1733 168.101,-23.621 169.514,-16.7652"/>
</g>
<!-- Node10 -->
<g id="node10" class="node"><title>Node10</title>
<polygon fill="none" stroke="#bfbfbf" points="176.875,-0.5 176.875,-19.5 235.875,-19.5 235.875,-0.5 176.875,-0.5"/>
<text text-anchor="middle" x="206.375" y="-7.5" font-family="Helvetica,sans-Serif" font-size="10.00">ros/ros.h</text>
</g>
<!-- Node9&#45;&gt;Node10 -->
<g id="edge11" class="edge"><title>Node9&#45;&gt;Node10</title>
<path fill="none" stroke="midnightblue" d="M394.881,-56.4435C354.309,-46.6628 288.08,-30.6968 245.895,-20.5274"/>
<polygon fill="midnightblue" stroke="midnightblue" points="246.521,-17.0779 235.979,-18.1368 244.88,-23.883 246.521,-17.0779"/>
</g>
<!-- Node11 -->
<g id="node11" class="node"><title>Node11</title>
<polygon fill="none" stroke="#bfbfbf" points="254.375,-0.5 254.375,-19.5 350.375,-19.5 350.375,-0.5 254.375,-0.5"/>
<text text-anchor="middle" x="302.375" y="-7.5" font-family="Helvetica,sans-Serif" font-size="10.00">yaml&#45;cpp/yaml.h</text>
</g>
<!-- Node9&#45;&gt;Node11 -->
<g id="edge12" class="edge"><title>Node9&#45;&gt;Node11</title>
<path fill="none" stroke="midnightblue" d="M410.093,-56.4435C389.027,-47.5566 355.858,-33.5632 331.889,-23.4514"/>
<polygon fill="midnightblue" stroke="midnightblue" points="333.136,-20.1787 322.562,-19.5164 330.415,-26.6283 333.136,-20.1787"/>
</g>
<!-- Node12 -->
<g id="node12" class="node"><title>Node12</title>
<polygon fill="none" stroke="#bfbfbf" points="368.375,-0.5 368.375,-19.5 506.375,-19.5 506.375,-0.5 368.375,-0.5"/>
<text text-anchor="middle" x="437.375" y="-7.5" font-family="Helvetica,sans-Serif" font-size="10.00">urdf_parser/urdf_parser.h</text>
</g>
<!-- Node9&#45;&gt;Node12 -->
<g id="edge13" class="edge"><title>Node9&#45;&gt;Node12</title>
<path fill="none" stroke="midnightblue" d="M431.53,-56.083C432.458,-48.9272 433.792,-38.6353 434.952,-29.6911"/>
<polygon fill="midnightblue" stroke="midnightblue" points="438.425,-30.1181 436.24,-19.7511 431.484,-29.2181 438.425,-30.1181"/>
</g>
<!-- Node13 -->
<g id="node13" class="node"><title>Node13</title>
<polygon fill="none" stroke="#bfbfbf" points="524.375,-0.5 524.375,-19.5 664.375,-19.5 664.375,-0.5 524.375,-0.5"/>
<text text-anchor="middle" x="594.375" y="-7.5" font-family="Helvetica,sans-Serif" font-size="10.00">kdl_parser/kdl_parser.hpp</text>
</g>
<!-- Node9&#45;&gt;Node13 -->
<g id="edge14" class="edge"><title>Node9&#45;&gt;Node13</title>
<path fill="none" stroke="midnightblue" d="M456.361,-56.4435C484.071,-47.3196 528.127,-32.8133 558.99,-22.6509"/>
<polygon fill="midnightblue" stroke="midnightblue" points="560.106,-25.9684 568.51,-19.5164 557.917,-19.3196 560.106,-25.9684"/>
</g>
<!-- Node14 -->
<g id="node14" class="node"><title>Node14</title>
<polygon fill="none" stroke="#bfbfbf" points="682.375,-0.5 682.375,-19.5 780.375,-19.5 780.375,-0.5 682.375,-0.5"/>
<text text-anchor="middle" x="731.375" y="-7.5" font-family="Helvetica,sans-Serif" font-size="10.00">srdfdom/model.h</text>
</g>
<!-- Node9&#45;&gt;Node14 -->
<g id="edge15" class="edge"><title>Node9&#45;&gt;Node14</title>
<path fill="none" stroke="midnightblue" d="M478.069,-56.4435C531.238,-46.9049 617.199,-31.4834 674.001,-21.293"/>
<polygon fill="midnightblue" stroke="midnightblue" points="674.679,-24.7273 683.903,-19.5164 673.442,-17.8373 674.679,-24.7273"/>
</g>
<!-- Node15 -->
<g id="node15" class="node"><title>Node15</title>
<polygon fill="none" stroke="#bfbfbf" points="798.875,-0.5 798.875,-19.5 939.875,-19.5 939.875,-0.5 798.875,-0.5"/>
<text text-anchor="middle" x="869.375" y="-7.5" font-family="Helvetica,sans-Serif" font-size="10.00">boost/filesystem/path.hpp</text>
</g>
<!-- Node9&#45;&gt;Node15 -->
<g id="edge16" class="edge"><title>Node9&#45;&gt;Node15</title>
<path fill="none" stroke="midnightblue" d="M497.527,-56.7398C576.232,-47.0585 706.503,-31.0343 790.098,-20.7515"/>
<polygon fill="midnightblue" stroke="midnightblue" points="790.557,-24.2216 800.055,-19.5268 789.702,-17.2739 790.557,-24.2216"/>
</g>
</g>
</svg>
