<?xml version="1.0" encoding="UTF-8" standalone="no"?>
<!DOCTYPE svg PUBLIC "-//W3C//DTD SVG 1.1//EN"
 "http://www.w3.org/Graphics/SVG/1.1/DTD/svg11.dtd">
<!-- Generated by graphviz version 2.38.0 (20140413.2041)
 -->
<!-- Title: /home/travis/build/ADVRHumanoids/ROSEndEffector/include/ROSEndEffector/EEHal.h Pages: 1 -->
<svg width="947pt" height="218pt"
 viewBox="0.00 0.00 947.50 218.00" xmlns="http://www.w3.org/2000/svg" xmlns:xlink="http://www.w3.org/1999/xlink">
<g id="graph0" class="graph" transform="scale(1 1) rotate(0) translate(4 214)">
<title>/home/travis/build/ADVRHumanoids/ROSEndEffector/include/ROSEndEffector/EEHal.h</title>
<!-- Node1 -->
<g id="node1" class="node"><title>Node1</title>
<polygon fill="#bfbfbf" stroke="black" points="37.4981,-168.5 37.4981,-209.5 216.498,-209.5 216.498,-168.5 37.4981,-168.5"/>
<text text-anchor="start" x="45.4981" y="-197.5" font-family="Helvetica,sans-Serif" font-size="10.00">/home/travis/build</text>
<text text-anchor="start" x="45.4981" y="-186.5" font-family="Helvetica,sans-Serif" font-size="10.00">/ADVRHumanoids/ROSEndEffector</text>
<text text-anchor="middle" x="126.998" y="-175.5" font-family="Helvetica,sans-Serif" font-size="10.00">/include/ROSEndEffector/EEHal.h</text>
</g>
<!-- Node2 -->
<g id="node2" class="node"><title>Node2</title>
<g id="a_node2"><a xlink:href="IMotor_8h.html" target="_top" xlink:title="ROSEndEffector/IMotor.h">
<polygon fill="none" stroke="black" points="12.9981,-112.5 12.9981,-131.5 146.998,-131.5 146.998,-112.5 12.9981,-112.5"/>
<text text-anchor="middle" x="79.9981" y="-119.5" font-family="Helvetica,sans-Serif" font-size="10.00">ROSEndEffector/IMotor.h</text>
</a>
</g>
</g>
<!-- Node1&#45;&gt;Node2 -->
<g id="edge1" class="edge"><title>Node1&#45;&gt;Node2</title>
<path fill="none" stroke="midnightblue" d="M112.897,-168.498C106.314,-159.395 98.5539,-148.662 92.224,-139.908"/>
<polygon fill="midnightblue" stroke="midnightblue" points="94.9502,-137.705 86.2545,-131.652 89.2778,-141.807 94.9502,-137.705"/>
</g>
<!-- Node3 -->
<g id="node3" class="node"><title>Node3</title>
<polygon fill="none" stroke="#bfbfbf" points="9.9981,-56.5 9.9981,-75.5 53.9981,-75.5 53.9981,-56.5 9.9981,-56.5"/>
<text text-anchor="middle" x="31.9981" y="-63.5" font-family="Helvetica,sans-Serif" font-size="10.00">string</text>
</g>
<!-- Node1&#45;&gt;Node3 -->
<g id="edge17" class="edge"><title>Node1&#45;&gt;Node3</title>
<path fill="none" stroke="midnightblue" d="M49.1598,-168.429C31.3712,-160.161 14.5998,-148.476 3.9981,-132 -5.913,-116.598 5.21113,-97.0942 16.2342,-83.4877"/>
<polygon fill="midnightblue" stroke="midnightblue" points="18.9494,-85.6997 22.8956,-75.8672 13.679,-81.0927 18.9494,-85.6997"/>
</g>
<!-- Node4 -->
<g id="node4" class="node"><title>Node4</title>
<polygon fill="none" stroke="#bfbfbf" points="101.498,-0.5 101.498,-19.5 158.498,-19.5 158.498,-0.5 101.498,-0.5"/>
<text text-anchor="middle" x="129.998" y="-7.5" font-family="Helvetica,sans-Serif" font-size="10.00">memory</text>
</g>
<!-- Node1&#45;&gt;Node4 -->
<g id="edge18" class="edge"><title>Node1&#45;&gt;Node4</title>
<path fill="none" stroke="midnightblue" d="M140.071,-168.444C146.213,-158.086 152.863,-144.871 155.998,-132 164.901,-95.448 149.463,-52.2937 138.816,-28.6666"/>
<polygon fill="midnightblue" stroke="midnightblue" points="141.94,-27.086 134.498,-19.545 135.613,-30.081 141.94,-27.086"/>
</g>
<!-- Node5 -->
<g id="node5" class="node"><title>Node5</title>
<g id="a_node5"><a xlink:href="EEInterface_8h.html" target="_top" xlink:title="ROSEndEffector/EEInterface.h">
<polygon fill="none" stroke="black" points="222.998,-112.5 222.998,-131.5 380.998,-131.5 380.998,-112.5 222.998,-112.5"/>
<text text-anchor="middle" x="301.998" y="-119.5" font-family="Helvetica,sans-Serif" font-size="10.00">ROSEndEffector/EEInterface.h</text>
</a>
</g>
</g>
<!-- Node1&#45;&gt;Node5 -->
<g id="edge4" class="edge"><title>Node1&#45;&gt;Node5</title>
<path fill="none" stroke="midnightblue" d="M179.504,-168.498C208.657,-157.67 244.014,-144.537 269.234,-135.17"/>
<polygon fill="midnightblue" stroke="midnightblue" points="270.547,-138.415 278.703,-131.652 268.11,-131.853 270.547,-138.415"/>
</g>
<!-- Node2&#45;&gt;Node3 -->
<g id="edge2" class="edge"><title>Node2&#45;&gt;Node3</title>
<path fill="none" stroke="midnightblue" d="M72.0719,-112.083C65.152,-104.298 54.9327,-92.8015 46.5461,-83.3665"/>
<polygon fill="midnightblue" stroke="midnightblue" points="49.0364,-80.8999 39.7768,-75.7511 43.8046,-85.5505 49.0364,-80.8999"/>
</g>
<!-- Node2&#45;&gt;Node4 -->
<g id="edge3" class="edge"><title>Node2&#45;&gt;Node4</title>
<path fill="none" stroke="midnightblue" d="M83.9215,-112.368C92.0634,-94.4563 110.942,-52.9233 121.84,-28.9482"/>
<polygon fill="midnightblue" stroke="midnightblue" points="125.141,-30.1434 126.093,-19.5914 118.769,-27.2468 125.141,-30.1434"/>
</g>
<!-- Node5&#45;&gt;Node4 -->
<g id="edge7" class="edge"><title>Node5&#45;&gt;Node4</title>
<path fill="none" stroke="midnightblue" d="M288.502,-112.368C258.986,-93.4924 188.455,-48.385 152.259,-25.2367"/>
<polygon fill="midnightblue" stroke="midnightblue" points="153.742,-22.0306 143.432,-19.5914 149.971,-27.9278 153.742,-22.0306"/>
</g>
<!-- Node6 -->
<g id="node6" class="node"><title>Node6</title>
<polygon fill="none" stroke="#bfbfbf" points="240.998,-56.5 240.998,-75.5 278.998,-75.5 278.998,-56.5 240.998,-56.5"/>
<text text-anchor="middle" x="259.998" y="-63.5" font-family="Helvetica,sans-Serif" font-size="10.00">map</text>
</g>
<!-- Node5&#45;&gt;Node6 -->
<g id="edge5" class="edge"><title>Node5&#45;&gt;Node6</title>
<path fill="none" stroke="midnightblue" d="M295.063,-112.083C289.069,-104.377 280.246,-93.0333 272.95,-83.6531"/>
<polygon fill="midnightblue" stroke="midnightblue" points="275.707,-81.4958 266.804,-75.7511 270.181,-85.7934 275.707,-81.4958"/>
</g>
<!-- Node7 -->
<g id="node7" class="node"><title>Node7</title>
<polygon fill="none" stroke="#bfbfbf" points="297.498,-56.5 297.498,-75.5 344.498,-75.5 344.498,-56.5 297.498,-56.5"/>
<text text-anchor="middle" x="320.998" y="-63.5" font-family="Helvetica,sans-Serif" font-size="10.00">vector</text>
</g>
<!-- Node5&#45;&gt;Node7 -->
<g id="edge6" class="edge"><title>Node5&#45;&gt;Node7</title>
<path fill="none" stroke="midnightblue" d="M305.136,-112.083C307.681,-104.849 311.354,-94.4087 314.525,-85.3968"/>
<polygon fill="midnightblue" stroke="midnightblue" points="317.901,-86.3459 317.919,-75.7511 311.298,-84.0225 317.901,-86.3459"/>
</g>
<!-- Node8 -->
<g id="node8" class="node"><title>Node8</title>
<g id="a_node8"><a xlink:href="Parser_8h.html" target="_top" xlink:title="ROSEndEffector/Parser.h">
<polygon fill="none" stroke="black" points="362.998,-56.5 362.998,-75.5 496.998,-75.5 496.998,-56.5 362.998,-56.5"/>
<text text-anchor="middle" x="429.998" y="-63.5" font-family="Helvetica,sans-Serif" font-size="10.00">ROSEndEffector/Parser.h</text>
</a>
</g>
</g>
<!-- Node5&#45;&gt;Node8 -->
<g id="edge8" class="edge"><title>Node5&#45;&gt;Node8</title>
<path fill="none" stroke="midnightblue" d="M322.28,-112.444C343.345,-103.557 376.515,-89.5632 400.484,-79.4514"/>
<polygon fill="midnightblue" stroke="midnightblue" points="401.958,-82.6283 409.811,-75.5164 399.237,-76.1787 401.958,-82.6283"/>
</g>
<!-- Node15 -->
<g id="node15" class="node"><title>Node15</title>
<polygon fill="none" stroke="#bfbfbf" points="515.498,-56.5 515.498,-75.5 592.498,-75.5 592.498,-56.5 515.498,-56.5"/>
<text text-anchor="middle" x="553.998" y="-63.5" font-family="Helvetica,sans-Serif" font-size="10.00">Eigen/Dense</text>
</g>
<!-- Node5&#45;&gt;Node15 -->
<g id="edge16" class="edge"><title>Node5&#45;&gt;Node15</title>
<path fill="none" stroke="midnightblue" d="M341.928,-112.444C386.277,-102.94 457.876,-87.5977 505.434,-77.4066"/>
<polygon fill="midnightblue" stroke="midnightblue" points="506.45,-80.7685 515.494,-75.2508 504.983,-73.9239 506.45,-80.7685"/>
</g>
<!-- Node8&#45;&gt;Node4 -->
<g id="edge9" class="edge"><title>Node8&#45;&gt;Node4</title>
<path fill="none" stroke="midnightblue" d="M373.352,-56.4678C322.24,-48.507 244.773,-35.7936 168.851,-20.2797"/>
<polygon fill="midnightblue" stroke="midnightblue" points="169.138,-16.7652 158.637,-18.1733 167.724,-23.621 169.138,-16.7652"/>
</g>
<!-- Node9 -->
<g id="node9" class="node"><title>Node9</title>
<polygon fill="none" stroke="#bfbfbf" points="176.498,-0.5 176.498,-19.5 235.498,-19.5 235.498,-0.5 176.498,-0.5"/>
<text text-anchor="middle" x="205.998" y="-7.5" font-family="Helvetica,sans-Serif" font-size="10.00">ros/ros.h</text>
</g>
<!-- Node8&#45;&gt;Node9 -->
<g id="edge10" class="edge"><title>Node8&#45;&gt;Node9</title>
<path fill="none" stroke="midnightblue" d="M394.505,-56.4435C353.933,-46.6628 287.703,-30.6968 245.519,-20.5274"/>
<polygon fill="midnightblue" stroke="midnightblue" points="246.144,-17.0779 235.603,-18.1368 244.504,-23.883 246.144,-17.0779"/>
</g>
<!-- Node10 -->
<g id="node10" class="node"><title>Node10</title>
<polygon fill="none" stroke="#bfbfbf" points="253.998,-0.5 253.998,-19.5 349.998,-19.5 349.998,-0.5 253.998,-0.5"/>
<text text-anchor="middle" x="301.998" y="-7.5" font-family="Helvetica,sans-Serif" font-size="10.00">yaml&#45;cpp/yaml.h</text>
</g>
<!-- Node8&#45;&gt;Node10 -->
<g id="edge11" class="edge"><title>Node8&#45;&gt;Node10</title>
<path fill="none" stroke="midnightblue" d="M409.716,-56.4435C388.651,-47.5566 355.481,-33.5632 331.513,-23.4514"/>
<polygon fill="midnightblue" stroke="midnightblue" points="332.759,-20.1787 322.185,-19.5164 330.038,-26.6283 332.759,-20.1787"/>
</g>
<!-- Node11 -->
<g id="node11" class="node"><title>Node11</title>
<polygon fill="none" stroke="#bfbfbf" points="367.998,-0.5 367.998,-19.5 505.998,-19.5 505.998,-0.5 367.998,-0.5"/>
<text text-anchor="middle" x="436.998" y="-7.5" font-family="Helvetica,sans-Serif" font-size="10.00">urdf_parser/urdf_parser.h</text>
</g>
<!-- Node8&#45;&gt;Node11 -->
<g id="edge12" class="edge"><title>Node8&#45;&gt;Node11</title>
<path fill="none" stroke="midnightblue" d="M431.154,-56.083C432.082,-48.9272 433.416,-38.6353 434.575,-29.6911"/>
<polygon fill="midnightblue" stroke="midnightblue" points="438.049,-30.1181 435.864,-19.7511 431.107,-29.2181 438.049,-30.1181"/>
</g>
<!-- Node12 -->
<g id="node12" class="node"><title>Node12</title>
<polygon fill="none" stroke="#bfbfbf" points="523.998,-0.5 523.998,-19.5 663.998,-19.5 663.998,-0.5 523.998,-0.5"/>
<text text-anchor="middle" x="593.998" y="-7.5" font-family="Helvetica,sans-Serif" font-size="10.00">kdl_parser/kdl_parser.hpp</text>
</g>
<!-- Node8&#45;&gt;Node12 -->
<g id="edge13" class="edge"><title>Node8&#45;&gt;Node12</title>
<path fill="none" stroke="midnightblue" d="M455.984,-56.4435C483.694,-47.3196 527.75,-32.8133 558.614,-22.6509"/>
<polygon fill="midnightblue" stroke="midnightblue" points="559.73,-25.9684 568.133,-19.5164 557.54,-19.3196 559.73,-25.9684"/>
</g>
<!-- Node13 -->
<g id="node13" class="node"><title>Node13</title>
<polygon fill="none" stroke="#bfbfbf" points="681.998,-0.5 681.998,-19.5 779.998,-19.5 779.998,-0.5 681.998,-0.5"/>
<text text-anchor="middle" x="730.998" y="-7.5" font-family="Helvetica,sans-Serif" font-size="10.00">srdfdom/model.h</text>
</g>
<!-- Node8&#45;&gt;Node13 -->
<g id="edge14" class="edge"><title>Node8&#45;&gt;Node13</title>
<path fill="none" stroke="midnightblue" d="M477.692,-56.4435C530.862,-46.9049 616.822,-31.4834 673.624,-21.293"/>
<polygon fill="midnightblue" stroke="midnightblue" points="674.302,-24.7273 683.527,-19.5164 673.066,-17.8373 674.302,-24.7273"/>
</g>
<!-- Node14 -->
<g id="node14" class="node"><title>Node14</title>
<polygon fill="none" stroke="#bfbfbf" points="798.498,-0.5 798.498,-19.5 939.498,-19.5 939.498,-0.5 798.498,-0.5"/>
<text text-anchor="middle" x="868.998" y="-7.5" font-family="Helvetica,sans-Serif" font-size="10.00">boost/filesystem/path.hpp</text>
</g>
<!-- Node8&#45;&gt;Node14 -->
<g id="edge15" class="edge"><title>Node8&#45;&gt;Node14</title>
<path fill="none" stroke="midnightblue" d="M497.151,-56.7398C575.856,-47.0585 706.127,-31.0343 789.722,-20.7515"/>
<polygon fill="midnightblue" stroke="midnightblue" points="790.181,-24.2216 799.679,-19.5268 789.326,-17.2739 790.181,-24.2216"/>
</g>
</g>
</svg>
