<?xml version="1.0" encoding="UTF-8" standalone="no"?>
<!DOCTYPE svg PUBLIC "-//W3C//DTD SVG 1.1//EN"
 "http://www.w3.org/Graphics/SVG/1.1/DTD/svg11.dtd">
<!-- Generated by graphviz version 2.38.0 (20140413.2041)
 -->
<!-- Title: /home/travis/build/ADVRHumanoids/ROSEndEffector/include/ROSEndEffector/EEHal.h Pages: 1 -->
<svg width="834pt" height="218pt"
 viewBox="0.00 0.00 833.62 218.00" xmlns="http://www.w3.org/2000/svg" xmlns:xlink="http://www.w3.org/1999/xlink">
<g id="graph0" class="graph" transform="scale(1 1) rotate(0) translate(4 214)">
<title>/home/travis/build/ADVRHumanoids/ROSEndEffector/include/ROSEndEffector/EEHal.h</title>
<!-- Node1 -->
<g id="node1" class="node"><title>Node1</title>
<polygon fill="#bfbfbf" stroke="black" points="38.1202,-168.5 38.1202,-209.5 217.12,-209.5 217.12,-168.5 38.1202,-168.5"/>
<text text-anchor="start" x="46.1202" y="-197.5" font-family="Helvetica,sans-Serif" font-size="10.00">/home/travis/build</text>
<text text-anchor="start" x="46.1202" y="-186.5" font-family="Helvetica,sans-Serif" font-size="10.00">/ADVRHumanoids/ROSEndEffector</text>
<text text-anchor="middle" x="127.62" y="-175.5" font-family="Helvetica,sans-Serif" font-size="10.00">/include/ROSEndEffector/EEHal.h</text>
</g>
<!-- Node2 -->
<g id="node2" class="node"><title>Node2</title>
<g id="a_node2"><a xlink:href="IMotor_8h.html" target="_top" xlink:title="ROSEndEffector/IMotor.h">
<polygon fill="none" stroke="black" points="13.6202,-112.5 13.6202,-131.5 147.62,-131.5 147.62,-112.5 13.6202,-112.5"/>
<text text-anchor="middle" x="80.6202" y="-119.5" font-family="Helvetica,sans-Serif" font-size="10.00">ROSEndEffector/IMotor.h</text>
</a>
</g>
</g>
<!-- Node1&#45;&gt;Node2 -->
<g id="edge1" class="edge"><title>Node1&#45;&gt;Node2</title>
<path fill="none" stroke="midnightblue" d="M113.519,-168.498C106.936,-159.395 99.176,-148.662 92.846,-139.908"/>
<polygon fill="midnightblue" stroke="midnightblue" points="95.5723,-137.705 86.8766,-131.652 89.8998,-141.807 95.5723,-137.705"/>
</g>
<!-- Node3 -->
<g id="node3" class="node"><title>Node3</title>
<polygon fill="none" stroke="#bfbfbf" points="0.620154,-56.5 0.620154,-75.5 44.6202,-75.5 44.6202,-56.5 0.620154,-56.5"/>
<text text-anchor="middle" x="22.6202" y="-63.5" font-family="Helvetica,sans-Serif" font-size="10.00">string</text>
</g>
<!-- Node1&#45;&gt;Node3 -->
<g id="edge16" class="edge"><title>Node1&#45;&gt;Node3</title>
<path fill="none" stroke="midnightblue" d="M49.7818,-168.429C31.9933,-160.161 15.2218,-148.476 4.62015,-132 -4.74965,-117.439 2.71119,-98.0116 10.685,-84.1985"/>
<polygon fill="midnightblue" stroke="midnightblue" points="13.6975,-85.9833 16.0868,-75.6613 7.7822,-82.2404 13.6975,-85.9833"/>
</g>
<!-- Node4 -->
<g id="node4" class="node"><title>Node4</title>
<polygon fill="none" stroke="#bfbfbf" points="147.12,-0.5 147.12,-19.5 204.12,-19.5 204.12,-0.5 147.12,-0.5"/>
<text text-anchor="middle" x="175.62" y="-7.5" font-family="Helvetica,sans-Serif" font-size="10.00">memory</text>
</g>
<!-- Node1&#45;&gt;Node4 -->
<g id="edge17" class="edge"><title>Node1&#45;&gt;Node4</title>
<path fill="none" stroke="midnightblue" d="M139.719,-168.465C145.678,-158.006 152.459,-144.693 156.62,-132 168.063,-97.0969 172.714,-54.2063 174.529,-29.9979"/>
<polygon fill="midnightblue" stroke="midnightblue" points="178.04,-29.9411 175.21,-19.7314 171.056,-29.478 178.04,-29.9411"/>
</g>
<!-- Node5 -->
<g id="node5" class="node"><title>Node5</title>
<g id="a_node5"><a xlink:href="EEInterface_8h.html" target="_top" xlink:title="ROSEndEffector/EEInterface.h">
<polygon fill="none" stroke="black" points="223.62,-112.5 223.62,-131.5 381.62,-131.5 381.62,-112.5 223.62,-112.5"/>
<text text-anchor="middle" x="302.62" y="-119.5" font-family="Helvetica,sans-Serif" font-size="10.00">ROSEndEffector/EEInterface.h</text>
</a>
</g>
</g>
<!-- Node1&#45;&gt;Node5 -->
<g id="edge4" class="edge"><title>Node1&#45;&gt;Node5</title>
<path fill="none" stroke="midnightblue" d="M180.126,-168.498C209.279,-157.67 244.636,-144.537 269.856,-135.17"/>
<polygon fill="midnightblue" stroke="midnightblue" points="271.169,-138.415 279.325,-131.652 268.732,-131.853 271.169,-138.415"/>
</g>
<!-- Node2&#45;&gt;Node3 -->
<g id="edge2" class="edge"><title>Node2&#45;&gt;Node3</title>
<path fill="none" stroke="midnightblue" d="M71.3015,-112.324C62.7276,-104.341 49.8079,-92.3128 39.4325,-82.6529"/>
<polygon fill="midnightblue" stroke="midnightblue" points="41.8124,-80.0865 32.1084,-75.8339 37.0424,-85.2098 41.8124,-80.0865"/>
</g>
<!-- Node2&#45;&gt;Node4 -->
<g id="edge3" class="edge"><title>Node2&#45;&gt;Node4</title>
<path fill="none" stroke="midnightblue" d="M88.0746,-112.368C103.891,-94.0547 141.032,-51.0489 161.489,-27.3624"/>
<polygon fill="midnightblue" stroke="midnightblue" points="164.313,-29.4474 168.2,-19.5914 159.015,-24.872 164.313,-29.4474"/>
</g>
<!-- Node5&#45;&gt;Node4 -->
<g id="edge7" class="edge"><title>Node5&#45;&gt;Node4</title>
<path fill="none" stroke="midnightblue" d="M286.738,-112.499C271.954,-104.202 249.696,-90.7098 232.62,-76 215.643,-61.3748 199.081,-41.7009 188.225,-27.8413"/>
<polygon fill="midnightblue" stroke="midnightblue" points="190.831,-25.4883 181.967,-19.6846 185.277,-29.7491 190.831,-25.4883"/>
</g>
<!-- Node6 -->
<g id="node6" class="node"><title>Node6</title>
<polygon fill="none" stroke="#bfbfbf" points="241.62,-56.5 241.62,-75.5 279.62,-75.5 279.62,-56.5 241.62,-56.5"/>
<text text-anchor="middle" x="260.62" y="-63.5" font-family="Helvetica,sans-Serif" font-size="10.00">map</text>
</g>
<!-- Node5&#45;&gt;Node6 -->
<g id="edge5" class="edge"><title>Node5&#45;&gt;Node6</title>
<path fill="none" stroke="midnightblue" d="M295.685,-112.083C289.691,-104.377 280.868,-93.0333 273.573,-83.6531"/>
<polygon fill="midnightblue" stroke="midnightblue" points="276.329,-81.4958 267.427,-75.7511 270.803,-85.7934 276.329,-81.4958"/>
</g>
<!-- Node7 -->
<g id="node7" class="node"><title>Node7</title>
<polygon fill="none" stroke="#bfbfbf" points="298.12,-56.5 298.12,-75.5 345.12,-75.5 345.12,-56.5 298.12,-56.5"/>
<text text-anchor="middle" x="321.62" y="-63.5" font-family="Helvetica,sans-Serif" font-size="10.00">vector</text>
</g>
<!-- Node5&#45;&gt;Node7 -->
<g id="edge6" class="edge"><title>Node5&#45;&gt;Node7</title>
<path fill="none" stroke="midnightblue" d="M305.758,-112.083C308.303,-104.849 311.976,-94.4087 315.147,-85.3968"/>
<polygon fill="midnightblue" stroke="midnightblue" points="318.524,-86.3459 318.541,-75.7511 311.92,-84.0225 318.524,-86.3459"/>
</g>
<!-- Node8 -->
<g id="node8" class="node"><title>Node8</title>
<g id="a_node8"><a xlink:href="Parser_8h.html" target="_top" xlink:title="ROSEndEffector/Parser.h">
<polygon fill="none" stroke="black" points="363.62,-56.5 363.62,-75.5 497.62,-75.5 497.62,-56.5 363.62,-56.5"/>
<text text-anchor="middle" x="430.62" y="-63.5" font-family="Helvetica,sans-Serif" font-size="10.00">ROSEndEffector/Parser.h</text>
</a>
</g>
</g>
<!-- Node5&#45;&gt;Node8 -->
<g id="edge8" class="edge"><title>Node5&#45;&gt;Node8</title>
<path fill="none" stroke="midnightblue" d="M322.902,-112.444C343.967,-103.557 377.137,-89.5632 401.106,-79.4514"/>
<polygon fill="midnightblue" stroke="midnightblue" points="402.58,-82.6283 410.433,-75.5164 399.859,-76.1787 402.58,-82.6283"/>
</g>
<!-- Node14 -->
<g id="node14" class="node"><title>Node14</title>
<polygon fill="none" stroke="#bfbfbf" points="516.12,-56.5 516.12,-75.5 593.12,-75.5 593.12,-56.5 516.12,-56.5"/>
<text text-anchor="middle" x="554.62" y="-63.5" font-family="Helvetica,sans-Serif" font-size="10.00">Eigen/Dense</text>
</g>
<!-- Node5&#45;&gt;Node14 -->
<g id="edge15" class="edge"><title>Node5&#45;&gt;Node14</title>
<path fill="none" stroke="midnightblue" d="M342.55,-112.444C386.899,-102.94 458.498,-87.5977 506.056,-77.4066"/>
<polygon fill="midnightblue" stroke="midnightblue" points="507.072,-80.7685 516.116,-75.2508 505.605,-73.9239 507.072,-80.7685"/>
</g>
<!-- Node8&#45;&gt;Node4 -->
<g id="edge9" class="edge"><title>Node8&#45;&gt;Node4</title>
<path fill="none" stroke="midnightblue" d="M387.094,-56.482C345.174,-48.174 279.729,-34.9317 214.346,-20.3346"/>
<polygon fill="midnightblue" stroke="midnightblue" points="214.804,-16.8504 204.28,-18.0763 213.271,-23.6806 214.804,-16.8504"/>
</g>
<!-- Node9 -->
<g id="node9" class="node"><title>Node9</title>
<polygon fill="none" stroke="#bfbfbf" points="222.12,-0.5 222.12,-19.5 281.12,-19.5 281.12,-0.5 222.12,-0.5"/>
<text text-anchor="middle" x="251.62" y="-7.5" font-family="Helvetica,sans-Serif" font-size="10.00">ros/ros.h</text>
</g>
<!-- Node8&#45;&gt;Node9 -->
<g id="edge10" class="edge"><title>Node8&#45;&gt;Node9</title>
<path fill="none" stroke="midnightblue" d="M402.257,-56.4435C371.882,-47.2801 323.51,-32.6876 289.804,-22.5192"/>
<polygon fill="midnightblue" stroke="midnightblue" points="290.435,-19.0538 279.851,-19.5164 288.413,-25.7555 290.435,-19.0538"/>
</g>
<!-- Node10 -->
<g id="node10" class="node"><title>Node10</title>
<polygon fill="none" stroke="#bfbfbf" points="299.62,-0.5 299.62,-19.5 395.62,-19.5 395.62,-0.5 299.62,-0.5"/>
<text text-anchor="middle" x="347.62" y="-7.5" font-family="Helvetica,sans-Serif" font-size="10.00">yaml&#45;cpp/yaml.h</text>
</g>
<!-- Node8&#45;&gt;Node10 -->
<g id="edge11" class="edge"><title>Node8&#45;&gt;Node10</title>
<path fill="none" stroke="midnightblue" d="M417.285,-56.324C404.458,-47.979 384.835,-35.2122 369.68,-25.3524"/>
<polygon fill="midnightblue" stroke="midnightblue" points="371.213,-22.1742 360.922,-19.6545 367.396,-28.0417 371.213,-22.1742"/>
</g>
<!-- Node11 -->
<g id="node11" class="node"><title>Node11</title>
<polygon fill="none" stroke="#bfbfbf" points="413.62,-0.5 413.62,-19.5 551.62,-19.5 551.62,-0.5 413.62,-0.5"/>
<text text-anchor="middle" x="482.62" y="-7.5" font-family="Helvetica,sans-Serif" font-size="10.00">urdf_parser/urdf_parser.h</text>
</g>
<!-- Node8&#45;&gt;Node11 -->
<g id="edge12" class="edge"><title>Node8&#45;&gt;Node11</title>
<path fill="none" stroke="midnightblue" d="M439.207,-56.083C446.779,-48.2195 457.998,-36.5688 467.135,-27.0813"/>
<polygon fill="midnightblue" stroke="midnightblue" points="469.778,-29.3821 474.193,-19.7511 464.736,-24.5266 469.778,-29.3821"/>
</g>
<!-- Node12 -->
<g id="node12" class="node"><title>Node12</title>
<polygon fill="none" stroke="#bfbfbf" points="569.62,-0.5 569.62,-19.5 709.62,-19.5 709.62,-0.5 569.62,-0.5"/>
<text text-anchor="middle" x="639.62" y="-7.5" font-family="Helvetica,sans-Serif" font-size="10.00">kdl_parser/kdl_parser.hpp</text>
</g>
<!-- Node8&#45;&gt;Node12 -->
<g id="edge13" class="edge"><title>Node8&#45;&gt;Node12</title>
<path fill="none" stroke="midnightblue" d="M463.737,-56.4435C499.738,-47.1419 557.39,-32.246 596.806,-22.062"/>
<polygon fill="midnightblue" stroke="midnightblue" points="597.852,-25.4068 606.658,-19.5164 596.101,-18.6294 597.852,-25.4068"/>
</g>
<!-- Node13 -->
<g id="node13" class="node"><title>Node13</title>
<polygon fill="none" stroke="#bfbfbf" points="727.62,-0.5 727.62,-19.5 825.62,-19.5 825.62,-0.5 727.62,-0.5"/>
<text text-anchor="middle" x="776.62" y="-7.5" font-family="Helvetica,sans-Serif" font-size="10.00">srdfdom/model.h</text>
</g>
<!-- Node8&#45;&gt;Node13 -->
<g id="edge14" class="edge"><title>Node8&#45;&gt;Node13</title>
<path fill="none" stroke="midnightblue" d="M485.445,-56.4435C548.661,-46.5775 652.203,-30.4177 717.271,-20.2625"/>
<polygon fill="midnightblue" stroke="midnightblue" points="718.031,-23.6864 727.372,-18.6861 716.952,-16.7701 718.031,-23.6864"/>
</g>
</g>
</svg>
