<?xml version="1.0" encoding="UTF-8" standalone="no"?>
<!DOCTYPE svg PUBLIC "-//W3C//DTD SVG 1.1//EN"
 "http://www.w3.org/Graphics/SVG/1.1/DTD/svg11.dtd">
<!-- Generated by graphviz version 2.38.0 (20140413.2041)
 -->
<!-- Title: /home/travis/build/ADVRHumanoids/ROSEndEffector/include/end_effector/EEInterface.h Pages: 1 -->
<svg width="1272pt" height="218pt"
 viewBox="0.00 0.00 1271.50 218.00" xmlns="http://www.w3.org/2000/svg" xmlns:xlink="http://www.w3.org/1999/xlink">
<g id="graph0" class="graph" transform="scale(1 1) rotate(0) translate(4 214)">
<title>/home/travis/build/ADVRHumanoids/ROSEndEffector/include/end_effector/EEInterface.h</title>
<!-- Node1 -->
<g id="node1" class="node"><title>Node1</title>
<polygon fill="#bfbfbf" stroke="black" points="41,-168.5 41,-209.5 223,-209.5 223,-168.5 41,-168.5"/>
<text text-anchor="start" x="49" y="-197.5" font-family="Helvetica,sans-Serif" font-size="10.00">/home/travis/build</text>
<text text-anchor="start" x="49" y="-186.5" font-family="Helvetica,sans-Serif" font-size="10.00">/ADVRHumanoids/ROSEndEffector</text>
<text text-anchor="middle" x="132" y="-175.5" font-family="Helvetica,sans-Serif" font-size="10.00">/include/end_effector/EEInterface.h</text>
</g>
<!-- Node2 -->
<g id="node2" class="node"><title>Node2</title>
<polygon fill="none" stroke="#bfbfbf" points="0,-112.5 0,-131.5 38,-131.5 38,-112.5 0,-112.5"/>
<text text-anchor="middle" x="19" y="-119.5" font-family="Helvetica,sans-Serif" font-size="10.00">map</text>
</g>
<!-- Node1&#45;&gt;Node2 -->
<g id="edge1" class="edge"><title>Node1&#45;&gt;Node2</title>
<path fill="none" stroke="midnightblue" d="M98.0963,-168.498C80.2715,-158.245 58.8543,-145.925 42.8042,-136.693"/>
<polygon fill="midnightblue" stroke="midnightblue" points="44.4554,-133.605 34.042,-131.652 40.9651,-139.673 44.4554,-133.605"/>
</g>
<!-- Node3 -->
<g id="node3" class="node"><title>Node3</title>
<polygon fill="none" stroke="#bfbfbf" points="56.5,-112.5 56.5,-131.5 103.5,-131.5 103.5,-112.5 56.5,-112.5"/>
<text text-anchor="middle" x="80" y="-119.5" font-family="Helvetica,sans-Serif" font-size="10.00">vector</text>
</g>
<!-- Node1&#45;&gt;Node3 -->
<g id="edge2" class="edge"><title>Node1&#45;&gt;Node3</title>
<path fill="none" stroke="midnightblue" d="M116.398,-168.498C109.039,-159.299 100.349,-148.436 93.3058,-139.632"/>
<polygon fill="midnightblue" stroke="midnightblue" points="95.902,-137.275 86.922,-131.652 90.4359,-141.648 95.902,-137.275"/>
</g>
<!-- Node4 -->
<g id="node4" class="node"><title>Node4</title>
<polygon fill="none" stroke="#bfbfbf" points="92.5,-0.5 92.5,-19.5 149.5,-19.5 149.5,-0.5 92.5,-0.5"/>
<text text-anchor="middle" x="121" y="-7.5" font-family="Helvetica,sans-Serif" font-size="10.00">memory</text>
</g>
<!-- Node1&#45;&gt;Node4 -->
<g id="edge3" class="edge"><title>Node1&#45;&gt;Node4</title>
<path fill="none" stroke="midnightblue" d="M130.781,-168.382C128.649,-134.082 124.273,-63.6579 122.174,-29.8828"/>
<polygon fill="midnightblue" stroke="midnightblue" points="125.647,-29.3474 121.533,-19.5838 118.661,-29.7817 125.647,-29.3474"/>
</g>
<!-- Node5 -->
<g id="node5" class="node"><title>Node5</title>
<g id="a_node5"><a xlink:href="Parser_8h.html" target="_top" xlink:title="end_effector/Parser.h">
<polygon fill="none" stroke="black" points="372.5,-112.5 372.5,-131.5 491.5,-131.5 491.5,-112.5 372.5,-112.5"/>
<text text-anchor="middle" x="432" y="-119.5" font-family="Helvetica,sans-Serif" font-size="10.00">end_effector/Parser.h</text>
</a>
</g>
</g>
<!-- Node1&#45;&gt;Node5 -->
<g id="edge4" class="edge"><title>Node1&#45;&gt;Node5</title>
<path fill="none" stroke="midnightblue" d="M222.01,-168.498C274.578,-157.108 338.916,-143.168 382.416,-133.743"/>
<polygon fill="midnightblue" stroke="midnightblue" points="383.428,-137.105 392.46,-131.567 381.945,-130.264 383.428,-137.105"/>
</g>
<!-- Node21 -->
<g id="node21" class="node"><title>Node21</title>
<polygon fill="none" stroke="#bfbfbf" points="509.5,-112.5 509.5,-131.5 586.5,-131.5 586.5,-112.5 509.5,-112.5"/>
<text text-anchor="middle" x="548" y="-119.5" font-family="Helvetica,sans-Serif" font-size="10.00">Eigen/Dense</text>
</g>
<!-- Node1&#45;&gt;Node21 -->
<g id="edge24" class="edge"><title>Node1&#45;&gt;Node21</title>
<path fill="none" stroke="midnightblue" d="M223.257,-175.002C295.406,-164.519 398.935,-149.021 499.239,-132.081"/>
<polygon fill="midnightblue" stroke="midnightblue" points="499.974,-135.507 509.248,-130.384 498.803,-128.605 499.974,-135.507"/>
</g>
<!-- Node5&#45;&gt;Node4 -->
<g id="edge7" class="edge"><title>Node5&#45;&gt;Node4</title>
<path fill="none" stroke="midnightblue" d="M372.435,-113.155C330.91,-106.423 274.788,-94.7695 228,-76 195.315,-62.8883 161.143,-40.3366 140.458,-25.5463"/>
<polygon fill="midnightblue" stroke="midnightblue" points="142.355,-22.5983 132.209,-19.5458 138.237,-28.2589 142.355,-22.5983"/>
</g>
<!-- Node6 -->
<g id="node6" class="node"><title>Node6</title>
<polygon fill="none" stroke="#bfbfbf" points="167.5,-0.5 167.5,-19.5 226.5,-19.5 226.5,-0.5 167.5,-0.5"/>
<text text-anchor="middle" x="197" y="-7.5" font-family="Helvetica,sans-Serif" font-size="10.00">iostream</text>
</g>
<!-- Node5&#45;&gt;Node6 -->
<g id="edge5" class="edge"><title>Node5&#45;&gt;Node6</title>
<path fill="none" stroke="midnightblue" d="M372.418,-114.775C336.369,-108.919 290.641,-97.6367 255,-76 235.086,-63.911 218.139,-42.8379 207.797,-27.9685"/>
<polygon fill="midnightblue" stroke="midnightblue" points="210.707,-26.0227 202.244,-19.6476 204.884,-29.9083 210.707,-26.0227"/>
</g>
<!-- Node7 -->
<g id="node7" class="node"><title>Node7</title>
<polygon fill="none" stroke="#bfbfbf" points="245,-0.5 245,-19.5 299,-19.5 299,-0.5 245,-0.5"/>
<text text-anchor="middle" x="272" y="-7.5" font-family="Helvetica,sans-Serif" font-size="10.00">fstream</text>
</g>
<!-- Node5&#45;&gt;Node7 -->
<g id="edge6" class="edge"><title>Node5&#45;&gt;Node7</title>
<path fill="none" stroke="midnightblue" d="M372.065,-112.627C329.701,-105.338 278.195,-93.2208 265,-76 254.878,-62.79 258.647,-43.3891 263.716,-29.2225"/>
<polygon fill="midnightblue" stroke="midnightblue" points="267.105,-30.1803 267.636,-19.5988 260.622,-27.5394 267.105,-30.1803"/>
</g>
<!-- Node8 -->
<g id="node8" class="node"><title>Node8</title>
<polygon fill="none" stroke="#bfbfbf" points="402.5,-56.5 402.5,-75.5 461.5,-75.5 461.5,-56.5 402.5,-56.5"/>
<text text-anchor="middle" x="432" y="-63.5" font-family="Helvetica,sans-Serif" font-size="10.00">ros/ros.h</text>
</g>
<!-- Node5&#45;&gt;Node8 -->
<g id="edge8" class="edge"><title>Node5&#45;&gt;Node8</title>
<path fill="none" stroke="midnightblue" d="M432,-112.083C432,-105.006 432,-94.8611 432,-85.9865"/>
<polygon fill="midnightblue" stroke="midnightblue" points="435.5,-85.751 432,-75.7511 428.5,-85.7511 435.5,-85.751"/>
</g>
<!-- Node9 -->
<g id="node9" class="node"><title>Node9</title>
<polygon fill="none" stroke="#bfbfbf" points="480,-56.5 480,-75.5 560,-75.5 560,-56.5 480,-56.5"/>
<text text-anchor="middle" x="520" y="-63.5" font-family="Helvetica,sans-Serif" font-size="10.00">ros/console.h</text>
</g>
<!-- Node5&#45;&gt;Node9 -->
<g id="edge9" class="edge"><title>Node5&#45;&gt;Node9</title>
<path fill="none" stroke="midnightblue" d="M446.139,-112.324C459.866,-103.9 480.936,-90.9709 497.064,-81.0741"/>
<polygon fill="midnightblue" stroke="midnightblue" points="499.204,-83.8678 505.896,-75.6545 495.543,-77.9016 499.204,-83.8678"/>
</g>
<!-- Node10 -->
<g id="node10" class="node"><title>Node10</title>
<g id="a_node10"><a xlink:href="Utils_8h.html" target="_top" xlink:title="end_effector/Utils.h">
<polygon fill="none" stroke="black" points="274,-56.5 274,-75.5 384,-75.5 384,-56.5 274,-56.5"/>
<text text-anchor="middle" x="329" y="-63.5" font-family="Helvetica,sans-Serif" font-size="10.00">end_effector/Utils.h</text>
</a>
</g>
</g>
<!-- Node5&#45;&gt;Node10 -->
<g id="edge10" class="edge"><title>Node5&#45;&gt;Node10</title>
<path fill="none" stroke="midnightblue" d="M415.451,-112.324C399.008,-103.703 373.565,-90.3643 354.532,-80.3855"/>
<polygon fill="midnightblue" stroke="midnightblue" points="355.989,-77.198 345.508,-75.6545 352.739,-83.3977 355.989,-77.198"/>
</g>
<!-- Node16 -->
<g id="node16" class="node"><title>Node16</title>
<polygon fill="none" stroke="#bfbfbf" points="578,-56.5 578,-75.5 674,-75.5 674,-56.5 578,-56.5"/>
<text text-anchor="middle" x="626" y="-63.5" font-family="Helvetica,sans-Serif" font-size="10.00">yaml&#45;cpp/yaml.h</text>
</g>
<!-- Node5&#45;&gt;Node16 -->
<g id="edge19" class="edge"><title>Node5&#45;&gt;Node16</title>
<path fill="none" stroke="midnightblue" d="M462.74,-112.444C495.944,-103.201 548.991,-88.4356 585.557,-78.2572"/>
<polygon fill="midnightblue" stroke="midnightblue" points="586.709,-81.5699 595.404,-75.5164 584.832,-74.8262 586.709,-81.5699"/>
</g>
<!-- Node17 -->
<g id="node17" class="node"><title>Node17</title>
<polygon fill="none" stroke="#bfbfbf" points="692,-56.5 692,-75.5 830,-75.5 830,-56.5 692,-56.5"/>
<text text-anchor="middle" x="761" y="-63.5" font-family="Helvetica,sans-Serif" font-size="10.00">urdf_parser/urdf_parser.h</text>
</g>
<!-- Node5&#45;&gt;Node17 -->
<g id="edge20" class="edge"><title>Node5&#45;&gt;Node17</title>
<path fill="none" stroke="midnightblue" d="M484.131,-112.444C542.487,-102.865 636.982,-87.3556 699.059,-77.1667"/>
<polygon fill="midnightblue" stroke="midnightblue" points="699.812,-80.59 709.113,-75.5164 698.678,-73.6824 699.812,-80.59"/>
</g>
<!-- Node18 -->
<g id="node18" class="node"><title>Node18</title>
<polygon fill="none" stroke="#bfbfbf" points="848,-56.5 848,-75.5 988,-75.5 988,-56.5 848,-56.5"/>
<text text-anchor="middle" x="918" y="-63.5" font-family="Helvetica,sans-Serif" font-size="10.00">kdl_parser/kdl_parser.hpp</text>
</g>
<!-- Node5&#45;&gt;Node18 -->
<g id="edge21" class="edge"><title>Node5&#45;&gt;Node18</title>
<path fill="none" stroke="midnightblue" d="M491.693,-113.011C494.5,-112.663 497.28,-112.324 500,-112 647.216,-94.444 686.713,-92.6465 837.684,-76.1357"/>
<polygon fill="midnightblue" stroke="midnightblue" points="838.233,-79.5965 847.792,-75.0266 837.47,-72.6383 838.233,-79.5965"/>
</g>
<!-- Node19 -->
<g id="node19" class="node"><title>Node19</title>
<polygon fill="none" stroke="#bfbfbf" points="1006,-56.5 1006,-75.5 1104,-75.5 1104,-56.5 1006,-56.5"/>
<text text-anchor="middle" x="1055" y="-63.5" font-family="Helvetica,sans-Serif" font-size="10.00">srdfdom/model.h</text>
</g>
<!-- Node5&#45;&gt;Node19 -->
<g id="edge22" class="edge"><title>Node5&#45;&gt;Node19</title>
<path fill="none" stroke="midnightblue" d="M491.681,-112.898C494.491,-112.58 497.275,-112.279 500,-112 717.09,-89.791 775.254,-100.67 996.035,-76.0161"/>
<polygon fill="midnightblue" stroke="midnightblue" points="996.446,-79.4921 1005.99,-74.8928 995.661,-72.5362 996.446,-79.4921"/>
</g>
<!-- Node20 -->
<g id="node20" class="node"><title>Node20</title>
<polygon fill="none" stroke="#bfbfbf" points="1122.5,-56.5 1122.5,-75.5 1263.5,-75.5 1263.5,-56.5 1122.5,-56.5"/>
<text text-anchor="middle" x="1193" y="-63.5" font-family="Helvetica,sans-Serif" font-size="10.00">boost/filesystem/path.hpp</text>
</g>
<!-- Node5&#45;&gt;Node20 -->
<g id="edge23" class="edge"><title>Node5&#45;&gt;Node20</title>
<path fill="none" stroke="midnightblue" d="M491.676,-112.851C494.488,-112.546 497.273,-112.26 500,-112 768.364,-86.3949 839.355,-98.9474 1112.14,-76.0214"/>
<polygon fill="midnightblue" stroke="midnightblue" points="1112.68,-79.4884 1122.35,-75.1551 1112.09,-72.5135 1112.68,-79.4884"/>
</g>
<!-- Node10&#45;&gt;Node4 -->
<g id="edge12" class="edge"><title>Node10&#45;&gt;Node4</title>
<path fill="none" stroke="midnightblue" d="M296.042,-56.4435C258.949,-46.8136 198.76,-31.1876 159.525,-21.0018"/>
<polygon fill="midnightblue" stroke="midnightblue" points="160.344,-17.5982 149.785,-18.473 158.585,-24.3736 160.344,-17.5982"/>
</g>
<!-- Node10&#45;&gt;Node6 -->
<g id="edge13" class="edge"><title>Node10&#45;&gt;Node6</title>
<path fill="none" stroke="midnightblue" d="M308.084,-56.4435C286.264,-47.5171 251.85,-33.4387 227.108,-23.3168"/>
<polygon fill="midnightblue" stroke="midnightblue" points="228.399,-20.0634 217.818,-19.5164 225.748,-26.5422 228.399,-20.0634"/>
</g>
<!-- Node10&#45;&gt;Node7 -->
<g id="edge16" class="edge"><title>Node10&#45;&gt;Node7</title>
<path fill="none" stroke="midnightblue" d="M319.842,-56.324C311.499,-48.4196 298.968,-36.5482 288.823,-26.9377"/>
<polygon fill="midnightblue" stroke="midnightblue" points="290.991,-24.1705 281.325,-19.8339 286.177,-29.2522 290.991,-24.1705"/>
</g>
<!-- Node11 -->
<g id="node11" class="node"><title>Node11</title>
<polygon fill="none" stroke="#bfbfbf" points="317.5,-0.5 317.5,-19.5 364.5,-19.5 364.5,-0.5 317.5,-0.5"/>
<text text-anchor="middle" x="341" y="-7.5" font-family="Helvetica,sans-Serif" font-size="10.00">cmath</text>
</g>
<!-- Node10&#45;&gt;Node11 -->
<g id="edge11" class="edge"><title>Node10&#45;&gt;Node11</title>
<path fill="none" stroke="midnightblue" d="M330.982,-56.083C332.572,-48.9272 334.859,-38.6353 336.846,-29.6911"/>
<polygon fill="midnightblue" stroke="midnightblue" points="340.303,-30.2722 339.055,-19.7511 333.469,-28.7537 340.303,-30.2722"/>
</g>
<!-- Node12 -->
<g id="node12" class="node"><title>Node12</title>
<polygon fill="none" stroke="#bfbfbf" points="383,-0.5 383,-19.5 431,-19.5 431,-0.5 383,-0.5"/>
<text text-anchor="middle" x="407" y="-7.5" font-family="Helvetica,sans-Serif" font-size="10.00">dlfcn.h</text>
</g>
<!-- Node10&#45;&gt;Node12 -->
<g id="edge14" class="edge"><title>Node10&#45;&gt;Node12</title>
<path fill="none" stroke="midnightblue" d="M341.532,-56.324C353.586,-47.979 372.027,-35.2122 386.269,-25.3524"/>
<polygon fill="midnightblue" stroke="midnightblue" points="388.269,-28.2243 394.499,-19.6545 384.285,-22.469 388.269,-28.2243"/>
</g>
<!-- Node13 -->
<g id="node13" class="node"><title>Node13</title>
<polygon fill="none" stroke="#bfbfbf" points="449,-0.5 449,-19.5 565,-19.5 565,-0.5 449,-0.5"/>
<text text-anchor="middle" x="507" y="-7.5" font-family="Helvetica,sans-Serif" font-size="10.00">boost/filesystem.hpp</text>
</g>
<!-- Node10&#45;&gt;Node13 -->
<g id="edge15" class="edge"><title>Node10&#45;&gt;Node13</title>
<path fill="none" stroke="midnightblue" d="M357.205,-56.4435C387.41,-47.2801 435.511,-32.6876 469.029,-22.5192"/>
<polygon fill="midnightblue" stroke="midnightblue" points="470.374,-25.7688 478.927,-19.5164 468.342,-19.0703 470.374,-25.7688"/>
</g>
<!-- Node14 -->
<g id="node14" class="node"><title>Node14</title>
<polygon fill="none" stroke="#bfbfbf" points="583,-0.5 583,-19.5 633,-19.5 633,-0.5 583,-0.5"/>
<text text-anchor="middle" x="608" y="-7.5" font-family="Helvetica,sans-Serif" font-size="10.00">chrono</text>
</g>
<!-- Node10&#45;&gt;Node14 -->
<g id="edge17" class="edge"><title>Node10&#45;&gt;Node14</title>
<path fill="none" stroke="midnightblue" d="M382.288,-56.431C429.843,-48.5092 501.575,-35.887 572.763,-20.1435"/>
<polygon fill="midnightblue" stroke="midnightblue" points="573.805,-23.4971 582.802,-17.9015 572.28,-16.6654 573.805,-23.4971"/>
</g>
<!-- Node15 -->
<g id="node15" class="node"><title>Node15</title>
<polygon fill="none" stroke="#bfbfbf" points="651,-0.5 651,-19.5 701,-19.5 701,-0.5 651,-0.5"/>
<text text-anchor="middle" x="676" y="-7.5" font-family="Helvetica,sans-Serif" font-size="10.00">atomic</text>
</g>
<!-- Node10&#45;&gt;Node15 -->
<g id="edge18" class="edge"><title>Node10&#45;&gt;Node15</title>
<path fill="none" stroke="midnightblue" d="M384.301,-57.2189C462.34,-46.2167 599.211,-26.8326 640.849,-19.8256"/>
<polygon fill="midnightblue" stroke="midnightblue" points="641.613,-23.2441 650.826,-18.0118 640.361,-16.357 641.613,-23.2441"/>
</g>
</g>
</svg>
