<?xml version="1.0" encoding="UTF-8" standalone="no"?>
<!DOCTYPE svg PUBLIC "-//W3C//DTD SVG 1.1//EN"
 "http://www.w3.org/Graphics/SVG/1.1/DTD/svg11.dtd">
<!-- Generated by graphviz version 2.38.0 (20140413.2041)
 -->
<!-- Title: /home/travis/build/ADVRHumanoids/ROSEndEffector/include/ROSEndEffector/EEInterface.h Pages: 1 -->
<svg width="846pt" height="162pt"
 viewBox="0.00 0.00 846.00 162.00" xmlns="http://www.w3.org/2000/svg" xmlns:xlink="http://www.w3.org/1999/xlink">
<g id="graph0" class="graph" transform="scale(1 1) rotate(0) translate(4 158)">
<title>/home/travis/build/ADVRHumanoids/ROSEndEffector/include/ROSEndEffector/EEInterface.h</title>
<!-- Node1 -->
<g id="node1" class="node"><title>Node1</title>
<polygon fill="#bfbfbf" stroke="black" points="75,-112.5 75,-153.5 272,-153.5 272,-112.5 75,-112.5"/>
<text text-anchor="start" x="83" y="-141.5" font-family="Helvetica,sans-Serif" font-size="10.00">/home/travis/build</text>
<text text-anchor="start" x="83" y="-130.5" font-family="Helvetica,sans-Serif" font-size="10.00">/ADVRHumanoids/ROSEndEffector</text>
<text text-anchor="middle" x="173.5" y="-119.5" font-family="Helvetica,sans-Serif" font-size="10.00">/include/ROSEndEffector/EEInterface.h</text>
</g>
<!-- Node2 -->
<g id="node2" class="node"><title>Node2</title>
<polygon fill="none" stroke="#bfbfbf" points="41.5,-56.5 41.5,-75.5 79.5,-75.5 79.5,-56.5 41.5,-56.5"/>
<text text-anchor="middle" x="60.5" y="-63.5" font-family="Helvetica,sans-Serif" font-size="10.00">map</text>
</g>
<!-- Node1&#45;&gt;Node2 -->
<g id="edge1" class="edge"><title>Node1&#45;&gt;Node2</title>
<path fill="none" stroke="midnightblue" d="M139.596,-112.498C121.771,-102.245 100.354,-89.925 84.3042,-80.6927"/>
<polygon fill="midnightblue" stroke="midnightblue" points="85.9554,-77.6048 75.542,-75.6525 82.4651,-83.6726 85.9554,-77.6048"/>
</g>
<!-- Node3 -->
<g id="node3" class="node"><title>Node3</title>
<polygon fill="none" stroke="#bfbfbf" points="98,-56.5 98,-75.5 145,-75.5 145,-56.5 98,-56.5"/>
<text text-anchor="middle" x="121.5" y="-63.5" font-family="Helvetica,sans-Serif" font-size="10.00">vector</text>
</g>
<!-- Node1&#45;&gt;Node3 -->
<g id="edge2" class="edge"><title>Node1&#45;&gt;Node3</title>
<path fill="none" stroke="midnightblue" d="M157.898,-112.498C150.539,-103.299 141.849,-92.4362 134.806,-83.6323"/>
<polygon fill="midnightblue" stroke="midnightblue" points="137.402,-81.2748 128.422,-75.6525 131.936,-85.6476 137.402,-81.2748"/>
</g>
<!-- Node4 -->
<g id="node4" class="node"><title>Node4</title>
<polygon fill="none" stroke="#bfbfbf" points="0,-0.5 0,-19.5 57,-19.5 57,-0.5 0,-0.5"/>
<text text-anchor="middle" x="28.5" y="-7.5" font-family="Helvetica,sans-Serif" font-size="10.00">memory</text>
</g>
<!-- Node1&#45;&gt;Node4 -->
<g id="edge3" class="edge"><title>Node1&#45;&gt;Node4</title>
<path fill="none" stroke="midnightblue" d="M173.535,-112.479C172.532,-95.5529 168.475,-71.4174 154.5,-56 142.483,-42.7429 99.2962,-29.1445 66.8082,-20.417"/>
<polygon fill="midnightblue" stroke="midnightblue" points="67.6768,-17.0265 57.1156,-17.8706 65.8981,-23.7967 67.6768,-17.0265"/>
</g>
<!-- Node5 -->
<g id="node5" class="node"><title>Node5</title>
<g id="a_node5"><a xlink:href="Parser_8h.html" target="_top" xlink:title="ROSEndEffector/Parser.h">
<polygon fill="none" stroke="black" points="201.5,-56.5 201.5,-75.5 335.5,-75.5 335.5,-56.5 201.5,-56.5"/>
<text text-anchor="middle" x="268.5" y="-63.5" font-family="Helvetica,sans-Serif" font-size="10.00">ROSEndEffector/Parser.h</text>
</a>
</g>
</g>
<!-- Node1&#45;&gt;Node5 -->
<g id="edge4" class="edge"><title>Node1&#45;&gt;Node5</title>
<path fill="none" stroke="midnightblue" d="M202.003,-112.498C216.568,-102.532 233.987,-90.6142 247.342,-81.4764"/>
<polygon fill="midnightblue" stroke="midnightblue" points="249.577,-84.188 255.854,-75.6525 245.625,-78.4108 249.577,-84.188"/>
</g>
<!-- Node12 -->
<g id="node12" class="node"><title>Node12</title>
<polygon fill="none" stroke="#bfbfbf" points="354,-56.5 354,-75.5 431,-75.5 431,-56.5 354,-56.5"/>
<text text-anchor="middle" x="392.5" y="-63.5" font-family="Helvetica,sans-Serif" font-size="10.00">Eigen/Dense</text>
</g>
<!-- Node1&#45;&gt;Node12 -->
<g id="edge12" class="edge"><title>Node1&#45;&gt;Node12</title>
<path fill="none" stroke="midnightblue" d="M239.207,-112.498C276.611,-101.396 322.176,-87.8725 353.863,-78.4676"/>
<polygon fill="midnightblue" stroke="midnightblue" points="355.045,-81.7678 363.636,-75.5671 353.053,-75.0572 355.045,-81.7678"/>
</g>
<!-- Node5&#45;&gt;Node4 -->
<g id="edge5" class="edge"><title>Node5&#45;&gt;Node4</title>
<path fill="none" stroke="midnightblue" d="M229.363,-56.4438C190.711,-47.9575 129.649,-34.4545 67.1621,-20.1283"/>
<polygon fill="midnightblue" stroke="midnightblue" points="67.654,-16.6503 57.1243,-17.8227 66.0869,-23.4726 67.654,-16.6503"/>
</g>
<!-- Node6 -->
<g id="node6" class="node"><title>Node6</title>
<polygon fill="none" stroke="#bfbfbf" points="75,-0.5 75,-19.5 134,-19.5 134,-0.5 75,-0.5"/>
<text text-anchor="middle" x="104.5" y="-7.5" font-family="Helvetica,sans-Serif" font-size="10.00">ros/ros.h</text>
</g>
<!-- Node5&#45;&gt;Node6 -->
<g id="edge6" class="edge"><title>Node5&#45;&gt;Node6</title>
<path fill="none" stroke="midnightblue" d="M242.514,-56.4435C214.804,-47.3196 170.748,-32.8133 139.884,-22.6509"/>
<polygon fill="midnightblue" stroke="midnightblue" points="140.958,-19.3196 130.365,-19.5164 138.768,-25.9684 140.958,-19.3196"/>
</g>
<!-- Node7 -->
<g id="node7" class="node"><title>Node7</title>
<polygon fill="none" stroke="#bfbfbf" points="152.5,-0.5 152.5,-19.5 248.5,-19.5 248.5,-0.5 152.5,-0.5"/>
<text text-anchor="middle" x="200.5" y="-7.5" font-family="Helvetica,sans-Serif" font-size="10.00">yaml&#45;cpp/yaml.h</text>
</g>
<!-- Node5&#45;&gt;Node7 -->
<g id="edge7" class="edge"><title>Node5&#45;&gt;Node7</title>
<path fill="none" stroke="midnightblue" d="M257.575,-56.324C247.325,-48.1849 231.779,-35.8395 219.499,-26.0874"/>
<polygon fill="midnightblue" stroke="midnightblue" points="221.632,-23.3119 211.624,-19.8339 217.279,-28.7937 221.632,-23.3119"/>
</g>
<!-- Node8 -->
<g id="node8" class="node"><title>Node8</title>
<polygon fill="none" stroke="#bfbfbf" points="266.5,-0.5 266.5,-19.5 404.5,-19.5 404.5,-0.5 266.5,-0.5"/>
<text text-anchor="middle" x="335.5" y="-7.5" font-family="Helvetica,sans-Serif" font-size="10.00">urdf_parser/urdf_parser.h</text>
</g>
<!-- Node5&#45;&gt;Node8 -->
<g id="edge8" class="edge"><title>Node5&#45;&gt;Node8</title>
<path fill="none" stroke="midnightblue" d="M279.265,-56.324C289.266,-48.2631 304.387,-36.0765 316.43,-26.3695"/>
<polygon fill="midnightblue" stroke="midnightblue" points="318.95,-28.8343 324.539,-19.8339 314.557,-23.3841 318.95,-28.8343"/>
</g>
<!-- Node9 -->
<g id="node9" class="node"><title>Node9</title>
<polygon fill="none" stroke="#bfbfbf" points="422.5,-0.5 422.5,-19.5 562.5,-19.5 562.5,-0.5 422.5,-0.5"/>
<text text-anchor="middle" x="492.5" y="-7.5" font-family="Helvetica,sans-Serif" font-size="10.00">kdl_parser/kdl_parser.hpp</text>
</g>
<!-- Node5&#45;&gt;Node9 -->
<g id="edge9" class="edge"><title>Node5&#45;&gt;Node9</title>
<path fill="none" stroke="midnightblue" d="M303.993,-56.4435C342.824,-47.0826 405.156,-32.0561 447.418,-21.868"/>
<polygon fill="midnightblue" stroke="midnightblue" points="448.271,-25.2626 457.173,-19.5164 446.631,-18.4576 448.271,-25.2626"/>
</g>
<!-- Node10 -->
<g id="node10" class="node"><title>Node10</title>
<polygon fill="none" stroke="#bfbfbf" points="580.5,-0.5 580.5,-19.5 678.5,-19.5 678.5,-0.5 580.5,-0.5"/>
<text text-anchor="middle" x="629.5" y="-7.5" font-family="Helvetica,sans-Serif" font-size="10.00">srdfdom/model.h</text>
</g>
<!-- Node5&#45;&gt;Node10 -->
<g id="edge10" class="edge"><title>Node5&#45;&gt;Node10</title>
<path fill="none" stroke="midnightblue" d="M326.604,-56.4853C385.466,-47.8336 479.429,-33.952 570.513,-20.1423"/>
<polygon fill="midnightblue" stroke="midnightblue" points="571.094,-23.5942 580.456,-18.6333 570.044,-16.6734 571.094,-23.5942"/>
</g>
<!-- Node11 -->
<g id="node11" class="node"><title>Node11</title>
<polygon fill="none" stroke="#bfbfbf" points="697,-0.5 697,-19.5 838,-19.5 838,-0.5 697,-0.5"/>
<text text-anchor="middle" x="767.5" y="-7.5" font-family="Helvetica,sans-Serif" font-size="10.00">boost/filesystem/path.hpp</text>
</g>
<!-- Node5&#45;&gt;Node11 -->
<g id="edge11" class="edge"><title>Node5&#45;&gt;Node11</title>
<path fill="none" stroke="midnightblue" d="M335.687,-57.101C339.004,-56.7254 342.29,-56.3566 345.5,-56 494.142,-39.4904 533.866,-36.6611 686.606,-20.0895"/>
<polygon fill="midnightblue" stroke="midnightblue" points="687.27,-23.5381 696.833,-18.9778 686.513,-16.5791 687.27,-23.5381"/>
</g>
</g>
</svg>
