<?xml version="1.0" encoding="UTF-8" standalone="no"?>
<!DOCTYPE svg PUBLIC "-//W3C//DTD SVG 1.1//EN"
 "http://www.w3.org/Graphics/SVG/1.1/DTD/svg11.dtd">
<!-- Generated by graphviz version 2.38.0 (20140413.2041)
 -->
<!-- Title: /home/travis/build/ADVRHumanoids/ROSEndEffector/include/ROSEndEffector/EEInterface.h Pages: 1 -->
<svg width="713pt" height="162pt"
 viewBox="0.00 0.00 713.00 162.00" xmlns="http://www.w3.org/2000/svg" xmlns:xlink="http://www.w3.org/1999/xlink">
<g id="graph0" class="graph" transform="scale(1 1) rotate(0) translate(4 158)">
<title>/home/travis/build/ADVRHumanoids/ROSEndEffector/include/ROSEndEffector/EEInterface.h</title>
<!-- Node1 -->
<g id="node1" class="node"><title>Node1</title>
<polygon fill="#bfbfbf" stroke="black" points="33.5,-112.5 33.5,-153.5 230.5,-153.5 230.5,-112.5 33.5,-112.5"/>
<text text-anchor="start" x="41.5" y="-141.5" font-family="Helvetica,sans-Serif" font-size="10.00">/home/travis/build</text>
<text text-anchor="start" x="41.5" y="-130.5" font-family="Helvetica,sans-Serif" font-size="10.00">/ADVRHumanoids/ROSEndEffector</text>
<text text-anchor="middle" x="132" y="-119.5" font-family="Helvetica,sans-Serif" font-size="10.00">/include/ROSEndEffector/EEInterface.h</text>
</g>
<!-- Node2 -->
<g id="node2" class="node"><title>Node2</title>
<polygon fill="none" stroke="#bfbfbf" points="0,-56.5 0,-75.5 38,-75.5 38,-56.5 0,-56.5"/>
<text text-anchor="middle" x="19" y="-63.5" font-family="Helvetica,sans-Serif" font-size="10.00">map</text>
</g>
<!-- Node1&#45;&gt;Node2 -->
<g id="edge1" class="edge"><title>Node1&#45;&gt;Node2</title>
<path fill="none" stroke="midnightblue" d="M98.0963,-112.498C80.2715,-102.245 58.8543,-89.925 42.8042,-80.6927"/>
<polygon fill="midnightblue" stroke="midnightblue" points="44.4554,-77.6048 34.042,-75.6525 40.9651,-83.6726 44.4554,-77.6048"/>
</g>
<!-- Node3 -->
<g id="node3" class="node"><title>Node3</title>
<polygon fill="none" stroke="#bfbfbf" points="56.5,-56.5 56.5,-75.5 103.5,-75.5 103.5,-56.5 56.5,-56.5"/>
<text text-anchor="middle" x="80" y="-63.5" font-family="Helvetica,sans-Serif" font-size="10.00">vector</text>
</g>
<!-- Node1&#45;&gt;Node3 -->
<g id="edge2" class="edge"><title>Node1&#45;&gt;Node3</title>
<path fill="none" stroke="midnightblue" d="M116.398,-112.498C109.039,-103.299 100.349,-92.4362 93.3058,-83.6323"/>
<polygon fill="midnightblue" stroke="midnightblue" points="95.902,-81.2748 86.922,-75.6525 90.4359,-85.6476 95.902,-81.2748"/>
</g>
<!-- Node4 -->
<g id="node4" class="node"><title>Node4</title>
<polygon fill="none" stroke="#bfbfbf" points="26.5,-0.5 26.5,-19.5 83.5,-19.5 83.5,-0.5 26.5,-0.5"/>
<text text-anchor="middle" x="55" y="-7.5" font-family="Helvetica,sans-Serif" font-size="10.00">memory</text>
</g>
<!-- Node1&#45;&gt;Node4 -->
<g id="edge3" class="edge"><title>Node1&#45;&gt;Node4</title>
<path fill="none" stroke="midnightblue" d="M130.658,-112.489C128.753,-96.2429 124.145,-73.0872 113,-56 104.677,-43.2404 91.482,-32.5856 79.7786,-24.8518"/>
<polygon fill="midnightblue" stroke="midnightblue" points="81.5631,-21.8399 71.2252,-19.5206 77.8604,-27.7805 81.5631,-21.8399"/>
</g>
<!-- Node5 -->
<g id="node5" class="node"><title>Node5</title>
<g id="a_node5"><a xlink:href="Parser_8h.html" target="_top" xlink:title="ROSEndEffector/Parser.h">
<polygon fill="none" stroke="black" points="160,-56.5 160,-75.5 294,-75.5 294,-56.5 160,-56.5"/>
<text text-anchor="middle" x="227" y="-63.5" font-family="Helvetica,sans-Serif" font-size="10.00">ROSEndEffector/Parser.h</text>
</a>
</g>
</g>
<!-- Node1&#45;&gt;Node5 -->
<g id="edge4" class="edge"><title>Node1&#45;&gt;Node5</title>
<path fill="none" stroke="midnightblue" d="M160.503,-112.498C175.068,-102.532 192.487,-90.6142 205.842,-81.4764"/>
<polygon fill="midnightblue" stroke="midnightblue" points="208.077,-84.188 214.354,-75.6525 204.125,-78.4108 208.077,-84.188"/>
</g>
<!-- Node11 -->
<g id="node11" class="node"><title>Node11</title>
<polygon fill="none" stroke="#bfbfbf" points="312.5,-56.5 312.5,-75.5 389.5,-75.5 389.5,-56.5 312.5,-56.5"/>
<text text-anchor="middle" x="351" y="-63.5" font-family="Helvetica,sans-Serif" font-size="10.00">Eigen/Dense</text>
</g>
<!-- Node1&#45;&gt;Node11 -->
<g id="edge11" class="edge"><title>Node1&#45;&gt;Node11</title>
<path fill="none" stroke="midnightblue" d="M197.707,-112.498C235.111,-101.396 280.676,-87.8725 312.363,-78.4676"/>
<polygon fill="midnightblue" stroke="midnightblue" points="313.545,-81.7678 322.136,-75.5671 311.553,-75.0572 313.545,-81.7678"/>
</g>
<!-- Node5&#45;&gt;Node4 -->
<g id="edge5" class="edge"><title>Node5&#45;&gt;Node4</title>
<path fill="none" stroke="midnightblue" d="M199.746,-56.4435C170.559,-47.2801 124.079,-32.6876 91.6907,-22.5192"/>
<polygon fill="midnightblue" stroke="midnightblue" points="92.7157,-19.1726 82.1264,-19.5164 90.6188,-25.8512 92.7157,-19.1726"/>
</g>
<!-- Node6 -->
<g id="node6" class="node"><title>Node6</title>
<polygon fill="none" stroke="#bfbfbf" points="101.5,-0.5 101.5,-19.5 160.5,-19.5 160.5,-0.5 101.5,-0.5"/>
<text text-anchor="middle" x="131" y="-7.5" font-family="Helvetica,sans-Serif" font-size="10.00">ros/ros.h</text>
</g>
<!-- Node5&#45;&gt;Node6 -->
<g id="edge6" class="edge"><title>Node5&#45;&gt;Node6</title>
<path fill="none" stroke="midnightblue" d="M211.576,-56.324C196.46,-47.8215 173.185,-34.7288 155.529,-24.7975"/>
<polygon fill="midnightblue" stroke="midnightblue" points="156.817,-21.5066 146.386,-19.6545 153.386,-27.6077 156.817,-21.5066"/>
</g>
<!-- Node7 -->
<g id="node7" class="node"><title>Node7</title>
<polygon fill="none" stroke="#bfbfbf" points="179,-0.5 179,-19.5 275,-19.5 275,-0.5 179,-0.5"/>
<text text-anchor="middle" x="227" y="-7.5" font-family="Helvetica,sans-Serif" font-size="10.00">yaml&#45;cpp/yaml.h</text>
</g>
<!-- Node5&#45;&gt;Node7 -->
<g id="edge7" class="edge"><title>Node5&#45;&gt;Node7</title>
<path fill="none" stroke="midnightblue" d="M227,-56.083C227,-49.0059 227,-38.8611 227,-29.9865"/>
<polygon fill="midnightblue" stroke="midnightblue" points="230.5,-29.751 227,-19.7511 223.5,-29.7511 230.5,-29.751"/>
</g>
<!-- Node8 -->
<g id="node8" class="node"><title>Node8</title>
<polygon fill="none" stroke="#bfbfbf" points="293,-0.5 293,-19.5 431,-19.5 431,-0.5 293,-0.5"/>
<text text-anchor="middle" x="362" y="-7.5" font-family="Helvetica,sans-Serif" font-size="10.00">urdf_parser/urdf_parser.h</text>
</g>
<!-- Node5&#45;&gt;Node8 -->
<g id="edge8" class="edge"><title>Node5&#45;&gt;Node8</title>
<path fill="none" stroke="midnightblue" d="M248.391,-56.4435C270.707,-47.5171 305.903,-33.4387 331.208,-23.3168"/>
<polygon fill="midnightblue" stroke="midnightblue" points="332.724,-26.4801 340.709,-19.5164 330.124,-19.9807 332.724,-26.4801"/>
</g>
<!-- Node9 -->
<g id="node9" class="node"><title>Node9</title>
<polygon fill="none" stroke="#bfbfbf" points="449,-0.5 449,-19.5 589,-19.5 589,-0.5 449,-0.5"/>
<text text-anchor="middle" x="519" y="-7.5" font-family="Helvetica,sans-Serif" font-size="10.00">kdl_parser/kdl_parser.hpp</text>
</g>
<!-- Node5&#45;&gt;Node9 -->
<g id="edge9" class="edge"><title>Node5&#45;&gt;Node9</title>
<path fill="none" stroke="midnightblue" d="M273.268,-56.4435C324.741,-46.9246 407.893,-31.5472 462.999,-21.3563"/>
<polygon fill="midnightblue" stroke="midnightblue" points="463.751,-24.7766 472.948,-19.5164 462.478,-17.8933 463.751,-24.7766"/>
</g>
<!-- Node10 -->
<g id="node10" class="node"><title>Node10</title>
<polygon fill="none" stroke="#bfbfbf" points="607,-0.5 607,-19.5 705,-19.5 705,-0.5 607,-0.5"/>
<text text-anchor="middle" x="656" y="-7.5" font-family="Helvetica,sans-Serif" font-size="10.00">srdfdom/model.h</text>
</g>
<!-- Node5&#45;&gt;Node10 -->
<g id="edge10" class="edge"><title>Node5&#45;&gt;Node10</title>
<path fill="none" stroke="midnightblue" d="M294.169,-57.1247C380.242,-46.9883 525.853,-29.6787 596.672,-20.1323"/>
<polygon fill="midnightblue" stroke="midnightblue" points="597.535,-23.547 606.969,-18.7255 596.587,-16.6114 597.535,-23.547"/>
</g>
</g>
</svg>
