<?xml version="1.0" encoding="UTF-8" standalone="no"?>
<!DOCTYPE svg PUBLIC "-//W3C//DTD SVG 1.1//EN"
 "http://www.w3.org/Graphics/SVG/1.1/DTD/svg11.dtd">
<!-- Generated by graphviz version 2.38.0 (20140413.2041)
 -->
<!-- Title: /home/lucamuratore/src/ros_end_effector__ws/src/ROSEndEffector/include/ROSEndEffector/EEInterface.h Pages: 1 -->
<svg width="176pt" height="128pt"
 viewBox="0.00 0.00 175.50 128.00" xmlns="http://www.w3.org/2000/svg" xmlns:xlink="http://www.w3.org/1999/xlink">
<g id="graph0" class="graph" transform="scale(1 1) rotate(0) translate(4 124)">
<title>/home/lucamuratore/src/ros_end_effector__ws/src/ROSEndEffector/include/ROSEndEffector/EEInterface.h</title>
<!-- Node1 -->
<g id="node1" class="node"><title>Node1</title>
<polygon fill="#bfbfbf" stroke="black" points="9,-56.5 9,-119.5 142,-119.5 142,-56.5 9,-56.5"/>
<text text-anchor="start" x="17" y="-107.5" font-family="Helvetica,sans-Serif" font-size="10.00">/home/lucamuratore</text>
<text text-anchor="start" x="17" y="-96.5" font-family="Helvetica,sans-Serif" font-size="10.00">/src/ros_end_effector</text>
<text text-anchor="start" x="17" y="-85.5" font-family="Helvetica,sans-Serif" font-size="10.00">__ws/src/ROSEndEffector</text>
<text text-anchor="start" x="17" y="-74.5" font-family="Helvetica,sans-Serif" font-size="10.00">/include/ROSEndEffector</text>
<text text-anchor="middle" x="75.5" y="-63.5" font-family="Helvetica,sans-Serif" font-size="10.00">/EEInterface.h</text>
</g>
<!-- Node2 -->
<g id="node2" class="node"><title>Node2</title>
<polygon fill="none" stroke="#bfbfbf" points="0,-0.5 0,-19.5 35,-19.5 35,-0.5 0,-0.5"/>
<text text-anchor="middle" x="17.5" y="-7.5" font-family="Helvetica,sans-Serif" font-size="10.00">map</text>
</g>
<!-- Node1&#45;&gt;Node2 -->
<g id="edge1" class="edge"><title>Node1&#45;&gt;Node2</title>
<path fill="none" stroke="midnightblue" d="M51.9092,-56.0879C44.539,-46.4304 36.6855,-36.1397 30.3451,-27.8315"/>
<polygon fill="midnightblue" stroke="midnightblue" points="33.0024,-25.5443 24.1533,-19.7182 27.4378,-29.7911 33.0024,-25.5443"/>
</g>
<!-- Node3 -->
<g id="node3" class="node"><title>Node3</title>
<polygon fill="none" stroke="#bfbfbf" points="53.5,-0.5 53.5,-19.5 97.5,-19.5 97.5,-0.5 53.5,-0.5"/>
<text text-anchor="middle" x="75.5" y="-7.5" font-family="Helvetica,sans-Serif" font-size="10.00">vector</text>
</g>
<!-- Node1&#45;&gt;Node3 -->
<g id="edge2" class="edge"><title>Node1&#45;&gt;Node3</title>
<path fill="none" stroke="midnightblue" d="M75.5,-56.0879C75.5,-47.1496 75.5,-37.6688 75.5,-29.7195"/>
<polygon fill="midnightblue" stroke="midnightblue" points="79.0001,-29.7181 75.5,-19.7182 72.0001,-29.7182 79.0001,-29.7181"/>
</g>
<!-- Node4 -->
<g id="node4" class="node"><title>Node4</title>
<polygon fill="none" stroke="#bfbfbf" points="115.5,-0.5 115.5,-19.5 167.5,-19.5 167.5,-0.5 115.5,-0.5"/>
<text text-anchor="middle" x="141.5" y="-7.5" font-family="Helvetica,sans-Serif" font-size="10.00">memory</text>
</g>
<!-- Node1&#45;&gt;Node4 -->
<g id="edge3" class="edge"><title>Node1&#45;&gt;Node4</title>
<path fill="none" stroke="midnightblue" d="M102.345,-56.0879C110.91,-46.2249 120.049,-35.7015 127.341,-27.3039"/>
<polygon fill="midnightblue" stroke="midnightblue" points="130.015,-29.5634 133.929,-19.7182 124.729,-24.9736 130.015,-29.5634"/>
</g>
</g>
</svg>
