<?xml version="1.0" encoding="UTF-8" standalone="no"?>
<!DOCTYPE svg PUBLIC "-//W3C//DTD SVG 1.1//EN"
 "http://www.w3.org/Graphics/SVG/1.1/DTD/svg11.dtd">
<!-- Generated by graphviz version 2.38.0 (20140413.2041)
 -->
<!-- Title: /home/travis/build/ADVRHumanoids/ROSEndEffector/include/ROSEndEffector/EEInterface.h Pages: 1 -->
<svg width="676pt" height="373pt"
 viewBox="0.00 0.00 676.00 373.00" xmlns="http://www.w3.org/2000/svg" xmlns:xlink="http://www.w3.org/1999/xlink">
<g id="graph0" class="graph" transform="scale(1 1) rotate(0) translate(4 369)">
<title>/home/travis/build/ADVRHumanoids/ROSEndEffector/include/ROSEndEffector/EEInterface.h</title>
<!-- Node1 -->
<g id="node1" class="node"><title>Node1</title>
<polygon fill="#bfbfbf" stroke="black" points="362,-323.5 362,-364.5 559,-364.5 559,-323.5 362,-323.5"/>
<text text-anchor="start" x="370" y="-352.5" font-family="Helvetica,sans-Serif" font-size="10.00">/home/travis/build</text>
<text text-anchor="start" x="370" y="-341.5" font-family="Helvetica,sans-Serif" font-size="10.00">/ADVRHumanoids/ROSEndEffector</text>
<text text-anchor="middle" x="460.5" y="-330.5" font-family="Helvetica,sans-Serif" font-size="10.00">/include/ROSEndEffector/EEInterface.h</text>
</g>
<!-- Node2 -->
<g id="node2" class="node"><title>Node2</title>
<g id="a_node2"><a xlink:href="EEHal_8h.html" target="_top" xlink:title="/home/travis/build\l/ADVRHumanoids/ROSEndEffector\l/include/ROSEndEffector/EEHal.h">
<polygon fill="none" stroke="black" points="234,-245.5 234,-286.5 413,-286.5 413,-245.5 234,-245.5"/>
<text text-anchor="start" x="242" y="-274.5" font-family="Helvetica,sans-Serif" font-size="10.00">/home/travis/build</text>
<text text-anchor="start" x="242" y="-263.5" font-family="Helvetica,sans-Serif" font-size="10.00">/ADVRHumanoids/ROSEndEffector</text>
<text text-anchor="middle" x="323.5" y="-252.5" font-family="Helvetica,sans-Serif" font-size="10.00">/include/ROSEndEffector/EEHal.h</text>
</a>
</g>
</g>
<!-- Node1&#45;&gt;Node2 -->
<g id="edge1" class="edge"><title>Node1&#45;&gt;Node2</title>
<path fill="none" stroke="midnightblue" d="M416.31,-318.486C397.649,-308.134 376.222,-296.247 358.661,-286.506"/>
<polygon fill="midnightblue" stroke="midnightblue" points="414.777,-321.638 425.219,-323.428 418.172,-315.516 414.777,-321.638"/>
</g>
<!-- Node4 -->
<g id="node4" class="node"><title>Node4</title>
<g id="a_node4"><a xlink:href="UniversalRosEndEffectorExecutor_8h.html" target="_top" xlink:title="/home/travis/build\l/ADVRHumanoids/ROSEndEffector\l/include/ROSEndEffector/UniversalRos\lEndEffectorExecutor.h">
<polygon fill="none" stroke="black" points="324.5,-78.5 324.5,-130.5 520.5,-130.5 520.5,-78.5 324.5,-78.5"/>
<text text-anchor="start" x="332.5" y="-118.5" font-family="Helvetica,sans-Serif" font-size="10.00">/home/travis/build</text>
<text text-anchor="start" x="332.5" y="-107.5" font-family="Helvetica,sans-Serif" font-size="10.00">/ADVRHumanoids/ROSEndEffector</text>
<text text-anchor="start" x="332.5" y="-96.5" font-family="Helvetica,sans-Serif" font-size="10.00">/include/ROSEndEffector/UniversalRos</text>
<text text-anchor="middle" x="422.5" y="-85.5" font-family="Helvetica,sans-Serif" font-size="10.00">EndEffectorExecutor.h</text>
</a>
</g>
</g>
<!-- Node1&#45;&gt;Node4 -->
<g id="edge9" class="edge"><title>Node1&#45;&gt;Node4</title>
<path fill="none" stroke="midnightblue" d="M455.74,-313.249C448.191,-266.071 433.608,-174.925 426.538,-130.739"/>
<polygon fill="midnightblue" stroke="midnightblue" points="452.289,-313.838 457.326,-323.159 459.202,-312.732 452.289,-313.838"/>
</g>
<!-- Node9 -->
<g id="node9" class="node"><title>Node9</title>
<g id="a_node9"><a xlink:href="EEInterface_8cpp.html" target="_top" xlink:title="/home/travis/build\l/ADVRHumanoids/ROSEndEffector\l/src/EEInterface.cpp">
<polygon fill="none" stroke="black" points="489,-245.5 489,-286.5 668,-286.5 668,-245.5 489,-245.5"/>
<text text-anchor="start" x="497" y="-274.5" font-family="Helvetica,sans-Serif" font-size="10.00">/home/travis/build</text>
<text text-anchor="start" x="497" y="-263.5" font-family="Helvetica,sans-Serif" font-size="10.00">/ADVRHumanoids/ROSEndEffector</text>
<text text-anchor="middle" x="578.5" y="-252.5" font-family="Helvetica,sans-Serif" font-size="10.00">/src/EEInterface.cpp</text>
</a>
</g>
</g>
<!-- Node1&#45;&gt;Node9 -->
<g id="edge10" class="edge"><title>Node1&#45;&gt;Node9</title>
<path fill="none" stroke="midnightblue" d="M499.441,-317.919C515.305,-307.702 533.365,-296.07 548.215,-286.506"/>
<polygon fill="midnightblue" stroke="midnightblue" points="497.4,-315.071 490.888,-323.428 501.19,-320.956 497.4,-315.071"/>
</g>
<!-- Node3 -->
<g id="node3" class="node"><title>Node3</title>
<g id="a_node3"><a xlink:href="DummyHal_8h.html" target="_top" xlink:title="/home/travis/build\l/ADVRHumanoids/ROSEndEffector\l/include/ROSEndEffector/DummyHal.h">
<polygon fill="none" stroke="black" points="0,-167.5 0,-208.5 197,-208.5 197,-167.5 0,-167.5"/>
<text text-anchor="start" x="8" y="-196.5" font-family="Helvetica,sans-Serif" font-size="10.00">/home/travis/build</text>
<text text-anchor="start" x="8" y="-185.5" font-family="Helvetica,sans-Serif" font-size="10.00">/ADVRHumanoids/ROSEndEffector</text>
<text text-anchor="middle" x="98.5" y="-174.5" font-family="Helvetica,sans-Serif" font-size="10.00">/include/ROSEndEffector/DummyHal.h</text>
</a>
</g>
</g>
<!-- Node2&#45;&gt;Node3 -->
<g id="edge2" class="edge"><title>Node2&#45;&gt;Node3</title>
<path fill="none" stroke="midnightblue" d="M255.897,-242.165C224.135,-231.437 186.66,-218.779 156.247,-208.506"/>
<polygon fill="midnightblue" stroke="midnightblue" points="254.963,-245.544 265.557,-245.428 257.203,-238.912 254.963,-245.544"/>
</g>
<!-- Node2&#45;&gt;Node4 -->
<g id="edge7" class="edge"><title>Node2&#45;&gt;Node4</title>
<path fill="none" stroke="midnightblue" d="M371.671,-239.586C383.369,-231.291 394.731,-221.053 402.5,-209 417.669,-185.464 421.85,-153.092 422.759,-130.852"/>
<polygon fill="midnightblue" stroke="midnightblue" points="369.514,-236.817 363.14,-245.28 373.4,-242.639 369.514,-236.817"/>
</g>
<!-- Node8 -->
<g id="node8" class="node"><title>Node8</title>
<g id="a_node8"><a xlink:href="EEHal_8cpp.html" target="_top" xlink:title="/home/travis/build\l/ADVRHumanoids/ROSEndEffector\l/src/EEHal.cpp">
<polygon fill="none" stroke="black" points="215,-167.5 215,-208.5 394,-208.5 394,-167.5 215,-167.5"/>
<text text-anchor="start" x="223" y="-196.5" font-family="Helvetica,sans-Serif" font-size="10.00">/home/travis/build</text>
<text text-anchor="start" x="223" y="-185.5" font-family="Helvetica,sans-Serif" font-size="10.00">/ADVRHumanoids/ROSEndEffector</text>
<text text-anchor="middle" x="304.5" y="-174.5" font-family="Helvetica,sans-Serif" font-size="10.00">/src/EEHal.cpp</text>
</a>
</g>
</g>
<!-- Node2&#45;&gt;Node8 -->
<g id="edge8" class="edge"><title>Node2&#45;&gt;Node8</title>
<path fill="none" stroke="midnightblue" d="M316.147,-235.59C313.878,-226.511 311.435,-216.742 309.376,-208.506"/>
<polygon fill="midnightblue" stroke="midnightblue" points="312.786,-236.576 318.607,-245.428 319.577,-234.878 312.786,-236.576"/>
</g>
<!-- Node3&#45;&gt;Node4 -->
<g id="edge3" class="edge"><title>Node3&#45;&gt;Node4</title>
<path fill="none" stroke="midnightblue" d="M185.922,-165.01C228.65,-154.262 280.233,-141.286 324.313,-130.198"/>
<polygon fill="midnightblue" stroke="midnightblue" points="184.95,-161.645 176.106,-167.479 186.658,-168.433 184.95,-161.645"/>
</g>
<!-- Node7 -->
<g id="node7" class="node"><title>Node7</title>
<g id="a_node7"><a xlink:href="DummyHal_8cpp.html" target="_top" xlink:title="/home/travis/build\l/ADVRHumanoids/ROSEndEffector\l/src/DummyHal.cpp">
<polygon fill="none" stroke="black" points="9,-84 9,-125 188,-125 188,-84 9,-84"/>
<text text-anchor="start" x="17" y="-113" font-family="Helvetica,sans-Serif" font-size="10.00">/home/travis/build</text>
<text text-anchor="start" x="17" y="-102" font-family="Helvetica,sans-Serif" font-size="10.00">/ADVRHumanoids/ROSEndEffector</text>
<text text-anchor="middle" x="98.5" y="-91" font-family="Helvetica,sans-Serif" font-size="10.00">/src/DummyHal.cpp</text>
</a>
</g>
</g>
<!-- Node3&#45;&gt;Node7 -->
<g id="edge6" class="edge"><title>Node3&#45;&gt;Node7</title>
<path fill="none" stroke="midnightblue" d="M98.5,-157.065C98.5,-146.382 98.5,-134.63 98.5,-125.047"/>
<polygon fill="midnightblue" stroke="midnightblue" points="95.0001,-157.271 98.5,-167.271 102,-157.271 95.0001,-157.271"/>
</g>
<!-- Node5 -->
<g id="node5" class="node"><title>Node5</title>
<g id="a_node5"><a xlink:href="UniversalRosEndEffector_8cpp.html" target="_top" xlink:title="/home/travis/build\l/ADVRHumanoids/ROSEndEffector\l/src/UniversalRosEndEffector.cpp">
<polygon fill="none" stroke="black" points="226,-0.5 226,-41.5 405,-41.5 405,-0.5 226,-0.5"/>
<text text-anchor="start" x="234" y="-29.5" font-family="Helvetica,sans-Serif" font-size="10.00">/home/travis/build</text>
<text text-anchor="start" x="234" y="-18.5" font-family="Helvetica,sans-Serif" font-size="10.00">/ADVRHumanoids/ROSEndEffector</text>
<text text-anchor="middle" x="315.5" y="-7.5" font-family="Helvetica,sans-Serif" font-size="10.00">/src/UniversalRosEndEffector.cpp</text>
</a>
</g>
</g>
<!-- Node4&#45;&gt;Node5 -->
<g id="edge4" class="edge"><title>Node4&#45;&gt;Node5</title>
<path fill="none" stroke="midnightblue" d="M381.338,-72.1475C367.912,-61.921 353.389,-50.8594 341.408,-41.7338"/>
<polygon fill="midnightblue" stroke="midnightblue" points="379.447,-75.1073 389.523,-78.3823 383.689,-69.5386 379.447,-75.1073"/>
</g>
<!-- Node6 -->
<g id="node6" class="node"><title>Node6</title>
<g id="a_node6"><a xlink:href="UniversalRosEndEffectorExecutor_8cpp.html" target="_top" xlink:title="/home/travis/build\l/ADVRHumanoids/ROSEndEffector\l/src/UniversalRosEndEffectorExecutor.cpp">
<polygon fill="none" stroke="black" points="423,-0.5 423,-41.5 638,-41.5 638,-0.5 423,-0.5"/>
<text text-anchor="start" x="431" y="-29.5" font-family="Helvetica,sans-Serif" font-size="10.00">/home/travis/build</text>
<text text-anchor="start" x="431" y="-18.5" font-family="Helvetica,sans-Serif" font-size="10.00">/ADVRHumanoids/ROSEndEffector</text>
<text text-anchor="middle" x="530.5" y="-7.5" font-family="Helvetica,sans-Serif" font-size="10.00">/src/UniversalRosEndEffectorExecutor.cpp</text>
</a>
</g>
</g>
<!-- Node4&#45;&gt;Node6 -->
<g id="edge5" class="edge"><title>Node4&#45;&gt;Node6</title>
<path fill="none" stroke="midnightblue" d="M464.047,-72.1475C477.599,-61.921 492.257,-50.8594 504.35,-41.7338"/>
<polygon fill="midnightblue" stroke="midnightblue" points="461.659,-69.5648 455.785,-78.3823 465.875,-75.1524 461.659,-69.5648"/>
</g>
</g>
</svg>
