<?xml version="1.0" encoding="UTF-8" standalone="no"?>
<!DOCTYPE svg PUBLIC "-//W3C//DTD SVG 1.1//EN"
 "http://www.w3.org/Graphics/SVG/1.1/DTD/svg11.dtd">
<!-- Generated by graphviz version 2.38.0 (20140413.2041)
 -->
<!-- Title: /home/travis/build/ADVRHumanoids/ROSEndEffector/src/EEInterface.cpp Pages: 1 -->
<svg width="1292pt" height="274pt"
 viewBox="0.00 0.00 1291.50 274.00" xmlns="http://www.w3.org/2000/svg" xmlns:xlink="http://www.w3.org/1999/xlink">
<g id="graph0" class="graph" transform="scale(1 1) rotate(0) translate(4 270)">
<title>/home/travis/build/ADVRHumanoids/ROSEndEffector/src/EEInterface.cpp</title>
<!-- Node1 -->
<g id="node1" class="node"><title>Node1</title>
<polygon fill="#bfbfbf" stroke="black" points="42.5,-224.5 42.5,-265.5 221.5,-265.5 221.5,-224.5 42.5,-224.5"/>
<text text-anchor="start" x="50.5" y="-253.5" font-family="Helvetica,sans-Serif" font-size="10.00">/home/travis/build</text>
<text text-anchor="start" x="50.5" y="-242.5" font-family="Helvetica,sans-Serif" font-size="10.00">/ADVRHumanoids/ROSEndEffector</text>
<text text-anchor="middle" x="132" y="-231.5" font-family="Helvetica,sans-Serif" font-size="10.00">/src/EEInterface.cpp</text>
</g>
<!-- Node2 -->
<g id="node2" class="node"><title>Node2</title>
<g id="a_node2"><a xlink:href="EEInterface_8h.html" target="_top" xlink:title="ros_end_effector/EEInterface.h">
<polygon fill="none" stroke="black" points="50.5,-168.5 50.5,-187.5 213.5,-187.5 213.5,-168.5 50.5,-168.5"/>
<text text-anchor="middle" x="132" y="-175.5" font-family="Helvetica,sans-Serif" font-size="10.00">ros_end_effector/EEInterface.h</text>
</a>
</g>
</g>
<!-- Node1&#45;&gt;Node2 -->
<g id="edge1" class="edge"><title>Node1&#45;&gt;Node2</title>
<path fill="none" stroke="midnightblue" d="M132,-224.498C132,-216.065 132,-206.235 132,-197.874"/>
<polygon fill="midnightblue" stroke="midnightblue" points="135.5,-197.652 132,-187.652 128.5,-197.653 135.5,-197.652"/>
</g>
<!-- Node3 -->
<g id="node3" class="node"><title>Node3</title>
<polygon fill="none" stroke="#bfbfbf" points="0,-112.5 0,-131.5 38,-131.5 38,-112.5 0,-112.5"/>
<text text-anchor="middle" x="19" y="-119.5" font-family="Helvetica,sans-Serif" font-size="10.00">map</text>
</g>
<!-- Node2&#45;&gt;Node3 -->
<g id="edge2" class="edge"><title>Node2&#45;&gt;Node3</title>
<path fill="none" stroke="midnightblue" d="M114.095,-168.444C95.746,-159.675 66.9946,-145.935 45.9064,-135.858"/>
<polygon fill="midnightblue" stroke="midnightblue" points="47.3532,-132.67 36.8214,-131.516 44.335,-138.986 47.3532,-132.67"/>
</g>
<!-- Node4 -->
<g id="node4" class="node"><title>Node4</title>
<polygon fill="none" stroke="#bfbfbf" points="56.5,-112.5 56.5,-131.5 103.5,-131.5 103.5,-112.5 56.5,-112.5"/>
<text text-anchor="middle" x="80" y="-119.5" font-family="Helvetica,sans-Serif" font-size="10.00">vector</text>
</g>
<!-- Node2&#45;&gt;Node4 -->
<g id="edge3" class="edge"><title>Node2&#45;&gt;Node4</title>
<path fill="none" stroke="midnightblue" d="M123.413,-168.083C115.841,-160.22 104.622,-148.569 95.4856,-139.081"/>
<polygon fill="midnightblue" stroke="midnightblue" points="97.8845,-136.527 88.427,-131.751 92.8423,-141.382 97.8845,-136.527"/>
</g>
<!-- Node5 -->
<g id="node5" class="node"><title>Node5</title>
<polygon fill="none" stroke="#bfbfbf" points="97.5,-0.5 97.5,-19.5 154.5,-19.5 154.5,-0.5 97.5,-0.5"/>
<text text-anchor="middle" x="126" y="-7.5" font-family="Helvetica,sans-Serif" font-size="10.00">memory</text>
</g>
<!-- Node2&#45;&gt;Node5 -->
<g id="edge4" class="edge"><title>Node2&#45;&gt;Node5</title>
<path fill="none" stroke="midnightblue" d="M131.677,-168.075C130.733,-141.945 127.959,-65.2106 126.671,-29.577"/>
<polygon fill="midnightblue" stroke="midnightblue" points="130.169,-29.4351 126.31,-19.5681 123.173,-29.688 130.169,-29.4351"/>
</g>
<!-- Node6 -->
<g id="node6" class="node"><title>Node6</title>
<g id="a_node6"><a xlink:href="Parser_8h.html" target="_top" xlink:title="ros_end_effector/Parser.h">
<polygon fill="none" stroke="black" points="382,-112.5 382,-131.5 522,-131.5 522,-112.5 382,-112.5"/>
<text text-anchor="middle" x="452" y="-119.5" font-family="Helvetica,sans-Serif" font-size="10.00">ros_end_effector/Parser.h</text>
</a>
</g>
</g>
<!-- Node2&#45;&gt;Node6 -->
<g id="edge5" class="edge"><title>Node2&#45;&gt;Node6</title>
<path fill="none" stroke="midnightblue" d="M182.705,-168.444C239.347,-158.885 330.996,-143.419 391.379,-133.23"/>
<polygon fill="midnightblue" stroke="midnightblue" points="392.254,-136.632 401.532,-131.516 391.089,-129.729 392.254,-136.632"/>
</g>
<!-- Node22 -->
<g id="node22" class="node"><title>Node22</title>
<polygon fill="none" stroke="#bfbfbf" points="540.5,-112.5 540.5,-131.5 617.5,-131.5 617.5,-112.5 540.5,-112.5"/>
<text text-anchor="middle" x="579" y="-119.5" font-family="Helvetica,sans-Serif" font-size="10.00">Eigen/Dense</text>
</g>
<!-- Node2&#45;&gt;Node22 -->
<g id="edge25" class="edge"><title>Node2&#45;&gt;Node22</title>
<path fill="none" stroke="midnightblue" d="M213.612,-169.556C292.128,-161.992 414.394,-149.162 530.164,-132.023"/>
<polygon fill="midnightblue" stroke="midnightblue" points="530.895,-135.453 540.268,-130.513 529.861,-128.529 530.895,-135.453"/>
</g>
<!-- Node6&#45;&gt;Node5 -->
<g id="edge8" class="edge"><title>Node6&#45;&gt;Node5</title>
<path fill="none" stroke="midnightblue" d="M381.901,-113.339C337.263,-106.884 278.859,-95.4752 230,-76 197.954,-63.2265 164.813,-40.5849 144.8,-25.683"/>
<polygon fill="midnightblue" stroke="midnightblue" points="146.906,-22.8877 136.823,-19.6329 142.676,-28.4648 146.906,-22.8877"/>
</g>
<!-- Node7 -->
<g id="node7" class="node"><title>Node7</title>
<polygon fill="none" stroke="#bfbfbf" points="172.5,-0.5 172.5,-19.5 231.5,-19.5 231.5,-0.5 172.5,-0.5"/>
<text text-anchor="middle" x="202" y="-7.5" font-family="Helvetica,sans-Serif" font-size="10.00">iostream</text>
</g>
<!-- Node6&#45;&gt;Node7 -->
<g id="edge6" class="edge"><title>Node6&#45;&gt;Node7</title>
<path fill="none" stroke="midnightblue" d="M381.618,-115.938C342.295,-110.494 293.763,-99.2372 256,-76 236.936,-64.2688 221.414,-43.4317 211.984,-28.5103"/>
<polygon fill="midnightblue" stroke="midnightblue" points="214.846,-26.478 206.692,-19.7143 208.849,-30.0872 214.846,-26.478"/>
</g>
<!-- Node8 -->
<g id="node8" class="node"><title>Node8</title>
<polygon fill="none" stroke="#bfbfbf" points="250,-0.5 250,-19.5 304,-19.5 304,-0.5 250,-0.5"/>
<text text-anchor="middle" x="277" y="-7.5" font-family="Helvetica,sans-Serif" font-size="10.00">fstream</text>
</g>
<!-- Node6&#45;&gt;Node8 -->
<g id="edge7" class="edge"><title>Node6&#45;&gt;Node8</title>
<path fill="none" stroke="midnightblue" d="M381.515,-113.11C334.818,-106.265 279.569,-94.4913 265,-76 254.485,-62.654 260.147,-43.0027 266.791,-28.8039"/>
<polygon fill="midnightblue" stroke="midnightblue" points="270.071,-30.083 271.585,-19.5969 263.862,-26.85 270.071,-30.083"/>
</g>
<!-- Node9 -->
<g id="node9" class="node"><title>Node9</title>
<polygon fill="none" stroke="#bfbfbf" points="422.5,-56.5 422.5,-75.5 481.5,-75.5 481.5,-56.5 422.5,-56.5"/>
<text text-anchor="middle" x="452" y="-63.5" font-family="Helvetica,sans-Serif" font-size="10.00">ros/ros.h</text>
</g>
<!-- Node6&#45;&gt;Node9 -->
<g id="edge9" class="edge"><title>Node6&#45;&gt;Node9</title>
<path fill="none" stroke="midnightblue" d="M452,-112.083C452,-105.006 452,-94.8611 452,-85.9865"/>
<polygon fill="midnightblue" stroke="midnightblue" points="455.5,-85.751 452,-75.7511 448.5,-85.7511 455.5,-85.751"/>
</g>
<!-- Node10 -->
<g id="node10" class="node"><title>Node10</title>
<polygon fill="none" stroke="#bfbfbf" points="500,-56.5 500,-75.5 580,-75.5 580,-56.5 500,-56.5"/>
<text text-anchor="middle" x="540" y="-63.5" font-family="Helvetica,sans-Serif" font-size="10.00">ros/console.h</text>
</g>
<!-- Node6&#45;&gt;Node10 -->
<g id="edge10" class="edge"><title>Node6&#45;&gt;Node10</title>
<path fill="none" stroke="midnightblue" d="M466.139,-112.324C479.866,-103.9 500.936,-90.9709 517.064,-81.0741"/>
<polygon fill="midnightblue" stroke="midnightblue" points="519.204,-83.8678 525.896,-75.6545 515.543,-77.9016 519.204,-83.8678"/>
</g>
<!-- Node11 -->
<g id="node11" class="node"><title>Node11</title>
<g id="a_node11"><a xlink:href="Utils_8h.html" target="_top" xlink:title="ros_end_effector/Utils.h">
<polygon fill="none" stroke="black" points="274,-56.5 274,-75.5 404,-75.5 404,-56.5 274,-56.5"/>
<text text-anchor="middle" x="339" y="-63.5" font-family="Helvetica,sans-Serif" font-size="10.00">ros_end_effector/Utils.h</text>
</a>
</g>
</g>
<!-- Node6&#45;&gt;Node11 -->
<g id="edge11" class="edge"><title>Node6&#45;&gt;Node11</title>
<path fill="none" stroke="midnightblue" d="M434.095,-112.444C415.746,-103.675 386.995,-89.9355 365.906,-79.8579"/>
<polygon fill="midnightblue" stroke="midnightblue" points="367.353,-76.6703 356.821,-75.5164 364.335,-82.9862 367.353,-76.6703"/>
</g>
<!-- Node17 -->
<g id="node17" class="node"><title>Node17</title>
<polygon fill="none" stroke="#bfbfbf" points="598,-56.5 598,-75.5 694,-75.5 694,-56.5 598,-56.5"/>
<text text-anchor="middle" x="646" y="-63.5" font-family="Helvetica,sans-Serif" font-size="10.00">yaml&#45;cpp/yaml.h</text>
</g>
<!-- Node6&#45;&gt;Node17 -->
<g id="edge20" class="edge"><title>Node6&#45;&gt;Node17</title>
<path fill="none" stroke="midnightblue" d="M482.74,-112.444C515.944,-103.201 568.991,-88.4356 605.557,-78.2572"/>
<polygon fill="midnightblue" stroke="midnightblue" points="606.709,-81.5699 615.404,-75.5164 604.832,-74.8262 606.709,-81.5699"/>
</g>
<!-- Node18 -->
<g id="node18" class="node"><title>Node18</title>
<polygon fill="none" stroke="#bfbfbf" points="712,-56.5 712,-75.5 850,-75.5 850,-56.5 712,-56.5"/>
<text text-anchor="middle" x="781" y="-63.5" font-family="Helvetica,sans-Serif" font-size="10.00">urdf_parser/urdf_parser.h</text>
</g>
<!-- Node6&#45;&gt;Node18 -->
<g id="edge21" class="edge"><title>Node6&#45;&gt;Node18</title>
<path fill="none" stroke="midnightblue" d="M504.131,-112.444C562.487,-102.865 656.982,-87.3556 719.059,-77.1667"/>
<polygon fill="midnightblue" stroke="midnightblue" points="719.812,-80.59 729.113,-75.5164 718.678,-73.6824 719.812,-80.59"/>
</g>
<!-- Node19 -->
<g id="node19" class="node"><title>Node19</title>
<polygon fill="none" stroke="#bfbfbf" points="868,-56.5 868,-75.5 1008,-75.5 1008,-56.5 868,-56.5"/>
<text text-anchor="middle" x="938" y="-63.5" font-family="Helvetica,sans-Serif" font-size="10.00">kdl_parser/kdl_parser.hpp</text>
</g>
<!-- Node6&#45;&gt;Node19 -->
<g id="edge22" class="edge"><title>Node6&#45;&gt;Node19</title>
<path fill="none" stroke="midnightblue" d="M522.21,-112.986C525.179,-112.652 528.119,-112.322 531,-112 673.471,-96.0661 711.56,-92.4593 857.553,-76.1578"/>
<polygon fill="midnightblue" stroke="midnightblue" points="858.241,-79.6029 867.79,-75.0137 857.464,-72.6462 858.241,-79.6029"/>
</g>
<!-- Node20 -->
<g id="node20" class="node"><title>Node20</title>
<polygon fill="none" stroke="#bfbfbf" points="1026,-56.5 1026,-75.5 1124,-75.5 1124,-56.5 1026,-56.5"/>
<text text-anchor="middle" x="1075" y="-63.5" font-family="Helvetica,sans-Serif" font-size="10.00">srdfdom/model.h</text>
</g>
<!-- Node6&#45;&gt;Node20 -->
<g id="edge23" class="edge"><title>Node6&#45;&gt;Node20</title>
<path fill="none" stroke="midnightblue" d="M522.196,-112.857C525.17,-112.558 528.114,-112.271 531,-112 743.378,-92.0445 800.106,-100.363 1015.92,-76.0324"/>
<polygon fill="midnightblue" stroke="midnightblue" points="1016.45,-79.4953 1025.99,-74.8872 1015.66,-72.5402 1016.45,-79.4953"/>
</g>
<!-- Node21 -->
<g id="node21" class="node"><title>Node21</title>
<polygon fill="none" stroke="#bfbfbf" points="1142.5,-56.5 1142.5,-75.5 1283.5,-75.5 1283.5,-56.5 1142.5,-56.5"/>
<text text-anchor="middle" x="1213" y="-63.5" font-family="Helvetica,sans-Serif" font-size="10.00">boost/filesystem/path.hpp</text>
</g>
<!-- Node6&#45;&gt;Node21 -->
<g id="edge24" class="edge"><title>Node6&#45;&gt;Node21</title>
<path fill="none" stroke="midnightblue" d="M522.192,-112.805C525.166,-112.521 528.112,-112.251 531,-112 794.77,-89.105 864.266,-98.747 1132.32,-76.0089"/>
<polygon fill="midnightblue" stroke="midnightblue" points="1132.68,-79.4906 1142.35,-75.151 1132.09,-72.5161 1132.68,-79.4906"/>
</g>
<!-- Node11&#45;&gt;Node5 -->
<g id="edge13" class="edge"><title>Node11&#45;&gt;Node5</title>
<path fill="none" stroke="midnightblue" d="M305.25,-56.4435C266.968,-46.7383 204.664,-30.9429 164.513,-20.7639"/>
<polygon fill="midnightblue" stroke="midnightblue" points="165.364,-17.369 154.811,-18.3042 163.644,-24.1544 165.364,-17.369"/>
</g>
<!-- Node11&#45;&gt;Node7 -->
<g id="edge14" class="edge"><title>Node11&#45;&gt;Node7</title>
<path fill="none" stroke="midnightblue" d="M317.292,-56.4435C294.645,-47.5171 258.928,-33.4387 233.248,-23.3168"/>
<polygon fill="midnightblue" stroke="midnightblue" points="234.193,-19.9273 223.606,-19.5164 231.626,-26.4397 234.193,-19.9273"/>
</g>
<!-- Node11&#45;&gt;Node8 -->
<g id="edge17" class="edge"><title>Node11&#45;&gt;Node8</title>
<path fill="none" stroke="midnightblue" d="M329.039,-56.324C319.873,-48.3414 306.063,-36.3128 294.972,-26.6529"/>
<polygon fill="midnightblue" stroke="midnightblue" points="296.982,-23.7624 287.143,-19.8339 292.385,-29.041 296.982,-23.7624"/>
</g>
<!-- Node12 -->
<g id="node12" class="node"><title>Node12</title>
<polygon fill="none" stroke="#bfbfbf" points="322.5,-0.5 322.5,-19.5 369.5,-19.5 369.5,-0.5 322.5,-0.5"/>
<text text-anchor="middle" x="346" y="-7.5" font-family="Helvetica,sans-Serif" font-size="10.00">cmath</text>
</g>
<!-- Node11&#45;&gt;Node12 -->
<g id="edge12" class="edge"><title>Node11&#45;&gt;Node12</title>
<path fill="none" stroke="midnightblue" d="M340.156,-56.083C341.084,-48.9272 342.418,-38.6353 343.577,-29.6911"/>
<polygon fill="midnightblue" stroke="midnightblue" points="347.051,-30.1181 344.866,-19.7511 340.109,-29.2181 347.051,-30.1181"/>
</g>
<!-- Node13 -->
<g id="node13" class="node"><title>Node13</title>
<polygon fill="none" stroke="#bfbfbf" points="388,-0.5 388,-19.5 436,-19.5 436,-0.5 388,-0.5"/>
<text text-anchor="middle" x="412" y="-7.5" font-family="Helvetica,sans-Serif" font-size="10.00">dlfcn.h</text>
</g>
<!-- Node11&#45;&gt;Node13 -->
<g id="edge15" class="edge"><title>Node11&#45;&gt;Node13</title>
<path fill="none" stroke="midnightblue" d="M350.729,-56.324C361.837,-48.1066 378.742,-35.6017 391.983,-25.8069"/>
<polygon fill="midnightblue" stroke="midnightblue" points="394.1,-28.5948 400.058,-19.8339 389.937,-22.9671 394.1,-28.5948"/>
</g>
<!-- Node14 -->
<g id="node14" class="node"><title>Node14</title>
<polygon fill="none" stroke="#bfbfbf" points="454,-0.5 454,-19.5 570,-19.5 570,-0.5 454,-0.5"/>
<text text-anchor="middle" x="512" y="-7.5" font-family="Helvetica,sans-Serif" font-size="10.00">boost/filesystem.hpp</text>
</g>
<!-- Node11&#45;&gt;Node14 -->
<g id="edge16" class="edge"><title>Node11&#45;&gt;Node14</title>
<path fill="none" stroke="midnightblue" d="M366.412,-56.4435C395.769,-47.2801 442.519,-32.6876 475.096,-22.5192"/>
<polygon fill="midnightblue" stroke="midnightblue" points="476.213,-25.8371 484.716,-19.5164 474.127,-19.1551 476.213,-25.8371"/>
</g>
<!-- Node15 -->
<g id="node15" class="node"><title>Node15</title>
<polygon fill="none" stroke="#bfbfbf" points="588,-0.5 588,-19.5 638,-19.5 638,-0.5 588,-0.5"/>
<text text-anchor="middle" x="613" y="-7.5" font-family="Helvetica,sans-Serif" font-size="10.00">chrono</text>
</g>
<!-- Node11&#45;&gt;Node15 -->
<g id="edge18" class="edge"><title>Node11&#45;&gt;Node15</title>
<path fill="none" stroke="midnightblue" d="M390.723,-56.4324C437.291,-48.4639 507.805,-35.7696 577.913,-20.1189"/>
<polygon fill="midnightblue" stroke="midnightblue" points="578.814,-23.5036 587.8,-17.891 577.275,-16.6748 578.814,-23.5036"/>
</g>
<!-- Node16 -->
<g id="node16" class="node"><title>Node16</title>
<polygon fill="none" stroke="#bfbfbf" points="656,-0.5 656,-19.5 706,-19.5 706,-0.5 656,-0.5"/>
<text text-anchor="middle" x="681" y="-7.5" font-family="Helvetica,sans-Serif" font-size="10.00">atomic</text>
</g>
<!-- Node11&#45;&gt;Node16 -->
<g id="edge19" class="edge"><title>Node11&#45;&gt;Node16</title>
<path fill="none" stroke="midnightblue" d="M403.347,-56.4761C475.203,-46.812 588.037,-31.1667 645.998,-19.9715"/>
<polygon fill="midnightblue" stroke="midnightblue" points="646.705,-23.3994 655.824,-18.0053 645.332,-16.5355 646.705,-23.3994"/>
</g>
</g>
</svg>
