<?xml version="1.0" encoding="UTF-8" standalone="no"?>
<!DOCTYPE svg PUBLIC "-//W3C//DTD SVG 1.1//EN"
 "http://www.w3.org/Graphics/SVG/1.1/DTD/svg11.dtd">
<!-- Generated by graphviz version 2.38.0 (20140413.2041)
 -->
<!-- Title: /home/lucamuratore/src/ros_end_effector__ws/src/ROSEndEffector/include/ROSEndEffector/EEInterface.h Pages: 1 -->
<svg width="672pt" height="361pt"
 viewBox="0.00 0.00 672.00 361.00" xmlns="http://www.w3.org/2000/svg" xmlns:xlink="http://www.w3.org/1999/xlink">
<g id="graph0" class="graph" transform="scale(1 1) rotate(0) translate(4 357)">
<title>/home/lucamuratore/src/ros_end_effector__ws/src/ROSEndEffector/include/ROSEndEffector/EEInterface.h</title>
<!-- Node1 -->
<g id="node1" class="node"><title>Node1</title>
<polygon fill="#bfbfbf" stroke="black" points="332,-289.5 332,-352.5 465,-352.5 465,-289.5 332,-289.5"/>
<text text-anchor="start" x="340" y="-340.5" font-family="Helvetica,sans-Serif" font-size="10.00">/home/lucamuratore</text>
<text text-anchor="start" x="340" y="-329.5" font-family="Helvetica,sans-Serif" font-size="10.00">/src/ros_end_effector</text>
<text text-anchor="start" x="340" y="-318.5" font-family="Helvetica,sans-Serif" font-size="10.00">__ws/src/ROSEndEffector</text>
<text text-anchor="start" x="340" y="-307.5" font-family="Helvetica,sans-Serif" font-size="10.00">/include/ROSEndEffector</text>
<text text-anchor="middle" x="398.5" y="-296.5" font-family="Helvetica,sans-Serif" font-size="10.00">/EEInterface.h</text>
</g>
<!-- Node2 -->
<g id="node2" class="node"><title>Node2</title>
<g id="a_node2"><a xlink:href="EEHal_8h.html" target="_top" xlink:title="/home/lucamuratore\l/src/ros_end_effector\l__ws/src/ROSEndEffector\l/include/ROSEndEffector\l/EEHal.h">
<polygon fill="none" stroke="black" points="143,-189.5 143,-252.5 276,-252.5 276,-189.5 143,-189.5"/>
<text text-anchor="start" x="151" y="-240.5" font-family="Helvetica,sans-Serif" font-size="10.00">/home/lucamuratore</text>
<text text-anchor="start" x="151" y="-229.5" font-family="Helvetica,sans-Serif" font-size="10.00">/src/ros_end_effector</text>
<text text-anchor="start" x="151" y="-218.5" font-family="Helvetica,sans-Serif" font-size="10.00">__ws/src/ROSEndEffector</text>
<text text-anchor="start" x="151" y="-207.5" font-family="Helvetica,sans-Serif" font-size="10.00">/include/ROSEndEffector</text>
<text text-anchor="middle" x="209.5" y="-196.5" font-family="Helvetica,sans-Serif" font-size="10.00">/EEHal.h</text>
</a>
</g>
</g>
<!-- Node1&#45;&gt;Node2 -->
<g id="edge1" class="edge"><title>Node1&#45;&gt;Node2</title>
<path fill="none" stroke="midnightblue" d="M330.578,-284.781C310.238,-274.234 288.109,-262.76 268.401,-252.541"/>
<polygon fill="midnightblue" stroke="midnightblue" points="328.988,-287.899 339.477,-289.395 332.21,-281.685 328.988,-287.899"/>
</g>
<!-- Node5 -->
<g id="node5" class="node"><title>Node5</title>
<g id="a_node5"><a xlink:href="UniversalRosEndEffector_8cpp.html" target="_top" xlink:title="/home/lucamuratore\l/src/ros_end_effector\l__ws/src/ROSEndEffector\l/src/UniversalRosEndEffector.cpp">
<polygon fill="none" stroke="black" points="209.5,-0.5 209.5,-52.5 375.5,-52.5 375.5,-0.5 209.5,-0.5"/>
<text text-anchor="start" x="217.5" y="-40.5" font-family="Helvetica,sans-Serif" font-size="10.00">/home/lucamuratore</text>
<text text-anchor="start" x="217.5" y="-29.5" font-family="Helvetica,sans-Serif" font-size="10.00">/src/ros_end_effector</text>
<text text-anchor="start" x="217.5" y="-18.5" font-family="Helvetica,sans-Serif" font-size="10.00">__ws/src/ROSEndEffector</text>
<text text-anchor="middle" x="292.5" y="-7.5" font-family="Helvetica,sans-Serif" font-size="10.00">/src/UniversalRosEndEffector.cpp</text>
</a>
</g>
</g>
<!-- Node1&#45;&gt;Node5 -->
<g id="edge11" class="edge"><title>Node1&#45;&gt;Node5</title>
<path fill="none" stroke="midnightblue" d="M380.569,-280.071C376.961,-271.255 373.394,-261.892 370.5,-253 347.312,-181.757 360.628,-158.027 331.5,-89 326.191,-76.4198 318.421,-63.5085 311.21,-52.7844"/>
<polygon fill="midnightblue" stroke="midnightblue" points="377.375,-281.505 384.47,-289.373 383.831,-278.798 377.375,-281.505"/>
</g>
<!-- Node7 -->
<g id="node7" class="node"><title>Node7</title>
<g id="a_node7"><a xlink:href="Parser_8h.html" target="_top" xlink:title="/home/lucamuratore\l/src/ros_end_effector\l__ws/src/ROSEndEffector\l/include/ROSEndEffector\l/Parser.h">
<polygon fill="none" stroke="black" points="380,-189.5 380,-252.5 513,-252.5 513,-189.5 380,-189.5"/>
<text text-anchor="start" x="388" y="-240.5" font-family="Helvetica,sans-Serif" font-size="10.00">/home/lucamuratore</text>
<text text-anchor="start" x="388" y="-229.5" font-family="Helvetica,sans-Serif" font-size="10.00">/src/ros_end_effector</text>
<text text-anchor="start" x="388" y="-218.5" font-family="Helvetica,sans-Serif" font-size="10.00">__ws/src/ROSEndEffector</text>
<text text-anchor="start" x="388" y="-207.5" font-family="Helvetica,sans-Serif" font-size="10.00">/include/ROSEndEffector</text>
<text text-anchor="middle" x="446.5" y="-196.5" font-family="Helvetica,sans-Serif" font-size="10.00">/Parser.h</text>
</a>
</g>
</g>
<!-- Node1&#45;&gt;Node7 -->
<g id="edge7" class="edge"><title>Node1&#45;&gt;Node7</title>
<path fill="none" stroke="midnightblue" d="M417.968,-280.252C422.479,-271.042 427.212,-261.379 431.498,-252.63"/>
<polygon fill="midnightblue" stroke="midnightblue" points="414.811,-278.741 413.556,-289.261 421.098,-281.82 414.811,-278.741"/>
</g>
<!-- Node9 -->
<g id="node9" class="node"><title>Node9</title>
<g id="a_node9"><a xlink:href="EEInterface_8cpp.html" target="_top" xlink:title="/home/lucamuratore\l/src/ros_end_effector\l__ws/src/ROSEndEffector\l/src/EEInterface.cpp">
<polygon fill="none" stroke="black" points="531,-195 531,-247 664,-247 664,-195 531,-195"/>
<text text-anchor="start" x="539" y="-235" font-family="Helvetica,sans-Serif" font-size="10.00">/home/lucamuratore</text>
<text text-anchor="start" x="539" y="-224" font-family="Helvetica,sans-Serif" font-size="10.00">/src/ros_end_effector</text>
<text text-anchor="start" x="539" y="-213" font-family="Helvetica,sans-Serif" font-size="10.00">__ws/src/ROSEndEffector</text>
<text text-anchor="middle" x="597.5" y="-202" font-family="Helvetica,sans-Serif" font-size="10.00">/src/EEInterface.cpp</text>
</a>
</g>
</g>
<!-- Node1&#45;&gt;Node9 -->
<g id="edge10" class="edge"><title>Node1&#45;&gt;Node9</title>
<path fill="none" stroke="midnightblue" d="M469.849,-284.863C495.191,-272.383 523.189,-258.596 546.49,-247.121"/>
<polygon fill="midnightblue" stroke="midnightblue" points="468.071,-281.837 460.646,-289.395 471.164,-288.117 468.071,-281.837"/>
</g>
<!-- Node3 -->
<g id="node3" class="node"><title>Node3</title>
<g id="a_node3"><a xlink:href="DummyHal_8h.html" target="_top" xlink:title="/home/lucamuratore\l/src/ros_end_effector\l__ws/src/ROSEndEffector\l/include/ROSEndEffector\l/DummyHal.h">
<polygon fill="none" stroke="black" points="0,-89.5 0,-152.5 133,-152.5 133,-89.5 0,-89.5"/>
<text text-anchor="start" x="8" y="-140.5" font-family="Helvetica,sans-Serif" font-size="10.00">/home/lucamuratore</text>
<text text-anchor="start" x="8" y="-129.5" font-family="Helvetica,sans-Serif" font-size="10.00">/src/ros_end_effector</text>
<text text-anchor="start" x="8" y="-118.5" font-family="Helvetica,sans-Serif" font-size="10.00">__ws/src/ROSEndEffector</text>
<text text-anchor="start" x="8" y="-107.5" font-family="Helvetica,sans-Serif" font-size="10.00">/include/ROSEndEffector</text>
<text text-anchor="middle" x="66.5" y="-96.5" font-family="Helvetica,sans-Serif" font-size="10.00">/DummyHal.h</text>
</a>
</g>
</g>
<!-- Node2&#45;&gt;Node3 -->
<g id="edge2" class="edge"><title>Node2&#45;&gt;Node3</title>
<path fill="none" stroke="midnightblue" d="M156.092,-183.398C141.31,-173.268 125.424,-162.382 111.195,-152.63"/>
<polygon fill="midnightblue" stroke="midnightblue" points="154.419,-186.495 164.646,-189.261 158.376,-180.721 154.419,-186.495"/>
</g>
<!-- Node2&#45;&gt;Node5 -->
<g id="edge6" class="edge"><title>Node2&#45;&gt;Node5</title>
<path fill="none" stroke="midnightblue" d="M186.438,-180.179C173.928,-152.91 164.052,-116.795 180.5,-89 189.707,-73.4408 204.403,-61.5552 220.16,-52.5812"/>
<polygon fill="midnightblue" stroke="midnightblue" points="183.414,-181.964 190.934,-189.427 189.709,-178.903 183.414,-181.964"/>
</g>
<!-- Node6 -->
<g id="node6" class="node"><title>Node6</title>
<g id="a_node6"><a xlink:href="EEHal_8cpp.html" target="_top" xlink:title="/home/lucamuratore\l/src/ros_end_effector\l__ws/src/ROSEndEffector\l/src/EEHal.cpp">
<polygon fill="none" stroke="black" points="190,-95 190,-147 323,-147 323,-95 190,-95"/>
<text text-anchor="start" x="198" y="-135" font-family="Helvetica,sans-Serif" font-size="10.00">/home/lucamuratore</text>
<text text-anchor="start" x="198" y="-124" font-family="Helvetica,sans-Serif" font-size="10.00">/src/ros_end_effector</text>
<text text-anchor="start" x="198" y="-113" font-family="Helvetica,sans-Serif" font-size="10.00">__ws/src/ROSEndEffector</text>
<text text-anchor="middle" x="256.5" y="-102" font-family="Helvetica,sans-Serif" font-size="10.00">/src/EEHal.cpp</text>
</a>
</g>
</g>
<!-- Node2&#45;&gt;Node6 -->
<g id="edge5" class="edge"><title>Node2&#45;&gt;Node6</title>
<path fill="none" stroke="midnightblue" d="M228.642,-180.086C233.999,-168.917 239.668,-157.096 244.485,-147.054"/>
<polygon fill="midnightblue" stroke="midnightblue" points="225.411,-178.731 224.242,-189.261 231.722,-181.758 225.411,-178.731"/>
</g>
<!-- Node4 -->
<g id="node4" class="node"><title>Node4</title>
<g id="a_node4"><a xlink:href="DummyHal_8cpp.html" target="_top" xlink:title="/home/lucamuratore\l/src/ros_end_effector\l__ws/src/ROSEndEffector\l/src/DummyHal.cpp">
<polygon fill="none" stroke="black" points="0,-0.5 0,-52.5 133,-52.5 133,-0.5 0,-0.5"/>
<text text-anchor="start" x="8" y="-40.5" font-family="Helvetica,sans-Serif" font-size="10.00">/home/lucamuratore</text>
<text text-anchor="start" x="8" y="-29.5" font-family="Helvetica,sans-Serif" font-size="10.00">/src/ros_end_effector</text>
<text text-anchor="start" x="8" y="-18.5" font-family="Helvetica,sans-Serif" font-size="10.00">__ws/src/ROSEndEffector</text>
<text text-anchor="middle" x="66.5" y="-7.5" font-family="Helvetica,sans-Serif" font-size="10.00">/src/DummyHal.cpp</text>
</a>
</g>
</g>
<!-- Node3&#45;&gt;Node4 -->
<g id="edge3" class="edge"><title>Node3&#45;&gt;Node4</title>
<path fill="none" stroke="midnightblue" d="M66.5,-79.4229C66.5,-70.3585 66.5,-60.999 66.5,-52.7655"/>
<polygon fill="midnightblue" stroke="midnightblue" points="63.0001,-79.4556 66.5,-89.4557 70.0001,-79.4557 63.0001,-79.4556"/>
</g>
<!-- Node3&#45;&gt;Node5 -->
<g id="edge4" class="edge"><title>Node3&#45;&gt;Node5</title>
<path fill="none" stroke="midnightblue" d="M142.353,-88.9539C171.331,-77.0936 203.975,-63.7324 231.406,-52.5052"/>
<polygon fill="midnightblue" stroke="midnightblue" points="141.014,-85.7201 133.085,-92.7472 143.666,-92.1985 141.014,-85.7201"/>
</g>
<!-- Node7&#45;&gt;Node5 -->
<g id="edge9" class="edge"><title>Node7&#45;&gt;Node5</title>
<path fill="none" stroke="midnightblue" d="M423.904,-180.445C404.912,-147.789 378.798,-104.401 365.5,-89 354.128,-75.8297 339.804,-63.1171 326.863,-52.7024"/>
<polygon fill="midnightblue" stroke="midnightblue" points="421.015,-182.44 429.056,-189.339 427.072,-178.931 421.015,-182.44"/>
</g>
<!-- Node8 -->
<g id="node8" class="node"><title>Node8</title>
<g id="a_node8"><a xlink:href="Parser_8cpp.html" target="_top" xlink:title="/home/lucamuratore\l/src/ros_end_effector\l__ws/src/ROSEndEffector\l/src/Parser.cpp">
<polygon fill="none" stroke="black" points="418,-95 418,-147 551,-147 551,-95 418,-95"/>
<text text-anchor="start" x="426" y="-135" font-family="Helvetica,sans-Serif" font-size="10.00">/home/lucamuratore</text>
<text text-anchor="start" x="426" y="-124" font-family="Helvetica,sans-Serif" font-size="10.00">/src/ros_end_effector</text>
<text text-anchor="start" x="426" y="-113" font-family="Helvetica,sans-Serif" font-size="10.00">__ws/src/ROSEndEffector</text>
<text text-anchor="middle" x="484.5" y="-102" font-family="Helvetica,sans-Serif" font-size="10.00">/src/Parser.cpp</text>
</a>
</g>
</g>
<!-- Node7&#45;&gt;Node8 -->
<g id="edge8" class="edge"><title>Node7&#45;&gt;Node8</title>
<path fill="none" stroke="midnightblue" d="M462.107,-179.751C466.399,-168.681 470.93,-156.995 474.785,-147.054"/>
<polygon fill="midnightblue" stroke="midnightblue" points="458.771,-178.672 458.419,-189.261 465.298,-181.203 458.771,-178.672"/>
</g>
</g>
</svg>
