<?xml version="1.0" encoding="UTF-8" standalone="no"?>
<!DOCTYPE svg PUBLIC "-//W3C//DTD SVG 1.1//EN"
 "http://www.w3.org/Graphics/SVG/1.1/DTD/svg11.dtd">
<!-- Generated by graphviz version 2.38.0 (20140413.2041)
 -->
<!-- Title: /home/travis/build/ADVRHumanoids/ROSEndEffector/src/FindActions.cpp Pages: 1 -->
<svg width="1726pt" height="575pt"
 viewBox="0.00 0.00 1726.00 575.00" xmlns="http://www.w3.org/2000/svg" xmlns:xlink="http://www.w3.org/1999/xlink">
<g id="graph0" class="graph" transform="scale(1 1) rotate(0) translate(4 571)">
<title>/home/travis/build/ADVRHumanoids/ROSEndEffector/src/FindActions.cpp</title>
<!-- Node1 -->
<g id="node1" class="node"><title>Node1</title>
<polygon fill="#bfbfbf" stroke="black" points="1070.5,-525.5 1070.5,-566.5 1249.5,-566.5 1249.5,-525.5 1070.5,-525.5"/>
<text text-anchor="start" x="1078.5" y="-554.5" font-family="Helvetica,sans-Serif" font-size="10.00">/home/travis/build</text>
<text text-anchor="start" x="1078.5" y="-543.5" font-family="Helvetica,sans-Serif" font-size="10.00">/ADVRHumanoids/ROSEndEffector</text>
<text text-anchor="middle" x="1160" y="-532.5" font-family="Helvetica,sans-Serif" font-size="10.00">/src/FindActions.cpp</text>
</g>
<!-- Node2 -->
<g id="node2" class="node"><title>Node2</title>
<g id="a_node2"><a xlink:href="FindActions_8h.html" target="_top" xlink:title="ros_end_effector/FindActions.h">
<polygon fill="none" stroke="black" points="1078,-469.5 1078,-488.5 1242,-488.5 1242,-469.5 1078,-469.5"/>
<text text-anchor="middle" x="1160" y="-476.5" font-family="Helvetica,sans-Serif" font-size="10.00">ros_end_effector/FindActions.h</text>
</a>
</g>
</g>
<!-- Node1&#45;&gt;Node2 -->
<g id="edge1" class="edge"><title>Node1&#45;&gt;Node2</title>
<path fill="none" stroke="midnightblue" d="M1160,-525.498C1160,-517.065 1160,-507.235 1160,-498.874"/>
<polygon fill="midnightblue" stroke="midnightblue" points="1163.5,-498.652 1160,-488.652 1156.5,-498.653 1163.5,-498.652"/>
</g>
<!-- Node3 -->
<g id="node3" class="node"><title>Node3</title>
<polygon fill="none" stroke="#bfbfbf" points="1386.5,-274 1386.5,-304 1513.5,-304 1513.5,-274 1386.5,-274"/>
<text text-anchor="start" x="1394.5" y="-292" font-family="Helvetica,sans-Serif" font-size="10.00">moveit/planning_scene</text>
<text text-anchor="middle" x="1450" y="-281" font-family="Helvetica,sans-Serif" font-size="10.00">/planning_scene.h</text>
</g>
<!-- Node2&#45;&gt;Node3 -->
<g id="edge2" class="edge"><title>Node2&#45;&gt;Node3</title>
<path fill="none" stroke="midnightblue" d="M1220.09,-469.47C1310.84,-455.22 1476.01,-423.48 1511,-377 1527.9,-354.555 1503.1,-328.025 1480.24,-310.214"/>
<polygon fill="midnightblue" stroke="midnightblue" points="1482.1,-307.233 1471.98,-304.07 1477.92,-312.848 1482.1,-307.233"/>
</g>
<!-- Node4 -->
<g id="node4" class="node"><title>Node4</title>
<g id="a_node4"><a xlink:href="YamlWorker_8h.html" target="_top" xlink:title="ros_end_effector/YamlWorker.h">
<polygon fill="none" stroke="black" points="683.5,-413.5 683.5,-432.5 848.5,-432.5 848.5,-413.5 683.5,-413.5"/>
<text text-anchor="middle" x="766" y="-420.5" font-family="Helvetica,sans-Serif" font-size="10.00">ros_end_effector/YamlWorker.h</text>
</a>
</g>
</g>
<!-- Node2&#45;&gt;Node4 -->
<g id="edge3" class="edge"><title>Node2&#45;&gt;Node4</title>
<path fill="none" stroke="midnightblue" d="M1097.57,-469.444C1027.11,-459.786 912.651,-444.099 838.348,-433.916"/>
<polygon fill="midnightblue" stroke="midnightblue" points="838.521,-430.407 828.138,-432.516 837.57,-437.342 838.521,-430.407"/>
</g>
<!-- Node15 -->
<g id="node15" class="node"><title>Node15</title>
<g id="a_node15"><a xlink:href="Action_8h.html" target="_top" xlink:title="ros_end_effector/Grasping\lActions/Action.h">
<polygon fill="none" stroke="black" points="294.5,-134.5 294.5,-164.5 437.5,-164.5 437.5,-134.5 294.5,-134.5"/>
<text text-anchor="start" x="302.5" y="-152.5" font-family="Helvetica,sans-Serif" font-size="10.00">ros_end_effector/Grasping</text>
<text text-anchor="middle" x="366" y="-141.5" font-family="Helvetica,sans-Serif" font-size="10.00">Actions/Action.h</text>
</a>
</g>
</g>
<!-- Node2&#45;&gt;Node15 -->
<g id="edge82" class="edge"><title>Node2&#45;&gt;Node15</title>
<path fill="none" stroke="midnightblue" d="M1077.78,-476.369C955.267,-472.977 731.249,-462.793 657,-433 575.704,-400.38 566.036,-370.824 503,-310 490.313,-297.758 418.753,-213.158 384.403,-172.382"/>
<polygon fill="midnightblue" stroke="midnightblue" points="386.983,-170.012 377.865,-164.616 381.628,-174.52 386.983,-170.012"/>
</g>
<!-- Node21 -->
<g id="node21" class="node"><title>Node21</title>
<g id="a_node21"><a xlink:href="ActionPinchTight_8h.html" target="_top" xlink:title="ros_end_effector/Grasping\lActions/ActionPinchTight.h">
<polygon fill="none" stroke="black" points="1359.5,-346.5 1359.5,-376.5 1502.5,-376.5 1502.5,-346.5 1359.5,-346.5"/>
<text text-anchor="start" x="1367.5" y="-364.5" font-family="Helvetica,sans-Serif" font-size="10.00">ros_end_effector/Grasping</text>
<text text-anchor="middle" x="1431" y="-353.5" font-family="Helvetica,sans-Serif" font-size="10.00">Actions/ActionPinchTight.h</text>
</a>
</g>
</g>
<!-- Node2&#45;&gt;Node21 -->
<g id="edge83" class="edge"><title>Node2&#45;&gt;Node21</title>
<path fill="none" stroke="midnightblue" d="M1180.37,-469.319C1224.44,-450.534 1329.45,-405.779 1388.61,-380.567"/>
<polygon fill="midnightblue" stroke="midnightblue" points="1390.22,-383.686 1398.05,-376.545 1387.47,-377.246 1390.22,-383.686"/>
</g>
<!-- Node23 -->
<g id="node23" class="node"><title>Node23</title>
<g id="a_node23"><a xlink:href="ActionPinchLoose_8h.html" target="_top" xlink:title="ros_end_effector/Grasping\lActions/ActionPinchLoose.h">
<polygon fill="none" stroke="black" points="996,-346.5 996,-376.5 1144,-376.5 1144,-346.5 996,-346.5"/>
<text text-anchor="start" x="1004" y="-364.5" font-family="Helvetica,sans-Serif" font-size="10.00">ros_end_effector/Grasping</text>
<text text-anchor="middle" x="1070" y="-353.5" font-family="Helvetica,sans-Serif" font-size="10.00">Actions/ActionPinchLoose.h</text>
</a>
</g>
</g>
<!-- Node2&#45;&gt;Node23 -->
<g id="edge84" class="edge"><title>Node2&#45;&gt;Node23</title>
<path fill="none" stroke="midnightblue" d="M1153.24,-469.319C1139.35,-451.502 1107.27,-410.324 1087.23,-384.615"/>
<polygon fill="midnightblue" stroke="midnightblue" points="1089.85,-382.282 1080.94,-376.545 1084.33,-386.585 1089.85,-382.282"/>
</g>
<!-- Node24 -->
<g id="node24" class="node"><title>Node24</title>
<g id="a_node24"><a xlink:href="ActionTrig_8h.html" target="_top" xlink:title="ros_end_effector/Grasping\lActions/ActionTrig.h">
<polygon fill="none" stroke="black" points="594.5,-274 594.5,-304 737.5,-304 737.5,-274 594.5,-274"/>
<text text-anchor="start" x="602.5" y="-292" font-family="Helvetica,sans-Serif" font-size="10.00">ros_end_effector/Grasping</text>
<text text-anchor="middle" x="666" y="-281" font-family="Helvetica,sans-Serif" font-size="10.00">Actions/ActionTrig.h</text>
</a>
</g>
</g>
<!-- Node2&#45;&gt;Node24 -->
<g id="edge85" class="edge"><title>Node2&#45;&gt;Node24</title>
<path fill="none" stroke="midnightblue" d="M1077.79,-476.132C946.498,-472.311 701.404,-461.422 674,-433 643.608,-401.48 651.242,-345.661 658.969,-313.886"/>
<polygon fill="midnightblue" stroke="midnightblue" points="662.383,-314.663 661.538,-304.102 655.613,-312.885 662.383,-314.663"/>
</g>
<!-- Node25 -->
<g id="node25" class="node"><title>Node25</title>
<g id="a_node25"><a xlink:href="ActionSingleJointMultipleTips_8h.html" target="_top" xlink:title="ros_end_effector/Grasping\lActions/ActionSingleJointMultiple\lTips.h">
<polygon fill="none" stroke="black" points="832.5,-268.5 832.5,-309.5 1003.5,-309.5 1003.5,-268.5 832.5,-268.5"/>
<text text-anchor="start" x="840.5" y="-297.5" font-family="Helvetica,sans-Serif" font-size="10.00">ros_end_effector/Grasping</text>
<text text-anchor="start" x="840.5" y="-286.5" font-family="Helvetica,sans-Serif" font-size="10.00">Actions/ActionSingleJointMultiple</text>
<text text-anchor="middle" x="918" y="-275.5" font-family="Helvetica,sans-Serif" font-size="10.00">Tips.h</text>
</a>
</g>
</g>
<!-- Node2&#45;&gt;Node25 -->
<g id="edge86" class="edge"><title>Node2&#45;&gt;Node25</title>
<path fill="none" stroke="midnightblue" d="M1140.32,-469.474C1106.54,-454.226 1036.4,-419.835 987,-377 967.224,-359.851 949.015,-336.419 936.274,-318.193"/>
<polygon fill="midnightblue" stroke="midnightblue" points="939.01,-315.993 930.476,-309.714 933.232,-319.944 939.01,-315.993"/>
</g>
<!-- Node26 -->
<g id="node26" class="node"><title>Node26</title>
<g id="a_node26"><a xlink:href="ActionMultiplePinchTight_8h.html" target="_top" xlink:title="ros_end_effector/Grasping\lActions/ActionMultiplePinchTight.h">
<polygon fill="none" stroke="black" points="1162.5,-346.5 1162.5,-376.5 1341.5,-376.5 1341.5,-346.5 1162.5,-346.5"/>
<text text-anchor="start" x="1170.5" y="-364.5" font-family="Helvetica,sans-Serif" font-size="10.00">ros_end_effector/Grasping</text>
<text text-anchor="middle" x="1252" y="-353.5" font-family="Helvetica,sans-Serif" font-size="10.00">Actions/ActionMultiplePinchTight.h</text>
</a>
</g>
</g>
<!-- Node2&#45;&gt;Node26 -->
<g id="edge87" class="edge"><title>Node2&#45;&gt;Node26</title>
<path fill="none" stroke="midnightblue" d="M1166.91,-469.319C1181.11,-451.502 1213.91,-410.324 1234.38,-384.615"/>
<polygon fill="midnightblue" stroke="midnightblue" points="1237.32,-386.548 1240.81,-376.545 1231.84,-382.187 1237.32,-386.548"/>
</g>
<!-- Node30 -->
<g id="node30" class="node"><title>Node30</title>
<g id="a_node30"><a xlink:href="ParserMoveIt_8h.html" target="_top" xlink:title="ros_end_effector/ParserMoveIt.h">
<polygon fill="none" stroke="black" points="1478.5,-140 1478.5,-159 1649.5,-159 1649.5,-140 1478.5,-140"/>
<text text-anchor="middle" x="1564" y="-147" font-family="Helvetica,sans-Serif" font-size="10.00">ros_end_effector/ParserMoveIt.h</text>
</a>
</g>
</g>
<!-- Node2&#45;&gt;Node30 -->
<g id="edge75" class="edge"><title>Node2&#45;&gt;Node30</title>
<path fill="none" stroke="midnightblue" d="M1242.15,-474.044C1373.94,-465.425 1618,-439.122 1618,-362.5 1618,-362.5 1618,-362.5 1618,-288 1618,-241.835 1591.3,-192.61 1575.45,-167.453"/>
<polygon fill="midnightblue" stroke="midnightblue" points="1578.37,-165.522 1569.99,-159.046 1572.5,-169.337 1578.37,-165.522"/>
</g>
<!-- Node33 -->
<g id="node33" class="node"><title>Node33</title>
<polygon fill="none" stroke="#bfbfbf" points="1646,-413.5 1646,-432.5 1718,-432.5 1718,-413.5 1646,-413.5"/>
<text text-anchor="middle" x="1682" y="-420.5" font-family="Helvetica,sans-Serif" font-size="10.00">muParser.h</text>
</g>
<!-- Node2&#45;&gt;Node33 -->
<g id="edge88" class="edge"><title>Node2&#45;&gt;Node33</title>
<path fill="none" stroke="midnightblue" d="M1242.1,-472.251C1336.45,-465.163 1495.81,-451.716 1632,-433 1633.25,-432.828 1634.52,-432.647 1635.8,-432.458"/>
<polygon fill="midnightblue" stroke="midnightblue" points="1636.4,-435.907 1645.74,-430.893 1635.31,-428.992 1636.4,-435.907"/>
</g>
<!-- Node5 -->
<g id="node5" class="node"><title>Node5</title>
<polygon fill="none" stroke="#bfbfbf" points="17.5,-0.5 17.5,-19.5 74.5,-19.5 74.5,-0.5 17.5,-0.5"/>
<text text-anchor="middle" x="46" y="-7.5" font-family="Helvetica,sans-Serif" font-size="10.00">memory</text>
</g>
<!-- Node4&#45;&gt;Node5 -->
<g id="edge4" class="edge"><title>Node4&#45;&gt;Node5</title>
<path fill="none" stroke="midnightblue" d="M683.292,-420.202C540.385,-416.379 253.3,-405.346 157,-377 80.4715,-354.474 0,-369.775 0,-290 0,-290 0,-290 0,-148.5 0,-103.389 22.5428,-54.0541 36.0665,-28.5161"/>
<polygon fill="midnightblue" stroke="midnightblue" points="39.1768,-30.1232 40.9014,-19.6696 33.0343,-26.766 39.1768,-30.1232"/>
</g>
<!-- Node6 -->
<g id="node6" class="node"><title>Node6</title>
<polygon fill="none" stroke="#bfbfbf" points="798,-67.5 798,-86.5 894,-86.5 894,-67.5 798,-67.5"/>
<text text-anchor="middle" x="846" y="-74.5" font-family="Helvetica,sans-Serif" font-size="10.00">yaml&#45;cpp/yaml.h</text>
</g>
<!-- Node4&#45;&gt;Node6 -->
<g id="edge5" class="edge"><title>Node4&#45;&gt;Node6</title>
<path fill="none" stroke="midnightblue" d="M767.468,-413.074C769.848,-398.837 774.81,-370.135 780,-346 800.295,-251.621 829.522,-139.812 841.053,-96.4566"/>
<polygon fill="midnightblue" stroke="midnightblue" points="844.448,-97.3117 843.645,-86.7473 837.684,-95.5064 844.448,-97.3117"/>
</g>
<!-- Node7 -->
<g id="node7" class="node"><title>Node7</title>
<g id="a_node7"><a xlink:href="Utils_8h.html" target="_top" xlink:title="ros_end_effector/Utils.h">
<polygon fill="none" stroke="black" points="163,-67.5 163,-86.5 293,-86.5 293,-67.5 163,-67.5"/>
<text text-anchor="middle" x="228" y="-74.5" font-family="Helvetica,sans-Serif" font-size="10.00">ros_end_effector/Utils.h</text>
</a>
</g>
</g>
<!-- Node4&#45;&gt;Node7 -->
<g id="edge6" class="edge"><title>Node4&#45;&gt;Node7</title>
<path fill="none" stroke="midnightblue" d="M683.198,-415.576C492.39,-399.662 38,-354.947 38,-290 38,-290 38,-290 38,-215.5 38,-144.631 125.826,-106.569 182.055,-89.4629"/>
<polygon fill="midnightblue" stroke="midnightblue" points="183.201,-92.7742 191.815,-86.6058 181.235,-86.0561 183.201,-92.7742"/>
</g>
<!-- Node4&#45;&gt;Node15 -->
<g id="edge15" class="edge"><title>Node4&#45;&gt;Node15</title>
<path fill="none" stroke="midnightblue" d="M714.763,-413.432C684.227,-406.743 645.585,-395.409 615,-377 521.025,-320.437 526.577,-270.838 442,-201 428.472,-189.83 412.426,-178.874 398.573,-170.037"/>
<polygon fill="midnightblue" stroke="midnightblue" points="400.165,-166.904 389.834,-164.554 396.445,-172.833 400.165,-166.904"/>
</g>
<!-- Node19 -->
<g id="node19" class="node"><title>Node19</title>
<g id="a_node19"><a xlink:href="ActionPrimitive_8h.html" target="_top" xlink:title="ros_end_effector/Grasping\lActions/ActionPrimitive.h">
<polygon fill="none" stroke="black" points="850.5,-201.5 850.5,-231.5 993.5,-231.5 993.5,-201.5 850.5,-201.5"/>
<text text-anchor="start" x="858.5" y="-219.5" font-family="Helvetica,sans-Serif" font-size="10.00">ros_end_effector/Grasping</text>
<text text-anchor="middle" x="922" y="-208.5" font-family="Helvetica,sans-Serif" font-size="10.00">Actions/ActionPrimitive.h</text>
</a>
</g>
</g>
<!-- Node4&#45;&gt;Node19 -->
<g id="edge23" class="edge"><title>Node4&#45;&gt;Node19</title>
<path fill="none" stroke="midnightblue" d="M768.85,-413.171C778.913,-382.174 812.723,-279.558 823,-268 835.271,-254.199 852.206,-243.659 868.601,-235.87"/>
<polygon fill="midnightblue" stroke="midnightblue" points="870.453,-238.876 878.153,-231.598 867.595,-232.486 870.453,-238.876"/>
</g>
<!-- Node4&#45;&gt;Node21 -->
<g id="edge31" class="edge"><title>Node4&#45;&gt;Node21</title>
<path fill="none" stroke="midnightblue" d="M848.955,-418.23C960.367,-412.58 1164.67,-400.163 1348.92,-377.049"/>
<polygon fill="midnightblue" stroke="midnightblue" points="1349.59,-380.493 1359.07,-375.763 1348.71,-373.548 1349.59,-380.493"/>
</g>
<!-- Node4&#45;&gt;Node23 -->
<g id="edge39" class="edge"><title>Node4&#45;&gt;Node23</title>
<path fill="none" stroke="midnightblue" d="M809.556,-413.475C856.019,-404.381 930.691,-389.766 988.192,-378.512"/>
<polygon fill="midnightblue" stroke="midnightblue" points="989.212,-381.879 998.353,-376.523 987.867,-375.009 989.212,-381.879"/>
</g>
<!-- Node4&#45;&gt;Node24 -->
<g id="edge45" class="edge"><title>Node4&#45;&gt;Node24</title>
<path fill="none" stroke="midnightblue" d="M759.439,-413.339C744.094,-393.084 705.466,-342.095 682.972,-312.403"/>
<polygon fill="midnightblue" stroke="midnightblue" points="685.649,-310.141 676.821,-304.283 680.069,-314.368 685.649,-310.141"/>
</g>
<!-- Node4&#45;&gt;Node25 -->
<g id="edge49" class="edge"><title>Node4&#45;&gt;Node25</title>
<path fill="none" stroke="midnightblue" d="M775.975,-413.381C786.449,-404.329 803.392,-389.675 818,-377 841.373,-356.72 867.783,-333.74 887.591,-316.492"/>
<polygon fill="midnightblue" stroke="midnightblue" points="890.134,-318.919 895.377,-309.712 885.537,-313.64 890.134,-318.919"/>
</g>
<!-- Node4&#45;&gt;Node26 -->
<g id="edge53" class="edge"><title>Node4&#45;&gt;Node26</title>
<path fill="none" stroke="midnightblue" d="M845.392,-413.465C921.387,-405.136 1039.53,-391.773 1152.25,-377.074"/>
<polygon fill="midnightblue" stroke="midnightblue" points="1152.98,-380.508 1162.44,-375.739 1152.07,-373.567 1152.98,-380.508"/>
</g>
<!-- Node27 -->
<g id="node27" class="node"><title>Node27</title>
<g id="a_node27"><a xlink:href="ActionComposed_8h.html" target="_top" xlink:title="ros_end_effector/Grasping\lActions/ActionComposed.h">
<polygon fill="none" stroke="black" points="155,-274 155,-304 301,-304 301,-274 155,-274"/>
<text text-anchor="start" x="163" y="-292" font-family="Helvetica,sans-Serif" font-size="10.00">ros_end_effector/Grasping</text>
<text text-anchor="middle" x="228" y="-281" font-family="Helvetica,sans-Serif" font-size="10.00">Actions/ActionComposed.h</text>
</a>
</g>
</g>
<!-- Node4&#45;&gt;Node27 -->
<g id="edge58" class="edge"><title>Node4&#45;&gt;Node27</title>
<path fill="none" stroke="midnightblue" d="M683.328,-415.345C619.408,-408.957 529.109,-397.216 452,-377 385.078,-359.455 310.863,-328.134 266.885,-308.246"/>
<polygon fill="midnightblue" stroke="midnightblue" points="268.258,-305.026 257.707,-304.063 265.355,-311.396 268.258,-305.026"/>
</g>
<!-- Node29 -->
<g id="node29" class="node"><title>Node29</title>
<g id="a_node29"><a xlink:href="ActionTimed_8h.html" target="_top" xlink:title="ros_end_effector/Grasping\lActions/ActionTimed.h">
<polygon fill="none" stroke="black" points="494.5,-201.5 494.5,-231.5 637.5,-231.5 637.5,-201.5 494.5,-201.5"/>
<text text-anchor="start" x="502.5" y="-219.5" font-family="Helvetica,sans-Serif" font-size="10.00">ros_end_effector/Grasping</text>
<text text-anchor="middle" x="566" y="-208.5" font-family="Helvetica,sans-Serif" font-size="10.00">Actions/ActionTimed.h</text>
</a>
</g>
</g>
<!-- Node4&#45;&gt;Node29 -->
<g id="edge68" class="edge"><title>Node4&#45;&gt;Node29</title>
<path fill="none" stroke="midnightblue" d="M739.686,-413.397C699.573,-398.852 623.719,-365.442 585,-310 570.981,-289.927 566.853,-261.794 565.846,-241.836"/>
<polygon fill="midnightblue" stroke="midnightblue" points="569.341,-241.592 565.565,-231.693 562.343,-241.786 569.341,-241.592"/>
</g>
<!-- Node7&#45;&gt;Node5 -->
<g id="edge8" class="edge"><title>Node7&#45;&gt;Node5</title>
<path fill="none" stroke="midnightblue" d="M203.832,-67.3685C171.925,-55.9732 115.588,-35.8528 79.5632,-22.9869"/>
<polygon fill="midnightblue" stroke="midnightblue" points="80.5729,-19.631 69.9783,-19.5637 78.2185,-26.2232 80.5729,-19.631"/>
</g>
<!-- Node8 -->
<g id="node8" class="node"><title>Node8</title>
<polygon fill="none" stroke="#bfbfbf" points="301.5,-0.5 301.5,-19.5 348.5,-19.5 348.5,-0.5 301.5,-0.5"/>
<text text-anchor="middle" x="325" y="-7.5" font-family="Helvetica,sans-Serif" font-size="10.00">cmath</text>
</g>
<!-- Node7&#45;&gt;Node8 -->
<g id="edge7" class="edge"><title>Node7&#45;&gt;Node8</title>
<path fill="none" stroke="midnightblue" d="M241.082,-67.2338C257.153,-56.4644 284.633,-38.05 303.75,-25.2395"/>
<polygon fill="midnightblue" stroke="midnightblue" points="305.766,-28.1017 312.125,-19.6273 301.87,-22.2865 305.766,-28.1017"/>
</g>
<!-- Node9 -->
<g id="node9" class="node"><title>Node9</title>
<polygon fill="none" stroke="#bfbfbf" points="1151.5,-0.5 1151.5,-19.5 1210.5,-19.5 1210.5,-0.5 1151.5,-0.5"/>
<text text-anchor="middle" x="1181" y="-7.5" font-family="Helvetica,sans-Serif" font-size="10.00">iostream</text>
</g>
<!-- Node7&#45;&gt;Node9 -->
<g id="edge9" class="edge"><title>Node7&#45;&gt;Node9</title>
<path fill="none" stroke="midnightblue" d="M280.434,-67.4743C306.92,-63.4449 339.597,-58.8947 369,-56 664.972,-26.8617 1023.63,-15.2081 1141.44,-11.9932"/>
<polygon fill="midnightblue" stroke="midnightblue" points="1141.53,-15.492 1151.44,-11.7249 1141.34,-8.49448 1141.53,-15.492"/>
</g>
<!-- Node10 -->
<g id="node10" class="node"><title>Node10</title>
<polygon fill="none" stroke="#bfbfbf" points="367,-0.5 367,-19.5 415,-19.5 415,-0.5 367,-0.5"/>
<text text-anchor="middle" x="391" y="-7.5" font-family="Helvetica,sans-Serif" font-size="10.00">dlfcn.h</text>
</g>
<!-- Node7&#45;&gt;Node10 -->
<g id="edge10" class="edge"><title>Node7&#45;&gt;Node10</title>
<path fill="none" stroke="midnightblue" d="M249.645,-67.3685C277.977,-56.0706 327.816,-36.1961 360.109,-23.3183"/>
<polygon fill="midnightblue" stroke="midnightblue" points="361.533,-26.5189 369.525,-19.5637 358.94,-20.0168 361.533,-26.5189"/>
</g>
<!-- Node11 -->
<g id="node11" class="node"><title>Node11</title>
<polygon fill="none" stroke="#bfbfbf" points="433,-0.5 433,-19.5 549,-19.5 549,-0.5 433,-0.5"/>
<text text-anchor="middle" x="491" y="-7.5" font-family="Helvetica,sans-Serif" font-size="10.00">boost/filesystem.hpp</text>
</g>
<!-- Node7&#45;&gt;Node11 -->
<g id="edge11" class="edge"><title>Node7&#45;&gt;Node11</title>
<path fill="none" stroke="midnightblue" d="M262.653,-67.4355C309.86,-55.7685 394.431,-34.8669 446.344,-22.0367"/>
<polygon fill="midnightblue" stroke="midnightblue" points="447.402,-25.3806 456.27,-19.5834 445.722,-18.585 447.402,-25.3806"/>
</g>
<!-- Node12 -->
<g id="node12" class="node"><title>Node12</title>
<polygon fill="none" stroke="#bfbfbf" points="93,-0.5 93,-19.5 147,-19.5 147,-0.5 93,-0.5"/>
<text text-anchor="middle" x="120" y="-7.5" font-family="Helvetica,sans-Serif" font-size="10.00">fstream</text>
</g>
<!-- Node7&#45;&gt;Node12 -->
<g id="edge12" class="edge"><title>Node7&#45;&gt;Node12</title>
<path fill="none" stroke="midnightblue" d="M213.435,-67.2338C195.379,-56.3669 164.39,-37.7161 143.084,-24.8931"/>
<polygon fill="midnightblue" stroke="midnightblue" points="144.707,-21.7852 134.335,-19.6273 141.098,-27.7827 144.707,-21.7852"/>
</g>
<!-- Node13 -->
<g id="node13" class="node"><title>Node13</title>
<polygon fill="none" stroke="#bfbfbf" points="165,-0.5 165,-19.5 215,-19.5 215,-0.5 165,-0.5"/>
<text text-anchor="middle" x="190" y="-7.5" font-family="Helvetica,sans-Serif" font-size="10.00">chrono</text>
</g>
<!-- Node7&#45;&gt;Node13 -->
<g id="edge13" class="edge"><title>Node7&#45;&gt;Node13</title>
<path fill="none" stroke="midnightblue" d="M222.875,-67.2338C217.063,-57.2928 207.444,-40.8377 200.108,-28.2892"/>
<polygon fill="midnightblue" stroke="midnightblue" points="203.112,-26.4938 195.044,-19.6273 197.069,-30.0267 203.112,-26.4938"/>
</g>
<!-- Node14 -->
<g id="node14" class="node"><title>Node14</title>
<polygon fill="none" stroke="#bfbfbf" points="233,-0.5 233,-19.5 283,-19.5 283,-0.5 233,-0.5"/>
<text text-anchor="middle" x="258" y="-7.5" font-family="Helvetica,sans-Serif" font-size="10.00">atomic</text>
</g>
<!-- Node7&#45;&gt;Node14 -->
<g id="edge14" class="edge"><title>Node7&#45;&gt;Node14</title>
<path fill="none" stroke="midnightblue" d="M232.046,-67.2338C236.544,-57.4877 243.932,-41.4805 249.678,-29.0318"/>
<polygon fill="midnightblue" stroke="midnightblue" points="253.005,-30.1736 254.018,-19.6273 246.65,-27.2402 253.005,-30.1736"/>
</g>
<!-- Node15&#45;&gt;Node5 -->
<g id="edge20" class="edge"><title>Node15&#45;&gt;Node5</title>
<path fill="none" stroke="midnightblue" d="M294.087,-139.498C251.725,-132.245 197.991,-119.576 154,-98 116.761,-79.7361 80.7358,-46.6576 61.1528,-26.9725"/>
<polygon fill="midnightblue" stroke="midnightblue" points="63.5219,-24.3888 54.0347,-19.6725 58.5101,-29.2757 63.5219,-24.3888"/>
</g>
<!-- Node15&#45;&gt;Node6 -->
<g id="edge19" class="edge"><title>Node15&#45;&gt;Node6</title>
<path fill="none" stroke="midnightblue" d="M437.622,-141.097C515.882,-132.568 644.808,-117.224 755,-98 770.019,-95.3799 786.313,-91.9781 800.909,-88.7254"/>
<polygon fill="midnightblue" stroke="midnightblue" points="801.724,-92.1295 810.705,-86.5088 800.179,-85.3021 801.724,-92.1295"/>
</g>
<!-- Node15&#45;&gt;Node7 -->
<g id="edge22" class="edge"><title>Node15&#45;&gt;Node7</title>
<path fill="none" stroke="midnightblue" d="M338.405,-134.403C313.685,-121.774 277.714,-103.397 253.618,-91.0873"/>
<polygon fill="midnightblue" stroke="midnightblue" points="255.202,-87.9662 244.704,-86.5336 252.017,-94.1998 255.202,-87.9662"/>
</g>
<!-- Node15&#45;&gt;Node9 -->
<g id="edge21" class="edge"><title>Node15&#45;&gt;Node9</title>
<path fill="none" stroke="midnightblue" d="M369.698,-134.221C376.034,-112.991 391.161,-73.7104 420,-56 481.615,-18.162 992.575,-12.1325 1140.83,-11.1781"/>
<polygon fill="midnightblue" stroke="midnightblue" points="1141.28,-14.6755 1151.26,-11.1155 1141.24,-7.67563 1141.28,-14.6755"/>
</g>
<!-- Node16 -->
<g id="node16" class="node"><title>Node16</title>
<polygon fill="none" stroke="#bfbfbf" points="429.5,-67.5 429.5,-86.5 476.5,-86.5 476.5,-67.5 429.5,-67.5"/>
<text text-anchor="middle" x="453" y="-74.5" font-family="Helvetica,sans-Serif" font-size="10.00">vector</text>
</g>
<!-- Node15&#45;&gt;Node16 -->
<g id="edge16" class="edge"><title>Node15&#45;&gt;Node16</title>
<path fill="none" stroke="midnightblue" d="M383.606,-134.233C398.216,-122.394 418.953,-105.59 433.949,-93.4378"/>
<polygon fill="midnightblue" stroke="midnightblue" points="436.46,-95.9083 442.025,-86.8932 432.053,-90.4698 436.46,-95.9083"/>
</g>
<!-- Node17 -->
<g id="node17" class="node"><title>Node17</title>
<polygon fill="none" stroke="#bfbfbf" points="495,-67.5 495,-86.5 539,-86.5 539,-67.5 495,-67.5"/>
<text text-anchor="middle" x="517" y="-74.5" font-family="Helvetica,sans-Serif" font-size="10.00">string</text>
</g>
<!-- Node15&#45;&gt;Node17 -->
<g id="edge17" class="edge"><title>Node15&#45;&gt;Node17</title>
<path fill="none" stroke="midnightblue" d="M403.144,-134.485C426.97,-125.072 458.324,-111.887 485,-98 488.458,-96.2001 492.037,-94.1564 495.494,-92.0796"/>
<polygon fill="midnightblue" stroke="midnightblue" points="497.564,-94.9134 504.194,-86.6492 493.857,-88.9753 497.564,-94.9134"/>
</g>
<!-- Node18 -->
<g id="node18" class="node"><title>Node18</title>
<polygon fill="none" stroke="#bfbfbf" points="708,-67.5 708,-86.5 746,-86.5 746,-67.5 708,-67.5"/>
<text text-anchor="middle" x="727" y="-74.5" font-family="Helvetica,sans-Serif" font-size="10.00">map</text>
</g>
<!-- Node15&#45;&gt;Node18 -->
<g id="edge18" class="edge"><title>Node15&#45;&gt;Node18</title>
<path fill="none" stroke="midnightblue" d="M437.754,-134.487C517.341,-118.945 641.897,-94.6198 697.95,-83.6732"/>
<polygon fill="midnightblue" stroke="midnightblue" points="698.76,-87.0813 707.903,-81.7294 697.418,-80.211 698.76,-87.0813"/>
</g>
<!-- Node19&#45;&gt;Node6 -->
<g id="edge30" class="edge"><title>Node19&#45;&gt;Node6</title>
<path fill="none" stroke="midnightblue" d="M914.153,-201.303C900.169,-176.003 870.981,-123.195 855.739,-95.6205"/>
<polygon fill="midnightblue" stroke="midnightblue" points="858.71,-93.7596 850.809,-86.7007 852.583,-97.1459 858.71,-93.7596"/>
</g>
<!-- Node19&#45;&gt;Node9 -->
<g id="edge28" class="edge"><title>Node19&#45;&gt;Node9</title>
<path fill="none" stroke="midnightblue" d="M921.826,-201.295C922.328,-183.714 925.617,-153.694 941,-134 992.174,-68.4856 1087.81,-34.6806 1141.62,-20.1149"/>
<polygon fill="midnightblue" stroke="midnightblue" points="1142.69,-23.4526 1151.48,-17.5351 1140.92,-16.6806 1142.69,-23.4526"/>
</g>
<!-- Node19&#45;&gt;Node15 -->
<g id="edge29" class="edge"><title>Node19&#45;&gt;Node15</title>
<path fill="none" stroke="midnightblue" d="M850.451,-207.135C747.066,-195.049 556.411,-172.76 447.655,-160.046"/>
<polygon fill="midnightblue" stroke="midnightblue" points="448.053,-156.569 437.714,-158.884 447.24,-163.521 448.053,-156.569"/>
</g>
<!-- Node19&#45;&gt;Node16 -->
<g id="edge27" class="edge"><title>Node19&#45;&gt;Node16</title>
<path fill="none" stroke="midnightblue" d="M850.246,-204.143C761.576,-188.337 607.538,-155.025 486,-98 482.219,-96.226 478.322,-94.1298 474.591,-91.9737"/>
<polygon fill="midnightblue" stroke="midnightblue" points="476.178,-88.8426 465.814,-86.6398 472.542,-94.8244 476.178,-88.8426"/>
</g>
<!-- Node19&#45;&gt;Node17 -->
<g id="edge25" class="edge"><title>Node19&#45;&gt;Node17</title>
<path fill="none" stroke="midnightblue" d="M880.561,-201.431C799.499,-173.91 621.535,-113.49 548.863,-88.8176"/>
<polygon fill="midnightblue" stroke="midnightblue" points="549.923,-85.4813 539.328,-85.5806 547.672,-92.1097 549.923,-85.4813"/>
</g>
<!-- Node19&#45;&gt;Node18 -->
<g id="edge26" class="edge"><title>Node19&#45;&gt;Node18</title>
<path fill="none" stroke="midnightblue" d="M948.428,-201.404C975.459,-185.186 1010.88,-157.735 991,-134 961.723,-99.0444 833.243,-109.024 789,-98 778.053,-95.2722 766.224,-91.6337 755.862,-88.2083"/>
<polygon fill="midnightblue" stroke="midnightblue" points="756.67,-84.7869 746.076,-84.8955 754.426,-91.4173 756.67,-84.7869"/>
</g>
<!-- Node20 -->
<g id="node20" class="node"><title>Node20</title>
<polygon fill="none" stroke="#bfbfbf" points="950,-140 950,-159 982,-159 982,-140 950,-140"/>
<text text-anchor="middle" x="966" y="-147" font-family="Helvetica,sans-Serif" font-size="10.00">set</text>
</g>
<!-- Node19&#45;&gt;Node20 -->
<g id="edge24" class="edge"><title>Node19&#45;&gt;Node20</title>
<path fill="none" stroke="midnightblue" d="M931.547,-201.396C938.272,-191.462 947.311,-178.108 954.444,-167.572"/>
<polygon fill="midnightblue" stroke="midnightblue" points="957.407,-169.438 960.114,-159.195 951.61,-165.514 957.407,-169.438"/>
</g>
<!-- Node21&#45;&gt;Node3 -->
<g id="edge36" class="edge"><title>Node21&#45;&gt;Node3</title>
<path fill="none" stroke="midnightblue" d="M1434.84,-346.233C1437.34,-336.964 1440.66,-324.652 1443.56,-313.911"/>
<polygon fill="midnightblue" stroke="midnightblue" points="1446.94,-314.812 1446.16,-304.246 1440.18,-312.99 1446.94,-314.812"/>
</g>
<!-- Node21&#45;&gt;Node6 -->
<g id="edge37" class="edge"><title>Node21&#45;&gt;Node6</title>
<path fill="none" stroke="midnightblue" d="M1476.67,-346.457C1494.03,-338.646 1512.01,-326.972 1522,-310 1531.47,-293.914 1532.52,-283.42 1522,-268 1451.06,-164.018 1054.7,-104.159 904.081,-84.8999"/>
<polygon fill="midnightblue" stroke="midnightblue" points="904.455,-81.4194 894.095,-83.6365 903.577,-88.364 904.455,-81.4194"/>
</g>
<!-- Node21&#45;&gt;Node9 -->
<g id="edge38" class="edge"><title>Node21&#45;&gt;Node9</title>
<path fill="none" stroke="midnightblue" d="M1491.16,-346.449C1510.07,-338.895 1528.88,-327.4 1540,-310 1550.05,-294.269 1547.06,-285.28 1540,-268 1515.03,-206.905 1388.53,-90.0616 1332,-56 1297.33,-35.1085 1252.28,-23.3331 1220.44,-17.1155"/>
<polygon fill="midnightblue" stroke="midnightblue" points="1221.07,-13.6723 1210.6,-15.2876 1219.79,-20.5547 1221.07,-13.6723"/>
</g>
<!-- Node22 -->
<g id="node22" class="node"><title>Node22</title>
<g id="a_node22"><a xlink:href="ActionPinchGeneric_8h.html" target="_top" xlink:title="ros_end_effector/Grasping\lActions/ActionPinchGeneric.h">
<polygon fill="none" stroke="black" points="1136,-274 1136,-304 1292,-304 1292,-274 1136,-274"/>
<text text-anchor="start" x="1144" y="-292" font-family="Helvetica,sans-Serif" font-size="10.00">ros_end_effector/Grasping</text>
<text text-anchor="middle" x="1214" y="-281" font-family="Helvetica,sans-Serif" font-size="10.00">Actions/ActionPinchGeneric.h</text>
</a>
</g>
</g>
<!-- Node21&#45;&gt;Node22 -->
<g id="edge32" class="edge"><title>Node21&#45;&gt;Node22</title>
<path fill="none" stroke="midnightblue" d="M1387.87,-346.487C1353.15,-335.207 1304.19,-319.302 1267.07,-307.242"/>
<polygon fill="midnightblue" stroke="midnightblue" points="1268.01,-303.868 1257.42,-304.107 1265.85,-310.526 1268.01,-303.868"/>
</g>
<!-- Node22&#45;&gt;Node6 -->
<g id="edge34" class="edge"><title>Node22&#45;&gt;Node6</title>
<path fill="none" stroke="midnightblue" d="M1207.82,-273.852C1193.62,-243.095 1155.54,-170.015 1100,-134 1040.74,-95.5708 959.067,-83.1962 904.498,-79.3838"/>
<polygon fill="midnightblue" stroke="midnightblue" points="904.496,-75.8771 894.298,-78.7488 904.061,-82.8635 904.496,-75.8771"/>
</g>
<!-- Node22&#45;&gt;Node9 -->
<g id="edge35" class="edge"><title>Node22&#45;&gt;Node9</title>
<path fill="none" stroke="midnightblue" d="M1216.95,-273.931C1224.08,-237.028 1239.81,-134.854 1214,-56 1210.51,-45.3397 1203.43,-35.1174 1196.71,-27.1175"/>
<polygon fill="midnightblue" stroke="midnightblue" points="1199.3,-24.7633 1190.02,-19.66 1194.1,-29.4395 1199.3,-24.7633"/>
</g>
<!-- Node22&#45;&gt;Node19 -->
<g id="edge33" class="edge"><title>Node22&#45;&gt;Node19</title>
<path fill="none" stroke="midnightblue" d="M1155.96,-273.987C1108.25,-262.467 1040.55,-246.123 990.247,-233.977"/>
<polygon fill="midnightblue" stroke="midnightblue" points="990.971,-230.552 980.428,-231.607 989.328,-237.356 990.971,-230.552"/>
</g>
<!-- Node23&#45;&gt;Node3 -->
<g id="edge42" class="edge"><title>Node23&#45;&gt;Node3</title>
<path fill="none" stroke="midnightblue" d="M1144.17,-346.74C1211.25,-334.295 1309.47,-316.072 1376.38,-303.659"/>
<polygon fill="midnightblue" stroke="midnightblue" points="1377.23,-307.06 1386.43,-301.795 1375.96,-300.178 1377.23,-307.06"/>
</g>
<!-- Node23&#45;&gt;Node6 -->
<g id="edge43" class="edge"><title>Node23&#45;&gt;Node6</title>
<path fill="none" stroke="midnightblue" d="M1072.08,-346.436C1077.02,-307.369 1085.22,-196.314 1030,-134 998.561,-98.5198 945.404,-85.1694 904.286,-80.3156"/>
<polygon fill="midnightblue" stroke="midnightblue" points="904.421,-76.8108 894.112,-79.2564 903.696,-83.7732 904.421,-76.8108"/>
</g>
<!-- Node23&#45;&gt;Node9 -->
<g id="edge44" class="edge"><title>Node23&#45;&gt;Node9</title>
<path fill="none" stroke="midnightblue" d="M1075.84,-346.441C1079.96,-336.359 1085.52,-322.42 1090,-310 1123.59,-216.781 1131.51,-193.196 1159,-98 1165.77,-74.5602 1172.49,-47.2418 1176.69,-29.5614"/>
<polygon fill="midnightblue" stroke="midnightblue" points="1180.13,-30.231 1179,-19.6955 1173.31,-28.6301 1180.13,-30.231"/>
</g>
<!-- Node23&#45;&gt;Node19 -->
<g id="edge40" class="edge"><title>Node23&#45;&gt;Node19</title>
<path fill="none" stroke="midnightblue" d="M1063.93,-346.452C1054.93,-326.9 1036.43,-291.269 1012,-268 998.443,-255.088 980.959,-244.303 965.012,-236.06"/>
<polygon fill="midnightblue" stroke="midnightblue" points="966.355,-232.819 955.842,-231.504 963.24,-239.088 966.355,-232.819"/>
</g>
<!-- Node23&#45;&gt;Node22 -->
<g id="edge41" class="edge"><title>Node23&#45;&gt;Node22</title>
<path fill="none" stroke="midnightblue" d="M1098.79,-346.403C1120.97,-335.548 1151.81,-320.446 1176.01,-308.6"/>
<polygon fill="midnightblue" stroke="midnightblue" points="1177.81,-311.614 1185.26,-304.073 1174.74,-305.327 1177.81,-311.614"/>
</g>
<!-- Node24&#45;&gt;Node6 -->
<g id="edge47" class="edge"><title>Node24&#45;&gt;Node6</title>
<path fill="none" stroke="midnightblue" d="M680.885,-273.871C703.997,-251.635 749.45,-206.7 784,-165 803.07,-141.984 822.7,-113.468 834.628,-95.4987"/>
<polygon fill="midnightblue" stroke="midnightblue" points="837.842,-96.9812 840.41,-86.7023 831.992,-93.1364 837.842,-96.9812"/>
</g>
<!-- Node24&#45;&gt;Node9 -->
<g id="edge48" class="edge"><title>Node24&#45;&gt;Node9</title>
<path fill="none" stroke="midnightblue" d="M662.823,-273.929C654.567,-233.297 637.15,-114.938 699,-56 730.76,-25.7354 1031.35,-14.9041 1141.12,-11.9387"/>
<polygon fill="midnightblue" stroke="midnightblue" points="1141.53,-15.4293 1151.44,-11.6682 1141.35,-8.43171 1141.53,-15.4293"/>
</g>
<!-- Node24&#45;&gt;Node19 -->
<g id="edge46" class="edge"><title>Node24&#45;&gt;Node19</title>
<path fill="none" stroke="midnightblue" d="M716.883,-273.987C758.366,-262.563 817.075,-246.395 861.061,-234.282"/>
<polygon fill="midnightblue" stroke="midnightblue" points="862.063,-237.636 870.775,-231.607 860.205,-230.888 862.063,-237.636"/>
</g>
<!-- Node25&#45;&gt;Node6 -->
<g id="edge51" class="edge"><title>Node25&#45;&gt;Node6</title>
<path fill="none" stroke="midnightblue" d="M962.708,-268.272C977.679,-259.382 992.869,-247.37 1002,-232 1024.29,-194.484 1033.32,-169.541 1008,-134 984.564,-101.101 940.436,-87.3463 904.147,-81.6831"/>
<polygon fill="midnightblue" stroke="midnightblue" points="904.531,-78.2028 894.144,-80.2912 903.566,-85.136 904.531,-78.2028"/>
</g>
<!-- Node25&#45;&gt;Node9 -->
<g id="edge52" class="edge"><title>Node25&#45;&gt;Node9</title>
<path fill="none" stroke="midnightblue" d="M966.103,-268.474C985.388,-259.21 1007.02,-246.883 1024,-232 1094.98,-169.795 1151.1,-69.4279 1172.08,-28.8624"/>
<polygon fill="midnightblue" stroke="midnightblue" points="1175.33,-30.1926 1176.75,-19.6929 1169.09,-27.0173 1175.33,-30.1926"/>
</g>
<!-- Node25&#45;&gt;Node19 -->
<g id="edge50" class="edge"><title>Node25&#45;&gt;Node19</title>
<path fill="none" stroke="midnightblue" d="M919.114,-268.362C919.576,-260.226 920.116,-250.7 920.604,-242.105"/>
<polygon fill="midnightblue" stroke="midnightblue" points="924.111,-242.074 921.183,-231.892 917.123,-241.677 924.111,-242.074"/>
</g>
<!-- Node26&#45;&gt;Node3 -->
<g id="edge55" class="edge"><title>Node26&#45;&gt;Node3</title>
<path fill="none" stroke="midnightblue" d="M1291.59,-346.403C1323.02,-335.211 1367.13,-319.506 1400.82,-307.509"/>
<polygon fill="midnightblue" stroke="midnightblue" points="1402.23,-310.724 1410.48,-304.073 1399.88,-304.13 1402.23,-310.724"/>
</g>
<!-- Node26&#45;&gt;Node6 -->
<g id="edge56" class="edge"><title>Node26&#45;&gt;Node6</title>
<path fill="none" stroke="midnightblue" d="M1271.84,-346.329C1282.68,-337.313 1295.08,-324.604 1301,-310 1308.01,-292.701 1309.12,-284.807 1301,-268 1259.29,-181.694 1219.06,-174.123 1132,-134 1057.94,-99.866 963.768,-86.5153 904.166,-81.3082"/>
<polygon fill="midnightblue" stroke="midnightblue" points="904.434,-77.8185 894.179,-80.4838 903.858,-84.7948 904.434,-77.8185"/>
</g>
<!-- Node26&#45;&gt;Node9 -->
<g id="edge57" class="edge"><title>Node26&#45;&gt;Node9</title>
<path fill="none" stroke="midnightblue" d="M1276.16,-346.377C1289.88,-337.378 1306.55,-324.67 1318,-310 1345.56,-274.696 1358,-262.29 1358,-217.5 1358,-217.5 1358,-217.5 1358,-148.5 1358,-79.2267 1272.4,-39.8055 1220.26,-22.2179"/>
<polygon fill="midnightblue" stroke="midnightblue" points="1221.22,-18.8495 1210.63,-19.0873 1219.05,-25.5067 1221.22,-18.8495"/>
</g>
<!-- Node26&#45;&gt;Node22 -->
<g id="edge54" class="edge"><title>Node26&#45;&gt;Node22</title>
<path fill="none" stroke="midnightblue" d="M1244.31,-346.233C1239.21,-336.773 1232.4,-324.143 1226.53,-313.249"/>
<polygon fill="midnightblue" stroke="midnightblue" points="1229.5,-311.388 1221.68,-304.246 1223.34,-314.709 1229.5,-311.388"/>
</g>
<!-- Node27&#45;&gt;Node5 -->
<g id="edge67" class="edge"><title>Node27&#45;&gt;Node5</title>
<path fill="none" stroke="midnightblue" d="M209.77,-273.854C196.843,-263.24 179.62,-247.863 167,-232 112.868,-163.956 69.8487,-68.339 53.3207,-28.9916"/>
<polygon fill="midnightblue" stroke="midnightblue" points="56.5135,-27.5534 49.4546,-19.6526 50.0458,-30.2309 56.5135,-27.5534"/>
</g>
<!-- Node27&#45;&gt;Node6 -->
<g id="edge66" class="edge"><title>Node27&#45;&gt;Node6</title>
<path fill="none" stroke="midnightblue" d="M301.421,-282.756C404.239,-274.633 585.339,-257.267 646,-232 686.789,-215.01 787.418,-129.229 828.303,-93.5759"/>
<polygon fill="midnightblue" stroke="midnightblue" points="830.858,-95.9912 836.077,-86.7715 826.247,-90.7237 830.858,-95.9912"/>
</g>
<!-- Node27&#45;&gt;Node7 -->
<g id="edge65" class="edge"><title>Node27&#45;&gt;Node7</title>
<path fill="none" stroke="midnightblue" d="M209.044,-273.916C197.069,-263.767 182.644,-248.919 176,-232 156.734,-182.938 193.265,-123.487 214.427,-94.9256"/>
<polygon fill="midnightblue" stroke="midnightblue" points="217.358,-96.855 220.667,-86.7902 211.804,-92.5944 217.358,-96.855"/>
</g>
<!-- Node27&#45;&gt;Node16 -->
<g id="edge59" class="edge"><title>Node27&#45;&gt;Node16</title>
<path fill="none" stroke="midnightblue" d="M223.457,-273.911C220.09,-262.694 215.788,-246.522 214,-232 208.292,-185.635 215.19,-162.763 252,-134 301.47,-95.344 376.082,-83.3618 419.12,-79.6542"/>
<polygon fill="midnightblue" stroke="midnightblue" points="419.641,-83.1249 429.347,-78.8787 419.111,-76.145 419.641,-83.1249"/>
</g>
<!-- Node27&#45;&gt;Node17 -->
<g id="edge60" class="edge"><title>Node27&#45;&gt;Node17</title>
<path fill="none" stroke="midnightblue" d="M228.311,-273.849C229.857,-242.417 238.478,-166.966 285,-134 358.692,-81.7813 400.741,-130.521 485,-98 489.126,-96.4077 493.3,-94.2646 497.211,-91.9719"/>
<polygon fill="midnightblue" stroke="midnightblue" points="499.17,-94.8738 505.712,-86.5395 495.401,-88.9754 499.17,-94.8738"/>
</g>
<!-- Node28 -->
<g id="node28" class="node"><title>Node28</title>
<g id="a_node28"><a xlink:href="ActionGeneric_8h.html" target="_top" xlink:title="ros_end_effector/Grasping\lActions/ActionGeneric.h">
<polygon fill="none" stroke="black" points="256.5,-201.5 256.5,-231.5 399.5,-231.5 399.5,-201.5 256.5,-201.5"/>
<text text-anchor="start" x="264.5" y="-219.5" font-family="Helvetica,sans-Serif" font-size="10.00">ros_end_effector/Grasping</text>
<text text-anchor="middle" x="328" y="-208.5" font-family="Helvetica,sans-Serif" font-size="10.00">Actions/ActionGeneric.h</text>
</a>
</g>
</g>
<!-- Node27&#45;&gt;Node28 -->
<g id="edge61" class="edge"><title>Node27&#45;&gt;Node28</title>
<path fill="none" stroke="midnightblue" d="M248.236,-273.733C263.108,-263.249 283.502,-248.871 299.946,-237.278"/>
<polygon fill="midnightblue" stroke="midnightblue" points="301.979,-240.128 308.135,-231.505 297.945,-234.406 301.979,-240.128"/>
</g>
<!-- Node28&#45;&gt;Node6 -->
<g id="edge63" class="edge"><title>Node28&#45;&gt;Node6</title>
<path fill="none" stroke="midnightblue" d="M381.001,-201.431C484.248,-174.025 710.401,-113.994 804.077,-89.1283"/>
<polygon fill="midnightblue" stroke="midnightblue" points="805.009,-92.5021 813.776,-86.5535 803.213,-85.7364 805.009,-92.5021"/>
</g>
<!-- Node28&#45;&gt;Node7 -->
<g id="edge64" class="edge"><title>Node28&#45;&gt;Node7</title>
<path fill="none" stroke="midnightblue" d="M263.353,-201.39C244.199,-193.874 225.334,-182.418 214,-165 200.412,-144.119 209.776,-114.6 218.39,-95.8817"/>
<polygon fill="midnightblue" stroke="midnightblue" points="221.628,-97.2295 222.948,-86.7171 215.361,-94.1123 221.628,-97.2295"/>
</g>
<!-- Node28&#45;&gt;Node15 -->
<g id="edge62" class="edge"><title>Node28&#45;&gt;Node15</title>
<path fill="none" stroke="midnightblue" d="M336.245,-201.396C341.026,-193.219 347.161,-182.725 352.616,-173.393"/>
<polygon fill="midnightblue" stroke="midnightblue" points="355.745,-174.976 357.771,-164.577 349.702,-171.443 355.745,-174.976"/>
</g>
<!-- Node29&#45;&gt;Node6 -->
<g id="edge74" class="edge"><title>Node29&#45;&gt;Node6</title>
<path fill="none" stroke="midnightblue" d="M594.649,-201.431C649.103,-174.691 766.804,-116.891 819.524,-91.0016"/>
<polygon fill="midnightblue" stroke="midnightblue" points="821.149,-94.1031 828.582,-86.5535 818.063,-87.8199 821.149,-94.1031"/>
</g>
<!-- Node29&#45;&gt;Node7 -->
<g id="edge73" class="edge"><title>Node29&#45;&gt;Node7</title>
<path fill="none" stroke="midnightblue" d="M494.371,-209.102C422.76,-201.575 318.591,-187.215 285,-165 259.733,-148.29 243.104,-116.121 234.642,-95.9284"/>
<polygon fill="midnightblue" stroke="midnightblue" points="237.889,-94.6207 230.959,-86.6064 231.379,-97.1929 237.889,-94.6207"/>
</g>
<!-- Node29&#45;&gt;Node15 -->
<g id="edge72" class="edge"><title>Node29&#45;&gt;Node15</title>
<path fill="none" stroke="midnightblue" d="M522.603,-201.396C492.201,-191.515 451.392,-178.252 419.055,-167.743"/>
<polygon fill="midnightblue" stroke="midnightblue" points="419.904,-164.339 409.312,-164.577 417.741,-170.996 419.904,-164.339"/>
</g>
<!-- Node29&#45;&gt;Node16 -->
<g id="edge69" class="edge"><title>Node29&#45;&gt;Node16</title>
<path fill="none" stroke="midnightblue" d="M554.333,-201.303C533.267,-175.67 488.996,-121.801 466.597,-94.5452"/>
<polygon fill="midnightblue" stroke="midnightblue" points="469.204,-92.2042 460.15,-86.7007 463.796,-96.6487 469.204,-92.2042"/>
</g>
<!-- Node29&#45;&gt;Node17 -->
<g id="edge70" class="edge"><title>Node29&#45;&gt;Node17</title>
<path fill="none" stroke="midnightblue" d="M560.941,-201.303C552.004,-176.225 533.435,-124.12 523.54,-96.3519"/>
<polygon fill="midnightblue" stroke="midnightblue" points="526.754,-94.9455 520.101,-86.7007 520.161,-97.2953 526.754,-94.9455"/>
</g>
<!-- Node29&#45;&gt;Node18 -->
<g id="edge71" class="edge"><title>Node29&#45;&gt;Node18</title>
<path fill="none" stroke="midnightblue" d="M582.623,-201.303C613.027,-175.337 677.357,-120.397 708.855,-93.4969"/>
<polygon fill="midnightblue" stroke="midnightblue" points="711.481,-95.8565 716.812,-86.7007 706.935,-90.5335 711.481,-95.8565"/>
</g>
<!-- Node30&#45;&gt;Node9 -->
<g id="edge79" class="edge"><title>Node30&#45;&gt;Node9</title>
<path fill="none" stroke="midnightblue" d="M1553.78,-139.707C1542.26,-129.745 1523.07,-112.949 1507,-98 1487.44,-79.8035 1487.87,-67.9953 1464,-56 1422.12,-34.9553 1288.58,-20.5117 1221,-14.3525"/>
<polygon fill="midnightblue" stroke="midnightblue" points="1221.01,-10.84 1210.74,-13.4354 1220.39,-17.8122 1221.01,-10.84"/>
</g>
<!-- Node30&#45;&gt;Node16 -->
<g id="edge77" class="edge"><title>Node30&#45;&gt;Node16</title>
<path fill="none" stroke="midnightblue" d="M1478.23,-146.913C1239.68,-142.158 579.698,-126.557 486,-98 481.406,-96.5999 476.797,-94.4156 472.542,-91.9961"/>
<polygon fill="midnightblue" stroke="midnightblue" points="474.255,-88.9375 463.935,-86.5369 470.505,-94.8487 474.255,-88.9375"/>
</g>
<!-- Node30&#45;&gt;Node17 -->
<g id="edge76" class="edge"><title>Node30&#45;&gt;Node17</title>
<path fill="none" stroke="midnightblue" d="M1478.26,-144.949C1322.78,-138.187 983.998,-121.963 699,-98 646.386,-93.5762 585.427,-86.4731 549.102,-82.0301"/>
<polygon fill="midnightblue" stroke="midnightblue" points="549.45,-78.5466 539.097,-80.7972 548.594,-85.494 549.45,-78.5466"/>
</g>
<!-- Node30&#45;&gt;Node18 -->
<g id="edge78" class="edge"><title>Node30&#45;&gt;Node18</title>
<path fill="none" stroke="midnightblue" d="M1478.29,-145.584C1305.12,-139.254 918.961,-122.799 789,-98 778.001,-95.9012 766.237,-92.4347 755.945,-88.9722"/>
<polygon fill="midnightblue" stroke="midnightblue" points="756.82,-85.5702 746.226,-85.5618 754.503,-92.1754 756.82,-85.5702"/>
</g>
<!-- Node31 -->
<g id="node31" class="node"><title>Node31</title>
<polygon fill="none" stroke="#bfbfbf" points="1516,-56.5 1516,-97.5 1632,-97.5 1632,-56.5 1516,-56.5"/>
<text text-anchor="start" x="1524" y="-85.5" font-family="Helvetica,sans-Serif" font-size="10.00">moveit/robot_model</text>
<text text-anchor="start" x="1524" y="-74.5" font-family="Helvetica,sans-Serif" font-size="10.00">_loader/robot_model</text>
<text text-anchor="middle" x="1574" y="-63.5" font-family="Helvetica,sans-Serif" font-size="10.00">_loader.h</text>
</g>
<!-- Node30&#45;&gt;Node31 -->
<g id="edge80" class="edge"><title>Node30&#45;&gt;Node31</title>
<path fill="none" stroke="midnightblue" d="M1565.23,-139.855C1566.37,-131.779 1568.15,-119.247 1569.81,-107.57"/>
<polygon fill="midnightblue" stroke="midnightblue" points="1573.27,-108.054 1571.21,-97.6616 1566.34,-107.071 1573.27,-108.054"/>
</g>
<!-- Node32 -->
<g id="node32" class="node"><title>Node32</title>
<polygon fill="none" stroke="#bfbfbf" points="1650,-67.5 1650,-86.5 1710,-86.5 1710,-67.5 1650,-67.5"/>
<text text-anchor="middle" x="1680" y="-74.5" font-family="Helvetica,sans-Serif" font-size="10.00">tinyxml.h</text>
</g>
<!-- Node30&#45;&gt;Node32 -->
<g id="edge81" class="edge"><title>Node30&#45;&gt;Node32</title>
<path fill="none" stroke="midnightblue" d="M1578.22,-139.855C1597.88,-127.91 1633.57,-106.22 1657.03,-91.9608"/>
<polygon fill="midnightblue" stroke="midnightblue" points="1658.93,-94.9 1665.66,-86.7154 1655.3,-88.9181 1658.93,-94.9"/>
</g>
</g>
</svg>
