<?xml version="1.0" encoding="UTF-8" standalone="no"?>
<!DOCTYPE svg PUBLIC "-//W3C//DTD SVG 1.1//EN"
 "http://www.w3.org/Graphics/SVG/1.1/DTD/svg11.dtd">
<!-- Generated by graphviz version 2.38.0 (20140413.2041)
 -->
<!-- Title: /home/travis/build/ADVRHumanoids/ROSEndEffector/src/FindActions.cpp Pages: 1 -->
<svg width="1748pt" height="564pt"
 viewBox="0.00 0.00 1748.00 564.00" xmlns="http://www.w3.org/2000/svg" xmlns:xlink="http://www.w3.org/1999/xlink">
<g id="graph0" class="graph" transform="scale(1 1) rotate(0) translate(4 560)">
<title>/home/travis/build/ADVRHumanoids/ROSEndEffector/src/FindActions.cpp</title>
<!-- Node1 -->
<g id="node1" class="node"><title>Node1</title>
<polygon fill="#bfbfbf" stroke="black" points="1087.5,-514.5 1087.5,-555.5 1266.5,-555.5 1266.5,-514.5 1087.5,-514.5"/>
<text text-anchor="start" x="1095.5" y="-543.5" font-family="Helvetica,sans-Serif" font-size="10.00">/home/travis/build</text>
<text text-anchor="start" x="1095.5" y="-532.5" font-family="Helvetica,sans-Serif" font-size="10.00">/ADVRHumanoids/ROSEndEffector</text>
<text text-anchor="middle" x="1177" y="-521.5" font-family="Helvetica,sans-Serif" font-size="10.00">/src/FindActions.cpp</text>
</g>
<!-- Node2 -->
<g id="node2" class="node"><title>Node2</title>
<g id="a_node2"><a xlink:href="FindActions_8h.html" target="_top" xlink:title="end_effector/FindActions.h">
<polygon fill="none" stroke="black" points="1105.5,-458.5 1105.5,-477.5 1248.5,-477.5 1248.5,-458.5 1105.5,-458.5"/>
<text text-anchor="middle" x="1177" y="-465.5" font-family="Helvetica,sans-Serif" font-size="10.00">end_effector/FindActions.h</text>
</a>
</g>
</g>
<!-- Node1&#45;&gt;Node2 -->
<g id="edge1" class="edge"><title>Node1&#45;&gt;Node2</title>
<path fill="none" stroke="midnightblue" d="M1177,-514.498C1177,-506.065 1177,-496.235 1177,-487.874"/>
<polygon fill="midnightblue" stroke="midnightblue" points="1180.5,-487.652 1177,-477.652 1173.5,-487.653 1180.5,-487.652"/>
</g>
<!-- Node3 -->
<g id="node3" class="node"><title>Node3</title>
<polygon fill="none" stroke="#bfbfbf" points="1408.5,-268.5 1408.5,-298.5 1535.5,-298.5 1535.5,-268.5 1408.5,-268.5"/>
<text text-anchor="start" x="1416.5" y="-286.5" font-family="Helvetica,sans-Serif" font-size="10.00">moveit/planning_scene</text>
<text text-anchor="middle" x="1472" y="-275.5" font-family="Helvetica,sans-Serif" font-size="10.00">/planning_scene.h</text>
</g>
<!-- Node2&#45;&gt;Node3 -->
<g id="edge2" class="edge"><title>Node2&#45;&gt;Node3</title>
<path fill="none" stroke="midnightblue" d="M1237.8,-458.464C1329.14,-444.257 1494.84,-412.634 1530,-366 1545.58,-345.343 1523.38,-321.13 1502.11,-304.494"/>
<polygon fill="midnightblue" stroke="midnightblue" points="1504.19,-301.679 1494.08,-298.512 1500,-307.293 1504.19,-301.679"/>
</g>
<!-- Node4 -->
<g id="node4" class="node"><title>Node4</title>
<g id="a_node4"><a xlink:href="YamlWorker_8h.html" target="_top" xlink:title="end_effector/YamlWorker.h">
<polygon fill="none" stroke="black" points="721.5,-402.5 721.5,-421.5 866.5,-421.5 866.5,-402.5 721.5,-402.5"/>
<text text-anchor="middle" x="794" y="-409.5" font-family="Helvetica,sans-Serif" font-size="10.00">end_effector/YamlWorker.h</text>
</a>
</g>
</g>
<!-- Node2&#45;&gt;Node4 -->
<g id="edge3" class="edge"><title>Node2&#45;&gt;Node4</title>
<path fill="none" stroke="midnightblue" d="M1116.31,-458.444C1047.82,-448.786 936.556,-433.099 864.328,-422.916"/>
<polygon fill="midnightblue" stroke="midnightblue" points="864.794,-419.447 854.404,-421.516 863.817,-426.378 864.794,-419.447"/>
</g>
<!-- Node15 -->
<g id="node15" class="node"><title>Node15</title>
<g id="a_node15"><a xlink:href="Action_8h.html" target="_top" xlink:title="end_effector/GraspingActions\l/Action.h">
<polygon fill="none" stroke="black" points="294,-134.5 294,-164.5 452,-164.5 452,-134.5 294,-134.5"/>
<text text-anchor="start" x="302" y="-152.5" font-family="Helvetica,sans-Serif" font-size="10.00">end_effector/GraspingActions</text>
<text text-anchor="middle" x="373" y="-141.5" font-family="Helvetica,sans-Serif" font-size="10.00">/Action.h</text>
</a>
</g>
</g>
<!-- Node2&#45;&gt;Node15 -->
<g id="edge82" class="edge"><title>Node2&#45;&gt;Node15</title>
<path fill="none" stroke="midnightblue" d="M1105.35,-464.878C989.723,-460.693 767.524,-449.296 694,-422 605.557,-389.165 593,-359.962 521,-299 517.639,-296.154 434.723,-212.689 394.498,-172.164"/>
<polygon fill="midnightblue" stroke="midnightblue" points="396.587,-169.301 387.058,-164.669 391.619,-174.232 396.587,-169.301"/>
</g>
<!-- Node21 -->
<g id="node21" class="node"><title>Node21</title>
<g id="a_node21"><a xlink:href="ActionPinchTight_8h.html" target="_top" xlink:title="end_effector/GraspingActions\l/ActionPinchTight.h">
<polygon fill="none" stroke="black" points="1363,-335.5 1363,-365.5 1521,-365.5 1521,-335.5 1363,-335.5"/>
<text text-anchor="start" x="1371" y="-353.5" font-family="Helvetica,sans-Serif" font-size="10.00">end_effector/GraspingActions</text>
<text text-anchor="middle" x="1442" y="-342.5" font-family="Helvetica,sans-Serif" font-size="10.00">/ActionPinchTight.h</text>
</a>
</g>
</g>
<!-- Node2&#45;&gt;Node21 -->
<g id="edge83" class="edge"><title>Node2&#45;&gt;Node21</title>
<path fill="none" stroke="midnightblue" d="M1196.92,-458.319C1240.02,-439.534 1342.7,-394.779 1400.55,-369.567"/>
<polygon fill="midnightblue" stroke="midnightblue" points="1402.01,-372.749 1409.77,-365.545 1399.21,-366.332 1402.01,-372.749"/>
</g>
<!-- Node23 -->
<g id="node23" class="node"><title>Node23</title>
<g id="a_node23"><a xlink:href="ActionPinchLoose_8h.html" target="_top" xlink:title="end_effector/GraspingActions\l/ActionPinchLoose.h">
<polygon fill="none" stroke="black" points="1011,-335.5 1011,-365.5 1169,-365.5 1169,-335.5 1011,-335.5"/>
<text text-anchor="start" x="1019" y="-353.5" font-family="Helvetica,sans-Serif" font-size="10.00">end_effector/GraspingActions</text>
<text text-anchor="middle" x="1090" y="-342.5" font-family="Helvetica,sans-Serif" font-size="10.00">/ActionPinchLoose.h</text>
</a>
</g>
</g>
<!-- Node2&#45;&gt;Node23 -->
<g id="edge84" class="edge"><title>Node2&#45;&gt;Node23</title>
<path fill="none" stroke="midnightblue" d="M1170.46,-458.319C1157.04,-440.502 1126.02,-399.324 1106.66,-373.615"/>
<polygon fill="midnightblue" stroke="midnightblue" points="1109.39,-371.427 1100.58,-365.545 1103.8,-375.639 1109.39,-371.427"/>
</g>
<!-- Node24 -->
<g id="node24" class="node"><title>Node24</title>
<g id="a_node24"><a xlink:href="ActionTrig_8h.html" target="_top" xlink:title="end_effector/GraspingActions\l/ActionTrig.h">
<polygon fill="none" stroke="black" points="608,-268.5 608,-298.5 766,-298.5 766,-268.5 608,-268.5"/>
<text text-anchor="start" x="616" y="-286.5" font-family="Helvetica,sans-Serif" font-size="10.00">end_effector/GraspingActions</text>
<text text-anchor="middle" x="687" y="-275.5" font-family="Helvetica,sans-Serif" font-size="10.00">/ActionTrig.h</text>
</a>
</g>
</g>
<!-- Node2&#45;&gt;Node24 -->
<g id="edge85" class="edge"><title>Node2&#45;&gt;Node24</title>
<path fill="none" stroke="midnightblue" d="M1105.38,-464.752C982.124,-460.205 740.316,-448.048 712,-422 680.852,-393.347 680.544,-339.902 683.51,-308.755"/>
<polygon fill="midnightblue" stroke="midnightblue" points="686.996,-309.076 684.651,-298.744 680.041,-308.284 686.996,-309.076"/>
</g>
<!-- Node25 -->
<g id="node25" class="node"><title>Node25</title>
<g id="a_node25"><a xlink:href="ActionSingleJointMultipleTips_8h.html" target="_top" xlink:title="end_effector/GraspingActions\l/ActionSingleJointMultipleTips.h">
<polygon fill="none" stroke="black" points="860,-268.5 860,-298.5 1024,-298.5 1024,-268.5 860,-268.5"/>
<text text-anchor="start" x="868" y="-286.5" font-family="Helvetica,sans-Serif" font-size="10.00">end_effector/GraspingActions</text>
<text text-anchor="middle" x="942" y="-275.5" font-family="Helvetica,sans-Serif" font-size="10.00">/ActionSingleJointMultipleTips.h</text>
</a>
</g>
</g>
<!-- Node2&#45;&gt;Node25 -->
<g id="edge86" class="edge"><title>Node2&#45;&gt;Node25</title>
<path fill="none" stroke="midnightblue" d="M1156.37,-458.475C1121.73,-443.468 1050.89,-409.736 1002,-366 982.996,-348.999 966.256,-325.082 955.321,-307.554"/>
<polygon fill="midnightblue" stroke="midnightblue" points="958.044,-305.293 949.866,-298.558 952.058,-308.923 958.044,-305.293"/>
</g>
<!-- Node26 -->
<g id="node26" class="node"><title>Node26</title>
<g id="a_node26"><a xlink:href="ActionMultiplePinchTight_8h.html" target="_top" xlink:title="end_effector/GraspingActions\l/ActionMultiplePinchTight.h">
<polygon fill="none" stroke="black" points="1187,-335.5 1187,-365.5 1345,-365.5 1345,-335.5 1187,-335.5"/>
<text text-anchor="start" x="1195" y="-353.5" font-family="Helvetica,sans-Serif" font-size="10.00">end_effector/GraspingActions</text>
<text text-anchor="middle" x="1266" y="-342.5" font-family="Helvetica,sans-Serif" font-size="10.00">/ActionMultiplePinchTight.h</text>
</a>
</g>
</g>
<!-- Node2&#45;&gt;Node26 -->
<g id="edge87" class="edge"><title>Node2&#45;&gt;Node26</title>
<path fill="none" stroke="midnightblue" d="M1183.69,-458.319C1197.42,-440.502 1229.15,-399.324 1248.96,-373.615"/>
<polygon fill="midnightblue" stroke="midnightblue" points="1251.85,-375.603 1255.18,-365.545 1246.3,-371.33 1251.85,-375.603"/>
</g>
<!-- Node30 -->
<g id="node30" class="node"><title>Node30</title>
<g id="a_node30"><a xlink:href="ParserMoveIt_8h.html" target="_top" xlink:title="end_effector/ParserMoveIt.h">
<polygon fill="none" stroke="black" points="1505.5,-140 1505.5,-159 1656.5,-159 1656.5,-140 1505.5,-140"/>
<text text-anchor="middle" x="1581" y="-147" font-family="Helvetica,sans-Serif" font-size="10.00">end_effector/ParserMoveIt.h</text>
</a>
</g>
</g>
<!-- Node2&#45;&gt;Node30 -->
<g id="edge75" class="edge"><title>Node2&#45;&gt;Node30</title>
<path fill="none" stroke="midnightblue" d="M1248.58,-463.91C1378.54,-456.333 1640,-431.187 1640,-351.5 1640,-351.5 1640,-351.5 1640,-282.5 1640,-237.761 1611.4,-191.336 1594.03,-167.258"/>
<polygon fill="midnightblue" stroke="midnightblue" points="1596.78,-165.099 1588,-159.174 1591.17,-169.283 1596.78,-165.099"/>
</g>
<!-- Node33 -->
<g id="node33" class="node"><title>Node33</title>
<polygon fill="none" stroke="#bfbfbf" points="1668,-402.5 1668,-421.5 1740,-421.5 1740,-402.5 1668,-402.5"/>
<text text-anchor="middle" x="1704" y="-409.5" font-family="Helvetica,sans-Serif" font-size="10.00">muParser.h</text>
</g>
<!-- Node2&#45;&gt;Node33 -->
<g id="edge88" class="edge"><title>Node2&#45;&gt;Node33</title>
<path fill="none" stroke="midnightblue" d="M1248.73,-462.121C1342.26,-455.328 1510.81,-441.606 1654,-422 1655.25,-421.828 1656.52,-421.648 1657.8,-421.46"/>
<polygon fill="midnightblue" stroke="midnightblue" points="1658.4,-424.909 1667.74,-419.897 1657.31,-417.994 1658.4,-424.909"/>
</g>
<!-- Node5 -->
<g id="node5" class="node"><title>Node5</title>
<polygon fill="none" stroke="#bfbfbf" points="17.5,-0.5 17.5,-19.5 74.5,-19.5 74.5,-0.5 17.5,-0.5"/>
<text text-anchor="middle" x="46" y="-7.5" font-family="Helvetica,sans-Serif" font-size="10.00">memory</text>
</g>
<!-- Node4&#45;&gt;Node5 -->
<g id="edge4" class="edge"><title>Node4&#45;&gt;Node5</title>
<path fill="none" stroke="midnightblue" d="M721.395,-410.008C575.195,-407.352 250.228,-397.94 144,-366 73.575,-344.825 0,-358.039 0,-284.5 0,-284.5 0,-284.5 0,-148.5 0,-103.389 22.5428,-54.0541 36.0665,-28.5161"/>
<polygon fill="midnightblue" stroke="midnightblue" points="39.1768,-30.1232 40.9014,-19.6696 33.0343,-26.766 39.1768,-30.1232"/>
</g>
<!-- Node6 -->
<g id="node6" class="node"><title>Node6</title>
<polygon fill="none" stroke="#bfbfbf" points="812,-67.5 812,-86.5 908,-86.5 908,-67.5 812,-67.5"/>
<text text-anchor="middle" x="860" y="-74.5" font-family="Helvetica,sans-Serif" font-size="10.00">yaml&#45;cpp/yaml.h</text>
</g>
<!-- Node4&#45;&gt;Node6 -->
<g id="edge5" class="edge"><title>Node4&#45;&gt;Node6</title>
<path fill="none" stroke="midnightblue" d="M795.588,-402.098C798.133,-387.895 803.316,-359.238 808,-335 825.249,-245.747 847.228,-139.36 856.063,-96.8773"/>
<polygon fill="midnightblue" stroke="midnightblue" points="859.535,-97.3698 858.148,-86.8663 852.682,-95.9427 859.535,-97.3698"/>
</g>
<!-- Node7 -->
<g id="node7" class="node"><title>Node7</title>
<g id="a_node7"><a xlink:href="Utils_8h.html" target="_top" xlink:title="end_effector/Utils.h">
<polygon fill="none" stroke="black" points="173,-67.5 173,-86.5 283,-86.5 283,-67.5 173,-67.5"/>
<text text-anchor="middle" x="228" y="-74.5" font-family="Helvetica,sans-Serif" font-size="10.00">end_effector/Utils.h</text>
</a>
</g>
</g>
<!-- Node4&#45;&gt;Node7 -->
<g id="edge6" class="edge"><title>Node4&#45;&gt;Node7</title>
<path fill="none" stroke="midnightblue" d="M721.168,-406.416C531.694,-393.523 38,-353.325 38,-284.5 38,-284.5 38,-284.5 38,-215.5 38,-144.631 125.826,-106.569 182.055,-89.4629"/>
<polygon fill="midnightblue" stroke="midnightblue" points="183.201,-92.7742 191.815,-86.6058 181.235,-86.0561 183.201,-92.7742"/>
</g>
<!-- Node4&#45;&gt;Node15 -->
<g id="edge15" class="edge"><title>Node4&#45;&gt;Node15</title>
<path fill="none" stroke="midnightblue" d="M737.821,-402.479C705.133,-395.858 664.002,-384.576 631,-366 537.846,-313.565 541.016,-265.803 456,-201 441.114,-189.653 423.538,-178.655 408.401,-169.834"/>
<polygon fill="midnightblue" stroke="midnightblue" points="409.753,-166.576 399.337,-164.64 406.273,-172.649 409.753,-166.576"/>
</g>
<!-- Node19 -->
<g id="node19" class="node"><title>Node19</title>
<g id="a_node19"><a xlink:href="ActionPrimitive_8h.html" target="_top" xlink:title="end_effector/GraspingActions\l/ActionPrimitive.h">
<polygon fill="none" stroke="black" points="863,-201.5 863,-231.5 1021,-231.5 1021,-201.5 863,-201.5"/>
<text text-anchor="start" x="871" y="-219.5" font-family="Helvetica,sans-Serif" font-size="10.00">end_effector/GraspingActions</text>
<text text-anchor="middle" x="942" y="-208.5" font-family="Helvetica,sans-Serif" font-size="10.00">/ActionPrimitive.h</text>
</a>
</g>
</g>
<!-- Node4&#45;&gt;Node19 -->
<g id="edge23" class="edge"><title>Node4&#45;&gt;Node19</title>
<path fill="none" stroke="midnightblue" d="M796.574,-402.449C804.969,-374.971 832.107,-289.467 851,-268 862.875,-254.508 879.262,-243.876 894.861,-235.919"/>
<polygon fill="midnightblue" stroke="midnightblue" points="896.435,-239.045 903.914,-231.541 893.388,-232.743 896.435,-239.045"/>
</g>
<!-- Node4&#45;&gt;Node21 -->
<g id="edge31" class="edge"><title>Node4&#45;&gt;Node21</title>
<path fill="none" stroke="midnightblue" d="M866.685,-407.094C971.742,-401.019 1172.32,-387.81 1352.94,-366.063"/>
<polygon fill="midnightblue" stroke="midnightblue" points="1353.39,-369.535 1362.89,-364.854 1352.54,-362.586 1353.39,-369.535"/>
</g>
<!-- Node4&#45;&gt;Node23 -->
<g id="edge39" class="edge"><title>Node4&#45;&gt;Node23</title>
<path fill="none" stroke="midnightblue" d="M836.41,-402.475C881.65,-393.381 954.357,-378.766 1010.34,-367.512"/>
<polygon fill="midnightblue" stroke="midnightblue" points="1011.12,-370.925 1020.24,-365.523 1009.74,-364.062 1011.12,-370.925"/>
</g>
<!-- Node4&#45;&gt;Node24 -->
<g id="edge45" class="edge"><title>Node4&#45;&gt;Node24</title>
<path fill="none" stroke="midnightblue" d="M786.645,-402.305C770.144,-382.796 729.739,-335.028 705.754,-306.672"/>
<polygon fill="midnightblue" stroke="midnightblue" points="708.3,-304.263 699.17,-298.888 702.956,-308.783 708.3,-304.263"/>
</g>
<!-- Node4&#45;&gt;Node25 -->
<g id="edge49" class="edge"><title>Node4&#45;&gt;Node25</title>
<path fill="none" stroke="midnightblue" d="M804.173,-402.305C827.291,-382.545 884.329,-333.793 917.33,-305.586"/>
<polygon fill="midnightblue" stroke="midnightblue" points="919.839,-308.046 925.167,-298.888 915.291,-302.725 919.839,-308.046"/>
</g>
<!-- Node4&#45;&gt;Node26 -->
<g id="edge53" class="edge"><title>Node4&#45;&gt;Node26</title>
<path fill="none" stroke="midnightblue" d="M866.675,-403.505C941.803,-395.524 1062.74,-382.033 1176.91,-366.115"/>
<polygon fill="midnightblue" stroke="midnightblue" points="1177.46,-369.572 1186.87,-364.717 1176.48,-362.64 1177.46,-369.572"/>
</g>
<!-- Node27 -->
<g id="node27" class="node"><title>Node27</title>
<g id="a_node27"><a xlink:href="ActionComposed_8h.html" target="_top" xlink:title="end_effector/GraspingActions\l/ActionComposed.h">
<polygon fill="none" stroke="black" points="149,-268.5 149,-298.5 307,-298.5 307,-268.5 149,-268.5"/>
<text text-anchor="start" x="157" y="-286.5" font-family="Helvetica,sans-Serif" font-size="10.00">end_effector/GraspingActions</text>
<text text-anchor="middle" x="228" y="-275.5" font-family="Helvetica,sans-Serif" font-size="10.00">/ActionComposed.h</text>
</a>
</g>
</g>
<!-- Node4&#45;&gt;Node27 -->
<g id="edge58" class="edge"><title>Node4&#45;&gt;Node27</title>
<path fill="none" stroke="midnightblue" d="M721.274,-405.094C654.31,-398.698 552.541,-386.549 466,-366 396.575,-349.515 318.827,-320.877 271.656,-302.312"/>
<polygon fill="midnightblue" stroke="midnightblue" points="272.654,-298.943 262.068,-298.511 270.075,-305.45 272.654,-298.943"/>
</g>
<!-- Node29 -->
<g id="node29" class="node"><title>Node29</title>
<g id="a_node29"><a xlink:href="ActionTimed_8h.html" target="_top" xlink:title="end_effector/GraspingActions\l/ActionTimed.h">
<polygon fill="none" stroke="black" points="508,-201.5 508,-231.5 666,-231.5 666,-201.5 508,-201.5"/>
<text text-anchor="start" x="516" y="-219.5" font-family="Helvetica,sans-Serif" font-size="10.00">end_effector/GraspingActions</text>
<text text-anchor="middle" x="587" y="-208.5" font-family="Helvetica,sans-Serif" font-size="10.00">/ActionTimed.h</text>
</a>
</g>
</g>
<!-- Node4&#45;&gt;Node29 -->
<g id="edge68" class="edge"><title>Node4&#45;&gt;Node29</title>
<path fill="none" stroke="midnightblue" d="M762.734,-402.491C718.443,-388.683 638.443,-356.924 599,-299 587.708,-282.418 585.188,-259.538 585.217,-242.241"/>
<polygon fill="midnightblue" stroke="midnightblue" points="588.729,-241.905 585.538,-231.803 581.732,-241.69 588.729,-241.905"/>
</g>
<!-- Node7&#45;&gt;Node5 -->
<g id="edge8" class="edge"><title>Node7&#45;&gt;Node5</title>
<path fill="none" stroke="midnightblue" d="M203.832,-67.3685C171.925,-55.9732 115.588,-35.8528 79.5632,-22.9869"/>
<polygon fill="midnightblue" stroke="midnightblue" points="80.5729,-19.631 69.9783,-19.5637 78.2185,-26.2232 80.5729,-19.631"/>
</g>
<!-- Node8 -->
<g id="node8" class="node"><title>Node8</title>
<polygon fill="none" stroke="#bfbfbf" points="301.5,-0.5 301.5,-19.5 348.5,-19.5 348.5,-0.5 301.5,-0.5"/>
<text text-anchor="middle" x="325" y="-7.5" font-family="Helvetica,sans-Serif" font-size="10.00">cmath</text>
</g>
<!-- Node7&#45;&gt;Node8 -->
<g id="edge7" class="edge"><title>Node7&#45;&gt;Node8</title>
<path fill="none" stroke="midnightblue" d="M241.082,-67.2338C257.153,-56.4644 284.633,-38.05 303.75,-25.2395"/>
<polygon fill="midnightblue" stroke="midnightblue" points="305.766,-28.1017 312.125,-19.6273 301.87,-22.2865 305.766,-28.1017"/>
</g>
<!-- Node9 -->
<g id="node9" class="node"><title>Node9</title>
<polygon fill="none" stroke="#bfbfbf" points="1165.5,-0.5 1165.5,-19.5 1224.5,-19.5 1224.5,-0.5 1165.5,-0.5"/>
<text text-anchor="middle" x="1195" y="-7.5" font-family="Helvetica,sans-Serif" font-size="10.00">iostream</text>
</g>
<!-- Node7&#45;&gt;Node9 -->
<g id="edge9" class="edge"><title>Node7&#45;&gt;Node9</title>
<path fill="none" stroke="midnightblue" d="M283.086,-68.1144C313.645,-63.9809 352.365,-59.139 387,-56 681.099,-29.346 1036.95,-16.1251 1154.89,-12.2468"/>
<polygon fill="midnightblue" stroke="midnightblue" points="1155.35,-15.7338 1165.23,-11.9107 1155.12,-8.73745 1155.35,-15.7338"/>
</g>
<!-- Node10 -->
<g id="node10" class="node"><title>Node10</title>
<polygon fill="none" stroke="#bfbfbf" points="367,-0.5 367,-19.5 415,-19.5 415,-0.5 367,-0.5"/>
<text text-anchor="middle" x="391" y="-7.5" font-family="Helvetica,sans-Serif" font-size="10.00">dlfcn.h</text>
</g>
<!-- Node7&#45;&gt;Node10 -->
<g id="edge10" class="edge"><title>Node7&#45;&gt;Node10</title>
<path fill="none" stroke="midnightblue" d="M249.645,-67.3685C277.977,-56.0706 327.816,-36.1961 360.109,-23.3183"/>
<polygon fill="midnightblue" stroke="midnightblue" points="361.533,-26.5189 369.525,-19.5637 358.94,-20.0168 361.533,-26.5189"/>
</g>
<!-- Node11 -->
<g id="node11" class="node"><title>Node11</title>
<polygon fill="none" stroke="#bfbfbf" points="433,-0.5 433,-19.5 549,-19.5 549,-0.5 433,-0.5"/>
<text text-anchor="middle" x="491" y="-7.5" font-family="Helvetica,sans-Serif" font-size="10.00">boost/filesystem.hpp</text>
</g>
<!-- Node7&#45;&gt;Node11 -->
<g id="edge11" class="edge"><title>Node7&#45;&gt;Node11</title>
<path fill="none" stroke="midnightblue" d="M262.653,-67.4355C309.86,-55.7685 394.431,-34.8669 446.344,-22.0367"/>
<polygon fill="midnightblue" stroke="midnightblue" points="447.402,-25.3806 456.27,-19.5834 445.722,-18.585 447.402,-25.3806"/>
</g>
<!-- Node12 -->
<g id="node12" class="node"><title>Node12</title>
<polygon fill="none" stroke="#bfbfbf" points="93,-0.5 93,-19.5 147,-19.5 147,-0.5 93,-0.5"/>
<text text-anchor="middle" x="120" y="-7.5" font-family="Helvetica,sans-Serif" font-size="10.00">fstream</text>
</g>
<!-- Node7&#45;&gt;Node12 -->
<g id="edge12" class="edge"><title>Node7&#45;&gt;Node12</title>
<path fill="none" stroke="midnightblue" d="M213.435,-67.2338C195.379,-56.3669 164.39,-37.7161 143.084,-24.8931"/>
<polygon fill="midnightblue" stroke="midnightblue" points="144.707,-21.7852 134.335,-19.6273 141.098,-27.7827 144.707,-21.7852"/>
</g>
<!-- Node13 -->
<g id="node13" class="node"><title>Node13</title>
<polygon fill="none" stroke="#bfbfbf" points="165,-0.5 165,-19.5 215,-19.5 215,-0.5 165,-0.5"/>
<text text-anchor="middle" x="190" y="-7.5" font-family="Helvetica,sans-Serif" font-size="10.00">chrono</text>
</g>
<!-- Node7&#45;&gt;Node13 -->
<g id="edge13" class="edge"><title>Node7&#45;&gt;Node13</title>
<path fill="none" stroke="midnightblue" d="M222.875,-67.2338C217.063,-57.2928 207.444,-40.8377 200.108,-28.2892"/>
<polygon fill="midnightblue" stroke="midnightblue" points="203.112,-26.4938 195.044,-19.6273 197.069,-30.0267 203.112,-26.4938"/>
</g>
<!-- Node14 -->
<g id="node14" class="node"><title>Node14</title>
<polygon fill="none" stroke="#bfbfbf" points="233,-0.5 233,-19.5 283,-19.5 283,-0.5 233,-0.5"/>
<text text-anchor="middle" x="258" y="-7.5" font-family="Helvetica,sans-Serif" font-size="10.00">atomic</text>
</g>
<!-- Node7&#45;&gt;Node14 -->
<g id="edge14" class="edge"><title>Node7&#45;&gt;Node14</title>
<path fill="none" stroke="midnightblue" d="M232.046,-67.2338C236.544,-57.4877 243.932,-41.4805 249.678,-29.0318"/>
<polygon fill="midnightblue" stroke="midnightblue" points="253.005,-30.1736 254.018,-19.6273 246.65,-27.2402 253.005,-30.1736"/>
</g>
<!-- Node15&#45;&gt;Node5 -->
<g id="edge20" class="edge"><title>Node15&#45;&gt;Node5</title>
<path fill="none" stroke="midnightblue" d="M293.591,-137.006C253.465,-129.307 204.769,-117.005 164,-98 124.083,-79.3931 84.2186,-46.1936 62.5713,-26.6283"/>
<polygon fill="midnightblue" stroke="midnightblue" points="64.6856,-23.8176 54.9562,-19.6236 59.9466,-28.9696 64.6856,-23.8176"/>
</g>
<!-- Node15&#45;&gt;Node6 -->
<g id="edge19" class="edge"><title>Node15&#45;&gt;Node6</title>
<path fill="none" stroke="midnightblue" d="M452.202,-140.51C532.366,-131.928 659.738,-116.935 769,-98 784.022,-95.3968 800.317,-91.9995 814.912,-88.7457"/>
<polygon fill="midnightblue" stroke="midnightblue" points="815.728,-92.1496 824.708,-86.5275 814.182,-85.3225 815.728,-92.1496"/>
</g>
<!-- Node15&#45;&gt;Node7 -->
<g id="edge22" class="edge"><title>Node15&#45;&gt;Node7</title>
<path fill="none" stroke="midnightblue" d="M344.006,-134.403C317.917,-121.718 279.901,-103.234 254.582,-90.9243"/>
<polygon fill="midnightblue" stroke="midnightblue" points="256.075,-87.7586 245.551,-86.5336 253.014,-94.0539 256.075,-87.7586"/>
</g>
<!-- Node15&#45;&gt;Node9 -->
<g id="edge21" class="edge"><title>Node15&#45;&gt;Node9</title>
<path fill="none" stroke="midnightblue" d="M377.743,-134.168C385.638,-112.87 403.677,-73.5002 434,-56 496.625,-19.8575 1006.87,-12.6288 1154.89,-11.2871"/>
<polygon fill="midnightblue" stroke="midnightblue" points="1155.34,-14.7834 1165.31,-11.197 1155.28,-7.78365 1155.34,-14.7834"/>
</g>
<!-- Node16 -->
<g id="node16" class="node"><title>Node16</title>
<polygon fill="none" stroke="#bfbfbf" points="443.5,-67.5 443.5,-86.5 490.5,-86.5 490.5,-67.5 443.5,-67.5"/>
<text text-anchor="middle" x="467" y="-74.5" font-family="Helvetica,sans-Serif" font-size="10.00">vector</text>
</g>
<!-- Node15&#45;&gt;Node16 -->
<g id="edge16" class="edge"><title>Node15&#45;&gt;Node16</title>
<path fill="none" stroke="midnightblue" d="M392.022,-134.233C408.046,-122.216 430.891,-105.082 447.145,-92.8912"/>
<polygon fill="midnightblue" stroke="midnightblue" points="449.512,-95.4911 455.412,-86.6911 445.312,-89.8911 449.512,-95.4911"/>
</g>
<!-- Node17 -->
<g id="node17" class="node"><title>Node17</title>
<polygon fill="none" stroke="#bfbfbf" points="509,-67.5 509,-86.5 553,-86.5 553,-67.5 509,-67.5"/>
<text text-anchor="middle" x="531" y="-74.5" font-family="Helvetica,sans-Serif" font-size="10.00">string</text>
</g>
<!-- Node15&#45;&gt;Node17 -->
<g id="edge17" class="edge"><title>Node15&#45;&gt;Node17</title>
<path fill="none" stroke="midnightblue" d="M413.241,-134.453C438.384,-125.17 471.159,-112.139 499,-98 502.642,-96.1506 506.407,-94.0159 510.021,-91.8444"/>
<polygon fill="midnightblue" stroke="midnightblue" points="511.916,-94.7876 518.532,-86.5126 508.199,-88.8554 511.916,-94.7876"/>
</g>
<!-- Node18 -->
<g id="node18" class="node"><title>Node18</title>
<polygon fill="none" stroke="#bfbfbf" points="722,-67.5 722,-86.5 760,-86.5 760,-67.5 722,-67.5"/>
<text text-anchor="middle" x="741" y="-74.5" font-family="Helvetica,sans-Serif" font-size="10.00">map</text>
</g>
<!-- Node15&#45;&gt;Node18 -->
<g id="edge18" class="edge"><title>Node15&#45;&gt;Node18</title>
<path fill="none" stroke="midnightblue" d="M446.145,-134.487C527.472,-118.907 654.864,-94.5016 711.801,-83.5937"/>
<polygon fill="midnightblue" stroke="midnightblue" points="712.738,-86.978 721.901,-81.6589 711.421,-80.103 712.738,-86.978"/>
</g>
<!-- Node19&#45;&gt;Node6 -->
<g id="edge30" class="edge"><title>Node19&#45;&gt;Node6</title>
<path fill="none" stroke="midnightblue" d="M933.533,-201.303C918.446,-176.003 886.953,-123.195 870.508,-95.6205"/>
<polygon fill="midnightblue" stroke="midnightblue" points="873.317,-93.4966 865.189,-86.7007 867.305,-97.0821 873.317,-93.4966"/>
</g>
<!-- Node19&#45;&gt;Node9 -->
<g id="edge28" class="edge"><title>Node19&#45;&gt;Node9</title>
<path fill="none" stroke="midnightblue" d="M940.606,-201.377C939.634,-183.881 940.527,-153.947 955,-134 1003.95,-66.536 1100.88,-33.4199 1155.39,-19.5053"/>
<polygon fill="midnightblue" stroke="midnightblue" points="1156.5,-22.8365 1165.38,-17.0502 1154.83,-16.039 1156.5,-22.8365"/>
</g>
<!-- Node19&#45;&gt;Node15 -->
<g id="edge29" class="edge"><title>Node19&#45;&gt;Node15</title>
<path fill="none" stroke="midnightblue" d="M862.883,-206.462C757.761,-194.453 572.534,-173.294 462.446,-160.718"/>
<polygon fill="midnightblue" stroke="midnightblue" points="462.693,-157.223 452.36,-159.566 461.898,-164.178 462.693,-157.223"/>
</g>
<!-- Node19&#45;&gt;Node16 -->
<g id="edge27" class="edge"><title>Node19&#45;&gt;Node16</title>
<path fill="none" stroke="midnightblue" d="M862.845,-203.196C772.077,-187.132 620.312,-154.218 500,-98 496.216,-96.2319 492.318,-94.1389 488.586,-91.984"/>
<polygon fill="midnightblue" stroke="midnightblue" points="490.173,-88.8528 479.81,-86.6499 486.537,-94.8346 490.173,-88.8528"/>
</g>
<!-- Node19&#45;&gt;Node17 -->
<g id="edge25" class="edge"><title>Node19&#45;&gt;Node17</title>
<path fill="none" stroke="midnightblue" d="M899.947,-201.431C817.489,-173.845 636.225,-113.203 562.811,-88.6424"/>
<polygon fill="midnightblue" stroke="midnightblue" points="563.783,-85.277 553.189,-85.4234 561.562,-91.9153 563.783,-85.277"/>
</g>
<!-- Node19&#45;&gt;Node18 -->
<g id="edge26" class="edge"><title>Node19&#45;&gt;Node18</title>
<path fill="none" stroke="midnightblue" d="M966.054,-201.395C991.131,-184.935 1024.29,-157.033 1005,-134 975.723,-99.0444 847.243,-109.024 803,-98 792.053,-95.2722 780.224,-91.6337 769.862,-88.2083"/>
<polygon fill="midnightblue" stroke="midnightblue" points="770.67,-84.7869 760.076,-84.8955 768.426,-91.4173 770.67,-84.7869"/>
</g>
<!-- Node20 -->
<g id="node20" class="node"><title>Node20</title>
<polygon fill="none" stroke="#bfbfbf" points="964,-140 964,-159 996,-159 996,-140 964,-140"/>
<text text-anchor="middle" x="980" y="-147" font-family="Helvetica,sans-Serif" font-size="10.00">set</text>
</g>
<!-- Node19&#45;&gt;Node20 -->
<g id="edge24" class="edge"><title>Node19&#45;&gt;Node20</title>
<path fill="none" stroke="midnightblue" d="M950.245,-201.396C955.994,-191.562 963.702,-178.378 969.832,-167.892"/>
<polygon fill="midnightblue" stroke="midnightblue" points="972.892,-169.594 974.917,-159.195 966.848,-166.061 972.892,-169.594"/>
</g>
<!-- Node21&#45;&gt;Node3 -->
<g id="edge36" class="edge"><title>Node21&#45;&gt;Node3</title>
<path fill="none" stroke="midnightblue" d="M1448.51,-335.396C1452.24,-327.304 1457.03,-316.944 1461.3,-307.685"/>
<polygon fill="midnightblue" stroke="midnightblue" points="1464.49,-309.123 1465.5,-298.577 1458.13,-306.189 1464.49,-309.123"/>
</g>
<!-- Node21&#45;&gt;Node6 -->
<g id="edge37" class="edge"><title>Node21&#45;&gt;Node6</title>
<path fill="none" stroke="midnightblue" d="M1496.25,-335.476C1514.66,-327.844 1533.27,-316.292 1544,-299 1551.27,-287.294 1551.8,-279.359 1544,-268 1471.89,-162.964 1070.12,-103.659 918.201,-84.7283"/>
<polygon fill="midnightblue" stroke="midnightblue" points="918.485,-81.2368 908.132,-83.4872 917.628,-88.1843 918.485,-81.2368"/>
</g>
<!-- Node21&#45;&gt;Node9 -->
<g id="edge38" class="edge"><title>Node21&#45;&gt;Node9</title>
<path fill="none" stroke="midnightblue" d="M1510.97,-335.44C1530.42,-327.951 1549.42,-316.498 1561,-299 1568.6,-287.511 1566.18,-280.767 1561,-268 1536.3,-207.132 1411.44,-89.6017 1355,-56 1317.47,-33.6612 1268.4,-22.0076 1234.54,-16.2128"/>
<polygon fill="midnightblue" stroke="midnightblue" points="1234.99,-12.7389 1224.55,-14.5971 1233.87,-19.6491 1234.99,-12.7389"/>
</g>
<!-- Node22 -->
<g id="node22" class="node"><title>Node22</title>
<g id="a_node22"><a xlink:href="ActionPinchGeneric_8h.html" target="_top" xlink:title="end_effector/GraspingActions\l/ActionPinchGeneric.h">
<polygon fill="none" stroke="black" points="1156,-268.5 1156,-298.5 1314,-298.5 1314,-268.5 1156,-268.5"/>
<text text-anchor="start" x="1164" y="-286.5" font-family="Helvetica,sans-Serif" font-size="10.00">end_effector/GraspingActions</text>
<text text-anchor="middle" x="1235" y="-275.5" font-family="Helvetica,sans-Serif" font-size="10.00">/ActionPinchGeneric.h</text>
</a>
</g>
</g>
<!-- Node21&#45;&gt;Node22 -->
<g id="edge32" class="edge"><title>Node21&#45;&gt;Node22</title>
<path fill="none" stroke="midnightblue" d="M1397.34,-335.476C1365.75,-325.557 1323.22,-312.201 1289.61,-301.648"/>
<polygon fill="midnightblue" stroke="midnightblue" points="1290.53,-298.268 1279.94,-298.611 1288.43,-304.946 1290.53,-298.268"/>
</g>
<!-- Node22&#45;&gt;Node6 -->
<g id="edge34" class="edge"><title>Node22&#45;&gt;Node6</title>
<path fill="none" stroke="midnightblue" d="M1227.82,-268.404C1211.79,-238.481 1170.07,-168.532 1114,-134 1054.04,-97.0693 972.874,-84.3519 918.589,-80.0522"/>
<polygon fill="midnightblue" stroke="midnightblue" points="918.667,-76.5488 908.441,-79.3215 918.164,-83.5308 918.667,-76.5488"/>
</g>
<!-- Node22&#45;&gt;Node9 -->
<g id="edge35" class="edge"><title>Node22&#45;&gt;Node9</title>
<path fill="none" stroke="midnightblue" d="M1237.36,-268.459C1242.9,-232.109 1254.34,-132.437 1228,-56 1224.35,-45.3949 1217.25,-35.1779 1210.57,-27.1671"/>
<polygon fill="midnightblue" stroke="midnightblue" points="1213.18,-24.8391 1203.92,-19.694 1207.95,-29.4918 1213.18,-24.8391"/>
</g>
<!-- Node22&#45;&gt;Node19 -->
<g id="edge33" class="edge"><title>Node22&#45;&gt;Node19</title>
<path fill="none" stroke="midnightblue" d="M1171.78,-268.476C1125.84,-258.285 1063.54,-244.464 1015.4,-233.784"/>
<polygon fill="midnightblue" stroke="midnightblue" points="1015.88,-230.304 1005.35,-231.555 1014.36,-237.138 1015.88,-230.304"/>
</g>
<!-- Node23&#45;&gt;Node3 -->
<g id="edge42" class="edge"><title>Node23&#45;&gt;Node3</title>
<path fill="none" stroke="midnightblue" d="M1169.15,-336.032C1236.6,-324.555 1332.79,-308.188 1398.55,-296.997"/>
<polygon fill="midnightblue" stroke="midnightblue" points="1399.16,-300.444 1408.43,-295.316 1397.99,-293.544 1399.16,-300.444"/>
</g>
<!-- Node23&#45;&gt;Node6 -->
<g id="edge43" class="edge"><title>Node23&#45;&gt;Node6</title>
<path fill="none" stroke="midnightblue" d="M1091.23,-335.241C1093.7,-297.204 1094.97,-192.266 1041,-134 1009.64,-100.147 958.297,-86.5797 918.288,-81.2314"/>
<polygon fill="midnightblue" stroke="midnightblue" points="918.463,-77.7275 908.118,-80.0136 917.631,-84.6778 918.463,-77.7275"/>
</g>
<!-- Node23&#45;&gt;Node9 -->
<g id="edge44" class="edge"><title>Node23&#45;&gt;Node9</title>
<path fill="none" stroke="midnightblue" d="M1095.79,-335.268C1111.07,-297.297 1153,-190.196 1178,-98 1184.31,-74.7392 1189.26,-47.3808 1192.15,-29.6423"/>
<polygon fill="midnightblue" stroke="midnightblue" points="1195.62,-30.1625 1193.72,-19.7388 1188.7,-29.0701 1195.62,-30.1625"/>
</g>
<!-- Node23&#45;&gt;Node19 -->
<g id="edge40" class="edge"><title>Node23&#45;&gt;Node19</title>
<path fill="none" stroke="midnightblue" d="M1082.74,-335.356C1073.21,-317.839 1055.06,-287.883 1033,-268 1018.86,-255.258 1000.96,-244.453 984.772,-236.147"/>
<polygon fill="midnightblue" stroke="midnightblue" points="985.999,-232.849 975.484,-231.55 982.894,-239.123 985.999,-232.849"/>
</g>
<!-- Node23&#45;&gt;Node22 -->
<g id="edge41" class="edge"><title>Node23&#45;&gt;Node22</title>
<path fill="none" stroke="midnightblue" d="M1121.46,-335.396C1142.84,-325.814 1171.31,-313.05 1194.4,-302.702"/>
<polygon fill="midnightblue" stroke="midnightblue" points="1195.91,-305.861 1203.6,-298.577 1193.04,-299.473 1195.91,-305.861"/>
</g>
<!-- Node24&#45;&gt;Node6 -->
<g id="edge47" class="edge"><title>Node24&#45;&gt;Node6</title>
<path fill="none" stroke="midnightblue" d="M705.398,-268.363C717.488,-258.696 733.348,-245.273 746,-232 789.096,-186.787 830.304,-125.048 849.208,-95.3504"/>
<polygon fill="midnightblue" stroke="midnightblue" points="852.365,-96.9044 854.734,-86.5777 846.442,-93.1734 852.365,-96.9044"/>
</g>
<!-- Node24&#45;&gt;Node9 -->
<g id="edge48" class="edge"><title>Node24&#45;&gt;Node9</title>
<path fill="none" stroke="midnightblue" d="M686.415,-268.289C684.891,-223.352 682.808,-85.5589 713,-56 744.348,-25.3093 1045.2,-14.747 1155.08,-11.8953"/>
<polygon fill="midnightblue" stroke="midnightblue" points="1155.49,-15.386 1165.4,-11.6356 1155.32,-8.38824 1155.49,-15.386"/>
</g>
<!-- Node24&#45;&gt;Node19 -->
<g id="edge46" class="edge"><title>Node24&#45;&gt;Node19</title>
<path fill="none" stroke="midnightblue" d="M742.017,-268.476C781.597,-258.387 835.13,-244.741 876.849,-234.107"/>
<polygon fill="midnightblue" stroke="midnightblue" points="877.816,-237.473 886.642,-231.611 876.087,-230.689 877.816,-237.473"/>
</g>
<!-- Node25&#45;&gt;Node6 -->
<g id="edge51" class="edge"><title>Node25&#45;&gt;Node6</title>
<path fill="none" stroke="midnightblue" d="M985.745,-268.32C1002.68,-260.449 1020.29,-248.768 1030,-232 1040.45,-213.957 1032.44,-146.956 1022,-134 997.014,-103.002 953.896,-89.1089 918.424,-82.9086"/>
<polygon fill="midnightblue" stroke="midnightblue" points="918.591,-79.3917 908.167,-81.2883 917.498,-86.3059 918.591,-79.3917"/>
</g>
<!-- Node25&#45;&gt;Node9 -->
<g id="edge52" class="edge"><title>Node25&#45;&gt;Node9</title>
<path fill="none" stroke="midnightblue" d="M983.633,-268.457C1004.24,-260.096 1028.59,-247.971 1047,-232 1116.96,-171.322 1168.13,-70.0895 1187.02,-29.0774"/>
<polygon fill="midnightblue" stroke="midnightblue" points="1190.28,-30.3568 1191.21,-19.8027 1183.91,-27.4748 1190.28,-30.3568"/>
</g>
<!-- Node25&#45;&gt;Node19 -->
<g id="edge50" class="edge"><title>Node25&#45;&gt;Node19</title>
<path fill="none" stroke="midnightblue" d="M942,-268.396C942,-260.645 942,-250.812 942,-241.86"/>
<polygon fill="midnightblue" stroke="midnightblue" points="945.5,-241.576 942,-231.577 938.5,-241.577 945.5,-241.576"/>
</g>
<!-- Node26&#45;&gt;Node3 -->
<g id="edge55" class="edge"><title>Node26&#45;&gt;Node3</title>
<path fill="none" stroke="midnightblue" d="M1310.45,-335.476C1341.88,-325.557 1384.21,-312.201 1417.65,-301.648"/>
<polygon fill="midnightblue" stroke="midnightblue" points="1418.8,-304.958 1427.28,-298.611 1416.69,-298.282 1418.8,-304.958"/>
</g>
<!-- Node26&#45;&gt;Node6 -->
<g id="edge56" class="edge"><title>Node26&#45;&gt;Node6</title>
<path fill="none" stroke="midnightblue" d="M1289.88,-335.41C1302.25,-326.662 1316.16,-314.191 1323,-299 1328.65,-286.436 1329.12,-280.345 1323,-268 1279.35,-179.907 1236.7,-174.243 1147,-134 1072.35,-100.508 977.932,-86.9908 918.232,-81.5724"/>
<polygon fill="midnightblue" stroke="midnightblue" points="918.493,-78.082 908.23,-80.711 917.892,-85.0562 918.493,-78.082"/>
</g>
<!-- Node26&#45;&gt;Node9 -->
<g id="edge57" class="edge"><title>Node26&#45;&gt;Node9</title>
<path fill="none" stroke="midnightblue" d="M1293.58,-335.325C1308.75,-326.472 1327.06,-313.927 1340,-299 1366.43,-268.509 1380,-257.85 1380,-217.5 1380,-217.5 1380,-217.5 1380,-148.5 1380,-76.5447 1288.73,-37.8355 1234.41,-21.1678"/>
<polygon fill="midnightblue" stroke="midnightblue" points="1235.31,-17.7837 1224.72,-18.309 1233.32,-24.4973 1235.31,-17.7837"/>
</g>
<!-- Node26&#45;&gt;Node22 -->
<g id="edge54" class="edge"><title>Node26&#45;&gt;Node22</title>
<path fill="none" stroke="midnightblue" d="M1259.27,-335.396C1255.41,-327.304 1250.47,-316.944 1246.06,-307.685"/>
<polygon fill="midnightblue" stroke="midnightblue" points="1249.18,-306.096 1241.71,-298.577 1242.86,-309.109 1249.18,-306.096"/>
</g>
<!-- Node27&#45;&gt;Node5 -->
<g id="edge67" class="edge"><title>Node27&#45;&gt;Node5</title>
<path fill="none" stroke="midnightblue" d="M207.348,-268.495C194.651,-259.181 178.641,-246.101 167,-232 111.646,-164.947 69.3022,-68.7819 53.1375,-29.1401"/>
<polygon fill="midnightblue" stroke="midnightblue" points="56.3333,-27.7058 49.3617,-19.7279 49.8366,-30.3121 56.3333,-27.7058"/>
</g>
<!-- Node27&#45;&gt;Node6 -->
<g id="edge66" class="edge"><title>Node27&#45;&gt;Node6</title>
<path fill="none" stroke="midnightblue" d="M307.083,-279.013C417.246,-273.232 610.622,-259.473 675,-232 694.638,-223.619 800.83,-130.469 842.86,-93.2397"/>
<polygon fill="midnightblue" stroke="midnightblue" points="845.208,-95.8357 850.366,-86.5813 840.563,-90.5992 845.208,-95.8357"/>
</g>
<!-- Node27&#45;&gt;Node7 -->
<g id="edge65" class="edge"><title>Node27&#45;&gt;Node7</title>
<path fill="none" stroke="midnightblue" d="M206.705,-268.377C195.273,-259.461 182.273,-246.836 176,-232 155.374,-183.217 192.943,-123.188 214.462,-94.6242"/>
<polygon fill="midnightblue" stroke="midnightblue" points="217.4,-96.5478 220.79,-86.5101 211.88,-92.2428 217.4,-96.5478"/>
</g>
<!-- Node27&#45;&gt;Node16 -->
<g id="edge59" class="edge"><title>Node27&#45;&gt;Node16</title>
<path fill="none" stroke="midnightblue" d="M222.897,-268.133C219.629,-258.143 215.693,-244.441 214,-232 207.702,-185.711 214.948,-162.451 252,-134 305.954,-92.5703 387.608,-81.6459 433.189,-78.8583"/>
<polygon fill="midnightblue" stroke="midnightblue" points="433.616,-82.3411 443.424,-78.3333 433.257,-75.3503 433.616,-82.3411"/>
</g>
<!-- Node27&#45;&gt;Node17 -->
<g id="edge60" class="edge"><title>Node27&#45;&gt;Node17</title>
<path fill="none" stroke="midnightblue" d="M228.524,-268.38C230.509,-237.768 239.981,-165.516 285,-134 364.011,-78.6877 408.825,-132.213 499,-98 503.135,-96.4313 507.314,-94.2994 511.226,-92.0103"/>
<polygon fill="midnightblue" stroke="midnightblue" points="513.186,-94.9112 519.725,-86.5751 509.415,-89.014 513.186,-94.9112"/>
</g>
<!-- Node28 -->
<g id="node28" class="node"><title>Node28</title>
<g id="a_node28"><a xlink:href="ActionGeneric_8h.html" target="_top" xlink:title="end_effector/GraspingActions\l/ActionGeneric.h">
<polygon fill="none" stroke="black" points="256,-201.5 256,-231.5 414,-231.5 414,-201.5 256,-201.5"/>
<text text-anchor="start" x="264" y="-219.5" font-family="Helvetica,sans-Serif" font-size="10.00">end_effector/GraspingActions</text>
<text text-anchor="middle" x="335" y="-208.5" font-family="Helvetica,sans-Serif" font-size="10.00">/ActionGeneric.h</text>
</a>
</g>
</g>
<!-- Node27&#45;&gt;Node28 -->
<g id="edge61" class="edge"><title>Node27&#45;&gt;Node28</title>
<path fill="none" stroke="midnightblue" d="M251.217,-268.396C266.361,-259.197 286.33,-247.066 302.975,-236.955"/>
<polygon fill="midnightblue" stroke="midnightblue" points="305.098,-239.76 311.828,-231.577 301.464,-233.777 305.098,-239.76"/>
</g>
<!-- Node28&#45;&gt;Node6 -->
<g id="edge63" class="edge"><title>Node28&#45;&gt;Node6</title>
<path fill="none" stroke="midnightblue" d="M388.717,-201.431C493.359,-174.025 722.569,-113.994 817.51,-89.1283"/>
<polygon fill="midnightblue" stroke="midnightblue" points="818.554,-92.473 827.341,-86.5535 816.78,-85.7014 818.554,-92.473"/>
</g>
<!-- Node28&#45;&gt;Node7 -->
<g id="edge64" class="edge"><title>Node28&#45;&gt;Node7</title>
<path fill="none" stroke="midnightblue" d="M264.263,-201.458C244.71,-193.976 225.675,-182.523 214,-165 200.187,-144.267 209.612,-114.708 218.3,-95.9405"/>
<polygon fill="midnightblue" stroke="midnightblue" points="221.555,-97.2582 222.899,-86.749 215.295,-94.126 221.555,-97.2582"/>
</g>
<!-- Node28&#45;&gt;Node15 -->
<g id="edge62" class="edge"><title>Node28&#45;&gt;Node15</title>
<path fill="none" stroke="midnightblue" d="M343.245,-201.396C348.026,-193.219 354.161,-182.725 359.616,-173.393"/>
<polygon fill="midnightblue" stroke="midnightblue" points="362.745,-174.976 364.771,-164.577 356.702,-171.443 362.745,-174.976"/>
</g>
<!-- Node29&#45;&gt;Node6 -->
<g id="edge74" class="edge"><title>Node29&#45;&gt;Node6</title>
<path fill="none" stroke="midnightblue" d="M614.933,-201.431C667.915,-174.746 782.308,-117.131 833.865,-91.1632"/>
<polygon fill="midnightblue" stroke="midnightblue" points="835.661,-94.1778 843.017,-86.5535 832.512,-87.926 835.661,-94.1778"/>
</g>
<!-- Node29&#45;&gt;Node7 -->
<g id="edge73" class="edge"><title>Node29&#45;&gt;Node7</title>
<path fill="none" stroke="midnightblue" d="M507.906,-209.461C431.045,-202.332 320.836,-188.388 285,-165 259.632,-148.444 243.035,-116.226 234.606,-95.9832"/>
<polygon fill="midnightblue" stroke="midnightblue" points="237.85,-94.667 230.94,-86.6351 231.333,-97.2227 237.85,-94.667"/>
</g>
<!-- Node29&#45;&gt;Node15 -->
<g id="edge72" class="edge"><title>Node29&#45;&gt;Node15</title>
<path fill="none" stroke="midnightblue" d="M540.829,-201.476C508.174,-191.557 464.2,-178.201 429.457,-167.648"/>
<polygon fill="midnightblue" stroke="midnightblue" points="430.043,-164.168 419.457,-164.611 428.009,-170.866 430.043,-164.168"/>
</g>
<!-- Node29&#45;&gt;Node16 -->
<g id="edge69" class="edge"><title>Node29&#45;&gt;Node16</title>
<path fill="none" stroke="midnightblue" d="M574.61,-201.303C552.24,-175.67 505.226,-121.801 481.439,-94.5452"/>
<polygon fill="midnightblue" stroke="midnightblue" points="483.806,-91.9335 474.593,-86.7007 478.532,-96.5363 483.806,-91.9335"/>
</g>
<!-- Node29&#45;&gt;Node17 -->
<g id="edge70" class="edge"><title>Node29&#45;&gt;Node17</title>
<path fill="none" stroke="midnightblue" d="M581.218,-201.303C570.959,-176.114 549.595,-123.658 538.325,-95.9847"/>
<polygon fill="midnightblue" stroke="midnightblue" points="541.557,-94.6418 534.544,-86.7007 535.074,-97.2822 541.557,-94.6418"/>
</g>
<!-- Node29&#45;&gt;Node18 -->
<g id="edge71" class="edge"><title>Node29&#45;&gt;Node18</title>
<path fill="none" stroke="midnightblue" d="M602.901,-201.303C631.982,-175.337 693.515,-120.397 723.643,-93.4969"/>
<polygon fill="midnightblue" stroke="midnightblue" points="726.127,-95.9716 731.255,-86.7007 721.465,-90.7501 726.127,-95.9716"/>
</g>
<!-- Node30&#45;&gt;Node9 -->
<g id="edge79" class="edge"><title>Node30&#45;&gt;Node9</title>
<path fill="none" stroke="midnightblue" d="M1572.94,-139.922C1551.82,-117.494 1496.16,-58.6514 1491,-56 1447.03,-33.3893 1304.96,-19.5337 1234.86,-13.9069"/>
<polygon fill="midnightblue" stroke="midnightblue" points="1234.9,-10.3994 1224.66,-13.1054 1234.35,-17.3779 1234.9,-10.3994"/>
</g>
<!-- Node30&#45;&gt;Node16 -->
<g id="edge77" class="edge"><title>Node30&#45;&gt;Node16</title>
<path fill="none" stroke="midnightblue" d="M1505.43,-147.125C1275.68,-142.646 595.364,-127.058 500,-98 495.406,-96.6002 490.797,-94.416 486.542,-91.9965"/>
<polygon fill="midnightblue" stroke="midnightblue" points="488.254,-88.938 477.935,-86.5373 484.505,-94.8492 488.254,-88.938"/>
</g>
<!-- Node30&#45;&gt;Node17 -->
<g id="edge76" class="edge"><title>Node30&#45;&gt;Node17</title>
<path fill="none" stroke="midnightblue" d="M1505.44,-145.411C1354.62,-138.956 1005.57,-122.569 713,-98 660.385,-93.5814 599.427,-86.4769 563.102,-82.0321"/>
<polygon fill="midnightblue" stroke="midnightblue" points="563.45,-78.5486 553.097,-80.7987 562.594,-85.496 563.45,-78.5486"/>
</g>
<!-- Node30&#45;&gt;Node18 -->
<g id="edge78" class="edge"><title>Node30&#45;&gt;Node18</title>
<path fill="none" stroke="midnightblue" d="M1505.32,-145.97C1337.02,-139.957 936.124,-123.386 803,-98 792.001,-95.9026 780.237,-92.4364 769.945,-88.9737"/>
<polygon fill="midnightblue" stroke="midnightblue" points="770.82,-85.5718 760.225,-85.5631 768.502,-92.1769 770.82,-85.5718"/>
</g>
<!-- Node31 -->
<g id="node31" class="node"><title>Node31</title>
<polygon fill="none" stroke="#bfbfbf" points="1543,-56.5 1543,-97.5 1659,-97.5 1659,-56.5 1543,-56.5"/>
<text text-anchor="start" x="1551" y="-85.5" font-family="Helvetica,sans-Serif" font-size="10.00">moveit/robot_model</text>
<text text-anchor="start" x="1551" y="-74.5" font-family="Helvetica,sans-Serif" font-size="10.00">_loader/robot_model</text>
<text text-anchor="middle" x="1601" y="-63.5" font-family="Helvetica,sans-Serif" font-size="10.00">_loader.h</text>
</g>
<!-- Node30&#45;&gt;Node31 -->
<g id="edge80" class="edge"><title>Node30&#45;&gt;Node31</title>
<path fill="none" stroke="midnightblue" d="M1583.45,-139.855C1585.74,-131.779 1589.3,-119.247 1592.61,-107.57"/>
<polygon fill="midnightblue" stroke="midnightblue" points="1596.06,-108.237 1595.42,-97.6616 1589.33,-106.327 1596.06,-108.237"/>
</g>
<!-- Node32 -->
<g id="node32" class="node"><title>Node32</title>
<polygon fill="none" stroke="#bfbfbf" points="1677,-67.5 1677,-86.5 1737,-86.5 1737,-67.5 1677,-67.5"/>
<text text-anchor="middle" x="1707" y="-74.5" font-family="Helvetica,sans-Serif" font-size="10.00">tinyxml.h</text>
</g>
<!-- Node30&#45;&gt;Node32 -->
<g id="edge81" class="edge"><title>Node30&#45;&gt;Node32</title>
<path fill="none" stroke="midnightblue" d="M1596.45,-139.855C1617.89,-127.857 1656.91,-106.028 1682.39,-91.7719"/>
<polygon fill="midnightblue" stroke="midnightblue" points="1684.41,-94.6527 1691.42,-86.7154 1680.99,-88.5439 1684.41,-94.6527"/>
</g>
</g>
</svg>
