<?xml version="1.0" encoding="UTF-8" standalone="no"?>
<!DOCTYPE svg PUBLIC "-//W3C//DTD SVG 1.1//EN"
 "http://www.w3.org/Graphics/SVG/1.1/DTD/svg11.dtd">
<!-- Generated by graphviz version 2.38.0 (20140413.2041)
 -->
<!-- Title: /home/travis/build/ADVRHumanoids/ROSEndEffector/include/ROSEndEffector/IMotor.h Pages: 1 -->
<svg width="627pt" height="373pt"
 viewBox="0.00 0.00 627.00 373.00" xmlns="http://www.w3.org/2000/svg" xmlns:xlink="http://www.w3.org/1999/xlink">
<g id="graph0" class="graph" transform="scale(1 1) rotate(0) translate(4 369)">
<title>/home/travis/build/ADVRHumanoids/ROSEndEffector/include/ROSEndEffector/IMotor.h</title>
<!-- Node1 -->
<g id="node1" class="node"><title>Node1</title>
<polygon fill="#bfbfbf" stroke="black" points="234,-323.5 234,-364.5 413,-364.5 413,-323.5 234,-323.5"/>
<text text-anchor="start" x="242" y="-352.5" font-family="Helvetica,sans-Serif" font-size="10.00">/home/travis/build</text>
<text text-anchor="start" x="242" y="-341.5" font-family="Helvetica,sans-Serif" font-size="10.00">/ADVRHumanoids/ROSEndEffector</text>
<text text-anchor="middle" x="323.5" y="-330.5" font-family="Helvetica,sans-Serif" font-size="10.00">/include/ROSEndEffector/IMotor.h</text>
</g>
<!-- Node2 -->
<g id="node2" class="node"><title>Node2</title>
<g id="a_node2"><a xlink:href="EEHal_8h.html" target="_top" xlink:title="/home/travis/build\l/ADVRHumanoids/ROSEndEffector\l/include/ROSEndEffector/EEHal.h">
<polygon fill="none" stroke="black" points="234,-245.5 234,-286.5 413,-286.5 413,-245.5 234,-245.5"/>
<text text-anchor="start" x="242" y="-274.5" font-family="Helvetica,sans-Serif" font-size="10.00">/home/travis/build</text>
<text text-anchor="start" x="242" y="-263.5" font-family="Helvetica,sans-Serif" font-size="10.00">/ADVRHumanoids/ROSEndEffector</text>
<text text-anchor="middle" x="323.5" y="-252.5" font-family="Helvetica,sans-Serif" font-size="10.00">/include/ROSEndEffector/EEHal.h</text>
</a>
</g>
</g>
<!-- Node1&#45;&gt;Node2 -->
<g id="edge1" class="edge"><title>Node1&#45;&gt;Node2</title>
<path fill="none" stroke="midnightblue" d="M323.5,-313.297C323.5,-304.301 323.5,-294.653 323.5,-286.506"/>
<polygon fill="midnightblue" stroke="midnightblue" points="320,-313.428 323.5,-323.428 327,-313.428 320,-313.428"/>
</g>
<!-- Node3 -->
<g id="node3" class="node"><title>Node3</title>
<g id="a_node3"><a xlink:href="DummyHal_8h.html" target="_top" xlink:title="/home/travis/build\l/ADVRHumanoids/ROSEndEffector\l/include/ROSEndEffector/DummyHal.h">
<polygon fill="none" stroke="black" points="225,-167.5 225,-208.5 422,-208.5 422,-167.5 225,-167.5"/>
<text text-anchor="start" x="233" y="-196.5" font-family="Helvetica,sans-Serif" font-size="10.00">/home/travis/build</text>
<text text-anchor="start" x="233" y="-185.5" font-family="Helvetica,sans-Serif" font-size="10.00">/ADVRHumanoids/ROSEndEffector</text>
<text text-anchor="middle" x="323.5" y="-174.5" font-family="Helvetica,sans-Serif" font-size="10.00">/include/ROSEndEffector/DummyHal.h</text>
</a>
</g>
</g>
<!-- Node2&#45;&gt;Node3 -->
<g id="edge2" class="edge"><title>Node2&#45;&gt;Node3</title>
<path fill="none" stroke="midnightblue" d="M323.5,-235.297C323.5,-226.301 323.5,-216.653 323.5,-208.506"/>
<polygon fill="midnightblue" stroke="midnightblue" points="320,-235.428 323.5,-245.428 327,-235.428 320,-235.428"/>
</g>
<!-- Node4 -->
<g id="node4" class="node"><title>Node4</title>
<g id="a_node4"><a xlink:href="UniversalRosEndEffectorExecutor_8h.html" target="_top" xlink:title="/home/travis/build\l/ADVRHumanoids/ROSEndEffector\l/include/ROSEndEffector/UniversalRos\lEndEffectorExecutor.h">
<polygon fill="none" stroke="black" points="98.5,-78.5 98.5,-130.5 294.5,-130.5 294.5,-78.5 98.5,-78.5"/>
<text text-anchor="start" x="106.5" y="-118.5" font-family="Helvetica,sans-Serif" font-size="10.00">/home/travis/build</text>
<text text-anchor="start" x="106.5" y="-107.5" font-family="Helvetica,sans-Serif" font-size="10.00">/ADVRHumanoids/ROSEndEffector</text>
<text text-anchor="start" x="106.5" y="-96.5" font-family="Helvetica,sans-Serif" font-size="10.00">/include/ROSEndEffector/UniversalRos</text>
<text text-anchor="middle" x="196.5" y="-85.5" font-family="Helvetica,sans-Serif" font-size="10.00">EndEffectorExecutor.h</text>
</a>
</g>
</g>
<!-- Node2&#45;&gt;Node4 -->
<g id="edge7" class="edge"><title>Node2&#45;&gt;Node4</title>
<path fill="none" stroke="midnightblue" d="M253.824,-240.715C239.244,-232.684 225.331,-222.287 215.5,-209 198.766,-186.383 195.29,-153.523 195.176,-130.928"/>
<polygon fill="midnightblue" stroke="midnightblue" points="252.465,-243.952 262.959,-245.415 255.668,-237.728 252.465,-243.952"/>
</g>
<!-- Node8 -->
<g id="node8" class="node"><title>Node8</title>
<g id="a_node8"><a xlink:href="EEHal_8cpp.html" target="_top" xlink:title="/home/travis/build\l/ADVRHumanoids/ROSEndEffector\l/src/EEHal.cpp">
<polygon fill="none" stroke="black" points="440,-167.5 440,-208.5 619,-208.5 619,-167.5 440,-167.5"/>
<text text-anchor="start" x="448" y="-196.5" font-family="Helvetica,sans-Serif" font-size="10.00">/home/travis/build</text>
<text text-anchor="start" x="448" y="-185.5" font-family="Helvetica,sans-Serif" font-size="10.00">/ADVRHumanoids/ROSEndEffector</text>
<text text-anchor="middle" x="529.5" y="-174.5" font-family="Helvetica,sans-Serif" font-size="10.00">/src/EEHal.cpp</text>
</a>
</g>
</g>
<!-- Node2&#45;&gt;Node8 -->
<g id="edge8" class="edge"><title>Node2&#45;&gt;Node8</title>
<path fill="none" stroke="midnightblue" d="M386.147,-241.887C415.066,-231.219 449.024,-218.69 476.63,-208.506"/>
<polygon fill="midnightblue" stroke="midnightblue" points="384.721,-238.683 376.55,-245.428 387.143,-245.25 384.721,-238.683"/>
</g>
<!-- Node3&#45;&gt;Node4 -->
<g id="edge3" class="edge"><title>Node3&#45;&gt;Node4</title>
<path fill="none" stroke="midnightblue" d="M284.301,-161.845C268.891,-151.956 251.233,-140.624 235.812,-130.728"/>
<polygon fill="midnightblue" stroke="midnightblue" points="282.774,-165.023 293.08,-167.479 286.555,-159.132 282.774,-165.023"/>
</g>
<!-- Node7 -->
<g id="node7" class="node"><title>Node7</title>
<g id="a_node7"><a xlink:href="DummyHal_8cpp.html" target="_top" xlink:title="/home/travis/build\l/ADVRHumanoids/ROSEndEffector\l/src/DummyHal.cpp">
<polygon fill="none" stroke="black" points="313,-84 313,-125 492,-125 492,-84 313,-84"/>
<text text-anchor="start" x="321" y="-113" font-family="Helvetica,sans-Serif" font-size="10.00">/home/travis/build</text>
<text text-anchor="start" x="321" y="-102" font-family="Helvetica,sans-Serif" font-size="10.00">/ADVRHumanoids/ROSEndEffector</text>
<text text-anchor="middle" x="402.5" y="-91" font-family="Helvetica,sans-Serif" font-size="10.00">/src/DummyHal.cpp</text>
</a>
</g>
</g>
<!-- Node3&#45;&gt;Node7 -->
<g id="edge6" class="edge"><title>Node3&#45;&gt;Node7</title>
<path fill="none" stroke="midnightblue" d="M349.635,-160.038C360.718,-148.604 373.392,-135.529 383.552,-125.047"/>
<polygon fill="midnightblue" stroke="midnightblue" points="347.071,-157.655 342.624,-167.271 352.097,-162.527 347.071,-157.655"/>
</g>
<!-- Node5 -->
<g id="node5" class="node"><title>Node5</title>
<g id="a_node5"><a xlink:href="UniversalRosEndEffector_8cpp.html" target="_top" xlink:title="/home/travis/build\l/ADVRHumanoids/ROSEndEffector\l/src/UniversalRosEndEffector.cpp">
<polygon fill="none" stroke="black" points="0,-0.5 0,-41.5 179,-41.5 179,-0.5 0,-0.5"/>
<text text-anchor="start" x="8" y="-29.5" font-family="Helvetica,sans-Serif" font-size="10.00">/home/travis/build</text>
<text text-anchor="start" x="8" y="-18.5" font-family="Helvetica,sans-Serif" font-size="10.00">/ADVRHumanoids/ROSEndEffector</text>
<text text-anchor="middle" x="89.5" y="-7.5" font-family="Helvetica,sans-Serif" font-size="10.00">/src/UniversalRosEndEffector.cpp</text>
</a>
</g>
</g>
<!-- Node4&#45;&gt;Node5 -->
<g id="edge4" class="edge"><title>Node4&#45;&gt;Node5</title>
<path fill="none" stroke="midnightblue" d="M155.338,-72.1475C141.912,-61.921 127.389,-50.8594 115.408,-41.7338"/>
<polygon fill="midnightblue" stroke="midnightblue" points="153.447,-75.1073 163.523,-78.3823 157.689,-69.5386 153.447,-75.1073"/>
</g>
<!-- Node6 -->
<g id="node6" class="node"><title>Node6</title>
<g id="a_node6"><a xlink:href="UniversalRosEndEffectorExecutor_8cpp.html" target="_top" xlink:title="/home/travis/build\l/ADVRHumanoids/ROSEndEffector\l/src/UniversalRosEndEffectorExecutor.cpp">
<polygon fill="none" stroke="black" points="197,-0.5 197,-41.5 412,-41.5 412,-0.5 197,-0.5"/>
<text text-anchor="start" x="205" y="-29.5" font-family="Helvetica,sans-Serif" font-size="10.00">/home/travis/build</text>
<text text-anchor="start" x="205" y="-18.5" font-family="Helvetica,sans-Serif" font-size="10.00">/ADVRHumanoids/ROSEndEffector</text>
<text text-anchor="middle" x="304.5" y="-7.5" font-family="Helvetica,sans-Serif" font-size="10.00">/src/UniversalRosEndEffectorExecutor.cpp</text>
</a>
</g>
</g>
<!-- Node4&#45;&gt;Node6 -->
<g id="edge5" class="edge"><title>Node4&#45;&gt;Node6</title>
<path fill="none" stroke="midnightblue" d="M238.047,-72.1475C251.599,-61.921 266.257,-50.8594 278.35,-41.7338"/>
<polygon fill="midnightblue" stroke="midnightblue" points="235.659,-69.5648 229.785,-78.3823 239.875,-75.1524 235.659,-69.5648"/>
</g>
</g>
</svg>
