<?xml version="1.0" encoding="UTF-8" standalone="no"?>
<!DOCTYPE svg PUBLIC "-//W3C//DTD SVG 1.1//EN"
 "http://www.w3.org/Graphics/SVG/1.1/DTD/svg11.dtd">
<!-- Generated by graphviz version 2.38.0 (20140413.2041)
 -->
<!-- Title: /home/lucamuratore/src/ros_end_effector__ws/src/ROSEndEffector/include/ROSEndEffector/IMotor.h Pages: 1 -->
<svg width="404pt" height="361pt"
 viewBox="0.00 0.00 404.00 361.00" xmlns="http://www.w3.org/2000/svg" xmlns:xlink="http://www.w3.org/1999/xlink">
<g id="graph0" class="graph" transform="scale(1 1) rotate(0) translate(4 357)">
<title>/home/lucamuratore/src/ros_end_effector__ws/src/ROSEndEffector/include/ROSEndEffector/IMotor.h</title>
<!-- Node1 -->
<g id="node1" class="node"><title>Node1</title>
<polygon fill="#bfbfbf" stroke="black" points="168,-289.5 168,-352.5 301,-352.5 301,-289.5 168,-289.5"/>
<text text-anchor="start" x="176" y="-340.5" font-family="Helvetica,sans-Serif" font-size="10.00">/home/lucamuratore</text>
<text text-anchor="start" x="176" y="-329.5" font-family="Helvetica,sans-Serif" font-size="10.00">/src/ros_end_effector</text>
<text text-anchor="start" x="176" y="-318.5" font-family="Helvetica,sans-Serif" font-size="10.00">__ws/src/ROSEndEffector</text>
<text text-anchor="start" x="176" y="-307.5" font-family="Helvetica,sans-Serif" font-size="10.00">/include/ROSEndEffector</text>
<text text-anchor="middle" x="234.5" y="-296.5" font-family="Helvetica,sans-Serif" font-size="10.00">/IMotor.h</text>
</g>
<!-- Node2 -->
<g id="node2" class="node"><title>Node2</title>
<g id="a_node2"><a xlink:href="EEHal_8h.html" target="_top" xlink:title="/home/lucamuratore\l/src/ros_end_effector\l__ws/src/ROSEndEffector\l/include/ROSEndEffector\l/EEHal.h">
<polygon fill="none" stroke="black" points="168,-189.5 168,-252.5 301,-252.5 301,-189.5 168,-189.5"/>
<text text-anchor="start" x="176" y="-240.5" font-family="Helvetica,sans-Serif" font-size="10.00">/home/lucamuratore</text>
<text text-anchor="start" x="176" y="-229.5" font-family="Helvetica,sans-Serif" font-size="10.00">/src/ros_end_effector</text>
<text text-anchor="start" x="176" y="-218.5" font-family="Helvetica,sans-Serif" font-size="10.00">__ws/src/ROSEndEffector</text>
<text text-anchor="start" x="176" y="-207.5" font-family="Helvetica,sans-Serif" font-size="10.00">/include/ROSEndEffector</text>
<text text-anchor="middle" x="234.5" y="-196.5" font-family="Helvetica,sans-Serif" font-size="10.00">/EEHal.h</text>
</a>
</g>
</g>
<!-- Node1&#45;&gt;Node2 -->
<g id="edge1" class="edge"><title>Node1&#45;&gt;Node2</title>
<path fill="none" stroke="midnightblue" d="M234.5,-279.099C234.5,-270.238 234.5,-261.015 234.5,-252.63"/>
<polygon fill="midnightblue" stroke="midnightblue" points="231,-279.261 234.5,-289.261 238,-279.261 231,-279.261"/>
</g>
<!-- Node3 -->
<g id="node3" class="node"><title>Node3</title>
<g id="a_node3"><a xlink:href="DummyHal_8h.html" target="_top" xlink:title="/home/lucamuratore\l/src/ros_end_effector\l__ws/src/ROSEndEffector\l/include/ROSEndEffector\l/DummyHal.h">
<polygon fill="none" stroke="black" points="73,-89.5 73,-152.5 206,-152.5 206,-89.5 73,-89.5"/>
<text text-anchor="start" x="81" y="-140.5" font-family="Helvetica,sans-Serif" font-size="10.00">/home/lucamuratore</text>
<text text-anchor="start" x="81" y="-129.5" font-family="Helvetica,sans-Serif" font-size="10.00">/src/ros_end_effector</text>
<text text-anchor="start" x="81" y="-118.5" font-family="Helvetica,sans-Serif" font-size="10.00">__ws/src/ROSEndEffector</text>
<text text-anchor="start" x="81" y="-107.5" font-family="Helvetica,sans-Serif" font-size="10.00">/include/ROSEndEffector</text>
<text text-anchor="middle" x="139.5" y="-96.5" font-family="Helvetica,sans-Serif" font-size="10.00">/DummyHal.h</text>
</a>
</g>
</g>
<!-- Node2&#45;&gt;Node3 -->
<g id="edge2" class="edge"><title>Node2&#45;&gt;Node3</title>
<path fill="none" stroke="midnightblue" d="M197.638,-181.974C188.215,-172.253 178.204,-161.926 169.192,-152.63"/>
<polygon fill="midnightblue" stroke="midnightblue" points="195.229,-184.517 204.702,-189.261 200.255,-179.645 195.229,-184.517"/>
</g>
<!-- Node5 -->
<g id="node5" class="node"><title>Node5</title>
<g id="a_node5"><a xlink:href="UniversalRosEndEffector_8cpp.html" target="_top" xlink:title="/home/lucamuratore\l/src/ros_end_effector\l__ws/src/ROSEndEffector\l/src/UniversalRosEndEffector.cpp">
<polygon fill="none" stroke="black" points="151.5,-0.5 151.5,-52.5 317.5,-52.5 317.5,-0.5 151.5,-0.5"/>
<text text-anchor="start" x="159.5" y="-40.5" font-family="Helvetica,sans-Serif" font-size="10.00">/home/lucamuratore</text>
<text text-anchor="start" x="159.5" y="-29.5" font-family="Helvetica,sans-Serif" font-size="10.00">/src/ros_end_effector</text>
<text text-anchor="start" x="159.5" y="-18.5" font-family="Helvetica,sans-Serif" font-size="10.00">__ws/src/ROSEndEffector</text>
<text text-anchor="middle" x="234.5" y="-7.5" font-family="Helvetica,sans-Serif" font-size="10.00">/src/UniversalRosEndEffector.cpp</text>
</a>
</g>
</g>
<!-- Node2&#45;&gt;Node5 -->
<g id="edge6" class="edge"><title>Node2&#45;&gt;Node5</title>
<path fill="none" stroke="midnightblue" d="M234.5,-179.199C234.5,-140.892 234.5,-84.7993 234.5,-52.6452"/>
<polygon fill="midnightblue" stroke="midnightblue" points="231,-179.498 234.5,-189.498 238,-179.498 231,-179.498"/>
</g>
<!-- Node6 -->
<g id="node6" class="node"><title>Node6</title>
<g id="a_node6"><a xlink:href="EEHal_8cpp.html" target="_top" xlink:title="/home/lucamuratore\l/src/ros_end_effector\l__ws/src/ROSEndEffector\l/src/EEHal.cpp">
<polygon fill="none" stroke="black" points="263,-95 263,-147 396,-147 396,-95 263,-95"/>
<text text-anchor="start" x="271" y="-135" font-family="Helvetica,sans-Serif" font-size="10.00">/home/lucamuratore</text>
<text text-anchor="start" x="271" y="-124" font-family="Helvetica,sans-Serif" font-size="10.00">/src/ros_end_effector</text>
<text text-anchor="start" x="271" y="-113" font-family="Helvetica,sans-Serif" font-size="10.00">__ws/src/ROSEndEffector</text>
<text text-anchor="middle" x="329.5" y="-102" font-family="Helvetica,sans-Serif" font-size="10.00">/src/EEHal.cpp</text>
</a>
</g>
</g>
<!-- Node2&#45;&gt;Node6 -->
<g id="edge5" class="edge"><title>Node2&#45;&gt;Node6</title>
<path fill="none" stroke="midnightblue" d="M271.573,-181.756C282.869,-170.104 294.992,-157.598 305.213,-147.054"/>
<polygon fill="midnightblue" stroke="midnightblue" points="268.745,-179.645 264.298,-189.261 273.771,-184.517 268.745,-179.645"/>
</g>
<!-- Node4 -->
<g id="node4" class="node"><title>Node4</title>
<g id="a_node4"><a xlink:href="DummyHal_8cpp.html" target="_top" xlink:title="/home/lucamuratore\l/src/ros_end_effector\l__ws/src/ROSEndEffector\l/src/DummyHal.cpp">
<polygon fill="none" stroke="black" points="0,-0.5 0,-52.5 133,-52.5 133,-0.5 0,-0.5"/>
<text text-anchor="start" x="8" y="-40.5" font-family="Helvetica,sans-Serif" font-size="10.00">/home/lucamuratore</text>
<text text-anchor="start" x="8" y="-29.5" font-family="Helvetica,sans-Serif" font-size="10.00">/src/ros_end_effector</text>
<text text-anchor="start" x="8" y="-18.5" font-family="Helvetica,sans-Serif" font-size="10.00">__ws/src/ROSEndEffector</text>
<text text-anchor="middle" x="66.5" y="-7.5" font-family="Helvetica,sans-Serif" font-size="10.00">/src/DummyHal.cpp</text>
</a>
</g>
</g>
<!-- Node3&#45;&gt;Node4 -->
<g id="edge3" class="edge"><title>Node3&#45;&gt;Node4</title>
<path fill="none" stroke="midnightblue" d="M109.088,-81.4641C101.44,-71.7739 93.4262,-61.6188 86.4393,-52.7655"/>
<polygon fill="midnightblue" stroke="midnightblue" points="106.452,-83.774 115.395,-89.4557 111.947,-79.4375 106.452,-83.774"/>
</g>
<!-- Node3&#45;&gt;Node5 -->
<g id="edge4" class="edge"><title>Node3&#45;&gt;Node5</title>
<path fill="none" stroke="midnightblue" d="M178.183,-82.3349C188.403,-72.3843 199.186,-61.8844 208.552,-52.7655"/>
<polygon fill="midnightblue" stroke="midnightblue" points="175.593,-79.9718 170.87,-89.4557 180.476,-84.9871 175.593,-79.9718"/>
</g>
</g>
</svg>
