<?xml version="1.0" encoding="UTF-8" standalone="no"?>
<!DOCTYPE svg PUBLIC "-//W3C//DTD SVG 1.1//EN"
 "http://www.w3.org/Graphics/SVG/1.1/DTD/svg11.dtd">
<!-- Generated by graphviz version 2.38.0 (20140413.2041)
 -->
<!-- Title: Graphical Class Hierarchy Pages: 1 -->
<svg width="621pt" height="166pt"
 viewBox="0.00 0.00 621.00 165.50" xmlns="http://www.w3.org/2000/svg" xmlns:xlink="http://www.w3.org/1999/xlink">
<g id="graph0" class="graph" transform="scale(1 1) rotate(0) translate(4 161.5)">
<title>Graphical Class Hierarchy</title>
<!-- Node1 -->
<g id="node1" class="node"><title>Node1</title>
<g id="a_node1"><a xlink:href="classROSEE_1_1Action.html" target="_top" xlink:title="The pure virtual class representing an Action. ">
<polygon fill="none" stroke="black" points="0,-55.5 0,-74.5 85,-74.5 85,-55.5 0,-55.5"/>
<text text-anchor="middle" x="42.5" y="-62.5" font-family="Helvetica,sans-Serif" font-size="10.00">ROSEE::Action</text>
</a>
</g>
</g>
<!-- Node2 -->
<g id="node2" class="node"><title>Node2</title>
<g id="a_node2"><a xlink:href="classROSEE_1_1ActionGeneric.html" target="_top" xlink:title="Class to handle a generic, simple action. ">
<polygon fill="none" stroke="black" points="123,-115.5 123,-134.5 245,-134.5 245,-115.5 123,-115.5"/>
<text text-anchor="middle" x="184" y="-122.5" font-family="Helvetica,sans-Serif" font-size="10.00">ROSEE::ActionGeneric</text>
</a>
</g>
</g>
<!-- Node1&#45;&gt;Node2 -->
<g id="edge1" class="edge"><title>Node1&#45;&gt;Node2</title>
<path fill="none" stroke="midnightblue" d="M75.0299,-78.5613C101.064,-89.7587 137.375,-105.376 160.537,-115.339"/>
<polygon fill="midnightblue" stroke="midnightblue" points="76.1734,-75.2431 65.6042,-74.5072 73.4076,-81.6736 76.1734,-75.2431"/>
</g>
<!-- Node4 -->
<g id="node4" class="node"><title>Node4</title>
<g id="a_node4"><a xlink:href="classROSEE_1_1ActionPrimitive.html" target="_top" xlink:title="Virtual class, Base of all the primitive actions. ">
<polygon fill="none" stroke="black" points="121,-55.5 121,-74.5 247,-74.5 247,-55.5 121,-55.5"/>
<text text-anchor="middle" x="184" y="-62.5" font-family="Helvetica,sans-Serif" font-size="10.00">ROSEE::ActionPrimitive</text>
</a>
</g>
</g>
<!-- Node1&#45;&gt;Node4 -->
<g id="edge3" class="edge"><title>Node1&#45;&gt;Node4</title>
<path fill="none" stroke="midnightblue" d="M95.5536,-65C103.784,-65 112.366,-65 120.799,-65"/>
<polygon fill="midnightblue" stroke="midnightblue" points="95.3546,-61.5001 85.3546,-65 95.3546,-68.5001 95.3546,-61.5001"/>
</g>
<!-- Node11 -->
<g id="node11" class="node"><title>Node11</title>
<g id="a_node11"><a xlink:href="classROSEE_1_1ActionTimed.html" target="_top" xlink:title="An action composed by other ones that must be executed one after other with some wait time (also 0) i...">
<polygon fill="none" stroke="black" points="127,-17.5 127,-36.5 241,-36.5 241,-17.5 127,-17.5"/>
<text text-anchor="middle" x="184" y="-24.5" font-family="Helvetica,sans-Serif" font-size="10.00">ROSEE::ActionTimed</text>
</a>
</g>
</g>
<!-- Node1&#45;&gt;Node11 -->
<g id="edge10" class="edge"><title>Node1&#45;&gt;Node11</title>
<path fill="none" stroke="midnightblue" d="M88.4564,-52.7538C107.685,-47.516 129.803,-41.4909 147.81,-36.5859"/>
<polygon fill="midnightblue" stroke="midnightblue" points="87.4303,-49.4057 78.7017,-55.411 89.2701,-56.1596 87.4303,-49.4057"/>
</g>
<!-- Node3 -->
<g id="node3" class="node"><title>Node3</title>
<g id="a_node3"><a xlink:href="classROSEE_1_1ActionComposed.html" target="_top" xlink:title="A ActionComposed, which is formed by one or more Primitives (or even other composed). ">
<polygon fill="none" stroke="black" points="288,-126.5 288,-145.5 425,-145.5 425,-126.5 288,-126.5"/>
<text text-anchor="middle" x="356.5" y="-133.5" font-family="Helvetica,sans-Serif" font-size="10.00">ROSEE::ActionComposed</text>
</a>
</g>
</g>
<!-- Node2&#45;&gt;Node3 -->
<g id="edge2" class="edge"><title>Node2&#45;&gt;Node3</title>
<path fill="none" stroke="midnightblue" d="M255.29,-129.535C266.034,-130.228 277.105,-130.942 287.792,-131.632"/>
<polygon fill="midnightblue" stroke="midnightblue" points="255.317,-126.029 245.112,-128.878 254.866,-133.015 255.317,-126.029"/>
</g>
<!-- Node5 -->
<g id="node5" class="node"><title>Node5</title>
<g id="a_node5"><a xlink:href="classROSEE_1_1ActionPinchGeneric.html" target="_top" xlink:title="A base virtual class for the PinchTight and PinchLoose classes. ">
<polygon fill="none" stroke="black" points="283,-88.5 283,-107.5 430,-107.5 430,-88.5 283,-88.5"/>
<text text-anchor="middle" x="356.5" y="-95.5" font-family="Helvetica,sans-Serif" font-size="10.00">ROSEE::ActionPinchGeneric</text>
</a>
</g>
</g>
<!-- Node4&#45;&gt;Node5 -->
<g id="edge4" class="edge"><title>Node4&#45;&gt;Node5</title>
<path fill="none" stroke="midnightblue" d="M244.358,-76.4886C264.583,-80.4031 286.956,-84.7333 306.295,-88.4765"/>
<polygon fill="midnightblue" stroke="midnightblue" points="244.799,-73.009 234.316,-74.545 243.468,-79.8815 244.799,-73.009"/>
</g>
<!-- Node9 -->
<g id="node9" class="node"><title>Node9</title>
<g id="a_node9"><a xlink:href="classROSEE_1_1ActionSingleJointMultipleTips.html" target="_top" xlink:title="Primitive which indicate a motion of n fingers moving ONLY ONE joint. ">
<polygon fill="none" stroke="black" points="289.5,-39 289.5,-69 423.5,-69 423.5,-39 289.5,-39"/>
<text text-anchor="start" x="297.5" y="-57" font-family="Helvetica,sans-Serif" font-size="10.00">ROSEE::ActionSingleJoint</text>
<text text-anchor="middle" x="356.5" y="-46" font-family="Helvetica,sans-Serif" font-size="10.00">MultipleTips</text>
</a>
</g>
</g>
<!-- Node4&#45;&gt;Node9 -->
<g id="edge8" class="edge"><title>Node4&#45;&gt;Node9</title>
<path fill="none" stroke="midnightblue" d="M257.2,-60.342C267.914,-59.6507 278.909,-58.9413 289.488,-58.2589"/>
<polygon fill="midnightblue" stroke="midnightblue" points="256.791,-56.861 247.037,-60.9976 257.241,-63.8465 256.791,-56.861"/>
</g>
<!-- Node10 -->
<g id="node10" class="node"><title>Node10</title>
<g id="a_node10"><a xlink:href="classROSEE_1_1ActionTrig.html" target="_top" xlink:title="The action of moving some joints (see later) of a single finger in a full clousure position towards t...">
<polygon fill="none" stroke="black" points="305.5,-0.5 305.5,-19.5 407.5,-19.5 407.5,-0.5 305.5,-0.5"/>
<text text-anchor="middle" x="356.5" y="-7.5" font-family="Helvetica,sans-Serif" font-size="10.00">ROSEE::ActionTrig</text>
</a>
</g>
</g>
<!-- Node4&#45;&gt;Node10 -->
<g id="edge9" class="edge"><title>Node4&#45;&gt;Node10</title>
<path fill="none" stroke="midnightblue" d="M229.36,-52.2576C235.336,-50.2935 241.35,-48.1866 247,-46 263.501,-39.6135 266.371,-35.0464 283,-29 292.783,-25.4429 303.532,-22.2535 313.687,-19.5494"/>
<polygon fill="midnightblue" stroke="midnightblue" points="227.883,-49.0544 219.411,-55.4169 230.002,-55.7261 227.883,-49.0544"/>
</g>
<!-- Node6 -->
<g id="node6" class="node"><title>Node6</title>
<g id="a_node6"><a xlink:href="classROSEE_1_1ActionMultiplePinchTight.html" target="_top" xlink:title="Class to describe the action of &quot;pinching&quot; with more than 2 tips (with 2 tips there is the ActionPinc...">
<polygon fill="none" stroke="black" points="466,-127 466,-157 613,-157 613,-127 466,-127"/>
<text text-anchor="start" x="474" y="-145" font-family="Helvetica,sans-Serif" font-size="10.00">ROSEE::ActionMultiplePinch</text>
<text text-anchor="middle" x="539.5" y="-134" font-family="Helvetica,sans-Serif" font-size="10.00">Tight</text>
</a>
</g>
</g>
<!-- Node5&#45;&gt;Node6 -->
<g id="edge5" class="edge"><title>Node5&#45;&gt;Node6</title>
<path fill="none" stroke="midnightblue" d="M406.679,-109.955C428.21,-115.189 453.715,-121.389 476.527,-126.935"/>
<polygon fill="midnightblue" stroke="midnightblue" points="407.318,-106.509 396.774,-107.547 405.665,-113.311 407.318,-106.509"/>
</g>
<!-- Node7 -->
<g id="node7" class="node"><title>Node7</title>
<g id="a_node7"><a xlink:href="classROSEE_1_1ActionPinchLoose.html" target="_top" xlink:title="The action of pinch with two tips. ">
<polygon fill="none" stroke="black" points="470,-88.5 470,-107.5 609,-107.5 609,-88.5 470,-88.5"/>
<text text-anchor="middle" x="539.5" y="-95.5" font-family="Helvetica,sans-Serif" font-size="10.00">ROSEE::ActionPinchLoose</text>
</a>
</g>
</g>
<!-- Node5&#45;&gt;Node7 -->
<g id="edge6" class="edge"><title>Node5&#45;&gt;Node7</title>
<path fill="none" stroke="midnightblue" d="M440.278,-98C450.128,-98 460.102,-98 469.727,-98"/>
<polygon fill="midnightblue" stroke="midnightblue" points="440.077,-94.5001 430.077,-98 440.077,-101.5 440.077,-94.5001"/>
</g>
<!-- Node8 -->
<g id="node8" class="node"><title>Node8</title>
<g id="a_node8"><a xlink:href="classROSEE_1_1ActionPinchTight.html" target="_top" xlink:title="The action of pinch with two tips. ">
<polygon fill="none" stroke="black" points="472.5,-50.5 472.5,-69.5 606.5,-69.5 606.5,-50.5 472.5,-50.5"/>
<text text-anchor="middle" x="539.5" y="-57.5" font-family="Helvetica,sans-Serif" font-size="10.00">ROSEE::ActionPinchTight</text>
</a>
</g>
</g>
<!-- Node5&#45;&gt;Node8 -->
<g id="edge7" class="edge"><title>Node5&#45;&gt;Node8</title>
<path fill="none" stroke="midnightblue" d="M413.138,-86.319C438.807,-80.9301 468.891,-74.6139 493.154,-69.5201"/>
<polygon fill="midnightblue" stroke="midnightblue" points="412.241,-82.9309 403.174,-88.411 413.68,-89.7816 412.241,-82.9309"/>
</g>
</g>
</svg>
