<?xml version="1.0" encoding="UTF-8" standalone="no"?>
<!DOCTYPE svg PUBLIC "-//W3C//DTD SVG 1.1//EN"
 "http://www.w3.org/Graphics/SVG/1.1/DTD/svg11.dtd">
<!-- Generated by graphviz version 2.38.0 (20140413.2041)
 -->
<!-- Title: Graphical Class Hierarchy Pages: 1 -->
<svg width="357pt" height="28pt"
 viewBox="0.00 0.00 357.00 28.00" xmlns="http://www.w3.org/2000/svg" xmlns:xlink="http://www.w3.org/1999/xlink">
<g id="graph0" class="graph" transform="scale(1 1) rotate(0) translate(4 24)">
<title>Graphical Class Hierarchy</title>
<!-- Node1 -->
<g id="node1" class="node"><title>Node1</title>
<g id="a_node1"><a xlink:href="classROSEE_1_1IMotor.html" target="_top" xlink:title="Class representing a Motor. ">
<polygon fill="none" stroke="black" points="0,-0.5 0,-19.5 85,-19.5 85,-0.5 0,-0.5"/>
<text text-anchor="middle" x="42.5" y="-7.5" font-family="Helvetica,sans-Serif" font-size="10.00">ROSEE::IMotor</text>
</a>
</g>
</g>
<!-- Node2 -->
<g id="node2" class="node"><title>Node2</title>
<g id="a_node2"><a xlink:href="classROSEE_1_1EEHal.html" target="_top" xlink:title="Class representing an end&#45;effector. ">
<polygon fill="none" stroke="black" points="121,-0.5 121,-19.5 204,-19.5 204,-0.5 121,-0.5"/>
<text text-anchor="middle" x="162.5" y="-7.5" font-family="Helvetica,sans-Serif" font-size="10.00">ROSEE::EEHal</text>
</a>
</g>
</g>
<!-- Node1&#45;&gt;Node2 -->
<g id="edge1" class="edge"><title>Node1&#45;&gt;Node2</title>
<path fill="none" stroke="midnightblue" d="M95.3109,-10C103.802,-10 112.494,-10 120.67,-10"/>
<polygon fill="midnightblue" stroke="midnightblue" points="95.1024,-6.5001 85.1024,-10 95.1024,-13.5001 95.1024,-6.5001"/>
</g>
<!-- Node3 -->
<g id="node3" class="node"><title>Node3</title>
<g id="a_node3"><a xlink:href="classROSEE_1_1DummyHal.html" target="_top" xlink:title="Class representing an end&#45;effector. ">
<polygon fill="none" stroke="black" points="240,-0.5 240,-19.5 349,-19.5 349,-0.5 240,-0.5"/>
<text text-anchor="middle" x="294.5" y="-7.5" font-family="Helvetica,sans-Serif" font-size="10.00">ROSEE::DummyHal</text>
</a>
</g>
</g>
<!-- Node2&#45;&gt;Node3 -->
<g id="edge2" class="edge"><title>Node2&#45;&gt;Node3</title>
<path fill="none" stroke="midnightblue" d="M214.337,-10C222.754,-10 231.504,-10 239.985,-10"/>
<polygon fill="midnightblue" stroke="midnightblue" points="214.276,-6.5001 204.276,-10 214.276,-13.5001 214.276,-6.5001"/>
</g>
</g>
</svg>
