<?xml version="1.0" encoding="UTF-8" standalone="no"?>
<!DOCTYPE svg PUBLIC "-//W3C//DTD SVG 1.1//EN"
 "http://www.w3.org/Graphics/SVG/1.1/DTD/svg11.dtd">
<!-- Generated by graphviz version 2.38.0 (20140413.2041)
 -->
<!-- Title: Graphical Class Hierarchy Pages: 1 -->
<svg width="236pt" height="66pt"
 viewBox="0.00 0.00 236.00 66.00" xmlns="http://www.w3.org/2000/svg" xmlns:xlink="http://www.w3.org/1999/xlink">
<g id="graph0" class="graph" transform="scale(1 1) rotate(0) translate(4 62)">
<title>Graphical Class Hierarchy</title>
<!-- Node1 -->
<g id="node1" class="node"><title>Node1</title>
<g id="a_node1"><a xlink:href="classROSEE_1_1EEHal.html" target="_top" xlink:title="Class representing an end&#45;effector. ">
<polygon fill="none" stroke="black" points="0,-19.5 0,-38.5 83,-38.5 83,-19.5 0,-19.5"/>
<text text-anchor="middle" x="41.5" y="-26.5" font-family="Helvetica,sans-Serif" font-size="10.00">ROSEE::EEHal</text>
</a>
</g>
</g>
<!-- Node2 -->
<g id="node2" class="node"><title>Node2</title>
<g id="a_node2"><a xlink:href="classROSEE_1_1DummyHal.html" target="_top" xlink:title="Class representing an end&#45;effector. ">
<polygon fill="none" stroke="black" points="119,-38.5 119,-57.5 228,-57.5 228,-38.5 119,-38.5"/>
<text text-anchor="middle" x="173.5" y="-45.5" font-family="Helvetica,sans-Serif" font-size="10.00">ROSEE::DummyHal</text>
</a>
</g>
</g>
<!-- Node1&#45;&gt;Node2 -->
<g id="edge1" class="edge"><title>Node1&#45;&gt;Node2</title>
<path fill="none" stroke="midnightblue" d="M93.3374,-36.4301C101.754,-37.6603 110.504,-38.9391 118.985,-40.1786"/>
<polygon fill="midnightblue" stroke="midnightblue" points="93.6772,-32.9426 83.2761,-34.9596 92.6648,-39.8691 93.6772,-32.9426"/>
</g>
<!-- Node3 -->
<g id="node3" class="node"><title>Node3</title>
<g id="a_node3"><a xlink:href="classROSEE_1_1XBot2Hal.html" target="_top" xlink:title="Concrete class which communicate directly with ROS topics. ">
<polygon fill="none" stroke="black" points="123,-0.5 123,-19.5 224,-19.5 224,-0.5 123,-0.5"/>
<text text-anchor="middle" x="173.5" y="-7.5" font-family="Helvetica,sans-Serif" font-size="10.00">ROSEE::XBot2Hal</text>
</a>
</g>
</g>
<!-- Node1&#45;&gt;Node3 -->
<g id="edge2" class="edge"><title>Node1&#45;&gt;Node3</title>
<path fill="none" stroke="midnightblue" d="M93.1913,-21.5913C102.899,-20.1725 113.054,-18.6882 122.732,-17.2737"/>
<polygon fill="midnightblue" stroke="midnightblue" points="92.6648,-18.1309 83.2761,-23.0404 93.6772,-25.0574 92.6648,-18.1309"/>
</g>
</g>
</svg>
