<?xml version="1.0" encoding="UTF-8" standalone="no"?>
<!DOCTYPE svg PUBLIC "-//W3C//DTD SVG 1.1//EN"
 "http://www.w3.org/Graphics/SVG/1.1/DTD/svg11.dtd">
<!-- Generated by graphviz version 2.38.0 (20140413.2041)
 -->
<!-- Title: /home/travis/build/ADVRHumanoids/ROSEndEffector/src/MapActionHandler.cpp Pages: 1 -->
<svg width="1974pt" height="542pt"
 viewBox="0.00 0.00 1974.00 542.00" xmlns="http://www.w3.org/2000/svg" xmlns:xlink="http://www.w3.org/1999/xlink">
<g id="graph0" class="graph" transform="scale(1 1) rotate(0) translate(4 538)">
<title>/home/travis/build/ADVRHumanoids/ROSEndEffector/src/MapActionHandler.cpp</title>
<!-- Node1 -->
<g id="node1" class="node"><title>Node1</title>
<polygon fill="#bfbfbf" stroke="black" points="1614.5,-492.5 1614.5,-533.5 1793.5,-533.5 1793.5,-492.5 1614.5,-492.5"/>
<text text-anchor="start" x="1622.5" y="-521.5" font-family="Helvetica,sans-Serif" font-size="10.00">/home/travis/build</text>
<text text-anchor="start" x="1622.5" y="-510.5" font-family="Helvetica,sans-Serif" font-size="10.00">/ADVRHumanoids/ROSEndEffector</text>
<text text-anchor="middle" x="1704" y="-499.5" font-family="Helvetica,sans-Serif" font-size="10.00">/src/MapActionHandler.cpp</text>
</g>
<!-- Node2 -->
<g id="node2" class="node"><title>Node2</title>
<g id="a_node2"><a xlink:href="MapActionHandler_8h.html" target="_top" xlink:title="end_effector/MapActionHandler.h">
<polygon fill="none" stroke="black" points="1616,-436.5 1616,-455.5 1792,-455.5 1792,-436.5 1616,-436.5"/>
<text text-anchor="middle" x="1704" y="-443.5" font-family="Helvetica,sans-Serif" font-size="10.00">end_effector/MapActionHandler.h</text>
</a>
</g>
</g>
<!-- Node1&#45;&gt;Node2 -->
<g id="edge1" class="edge"><title>Node1&#45;&gt;Node2</title>
<path fill="none" stroke="midnightblue" d="M1704,-492.498C1704,-484.065 1704,-474.235 1704,-465.874"/>
<polygon fill="midnightblue" stroke="midnightblue" points="1707.5,-465.652 1704,-455.652 1700.5,-465.653 1707.5,-465.652"/>
</g>
<!-- Node3 -->
<g id="node3" class="node"><title>Node3</title>
<polygon fill="none" stroke="#bfbfbf" points="1353,-56.5 1353,-75.5 1397,-75.5 1397,-56.5 1353,-56.5"/>
<text text-anchor="middle" x="1375" y="-63.5" font-family="Helvetica,sans-Serif" font-size="10.00">string</text>
</g>
<!-- Node2&#45;&gt;Node3 -->
<g id="edge2" class="edge"><title>Node2&#45;&gt;Node3</title>
<path fill="none" stroke="midnightblue" d="M1713.91,-436.372C1722.89,-427.986 1735.8,-414.433 1743,-400 1754.36,-377.221 1752.32,-369.312 1755,-344 1762.85,-269.879 1778.05,-231.361 1725,-179 1635.35,-90.5106 1475.8,-71.8955 1407.49,-68.0095"/>
<polygon fill="midnightblue" stroke="midnightblue" points="1407.5,-64.5056 1397.34,-67.5038 1407.15,-71.4969 1407.5,-64.5056"/>
</g>
<!-- Node4 -->
<g id="node4" class="node"><title>Node4</title>
<polygon fill="none" stroke="#bfbfbf" points="1536,-56.5 1536,-75.5 1574,-75.5 1574,-56.5 1536,-56.5"/>
<text text-anchor="middle" x="1555" y="-63.5" font-family="Helvetica,sans-Serif" font-size="10.00">map</text>
</g>
<!-- Node2&#45;&gt;Node4 -->
<g id="edge3" class="edge"><title>Node2&#45;&gt;Node4</title>
<path fill="none" stroke="midnightblue" d="M1760.26,-436.419C1784.79,-430.068 1812.18,-419.056 1831,-400 1854.26,-376.451 1855,-362.599 1855,-329.5 1855,-329.5 1855,-329.5 1855,-260.5 1855,-132.608 1660.08,-85.1701 1584.47,-71.5801"/>
<polygon fill="midnightblue" stroke="midnightblue" points="1584.67,-68.0626 1574.22,-69.8151 1583.48,-74.9611 1584.67,-68.0626"/>
</g>
<!-- Node5 -->
<g id="node5" class="node"><title>Node5</title>
<polygon fill="none" stroke="#bfbfbf" points="1087,-118 1087,-137 1119,-137 1119,-118 1087,-118"/>
<text text-anchor="middle" x="1103" y="-125" font-family="Helvetica,sans-Serif" font-size="10.00">set</text>
</g>
<!-- Node2&#45;&gt;Node5 -->
<g id="edge4" class="edge"><title>Node2&#45;&gt;Node5</title>
<path fill="none" stroke="midnightblue" d="M1685.51,-436.409C1612.52,-402.281 1337.94,-271.878 1124,-143 1123.81,-142.886 1123.62,-142.77 1123.43,-142.654"/>
<polygon fill="midnightblue" stroke="midnightblue" points="1125.11,-139.574 1114.82,-137.044 1121.29,-145.437 1125.11,-139.574"/>
</g>
<!-- Node6 -->
<g id="node6" class="node"><title>Node6</title>
<polygon fill="none" stroke="#bfbfbf" points="1434.5,-0.5 1434.5,-19.5 1491.5,-19.5 1491.5,-0.5 1434.5,-0.5"/>
<text text-anchor="middle" x="1463" y="-7.5" font-family="Helvetica,sans-Serif" font-size="10.00">memory</text>
</g>
<!-- Node2&#45;&gt;Node6 -->
<g id="edge5" class="edge"><title>Node2&#45;&gt;Node6</title>
<path fill="none" stroke="midnightblue" d="M1792.25,-438.686C1825.8,-432.667 1862.72,-421.292 1891,-400 1919.78,-378.329 1931,-365.525 1931,-329.5 1931,-329.5 1931,-329.5 1931,-126.5 1931,-62.3301 1866.03,-75.8198 1805,-56 1678.63,-14.9623 1636.93,-42.3624 1501.48,-19.8444"/>
<polygon fill="midnightblue" stroke="midnightblue" points="1502.01,-16.3846 1491.56,-18.1352 1500.82,-23.2829 1502.01,-16.3846"/>
</g>
<!-- Node7 -->
<g id="node7" class="node"><title>Node7</title>
<g id="a_node7"><a xlink:href="YamlWorker_8h.html" target="_top" xlink:title="end_effector/YamlWorker.h">
<polygon fill="none" stroke="black" points="848.5,-380.5 848.5,-399.5 993.5,-399.5 993.5,-380.5 848.5,-380.5"/>
<text text-anchor="middle" x="921" y="-387.5" font-family="Helvetica,sans-Serif" font-size="10.00">end_effector/YamlWorker.h</text>
</a>
</g>
</g>
<!-- Node2&#45;&gt;Node7 -->
<g id="edge6" class="edge"><title>Node2&#45;&gt;Node7</title>
<path fill="none" stroke="midnightblue" d="M1615.75,-440.386C1483.54,-433.226 1226.24,-418.337 1008,-400 1006.68,-399.889 1005.35,-399.775 1004.01,-399.659"/>
<polygon fill="midnightblue" stroke="midnightblue" points="1003.88,-396.134 993.611,-398.723 1003.26,-403.105 1003.88,-396.134"/>
</g>
<!-- Node9 -->
<g id="node9" class="node"><title>Node9</title>
<g id="a_node9"><a xlink:href="Utils_8h.html" target="_top" xlink:title="end_effector/Utils.h">
<polygon fill="none" stroke="black" points="1686,-56.5 1686,-75.5 1796,-75.5 1796,-56.5 1686,-56.5"/>
<text text-anchor="middle" x="1741" y="-63.5" font-family="Helvetica,sans-Serif" font-size="10.00">end_effector/Utils.h</text>
</a>
</g>
</g>
<!-- Node2&#45;&gt;Node9 -->
<g id="edge78" class="edge"><title>Node2&#45;&gt;Node9</title>
<path fill="none" stroke="midnightblue" d="M1792.03,-437.216C1819.54,-430.848 1848.12,-419.624 1869,-400 1893.12,-377.33 1893,-362.599 1893,-329.5 1893,-329.5 1893,-329.5 1893,-193.5 1893,-133.688 1822.6,-96.6985 1777.63,-79.1693"/>
<polygon fill="midnightblue" stroke="midnightblue" points="1778.77,-75.8587 1768.17,-75.6236 1776.31,-82.4128 1778.77,-75.8587"/>
</g>
<!-- Node17 -->
<g id="node17" class="node"><title>Node17</title>
<g id="a_node17"><a xlink:href="Action_8h.html" target="_top" xlink:title="end_effector/GraspingActions\l/Action.h">
<polygon fill="none" stroke="black" points="1403,-112.5 1403,-142.5 1561,-142.5 1561,-112.5 1403,-112.5"/>
<text text-anchor="start" x="1411" y="-130.5" font-family="Helvetica,sans-Serif" font-size="10.00">end_effector/GraspingActions</text>
<text text-anchor="middle" x="1482" y="-119.5" font-family="Helvetica,sans-Serif" font-size="10.00">/Action.h</text>
</a>
</g>
</g>
<!-- Node2&#45;&gt;Node17 -->
<g id="edge79" class="edge"><title>Node2&#45;&gt;Node17</title>
<path fill="none" stroke="midnightblue" d="M1708.84,-436.32C1718.87,-417.484 1741,-371.191 1741,-329.5 1741,-329.5 1741,-329.5 1741,-260.5 1741,-182.254 1646,-150.369 1571.08,-137.388"/>
<polygon fill="midnightblue" stroke="midnightblue" points="1571.55,-133.919 1561.12,-135.752 1570.42,-140.827 1571.55,-133.919"/>
</g>
<!-- Node19 -->
<g id="node19" class="node"><title>Node19</title>
<g id="a_node19"><a xlink:href="ActionPrimitive_8h.html" target="_top" xlink:title="end_effector/GraspingActions\l/ActionPrimitive.h">
<polygon fill="none" stroke="black" points="874,-179.5 874,-209.5 1032,-209.5 1032,-179.5 874,-179.5"/>
<text text-anchor="start" x="882" y="-197.5" font-family="Helvetica,sans-Serif" font-size="10.00">end_effector/GraspingActions</text>
<text text-anchor="middle" x="953" y="-186.5" font-family="Helvetica,sans-Serif" font-size="10.00">/ActionPrimitive.h</text>
</a>
</g>
</g>
<!-- Node2&#45;&gt;Node19 -->
<g id="edge80" class="edge"><title>Node2&#45;&gt;Node19</title>
<path fill="none" stroke="midnightblue" d="M1615.57,-441.085C1505.24,-435.329 1323.36,-422.72 1260,-400 1141.47,-357.495 1023.91,-259.644 975.755,-216.54"/>
<polygon fill="midnightblue" stroke="midnightblue" points="977.874,-213.737 968.107,-209.63 973.181,-218.931 977.874,-213.737"/>
</g>
<!-- Node28 -->
<g id="node28" class="node"><title>Node28</title>
<g id="a_node28"><a xlink:href="ActionGeneric_8h.html" target="_top" xlink:title="end_effector/GraspingActions\l/ActionGeneric.h">
<polygon fill="none" stroke="black" points="1517,-179.5 1517,-209.5 1675,-209.5 1675,-179.5 1517,-179.5"/>
<text text-anchor="start" x="1525" y="-197.5" font-family="Helvetica,sans-Serif" font-size="10.00">end_effector/GraspingActions</text>
<text text-anchor="middle" x="1596" y="-186.5" font-family="Helvetica,sans-Serif" font-size="10.00">/ActionGeneric.h</text>
</a>
</g>
</g>
<!-- Node2&#45;&gt;Node28 -->
<g id="edge82" class="edge"><title>Node2&#45;&gt;Node28</title>
<path fill="none" stroke="midnightblue" d="M1700.28,-436.412C1685.33,-401.877 1629.3,-272.438 1606.13,-218.902"/>
<polygon fill="midnightblue" stroke="midnightblue" points="1609.26,-217.329 1602.08,-209.542 1602.84,-220.11 1609.26,-217.329"/>
</g>
<!-- Node29 -->
<g id="node29" class="node"><title>Node29</title>
<g id="a_node29"><a xlink:href="ActionTimed_8h.html" target="_top" xlink:title="end_effector/GraspingActions\l/ActionTimed.h">
<polygon fill="none" stroke="black" points="1341,-179.5 1341,-209.5 1499,-209.5 1499,-179.5 1341,-179.5"/>
<text text-anchor="start" x="1349" y="-197.5" font-family="Helvetica,sans-Serif" font-size="10.00">end_effector/GraspingActions</text>
<text text-anchor="middle" x="1420" y="-186.5" font-family="Helvetica,sans-Serif" font-size="10.00">/ActionTimed.h</text>
</a>
</g>
</g>
<!-- Node2&#45;&gt;Node29 -->
<g id="edge81" class="edge"><title>Node2&#45;&gt;Node29</title>
<path fill="none" stroke="midnightblue" d="M1694.22,-436.412C1654.26,-401.303 1502.65,-268.106 1443.67,-216.294"/>
<polygon fill="midnightblue" stroke="midnightblue" points="1445.81,-213.513 1435.98,-209.542 1441.19,-218.772 1445.81,-213.513"/>
</g>
<!-- Node7&#45;&gt;Node6 -->
<g id="edge7" class="edge"><title>Node7&#45;&gt;Node6</title>
<path fill="none" stroke="midnightblue" d="M927.473,-380.478C934.236,-371.505 945.083,-356.915 954,-344 994.345,-285.568 1008.94,-273.358 1041,-210 1062.02,-168.459 1046.46,-146.244 1078,-112 1117.33,-69.3021 1140.63,-73.4342 1196,-56 1274.86,-31.1692 1371.39,-19.2168 1424.09,-14.1676"/>
<polygon fill="midnightblue" stroke="midnightblue" points="1424.7,-17.6261 1434.33,-13.2204 1424.06,-10.6558 1424.7,-17.6261"/>
</g>
<!-- Node8 -->
<g id="node8" class="node"><title>Node8</title>
<polygon fill="none" stroke="#bfbfbf" points="688,-56.5 688,-75.5 784,-75.5 784,-56.5 688,-56.5"/>
<text text-anchor="middle" x="736" y="-63.5" font-family="Helvetica,sans-Serif" font-size="10.00">yaml&#45;cpp/yaml.h</text>
</g>
<!-- Node7&#45;&gt;Node8 -->
<g id="edge8" class="edge"><title>Node7&#45;&gt;Node8</title>
<path fill="none" stroke="midnightblue" d="M848.27,-387.041C697.384,-382.512 354.902,-369.681 241,-344 146.159,-322.616 38,-359.722 38,-262.5 38,-262.5 38,-262.5 38,-193.5 38,-128.7 509.791,-84.9459 677.614,-71.4319"/>
<polygon fill="midnightblue" stroke="midnightblue" points="678.058,-74.9076 687.748,-70.6229 677.501,-67.9298 678.058,-74.9076"/>
</g>
<!-- Node7&#45;&gt;Node9 -->
<g id="edge9" class="edge"><title>Node7&#45;&gt;Node9</title>
<path fill="none" stroke="midnightblue" d="M993.812,-386.996C1081.29,-383.333 1232.02,-373.012 1358,-344 1527.21,-305.031 1596.49,-326.784 1725,-210 1758.91,-179.185 1764.79,-157.152 1757,-112 1755.43,-102.91 1752.21,-93.2219 1749.06,-85.1726"/>
<polygon fill="midnightblue" stroke="midnightblue" points="1752.19,-83.6018 1745.11,-75.7229 1745.74,-86.2993 1752.19,-83.6018"/>
</g>
<!-- Node7&#45;&gt;Node17 -->
<g id="edge18" class="edge"><title>Node7&#45;&gt;Node17</title>
<path fill="none" stroke="midnightblue" d="M967.691,-380.467C1006.18,-372.808 1061.89,-360.272 1109,-344 1176.48,-320.69 1198.93,-321.197 1255,-277 1298.5,-242.71 1286.75,-210.949 1332,-179 1353.3,-163.959 1379.42,-153.13 1403.87,-145.457"/>
<polygon fill="midnightblue" stroke="midnightblue" points="1404.92,-148.793 1413.5,-142.565 1402.91,-142.089 1404.92,-148.793"/>
</g>
<!-- Node7&#45;&gt;Node19 -->
<g id="edge26" class="edge"><title>Node7&#45;&gt;Node19</title>
<path fill="none" stroke="midnightblue" d="M923.906,-380.418C930.047,-361.83 944.25,-316.352 950,-277 952.777,-257.99 953.453,-236.236 953.475,-219.987"/>
<polygon fill="midnightblue" stroke="midnightblue" points="956.974,-219.694 953.404,-209.719 949.974,-219.743 956.974,-219.694"/>
</g>
<!-- Node20 -->
<g id="node20" class="node"><title>Node20</title>
<g id="a_node20"><a xlink:href="ActionPinchTight_8h.html" target="_top" xlink:title="end_effector/GraspingActions\l/ActionPinchTight.h">
<polygon fill="none" stroke="black" points="481,-313.5 481,-343.5 639,-343.5 639,-313.5 481,-313.5"/>
<text text-anchor="start" x="489" y="-331.5" font-family="Helvetica,sans-Serif" font-size="10.00">end_effector/GraspingActions</text>
<text text-anchor="middle" x="560" y="-320.5" font-family="Helvetica,sans-Serif" font-size="10.00">/ActionPinchTight.h</text>
</a>
</g>
</g>
<!-- Node7&#45;&gt;Node20 -->
<g id="edge34" class="edge"><title>Node7&#45;&gt;Node20</title>
<path fill="none" stroke="midnightblue" d="M869.278,-380.475C811.952,-371.027 718.465,-355.618 649.259,-344.212"/>
<polygon fill="midnightblue" stroke="midnightblue" points="649.668,-340.732 639.232,-342.559 648.529,-347.639 649.668,-340.732"/>
</g>
<!-- Node23 -->
<g id="node23" class="node"><title>Node23</title>
<g id="a_node23"><a xlink:href="ActionPinchLoose_8h.html" target="_top" xlink:title="end_effector/GraspingActions\l/ActionPinchLoose.h">
<polygon fill="none" stroke="black" points="657,-313.5 657,-343.5 815,-343.5 815,-313.5 657,-313.5"/>
<text text-anchor="start" x="665" y="-331.5" font-family="Helvetica,sans-Serif" font-size="10.00">end_effector/GraspingActions</text>
<text text-anchor="middle" x="736" y="-320.5" font-family="Helvetica,sans-Serif" font-size="10.00">/ActionPinchLoose.h</text>
</a>
</g>
</g>
<!-- Node7&#45;&gt;Node23 -->
<g id="edge42" class="edge"><title>Node7&#45;&gt;Node23</title>
<path fill="none" stroke="midnightblue" d="M894.494,-380.475C867.214,-371.701 823.954,-357.788 789.517,-346.712"/>
<polygon fill="midnightblue" stroke="midnightblue" points="790.192,-343.253 779.601,-343.523 788.049,-349.917 790.192,-343.253"/>
</g>
<!-- Node24 -->
<g id="node24" class="node"><title>Node24</title>
<g id="a_node24"><a xlink:href="ActionTrig_8h.html" target="_top" xlink:title="end_effector/GraspingActions\l/ActionTrig.h">
<polygon fill="none" stroke="black" points="760,-246.5 760,-276.5 918,-276.5 918,-246.5 760,-246.5"/>
<text text-anchor="start" x="768" y="-264.5" font-family="Helvetica,sans-Serif" font-size="10.00">end_effector/GraspingActions</text>
<text text-anchor="middle" x="839" y="-253.5" font-family="Helvetica,sans-Serif" font-size="10.00">/ActionTrig.h</text>
</a>
</g>
</g>
<!-- Node7&#45;&gt;Node24 -->
<g id="edge48" class="edge"><title>Node7&#45;&gt;Node24</title>
<path fill="none" stroke="midnightblue" d="M915.364,-380.305C902.826,-360.963 872.284,-313.846 853.848,-285.406"/>
<polygon fill="midnightblue" stroke="midnightblue" points="856.703,-283.375 848.327,-276.888 850.829,-287.183 856.703,-283.375"/>
</g>
<!-- Node25 -->
<g id="node25" class="node"><title>Node25</title>
<g id="a_node25"><a xlink:href="ActionSingleJointMultipleTips_8h.html" target="_top" xlink:title="end_effector/GraspingActions\l/ActionSingleJointMultipleTips.h">
<polygon fill="none" stroke="black" points="104,-246.5 104,-276.5 268,-276.5 268,-246.5 104,-246.5"/>
<text text-anchor="start" x="112" y="-264.5" font-family="Helvetica,sans-Serif" font-size="10.00">end_effector/GraspingActions</text>
<text text-anchor="middle" x="186" y="-253.5" font-family="Helvetica,sans-Serif" font-size="10.00">/ActionSingleJointMultipleTips.h</text>
</a>
</g>
</g>
<!-- Node7&#45;&gt;Node25 -->
<g id="edge52" class="edge"><title>Node7&#45;&gt;Node25</title>
<path fill="none" stroke="midnightblue" d="M848.395,-388.829C706.035,-387.669 395.463,-380.845 296,-344 261.02,-331.042 227.585,-303.339 206.949,-283.842"/>
<polygon fill="midnightblue" stroke="midnightblue" points="209.311,-281.257 199.69,-276.819 204.444,-286.287 209.311,-281.257"/>
</g>
<!-- Node26 -->
<g id="node26" class="node"><title>Node26</title>
<g id="a_node26"><a xlink:href="ActionMultiplePinchTight_8h.html" target="_top" xlink:title="end_effector/GraspingActions\l/ActionMultiplePinchTight.h">
<polygon fill="none" stroke="black" points="305,-313.5 305,-343.5 463,-343.5 463,-313.5 305,-313.5"/>
<text text-anchor="start" x="313" y="-331.5" font-family="Helvetica,sans-Serif" font-size="10.00">end_effector/GraspingActions</text>
<text text-anchor="middle" x="384" y="-320.5" font-family="Helvetica,sans-Serif" font-size="10.00">/ActionMultiplePinchTight.h</text>
</a>
</g>
</g>
<!-- Node7&#45;&gt;Node26 -->
<g id="edge56" class="edge"><title>Node7&#45;&gt;Node26</title>
<path fill="none" stroke="midnightblue" d="M848.123,-383.126C761.247,-375.803 611.45,-362.16 473.062,-344.088"/>
<polygon fill="midnightblue" stroke="midnightblue" points="473.49,-340.615 463.119,-342.78 472.577,-347.555 473.49,-340.615"/>
</g>
<!-- Node27 -->
<g id="node27" class="node"><title>Node27</title>
<g id="a_node27"><a xlink:href="ActionComposed_8h.html" target="_top" xlink:title="end_effector/GraspingActions\l/ActionComposed.h">
<polygon fill="none" stroke="black" points="1088,-246.5 1088,-276.5 1246,-276.5 1246,-246.5 1088,-246.5"/>
<text text-anchor="start" x="1096" y="-264.5" font-family="Helvetica,sans-Serif" font-size="10.00">end_effector/GraspingActions</text>
<text text-anchor="middle" x="1167" y="-253.5" font-family="Helvetica,sans-Serif" font-size="10.00">/ActionComposed.h</text>
</a>
</g>
</g>
<!-- Node7&#45;&gt;Node27 -->
<g id="edge61" class="edge"><title>Node7&#45;&gt;Node27</title>
<path fill="none" stroke="midnightblue" d="M968.934,-380.492C1000.19,-373.627 1041.13,-362.079 1074,-344 1102.64,-328.249 1130.11,-302.406 1147.67,-284.047"/>
<polygon fill="midnightblue" stroke="midnightblue" points="1150.28,-286.379 1154.56,-276.688 1145.17,-281.593 1150.28,-286.379"/>
</g>
<!-- Node7&#45;&gt;Node29 -->
<g id="edge71" class="edge"><title>Node7&#45;&gt;Node29</title>
<path fill="none" stroke="midnightblue" d="M993.658,-388.416C1095.18,-386.357 1273.1,-377.854 1327,-344 1373.46,-314.82 1400.61,-253.056 1412.61,-219.098"/>
<polygon fill="midnightblue" stroke="midnightblue" points="1415.96,-220.113 1415.85,-209.519 1409.33,-217.87 1415.96,-220.113"/>
</g>
<!-- Node9&#45;&gt;Node6 -->
<g id="edge11" class="edge"><title>Node9&#45;&gt;Node6</title>
<path fill="none" stroke="midnightblue" d="M1691.68,-56.4551C1645.25,-48.2528 1573.53,-35.1787 1501.73,-20.0716"/>
<polygon fill="midnightblue" stroke="midnightblue" points="1502.11,-16.5742 1491.6,-17.9267 1500.66,-23.4224 1502.11,-16.5742"/>
</g>
<!-- Node10 -->
<g id="node10" class="node"><title>Node10</title>
<polygon fill="none" stroke="#bfbfbf" points="1852.5,-0.5 1852.5,-19.5 1899.5,-19.5 1899.5,-0.5 1852.5,-0.5"/>
<text text-anchor="middle" x="1876" y="-7.5" font-family="Helvetica,sans-Serif" font-size="10.00">cmath</text>
</g>
<!-- Node9&#45;&gt;Node10 -->
<g id="edge10" class="edge"><title>Node9&#45;&gt;Node10</title>
<path fill="none" stroke="midnightblue" d="M1762.39,-56.4435C1784.71,-47.5171 1819.9,-33.4387 1845.21,-23.3168"/>
<polygon fill="midnightblue" stroke="midnightblue" points="1846.72,-26.4801 1854.71,-19.5164 1844.12,-19.9807 1846.72,-26.4801"/>
</g>
<!-- Node11 -->
<g id="node11" class="node"><title>Node11</title>
<polygon fill="none" stroke="#bfbfbf" points="459.5,-0.5 459.5,-19.5 518.5,-19.5 518.5,-0.5 459.5,-0.5"/>
<text text-anchor="middle" x="489" y="-7.5" font-family="Helvetica,sans-Serif" font-size="10.00">iostream</text>
</g>
<!-- Node9&#45;&gt;Node11 -->
<g id="edge12" class="edge"><title>Node9&#45;&gt;Node11</title>
<path fill="none" stroke="midnightblue" d="M1685.81,-61.6419C1655.47,-59.8501 1617.17,-57.6756 1583,-56 1170.87,-35.7871 671.093,-17.4984 528.615,-12.4033"/>
<polygon fill="midnightblue" stroke="midnightblue" points="528.715,-8.90471 518.596,-12.0457 528.465,-15.9003 528.715,-8.90471"/>
</g>
<!-- Node12 -->
<g id="node12" class="node"><title>Node12</title>
<polygon fill="none" stroke="#bfbfbf" points="1918,-0.5 1918,-19.5 1966,-19.5 1966,-0.5 1918,-0.5"/>
<text text-anchor="middle" x="1942" y="-7.5" font-family="Helvetica,sans-Serif" font-size="10.00">dlfcn.h</text>
</g>
<!-- Node9&#45;&gt;Node12 -->
<g id="edge13" class="edge"><title>Node9&#45;&gt;Node12</title>
<path fill="none" stroke="midnightblue" d="M1772.85,-56.4435C1809.68,-46.5487 1870.07,-30.3235 1907.85,-20.1739"/>
<polygon fill="midnightblue" stroke="midnightblue" points="1909.12,-23.4574 1917.87,-17.4826 1907.3,-16.6971 1909.12,-23.4574"/>
</g>
<!-- Node13 -->
<g id="node13" class="node"><title>Node13</title>
<polygon fill="none" stroke="#bfbfbf" points="1510,-0.5 1510,-19.5 1626,-19.5 1626,-0.5 1510,-0.5"/>
<text text-anchor="middle" x="1568" y="-7.5" font-family="Helvetica,sans-Serif" font-size="10.00">boost/filesystem.hpp</text>
</g>
<!-- Node9&#45;&gt;Node13 -->
<g id="edge14" class="edge"><title>Node9&#45;&gt;Node13</title>
<path fill="none" stroke="midnightblue" d="M1713.59,-56.4435C1684.23,-47.2801 1637.48,-32.6876 1604.9,-22.5192"/>
<polygon fill="midnightblue" stroke="midnightblue" points="1605.87,-19.1551 1595.28,-19.5164 1603.79,-25.8371 1605.87,-19.1551"/>
</g>
<!-- Node14 -->
<g id="node14" class="node"><title>Node14</title>
<polygon fill="none" stroke="#bfbfbf" points="1644,-0.5 1644,-19.5 1698,-19.5 1698,-0.5 1644,-0.5"/>
<text text-anchor="middle" x="1671" y="-7.5" font-family="Helvetica,sans-Serif" font-size="10.00">fstream</text>
</g>
<!-- Node9&#45;&gt;Node14 -->
<g id="edge15" class="edge"><title>Node9&#45;&gt;Node14</title>
<path fill="none" stroke="midnightblue" d="M1729.75,-56.324C1719.2,-48.1849 1703.2,-35.8395 1690.56,-26.0874"/>
<polygon fill="midnightblue" stroke="midnightblue" points="1692.51,-23.1707 1682.45,-19.8339 1688.23,-28.7132 1692.51,-23.1707"/>
</g>
<!-- Node15 -->
<g id="node15" class="node"><title>Node15</title>
<polygon fill="none" stroke="#bfbfbf" points="1716,-0.5 1716,-19.5 1766,-19.5 1766,-0.5 1716,-0.5"/>
<text text-anchor="middle" x="1741" y="-7.5" font-family="Helvetica,sans-Serif" font-size="10.00">chrono</text>
</g>
<!-- Node9&#45;&gt;Node15 -->
<g id="edge16" class="edge"><title>Node9&#45;&gt;Node15</title>
<path fill="none" stroke="midnightblue" d="M1741,-56.083C1741,-49.0059 1741,-38.8611 1741,-29.9865"/>
<polygon fill="midnightblue" stroke="midnightblue" points="1744.5,-29.751 1741,-19.7511 1737.5,-29.7511 1744.5,-29.751"/>
</g>
<!-- Node16 -->
<g id="node16" class="node"><title>Node16</title>
<polygon fill="none" stroke="#bfbfbf" points="1784,-0.5 1784,-19.5 1834,-19.5 1834,-0.5 1784,-0.5"/>
<text text-anchor="middle" x="1809" y="-7.5" font-family="Helvetica,sans-Serif" font-size="10.00">atomic</text>
</g>
<!-- Node9&#45;&gt;Node16 -->
<g id="edge17" class="edge"><title>Node9&#45;&gt;Node16</title>
<path fill="none" stroke="midnightblue" d="M1751.93,-56.324C1762.17,-48.1849 1777.72,-35.8395 1790,-26.0874"/>
<polygon fill="midnightblue" stroke="midnightblue" points="1792.22,-28.7937 1797.88,-19.8339 1787.87,-23.3119 1792.22,-28.7937"/>
</g>
<!-- Node17&#45;&gt;Node3 -->
<g id="edge20" class="edge"><title>Node17&#45;&gt;Node3</title>
<path fill="none" stroke="midnightblue" d="M1456.64,-112.399C1439.33,-102.773 1416.52,-90.0902 1399.42,-80.5772"/>
<polygon fill="midnightblue" stroke="midnightblue" points="1401.01,-77.4588 1390.57,-75.6578 1397.61,-83.5766 1401.01,-77.4588"/>
</g>
<!-- Node17&#45;&gt;Node4 -->
<g id="edge21" class="edge"><title>Node17&#45;&gt;Node4</title>
<path fill="none" stroke="midnightblue" d="M1499.3,-112.399C1510.45,-103.308 1524.95,-91.4899 1536.36,-82.1909"/>
<polygon fill="midnightblue" stroke="midnightblue" points="1538.84,-84.6887 1544.38,-75.6578 1534.42,-79.2627 1538.84,-84.6887"/>
</g>
<!-- Node17&#45;&gt;Node6 -->
<g id="edge23" class="edge"><title>Node17&#45;&gt;Node6</title>
<path fill="none" stroke="midnightblue" d="M1479.67,-112.337C1476.25,-91.5271 1469.85,-52.6632 1466.06,-29.5834"/>
<polygon fill="midnightblue" stroke="midnightblue" points="1469.5,-28.9687 1464.43,-19.6695 1462.6,-30.105 1469.5,-28.9687"/>
</g>
<!-- Node17&#45;&gt;Node8 -->
<g id="edge22" class="edge"><title>Node17&#45;&gt;Node8</title>
<path fill="none" stroke="midnightblue" d="M1402.73,-117.246C1385.68,-115.39 1367.75,-113.539 1351,-112 1146.77,-93.2321 903.81,-77.3537 794.449,-70.55"/>
<polygon fill="midnightblue" stroke="midnightblue" points="794.486,-67.0457 784.289,-69.9201 794.053,-74.0323 794.486,-67.0457"/>
</g>
<!-- Node17&#45;&gt;Node9 -->
<g id="edge25" class="edge"><title>Node17&#45;&gt;Node9</title>
<path fill="none" stroke="midnightblue" d="M1543.05,-112.475C1589.3,-101.851 1651.88,-87.4734 1694.2,-77.7507"/>
<polygon fill="midnightblue" stroke="midnightblue" points="1695.01,-81.1566 1703.97,-75.5064 1693.44,-74.3343 1695.01,-81.1566"/>
</g>
<!-- Node17&#45;&gt;Node11 -->
<g id="edge24" class="edge"><title>Node17&#45;&gt;Node11</title>
<path fill="none" stroke="midnightblue" d="M1471.81,-112.294C1458.75,-95.3852 1434.36,-67.9406 1406,-56 1324.51,-21.6957 695.435,-13.0518 529.187,-11.3569"/>
<polygon fill="midnightblue" stroke="midnightblue" points="528.951,-7.85451 518.917,-11.2551 528.882,-14.8542 528.951,-7.85451"/>
</g>
<!-- Node18 -->
<g id="node18" class="node"><title>Node18</title>
<polygon fill="none" stroke="#bfbfbf" points="1225.5,-56.5 1225.5,-75.5 1272.5,-75.5 1272.5,-56.5 1225.5,-56.5"/>
<text text-anchor="middle" x="1249" y="-63.5" font-family="Helvetica,sans-Serif" font-size="10.00">vector</text>
</g>
<!-- Node17&#45;&gt;Node18 -->
<g id="edge19" class="edge"><title>Node17&#45;&gt;Node18</title>
<path fill="none" stroke="midnightblue" d="M1427.08,-112.475C1382.31,-101.043 1320.53,-85.2655 1282.75,-75.6176"/>
<polygon fill="midnightblue" stroke="midnightblue" points="1283.32,-72.1507 1272.76,-73.0676 1281.58,-78.9331 1283.32,-72.1507"/>
</g>
<!-- Node19&#45;&gt;Node3 -->
<g id="edge28" class="edge"><title>Node19&#45;&gt;Node3</title>
<path fill="none" stroke="midnightblue" d="M958.08,-179.199C965.595,-160.338 981.59,-127.707 1007,-112 1021.24,-103.198 1255.44,-78.9766 1342.63,-70.2158"/>
<polygon fill="midnightblue" stroke="midnightblue" points="1343.15,-73.6818 1352.75,-69.2025 1342.45,-66.7166 1343.15,-73.6818"/>
</g>
<!-- Node19&#45;&gt;Node4 -->
<g id="edge29" class="edge"><title>Node19&#45;&gt;Node4</title>
<path fill="none" stroke="midnightblue" d="M968.996,-179.325C991.526,-160.29 1034.71,-127.115 1078,-112 1120.25,-97.2495 1428.49,-75.502 1525.71,-68.9421"/>
<polygon fill="midnightblue" stroke="midnightblue" points="1525.99,-72.4316 1535.73,-68.2696 1525.52,-65.4473 1525.99,-72.4316"/>
</g>
<!-- Node19&#45;&gt;Node5 -->
<g id="edge27" class="edge"><title>Node19&#45;&gt;Node5</title>
<path fill="none" stroke="midnightblue" d="M985.548,-179.396C1013.08,-167.464 1052,-150.598 1077.37,-139.607"/>
<polygon fill="midnightblue" stroke="midnightblue" points="1078.91,-142.753 1086.7,-135.565 1076.13,-136.33 1078.91,-142.753"/>
</g>
<!-- Node19&#45;&gt;Node8 -->
<g id="edge33" class="edge"><title>Node19&#45;&gt;Node8</title>
<path fill="none" stroke="midnightblue" d="M928.948,-179.479C887.077,-155.07 801.294,-105.063 759.683,-80.8059"/>
<polygon fill="midnightblue" stroke="midnightblue" points="761.207,-77.6429 750.805,-75.6303 757.681,-83.6903 761.207,-77.6429"/>
</g>
<!-- Node19&#45;&gt;Node11 -->
<g id="edge31" class="edge"><title>Node19&#45;&gt;Node11</title>
<path fill="none" stroke="midnightblue" d="M950.374,-179.315C944.25,-150.634 926.129,-85.9395 883,-56 826.343,-16.6699 617.036,-11.3388 528.722,-10.8794"/>
<polygon fill="midnightblue" stroke="midnightblue" points="528.582,-7.379 518.57,-10.8456 528.558,-14.379 528.582,-7.379"/>
</g>
<!-- Node19&#45;&gt;Node17 -->
<g id="edge32" class="edge"><title>Node19&#45;&gt;Node17</title>
<path fill="none" stroke="midnightblue" d="M1032.2,-183.769C1128.75,-171.905 1291.51,-151.906 1392.51,-139.496"/>
<polygon fill="midnightblue" stroke="midnightblue" points="1393.2,-142.938 1402.69,-138.244 1392.34,-135.99 1393.2,-142.938"/>
</g>
<!-- Node19&#45;&gt;Node18 -->
<g id="edge30" class="edge"><title>Node19&#45;&gt;Node18</title>
<path fill="none" stroke="midnightblue" d="M951.341,-179.451C950.039,-161.18 950.852,-129.533 969,-112 1003.55,-78.6232 1148.12,-69.9832 1214.9,-67.7615"/>
<polygon fill="midnightblue" stroke="midnightblue" points="1215.41,-71.2478 1225.3,-67.447 1215.2,-64.251 1215.41,-71.2478"/>
</g>
<!-- Node20&#45;&gt;Node8 -->
<g id="edge40" class="edge"><title>Node20&#45;&gt;Node8</title>
<path fill="none" stroke="midnightblue" d="M588.774,-313.325C604.308,-304.55 622.923,-292.08 636,-277 688.25,-216.745 719.399,-124.469 730.907,-85.4449"/>
<polygon fill="midnightblue" stroke="midnightblue" points="734.358,-86.1039 733.742,-75.527 727.628,-84.18 734.358,-86.1039"/>
</g>
<!-- Node20&#45;&gt;Node11 -->
<g id="edge41" class="edge"><title>Node20&#45;&gt;Node11</title>
<path fill="none" stroke="midnightblue" d="M480.883,-314.203C477.886,-313.782 474.917,-313.379 472,-313 388.543,-302.152 158.355,-332.397 95,-277 67.0005,-252.518 76,-232.694 76,-195.5 76,-195.5 76,-195.5 76,-126.5 76,-49.4809 345.754,-21.513 449.242,-13.6173"/>
<polygon fill="midnightblue" stroke="midnightblue" points="449.583,-17.1017 459.298,-12.8736 449.067,-10.1207 449.583,-17.1017"/>
</g>
<!-- Node21 -->
<g id="node21" class="node"><title>Node21</title>
<g id="a_node21"><a xlink:href="ActionPinchGeneric_8h.html" target="_top" xlink:title="end_effector/GraspingActions\l/ActionPinchGeneric.h">
<polygon fill="none" stroke="black" points="324,-246.5 324,-276.5 482,-276.5 482,-246.5 324,-246.5"/>
<text text-anchor="start" x="332" y="-264.5" font-family="Helvetica,sans-Serif" font-size="10.00">end_effector/GraspingActions</text>
<text text-anchor="middle" x="403" y="-253.5" font-family="Helvetica,sans-Serif" font-size="10.00">/ActionPinchGeneric.h</text>
</a>
</g>
</g>
<!-- Node20&#45;&gt;Node21 -->
<g id="edge35" class="edge"><title>Node20&#45;&gt;Node21</title>
<path fill="none" stroke="midnightblue" d="M525.933,-313.396C502.582,-303.728 471.41,-290.823 446.299,-280.426"/>
<polygon fill="midnightblue" stroke="midnightblue" points="447.578,-277.168 437,-276.577 444.901,-283.636 447.578,-277.168"/>
</g>
<!-- Node22 -->
<g id="node22" class="node"><title>Node22</title>
<polygon fill="none" stroke="#bfbfbf" points="500.5,-246.5 500.5,-276.5 627.5,-276.5 627.5,-246.5 500.5,-246.5"/>
<text text-anchor="start" x="508.5" y="-264.5" font-family="Helvetica,sans-Serif" font-size="10.00">moveit/planning_scene</text>
<text text-anchor="middle" x="564" y="-253.5" font-family="Helvetica,sans-Serif" font-size="10.00">/planning_scene.h</text>
</g>
<!-- Node20&#45;&gt;Node22 -->
<g id="edge39" class="edge"><title>Node20&#45;&gt;Node22</title>
<path fill="none" stroke="midnightblue" d="M560.868,-313.396C561.35,-305.56 561.963,-295.596 562.519,-286.565"/>
<polygon fill="midnightblue" stroke="midnightblue" points="566.013,-286.773 563.134,-276.577 559.026,-286.343 566.013,-286.773"/>
</g>
<!-- Node21&#45;&gt;Node8 -->
<g id="edge37" class="edge"><title>Node21&#45;&gt;Node8</title>
<path fill="none" stroke="midnightblue" d="M482.383,-247.81C514.149,-240.241 550.003,-228.381 579,-210 627.943,-178.975 620.968,-149.672 665,-112 679.099,-99.937 696.708,-88.756 710.862,-80.5565"/>
<polygon fill="midnightblue" stroke="midnightblue" points="712.61,-83.5886 719.592,-75.6196 709.165,-77.4953 712.61,-83.5886"/>
</g>
<!-- Node21&#45;&gt;Node11 -->
<g id="edge38" class="edge"><title>Node21&#45;&gt;Node11</title>
<path fill="none" stroke="midnightblue" d="M407.87,-246.371C422.507,-203.908 466.104,-77.4254 482.589,-29.5982"/>
<polygon fill="midnightblue" stroke="midnightblue" points="485.972,-30.5251 485.922,-19.9304 479.354,-28.2439 485.972,-30.5251"/>
</g>
<!-- Node21&#45;&gt;Node19 -->
<g id="edge36" class="edge"><title>Node21&#45;&gt;Node19</title>
<path fill="none" stroke="midnightblue" d="M482.123,-247.254C485.118,-246.819 488.085,-246.399 491,-246 620.254,-228.3 770.534,-212.814 863.718,-203.805"/>
<polygon fill="midnightblue" stroke="midnightblue" points="864.335,-207.262 873.953,-202.82 863.664,-200.294 864.335,-207.262"/>
</g>
<!-- Node23&#45;&gt;Node8 -->
<g id="edge46" class="edge"><title>Node23&#45;&gt;Node8</title>
<path fill="none" stroke="midnightblue" d="M736,-313.494C736,-269.761 736,-135.696 736,-85.8896"/>
<polygon fill="midnightblue" stroke="midnightblue" points="739.5,-85.6255 736,-75.6255 732.5,-85.6256 739.5,-85.6255"/>
</g>
<!-- Node23&#45;&gt;Node11 -->
<g id="edge47" class="edge"><title>Node23&#45;&gt;Node11</title>
<path fill="none" stroke="midnightblue" d="M725.068,-313.492C684.916,-262.043 545.663,-83.6068 502.119,-27.8102"/>
<polygon fill="midnightblue" stroke="midnightblue" points="504.682,-25.405 495.77,-19.6749 499.163,-29.7117 504.682,-25.405"/>
</g>
<!-- Node23&#45;&gt;Node19 -->
<g id="edge43" class="edge"><title>Node23&#45;&gt;Node19</title>
<path fill="none" stroke="midnightblue" d="M815.188,-323.9C853.341,-318.231 897.173,-305.362 927,-277 942.582,-262.183 948.855,-238.06 951.365,-219.895"/>
<polygon fill="midnightblue" stroke="midnightblue" points="954.867,-220.068 952.47,-209.748 947.908,-219.31 954.867,-220.068"/>
</g>
<!-- Node23&#45;&gt;Node21 -->
<g id="edge44" class="edge"><title>Node23&#45;&gt;Node21</title>
<path fill="none" stroke="midnightblue" d="M664.154,-313.476C611.506,-303.199 539.95,-289.232 485.053,-278.516"/>
<polygon fill="midnightblue" stroke="midnightblue" points="485.489,-275.036 475.004,-276.555 484.148,-281.906 485.489,-275.036"/>
</g>
<!-- Node23&#45;&gt;Node22 -->
<g id="edge45" class="edge"><title>Node23&#45;&gt;Node22</title>
<path fill="none" stroke="midnightblue" d="M698.679,-313.396C672.871,-303.643 638.344,-290.595 610.71,-280.152"/>
<polygon fill="midnightblue" stroke="midnightblue" points="611.84,-276.838 601.249,-276.577 609.366,-283.386 611.84,-276.838"/>
</g>
<!-- Node24&#45;&gt;Node8 -->
<g id="edge50" class="edge"><title>Node24&#45;&gt;Node8</title>
<path fill="none" stroke="midnightblue" d="M823.745,-246.127C814.253,-236.571 802.313,-223.361 794,-210 768.136,-168.432 749.642,-113.342 741.176,-85.2165"/>
<polygon fill="midnightblue" stroke="midnightblue" points="744.511,-84.1493 738.341,-75.5363 737.793,-86.1169 744.511,-84.1493"/>
</g>
<!-- Node24&#45;&gt;Node11 -->
<g id="edge51" class="edge"><title>Node24&#45;&gt;Node11</title>
<path fill="none" stroke="midnightblue" d="M840.683,-246.254C844.229,-208.833 848.073,-107.126 793,-56 755.359,-21.0565 602.388,-13.2205 528.851,-11.4829"/>
<polygon fill="midnightblue" stroke="midnightblue" points="528.672,-7.97849 518.601,-11.2683 528.526,-14.977 528.672,-7.97849"/>
</g>
<!-- Node24&#45;&gt;Node19 -->
<g id="edge49" class="edge"><title>Node24&#45;&gt;Node19</title>
<path fill="none" stroke="midnightblue" d="M863.736,-246.396C880.02,-237.112 901.541,-224.841 919.371,-214.674"/>
<polygon fill="midnightblue" stroke="midnightblue" points="921.358,-217.57 928.312,-209.577 917.891,-211.489 921.358,-217.57"/>
</g>
<!-- Node25&#45;&gt;Node8 -->
<g id="edge54" class="edge"><title>Node25&#45;&gt;Node8</title>
<path fill="none" stroke="midnightblue" d="M222.201,-246.399C247.869,-236.357 283.101,-222.483 314,-210 419.685,-167.305 442.637,-147.352 551,-112 594.661,-97.7563 645.422,-85.7187 682.716,-77.688"/>
<polygon fill="midnightblue" stroke="midnightblue" points="683.807,-81.0343 692.86,-75.5307 682.351,-74.1874 683.807,-81.0343"/>
</g>
<!-- Node25&#45;&gt;Node11 -->
<g id="edge55" class="edge"><title>Node25&#45;&gt;Node11</title>
<path fill="none" stroke="midnightblue" d="M203.159,-246.371C256.04,-202.827 416.219,-70.9299 470.662,-26.1005"/>
<polygon fill="midnightblue" stroke="midnightblue" points="472.964,-28.7387 478.459,-19.6801 468.514,-23.3349 472.964,-28.7387"/>
</g>
<!-- Node25&#45;&gt;Node19 -->
<g id="edge53" class="edge"><title>Node25&#45;&gt;Node19</title>
<path fill="none" stroke="midnightblue" d="M268.193,-250.851C283.731,-249.143 299.857,-247.45 315,-246 510.527,-227.278 740.247,-210.332 863.698,-201.636"/>
<polygon fill="midnightblue" stroke="midnightblue" points="864.124,-205.115 873.854,-200.923 863.633,-198.132 864.124,-205.115"/>
</g>
<!-- Node26&#45;&gt;Node8 -->
<g id="edge59" class="edge"><title>Node26&#45;&gt;Node8</title>
<path fill="none" stroke="midnightblue" d="M353.094,-313.336C338.724,-304.975 323.06,-292.886 315,-277 308.766,-264.713 307.399,-257.491 315,-246 337.984,-211.252 606.114,-113.215 702.093,-78.9786"/>
<polygon fill="midnightblue" stroke="midnightblue" points="703.37,-82.2393 711.618,-75.5892 701.023,-75.6445 703.37,-82.2393"/>
</g>
<!-- Node26&#45;&gt;Node11 -->
<g id="edge60" class="edge"><title>Node26&#45;&gt;Node11</title>
<path fill="none" stroke="midnightblue" d="M304.803,-320.789C225.879,-313.026 110.983,-298.491 72,-277 29.6733,-253.665 0,-243.833 0,-195.5 0,-195.5 0,-195.5 0,-126.5 0,-34.5073 331.93,-15.6975 448.843,-11.9255"/>
<polygon fill="midnightblue" stroke="midnightblue" points="449.257,-15.4147 459.147,-11.6144 449.046,-8.41786 449.257,-15.4147"/>
</g>
<!-- Node26&#45;&gt;Node21 -->
<g id="edge57" class="edge"><title>Node26&#45;&gt;Node21</title>
<path fill="none" stroke="midnightblue" d="M388.123,-313.396C390.438,-305.474 393.389,-295.379 396.051,-286.271"/>
<polygon fill="midnightblue" stroke="midnightblue" points="399.439,-287.157 398.885,-276.577 392.72,-285.193 399.439,-287.157"/>
</g>
<!-- Node26&#45;&gt;Node22 -->
<g id="edge58" class="edge"><title>Node26&#45;&gt;Node22</title>
<path fill="none" stroke="midnightblue" d="M423.057,-313.396C450.183,-303.601 486.514,-290.481 515.496,-280.015"/>
<polygon fill="midnightblue" stroke="midnightblue" points="516.802,-283.265 525.019,-276.577 514.425,-276.681 516.802,-283.265"/>
</g>
<!-- Node27&#45;&gt;Node3 -->
<g id="edge63" class="edge"><title>Node27&#45;&gt;Node3</title>
<path fill="none" stroke="midnightblue" d="M1182.29,-246.271C1220.31,-210.908 1318.84,-119.245 1358.3,-82.536"/>
<polygon fill="midnightblue" stroke="midnightblue" points="1360.84,-84.9508 1365.78,-75.5769 1356.07,-79.8256 1360.84,-84.9508"/>
</g>
<!-- Node27&#45;&gt;Node6 -->
<g id="edge70" class="edge"><title>Node27&#45;&gt;Node6</title>
<path fill="none" stroke="midnightblue" d="M1165.63,-246.32C1162.9,-209.06 1161.14,-107.713 1216,-56 1245.46,-28.2313 1362.21,-17.0682 1424.07,-13.0328"/>
<polygon fill="midnightblue" stroke="midnightblue" points="1424.46,-16.5153 1434.22,-12.4022 1424.03,-9.52871 1424.46,-16.5153"/>
</g>
<!-- Node27&#45;&gt;Node8 -->
<g id="edge69" class="edge"><title>Node27&#45;&gt;Node8</title>
<path fill="none" stroke="midnightblue" d="M1087.89,-253.218C1011.62,-245.144 902.412,-230.499 865,-210 836.199,-194.219 775.638,-118.452 749.02,-84.0542"/>
<polygon fill="midnightblue" stroke="midnightblue" points="751.615,-81.688 742.744,-75.896 746.067,-85.9562 751.615,-81.688"/>
</g>
<!-- Node27&#45;&gt;Node9 -->
<g id="edge68" class="edge"><title>Node27&#45;&gt;Node9</title>
<path fill="none" stroke="midnightblue" d="M1246.2,-260.009C1371.81,-258.034 1610.04,-249.069 1684,-210 1718.32,-191.873 1726.52,-179.394 1740,-143 1746.86,-124.479 1746.04,-101.636 1744.18,-85.8564"/>
<polygon fill="midnightblue" stroke="midnightblue" points="1747.61,-85.1781 1742.73,-75.777 1740.69,-86.1729 1747.61,-85.1781"/>
</g>
<!-- Node27&#45;&gt;Node18 -->
<g id="edge62" class="edge"><title>Node27&#45;&gt;Node18</title>
<path fill="none" stroke="midnightblue" d="M1173.03,-246.271C1187.7,-211.648 1225.25,-123.055 1241.41,-84.911"/>
<polygon fill="midnightblue" stroke="midnightblue" points="1244.69,-86.1499 1245.37,-75.5769 1238.24,-83.4186 1244.69,-86.1499"/>
</g>
<!-- Node27&#45;&gt;Node28 -->
<g id="edge64" class="edge"><title>Node27&#45;&gt;Node28</title>
<path fill="none" stroke="midnightblue" d="M1246.29,-249.13C1313.08,-239.468 1411.42,-225.039 1506.75,-210.182"/>
<polygon fill="midnightblue" stroke="midnightblue" points="1507.52,-213.605 1516.86,-208.603 1506.44,-206.688 1507.52,-213.605"/>
</g>
<!-- Node28&#45;&gt;Node8 -->
<g id="edge66" class="edge"><title>Node28&#45;&gt;Node8</title>
<path fill="none" stroke="midnightblue" d="M1538.09,-179.436C1461.75,-161.369 1323.05,-130.177 1203,-112 1056.78,-89.8606 883.066,-76.4898 794.404,-70.586"/>
<polygon fill="midnightblue" stroke="midnightblue" points="794.488,-67.084 784.28,-69.9197 794.028,-74.0689 794.488,-67.084"/>
</g>
<!-- Node28&#45;&gt;Node9 -->
<g id="edge67" class="edge"><title>Node28&#45;&gt;Node9</title>
<path fill="none" stroke="midnightblue" d="M1657.05,-179.489C1678.5,-171.858 1701.18,-160.304 1717,-143 1731.41,-127.235 1737.17,-102.847 1739.47,-85.9682"/>
<polygon fill="midnightblue" stroke="midnightblue" points="1742.99,-85.9972 1740.57,-75.6809 1736.03,-85.2505 1742.99,-85.9972"/>
</g>
<!-- Node28&#45;&gt;Node17 -->
<g id="edge65" class="edge"><title>Node28&#45;&gt;Node17</title>
<path fill="none" stroke="midnightblue" d="M1571.26,-179.396C1554.98,-170.112 1533.46,-157.841 1515.63,-147.674"/>
<polygon fill="midnightblue" stroke="midnightblue" points="1517.11,-144.489 1506.69,-142.577 1513.64,-150.57 1517.11,-144.489"/>
</g>
<!-- Node29&#45;&gt;Node3 -->
<g id="edge73" class="edge"><title>Node29&#45;&gt;Node3</title>
<path fill="none" stroke="midnightblue" d="M1411.58,-179.32C1405.98,-169.415 1398.8,-155.735 1394,-143 1386.82,-123.95 1381.55,-101.197 1378.4,-85.5826"/>
<polygon fill="midnightblue" stroke="midnightblue" points="1381.81,-84.7896 1376.48,-75.6295 1374.93,-86.1103 1381.81,-84.7896"/>
</g>
<!-- Node29&#45;&gt;Node4 -->
<g id="edge74" class="edge"><title>Node29&#45;&gt;Node4</title>
<path fill="none" stroke="midnightblue" d="M1485.26,-179.488C1520.76,-170.399 1559.54,-157.561 1570,-143 1582.22,-125.996 1574.03,-101.565 1565.73,-85.03"/>
<polygon fill="midnightblue" stroke="midnightblue" points="1568.6,-82.9867 1560.74,-75.8918 1562.46,-86.345 1568.6,-82.9867"/>
</g>
<!-- Node29&#45;&gt;Node8 -->
<g id="edge77" class="edge"><title>Node29&#45;&gt;Node8</title>
<path fill="none" stroke="midnightblue" d="M1377.95,-179.498C1321.65,-161.278 1218.39,-129.688 1128,-112 1010.82,-89.0704 871.486,-76.5037 794.487,-70.8181"/>
<polygon fill="midnightblue" stroke="midnightblue" points="794.271,-67.2934 784.044,-70.0612 793.765,-74.2751 794.271,-67.2934"/>
</g>
<!-- Node29&#45;&gt;Node9 -->
<g id="edge76" class="edge"><title>Node29&#45;&gt;Node9</title>
<path fill="none" stroke="midnightblue" d="M1475.27,-179.421C1508.43,-170.353 1551.18,-157.558 1588,-143 1635.04,-124.402 1687.31,-96.8546 1716.96,-80.5354"/>
<polygon fill="midnightblue" stroke="midnightblue" points="1718.71,-83.5673 1725.76,-75.6571 1715.31,-77.4454 1718.71,-83.5673"/>
</g>
<!-- Node29&#45;&gt;Node17 -->
<g id="edge75" class="edge"><title>Node29&#45;&gt;Node17</title>
<path fill="none" stroke="midnightblue" d="M1433.45,-179.396C1441.66,-170.793 1452.31,-159.626 1461.55,-149.945"/>
<polygon fill="midnightblue" stroke="midnightblue" points="1464.2,-152.228 1468.57,-142.577 1459.14,-147.397 1464.2,-152.228"/>
</g>
<!-- Node29&#45;&gt;Node18 -->
<g id="edge72" class="edge"><title>Node29&#45;&gt;Node18</title>
<path fill="none" stroke="midnightblue" d="M1401.05,-179.479C1368.48,-155.386 1302.2,-106.354 1268.95,-81.7608"/>
<polygon fill="midnightblue" stroke="midnightblue" points="1271,-78.922 1260.88,-75.7885 1266.84,-84.5496 1271,-78.922"/>
</g>
</g>
</svg>
