<?xml version="1.0" encoding="UTF-8" standalone="no"?>
<!DOCTYPE svg PUBLIC "-//W3C//DTD SVG 1.1//EN"
 "http://www.w3.org/Graphics/SVG/1.1/DTD/svg11.dtd">
<!-- Generated by graphviz version 2.38.0 (20140413.2041)
 -->
<!-- Title: /home/travis/build/ADVRHumanoids/ROSEndEffector/include/ros_end_effector/MapActionHandler.h Pages: 1 -->
<svg width="1933pt" height="508pt"
 viewBox="0.00 0.00 1933.00 508.00" xmlns="http://www.w3.org/2000/svg" xmlns:xlink="http://www.w3.org/1999/xlink">
<g id="graph0" class="graph" transform="scale(1 1) rotate(0) translate(4 504)">
<title>/home/travis/build/ADVRHumanoids/ROSEndEffector/include/ros_end_effector/MapActionHandler.h</title>
<!-- Node1 -->
<g id="node1" class="node"><title>Node1</title>
<polygon fill="#bfbfbf" stroke="black" points="1575.5,-447.5 1575.5,-499.5 1754.5,-499.5 1754.5,-447.5 1575.5,-447.5"/>
<text text-anchor="start" x="1583.5" y="-487.5" font-family="Helvetica,sans-Serif" font-size="10.00">/home/travis/build</text>
<text text-anchor="start" x="1583.5" y="-476.5" font-family="Helvetica,sans-Serif" font-size="10.00">/ADVRHumanoids/ROSEndEffector</text>
<text text-anchor="start" x="1583.5" y="-465.5" font-family="Helvetica,sans-Serif" font-size="10.00">/include/ros_end_effector</text>
<text text-anchor="middle" x="1665" y="-454.5" font-family="Helvetica,sans-Serif" font-size="10.00">/MapActionHandler.h</text>
</g>
<!-- Node2 -->
<g id="node2" class="node"><title>Node2</title>
<polygon fill="none" stroke="#bfbfbf" points="1326,-56.5 1326,-75.5 1370,-75.5 1370,-56.5 1326,-56.5"/>
<text text-anchor="middle" x="1348" y="-63.5" font-family="Helvetica,sans-Serif" font-size="10.00">string</text>
</g>
<!-- Node1&#45;&gt;Node2 -->
<g id="edge1" class="edge"><title>Node1&#45;&gt;Node2</title>
<path fill="none" stroke="midnightblue" d="M1684.69,-447.471C1692.16,-436.786 1700.05,-423.835 1705,-411 1742.36,-314.094 1753.39,-249.368 1677,-179 1590.4,-99.2273 1444.67,-75.9932 1380.26,-69.4546"/>
<polygon fill="midnightblue" stroke="midnightblue" points="1380.57,-65.9684 1370.29,-68.511 1379.91,-72.9373 1380.57,-65.9684"/>
</g>
<!-- Node3 -->
<g id="node3" class="node"><title>Node3</title>
<polygon fill="none" stroke="#bfbfbf" points="1500,-56.5 1500,-75.5 1538,-75.5 1538,-56.5 1500,-56.5"/>
<text text-anchor="middle" x="1519" y="-63.5" font-family="Helvetica,sans-Serif" font-size="10.00">map</text>
</g>
<!-- Node1&#45;&gt;Node3 -->
<g id="edge2" class="edge"><title>Node1&#45;&gt;Node3</title>
<path fill="none" stroke="midnightblue" d="M1739.97,-447.35C1758.31,-438.271 1776.51,-426.353 1790,-411 1811.85,-386.134 1814,-373.599 1814,-340.5 1814,-340.5 1814,-340.5 1814,-266 1814,-138.813 1623.21,-87.4928 1548.5,-72.2719"/>
<polygon fill="midnightblue" stroke="midnightblue" points="1548.84,-68.7724 1538.36,-70.2834 1547.5,-75.6417 1548.84,-68.7724"/>
</g>
<!-- Node4 -->
<g id="node4" class="node"><title>Node4</title>
<polygon fill="none" stroke="#bfbfbf" points="1060,-118 1060,-137 1092,-137 1092,-118 1060,-118"/>
<text text-anchor="middle" x="1076" y="-125" font-family="Helvetica,sans-Serif" font-size="10.00">set</text>
</g>
<!-- Node1&#45;&gt;Node4 -->
<g id="edge3" class="edge"><title>Node1&#45;&gt;Node4</title>
<path fill="none" stroke="midnightblue" d="M1618.99,-447.427C1521.38,-393.878 1286.92,-263.396 1097,-143 1096.91,-142.944 1096.82,-142.887 1096.73,-142.83"/>
<polygon fill="midnightblue" stroke="midnightblue" points="1098.6,-139.866 1088.33,-137.251 1094.72,-145.698 1098.6,-139.866"/>
</g>
<!-- Node5 -->
<g id="node5" class="node"><title>Node5</title>
<polygon fill="none" stroke="#bfbfbf" points="1393.5,-0.5 1393.5,-19.5 1450.5,-19.5 1450.5,-0.5 1393.5,-0.5"/>
<text text-anchor="middle" x="1422" y="-7.5" font-family="Helvetica,sans-Serif" font-size="10.00">memory</text>
</g>
<!-- Node1&#45;&gt;Node5 -->
<g id="edge4" class="edge"><title>Node1&#45;&gt;Node5</title>
<path fill="none" stroke="midnightblue" d="M1754.57,-456.782C1817.32,-440.026 1890,-406.395 1890,-340.5 1890,-340.5 1890,-340.5 1890,-126.5 1890,-66.1696 1831.07,-75.5569 1774,-56 1644.23,-11.532 1600.42,-42.6901 1460.78,-19.8838"/>
<polygon fill="midnightblue" stroke="midnightblue" points="1461,-16.3716 1450.56,-18.1467 1459.83,-23.2727 1461,-16.3716"/>
</g>
<!-- Node6 -->
<g id="node6" class="node"><title>Node6</title>
<g id="a_node6"><a xlink:href="YamlWorker_8h.html" target="_top" xlink:title="ros_end_effector/YamlWorker.h">
<polygon fill="none" stroke="black" points="820.5,-391.5 820.5,-410.5 985.5,-410.5 985.5,-391.5 820.5,-391.5"/>
<text text-anchor="middle" x="903" y="-398.5" font-family="Helvetica,sans-Serif" font-size="10.00">ros_end_effector/YamlWorker.h</text>
</a>
</g>
</g>
<!-- Node1&#45;&gt;Node6 -->
<g id="edge5" class="edge"><title>Node1&#45;&gt;Node6</title>
<path fill="none" stroke="midnightblue" d="M1575.45,-464.227C1447.74,-452.427 1205.93,-430.076 1000,-411 998.526,-410.864 997.04,-410.726 995.544,-410.587"/>
<polygon fill="midnightblue" stroke="midnightblue" points="995.832,-407.099 985.552,-409.661 995.186,-414.069 995.832,-407.099"/>
</g>
<!-- Node8 -->
<g id="node8" class="node"><title>Node8</title>
<g id="a_node8"><a xlink:href="Utils_8h.html" target="_top" xlink:title="ros_end_effector/Utils.h">
<polygon fill="none" stroke="black" points="1635,-56.5 1635,-75.5 1765,-75.5 1765,-56.5 1635,-56.5"/>
<text text-anchor="middle" x="1700" y="-63.5" font-family="Helvetica,sans-Serif" font-size="10.00">ros_end_effector/Utils.h</text>
</a>
</g>
</g>
<!-- Node1&#45;&gt;Node8 -->
<g id="edge77" class="edge"><title>Node1&#45;&gt;Node8</title>
<path fill="none" stroke="midnightblue" d="M1754.88,-454.182C1781.29,-445.002 1808.33,-431.321 1828,-411 1851.02,-387.216 1852,-373.599 1852,-340.5 1852,-340.5 1852,-340.5 1852,-193.5 1852,-133.688 1781.6,-96.6985 1736.63,-79.1693"/>
<polygon fill="midnightblue" stroke="midnightblue" points="1737.77,-75.8587 1727.17,-75.6236 1735.31,-82.4128 1737.77,-75.8587"/>
</g>
<!-- Node16 -->
<g id="node16" class="node"><title>Node16</title>
<g id="a_node16"><a xlink:href="Action_8h.html" target="_top" xlink:title="ros_end_effector/Grasping\lActions/Action.h">
<polygon fill="none" stroke="black" points="1376.5,-112.5 1376.5,-142.5 1519.5,-142.5 1519.5,-112.5 1376.5,-112.5"/>
<text text-anchor="start" x="1384.5" y="-130.5" font-family="Helvetica,sans-Serif" font-size="10.00">ros_end_effector/Grasping</text>
<text text-anchor="middle" x="1448" y="-119.5" font-family="Helvetica,sans-Serif" font-size="10.00">Actions/Action.h</text>
</a>
</g>
</g>
<!-- Node1&#45;&gt;Node16 -->
<g id="edge78" class="edge"><title>Node1&#45;&gt;Node16</title>
<path fill="none" stroke="midnightblue" d="M1675.88,-447.228C1686.16,-421.039 1700,-378.671 1700,-340.5 1700,-340.5 1700,-340.5 1700,-266 1700,-186.984 1603.35,-153.101 1529.76,-138.755"/>
<polygon fill="midnightblue" stroke="midnightblue" points="1530.01,-135.242 1519.54,-136.858 1528.73,-142.125 1530.01,-135.242"/>
</g>
<!-- Node18 -->
<g id="node18" class="node"><title>Node18</title>
<g id="a_node18"><a xlink:href="ActionPrimitive_8h.html" target="_top" xlink:title="ros_end_effector/Grasping\lActions/ActionPrimitive.h">
<polygon fill="none" stroke="black" points="880.5,-179.5 880.5,-209.5 1023.5,-209.5 1023.5,-179.5 880.5,-179.5"/>
<text text-anchor="start" x="888.5" y="-197.5" font-family="Helvetica,sans-Serif" font-size="10.00">ros_end_effector/Grasping</text>
<text text-anchor="middle" x="952" y="-186.5" font-family="Helvetica,sans-Serif" font-size="10.00">Actions/ActionPrimitive.h</text>
</a>
</g>
</g>
<!-- Node1&#45;&gt;Node18 -->
<g id="edge79" class="edge"><title>Node1&#45;&gt;Node18</title>
<path fill="none" stroke="midnightblue" d="M1575.48,-471.945C1487.15,-468.58 1349.8,-455.676 1240,-411 1125.96,-364.597 1016.75,-261.845 972.574,-217.065"/>
<polygon fill="midnightblue" stroke="midnightblue" points="974.824,-214.359 965.333,-209.65 969.816,-219.25 974.824,-214.359"/>
</g>
<!-- Node27 -->
<g id="node27" class="node"><title>Node27</title>
<g id="a_node27"><a xlink:href="ActionGeneric_8h.html" target="_top" xlink:title="ros_end_effector/Grasping\lActions/ActionGeneric.h">
<polygon fill="none" stroke="black" points="1490.5,-179.5 1490.5,-209.5 1633.5,-209.5 1633.5,-179.5 1490.5,-179.5"/>
<text text-anchor="start" x="1498.5" y="-197.5" font-family="Helvetica,sans-Serif" font-size="10.00">ros_end_effector/Grasping</text>
<text text-anchor="middle" x="1562" y="-186.5" font-family="Helvetica,sans-Serif" font-size="10.00">Actions/ActionGeneric.h</text>
</a>
</g>
</g>
<!-- Node1&#45;&gt;Node27 -->
<g id="edge81" class="edge"><title>Node1&#45;&gt;Node27</title>
<path fill="none" stroke="midnightblue" d="M1655.68,-447.43C1635.94,-394.353 1590.17,-271.259 1570.85,-219.311"/>
<polygon fill="midnightblue" stroke="midnightblue" points="1574.02,-217.787 1567.26,-209.634 1567.46,-220.227 1574.02,-217.787"/>
</g>
<!-- Node28 -->
<g id="node28" class="node"><title>Node28</title>
<g id="a_node28"><a xlink:href="ActionTimed_8h.html" target="_top" xlink:title="ros_end_effector/Grasping\lActions/ActionTimed.h">
<polygon fill="none" stroke="black" points="1329.5,-179.5 1329.5,-209.5 1472.5,-209.5 1472.5,-179.5 1329.5,-179.5"/>
<text text-anchor="start" x="1337.5" y="-197.5" font-family="Helvetica,sans-Serif" font-size="10.00">ros_end_effector/Grasping</text>
<text text-anchor="middle" x="1401" y="-186.5" font-family="Helvetica,sans-Serif" font-size="10.00">Actions/ActionTimed.h</text>
</a>
</g>
</g>
<!-- Node1&#45;&gt;Node28 -->
<g id="edge80" class="edge"><title>Node1&#45;&gt;Node28</title>
<path fill="none" stroke="midnightblue" d="M1641.11,-447.43C1589.78,-393.578 1469.76,-267.646 1421.57,-217.08"/>
<polygon fill="midnightblue" stroke="midnightblue" points="1423.9,-214.458 1414.47,-209.634 1418.84,-219.287 1423.9,-214.458"/>
</g>
<!-- Node6&#45;&gt;Node5 -->
<g id="edge6" class="edge"><title>Node6&#45;&gt;Node5</title>
<path fill="none" stroke="midnightblue" d="M911.7,-391.475C920.388,-382.734 933.871,-368.541 944,-355 989.152,-294.634 1004.85,-280.324 1032,-210 1047.98,-168.612 1023.76,-147.016 1051,-112 1092.16,-59.095 1297.08,-27.0377 1383.48,-15.6785"/>
<polygon fill="midnightblue" stroke="midnightblue" points="1383.94,-19.1482 1393.41,-14.3959 1383.04,-12.2058 1383.94,-19.1482"/>
</g>
<!-- Node7 -->
<g id="node7" class="node"><title>Node7</title>
<polygon fill="none" stroke="#bfbfbf" points="661,-56.5 661,-75.5 757,-75.5 757,-56.5 661,-56.5"/>
<text text-anchor="middle" x="709" y="-63.5" font-family="Helvetica,sans-Serif" font-size="10.00">yaml&#45;cpp/yaml.h</text>
</g>
<!-- Node6&#45;&gt;Node7 -->
<g id="edge7" class="edge"><title>Node6&#45;&gt;Node7</title>
<path fill="none" stroke="midnightblue" d="M820.352,-397.466C668.477,-392.295 350.697,-378.946 243,-355 146.383,-333.518 38,-366.976 38,-268 38,-268 38,-268 38,-193.5 38,-131.441 486.958,-86.2681 650.398,-71.8794"/>
<polygon fill="midnightblue" stroke="midnightblue" points="651.086,-75.3328 660.743,-70.9763 650.477,-68.3593 651.086,-75.3328"/>
</g>
<!-- Node6&#45;&gt;Node8 -->
<g id="edge8" class="edge"><title>Node6&#45;&gt;Node8</title>
<path fill="none" stroke="midnightblue" d="M985.817,-399.182C1075.66,-396.545 1222.64,-387.107 1345,-355 1500.74,-314.133 1556.77,-317.101 1677,-210 1702.73,-187.082 1707.02,-176.265 1716,-143 1721.31,-123.327 1714.77,-100.395 1708.53,-84.9089"/>
<polygon fill="midnightblue" stroke="midnightblue" points="1711.63,-83.257 1704.4,-75.5084 1705.22,-86.0717 1711.63,-83.257"/>
</g>
<!-- Node6&#45;&gt;Node16 -->
<g id="edge17" class="edge"><title>Node6&#45;&gt;Node16</title>
<path fill="none" stroke="midnightblue" d="M955.805,-391.443C996.034,-384.089 1052.42,-371.972 1100,-355 1163.09,-332.496 1183.11,-330.357 1235,-288 1282.59,-249.153 1270.8,-215.793 1320,-179 1339.25,-164.605 1363.14,-153.725 1385.05,-145.82"/>
<polygon fill="midnightblue" stroke="midnightblue" points="1386.32,-149.084 1394.62,-142.504 1384.03,-142.469 1386.32,-149.084"/>
</g>
<!-- Node6&#45;&gt;Node18 -->
<g id="edge25" class="edge"><title>Node6&#45;&gt;Node18</title>
<path fill="none" stroke="midnightblue" d="M907.26,-391.261C916.066,-372.738 936.186,-327.95 945,-288 950.018,-265.256 951.6,-238.69 952.027,-219.878"/>
<polygon fill="midnightblue" stroke="midnightblue" points="955.528,-219.831 952.163,-209.785 948.529,-219.737 955.528,-219.831"/>
</g>
<!-- Node19 -->
<g id="node19" class="node"><title>Node19</title>
<g id="a_node19"><a xlink:href="ActionPinchTight_8h.html" target="_top" xlink:title="ros_end_effector/Grasping\lActions/ActionPinchTight.h">
<polygon fill="none" stroke="black" points="499.5,-324.5 499.5,-354.5 642.5,-354.5 642.5,-324.5 499.5,-324.5"/>
<text text-anchor="start" x="507.5" y="-342.5" font-family="Helvetica,sans-Serif" font-size="10.00">ros_end_effector/Grasping</text>
<text text-anchor="middle" x="571" y="-331.5" font-family="Helvetica,sans-Serif" font-size="10.00">Actions/ActionPinchTight.h</text>
</a>
</g>
</g>
<!-- Node6&#45;&gt;Node19 -->
<g id="edge33" class="edge"><title>Node6&#45;&gt;Node19</title>
<path fill="none" stroke="midnightblue" d="M855.432,-391.475C802.587,-382.004 716.33,-366.546 652.639,-355.131"/>
<polygon fill="midnightblue" stroke="midnightblue" points="653.08,-351.654 642.619,-353.335 651.845,-358.545 653.08,-351.654"/>
</g>
<!-- Node22 -->
<g id="node22" class="node"><title>Node22</title>
<g id="a_node22"><a xlink:href="ActionPinchLoose_8h.html" target="_top" xlink:title="ros_end_effector/Grasping\lActions/ActionPinchLoose.h">
<polygon fill="none" stroke="black" points="663,-324.5 663,-354.5 811,-354.5 811,-324.5 663,-324.5"/>
<text text-anchor="start" x="671" y="-342.5" font-family="Helvetica,sans-Serif" font-size="10.00">ros_end_effector/Grasping</text>
<text text-anchor="middle" x="737" y="-331.5" font-family="Helvetica,sans-Serif" font-size="10.00">Actions/ActionPinchLoose.h</text>
</a>
</g>
</g>
<!-- Node6&#45;&gt;Node22 -->
<g id="edge41" class="edge"><title>Node6&#45;&gt;Node22</title>
<path fill="none" stroke="midnightblue" d="M879.216,-391.475C854.948,-382.776 816.586,-369.026 785.818,-357.998"/>
<polygon fill="midnightblue" stroke="midnightblue" points="786.717,-354.602 776.123,-354.523 784.356,-361.192 786.717,-354.602"/>
</g>
<!-- Node23 -->
<g id="node23" class="node"><title>Node23</title>
<g id="a_node23"><a xlink:href="ActionTrig_8h.html" target="_top" xlink:title="ros_end_effector/Grasping\lActions/ActionTrig.h">
<polygon fill="none" stroke="black" points="766.5,-252 766.5,-282 909.5,-282 909.5,-252 766.5,-252"/>
<text text-anchor="start" x="774.5" y="-270" font-family="Helvetica,sans-Serif" font-size="10.00">ros_end_effector/Grasping</text>
<text text-anchor="middle" x="838" y="-259" font-family="Helvetica,sans-Serif" font-size="10.00">Actions/ActionTrig.h</text>
</a>
</g>
</g>
<!-- Node6&#45;&gt;Node23 -->
<g id="edge47" class="edge"><title>Node6&#45;&gt;Node23</title>
<path fill="none" stroke="midnightblue" d="M898.735,-391.339C888.89,-371.345 864.297,-321.403 849.602,-291.561"/>
<polygon fill="midnightblue" stroke="midnightblue" points="852.591,-289.708 845.033,-282.283 846.311,-292.801 852.591,-289.708"/>
</g>
<!-- Node24 -->
<g id="node24" class="node"><title>Node24</title>
<g id="a_node24"><a xlink:href="ActionSingleJointMultipleTips_8h.html" target="_top" xlink:title="ros_end_effector/Grasping\lActions/ActionSingleJointMultiple\lTips.h">
<polygon fill="none" stroke="black" points="104.5,-246.5 104.5,-287.5 275.5,-287.5 275.5,-246.5 104.5,-246.5"/>
<text text-anchor="start" x="112.5" y="-275.5" font-family="Helvetica,sans-Serif" font-size="10.00">ros_end_effector/Grasping</text>
<text text-anchor="start" x="112.5" y="-264.5" font-family="Helvetica,sans-Serif" font-size="10.00">Actions/ActionSingleJointMultiple</text>
<text text-anchor="middle" x="190" y="-253.5" font-family="Helvetica,sans-Serif" font-size="10.00">Tips.h</text>
</a>
</g>
</g>
<!-- Node6&#45;&gt;Node24 -->
<g id="edge51" class="edge"><title>Node6&#45;&gt;Node24</title>
<path fill="none" stroke="midnightblue" d="M820.327,-400.168C676.409,-399.428 386.278,-393.071 293,-355 261.292,-342.059 232.185,-315.493 213.062,-295.103"/>
<polygon fill="midnightblue" stroke="midnightblue" points="215.566,-292.654 206.237,-287.632 210.397,-297.375 215.566,-292.654"/>
</g>
<!-- Node25 -->
<g id="node25" class="node"><title>Node25</title>
<g id="a_node25"><a xlink:href="ActionMultiplePinchTight_8h.html" target="_top" xlink:title="ros_end_effector/Grasping\lActions/ActionMultiplePinchTight.h">
<polygon fill="none" stroke="black" points="302.5,-324.5 302.5,-354.5 481.5,-354.5 481.5,-324.5 302.5,-324.5"/>
<text text-anchor="start" x="310.5" y="-342.5" font-family="Helvetica,sans-Serif" font-size="10.00">ros_end_effector/Grasping</text>
<text text-anchor="middle" x="392" y="-331.5" font-family="Helvetica,sans-Serif" font-size="10.00">Actions/ActionMultiplePinchTight.h</text>
</a>
</g>
</g>
<!-- Node6&#45;&gt;Node25 -->
<g id="edge55" class="edge"><title>Node6&#45;&gt;Node25</title>
<path fill="none" stroke="midnightblue" d="M820.221,-391.923C739.042,-383.787 611.491,-370.43 491.779,-355.202"/>
<polygon fill="midnightblue" stroke="midnightblue" points="492.066,-351.71 481.703,-353.913 491.178,-358.653 492.066,-351.71"/>
</g>
<!-- Node26 -->
<g id="node26" class="node"><title>Node26</title>
<g id="a_node26"><a xlink:href="ActionComposed_8h.html" target="_top" xlink:title="ros_end_effector/Grasping\lActions/ActionComposed.h">
<polygon fill="none" stroke="black" points="1080,-252 1080,-282 1226,-282 1226,-252 1080,-252"/>
<text text-anchor="start" x="1088" y="-270" font-family="Helvetica,sans-Serif" font-size="10.00">ros_end_effector/Grasping</text>
<text text-anchor="middle" x="1153" y="-259" font-family="Helvetica,sans-Serif" font-size="10.00">Actions/ActionComposed.h</text>
</a>
</g>
</g>
<!-- Node6&#45;&gt;Node26 -->
<g id="edge60" class="edge"><title>Node6&#45;&gt;Node26</title>
<path fill="none" stroke="midnightblue" d="M961.297,-391.452C993.732,-384.897 1033.91,-373.69 1066,-355 1094.59,-338.351 1120.43,-310.004 1136.38,-290.207"/>
<polygon fill="midnightblue" stroke="midnightblue" points="1139.16,-292.33 1142.59,-282.306 1133.66,-288.005 1139.16,-292.33"/>
</g>
<!-- Node6&#45;&gt;Node28 -->
<g id="edge70" class="edge"><title>Node6&#45;&gt;Node28</title>
<path fill="none" stroke="midnightblue" d="M985.85,-399.882C1090.41,-398.232 1262.92,-390.06 1315,-355 1362.54,-322.996 1385.97,-255.782 1395.53,-219.669"/>
<polygon fill="midnightblue" stroke="midnightblue" points="1399.03,-220.083 1398.06,-209.533 1392.24,-218.386 1399.03,-220.083"/>
</g>
<!-- Node8&#45;&gt;Node5 -->
<g id="edge10" class="edge"><title>Node8&#45;&gt;Node5</title>
<path fill="none" stroke="midnightblue" d="M1650.68,-56.4551C1604.25,-48.2528 1532.53,-35.1787 1460.73,-20.0716"/>
<polygon fill="midnightblue" stroke="midnightblue" points="1461.11,-16.5742 1450.6,-17.9267 1459.66,-23.4224 1461.11,-16.5742"/>
</g>
<!-- Node9 -->
<g id="node9" class="node"><title>Node9</title>
<polygon fill="none" stroke="#bfbfbf" points="1811.5,-0.5 1811.5,-19.5 1858.5,-19.5 1858.5,-0.5 1811.5,-0.5"/>
<text text-anchor="middle" x="1835" y="-7.5" font-family="Helvetica,sans-Serif" font-size="10.00">cmath</text>
</g>
<!-- Node8&#45;&gt;Node9 -->
<g id="edge9" class="edge"><title>Node8&#45;&gt;Node9</title>
<path fill="none" stroke="midnightblue" d="M1721.39,-56.4435C1743.71,-47.5171 1778.9,-33.4387 1804.21,-23.3168"/>
<polygon fill="midnightblue" stroke="midnightblue" points="1805.72,-26.4801 1813.71,-19.5164 1803.12,-19.9807 1805.72,-26.4801"/>
</g>
<!-- Node10 -->
<g id="node10" class="node"><title>Node10</title>
<polygon fill="none" stroke="#bfbfbf" points="432.5,-0.5 432.5,-19.5 491.5,-19.5 491.5,-0.5 432.5,-0.5"/>
<text text-anchor="middle" x="462" y="-7.5" font-family="Helvetica,sans-Serif" font-size="10.00">iostream</text>
</g>
<!-- Node8&#45;&gt;Node10 -->
<g id="edge11" class="edge"><title>Node8&#45;&gt;Node10</title>
<path fill="none" stroke="midnightblue" d="M1634.87,-60.9196C1607.71,-59.2828 1575.83,-57.4459 1547,-56 1139.14,-35.5479 644.705,-17.4893 502.195,-12.4159"/>
<polygon fill="midnightblue" stroke="midnightblue" points="501.899,-8.90324 491.781,-12.046 501.651,-15.8988 501.899,-8.90324"/>
</g>
<!-- Node11 -->
<g id="node11" class="node"><title>Node11</title>
<polygon fill="none" stroke="#bfbfbf" points="1877,-0.5 1877,-19.5 1925,-19.5 1925,-0.5 1877,-0.5"/>
<text text-anchor="middle" x="1901" y="-7.5" font-family="Helvetica,sans-Serif" font-size="10.00">dlfcn.h</text>
</g>
<!-- Node8&#45;&gt;Node11 -->
<g id="edge12" class="edge"><title>Node8&#45;&gt;Node11</title>
<path fill="none" stroke="midnightblue" d="M1731.85,-56.4435C1768.68,-46.5487 1829.07,-30.3235 1866.85,-20.1739"/>
<polygon fill="midnightblue" stroke="midnightblue" points="1868.12,-23.4574 1876.87,-17.4826 1866.3,-16.6971 1868.12,-23.4574"/>
</g>
<!-- Node12 -->
<g id="node12" class="node"><title>Node12</title>
<polygon fill="none" stroke="#bfbfbf" points="1469,-0.5 1469,-19.5 1585,-19.5 1585,-0.5 1469,-0.5"/>
<text text-anchor="middle" x="1527" y="-7.5" font-family="Helvetica,sans-Serif" font-size="10.00">boost/filesystem.hpp</text>
</g>
<!-- Node8&#45;&gt;Node12 -->
<g id="edge13" class="edge"><title>Node8&#45;&gt;Node12</title>
<path fill="none" stroke="midnightblue" d="M1672.59,-56.4435C1643.23,-47.2801 1596.48,-32.6876 1563.9,-22.5192"/>
<polygon fill="midnightblue" stroke="midnightblue" points="1564.87,-19.1551 1554.28,-19.5164 1562.79,-25.8371 1564.87,-19.1551"/>
</g>
<!-- Node13 -->
<g id="node13" class="node"><title>Node13</title>
<polygon fill="none" stroke="#bfbfbf" points="1603,-0.5 1603,-19.5 1657,-19.5 1657,-0.5 1603,-0.5"/>
<text text-anchor="middle" x="1630" y="-7.5" font-family="Helvetica,sans-Serif" font-size="10.00">fstream</text>
</g>
<!-- Node8&#45;&gt;Node13 -->
<g id="edge14" class="edge"><title>Node8&#45;&gt;Node13</title>
<path fill="none" stroke="midnightblue" d="M1688.75,-56.324C1678.2,-48.1849 1662.2,-35.8395 1649.56,-26.0874"/>
<polygon fill="midnightblue" stroke="midnightblue" points="1651.51,-23.1707 1641.45,-19.8339 1647.23,-28.7132 1651.51,-23.1707"/>
</g>
<!-- Node14 -->
<g id="node14" class="node"><title>Node14</title>
<polygon fill="none" stroke="#bfbfbf" points="1675,-0.5 1675,-19.5 1725,-19.5 1725,-0.5 1675,-0.5"/>
<text text-anchor="middle" x="1700" y="-7.5" font-family="Helvetica,sans-Serif" font-size="10.00">chrono</text>
</g>
<!-- Node8&#45;&gt;Node14 -->
<g id="edge15" class="edge"><title>Node8&#45;&gt;Node14</title>
<path fill="none" stroke="midnightblue" d="M1700,-56.083C1700,-49.0059 1700,-38.8611 1700,-29.9865"/>
<polygon fill="midnightblue" stroke="midnightblue" points="1703.5,-29.751 1700,-19.7511 1696.5,-29.7511 1703.5,-29.751"/>
</g>
<!-- Node15 -->
<g id="node15" class="node"><title>Node15</title>
<polygon fill="none" stroke="#bfbfbf" points="1743,-0.5 1743,-19.5 1793,-19.5 1793,-0.5 1743,-0.5"/>
<text text-anchor="middle" x="1768" y="-7.5" font-family="Helvetica,sans-Serif" font-size="10.00">atomic</text>
</g>
<!-- Node8&#45;&gt;Node15 -->
<g id="edge16" class="edge"><title>Node8&#45;&gt;Node15</title>
<path fill="none" stroke="midnightblue" d="M1710.93,-56.324C1721.17,-48.1849 1736.72,-35.8395 1749,-26.0874"/>
<polygon fill="midnightblue" stroke="midnightblue" points="1751.22,-28.7937 1756.88,-19.8339 1746.87,-23.3119 1751.22,-28.7937"/>
</g>
<!-- Node16&#45;&gt;Node2 -->
<g id="edge19" class="edge"><title>Node16&#45;&gt;Node2</title>
<path fill="none" stroke="midnightblue" d="M1424.3,-112.399C1408.27,-102.862 1387.2,-90.3248 1371.26,-80.8422"/>
<polygon fill="midnightblue" stroke="midnightblue" points="1372.93,-77.7633 1362.55,-75.6578 1369.36,-83.779 1372.93,-77.7633"/>
</g>
<!-- Node16&#45;&gt;Node3 -->
<g id="edge20" class="edge"><title>Node16&#45;&gt;Node3</title>
<path fill="none" stroke="midnightblue" d="M1464.83,-112.399C1475.67,-103.308 1489.78,-91.4899 1500.87,-82.1909"/>
<polygon fill="midnightblue" stroke="midnightblue" points="1503.25,-84.7634 1508.67,-75.6578 1498.76,-79.3983 1503.25,-84.7634"/>
</g>
<!-- Node16&#45;&gt;Node5 -->
<g id="edge22" class="edge"><title>Node16&#45;&gt;Node5</title>
<path fill="none" stroke="midnightblue" d="M1444.81,-112.337C1440.13,-91.5271 1431.38,-52.6632 1426.18,-29.5834"/>
<polygon fill="midnightblue" stroke="midnightblue" points="1429.56,-28.6567 1423.95,-19.6695 1422.73,-30.194 1429.56,-28.6567"/>
</g>
<!-- Node16&#45;&gt;Node7 -->
<g id="edge21" class="edge"><title>Node16&#45;&gt;Node7</title>
<path fill="none" stroke="midnightblue" d="M1376.26,-117.575C1359.15,-115.595 1340.94,-113.609 1324,-112 1119.83,-92.6023 876.839,-77.0367 767.46,-70.4303"/>
<polygon fill="midnightblue" stroke="midnightblue" points="767.49,-66.9259 757.298,-69.8192 767.07,-73.9133 767.49,-66.9259"/>
</g>
<!-- Node16&#45;&gt;Node8 -->
<g id="edge24" class="edge"><title>Node16&#45;&gt;Node8</title>
<path fill="none" stroke="midnightblue" d="M1507.4,-112.475C1552.3,-101.874 1613.03,-87.534 1654.21,-77.8123"/>
<polygon fill="midnightblue" stroke="midnightblue" points="1655.04,-81.2107 1663.97,-75.5064 1653.44,-74.398 1655.04,-81.2107"/>
</g>
<!-- Node16&#45;&gt;Node10 -->
<g id="edge23" class="edge"><title>Node16&#45;&gt;Node10</title>
<path fill="none" stroke="midnightblue" d="M1439.06,-112.317C1427.52,-95.4318 1405.71,-68.0109 1379,-56 1298.36,-19.7389 668.662,-12.5301 502.233,-11.2526"/>
<polygon fill="midnightblue" stroke="midnightblue" points="501.976,-7.75075 491.951,-11.1768 501.925,-14.7506 501.976,-7.75075"/>
</g>
<!-- Node17 -->
<g id="node17" class="node"><title>Node17</title>
<polygon fill="none" stroke="#bfbfbf" points="1198.5,-56.5 1198.5,-75.5 1245.5,-75.5 1245.5,-56.5 1198.5,-56.5"/>
<text text-anchor="middle" x="1222" y="-63.5" font-family="Helvetica,sans-Serif" font-size="10.00">vector</text>
</g>
<!-- Node16&#45;&gt;Node17 -->
<g id="edge18" class="edge"><title>Node16&#45;&gt;Node17</title>
<path fill="none" stroke="midnightblue" d="M1394.73,-112.475C1351.55,-101.106 1292.04,-85.4388 1255.34,-75.7771"/>
<polygon fill="midnightblue" stroke="midnightblue" points="1256.19,-72.3813 1245.63,-73.2199 1254.4,-79.1506 1256.19,-72.3813"/>
</g>
<!-- Node18&#45;&gt;Node2 -->
<g id="edge27" class="edge"><title>Node18&#45;&gt;Node2</title>
<path fill="none" stroke="midnightblue" d="M952.499,-179.453C953.977,-160.88 959.538,-128.573 980,-112 993.024,-101.451 1228.52,-78.2739 1315.8,-70.0047"/>
<polygon fill="midnightblue" stroke="midnightblue" points="1316.3,-73.4737 1325.92,-69.0499 1315.64,-66.5047 1316.3,-73.4737"/>
</g>
<!-- Node18&#45;&gt;Node3 -->
<g id="edge28" class="edge"><title>Node18&#45;&gt;Node3</title>
<path fill="none" stroke="midnightblue" d="M964.062,-179.31C981.201,-160.258 1014.59,-127.065 1051,-112 1091.49,-95.2479 1393.31,-74.9391 1489.58,-68.8258"/>
<polygon fill="midnightblue" stroke="midnightblue" points="1490.01,-72.3058 1499.77,-68.1832 1489.57,-65.3197 1490.01,-72.3058"/>
</g>
<!-- Node18&#45;&gt;Node4 -->
<g id="edge26" class="edge"><title>Node18&#45;&gt;Node4</title>
<path fill="none" stroke="midnightblue" d="M978.906,-179.396C1000.28,-168.193 1029.95,-152.641 1050.85,-141.685"/>
<polygon fill="midnightblue" stroke="midnightblue" points="1052.54,-144.75 1059.77,-137.007 1049.29,-138.55 1052.54,-144.75"/>
</g>
<!-- Node18&#45;&gt;Node7 -->
<g id="edge32" class="edge"><title>Node18&#45;&gt;Node7</title>
<path fill="none" stroke="midnightblue" d="M925.066,-179.479C877.882,-154.916 780.902,-104.431 734.643,-80.3494"/>
<polygon fill="midnightblue" stroke="midnightblue" points="736.065,-77.1434 725.578,-75.6303 732.832,-83.3524 736.065,-77.1434"/>
</g>
<!-- Node18&#45;&gt;Node10 -->
<g id="edge30" class="edge"><title>Node18&#45;&gt;Node10</title>
<path fill="none" stroke="midnightblue" d="M944.091,-179.261C925.981,-147.202 881.134,-70.9808 856,-56 796.827,-20.7301 589.409,-13.1037 501.671,-11.4548"/>
<polygon fill="midnightblue" stroke="midnightblue" points="501.641,-7.95385 491.582,-11.2819 501.521,-14.9528 501.641,-7.95385"/>
</g>
<!-- Node18&#45;&gt;Node16 -->
<g id="edge31" class="edge"><title>Node18&#45;&gt;Node16</title>
<path fill="none" stroke="midnightblue" d="M1023.59,-184.118C1114.45,-172.212 1270.79,-151.723 1366.24,-139.214"/>
<polygon fill="midnightblue" stroke="midnightblue" points="1366.97,-142.649 1376.43,-137.879 1366.06,-135.708 1366.97,-142.649"/>
</g>
<!-- Node18&#45;&gt;Node17 -->
<g id="edge29" class="edge"><title>Node18&#45;&gt;Node17</title>
<path fill="none" stroke="midnightblue" d="M944.484,-179.273C936.195,-161.391 926.005,-130.771 942,-112 973.296,-75.2721 1120.82,-68.4059 1188.24,-67.2047"/>
<polygon fill="midnightblue" stroke="midnightblue" points="1188.39,-70.7029 1198.34,-67.0568 1188.29,-63.7036 1188.39,-70.7029"/>
</g>
<!-- Node19&#45;&gt;Node7 -->
<g id="edge39" class="edge"><title>Node19&#45;&gt;Node7</title>
<path fill="none" stroke="midnightblue" d="M599.076,-324.422C613.774,-315.751 630.961,-303.351 642,-288 688.33,-223.575 703.07,-126.664 707.373,-86.0119"/>
<polygon fill="midnightblue" stroke="midnightblue" points="710.872,-86.1959 708.345,-75.9067 703.904,-85.5255 710.872,-86.1959"/>
</g>
<!-- Node19&#45;&gt;Node10 -->
<g id="edge40" class="edge"><title>Node19&#45;&gt;Node10</title>
<path fill="none" stroke="midnightblue" d="M499.499,-325.355C496.292,-324.875 493.115,-324.42 490,-324 402.649,-312.223 160.707,-346.749 95,-288 63.7128,-260.026 76,-237.469 76,-195.5 76,-195.5 76,-195.5 76,-126.5 76,-54.7914 323.593,-23.8594 422.187,-14.3847"/>
<polygon fill="midnightblue" stroke="midnightblue" points="422.722,-17.8501 432.352,-13.4336 422.07,-10.8805 422.722,-17.8501"/>
</g>
<!-- Node20 -->
<g id="node20" class="node"><title>Node20</title>
<g id="a_node20"><a xlink:href="ActionPinchGeneric_8h.html" target="_top" xlink:title="ros_end_effector/Grasping\lActions/ActionPinchGeneric.h">
<polygon fill="none" stroke="black" points="332,-252 332,-282 488,-282 488,-252 332,-252"/>
<text text-anchor="start" x="340" y="-270" font-family="Helvetica,sans-Serif" font-size="10.00">ros_end_effector/Grasping</text>
<text text-anchor="middle" x="410" y="-259" font-family="Helvetica,sans-Serif" font-size="10.00">Actions/ActionPinchGeneric.h</text>
</a>
</g>
</g>
<!-- Node19&#45;&gt;Node20 -->
<g id="edge34" class="edge"><title>Node19&#45;&gt;Node20</title>
<path fill="none" stroke="midnightblue" d="M538.806,-324.403C513.688,-313.404 478.611,-298.044 451.404,-286.13"/>
<polygon fill="midnightblue" stroke="midnightblue" points="452.702,-282.878 442.138,-282.073 449.894,-289.29 452.702,-282.878"/>
</g>
<!-- Node21 -->
<g id="node21" class="node"><title>Node21</title>
<polygon fill="none" stroke="#bfbfbf" points="506.5,-252 506.5,-282 633.5,-282 633.5,-252 506.5,-252"/>
<text text-anchor="start" x="514.5" y="-270" font-family="Helvetica,sans-Serif" font-size="10.00">moveit/planning_scene</text>
<text text-anchor="middle" x="570" y="-259" font-family="Helvetica,sans-Serif" font-size="10.00">/planning_scene.h</text>
</g>
<!-- Node19&#45;&gt;Node21 -->
<g id="edge38" class="edge"><title>Node19&#45;&gt;Node21</title>
<path fill="none" stroke="midnightblue" d="M570.798,-324.233C570.669,-315.155 570.499,-303.158 570.349,-292.577"/>
<polygon fill="midnightblue" stroke="midnightblue" points="573.844,-292.195 570.202,-282.246 566.844,-292.294 573.844,-292.195"/>
</g>
<!-- Node20&#45;&gt;Node7 -->
<g id="edge36" class="edge"><title>Node20&#45;&gt;Node7</title>
<path fill="none" stroke="midnightblue" d="M462.212,-251.989C490.417,-242.858 524.907,-229.06 552,-210 599.395,-176.657 593.968,-149.672 638,-112 652.099,-99.937 669.708,-88.756 683.862,-80.5565"/>
<polygon fill="midnightblue" stroke="midnightblue" points="685.61,-83.5886 692.592,-75.6196 682.165,-77.4953 685.61,-83.5886"/>
</g>
<!-- Node20&#45;&gt;Node10 -->
<g id="edge37" class="edge"><title>Node20&#45;&gt;Node10</title>
<path fill="none" stroke="midnightblue" d="M411.945,-251.866C416.759,-217.856 430.143,-128.871 448,-56 450.194,-47.0488 453.167,-37.2626 455.81,-29.1091"/>
<polygon fill="midnightblue" stroke="midnightblue" points="459.158,-30.1325 458.999,-19.5388 452.517,-27.9191 459.158,-30.1325"/>
</g>
<!-- Node20&#45;&gt;Node18 -->
<g id="edge35" class="edge"><title>Node20&#45;&gt;Node18</title>
<path fill="none" stroke="midnightblue" d="M466.905,-251.928C476.894,-249.741 487.221,-247.661 497,-246 626.714,-223.968 778.932,-209.313 870.308,-201.707"/>
<polygon fill="midnightblue" stroke="midnightblue" points="870.644,-205.191 880.323,-200.881 870.069,-198.215 870.644,-205.191"/>
</g>
<!-- Node22&#45;&gt;Node7 -->
<g id="edge45" class="edge"><title>Node22&#45;&gt;Node7</title>
<path fill="none" stroke="midnightblue" d="M735.534,-324.285C730.847,-278.836 716.223,-137.04 710.934,-85.7519"/>
<polygon fill="midnightblue" stroke="midnightblue" points="714.384,-85.0906 709.877,-75.5025 707.421,-85.8088 714.384,-85.0906"/>
</g>
<!-- Node22&#45;&gt;Node10 -->
<g id="edge46" class="edge"><title>Node22&#45;&gt;Node10</title>
<path fill="none" stroke="midnightblue" d="M725.184,-324.428C680.691,-271.441 523.372,-84.088 475.756,-27.3819"/>
<polygon fill="midnightblue" stroke="midnightblue" points="478.431,-25.1251 469.32,-19.7176 473.07,-29.6265 478.431,-25.1251"/>
</g>
<!-- Node22&#45;&gt;Node18 -->
<g id="edge42" class="edge"><title>Node22&#45;&gt;Node18</title>
<path fill="none" stroke="midnightblue" d="M811.165,-333.441C847.316,-327.413 889.111,-314.661 918,-288 937.272,-270.214 945.655,-240.565 949.279,-219.635"/>
<polygon fill="midnightblue" stroke="midnightblue" points="952.764,-220.001 950.773,-209.594 945.84,-218.97 952.764,-220.001"/>
</g>
<!-- Node22&#45;&gt;Node20 -->
<g id="edge43" class="edge"><title>Node22&#45;&gt;Node20</title>
<path fill="none" stroke="midnightblue" d="M668.651,-324.47C620.589,-314.519 554.801,-300.724 497,-288 491.608,-286.813 486.032,-285.569 480.427,-284.307"/>
<polygon fill="midnightblue" stroke="midnightblue" points="480.868,-280.818 470.342,-282.024 479.322,-287.646 480.868,-280.818"/>
</g>
<!-- Node22&#45;&gt;Node21 -->
<g id="edge44" class="edge"><title>Node22&#45;&gt;Node21</title>
<path fill="none" stroke="midnightblue" d="M703.606,-324.403C677.438,-313.356 640.85,-297.91 612.578,-285.975"/>
<polygon fill="midnightblue" stroke="midnightblue" points="613.91,-282.738 603.336,-282.073 611.187,-289.187 613.91,-282.738"/>
</g>
<!-- Node23&#45;&gt;Node7 -->
<g id="edge49" class="edge"><title>Node23&#45;&gt;Node7</title>
<path fill="none" stroke="midnightblue" d="M827.486,-251.908C810.811,-229.354 777.57,-183.556 752,-143 739.664,-123.434 726.758,-100.193 718.343,-84.6093"/>
<polygon fill="midnightblue" stroke="midnightblue" points="721.32,-82.753 713.514,-75.5894 715.149,-86.0573 721.32,-82.753"/>
</g>
<!-- Node23&#45;&gt;Node10 -->
<g id="edge50" class="edge"><title>Node23&#45;&gt;Node10</title>
<path fill="none" stroke="midnightblue" d="M837.847,-251.75C836.602,-213.343 827.489,-107.136 766,-56 726.559,-23.2003 574.848,-14.2854 501.782,-11.8796"/>
<polygon fill="midnightblue" stroke="midnightblue" points="501.697,-8.37552 491.595,-11.5698 501.484,-15.3723 501.697,-8.37552"/>
</g>
<!-- Node23&#45;&gt;Node18 -->
<g id="edge48" class="edge"><title>Node23&#45;&gt;Node18</title>
<path fill="none" stroke="midnightblue" d="M860.796,-251.903C877.96,-241.288 901.691,-226.612 920.644,-214.891"/>
<polygon fill="midnightblue" stroke="midnightblue" points="922.58,-217.809 929.244,-209.573 918.898,-211.856 922.58,-217.809"/>
</g>
<!-- Node24&#45;&gt;Node7 -->
<g id="edge53" class="edge"><title>Node24&#45;&gt;Node7</title>
<path fill="none" stroke="midnightblue" d="M229.863,-246.437C305.109,-209.71 465.738,-132.303 524,-112 566.511,-97.1857 616.152,-85.3975 653.303,-77.6085"/>
<polygon fill="midnightblue" stroke="midnightblue" points="654.348,-80.9668 663.434,-75.5185 652.933,-74.1112 654.348,-80.9668"/>
</g>
<!-- Node24&#45;&gt;Node10 -->
<g id="edge54" class="edge"><title>Node24&#45;&gt;Node10</title>
<path fill="none" stroke="midnightblue" d="M210.892,-246.414C262.996,-197.566 397.902,-71.0922 445.264,-26.6901"/>
<polygon fill="midnightblue" stroke="midnightblue" points="447.91,-29.0072 452.811,-19.6144 443.122,-23.9004 447.91,-29.0072"/>
</g>
<!-- Node24&#45;&gt;Node18 -->
<g id="edge52" class="edge"><title>Node24&#45;&gt;Node18</title>
<path fill="none" stroke="midnightblue" d="M275.738,-252.217C291.435,-249.947 307.69,-247.764 323,-246 518.639,-223.464 749.668,-207.677 869.922,-200.273"/>
<polygon fill="midnightblue" stroke="midnightblue" points="870.384,-203.751 880.151,-199.647 869.956,-196.764 870.384,-203.751"/>
</g>
<!-- Node25&#45;&gt;Node7 -->
<g id="edge58" class="edge"><title>Node25&#45;&gt;Node7</title>
<path fill="none" stroke="midnightblue" d="M361.094,-324.336C346.724,-315.975 331.06,-303.886 323,-288 314.555,-271.353 313.017,-261.773 323,-246 343.708,-213.283 589.423,-114.085 677.683,-79.2516"/>
<polygon fill="midnightblue" stroke="midnightblue" points="679.141,-82.4389 687.164,-75.5185 676.577,-75.9256 679.141,-82.4389"/>
</g>
<!-- Node25&#45;&gt;Node10 -->
<g id="edge59" class="edge"><title>Node25&#45;&gt;Node10</title>
<path fill="none" stroke="midnightblue" d="M302.124,-332.856C218.4,-326.166 100.828,-312.673 62,-288 20.2284,-261.456 0,-244.992 0,-195.5 0,-195.5 0,-195.5 0,-126.5 0,-84.7737 25.0033,-75.2959 62,-56 124.072,-23.6261 333.993,-14.3628 422.318,-11.8653"/>
<polygon fill="midnightblue" stroke="midnightblue" points="422.566,-15.3601 432.469,-11.5932 422.378,-8.36257 422.566,-15.3601"/>
</g>
<!-- Node25&#45;&gt;Node20 -->
<g id="edge56" class="edge"><title>Node25&#45;&gt;Node20</title>
<path fill="none" stroke="midnightblue" d="M395.643,-324.233C397.985,-315.06 401.088,-302.905 403.81,-292.244"/>
<polygon fill="midnightblue" stroke="midnightblue" points="407.28,-292.801 406.363,-282.246 400.498,-291.069 407.28,-292.801"/>
</g>
<!-- Node25&#45;&gt;Node21 -->
<g id="edge57" class="edge"><title>Node25&#45;&gt;Node21</title>
<path fill="none" stroke="midnightblue" d="M427.593,-324.403C455.607,-313.307 494.822,-297.775 525.01,-285.819"/>
<polygon fill="midnightblue" stroke="midnightblue" points="526.46,-289.009 534.469,-282.073 523.882,-282.501 526.46,-289.009"/>
</g>
<!-- Node26&#45;&gt;Node2 -->
<g id="edge62" class="edge"><title>Node26&#45;&gt;Node2</title>
<path fill="none" stroke="midnightblue" d="M1167.02,-251.688C1202.41,-215.579 1295.13,-120.958 1332.27,-83.0476"/>
<polygon fill="midnightblue" stroke="midnightblue" points="1334.82,-85.4523 1339.32,-75.8601 1329.82,-80.553 1334.82,-85.4523"/>
</g>
<!-- Node26&#45;&gt;Node5 -->
<g id="edge69" class="edge"><title>Node26&#45;&gt;Node5</title>
<path fill="none" stroke="midnightblue" d="M1150.56,-251.877C1144.95,-214.246 1135.43,-110.709 1189,-56 1215.51,-28.9251 1324.23,-17.5252 1383.32,-13.253"/>
<polygon fill="midnightblue" stroke="midnightblue" points="1383.67,-16.7378 1393.4,-12.5587 1383.19,-9.75432 1383.67,-16.7378"/>
</g>
<!-- Node26&#45;&gt;Node7 -->
<g id="edge68" class="edge"><title>Node26&#45;&gt;Node7</title>
<path fill="none" stroke="midnightblue" d="M1079.83,-261.977C1020.83,-256.32 937.095,-242.715 871,-210 837.695,-193.515 758.915,-116.901 724.993,-83.0977"/>
<polygon fill="midnightblue" stroke="midnightblue" points="727.29,-80.4454 717.746,-75.8464 722.339,-85.3937 727.29,-80.4454"/>
</g>
<!-- Node26&#45;&gt;Node8 -->
<g id="edge67" class="edge"><title>Node26&#45;&gt;Node8</title>
<path fill="none" stroke="midnightblue" d="M1226.01,-264.15C1344.3,-260.081 1571.69,-247.497 1642,-210 1676.5,-191.602 1685.26,-179.603 1699,-143 1705.94,-124.509 1705.11,-101.661 1703.22,-85.8719"/>
<polygon fill="midnightblue" stroke="midnightblue" points="1706.65,-85.1778 1701.75,-75.7853 1699.73,-86.1849 1706.65,-85.1778"/>
</g>
<!-- Node26&#45;&gt;Node17 -->
<g id="edge61" class="edge"><title>Node26&#45;&gt;Node17</title>
<path fill="none" stroke="midnightblue" d="M1157.96,-251.688C1170.22,-216.335 1201.93,-124.892 1215.59,-85.5003"/>
<polygon fill="midnightblue" stroke="midnightblue" points="1218.96,-86.4549 1218.93,-75.8601 1212.34,-84.1617 1218.96,-86.4549"/>
</g>
<!-- Node26&#45;&gt;Node27 -->
<g id="edge63" class="edge"><title>Node26&#45;&gt;Node27</title>
<path fill="none" stroke="midnightblue" d="M1226.31,-253.658C1290.53,-242.805 1386.66,-226.463 1480.5,-210.079"/>
<polygon fill="midnightblue" stroke="midnightblue" points="1481.2,-213.51 1490.45,-208.34 1480,-206.614 1481.2,-213.51"/>
</g>
<!-- Node27&#45;&gt;Node7 -->
<g id="edge65" class="edge"><title>Node27&#45;&gt;Node7</title>
<path fill="none" stroke="midnightblue" d="M1505.76,-179.468C1431.26,-161.363 1295.55,-130.054 1178,-112 1031.01,-89.4249 856.265,-76.2189 767.314,-70.4601"/>
<polygon fill="midnightblue" stroke="midnightblue" points="767.362,-66.9561 757.159,-69.811 766.916,-73.9419 767.362,-66.9561"/>
</g>
<!-- Node27&#45;&gt;Node8 -->
<g id="edge66" class="edge"><title>Node27&#45;&gt;Node8</title>
<path fill="none" stroke="midnightblue" d="M1617.79,-179.418C1638.53,-171.698 1660.7,-160.101 1676,-143 1690.24,-127.08 1696.03,-102.724 1698.39,-85.8949"/>
<polygon fill="midnightblue" stroke="midnightblue" points="1701.9,-85.9691 1699.53,-75.6429 1694.95,-85.1937 1701.9,-85.9691"/>
</g>
<!-- Node27&#45;&gt;Node16 -->
<g id="edge64" class="edge"><title>Node27&#45;&gt;Node16</title>
<path fill="none" stroke="midnightblue" d="M1537.26,-179.396C1520.98,-170.112 1499.46,-157.841 1481.63,-147.674"/>
<polygon fill="midnightblue" stroke="midnightblue" points="1483.11,-144.489 1472.69,-142.577 1479.64,-150.57 1483.11,-144.489"/>
</g>
<!-- Node28&#45;&gt;Node2 -->
<g id="edge72" class="edge"><title>Node28&#45;&gt;Node2</title>
<path fill="none" stroke="midnightblue" d="M1389.44,-179.271C1382.08,-169.564 1372.85,-156.132 1367,-143 1358.72,-124.403 1353.63,-101.573 1350.83,-85.8168"/>
<polygon fill="midnightblue" stroke="midnightblue" points="1354.25,-85.0579 1349.18,-75.7557 1347.34,-86.1901 1354.25,-85.0579"/>
</g>
<!-- Node28&#45;&gt;Node3 -->
<g id="edge73" class="edge"><title>Node28&#45;&gt;Node3</title>
<path fill="none" stroke="midnightblue" d="M1472.83,-181.067C1494.15,-173.663 1515.21,-161.849 1528,-143 1539.5,-126.044 1533.88,-101.936 1527.59,-85.447"/>
<polygon fill="midnightblue" stroke="midnightblue" points="1530.66,-83.708 1523.54,-75.863 1524.21,-86.4364 1530.66,-83.708"/>
</g>
<!-- Node28&#45;&gt;Node7 -->
<g id="edge76" class="edge"><title>Node28&#45;&gt;Node7</title>
<path fill="none" stroke="midnightblue" d="M1357.26,-179.381C1299.28,-161.18 1193.49,-129.766 1101,-112 983.743,-89.4758 844.436,-76.7625 767.463,-70.942"/>
<polygon fill="midnightblue" stroke="midnightblue" points="767.256,-67.4171 757.024,-70.1662 766.737,-74.3978 767.256,-67.4171"/>
</g>
<!-- Node28&#45;&gt;Node8 -->
<g id="edge75" class="edge"><title>Node28&#45;&gt;Node8</title>
<path fill="none" stroke="midnightblue" d="M1445.96,-179.429C1474.87,-169.994 1513.06,-156.804 1546,-143 1592.65,-123.454 1645.1,-96.4397 1675.17,-80.438"/>
<polygon fill="midnightblue" stroke="midnightblue" points="1676.95,-83.4566 1684.12,-75.6531 1673.65,-77.2844 1676.95,-83.4566"/>
</g>
<!-- Node28&#45;&gt;Node16 -->
<g id="edge74" class="edge"><title>Node28&#45;&gt;Node16</title>
<path fill="none" stroke="midnightblue" d="M1411.2,-179.396C1417.23,-171.049 1425.02,-160.287 1431.87,-150.811"/>
<polygon fill="midnightblue" stroke="midnightblue" points="1434.8,-152.731 1437.82,-142.577 1429.13,-148.629 1434.8,-152.731"/>
</g>
<!-- Node28&#45;&gt;Node17 -->
<g id="edge71" class="edge"><title>Node28&#45;&gt;Node17</title>
<path fill="none" stroke="midnightblue" d="M1381.16,-179.479C1347.07,-155.386 1277.69,-106.354 1242.89,-81.7608"/>
<polygon fill="midnightblue" stroke="midnightblue" points="1244.62,-78.7016 1234.44,-75.7885 1240.58,-84.4182 1244.62,-78.7016"/>
</g>
</g>
</svg>
