<?xml version="1.0" encoding="UTF-8" standalone="no"?>
<!DOCTYPE svg PUBLIC "-//W3C//DTD SVG 1.1//EN"
 "http://www.w3.org/Graphics/SVG/1.1/DTD/svg11.dtd">
<!-- Generated by graphviz version 2.38.0 (20140413.2041)
 -->
<!-- Title: /home/travis/build/ADVRHumanoids/ROSEndEffector/include/end_effector/MapActionHandler.h Pages: 1 -->
<svg width="845pt" height="295pt"
 viewBox="0.00 0.00 845.00 295.00" xmlns="http://www.w3.org/2000/svg" xmlns:xlink="http://www.w3.org/1999/xlink">
<g id="graph0" class="graph" transform="scale(1 1) rotate(0) translate(4 291)">
<title>/home/travis/build/ADVRHumanoids/ROSEndEffector/include/end_effector/MapActionHandler.h</title>
<!-- Node1 -->
<g id="node1" class="node"><title>Node1</title>
<polygon fill="#bfbfbf" stroke="black" points="333.5,-245.5 333.5,-286.5 549.5,-286.5 549.5,-245.5 333.5,-245.5"/>
<text text-anchor="start" x="341.5" y="-274.5" font-family="Helvetica,sans-Serif" font-size="10.00">/home/travis/build</text>
<text text-anchor="start" x="341.5" y="-263.5" font-family="Helvetica,sans-Serif" font-size="10.00">/ADVRHumanoids/ROSEndEffector</text>
<text text-anchor="middle" x="441.5" y="-252.5" font-family="Helvetica,sans-Serif" font-size="10.00">/include/end_effector/MapActionHandler.h</text>
</g>
<!-- Node2 -->
<g id="node2" class="node"><title>Node2</title>
<g id="a_node2"><a xlink:href="RosServiceHandler_8h.html" target="_top" xlink:title="/home/travis/build\l/ADVRHumanoids/ROSEndEffector\l/include/end_effector/RosServiceHandler.h">
<polygon fill="none" stroke="black" points="224.5,-167.5 224.5,-208.5 442.5,-208.5 442.5,-167.5 224.5,-167.5"/>
<text text-anchor="start" x="232.5" y="-196.5" font-family="Helvetica,sans-Serif" font-size="10.00">/home/travis/build</text>
<text text-anchor="start" x="232.5" y="-185.5" font-family="Helvetica,sans-Serif" font-size="10.00">/ADVRHumanoids/ROSEndEffector</text>
<text text-anchor="middle" x="333.5" y="-174.5" font-family="Helvetica,sans-Serif" font-size="10.00">/include/end_effector/RosServiceHandler.h</text>
</a>
</g>
</g>
<!-- Node1&#45;&gt;Node2 -->
<g id="edge1" class="edge"><title>Node1&#45;&gt;Node2</title>
<path fill="none" stroke="midnightblue" d="M405.455,-239.635C391.034,-229.487 374.684,-217.982 361.218,-208.506"/>
<polygon fill="midnightblue" stroke="midnightblue" points="403.495,-242.535 413.687,-245.428 407.523,-236.811 403.495,-242.535"/>
</g>
<!-- Node3 -->
<g id="node3" class="node"><title>Node3</title>
<g id="a_node3"><a xlink:href="UniversalRosEndEffectorExecutor_8h.html" target="_top" xlink:title="/home/travis/build\l/ADVRHumanoids/ROSEndEffector\l/include/end_effector/UniversalRos\lEndEffectorExecutor.h">
<polygon fill="none" stroke="black" points="106,-78.5 106,-130.5 287,-130.5 287,-78.5 106,-78.5"/>
<text text-anchor="start" x="114" y="-118.5" font-family="Helvetica,sans-Serif" font-size="10.00">/home/travis/build</text>
<text text-anchor="start" x="114" y="-107.5" font-family="Helvetica,sans-Serif" font-size="10.00">/ADVRHumanoids/ROSEndEffector</text>
<text text-anchor="start" x="114" y="-96.5" font-family="Helvetica,sans-Serif" font-size="10.00">/include/end_effector/UniversalRos</text>
<text text-anchor="middle" x="196.5" y="-85.5" font-family="Helvetica,sans-Serif" font-size="10.00">EndEffectorExecutor.h</text>
</a>
</g>
</g>
<!-- Node1&#45;&gt;Node3 -->
<g id="edge6" class="edge"><title>Node1&#45;&gt;Node3</title>
<path fill="none" stroke="midnightblue" d="M323.331,-247.666C276.985,-238.49 231.142,-225.632 215.5,-209 195.85,-188.106 193.156,-153.912 194.011,-130.59"/>
<polygon fill="midnightblue" stroke="midnightblue" points="322.736,-251.115 333.217,-249.568 324.059,-244.242 322.736,-251.115"/>
</g>
<!-- Node7 -->
<g id="node7" class="node"><title>Node7</title>
<g id="a_node7"><a xlink:href="MapActionHandler_8cpp.html" target="_top" xlink:title="/home/travis/build\l/ADVRHumanoids/ROSEndEffector\l/src/MapActionHandler.cpp">
<polygon fill="none" stroke="black" points="461,-167.5 461,-208.5 640,-208.5 640,-167.5 461,-167.5"/>
<text text-anchor="start" x="469" y="-196.5" font-family="Helvetica,sans-Serif" font-size="10.00">/home/travis/build</text>
<text text-anchor="start" x="469" y="-185.5" font-family="Helvetica,sans-Serif" font-size="10.00">/ADVRHumanoids/ROSEndEffector</text>
<text text-anchor="middle" x="550.5" y="-174.5" font-family="Helvetica,sans-Serif" font-size="10.00">/src/MapActionHandler.cpp</text>
</a>
</g>
</g>
<!-- Node1&#45;&gt;Node7 -->
<g id="edge7" class="edge"><title>Node1&#45;&gt;Node7</title>
<path fill="none" stroke="midnightblue" d="M477.878,-239.635C492.433,-229.487 508.934,-217.982 522.525,-208.506"/>
<polygon fill="midnightblue" stroke="midnightblue" points="475.771,-236.838 469.57,-245.428 479.775,-242.58 475.771,-236.838"/>
</g>
<!-- Node8 -->
<g id="node8" class="node"><title>Node8</title>
<g id="a_node8"><a xlink:href="UniversalFindActions_8cpp.html" target="_top" xlink:title="/home/travis/build\l/ADVRHumanoids/ROSEndEffector\l/src/UniversalFindActions.cpp">
<polygon fill="none" stroke="black" points="658,-167.5 658,-208.5 837,-208.5 837,-167.5 658,-167.5"/>
<text text-anchor="start" x="666" y="-196.5" font-family="Helvetica,sans-Serif" font-size="10.00">/home/travis/build</text>
<text text-anchor="start" x="666" y="-185.5" font-family="Helvetica,sans-Serif" font-size="10.00">/ADVRHumanoids/ROSEndEffector</text>
<text text-anchor="middle" x="747.5" y="-174.5" font-family="Helvetica,sans-Serif" font-size="10.00">/src/UniversalFindActions.cpp</text>
</a>
</g>
</g>
<!-- Node1&#45;&gt;Node8 -->
<g id="edge8" class="edge"><title>Node1&#45;&gt;Node8</title>
<path fill="none" stroke="midnightblue" d="M530.104,-242.994C573.994,-232.093 626.532,-219.044 668.964,-208.506"/>
<polygon fill="midnightblue" stroke="midnightblue" points="529.164,-239.621 520.303,-245.428 530.851,-246.414 529.164,-239.621"/>
</g>
<!-- Node2&#45;&gt;Node3 -->
<g id="edge2" class="edge"><title>Node2&#45;&gt;Node3</title>
<path fill="none" stroke="midnightblue" d="M291.64,-162.098C274.833,-152.099 255.49,-140.593 238.653,-130.576"/>
<polygon fill="midnightblue" stroke="midnightblue" points="290.301,-165.374 300.685,-167.479 293.88,-159.358 290.301,-165.374"/>
</g>
<!-- Node6 -->
<g id="node6" class="node"><title>Node6</title>
<g id="a_node6"><a xlink:href="RosServiceHandler_8cpp.html" target="_top" xlink:title="/home/travis/build\l/ADVRHumanoids/ROSEndEffector\l/src/RosServiceHandler.cpp">
<polygon fill="none" stroke="black" points="305,-84 305,-125 484,-125 484,-84 305,-84"/>
<text text-anchor="start" x="313" y="-113" font-family="Helvetica,sans-Serif" font-size="10.00">/home/travis/build</text>
<text text-anchor="start" x="313" y="-102" font-family="Helvetica,sans-Serif" font-size="10.00">/ADVRHumanoids/ROSEndEffector</text>
<text text-anchor="middle" x="394.5" y="-91" font-family="Helvetica,sans-Serif" font-size="10.00">/src/RosServiceHandler.cpp</text>
</a>
</g>
</g>
<!-- Node2&#45;&gt;Node6 -->
<g id="edge5" class="edge"><title>Node2&#45;&gt;Node6</title>
<path fill="none" stroke="midnightblue" d="M354.416,-159.054C362.795,-147.859 372.249,-135.229 379.87,-125.047"/>
<polygon fill="midnightblue" stroke="midnightblue" points="351.457,-157.168 348.266,-167.271 357.061,-161.362 351.457,-157.168"/>
</g>
<!-- Node4 -->
<g id="node4" class="node"><title>Node4</title>
<g id="a_node4"><a xlink:href="UniversalRosEndEffector_8cpp.html" target="_top" xlink:title="/home/travis/build\l/ADVRHumanoids/ROSEndEffector\l/src/UniversalRosEndEffector.cpp">
<polygon fill="none" stroke="black" points="0,-0.5 0,-41.5 179,-41.5 179,-0.5 0,-0.5"/>
<text text-anchor="start" x="8" y="-29.5" font-family="Helvetica,sans-Serif" font-size="10.00">/home/travis/build</text>
<text text-anchor="start" x="8" y="-18.5" font-family="Helvetica,sans-Serif" font-size="10.00">/ADVRHumanoids/ROSEndEffector</text>
<text text-anchor="middle" x="89.5" y="-7.5" font-family="Helvetica,sans-Serif" font-size="10.00">/src/UniversalRosEndEffector.cpp</text>
</a>
</g>
</g>
<!-- Node3&#45;&gt;Node4 -->
<g id="edge3" class="edge"><title>Node3&#45;&gt;Node4</title>
<path fill="none" stroke="midnightblue" d="M155.338,-72.1475C141.912,-61.921 127.389,-50.8594 115.408,-41.7338"/>
<polygon fill="midnightblue" stroke="midnightblue" points="153.447,-75.1073 163.523,-78.3823 157.689,-69.5386 153.447,-75.1073"/>
</g>
<!-- Node5 -->
<g id="node5" class="node"><title>Node5</title>
<g id="a_node5"><a xlink:href="UniversalRosEndEffectorExecutor_8cpp.html" target="_top" xlink:title="/home/travis/build\l/ADVRHumanoids/ROSEndEffector\l/src/UniversalRosEndEffectorExecutor.cpp">
<polygon fill="none" stroke="black" points="197,-0.5 197,-41.5 412,-41.5 412,-0.5 197,-0.5"/>
<text text-anchor="start" x="205" y="-29.5" font-family="Helvetica,sans-Serif" font-size="10.00">/home/travis/build</text>
<text text-anchor="start" x="205" y="-18.5" font-family="Helvetica,sans-Serif" font-size="10.00">/ADVRHumanoids/ROSEndEffector</text>
<text text-anchor="middle" x="304.5" y="-7.5" font-family="Helvetica,sans-Serif" font-size="10.00">/src/UniversalRosEndEffectorExecutor.cpp</text>
</a>
</g>
</g>
<!-- Node3&#45;&gt;Node5 -->
<g id="edge4" class="edge"><title>Node3&#45;&gt;Node5</title>
<path fill="none" stroke="midnightblue" d="M238.047,-72.1475C251.599,-61.921 266.257,-50.8594 278.35,-41.7338"/>
<polygon fill="midnightblue" stroke="midnightblue" points="235.659,-69.5648 229.785,-78.3823 239.875,-75.1524 235.659,-69.5648"/>
</g>
</g>
</svg>
