<?xml version="1.0" encoding="UTF-8" standalone="no"?>
<!DOCTYPE svg PUBLIC "-//W3C//DTD SVG 1.1//EN"
 "http://www.w3.org/Graphics/SVG/1.1/DTD/svg11.dtd">
<!-- Generated by graphviz version 2.38.0 (20140413.2041)
 -->
<!-- Title: /home/travis/build/ADVRHumanoids/ROSEndEffector/include/end_effector/Parser.h Pages: 1 -->
<svg width="809pt" height="295pt"
 viewBox="0.00 0.00 809.00 295.00" xmlns="http://www.w3.org/2000/svg" xmlns:xlink="http://www.w3.org/1999/xlink">
<g id="graph0" class="graph" transform="scale(1 1) rotate(0) translate(4 291)">
<title>/home/travis/build/ADVRHumanoids/ROSEndEffector/include/end_effector/Parser.h</title>
<!-- Node1 -->
<g id="node1" class="node"><title>Node1</title>
<polygon fill="#bfbfbf" stroke="black" points="325,-245.5 325,-286.5 504,-286.5 504,-245.5 325,-245.5"/>
<text text-anchor="start" x="333" y="-274.5" font-family="Helvetica,sans-Serif" font-size="10.00">/home/travis/build</text>
<text text-anchor="start" x="333" y="-263.5" font-family="Helvetica,sans-Serif" font-size="10.00">/ADVRHumanoids/ROSEndEffector</text>
<text text-anchor="middle" x="414.5" y="-252.5" font-family="Helvetica,sans-Serif" font-size="10.00">/include/end_effector/Parser.h</text>
</g>
<!-- Node2 -->
<g id="node2" class="node"><title>Node2</title>
<g id="a_node2"><a xlink:href="EEInterface_8h.html" target="_top" xlink:title="/home/travis/build\l/ADVRHumanoids/ROSEndEffector\l/include/end_effector/EEInterface.h">
<polygon fill="none" stroke="black" points="224.5,-167.5 224.5,-208.5 406.5,-208.5 406.5,-167.5 224.5,-167.5"/>
<text text-anchor="start" x="232.5" y="-196.5" font-family="Helvetica,sans-Serif" font-size="10.00">/home/travis/build</text>
<text text-anchor="start" x="232.5" y="-185.5" font-family="Helvetica,sans-Serif" font-size="10.00">/ADVRHumanoids/ROSEndEffector</text>
<text text-anchor="middle" x="315.5" y="-174.5" font-family="Helvetica,sans-Serif" font-size="10.00">/include/end_effector/EEInterface.h</text>
</a>
</g>
</g>
<!-- Node1&#45;&gt;Node2 -->
<g id="edge1" class="edge"><title>Node1&#45;&gt;Node2</title>
<path fill="none" stroke="midnightblue" d="M380.716,-239.065C367.68,-229.057 353.022,-217.804 340.909,-208.506"/>
<polygon fill="midnightblue" stroke="midnightblue" points="378.942,-242.115 389.005,-245.428 383.204,-236.562 378.942,-242.115"/>
</g>
<!-- Node3 -->
<g id="node3" class="node"><title>Node3</title>
<g id="a_node3"><a xlink:href="UniversalRosEndEffectorExecutor_8h.html" target="_top" xlink:title="/home/travis/build\l/ADVRHumanoids/ROSEndEffector\l/include/end_effector/UniversalRos\lEndEffectorExecutor.h">
<polygon fill="none" stroke="black" points="106,-78.5 106,-130.5 287,-130.5 287,-78.5 106,-78.5"/>
<text text-anchor="start" x="114" y="-118.5" font-family="Helvetica,sans-Serif" font-size="10.00">/home/travis/build</text>
<text text-anchor="start" x="114" y="-107.5" font-family="Helvetica,sans-Serif" font-size="10.00">/ADVRHumanoids/ROSEndEffector</text>
<text text-anchor="start" x="114" y="-96.5" font-family="Helvetica,sans-Serif" font-size="10.00">/include/end_effector/UniversalRos</text>
<text text-anchor="middle" x="196.5" y="-85.5" font-family="Helvetica,sans-Serif" font-size="10.00">EndEffectorExecutor.h</text>
</a>
</g>
</g>
<!-- Node1&#45;&gt;Node3 -->
<g id="edge6" class="edge"><title>Node1&#45;&gt;Node3</title>
<path fill="none" stroke="midnightblue" d="M314.849,-258.584C278.841,-251.249 240.856,-236.825 215.5,-209 196.304,-187.935 193.447,-154.11 194.145,-130.898"/>
<polygon fill="midnightblue" stroke="midnightblue" points="314.468,-262.073 324.941,-260.47 315.754,-255.192 314.468,-262.073"/>
</g>
<!-- Node7 -->
<g id="node7" class="node"><title>Node7</title>
<g id="a_node7"><a xlink:href="Parser_8cpp.html" target="_top" xlink:title="/home/travis/build\l/ADVRHumanoids/ROSEndEffector\l/src/Parser.cpp">
<polygon fill="none" stroke="black" points="425,-167.5 425,-208.5 604,-208.5 604,-167.5 425,-167.5"/>
<text text-anchor="start" x="433" y="-196.5" font-family="Helvetica,sans-Serif" font-size="10.00">/home/travis/build</text>
<text text-anchor="start" x="433" y="-185.5" font-family="Helvetica,sans-Serif" font-size="10.00">/ADVRHumanoids/ROSEndEffector</text>
<text text-anchor="middle" x="514.5" y="-174.5" font-family="Helvetica,sans-Serif" font-size="10.00">/src/Parser.cpp</text>
</a>
</g>
</g>
<!-- Node1&#45;&gt;Node7 -->
<g id="edge7" class="edge"><title>Node1&#45;&gt;Node7</title>
<path fill="none" stroke="midnightblue" d="M448.25,-239.35C461.511,-229.272 476.483,-217.893 488.835,-208.506"/>
<polygon fill="midnightblue" stroke="midnightblue" points="446.096,-236.591 440.252,-245.428 450.332,-242.164 446.096,-236.591"/>
</g>
<!-- Node8 -->
<g id="node8" class="node"><title>Node8</title>
<g id="a_node8"><a xlink:href="UniversalFindActions_8cpp.html" target="_top" xlink:title="/home/travis/build\l/ADVRHumanoids/ROSEndEffector\l/src/UniversalFindActions.cpp">
<polygon fill="none" stroke="black" points="622,-167.5 622,-208.5 801,-208.5 801,-167.5 622,-167.5"/>
<text text-anchor="start" x="630" y="-196.5" font-family="Helvetica,sans-Serif" font-size="10.00">/home/travis/build</text>
<text text-anchor="start" x="630" y="-185.5" font-family="Helvetica,sans-Serif" font-size="10.00">/ADVRHumanoids/ROSEndEffector</text>
<text text-anchor="middle" x="711.5" y="-174.5" font-family="Helvetica,sans-Serif" font-size="10.00">/src/UniversalFindActions.cpp</text>
</a>
</g>
</g>
<!-- Node1&#45;&gt;Node8 -->
<g id="edge8" class="edge"><title>Node1&#45;&gt;Node8</title>
<path fill="none" stroke="midnightblue" d="M500.767,-242.925C543.312,-232.038 594.177,-219.022 635.274,-208.506"/>
<polygon fill="midnightblue" stroke="midnightblue" points="499.805,-239.558 490.985,-245.428 501.54,-246.34 499.805,-239.558"/>
</g>
<!-- Node2&#45;&gt;Node3 -->
<g id="edge2" class="edge"><title>Node2&#45;&gt;Node3</title>
<path fill="none" stroke="midnightblue" d="M278.365,-161.567C264.022,-151.744 247.65,-140.532 233.336,-130.728"/>
<polygon fill="midnightblue" stroke="midnightblue" points="276.768,-164.716 286.997,-167.479 280.724,-158.94 276.768,-164.716"/>
</g>
<!-- Node6 -->
<g id="node6" class="node"><title>Node6</title>
<g id="a_node6"><a xlink:href="EEInterface_8cpp.html" target="_top" xlink:title="/home/travis/build\l/ADVRHumanoids/ROSEndEffector\l/src/EEInterface.cpp">
<polygon fill="none" stroke="black" points="305,-84 305,-125 484,-125 484,-84 305,-84"/>
<text text-anchor="start" x="313" y="-113" font-family="Helvetica,sans-Serif" font-size="10.00">/home/travis/build</text>
<text text-anchor="start" x="313" y="-102" font-family="Helvetica,sans-Serif" font-size="10.00">/ADVRHumanoids/ROSEndEffector</text>
<text text-anchor="middle" x="394.5" y="-91" font-family="Helvetica,sans-Serif" font-size="10.00">/src/EEInterface.cpp</text>
</a>
</g>
</g>
<!-- Node2&#45;&gt;Node6 -->
<g id="edge5" class="edge"><title>Node2&#45;&gt;Node6</title>
<path fill="none" stroke="midnightblue" d="M341.635,-160.038C352.718,-148.604 365.392,-135.529 375.552,-125.047"/>
<polygon fill="midnightblue" stroke="midnightblue" points="339.071,-157.655 334.624,-167.271 344.097,-162.527 339.071,-157.655"/>
</g>
<!-- Node4 -->
<g id="node4" class="node"><title>Node4</title>
<g id="a_node4"><a xlink:href="UniversalRosEndEffector_8cpp.html" target="_top" xlink:title="/home/travis/build\l/ADVRHumanoids/ROSEndEffector\l/src/UniversalRosEndEffector.cpp">
<polygon fill="none" stroke="black" points="0,-0.5 0,-41.5 179,-41.5 179,-0.5 0,-0.5"/>
<text text-anchor="start" x="8" y="-29.5" font-family="Helvetica,sans-Serif" font-size="10.00">/home/travis/build</text>
<text text-anchor="start" x="8" y="-18.5" font-family="Helvetica,sans-Serif" font-size="10.00">/ADVRHumanoids/ROSEndEffector</text>
<text text-anchor="middle" x="89.5" y="-7.5" font-family="Helvetica,sans-Serif" font-size="10.00">/src/UniversalRosEndEffector.cpp</text>
</a>
</g>
</g>
<!-- Node3&#45;&gt;Node4 -->
<g id="edge3" class="edge"><title>Node3&#45;&gt;Node4</title>
<path fill="none" stroke="midnightblue" d="M155.338,-72.1475C141.912,-61.921 127.389,-50.8594 115.408,-41.7338"/>
<polygon fill="midnightblue" stroke="midnightblue" points="153.447,-75.1073 163.523,-78.3823 157.689,-69.5386 153.447,-75.1073"/>
</g>
<!-- Node5 -->
<g id="node5" class="node"><title>Node5</title>
<g id="a_node5"><a xlink:href="UniversalRosEndEffectorExecutor_8cpp.html" target="_top" xlink:title="/home/travis/build\l/ADVRHumanoids/ROSEndEffector\l/src/UniversalRosEndEffectorExecutor.cpp">
<polygon fill="none" stroke="black" points="197,-0.5 197,-41.5 412,-41.5 412,-0.5 197,-0.5"/>
<text text-anchor="start" x="205" y="-29.5" font-family="Helvetica,sans-Serif" font-size="10.00">/home/travis/build</text>
<text text-anchor="start" x="205" y="-18.5" font-family="Helvetica,sans-Serif" font-size="10.00">/ADVRHumanoids/ROSEndEffector</text>
<text text-anchor="middle" x="304.5" y="-7.5" font-family="Helvetica,sans-Serif" font-size="10.00">/src/UniversalRosEndEffectorExecutor.cpp</text>
</a>
</g>
</g>
<!-- Node3&#45;&gt;Node5 -->
<g id="edge4" class="edge"><title>Node3&#45;&gt;Node5</title>
<path fill="none" stroke="midnightblue" d="M238.047,-72.1475C251.599,-61.921 266.257,-50.8594 278.35,-41.7338"/>
<polygon fill="midnightblue" stroke="midnightblue" points="235.659,-69.5648 229.785,-78.3823 239.875,-75.1524 235.659,-69.5648"/>
</g>
</g>
</svg>
