<?xml version="1.0" encoding="UTF-8" standalone="no"?>
<!DOCTYPE svg PUBLIC "-//W3C//DTD SVG 1.1//EN"
 "http://www.w3.org/Graphics/SVG/1.1/DTD/svg11.dtd">
<!-- Generated by graphviz version 2.38.0 (20140413.2041)
 -->
<!-- Title: /home/travis/build/ADVRHumanoids/ROSEndEffector/include/end_effector/ParserMoveIt.h Pages: 1 -->
<svg width="464pt" height="128pt"
 viewBox="0.00 0.00 464.00 128.00" xmlns="http://www.w3.org/2000/svg" xmlns:xlink="http://www.w3.org/1999/xlink">
<g id="graph0" class="graph" transform="scale(1 1) rotate(0) translate(4 124)">
<title>/home/travis/build/ADVRHumanoids/ROSEndEffector/include/end_effector/ParserMoveIt.h</title>
<!-- Node1 -->
<g id="node1" class="node"><title>Node1</title>
<polygon fill="#bfbfbf" stroke="black" points="84.5,-78.5 84.5,-119.5 275.5,-119.5 275.5,-78.5 84.5,-78.5"/>
<text text-anchor="start" x="92.5" y="-107.5" font-family="Helvetica,sans-Serif" font-size="10.00">/home/travis/build</text>
<text text-anchor="start" x="92.5" y="-96.5" font-family="Helvetica,sans-Serif" font-size="10.00">/ADVRHumanoids/ROSEndEffector</text>
<text text-anchor="middle" x="180" y="-85.5" font-family="Helvetica,sans-Serif" font-size="10.00">/include/end_effector/ParserMoveIt.h</text>
</g>
<!-- Node2 -->
<g id="node2" class="node"><title>Node2</title>
<polygon fill="none" stroke="#bfbfbf" points="0,-11.5 0,-30.5 44,-30.5 44,-11.5 0,-11.5"/>
<text text-anchor="middle" x="22" y="-18.5" font-family="Helvetica,sans-Serif" font-size="10.00">string</text>
</g>
<!-- Node1&#45;&gt;Node2 -->
<g id="edge1" class="edge"><title>Node1&#45;&gt;Node2</title>
<path fill="none" stroke="midnightblue" d="M130.897,-78.4816C106.972,-68.437 78.0331,-55.4855 53,-42 49.645,-40.1926 46.1749,-38.145 42.8245,-36.0664"/>
<polygon fill="midnightblue" stroke="midnightblue" points="44.6984,-33.1102 34.3965,-30.6359 40.9068,-38.9945 44.6984,-33.1102"/>
</g>
<!-- Node3 -->
<g id="node3" class="node"><title>Node3</title>
<polygon fill="none" stroke="#bfbfbf" points="62.5,-11.5 62.5,-30.5 109.5,-30.5 109.5,-11.5 62.5,-11.5"/>
<text text-anchor="middle" x="86" y="-18.5" font-family="Helvetica,sans-Serif" font-size="10.00">vector</text>
</g>
<!-- Node1&#45;&gt;Node3 -->
<g id="edge2" class="edge"><title>Node1&#45;&gt;Node3</title>
<path fill="none" stroke="midnightblue" d="M155.793,-78.4281C139.786,-65.4867 119.126,-48.7828 104.448,-36.9155"/>
<polygon fill="midnightblue" stroke="midnightblue" points="106.554,-34.1176 96.5775,-30.552 102.153,-39.561 106.554,-34.1176"/>
</g>
<!-- Node4 -->
<g id="node4" class="node"><title>Node4</title>
<polygon fill="none" stroke="#bfbfbf" points="128,-11.5 128,-30.5 166,-30.5 166,-11.5 128,-11.5"/>
<text text-anchor="middle" x="147" y="-18.5" font-family="Helvetica,sans-Serif" font-size="10.00">map</text>
</g>
<!-- Node1&#45;&gt;Node4 -->
<g id="edge3" class="edge"><title>Node1&#45;&gt;Node4</title>
<path fill="none" stroke="midnightblue" d="M171.502,-78.4281C166.355,-66.5752 159.838,-51.5662 154.819,-40.0076"/>
<polygon fill="midnightblue" stroke="midnightblue" points="157.907,-38.3306 150.713,-30.552 151.486,-41.1187 157.907,-38.3306"/>
</g>
<!-- Node5 -->
<g id="node5" class="node"><title>Node5</title>
<polygon fill="none" stroke="#bfbfbf" points="184.5,-11.5 184.5,-30.5 243.5,-30.5 243.5,-11.5 184.5,-11.5"/>
<text text-anchor="middle" x="214" y="-18.5" font-family="Helvetica,sans-Serif" font-size="10.00">iostream</text>
</g>
<!-- Node1&#45;&gt;Node5 -->
<g id="edge4" class="edge"><title>Node1&#45;&gt;Node5</title>
<path fill="none" stroke="midnightblue" d="M188.756,-78.4281C194.058,-66.5752 200.773,-51.5662 205.944,-40.0076"/>
<polygon fill="midnightblue" stroke="midnightblue" points="209.285,-41.1095 210.174,-30.552 202.896,-38.2509 209.285,-41.1095"/>
</g>
<!-- Node6 -->
<g id="node6" class="node"><title>Node6</title>
<polygon fill="none" stroke="#bfbfbf" points="262,-0.5 262,-41.5 378,-41.5 378,-0.5 262,-0.5"/>
<text text-anchor="start" x="270" y="-29.5" font-family="Helvetica,sans-Serif" font-size="10.00">moveit/robot_model</text>
<text text-anchor="start" x="270" y="-18.5" font-family="Helvetica,sans-Serif" font-size="10.00">_loader/robot_model</text>
<text text-anchor="middle" x="320" y="-7.5" font-family="Helvetica,sans-Serif" font-size="10.00">_loader.h</text>
</g>
<!-- Node1&#45;&gt;Node6 -->
<g id="edge5" class="edge"><title>Node1&#45;&gt;Node6</title>
<path fill="none" stroke="midnightblue" d="M216.053,-78.4281C234.098,-68.6324 256.114,-56.6809 275.231,-46.303"/>
<polygon fill="midnightblue" stroke="midnightblue" points="276.95,-49.3525 284.069,-41.5056 273.61,-43.2005 276.95,-49.3525"/>
</g>
<!-- Node7 -->
<g id="node7" class="node"><title>Node7</title>
<polygon fill="none" stroke="#bfbfbf" points="396,-11.5 396,-30.5 456,-30.5 456,-11.5 396,-11.5"/>
<text text-anchor="middle" x="426" y="-18.5" font-family="Helvetica,sans-Serif" font-size="10.00">tinyxml.h</text>
</g>
<!-- Node1&#45;&gt;Node7 -->
<g id="edge6" class="edge"><title>Node1&#45;&gt;Node7</title>
<path fill="none" stroke="midnightblue" d="M268.173,-78.4828C305.413,-69.1321 348.891,-56.7383 387,-42 392.017,-40.0598 397.236,-37.6662 402.165,-35.2175"/>
<polygon fill="midnightblue" stroke="midnightblue" points="403.894,-38.2634 411.152,-30.5455 400.665,-32.0524 403.894,-38.2634"/>
</g>
</g>
</svg>
