<?xml version="1.0" encoding="UTF-8" standalone="no"?>
<!DOCTYPE svg PUBLIC "-//W3C//DTD SVG 1.1//EN"
 "http://www.w3.org/Graphics/SVG/1.1/DTD/svg11.dtd">
<!-- Generated by graphviz version 2.38.0 (20140413.2041)
 -->
<!-- Title: /home/travis/build/ADVRHumanoids/ROSEndEffector/src/Parser.cpp Pages: 1 -->
<svg width="687pt" height="162pt"
 viewBox="0.00 0.00 686.50 162.00" xmlns="http://www.w3.org/2000/svg" xmlns:xlink="http://www.w3.org/1999/xlink">
<g id="graph0" class="graph" transform="scale(1 1) rotate(0) translate(4 158)">
<title>/home/travis/build/ADVRHumanoids/ROSEndEffector/src/Parser.cpp</title>
<!-- Node1 -->
<g id="node1" class="node"><title>Node1</title>
<polygon fill="#bfbfbf" stroke="black" points="347,-112.5 347,-153.5 526,-153.5 526,-112.5 347,-112.5"/>
<text text-anchor="start" x="355" y="-141.5" font-family="Helvetica,sans-Serif" font-size="10.00">/home/travis/build</text>
<text text-anchor="start" x="355" y="-130.5" font-family="Helvetica,sans-Serif" font-size="10.00">/ADVRHumanoids/ROSEndEffector</text>
<text text-anchor="middle" x="436.5" y="-119.5" font-family="Helvetica,sans-Serif" font-size="10.00">/src/Parser.cpp</text>
</g>
<!-- Node2 -->
<g id="node2" class="node"><title>Node2</title>
<g id="a_node2"><a xlink:href="Parser_8h.html" target="_top" xlink:title="ROSEndEffector/Parser.h">
<polygon fill="none" stroke="black" points="200.5,-56.5 200.5,-75.5 334.5,-75.5 334.5,-56.5 200.5,-56.5"/>
<text text-anchor="middle" x="267.5" y="-63.5" font-family="Helvetica,sans-Serif" font-size="10.00">ROSEndEffector/Parser.h</text>
</a>
</g>
</g>
<!-- Node1&#45;&gt;Node2 -->
<g id="edge1" class="edge"><title>Node1&#45;&gt;Node2</title>
<path fill="none" stroke="midnightblue" d="M385.794,-112.498C357.766,-101.718 323.798,-88.6531 299.465,-79.2941"/>
<polygon fill="midnightblue" stroke="midnightblue" points="300.586,-75.9756 289.996,-75.6525 298.073,-82.5091 300.586,-75.9756"/>
</g>
<!-- Node9 -->
<g id="node9" class="node"><title>Node9</title>
<polygon fill="none" stroke="#bfbfbf" points="352.5,-56.5 352.5,-75.5 432.5,-75.5 432.5,-56.5 352.5,-56.5"/>
<text text-anchor="middle" x="392.5" y="-63.5" font-family="Helvetica,sans-Serif" font-size="10.00">ros/console.h</text>
</g>
<!-- Node1&#45;&gt;Node9 -->
<g id="edge8" class="edge"><title>Node1&#45;&gt;Node9</title>
<path fill="none" stroke="midnightblue" d="M423.299,-112.498C417.201,-103.49 410.024,-92.8881 404.133,-84.1852"/>
<polygon fill="midnightblue" stroke="midnightblue" points="406.861,-81.9716 398.357,-75.6525 401.064,-85.8956 406.861,-81.9716"/>
</g>
<!-- Node10 -->
<g id="node10" class="node"><title>Node10</title>
<polygon fill="none" stroke="#bfbfbf" points="451,-56.5 451,-75.5 510,-75.5 510,-56.5 451,-56.5"/>
<text text-anchor="middle" x="480.5" y="-63.5" font-family="Helvetica,sans-Serif" font-size="10.00">iostream</text>
</g>
<!-- Node1&#45;&gt;Node10 -->
<g id="edge9" class="edge"><title>Node1&#45;&gt;Node10</title>
<path fill="none" stroke="midnightblue" d="M449.701,-112.498C455.799,-103.49 462.976,-92.8881 468.867,-84.1852"/>
<polygon fill="midnightblue" stroke="midnightblue" points="471.936,-85.8956 474.643,-75.6525 466.139,-81.9716 471.936,-85.8956"/>
</g>
<!-- Node11 -->
<g id="node11" class="node"><title>Node11</title>
<polygon fill="none" stroke="#bfbfbf" points="528.5,-56.5 528.5,-75.5 582.5,-75.5 582.5,-56.5 528.5,-56.5"/>
<text text-anchor="middle" x="555.5" y="-63.5" font-family="Helvetica,sans-Serif" font-size="10.00">fstream</text>
</g>
<!-- Node1&#45;&gt;Node11 -->
<g id="edge10" class="edge"><title>Node1&#45;&gt;Node11</title>
<path fill="none" stroke="midnightblue" d="M472.204,-112.498C490.975,-102.245 513.53,-89.925 530.432,-80.6927"/>
<polygon fill="midnightblue" stroke="midnightblue" points="532.561,-83.5179 539.659,-75.6525 529.205,-77.3746 532.561,-83.5179"/>
</g>
<!-- Node3 -->
<g id="node3" class="node"><title>Node3</title>
<polygon fill="none" stroke="#bfbfbf" points="0,-0.5 0,-19.5 57,-19.5 57,-0.5 0,-0.5"/>
<text text-anchor="middle" x="28.5" y="-7.5" font-family="Helvetica,sans-Serif" font-size="10.00">memory</text>
</g>
<!-- Node2&#45;&gt;Node3 -->
<g id="edge2" class="edge"><title>Node2&#45;&gt;Node3</title>
<path fill="none" stroke="midnightblue" d="M227.968,-56.431C189.278,-47.9917 128.413,-34.5754 67.0239,-20.3255"/>
<polygon fill="midnightblue" stroke="midnightblue" points="67.7032,-16.8902 57.1701,-18.032 66.1163,-23.7079 67.7032,-16.8902"/>
</g>
<!-- Node4 -->
<g id="node4" class="node"><title>Node4</title>
<polygon fill="none" stroke="#bfbfbf" points="75,-0.5 75,-19.5 134,-19.5 134,-0.5 75,-0.5"/>
<text text-anchor="middle" x="104.5" y="-7.5" font-family="Helvetica,sans-Serif" font-size="10.00">ros/ros.h</text>
</g>
<!-- Node2&#45;&gt;Node4 -->
<g id="edge3" class="edge"><title>Node2&#45;&gt;Node4</title>
<path fill="none" stroke="midnightblue" d="M241.672,-56.4435C214.251,-47.3591 170.723,-32.9388 140.068,-22.7831"/>
<polygon fill="midnightblue" stroke="midnightblue" points="140.8,-19.3389 130.207,-19.5164 138.599,-25.9837 140.8,-19.3389"/>
</g>
<!-- Node5 -->
<g id="node5" class="node"><title>Node5</title>
<polygon fill="none" stroke="#bfbfbf" points="152.5,-0.5 152.5,-19.5 248.5,-19.5 248.5,-0.5 152.5,-0.5"/>
<text text-anchor="middle" x="200.5" y="-7.5" font-family="Helvetica,sans-Serif" font-size="10.00">yaml&#45;cpp/yaml.h</text>
</g>
<!-- Node2&#45;&gt;Node5 -->
<g id="edge4" class="edge"><title>Node2&#45;&gt;Node5</title>
<path fill="none" stroke="midnightblue" d="M256.735,-56.324C246.734,-48.2631 231.613,-36.0765 219.57,-26.3695"/>
<polygon fill="midnightblue" stroke="midnightblue" points="221.443,-23.3841 211.461,-19.8339 217.05,-28.8343 221.443,-23.3841"/>
</g>
<!-- Node6 -->
<g id="node6" class="node"><title>Node6</title>
<polygon fill="none" stroke="#bfbfbf" points="266.5,-0.5 266.5,-19.5 404.5,-19.5 404.5,-0.5 266.5,-0.5"/>
<text text-anchor="middle" x="335.5" y="-7.5" font-family="Helvetica,sans-Serif" font-size="10.00">urdf_parser/urdf_parser.h</text>
</g>
<!-- Node2&#45;&gt;Node6 -->
<g id="edge5" class="edge"><title>Node2&#45;&gt;Node6</title>
<path fill="none" stroke="midnightblue" d="M278.425,-56.324C288.675,-48.1849 304.221,-35.8395 316.501,-26.0874"/>
<polygon fill="midnightblue" stroke="midnightblue" points="318.721,-28.7937 324.376,-19.8339 314.368,-23.3119 318.721,-28.7937"/>
</g>
<!-- Node7 -->
<g id="node7" class="node"><title>Node7</title>
<polygon fill="none" stroke="#bfbfbf" points="422.5,-0.5 422.5,-19.5 562.5,-19.5 562.5,-0.5 422.5,-0.5"/>
<text text-anchor="middle" x="492.5" y="-7.5" font-family="Helvetica,sans-Serif" font-size="10.00">kdl_parser/kdl_parser.hpp</text>
</g>
<!-- Node2&#45;&gt;Node7 -->
<g id="edge6" class="edge"><title>Node2&#45;&gt;Node7</title>
<path fill="none" stroke="midnightblue" d="M303.152,-56.4435C342.156,-47.0826 404.766,-32.0561 447.217,-21.868"/>
<polygon fill="midnightblue" stroke="midnightblue" points="448.108,-25.2536 457.015,-19.5164 446.474,-18.4469 448.108,-25.2536"/>
</g>
<!-- Node8 -->
<g id="node8" class="node"><title>Node8</title>
<polygon fill="none" stroke="#bfbfbf" points="580.5,-0.5 580.5,-19.5 678.5,-19.5 678.5,-0.5 580.5,-0.5"/>
<text text-anchor="middle" x="629.5" y="-7.5" font-family="Helvetica,sans-Serif" font-size="10.00">srdfdom/model.h</text>
</g>
<!-- Node2&#45;&gt;Node8 -->
<g id="edge7" class="edge"><title>Node2&#45;&gt;Node8</title>
<path fill="none" stroke="midnightblue" d="M325.797,-56.494C384.855,-47.849 479.128,-33.973 570.483,-20.1459"/>
<polygon fill="midnightblue" stroke="midnightblue" points="571.093,-23.5935 580.456,-18.6349 570.044,-16.6725 571.093,-23.5935"/>
</g>
</g>
</svg>
