<?xml version="1.0" encoding="UTF-8" standalone="no"?>
<!DOCTYPE svg PUBLIC "-//W3C//DTD SVG 1.1//EN"
 "http://www.w3.org/Graphics/SVG/1.1/DTD/svg11.dtd">
<!-- Generated by graphviz version 2.38.0 (20140413.2041)
 -->
<!-- Title: /home/travis/build/ADVRHumanoids/ROSEndEffector/include/ros_end_effector/Parser.h Pages: 1 -->
<svg width="1203pt" height="173pt"
 viewBox="0.00 0.00 1203.00 173.00" xmlns="http://www.w3.org/2000/svg" xmlns:xlink="http://www.w3.org/1999/xlink">
<g id="graph0" class="graph" transform="scale(1 1) rotate(0) translate(4 169)">
<title>/home/travis/build/ADVRHumanoids/ROSEndEffector/include/ros_end_effector/Parser.h</title>
<!-- Node1 -->
<g id="node1" class="node"><title>Node1</title>
<polygon fill="#bfbfbf" stroke="black" points="362,-112.5 362,-164.5 541,-164.5 541,-112.5 362,-112.5"/>
<text text-anchor="start" x="370" y="-152.5" font-family="Helvetica,sans-Serif" font-size="10.00">/home/travis/build</text>
<text text-anchor="start" x="370" y="-141.5" font-family="Helvetica,sans-Serif" font-size="10.00">/ADVRHumanoids/ROSEndEffector</text>
<text text-anchor="start" x="370" y="-130.5" font-family="Helvetica,sans-Serif" font-size="10.00">/include/ros_end_effector</text>
<text text-anchor="middle" x="451.5" y="-119.5" font-family="Helvetica,sans-Serif" font-size="10.00">/Parser.h</text>
</g>
<!-- Node2 -->
<g id="node2" class="node"><title>Node2</title>
<polygon fill="none" stroke="#bfbfbf" points="0,-0.5 0,-19.5 59,-19.5 59,-0.5 0,-0.5"/>
<text text-anchor="middle" x="29.5" y="-7.5" font-family="Helvetica,sans-Serif" font-size="10.00">iostream</text>
</g>
<!-- Node1&#45;&gt;Node2 -->
<g id="edge1" class="edge"><title>Node1&#45;&gt;Node2</title>
<path fill="none" stroke="midnightblue" d="M361.902,-128.368C297.801,-119.834 210.333,-104.048 137.5,-76 104.412,-63.2577 69.9455,-40.6078 49.0997,-25.6956"/>
<polygon fill="midnightblue" stroke="midnightblue" points="50.9322,-22.7003 40.7887,-19.6409 46.8104,-28.3581 50.9322,-22.7003"/>
</g>
<!-- Node3 -->
<g id="node3" class="node"><title>Node3</title>
<polygon fill="none" stroke="#bfbfbf" points="77.5,-0.5 77.5,-19.5 131.5,-19.5 131.5,-0.5 77.5,-0.5"/>
<text text-anchor="middle" x="104.5" y="-7.5" font-family="Helvetica,sans-Serif" font-size="10.00">fstream</text>
</g>
<!-- Node1&#45;&gt;Node3 -->
<g id="edge2" class="edge"><title>Node1&#45;&gt;Node3</title>
<path fill="none" stroke="midnightblue" d="M361.85,-132.071C302.872,-125.277 225.741,-110.051 165.5,-76 144.748,-64.2702 126.885,-43.1241 115.947,-28.1394"/>
<polygon fill="midnightblue" stroke="midnightblue" points="118.671,-25.9279 110.068,-19.7449 112.938,-29.9436 118.671,-25.9279"/>
</g>
<!-- Node4 -->
<g id="node4" class="node"><title>Node4</title>
<polygon fill="none" stroke="#bfbfbf" points="150,-0.5 150,-19.5 207,-19.5 207,-0.5 150,-0.5"/>
<text text-anchor="middle" x="178.5" y="-7.5" font-family="Helvetica,sans-Serif" font-size="10.00">memory</text>
</g>
<!-- Node1&#45;&gt;Node4 -->
<g id="edge3" class="edge"><title>Node1&#45;&gt;Node4</title>
<path fill="none" stroke="midnightblue" d="M361.962,-129.456C290.817,-120.991 199.554,-104.78 176.5,-76 166.15,-63.0802 168.312,-43.637 172.049,-29.3814"/>
<polygon fill="midnightblue" stroke="midnightblue" points="175.437,-30.2723 175.032,-19.6852 168.746,-28.2138 175.437,-30.2723"/>
</g>
<!-- Node5 -->
<g id="node5" class="node"><title>Node5</title>
<polygon fill="none" stroke="#bfbfbf" points="334,-56.5 334,-75.5 393,-75.5 393,-56.5 334,-56.5"/>
<text text-anchor="middle" x="363.5" y="-63.5" font-family="Helvetica,sans-Serif" font-size="10.00">ros/ros.h</text>
</g>
<!-- Node1&#45;&gt;Node5 -->
<g id="edge4" class="edge"><title>Node1&#45;&gt;Node5</title>
<path fill="none" stroke="midnightblue" d="M420.227,-112.446C407.597,-102.328 393.436,-90.983 382.423,-82.1596"/>
<polygon fill="midnightblue" stroke="midnightblue" points="384.347,-79.2163 374.354,-75.6955 379.97,-84.6794 384.347,-79.2163"/>
</g>
<!-- Node6 -->
<g id="node6" class="node"><title>Node6</title>
<polygon fill="none" stroke="#bfbfbf" points="411.5,-56.5 411.5,-75.5 491.5,-75.5 491.5,-56.5 411.5,-56.5"/>
<text text-anchor="middle" x="451.5" y="-63.5" font-family="Helvetica,sans-Serif" font-size="10.00">ros/console.h</text>
</g>
<!-- Node1&#45;&gt;Node6 -->
<g id="edge5" class="edge"><title>Node1&#45;&gt;Node6</title>
<path fill="none" stroke="midnightblue" d="M451.5,-112.446C451.5,-103.73 451.5,-94.1045 451.5,-85.9641"/>
<polygon fill="midnightblue" stroke="midnightblue" points="455,-85.6954 451.5,-75.6955 448,-85.6955 455,-85.6954"/>
</g>
<!-- Node7 -->
<g id="node7" class="node"><title>Node7</title>
<g id="a_node7"><a xlink:href="Utils_8h.html" target="_top" xlink:title="ros_end_effector/Utils.h">
<polygon fill="none" stroke="black" points="185.5,-56.5 185.5,-75.5 315.5,-75.5 315.5,-56.5 185.5,-56.5"/>
<text text-anchor="middle" x="250.5" y="-63.5" font-family="Helvetica,sans-Serif" font-size="10.00">ros_end_effector/Utils.h</text>
</a>
</g>
</g>
<!-- Node1&#45;&gt;Node7 -->
<g id="edge6" class="edge"><title>Node1&#45;&gt;Node7</title>
<path fill="none" stroke="midnightblue" d="M380.069,-112.446C347.451,-101.005 310.363,-87.9966 284.25,-78.8375"/>
<polygon fill="midnightblue" stroke="midnightblue" points="285.406,-75.5341 274.811,-75.527 283.089,-82.1396 285.406,-75.5341"/>
</g>
<!-- Node13 -->
<g id="node13" class="node"><title>Node13</title>
<polygon fill="none" stroke="#bfbfbf" points="509.5,-56.5 509.5,-75.5 605.5,-75.5 605.5,-56.5 509.5,-56.5"/>
<text text-anchor="middle" x="557.5" y="-63.5" font-family="Helvetica,sans-Serif" font-size="10.00">yaml&#45;cpp/yaml.h</text>
</g>
<!-- Node1&#45;&gt;Node13 -->
<g id="edge15" class="edge"><title>Node1&#45;&gt;Node13</title>
<path fill="none" stroke="midnightblue" d="M489.17,-112.446C504.932,-101.963 522.673,-90.1633 536.127,-81.2151"/>
<polygon fill="midnightblue" stroke="midnightblue" points="538.291,-83.9792 544.679,-75.527 534.414,-78.1507 538.291,-83.9792"/>
</g>
<!-- Node14 -->
<g id="node14" class="node"><title>Node14</title>
<polygon fill="none" stroke="#bfbfbf" points="623.5,-56.5 623.5,-75.5 761.5,-75.5 761.5,-56.5 623.5,-56.5"/>
<text text-anchor="middle" x="692.5" y="-63.5" font-family="Helvetica,sans-Serif" font-size="10.00">urdf_parser/urdf_parser.h</text>
</g>
<!-- Node1&#45;&gt;Node14 -->
<g id="edge16" class="edge"><title>Node1&#45;&gt;Node14</title>
<path fill="none" stroke="midnightblue" d="M537.146,-112.446C576.945,-100.804 622.293,-87.5377 653.677,-78.357"/>
<polygon fill="midnightblue" stroke="midnightblue" points="654.736,-81.6939 663.351,-75.527 652.771,-74.9755 654.736,-81.6939"/>
</g>
<!-- Node15 -->
<g id="node15" class="node"><title>Node15</title>
<polygon fill="none" stroke="#bfbfbf" points="779.5,-56.5 779.5,-75.5 919.5,-75.5 919.5,-56.5 779.5,-56.5"/>
<text text-anchor="middle" x="849.5" y="-63.5" font-family="Helvetica,sans-Serif" font-size="10.00">kdl_parser/kdl_parser.hpp</text>
</g>
<!-- Node1&#45;&gt;Node15 -->
<g id="edge17" class="edge"><title>Node1&#45;&gt;Node15</title>
<path fill="none" stroke="midnightblue" d="M541.315,-121.591C617.811,-108.04 725.483,-88.9679 791.213,-77.3247"/>
<polygon fill="midnightblue" stroke="midnightblue" points="792.155,-80.7125 801.391,-75.5218 790.934,-73.8198 792.155,-80.7125"/>
</g>
<!-- Node16 -->
<g id="node16" class="node"><title>Node16</title>
<polygon fill="none" stroke="#bfbfbf" points="937.5,-56.5 937.5,-75.5 1035.5,-75.5 1035.5,-56.5 937.5,-56.5"/>
<text text-anchor="middle" x="986.5" y="-63.5" font-family="Helvetica,sans-Serif" font-size="10.00">srdfdom/model.h</text>
</g>
<!-- Node1&#45;&gt;Node16 -->
<g id="edge18" class="edge"><title>Node1&#45;&gt;Node16</title>
<path fill="none" stroke="midnightblue" d="M541.266,-126.625C634.966,-115.114 786.446,-96.0572 927.34,-76.1353"/>
<polygon fill="midnightblue" stroke="midnightblue" points="928.056,-79.5689 937.465,-74.6995 927.073,-72.6383 928.056,-79.5689"/>
</g>
<!-- Node17 -->
<g id="node17" class="node"><title>Node17</title>
<polygon fill="none" stroke="#bfbfbf" points="1054,-56.5 1054,-75.5 1195,-75.5 1195,-56.5 1054,-56.5"/>
<text text-anchor="middle" x="1124.5" y="-63.5" font-family="Helvetica,sans-Serif" font-size="10.00">boost/filesystem/path.hpp</text>
</g>
<!-- Node1&#45;&gt;Node17 -->
<g id="edge19" class="edge"><title>Node1&#45;&gt;Node17</title>
<path fill="none" stroke="midnightblue" d="M541.189,-128.443C655.25,-116.87 858.578,-96.0557 1043.64,-76.0851"/>
<polygon fill="midnightblue" stroke="midnightblue" points="1044.27,-79.5375 1053.83,-74.9837 1043.52,-72.578 1044.27,-79.5375"/>
</g>
<!-- Node7&#45;&gt;Node2 -->
<g id="edge9" class="edge"><title>Node7&#45;&gt;Node2</title>
<path fill="none" stroke="midnightblue" d="M215.482,-56.4435C175.566,-46.6903 110.478,-30.7864 68.8429,-20.6132"/>
<polygon fill="midnightblue" stroke="midnightblue" points="69.5948,-17.194 59.0498,-18.2203 67.9332,-23.994 69.5948,-17.194"/>
</g>
<!-- Node7&#45;&gt;Node3 -->
<g id="edge12" class="edge"><title>Node7&#45;&gt;Node3</title>
<path fill="none" stroke="midnightblue" d="M227.366,-56.4435C203.018,-47.4381 164.493,-33.1891 137.077,-23.049"/>
<polygon fill="midnightblue" stroke="midnightblue" points="138.119,-19.7028 127.526,-19.5164 135.691,-26.2681 138.119,-19.7028"/>
</g>
<!-- Node7&#45;&gt;Node4 -->
<g id="edge8" class="edge"><title>Node7&#45;&gt;Node4</title>
<path fill="none" stroke="midnightblue" d="M238.932,-56.324C228.08,-48.1849 211.619,-35.8395 198.617,-26.0874"/>
<polygon fill="midnightblue" stroke="midnightblue" points="200.379,-23.0339 190.279,-19.8339 196.179,-28.6339 200.379,-23.0339"/>
</g>
<!-- Node8 -->
<g id="node8" class="node"><title>Node8</title>
<polygon fill="none" stroke="#bfbfbf" points="294,-0.5 294,-19.5 341,-19.5 341,-0.5 294,-0.5"/>
<text text-anchor="middle" x="317.5" y="-7.5" font-family="Helvetica,sans-Serif" font-size="10.00">cmath</text>
</g>
<!-- Node7&#45;&gt;Node8 -->
<g id="edge7" class="edge"><title>Node7&#45;&gt;Node8</title>
<path fill="none" stroke="midnightblue" d="M261.265,-56.324C271.266,-48.2631 286.387,-36.0765 298.43,-26.3695"/>
<polygon fill="midnightblue" stroke="midnightblue" points="300.95,-28.8343 306.539,-19.8339 296.557,-23.3841 300.95,-28.8343"/>
</g>
<!-- Node9 -->
<g id="node9" class="node"><title>Node9</title>
<polygon fill="none" stroke="#bfbfbf" points="359.5,-0.5 359.5,-19.5 407.5,-19.5 407.5,-0.5 359.5,-0.5"/>
<text text-anchor="middle" x="383.5" y="-7.5" font-family="Helvetica,sans-Serif" font-size="10.00">dlfcn.h</text>
</g>
<!-- Node7&#45;&gt;Node9 -->
<g id="edge10" class="edge"><title>Node7&#45;&gt;Node9</title>
<path fill="none" stroke="midnightblue" d="M271.574,-56.4435C293.56,-47.5171 328.234,-33.4387 353.164,-23.3168"/>
<polygon fill="midnightblue" stroke="midnightblue" points="354.576,-26.5213 362.524,-19.5164 351.942,-20.0355 354.576,-26.5213"/>
</g>
<!-- Node10 -->
<g id="node10" class="node"><title>Node10</title>
<polygon fill="none" stroke="#bfbfbf" points="425.5,-0.5 425.5,-19.5 541.5,-19.5 541.5,-0.5 425.5,-0.5"/>
<text text-anchor="middle" x="483.5" y="-7.5" font-family="Helvetica,sans-Serif" font-size="10.00">boost/filesystem.hpp</text>
</g>
<!-- Node7&#45;&gt;Node10 -->
<g id="edge11" class="edge"><title>Node7&#45;&gt;Node10</title>
<path fill="none" stroke="midnightblue" d="M287.42,-56.4435C327.895,-47.0629 392.921,-31.9926 436.884,-21.8036"/>
<polygon fill="midnightblue" stroke="midnightblue" points="437.802,-25.1839 446.753,-19.5164 436.221,-18.3646 437.802,-25.1839"/>
</g>
<!-- Node11 -->
<g id="node11" class="node"><title>Node11</title>
<polygon fill="none" stroke="#bfbfbf" points="559.5,-0.5 559.5,-19.5 609.5,-19.5 609.5,-0.5 559.5,-0.5"/>
<text text-anchor="middle" x="584.5" y="-7.5" font-family="Helvetica,sans-Serif" font-size="10.00">chrono</text>
</g>
<!-- Node7&#45;&gt;Node11 -->
<g id="edge13" class="edge"><title>Node7&#45;&gt;Node11</title>
<path fill="none" stroke="midnightblue" d="M312.848,-56.4711C382.668,-46.7838 492.51,-31.1034 549.348,-20.01"/>
<polygon fill="midnightblue" stroke="midnightblue" points="550.213,-23.4059 559.322,-17.9945 548.827,-16.5445 550.213,-23.4059"/>
</g>
<!-- Node12 -->
<g id="node12" class="node"><title>Node12</title>
<polygon fill="none" stroke="#bfbfbf" points="225.5,-0.5 225.5,-19.5 275.5,-19.5 275.5,-0.5 225.5,-0.5"/>
<text text-anchor="middle" x="250.5" y="-7.5" font-family="Helvetica,sans-Serif" font-size="10.00">atomic</text>
</g>
<!-- Node7&#45;&gt;Node12 -->
<g id="edge14" class="edge"><title>Node7&#45;&gt;Node12</title>
<path fill="none" stroke="midnightblue" d="M250.5,-56.083C250.5,-49.0059 250.5,-38.8611 250.5,-29.9865"/>
<polygon fill="midnightblue" stroke="midnightblue" points="254,-29.751 250.5,-19.7511 247,-29.7511 254,-29.751"/>
</g>
</g>
</svg>
