<?xml version="1.0" encoding="UTF-8" standalone="no"?>
<!DOCTYPE svg PUBLIC "-//W3C//DTD SVG 1.1//EN"
 "http://www.w3.org/Graphics/SVG/1.1/DTD/svg11.dtd">
<!-- Generated by graphviz version 2.38.0 (20140413.2041)
 -->
<!-- Title: /home/travis/build/ADVRHumanoids/ROSEndEffector/src/Parser.cpp Pages: 1 -->
<svg width="1129pt" height="162pt"
 viewBox="0.00 0.00 1128.50 162.00" xmlns="http://www.w3.org/2000/svg" xmlns:xlink="http://www.w3.org/1999/xlink">
<g id="graph0" class="graph" transform="scale(1 1) rotate(0) translate(4 158)">
<title>/home/travis/build/ADVRHumanoids/ROSEndEffector/src/Parser.cpp</title>
<!-- Node1 -->
<g id="node1" class="node"><title>Node1</title>
<polygon fill="#bfbfbf" stroke="black" points="841,-112.5 841,-153.5 1020,-153.5 1020,-112.5 841,-112.5"/>
<text text-anchor="start" x="849" y="-141.5" font-family="Helvetica,sans-Serif" font-size="10.00">/home/travis/build</text>
<text text-anchor="start" x="849" y="-130.5" font-family="Helvetica,sans-Serif" font-size="10.00">/ADVRHumanoids/ROSEndEffector</text>
<text text-anchor="middle" x="930.5" y="-119.5" font-family="Helvetica,sans-Serif" font-size="10.00">/src/Parser.cpp</text>
</g>
<!-- Node2 -->
<g id="node2" class="node"><title>Node2</title>
<g id="a_node2"><a xlink:href="Parser_8h.html" target="_top" xlink:title="ROSEndEffector/Parser.h">
<polygon fill="none" stroke="black" points="418.5,-56.5 418.5,-75.5 552.5,-75.5 552.5,-56.5 418.5,-56.5"/>
<text text-anchor="middle" x="485.5" y="-63.5" font-family="Helvetica,sans-Serif" font-size="10.00">ROSEndEffector/Parser.h</text>
</a>
</g>
</g>
<!-- Node1&#45;&gt;Node2 -->
<g id="edge1" class="edge"><title>Node1&#45;&gt;Node2</title>
<path fill="none" stroke="midnightblue" d="M840.983,-118.924C756.212,-106.542 630.762,-88.218 553.782,-76.9738"/>
<polygon fill="midnightblue" stroke="midnightblue" points="554.115,-73.4854 543.714,-75.5032 553.103,-80.4119 554.115,-73.4854"/>
</g>
<!-- Node10 -->
<g id="node10" class="node"><title>Node10</title>
<g id="a_node10"><a xlink:href="Utils_8h.html" target="_top" xlink:title="ROSEndEffector/Utils.h">
<polygon fill="none" stroke="black" points="747,-56.5 747,-75.5 872,-75.5 872,-56.5 747,-56.5"/>
<text text-anchor="middle" x="809.5" y="-63.5" font-family="Helvetica,sans-Serif" font-size="10.00">ROSEndEffector/Utils.h</text>
</a>
</g>
</g>
<!-- Node1&#45;&gt;Node10 -->
<g id="edge9" class="edge"><title>Node1&#45;&gt;Node10</title>
<path fill="none" stroke="midnightblue" d="M894.196,-112.498C874.931,-102.149 851.747,-89.6946 834.509,-80.4346"/>
<polygon fill="midnightblue" stroke="midnightblue" points="836.073,-77.3016 825.607,-75.6525 832.76,-83.4681 836.073,-77.3016"/>
</g>
<!-- Node12 -->
<g id="node12" class="node"><title>Node12</title>
<polygon fill="none" stroke="#bfbfbf" points="890.5,-56.5 890.5,-75.5 970.5,-75.5 970.5,-56.5 890.5,-56.5"/>
<text text-anchor="middle" x="930.5" y="-63.5" font-family="Helvetica,sans-Serif" font-size="10.00">ros/console.h</text>
</g>
<!-- Node1&#45;&gt;Node12 -->
<g id="edge12" class="edge"><title>Node1&#45;&gt;Node12</title>
<path fill="none" stroke="midnightblue" d="M930.5,-112.498C930.5,-104.065 930.5,-94.2351 930.5,-85.874"/>
<polygon fill="midnightblue" stroke="midnightblue" points="934,-85.6525 930.5,-75.6525 927,-85.6525 934,-85.6525"/>
</g>
<!-- Node13 -->
<g id="node13" class="node"><title>Node13</title>
<polygon fill="none" stroke="#bfbfbf" points="989,-56.5 989,-75.5 1048,-75.5 1048,-56.5 989,-56.5"/>
<text text-anchor="middle" x="1018.5" y="-63.5" font-family="Helvetica,sans-Serif" font-size="10.00">iostream</text>
</g>
<!-- Node1&#45;&gt;Node13 -->
<g id="edge13" class="edge"><title>Node1&#45;&gt;Node13</title>
<path fill="none" stroke="midnightblue" d="M956.903,-112.498C970.265,-102.628 986.22,-90.8432 998.543,-81.7407"/>
<polygon fill="midnightblue" stroke="midnightblue" points="1000.82,-84.4092 1006.79,-75.6525 996.663,-78.7786 1000.82,-84.4092"/>
</g>
<!-- Node14 -->
<g id="node14" class="node"><title>Node14</title>
<polygon fill="none" stroke="#bfbfbf" points="1066.5,-56.5 1066.5,-75.5 1120.5,-75.5 1120.5,-56.5 1066.5,-56.5"/>
<text text-anchor="middle" x="1093.5" y="-63.5" font-family="Helvetica,sans-Serif" font-size="10.00">fstream</text>
</g>
<!-- Node1&#45;&gt;Node14 -->
<g id="edge14" class="edge"><title>Node1&#45;&gt;Node14</title>
<path fill="none" stroke="midnightblue" d="M979.405,-112.498C1006.32,-101.766 1038.91,-88.7691 1062.36,-79.4192"/>
<polygon fill="midnightblue" stroke="midnightblue" points="1063.81,-82.6077 1071.8,-75.6525 1061.22,-76.1056 1063.81,-82.6077"/>
</g>
<!-- Node3 -->
<g id="node3" class="node"><title>Node3</title>
<polygon fill="none" stroke="#bfbfbf" points="781,-0.5 781,-19.5 838,-19.5 838,-0.5 781,-0.5"/>
<text text-anchor="middle" x="809.5" y="-7.5" font-family="Helvetica,sans-Serif" font-size="10.00">memory</text>
</g>
<!-- Node2&#45;&gt;Node3 -->
<g id="edge2" class="edge"><title>Node2&#45;&gt;Node3</title>
<path fill="none" stroke="midnightblue" d="M548.51,-56.4987C604.353,-48.6431 688.309,-36.0507 770.859,-19.9924"/>
<polygon fill="midnightblue" stroke="midnightblue" points="771.779,-23.3787 780.917,-18.017 770.43,-16.5099 771.779,-23.3787"/>
</g>
<!-- Node4 -->
<g id="node4" class="node"><title>Node4</title>
<polygon fill="none" stroke="#bfbfbf" points="0,-0.5 0,-19.5 59,-19.5 59,-0.5 0,-0.5"/>
<text text-anchor="middle" x="29.5" y="-7.5" font-family="Helvetica,sans-Serif" font-size="10.00">ros/ros.h</text>
</g>
<!-- Node2&#45;&gt;Node4 -->
<g id="edge3" class="edge"><title>Node2&#45;&gt;Node4</title>
<path fill="none" stroke="midnightblue" d="M418.357,-60.2346C337.768,-53.9599 198.402,-41.347 69.3047,-19.9384"/>
<polygon fill="midnightblue" stroke="midnightblue" points="69.6787,-16.4523 59.2371,-18.2473 68.5191,-23.3556 69.6787,-16.4523"/>
</g>
<!-- Node5 -->
<g id="node5" class="node"><title>Node5</title>
<polygon fill="none" stroke="#bfbfbf" points="77.5,-0.5 77.5,-19.5 173.5,-19.5 173.5,-0.5 77.5,-0.5"/>
<text text-anchor="middle" x="125.5" y="-7.5" font-family="Helvetica,sans-Serif" font-size="10.00">yaml&#45;cpp/yaml.h</text>
</g>
<!-- Node2&#45;&gt;Node5 -->
<g id="edge4" class="edge"><title>Node2&#45;&gt;Node5</title>
<path fill="none" stroke="midnightblue" d="M427.106,-56.4897C368.217,-47.8706 274.411,-34.0412 183.609,-20.1593"/>
<polygon fill="midnightblue" stroke="midnightblue" points="184.112,-16.6955 173.697,-18.6419 183.052,-23.6149 184.112,-16.6955"/>
</g>
<!-- Node6 -->
<g id="node6" class="node"><title>Node6</title>
<polygon fill="none" stroke="#bfbfbf" points="191.5,-0.5 191.5,-19.5 329.5,-19.5 329.5,-0.5 191.5,-0.5"/>
<text text-anchor="middle" x="260.5" y="-7.5" font-family="Helvetica,sans-Serif" font-size="10.00">urdf_parser/urdf_parser.h</text>
</g>
<!-- Node2&#45;&gt;Node6 -->
<g id="edge5" class="edge"><title>Node2&#45;&gt;Node6</title>
<path fill="none" stroke="midnightblue" d="M449.848,-56.4435C410.844,-47.0826 348.234,-32.0561 305.783,-21.868"/>
<polygon fill="midnightblue" stroke="midnightblue" points="306.526,-18.4469 295.985,-19.5164 304.892,-25.2536 306.526,-18.4469"/>
</g>
<!-- Node7 -->
<g id="node7" class="node"><title>Node7</title>
<polygon fill="none" stroke="#bfbfbf" points="347.5,-0.5 347.5,-19.5 487.5,-19.5 487.5,-0.5 347.5,-0.5"/>
<text text-anchor="middle" x="417.5" y="-7.5" font-family="Helvetica,sans-Serif" font-size="10.00">kdl_parser/kdl_parser.hpp</text>
</g>
<!-- Node2&#45;&gt;Node7 -->
<g id="edge6" class="edge"><title>Node2&#45;&gt;Node7</title>
<path fill="none" stroke="midnightblue" d="M474.575,-56.324C464.325,-48.1849 448.779,-35.8395 436.499,-26.0874"/>
<polygon fill="midnightblue" stroke="midnightblue" points="438.632,-23.3119 428.624,-19.8339 434.279,-28.7937 438.632,-23.3119"/>
</g>
<!-- Node8 -->
<g id="node8" class="node"><title>Node8</title>
<polygon fill="none" stroke="#bfbfbf" points="505.5,-0.5 505.5,-19.5 603.5,-19.5 603.5,-0.5 505.5,-0.5"/>
<text text-anchor="middle" x="554.5" y="-7.5" font-family="Helvetica,sans-Serif" font-size="10.00">srdfdom/model.h</text>
</g>
<!-- Node2&#45;&gt;Node8 -->
<g id="edge7" class="edge"><title>Node2&#45;&gt;Node8</title>
<path fill="none" stroke="midnightblue" d="M496.586,-56.324C506.986,-48.1849 522.761,-35.8395 535.222,-26.0874"/>
<polygon fill="midnightblue" stroke="midnightblue" points="537.494,-28.7533 543.212,-19.8339 533.18,-23.2407 537.494,-28.7533"/>
</g>
<!-- Node9 -->
<g id="node9" class="node"><title>Node9</title>
<polygon fill="none" stroke="#bfbfbf" points="622,-0.5 622,-19.5 763,-19.5 763,-0.5 622,-0.5"/>
<text text-anchor="middle" x="692.5" y="-7.5" font-family="Helvetica,sans-Serif" font-size="10.00">boost/filesystem/path.hpp</text>
</g>
<!-- Node2&#45;&gt;Node9 -->
<g id="edge8" class="edge"><title>Node2&#45;&gt;Node9</title>
<path fill="none" stroke="midnightblue" d="M518.3,-56.4435C553.88,-47.1616 610.814,-32.3093 649.847,-22.127"/>
<polygon fill="midnightblue" stroke="midnightblue" points="651.061,-25.4274 659.854,-19.5164 649.294,-18.6541 651.061,-25.4274"/>
</g>
<!-- Node10&#45;&gt;Node3 -->
<g id="edge11" class="edge"><title>Node10&#45;&gt;Node3</title>
<path fill="none" stroke="midnightblue" d="M809.5,-56.083C809.5,-49.0059 809.5,-38.8611 809.5,-29.9865"/>
<polygon fill="midnightblue" stroke="midnightblue" points="813,-29.751 809.5,-19.7511 806,-29.7511 813,-29.751"/>
</g>
<!-- Node11 -->
<g id="node11" class="node"><title>Node11</title>
<polygon fill="none" stroke="#bfbfbf" points="856,-0.5 856,-19.5 903,-19.5 903,-0.5 856,-0.5"/>
<text text-anchor="middle" x="879.5" y="-7.5" font-family="Helvetica,sans-Serif" font-size="10.00">cmath</text>
</g>
<!-- Node10&#45;&gt;Node11 -->
<g id="edge10" class="edge"><title>Node10&#45;&gt;Node11</title>
<path fill="none" stroke="midnightblue" d="M820.747,-56.324C831.297,-48.1849 847.301,-35.8395 859.942,-26.0874"/>
<polygon fill="midnightblue" stroke="midnightblue" points="862.269,-28.7132 868.049,-19.8339 857.993,-23.1707 862.269,-28.7132"/>
</g>
</g>
</svg>
