<?xml version="1.0" encoding="UTF-8" standalone="no"?>
<!DOCTYPE svg PUBLIC "-//W3C//DTD SVG 1.1//EN"
 "http://www.w3.org/Graphics/SVG/1.1/DTD/svg11.dtd">
<!-- Generated by graphviz version 2.38.0 (20140413.2041)
 -->
<!-- Title: /home/travis/build/ADVRHumanoids/ROSEndEffector/include/end_effector/ParserMoveIt.h Pages: 1 -->
<svg width="502pt" height="206pt"
 viewBox="0.00 0.00 502.00 206.00" xmlns="http://www.w3.org/2000/svg" xmlns:xlink="http://www.w3.org/1999/xlink">
<g id="graph0" class="graph" transform="scale(1 1) rotate(0) translate(4 202)">
<title>/home/travis/build/ADVRHumanoids/ROSEndEffector/include/end_effector/ParserMoveIt.h</title>
<!-- Node1 -->
<g id="node1" class="node"><title>Node1</title>
<polygon fill="#bfbfbf" stroke="black" points="191,-156.5 191,-197.5 382,-197.5 382,-156.5 191,-156.5"/>
<text text-anchor="start" x="199" y="-185.5" font-family="Helvetica,sans-Serif" font-size="10.00">/home/travis/build</text>
<text text-anchor="start" x="199" y="-174.5" font-family="Helvetica,sans-Serif" font-size="10.00">/ADVRHumanoids/ROSEndEffector</text>
<text text-anchor="middle" x="286.5" y="-163.5" font-family="Helvetica,sans-Serif" font-size="10.00">/include/end_effector/ParserMoveIt.h</text>
</g>
<!-- Node2 -->
<g id="node2" class="node"><title>Node2</title>
<g id="a_node2"><a xlink:href="FindActions_8h.html" target="_top" xlink:title="/home/travis/build\l/ADVRHumanoids/ROSEndEffector\l/include/end_effector/FindActions.h">
<polygon fill="none" stroke="black" points="75,-78.5 75,-119.5 258,-119.5 258,-78.5 75,-78.5"/>
<text text-anchor="start" x="83" y="-107.5" font-family="Helvetica,sans-Serif" font-size="10.00">/home/travis/build</text>
<text text-anchor="start" x="83" y="-96.5" font-family="Helvetica,sans-Serif" font-size="10.00">/ADVRHumanoids/ROSEndEffector</text>
<text text-anchor="middle" x="166.5" y="-85.5" font-family="Helvetica,sans-Serif" font-size="10.00">/include/end_effector/FindActions.h</text>
</a>
</g>
</g>
<!-- Node1&#45;&gt;Node2 -->
<g id="edge1" class="edge"><title>Node1&#45;&gt;Node2</title>
<path fill="none" stroke="midnightblue" d="M246.899,-150.919C230.766,-140.702 212.4,-129.07 197.298,-119.506"/>
<polygon fill="midnightblue" stroke="midnightblue" points="245.276,-154.034 255.597,-156.428 249.022,-148.121 245.276,-154.034"/>
</g>
<!-- Node4 -->
<g id="node4" class="node"><title>Node4</title>
<g id="a_node4"><a xlink:href="UniversalFindActions_8cpp.html" target="_top" xlink:title="/home/travis/build\l/ADVRHumanoids/ROSEndEffector\l/src/UniversalFindActions.cpp">
<polygon fill="none" stroke="black" points="197,-0.5 197,-41.5 376,-41.5 376,-0.5 197,-0.5"/>
<text text-anchor="start" x="205" y="-29.5" font-family="Helvetica,sans-Serif" font-size="10.00">/home/travis/build</text>
<text text-anchor="start" x="205" y="-18.5" font-family="Helvetica,sans-Serif" font-size="10.00">/ADVRHumanoids/ROSEndEffector</text>
<text text-anchor="middle" x="286.5" y="-7.5" font-family="Helvetica,sans-Serif" font-size="10.00">/src/UniversalFindActions.cpp</text>
</a>
</g>
</g>
<!-- Node1&#45;&gt;Node4 -->
<g id="edge5" class="edge"><title>Node1&#45;&gt;Node4</title>
<path fill="none" stroke="midnightblue" d="M286.5,-146.365C286.5,-115.606 286.5,-68.3579 286.5,-41.8323"/>
<polygon fill="midnightblue" stroke="midnightblue" points="283,-146.496 286.5,-156.496 290,-146.496 283,-146.496"/>
</g>
<!-- Node5 -->
<g id="node5" class="node"><title>Node5</title>
<g id="a_node5"><a xlink:href="ParserMoveIt_8cpp.html" target="_top" xlink:title="/home/travis/build\l/ADVRHumanoids/ROSEndEffector\l/src/ParserMoveIt.cpp">
<polygon fill="none" stroke="black" points="315,-78.5 315,-119.5 494,-119.5 494,-78.5 315,-78.5"/>
<text text-anchor="start" x="323" y="-107.5" font-family="Helvetica,sans-Serif" font-size="10.00">/home/travis/build</text>
<text text-anchor="start" x="323" y="-96.5" font-family="Helvetica,sans-Serif" font-size="10.00">/ADVRHumanoids/ROSEndEffector</text>
<text text-anchor="middle" x="404.5" y="-85.5" font-family="Helvetica,sans-Serif" font-size="10.00">/src/ParserMoveIt.cpp</text>
</a>
</g>
</g>
<!-- Node1&#45;&gt;Node5 -->
<g id="edge4" class="edge"><title>Node1&#45;&gt;Node5</title>
<path fill="none" stroke="midnightblue" d="M325.441,-150.919C341.305,-140.702 359.365,-129.07 374.215,-119.506"/>
<polygon fill="midnightblue" stroke="midnightblue" points="323.4,-148.071 316.888,-156.428 327.19,-153.956 323.4,-148.071"/>
</g>
<!-- Node3 -->
<g id="node3" class="node"><title>Node3</title>
<g id="a_node3"><a xlink:href="FindActions_8cpp.html" target="_top" xlink:title="/home/travis/build\l/ADVRHumanoids/ROSEndEffector\l/src/FindActions.cpp">
<polygon fill="none" stroke="black" points="0,-0.5 0,-41.5 179,-41.5 179,-0.5 0,-0.5"/>
<text text-anchor="start" x="8" y="-29.5" font-family="Helvetica,sans-Serif" font-size="10.00">/home/travis/build</text>
<text text-anchor="start" x="8" y="-18.5" font-family="Helvetica,sans-Serif" font-size="10.00">/ADVRHumanoids/ROSEndEffector</text>
<text text-anchor="middle" x="89.5" y="-7.5" font-family="Helvetica,sans-Serif" font-size="10.00">/src/FindActions.cpp</text>
</a>
</g>
</g>
<!-- Node2&#45;&gt;Node3 -->
<g id="edge2" class="edge"><title>Node2&#45;&gt;Node3</title>
<path fill="none" stroke="midnightblue" d="M139.351,-71.204C129.435,-61.416 118.414,-50.5388 109.262,-41.5056"/>
<polygon fill="midnightblue" stroke="midnightblue" points="137.095,-73.8944 146.671,-78.4281 142.012,-68.9124 137.095,-73.8944"/>
</g>
<!-- Node2&#45;&gt;Node4 -->
<g id="edge3" class="edge"><title>Node2&#45;&gt;Node4</title>
<path fill="none" stroke="midnightblue" d="M206.101,-72.9194C222.234,-62.702 240.6,-51.0701 255.702,-41.5056"/>
<polygon fill="midnightblue" stroke="midnightblue" points="203.978,-70.1207 197.403,-78.4281 207.724,-76.0344 203.978,-70.1207"/>
</g>
</g>
</svg>
