<?xml version="1.0" encoding="UTF-8" standalone="no"?>
<!DOCTYPE svg PUBLIC "-//W3C//DTD SVG 1.1//EN"
 "http://www.w3.org/Graphics/SVG/1.1/DTD/svg11.dtd">
<!-- Generated by graphviz version 2.38.0 (20140413.2041)
 -->
<!-- Title: /home/travis/build/ADVRHumanoids/ROSEndEffector/include/end_effector/Parser.h Pages: 1 -->
<svg width="1193pt" height="162pt"
 viewBox="0.00 0.00 1193.00 162.00" xmlns="http://www.w3.org/2000/svg" xmlns:xlink="http://www.w3.org/1999/xlink">
<g id="graph0" class="graph" transform="scale(1 1) rotate(0) translate(4 158)">
<title>/home/travis/build/ADVRHumanoids/ROSEndEffector/include/end_effector/Parser.h</title>
<!-- Node1 -->
<g id="node1" class="node"><title>Node1</title>
<polygon fill="#bfbfbf" stroke="black" points="352,-112.5 352,-153.5 531,-153.5 531,-112.5 352,-112.5"/>
<text text-anchor="start" x="360" y="-141.5" font-family="Helvetica,sans-Serif" font-size="10.00">/home/travis/build</text>
<text text-anchor="start" x="360" y="-130.5" font-family="Helvetica,sans-Serif" font-size="10.00">/ADVRHumanoids/ROSEndEffector</text>
<text text-anchor="middle" x="441.5" y="-119.5" font-family="Helvetica,sans-Serif" font-size="10.00">/include/end_effector/Parser.h</text>
</g>
<!-- Node2 -->
<g id="node2" class="node"><title>Node2</title>
<polygon fill="none" stroke="#bfbfbf" points="0,-0.5 0,-19.5 59,-19.5 59,-0.5 0,-0.5"/>
<text text-anchor="middle" x="29.5" y="-7.5" font-family="Helvetica,sans-Serif" font-size="10.00">iostream</text>
</g>
<!-- Node1&#45;&gt;Node2 -->
<g id="edge1" class="edge"><title>Node1&#45;&gt;Node2</title>
<path fill="none" stroke="midnightblue" d="M351.742,-123.188C291.236,-115.329 210.377,-101.052 142.5,-76 107.945,-63.2462 71.6549,-40.4377 49.8022,-25.5136"/>
<polygon fill="midnightblue" stroke="midnightblue" points="51.577,-22.4849 41.3678,-19.6526 47.5825,-28.2333 51.577,-22.4849"/>
</g>
<!-- Node3 -->
<g id="node3" class="node"><title>Node3</title>
<polygon fill="none" stroke="#bfbfbf" points="77.5,-0.5 77.5,-19.5 131.5,-19.5 131.5,-0.5 77.5,-0.5"/>
<text text-anchor="middle" x="104.5" y="-7.5" font-family="Helvetica,sans-Serif" font-size="10.00">fstream</text>
</g>
<!-- Node1&#45;&gt;Node3 -->
<g id="edge2" class="edge"><title>Node1&#45;&gt;Node3</title>
<path fill="none" stroke="midnightblue" d="M351.699,-125.581C297.592,-118.786 228.709,-104.797 173.5,-76 150.812,-64.1661 130.231,-42.7295 117.566,-27.7201"/>
<polygon fill="midnightblue" stroke="midnightblue" points="120.098,-25.2874 111.068,-19.7467 114.672,-29.7096 120.098,-25.2874"/>
</g>
<!-- Node4 -->
<g id="node4" class="node"><title>Node4</title>
<polygon fill="none" stroke="#bfbfbf" points="150,-0.5 150,-19.5 207,-19.5 207,-0.5 150,-0.5"/>
<text text-anchor="middle" x="178.5" y="-7.5" font-family="Helvetica,sans-Serif" font-size="10.00">memory</text>
</g>
<!-- Node1&#45;&gt;Node4 -->
<g id="edge3" class="edge"><title>Node1&#45;&gt;Node4</title>
<path fill="none" stroke="midnightblue" d="M351.728,-123.25C287.492,-115.038 208.622,-100.299 186.5,-76 175.387,-63.7934 174.306,-44.5255 175.452,-30.1319"/>
<polygon fill="midnightblue" stroke="midnightblue" points="178.969,-30.2108 176.7,-19.8616 172.02,-29.3664 178.969,-30.2108"/>
</g>
<!-- Node5 -->
<g id="node5" class="node"><title>Node5</title>
<polygon fill="none" stroke="#bfbfbf" points="324,-56.5 324,-75.5 383,-75.5 383,-56.5 324,-56.5"/>
<text text-anchor="middle" x="353.5" y="-63.5" font-family="Helvetica,sans-Serif" font-size="10.00">ros/ros.h</text>
</g>
<!-- Node1&#45;&gt;Node5 -->
<g id="edge4" class="edge"><title>Node1&#45;&gt;Node5</title>
<path fill="none" stroke="midnightblue" d="M415.097,-112.498C401.735,-102.628 385.78,-90.8432 373.457,-81.7407"/>
<polygon fill="midnightblue" stroke="midnightblue" points="375.337,-78.7786 365.214,-75.6525 371.178,-84.4092 375.337,-78.7786"/>
</g>
<!-- Node6 -->
<g id="node6" class="node"><title>Node6</title>
<polygon fill="none" stroke="#bfbfbf" points="401.5,-56.5 401.5,-75.5 481.5,-75.5 481.5,-56.5 401.5,-56.5"/>
<text text-anchor="middle" x="441.5" y="-63.5" font-family="Helvetica,sans-Serif" font-size="10.00">ros/console.h</text>
</g>
<!-- Node1&#45;&gt;Node6 -->
<g id="edge5" class="edge"><title>Node1&#45;&gt;Node6</title>
<path fill="none" stroke="midnightblue" d="M441.5,-112.498C441.5,-104.065 441.5,-94.2351 441.5,-85.874"/>
<polygon fill="midnightblue" stroke="midnightblue" points="445,-85.6525 441.5,-75.6525 438,-85.6525 445,-85.6525"/>
</g>
<!-- Node7 -->
<g id="node7" class="node"><title>Node7</title>
<g id="a_node7"><a xlink:href="Utils_8h.html" target="_top" xlink:title="end_effector/Utils.h">
<polygon fill="none" stroke="black" points="195.5,-56.5 195.5,-75.5 305.5,-75.5 305.5,-56.5 195.5,-56.5"/>
<text text-anchor="middle" x="250.5" y="-63.5" font-family="Helvetica,sans-Serif" font-size="10.00">end_effector/Utils.h</text>
</a>
</g>
</g>
<!-- Node1&#45;&gt;Node7 -->
<g id="edge6" class="edge"><title>Node1&#45;&gt;Node7</title>
<path fill="none" stroke="midnightblue" d="M384.194,-112.498C352.094,-101.574 313.102,-88.3043 285.532,-78.9218"/>
<polygon fill="midnightblue" stroke="midnightblue" points="286.519,-75.5609 275.925,-75.6525 284.264,-82.1876 286.519,-75.5609"/>
</g>
<!-- Node13 -->
<g id="node13" class="node"><title>Node13</title>
<polygon fill="none" stroke="#bfbfbf" points="499.5,-56.5 499.5,-75.5 595.5,-75.5 595.5,-56.5 499.5,-56.5"/>
<text text-anchor="middle" x="547.5" y="-63.5" font-family="Helvetica,sans-Serif" font-size="10.00">yaml&#45;cpp/yaml.h</text>
</g>
<!-- Node1&#45;&gt;Node13 -->
<g id="edge15" class="edge"><title>Node1&#45;&gt;Node13</title>
<path fill="none" stroke="midnightblue" d="M473.303,-112.498C489.868,-102.34 509.739,-90.1551 524.747,-80.9523"/>
<polygon fill="midnightblue" stroke="midnightblue" points="526.695,-83.8637 533.39,-75.6525 523.035,-77.8963 526.695,-83.8637"/>
</g>
<!-- Node14 -->
<g id="node14" class="node"><title>Node14</title>
<polygon fill="none" stroke="#bfbfbf" points="613.5,-56.5 613.5,-75.5 751.5,-75.5 751.5,-56.5 613.5,-56.5"/>
<text text-anchor="middle" x="682.5" y="-63.5" font-family="Helvetica,sans-Serif" font-size="10.00">urdf_parser/urdf_parser.h</text>
</g>
<!-- Node1&#45;&gt;Node14 -->
<g id="edge16" class="edge"><title>Node1&#45;&gt;Node14</title>
<path fill="none" stroke="midnightblue" d="M513.808,-112.498C555.325,-101.3 605.98,-87.6381 640.884,-78.2242"/>
<polygon fill="midnightblue" stroke="midnightblue" points="641.992,-81.5504 650.736,-75.5671 640.169,-74.7919 641.992,-81.5504"/>
</g>
<!-- Node15 -->
<g id="node15" class="node"><title>Node15</title>
<polygon fill="none" stroke="#bfbfbf" points="769.5,-56.5 769.5,-75.5 909.5,-75.5 909.5,-56.5 769.5,-56.5"/>
<text text-anchor="middle" x="839.5" y="-63.5" font-family="Helvetica,sans-Serif" font-size="10.00">kdl_parser/kdl_parser.hpp</text>
</g>
<!-- Node1&#45;&gt;Node15 -->
<g id="edge17" class="edge"><title>Node1&#45;&gt;Node15</title>
<path fill="none" stroke="midnightblue" d="M531.315,-117.332C606.179,-105.105 710.902,-88.0022 776.949,-77.2156"/>
<polygon fill="midnightblue" stroke="midnightblue" points="777.901,-80.6065 787.206,-75.5404 776.773,-73.6981 777.901,-80.6065"/>
</g>
<!-- Node16 -->
<g id="node16" class="node"><title>Node16</title>
<polygon fill="none" stroke="#bfbfbf" points="927.5,-56.5 927.5,-75.5 1025.5,-75.5 1025.5,-56.5 927.5,-56.5"/>
<text text-anchor="middle" x="976.5" y="-63.5" font-family="Helvetica,sans-Serif" font-size="10.00">srdfdom/model.h</text>
</g>
<!-- Node1&#45;&gt;Node16 -->
<g id="edge18" class="edge"><title>Node1&#45;&gt;Node16</title>
<path fill="none" stroke="midnightblue" d="M531.298,-122.462C625.025,-112.278 776.527,-95.172 917.351,-76.1142"/>
<polygon fill="midnightblue" stroke="midnightblue" points="918.033,-79.5537 927.471,-74.7387 917.091,-72.6175 918.033,-79.5537"/>
</g>
<!-- Node17 -->
<g id="node17" class="node"><title>Node17</title>
<polygon fill="none" stroke="#bfbfbf" points="1044,-56.5 1044,-75.5 1185,-75.5 1185,-56.5 1044,-56.5"/>
<text text-anchor="middle" x="1114.5" y="-63.5" font-family="Helvetica,sans-Serif" font-size="10.00">boost/filesystem/path.hpp</text>
</g>
<!-- Node1&#45;&gt;Node17 -->
<g id="edge19" class="edge"><title>Node1&#45;&gt;Node17</title>
<path fill="none" stroke="midnightblue" d="M531.212,-124.031C645.298,-113.783 848.653,-95.1392 1033.65,-76.0717"/>
<polygon fill="midnightblue" stroke="midnightblue" points="1034.25,-79.528 1043.84,-75.0189 1033.53,-72.5651 1034.25,-79.528"/>
</g>
<!-- Node7&#45;&gt;Node2 -->
<g id="edge9" class="edge"><title>Node7&#45;&gt;Node2</title>
<path fill="none" stroke="midnightblue" d="M215.482,-56.4435C175.566,-46.6903 110.478,-30.7864 68.8429,-20.6132"/>
<polygon fill="midnightblue" stroke="midnightblue" points="69.5948,-17.194 59.0498,-18.2203 67.9332,-23.994 69.5948,-17.194"/>
</g>
<!-- Node7&#45;&gt;Node3 -->
<g id="edge12" class="edge"><title>Node7&#45;&gt;Node3</title>
<path fill="none" stroke="midnightblue" d="M227.366,-56.4435C203.018,-47.4381 164.493,-33.1891 137.077,-23.049"/>
<polygon fill="midnightblue" stroke="midnightblue" points="138.119,-19.7028 127.526,-19.5164 135.691,-26.2681 138.119,-19.7028"/>
</g>
<!-- Node7&#45;&gt;Node4 -->
<g id="edge8" class="edge"><title>Node7&#45;&gt;Node4</title>
<path fill="none" stroke="midnightblue" d="M238.932,-56.324C228.08,-48.1849 211.619,-35.8395 198.617,-26.0874"/>
<polygon fill="midnightblue" stroke="midnightblue" points="200.379,-23.0339 190.279,-19.8339 196.179,-28.6339 200.379,-23.0339"/>
</g>
<!-- Node8 -->
<g id="node8" class="node"><title>Node8</title>
<polygon fill="none" stroke="#bfbfbf" points="294,-0.5 294,-19.5 341,-19.5 341,-0.5 294,-0.5"/>
<text text-anchor="middle" x="317.5" y="-7.5" font-family="Helvetica,sans-Serif" font-size="10.00">cmath</text>
</g>
<!-- Node7&#45;&gt;Node8 -->
<g id="edge7" class="edge"><title>Node7&#45;&gt;Node8</title>
<path fill="none" stroke="midnightblue" d="M261.265,-56.324C271.266,-48.2631 286.387,-36.0765 298.43,-26.3695"/>
<polygon fill="midnightblue" stroke="midnightblue" points="300.95,-28.8343 306.539,-19.8339 296.557,-23.3841 300.95,-28.8343"/>
</g>
<!-- Node9 -->
<g id="node9" class="node"><title>Node9</title>
<polygon fill="none" stroke="#bfbfbf" points="359.5,-0.5 359.5,-19.5 407.5,-19.5 407.5,-0.5 359.5,-0.5"/>
<text text-anchor="middle" x="383.5" y="-7.5" font-family="Helvetica,sans-Serif" font-size="10.00">dlfcn.h</text>
</g>
<!-- Node7&#45;&gt;Node9 -->
<g id="edge10" class="edge"><title>Node7&#45;&gt;Node9</title>
<path fill="none" stroke="midnightblue" d="M271.574,-56.4435C293.56,-47.5171 328.234,-33.4387 353.164,-23.3168"/>
<polygon fill="midnightblue" stroke="midnightblue" points="354.576,-26.5213 362.524,-19.5164 351.942,-20.0355 354.576,-26.5213"/>
</g>
<!-- Node10 -->
<g id="node10" class="node"><title>Node10</title>
<polygon fill="none" stroke="#bfbfbf" points="425.5,-0.5 425.5,-19.5 541.5,-19.5 541.5,-0.5 425.5,-0.5"/>
<text text-anchor="middle" x="483.5" y="-7.5" font-family="Helvetica,sans-Serif" font-size="10.00">boost/filesystem.hpp</text>
</g>
<!-- Node7&#45;&gt;Node10 -->
<g id="edge11" class="edge"><title>Node7&#45;&gt;Node10</title>
<path fill="none" stroke="midnightblue" d="M287.42,-56.4435C327.895,-47.0629 392.921,-31.9926 436.884,-21.8036"/>
<polygon fill="midnightblue" stroke="midnightblue" points="437.802,-25.1839 446.753,-19.5164 436.221,-18.3646 437.802,-25.1839"/>
</g>
<!-- Node11 -->
<g id="node11" class="node"><title>Node11</title>
<polygon fill="none" stroke="#bfbfbf" points="559.5,-0.5 559.5,-19.5 609.5,-19.5 609.5,-0.5 559.5,-0.5"/>
<text text-anchor="middle" x="584.5" y="-7.5" font-family="Helvetica,sans-Serif" font-size="10.00">chrono</text>
</g>
<!-- Node7&#45;&gt;Node11 -->
<g id="edge13" class="edge"><title>Node7&#45;&gt;Node11</title>
<path fill="none" stroke="midnightblue" d="M305.657,-57.0618C379.127,-46.441 504.284,-28.1704 549.275,-19.946"/>
<polygon fill="midnightblue" stroke="midnightblue" points="550.173,-23.3371 559.322,-17.9945 548.838,-16.4656 550.173,-23.3371"/>
</g>
<!-- Node12 -->
<g id="node12" class="node"><title>Node12</title>
<polygon fill="none" stroke="#bfbfbf" points="225.5,-0.5 225.5,-19.5 275.5,-19.5 275.5,-0.5 225.5,-0.5"/>
<text text-anchor="middle" x="250.5" y="-7.5" font-family="Helvetica,sans-Serif" font-size="10.00">atomic</text>
</g>
<!-- Node7&#45;&gt;Node12 -->
<g id="edge14" class="edge"><title>Node7&#45;&gt;Node12</title>
<path fill="none" stroke="midnightblue" d="M250.5,-56.083C250.5,-49.0059 250.5,-38.8611 250.5,-29.9865"/>
<polygon fill="midnightblue" stroke="midnightblue" points="254,-29.751 250.5,-19.7511 247,-29.7511 254,-29.751"/>
</g>
</g>
</svg>
