<?xml version="1.0" encoding="UTF-8" standalone="no"?>
<!DOCTYPE svg PUBLIC "-//W3C//DTD SVG 1.1//EN"
 "http://www.w3.org/Graphics/SVG/1.1/DTD/svg11.dtd">
<!-- Generated by graphviz version 2.38.0 (20140413.2041)
 -->
<!-- Title: /home/travis/build/ADVRHumanoids/ROSEndEffector/include/ros_end_effector/ParserMoveIt.h Pages: 1 -->
<svg width="464pt" height="139pt"
 viewBox="0.00 0.00 464.00 139.00" xmlns="http://www.w3.org/2000/svg" xmlns:xlink="http://www.w3.org/1999/xlink">
<g id="graph0" class="graph" transform="scale(1 1) rotate(0) translate(4 135)">
<title>/home/travis/build/ADVRHumanoids/ROSEndEffector/include/ros_end_effector/ParserMoveIt.h</title>
<!-- Node1 -->
<g id="node1" class="node"><title>Node1</title>
<polygon fill="#bfbfbf" stroke="black" points="90.5,-78.5 90.5,-130.5 269.5,-130.5 269.5,-78.5 90.5,-78.5"/>
<text text-anchor="start" x="98.5" y="-118.5" font-family="Helvetica,sans-Serif" font-size="10.00">/home/travis/build</text>
<text text-anchor="start" x="98.5" y="-107.5" font-family="Helvetica,sans-Serif" font-size="10.00">/ADVRHumanoids/ROSEndEffector</text>
<text text-anchor="start" x="98.5" y="-96.5" font-family="Helvetica,sans-Serif" font-size="10.00">/include/ros_end_effector</text>
<text text-anchor="middle" x="180" y="-85.5" font-family="Helvetica,sans-Serif" font-size="10.00">/ParserMoveIt.h</text>
</g>
<!-- Node2 -->
<g id="node2" class="node"><title>Node2</title>
<polygon fill="none" stroke="#bfbfbf" points="0,-11.5 0,-30.5 44,-30.5 44,-11.5 0,-11.5"/>
<text text-anchor="middle" x="22" y="-18.5" font-family="Helvetica,sans-Serif" font-size="10.00">string</text>
</g>
<!-- Node1&#45;&gt;Node2 -->
<g id="edge1" class="edge"><title>Node1&#45;&gt;Node2</title>
<path fill="none" stroke="midnightblue" d="M124.551,-78.4496C102.03,-67.8122 75.9585,-54.9014 53,-42 49.6778,-40.1331 46.2252,-38.0536 42.8824,-35.9612"/>
<polygon fill="midnightblue" stroke="midnightblue" points="44.7566,-33.0052 34.455,-30.5295 40.9643,-38.8889 44.7566,-33.0052"/>
</g>
<!-- Node3 -->
<g id="node3" class="node"><title>Node3</title>
<polygon fill="none" stroke="#bfbfbf" points="62.5,-11.5 62.5,-30.5 109.5,-30.5 109.5,-11.5 62.5,-11.5"/>
<text text-anchor="middle" x="86" y="-18.5" font-family="Helvetica,sans-Serif" font-size="10.00">vector</text>
</g>
<!-- Node1&#45;&gt;Node3 -->
<g id="edge2" class="edge"><title>Node1&#45;&gt;Node3</title>
<path fill="none" stroke="midnightblue" d="M151.03,-78.3823C135.631,-65.0307 117.187,-49.0401 103.882,-37.5039"/>
<polygon fill="midnightblue" stroke="midnightblue" points="105.812,-34.5452 95.9637,-30.6388 101.226,-39.8341 105.812,-34.5452"/>
</g>
<!-- Node4 -->
<g id="node4" class="node"><title>Node4</title>
<polygon fill="none" stroke="#bfbfbf" points="128,-11.5 128,-30.5 166,-30.5 166,-11.5 128,-11.5"/>
<text text-anchor="middle" x="147" y="-18.5" font-family="Helvetica,sans-Serif" font-size="10.00">map</text>
</g>
<!-- Node1&#45;&gt;Node4 -->
<g id="edge3" class="edge"><title>Node1&#45;&gt;Node4</title>
<path fill="none" stroke="midnightblue" d="M169.739,-78.1596C164.75,-65.8367 158.867,-51.3089 154.336,-40.117"/>
<polygon fill="midnightblue" stroke="midnightblue" points="157.475,-38.5449 150.478,-30.5895 150.987,-41.1721 157.475,-38.5449"/>
</g>
<!-- Node5 -->
<g id="node5" class="node"><title>Node5</title>
<polygon fill="none" stroke="#bfbfbf" points="184.5,-11.5 184.5,-30.5 243.5,-30.5 243.5,-11.5 184.5,-11.5"/>
<text text-anchor="middle" x="214" y="-18.5" font-family="Helvetica,sans-Serif" font-size="10.00">iostream</text>
</g>
<!-- Node1&#45;&gt;Node5 -->
<g id="edge4" class="edge"><title>Node1&#45;&gt;Node5</title>
<path fill="none" stroke="midnightblue" d="M190.571,-78.1596C195.712,-65.8367 201.773,-51.3089 206.442,-40.117"/>
<polygon fill="midnightblue" stroke="midnightblue" points="209.797,-41.1662 210.417,-30.5895 203.336,-38.471 209.797,-41.1662"/>
</g>
<!-- Node6 -->
<g id="node6" class="node"><title>Node6</title>
<polygon fill="none" stroke="#bfbfbf" points="262,-0.5 262,-41.5 378,-41.5 378,-0.5 262,-0.5"/>
<text text-anchor="start" x="270" y="-29.5" font-family="Helvetica,sans-Serif" font-size="10.00">moveit/robot_model</text>
<text text-anchor="start" x="270" y="-18.5" font-family="Helvetica,sans-Serif" font-size="10.00">_loader/robot_model</text>
<text text-anchor="middle" x="320" y="-7.5" font-family="Helvetica,sans-Serif" font-size="10.00">_loader.h</text>
</g>
<!-- Node1&#45;&gt;Node6 -->
<g id="edge5" class="edge"><title>Node1&#45;&gt;Node6</title>
<path fill="none" stroke="midnightblue" d="M223.147,-78.3823C240.388,-68.3456 260.191,-56.8176 277.379,-46.8116"/>
<polygon fill="midnightblue" stroke="midnightblue" points="279.22,-49.7896 286.102,-41.7338 275.698,-43.74 279.22,-49.7896"/>
</g>
<!-- Node7 -->
<g id="node7" class="node"><title>Node7</title>
<polygon fill="none" stroke="#bfbfbf" points="396,-11.5 396,-30.5 456,-30.5 456,-11.5 396,-11.5"/>
<text text-anchor="middle" x="426" y="-18.5" font-family="Helvetica,sans-Serif" font-size="10.00">tinyxml.h</text>
</g>
<!-- Node1&#45;&gt;Node7 -->
<g id="edge6" class="edge"><title>Node1&#45;&gt;Node7</title>
<path fill="none" stroke="midnightblue" d="M269.623,-80.7819C306.508,-70.4297 349.332,-57.1029 387,-42 391.781,-40.0832 396.76,-37.7819 401.498,-35.4333"/>
<polygon fill="midnightblue" stroke="midnightblue" points="403.468,-38.3548 410.745,-30.6543 400.255,-32.1361 403.468,-38.3548"/>
</g>
</g>
</svg>
