<?xml version="1.0" encoding="UTF-8" standalone="no"?>
<!DOCTYPE svg PUBLIC "-//W3C//DTD SVG 1.1//EN"
 "http://www.w3.org/Graphics/SVG/1.1/DTD/svg11.dtd">
<!-- Generated by graphviz version 2.38.0 (20140413.2041)
 -->
<!-- Title: /home/travis/build/ADVRHumanoids/ROSEndEffector/include/ROSEndEffector/Parser.h Pages: 1 -->
<svg width="846pt" height="106pt"
 viewBox="0.00 0.00 846.00 106.00" xmlns="http://www.w3.org/2000/svg" xmlns:xlink="http://www.w3.org/1999/xlink">
<g id="graph0" class="graph" transform="scale(1 1) rotate(0) translate(4 102)">
<title>/home/travis/build/ADVRHumanoids/ROSEndEffector/include/ROSEndEffector/Parser.h</title>
<!-- Node1 -->
<g id="node1" class="node"><title>Node1</title>
<polygon fill="#bfbfbf" stroke="black" points="246,-56.5 246,-97.5 425,-97.5 425,-56.5 246,-56.5"/>
<text text-anchor="start" x="254" y="-85.5" font-family="Helvetica,sans-Serif" font-size="10.00">/home/travis/build</text>
<text text-anchor="start" x="254" y="-74.5" font-family="Helvetica,sans-Serif" font-size="10.00">/ADVRHumanoids/ROSEndEffector</text>
<text text-anchor="middle" x="335.5" y="-63.5" font-family="Helvetica,sans-Serif" font-size="10.00">/include/ROSEndEffector/Parser.h</text>
</g>
<!-- Node2 -->
<g id="node2" class="node"><title>Node2</title>
<polygon fill="none" stroke="#bfbfbf" points="0,-0.5 0,-19.5 57,-19.5 57,-0.5 0,-0.5"/>
<text text-anchor="middle" x="28.5" y="-7.5" font-family="Helvetica,sans-Serif" font-size="10.00">memory</text>
</g>
<!-- Node1&#45;&gt;Node2 -->
<g id="edge1" class="edge"><title>Node1&#45;&gt;Node2</title>
<path fill="none" stroke="midnightblue" d="M245.95,-58.2237C195.877,-48.095 132.097,-34.8828 67.1674,-20.3259"/>
<polygon fill="midnightblue" stroke="midnightblue" points="67.6851,-16.8549 57.1606,-18.0736 66.148,-23.6841 67.6851,-16.8549"/>
</g>
<!-- Node3 -->
<g id="node3" class="node"><title>Node3</title>
<polygon fill="none" stroke="#bfbfbf" points="75,-0.5 75,-19.5 134,-19.5 134,-0.5 75,-0.5"/>
<text text-anchor="middle" x="104.5" y="-7.5" font-family="Helvetica,sans-Serif" font-size="10.00">ros/ros.h</text>
</g>
<!-- Node1&#45;&gt;Node3 -->
<g id="edge2" class="edge"><title>Node1&#45;&gt;Node3</title>
<path fill="none" stroke="midnightblue" d="M266.192,-56.4979C226.207,-45.2467 177.38,-31.5072 143.91,-22.0893"/>
<polygon fill="midnightblue" stroke="midnightblue" points="144.617,-18.6524 134.042,-19.3128 142.72,-25.3907 144.617,-18.6524"/>
</g>
<!-- Node4 -->
<g id="node4" class="node"><title>Node4</title>
<polygon fill="none" stroke="#bfbfbf" points="152.5,-0.5 152.5,-19.5 248.5,-19.5 248.5,-0.5 152.5,-0.5"/>
<text text-anchor="middle" x="200.5" y="-7.5" font-family="Helvetica,sans-Serif" font-size="10.00">yaml&#45;cpp/yaml.h</text>
</g>
<!-- Node1&#45;&gt;Node4 -->
<g id="edge3" class="edge"><title>Node1&#45;&gt;Node4</title>
<path fill="none" stroke="midnightblue" d="M294.996,-56.4979C273.203,-46.0051 246.916,-33.3482 227.605,-24.0507"/>
<polygon fill="midnightblue" stroke="midnightblue" points="228.999,-20.8372 218.471,-19.6525 225.962,-27.1442 228.999,-20.8372"/>
</g>
<!-- Node5 -->
<g id="node5" class="node"><title>Node5</title>
<polygon fill="none" stroke="#bfbfbf" points="266.5,-0.5 266.5,-19.5 404.5,-19.5 404.5,-0.5 266.5,-0.5"/>
<text text-anchor="middle" x="335.5" y="-7.5" font-family="Helvetica,sans-Serif" font-size="10.00">urdf_parser/urdf_parser.h</text>
</g>
<!-- Node1&#45;&gt;Node5 -->
<g id="edge4" class="edge"><title>Node1&#45;&gt;Node5</title>
<path fill="none" stroke="midnightblue" d="M335.5,-56.4979C335.5,-48.0653 335.5,-38.2351 335.5,-29.874"/>
<polygon fill="midnightblue" stroke="midnightblue" points="339,-29.6525 335.5,-19.6525 332,-29.6525 339,-29.6525"/>
</g>
<!-- Node6 -->
<g id="node6" class="node"><title>Node6</title>
<polygon fill="none" stroke="#bfbfbf" points="422.5,-0.5 422.5,-19.5 562.5,-19.5 562.5,-0.5 422.5,-0.5"/>
<text text-anchor="middle" x="492.5" y="-7.5" font-family="Helvetica,sans-Serif" font-size="10.00">kdl_parser/kdl_parser.hpp</text>
</g>
<!-- Node1&#45;&gt;Node6 -->
<g id="edge5" class="edge"><title>Node1&#45;&gt;Node6</title>
<path fill="none" stroke="midnightblue" d="M382.605,-56.4979C408.412,-45.8135 439.639,-32.8851 462.2,-23.5446"/>
<polygon fill="midnightblue" stroke="midnightblue" points="463.7,-26.7116 471.601,-19.6525 461.023,-20.244 463.7,-26.7116"/>
</g>
<!-- Node7 -->
<g id="node7" class="node"><title>Node7</title>
<polygon fill="none" stroke="#bfbfbf" points="580.5,-0.5 580.5,-19.5 678.5,-19.5 678.5,-0.5 580.5,-0.5"/>
<text text-anchor="middle" x="629.5" y="-7.5" font-family="Helvetica,sans-Serif" font-size="10.00">srdfdom/model.h</text>
</g>
<!-- Node1&#45;&gt;Node7 -->
<g id="edge6" class="edge"><title>Node1&#45;&gt;Node7</title>
<path fill="none" stroke="midnightblue" d="M423.71,-56.4979C475.227,-45.1081 538.277,-31.1683 580.908,-21.7432"/>
<polygon fill="midnightblue" stroke="midnightblue" points="581.742,-25.1434 590.75,-19.5671 580.231,-18.3084 581.742,-25.1434"/>
</g>
<!-- Node8 -->
<g id="node8" class="node"><title>Node8</title>
<polygon fill="none" stroke="#bfbfbf" points="697,-0.5 697,-19.5 838,-19.5 838,-0.5 697,-0.5"/>
<text text-anchor="middle" x="767.5" y="-7.5" font-family="Helvetica,sans-Serif" font-size="10.00">boost/filesystem/path.hpp</text>
</g>
<!-- Node1&#45;&gt;Node8 -->
<g id="edge7" class="edge"><title>Node1&#45;&gt;Node8</title>
<path fill="none" stroke="midnightblue" d="M425.011,-62.532C507.034,-50.1905 626.63,-32.1958 700.622,-21.0627"/>
<polygon fill="midnightblue" stroke="midnightblue" points="701.383,-24.4876 710.751,-19.5386 700.342,-17.5655 701.383,-24.4876"/>
</g>
</g>
</svg>
