<?xml version="1.0" encoding="UTF-8" standalone="no"?>
<!DOCTYPE svg PUBLIC "-//W3C//DTD SVG 1.1//EN"
 "http://www.w3.org/Graphics/SVG/1.1/DTD/svg11.dtd">
<!-- Generated by graphviz version 2.38.0 (20140413.2041)
 -->
<!-- Title: /home/travis/build/ADVRHumanoids/ROSEndEffector/src/ParserMoveIt.cpp Pages: 1 -->
<svg width="464pt" height="184pt"
 viewBox="0.00 0.00 464.00 184.00" xmlns="http://www.w3.org/2000/svg" xmlns:xlink="http://www.w3.org/1999/xlink">
<g id="graph0" class="graph" transform="scale(1 1) rotate(0) translate(4 180)">
<title>/home/travis/build/ADVRHumanoids/ROSEndEffector/src/ParserMoveIt.cpp</title>
<!-- Node1 -->
<g id="node1" class="node"><title>Node1</title>
<polygon fill="#bfbfbf" stroke="black" points="90.5,-134.5 90.5,-175.5 269.5,-175.5 269.5,-134.5 90.5,-134.5"/>
<text text-anchor="start" x="98.5" y="-163.5" font-family="Helvetica,sans-Serif" font-size="10.00">/home/travis/build</text>
<text text-anchor="start" x="98.5" y="-152.5" font-family="Helvetica,sans-Serif" font-size="10.00">/ADVRHumanoids/ROSEndEffector</text>
<text text-anchor="middle" x="180" y="-141.5" font-family="Helvetica,sans-Serif" font-size="10.00">/src/ParserMoveIt.cpp</text>
</g>
<!-- Node2 -->
<g id="node2" class="node"><title>Node2</title>
<g id="a_node2"><a xlink:href="ParserMoveIt_8h.html" target="_top" xlink:title="ros_end_effector/ParserMoveIt.h">
<polygon fill="none" stroke="black" points="94.5,-78.5 94.5,-97.5 265.5,-97.5 265.5,-78.5 94.5,-78.5"/>
<text text-anchor="middle" x="180" y="-85.5" font-family="Helvetica,sans-Serif" font-size="10.00">ros_end_effector/ParserMoveIt.h</text>
</a>
</g>
</g>
<!-- Node1&#45;&gt;Node2 -->
<g id="edge1" class="edge"><title>Node1&#45;&gt;Node2</title>
<path fill="none" stroke="midnightblue" d="M180,-134.498C180,-126.065 180,-116.235 180,-107.874"/>
<polygon fill="midnightblue" stroke="midnightblue" points="183.5,-107.652 180,-97.6525 176.5,-107.653 183.5,-107.652"/>
</g>
<!-- Node3 -->
<g id="node3" class="node"><title>Node3</title>
<polygon fill="none" stroke="#bfbfbf" points="0,-11.5 0,-30.5 44,-30.5 44,-11.5 0,-11.5"/>
<text text-anchor="middle" x="22" y="-18.5" font-family="Helvetica,sans-Serif" font-size="10.00">string</text>
</g>
<!-- Node2&#45;&gt;Node3 -->
<g id="edge2" class="edge"><title>Node2&#45;&gt;Node3</title>
<path fill="none" stroke="midnightblue" d="M149.69,-78.4397C123.445,-70.5201 84.8058,-57.6295 53,-42 49.5187,-40.2893 45.9496,-38.2686 42.5291,-36.1805"/>
<polygon fill="midnightblue" stroke="midnightblue" points="44.2834,-33.147 33.9842,-30.6617 40.4856,-39.0273 44.2834,-33.147"/>
</g>
<!-- Node4 -->
<g id="node4" class="node"><title>Node4</title>
<polygon fill="none" stroke="#bfbfbf" points="62.5,-11.5 62.5,-30.5 109.5,-30.5 109.5,-11.5 62.5,-11.5"/>
<text text-anchor="middle" x="86" y="-18.5" font-family="Helvetica,sans-Serif" font-size="10.00">vector</text>
</g>
<!-- Node2&#45;&gt;Node4 -->
<g id="edge3" class="edge"><title>Node2&#45;&gt;Node4</title>
<path fill="none" stroke="midnightblue" d="M167.323,-78.2338C151.819,-67.5131 125.359,-49.2165 106.844,-36.4137"/>
<polygon fill="midnightblue" stroke="midnightblue" points="108.692,-33.4361 98.4764,-30.6273 104.711,-39.1937 108.692,-33.4361"/>
</g>
<!-- Node5 -->
<g id="node5" class="node"><title>Node5</title>
<polygon fill="none" stroke="#bfbfbf" points="128,-11.5 128,-30.5 166,-30.5 166,-11.5 128,-11.5"/>
<text text-anchor="middle" x="147" y="-18.5" font-family="Helvetica,sans-Serif" font-size="10.00">map</text>
</g>
<!-- Node2&#45;&gt;Node5 -->
<g id="edge4" class="edge"><title>Node2&#45;&gt;Node5</title>
<path fill="none" stroke="midnightblue" d="M175.549,-78.2338C170.552,-68.3903 162.312,-52.1598 155.966,-39.6594"/>
<polygon fill="midnightblue" stroke="midnightblue" points="159.028,-37.9595 151.38,-30.6273 152.786,-41.1284 159.028,-37.9595"/>
</g>
<!-- Node6 -->
<g id="node6" class="node"><title>Node6</title>
<polygon fill="none" stroke="#bfbfbf" points="184.5,-11.5 184.5,-30.5 243.5,-30.5 243.5,-11.5 184.5,-11.5"/>
<text text-anchor="middle" x="214" y="-18.5" font-family="Helvetica,sans-Serif" font-size="10.00">iostream</text>
</g>
<!-- Node2&#45;&gt;Node6 -->
<g id="edge5" class="edge"><title>Node2&#45;&gt;Node6</title>
<path fill="none" stroke="midnightblue" d="M184.585,-78.2338C189.734,-68.3903 198.224,-52.1598 204.763,-39.6594"/>
<polygon fill="midnightblue" stroke="midnightblue" points="207.954,-41.1106 209.487,-30.6273 201.751,-37.866 207.954,-41.1106"/>
</g>
<!-- Node7 -->
<g id="node7" class="node"><title>Node7</title>
<polygon fill="none" stroke="#bfbfbf" points="262,-0.5 262,-41.5 378,-41.5 378,-0.5 262,-0.5"/>
<text text-anchor="start" x="270" y="-29.5" font-family="Helvetica,sans-Serif" font-size="10.00">moveit/robot_model</text>
<text text-anchor="start" x="270" y="-18.5" font-family="Helvetica,sans-Serif" font-size="10.00">_loader/robot_model</text>
<text text-anchor="middle" x="320" y="-7.5" font-family="Helvetica,sans-Serif" font-size="10.00">_loader.h</text>
</g>
<!-- Node2&#45;&gt;Node7 -->
<g id="edge6" class="edge"><title>Node2&#45;&gt;Node7</title>
<path fill="none" stroke="midnightblue" d="M198.591,-78.3685C216.399,-70.1006 244.099,-57.2397 268.547,-45.889"/>
<polygon fill="midnightblue" stroke="midnightblue" points="270.134,-49.0111 277.73,-41.6254 267.186,-42.6621 270.134,-49.0111"/>
</g>
<!-- Node8 -->
<g id="node8" class="node"><title>Node8</title>
<polygon fill="none" stroke="#bfbfbf" points="396,-11.5 396,-30.5 456,-30.5 456,-11.5 396,-11.5"/>
<text text-anchor="middle" x="426" y="-18.5" font-family="Helvetica,sans-Serif" font-size="10.00">tinyxml.h</text>
</g>
<!-- Node2&#45;&gt;Node8 -->
<g id="edge7" class="edge"><title>Node2&#45;&gt;Node8</title>
<path fill="none" stroke="midnightblue" d="M238.681,-78.4259C280.755,-71.2773 338.355,-59.4244 387,-42 392.151,-40.1549 397.485,-37.7684 402.494,-35.2903"/>
<polygon fill="midnightblue" stroke="midnightblue" points="404.352,-38.2682 411.589,-30.53 401.106,-32.0663 404.352,-38.2682"/>
</g>
</g>
</svg>
