<?xml version="1.0" encoding="UTF-8" standalone="no"?>
<!DOCTYPE svg PUBLIC "-//W3C//DTD SVG 1.1//EN"
 "http://www.w3.org/Graphics/SVG/1.1/DTD/svg11.dtd">
<!-- Generated by graphviz version 2.38.0 (20140413.2041)
 -->
<!-- Title: /home/lucamuratore/src/ros_end_effector__ws/src/ROSEndEffector/src/Parser.cpp Pages: 1 -->
<svg width="752pt" height="229pt"
 viewBox="0.00 0.00 751.81 229.00" xmlns="http://www.w3.org/2000/svg" xmlns:xlink="http://www.w3.org/1999/xlink">
<g id="graph0" class="graph" transform="scale(1 1) rotate(0) translate(4 225)">
<title>/home/lucamuratore/src/ros_end_effector__ws/src/ROSEndEffector/src/Parser.cpp</title>
<!-- Node1 -->
<g id="node1" class="node"><title>Node1</title>
<polygon fill="#bfbfbf" stroke="black" points="351.805,-168.5 351.805,-220.5 484.805,-220.5 484.805,-168.5 351.805,-168.5"/>
<text text-anchor="start" x="359.805" y="-208.5" font-family="Helvetica,sans-Serif" font-size="10.00">/home/lucamuratore</text>
<text text-anchor="start" x="359.805" y="-197.5" font-family="Helvetica,sans-Serif" font-size="10.00">/src/ros_end_effector</text>
<text text-anchor="start" x="359.805" y="-186.5" font-family="Helvetica,sans-Serif" font-size="10.00">__ws/src/ROSEndEffector</text>
<text text-anchor="middle" x="418.305" y="-175.5" font-family="Helvetica,sans-Serif" font-size="10.00">/src/Parser.cpp</text>
</g>
<!-- Node2 -->
<g id="node2" class="node"><title>Node2</title>
<g id="a_node2"><a xlink:href="Parser_8h.html" target="_top" xlink:title="ROSEndEffector/Parser.h">
<polygon fill="none" stroke="black" points="191.305,-112.5 191.305,-131.5 321.305,-131.5 321.305,-112.5 191.305,-112.5"/>
<text text-anchor="middle" x="256.305" y="-119.5" font-family="Helvetica,sans-Serif" font-size="10.00">ROSEndEffector/Parser.h</text>
</a>
</g>
</g>
<!-- Node1&#45;&gt;Node2 -->
<g id="edge1" class="edge"><title>Node1&#45;&gt;Node2</title>
<path fill="none" stroke="midnightblue" d="M360.734,-168.446C335.14,-157.308 306.131,-144.683 285.194,-135.572"/>
<polygon fill="midnightblue" stroke="midnightblue" points="286.465,-132.308 275.899,-131.527 283.672,-138.727 286.465,-132.308"/>
</g>
<!-- Node12 -->
<g id="node12" class="node"><title>Node12</title>
<polygon fill="none" stroke="#bfbfbf" points="339.805,-112.5 339.805,-131.5 414.805,-131.5 414.805,-112.5 339.805,-112.5"/>
<text text-anchor="middle" x="377.305" y="-119.5" font-family="Helvetica,sans-Serif" font-size="10.00">ros/console.h</text>
</g>
<!-- Node1&#45;&gt;Node12 -->
<g id="edge12" class="edge"><title>Node1&#45;&gt;Node12</title>
<path fill="none" stroke="midnightblue" d="M403.735,-168.446C398.375,-159.229 392.423,-148.995 387.527,-140.576"/>
<polygon fill="midnightblue" stroke="midnightblue" points="390.415,-138.58 382.362,-131.695 384.364,-142.1 390.415,-138.58"/>
</g>
<!-- Node13 -->
<g id="node13" class="node"><title>Node13</title>
<polygon fill="none" stroke="#bfbfbf" points="433.305,-112.5 433.305,-131.5 487.305,-131.5 487.305,-112.5 433.305,-112.5"/>
<text text-anchor="middle" x="460.305" y="-119.5" font-family="Helvetica,sans-Serif" font-size="10.00">iostream</text>
</g>
<!-- Node1&#45;&gt;Node13 -->
<g id="edge13" class="edge"><title>Node1&#45;&gt;Node13</title>
<path fill="none" stroke="midnightblue" d="M433.231,-168.446C438.782,-159.129 444.951,-148.772 449.998,-140.302"/>
<polygon fill="midnightblue" stroke="midnightblue" points="453.014,-142.078 455.125,-131.695 447,-138.495 453.014,-142.078"/>
</g>
<!-- Node14 -->
<g id="node14" class="node"><title>Node14</title>
<polygon fill="none" stroke="#bfbfbf" points="505.305,-112.5 505.305,-131.5 555.305,-131.5 555.305,-112.5 505.305,-112.5"/>
<text text-anchor="middle" x="530.305" y="-119.5" font-family="Helvetica,sans-Serif" font-size="10.00">fstream</text>
</g>
<!-- Node1&#45;&gt;Node14 -->
<g id="edge14" class="edge"><title>Node1&#45;&gt;Node14</title>
<path fill="none" stroke="midnightblue" d="M458.108,-168.446C474.922,-157.862 493.868,-145.936 508.131,-136.958"/>
<polygon fill="midnightblue" stroke="midnightblue" points="510.16,-139.816 516.759,-131.527 506.431,-133.892 510.16,-139.816"/>
</g>
<!-- Node3 -->
<g id="node3" class="node"><title>Node3</title>
<polygon fill="none" stroke="#bfbfbf" points="254.305,-0.5 254.305,-19.5 306.305,-19.5 306.305,-0.5 254.305,-0.5"/>
<text text-anchor="middle" x="280.305" y="-7.5" font-family="Helvetica,sans-Serif" font-size="10.00">memory</text>
</g>
<!-- Node2&#45;&gt;Node3 -->
<g id="edge2" class="edge"><title>Node2&#45;&gt;Node3</title>
<path fill="none" stroke="midnightblue" d="M191.124,-118.568C124.541,-114.551 27.6997,-103.942 4.30532,-76 -1.40094,-69.1845 -1.45219,-62.7723 4.30532,-56 34.6772,-20.2752 176.356,-12.8421 244.075,-11.3455"/>
<polygon fill="midnightblue" stroke="midnightblue" points="244.348,-14.8411 254.28,-11.1529 244.216,-7.84233 244.348,-14.8411"/>
</g>
<!-- Node4 -->
<g id="node4" class="node"><title>Node4</title>
<polygon fill="none" stroke="#bfbfbf" points="13.8053,-56.5 13.8053,-75.5 68.8053,-75.5 68.8053,-56.5 13.8053,-56.5"/>
<text text-anchor="middle" x="41.3053" y="-63.5" font-family="Helvetica,sans-Serif" font-size="10.00">ros/ros.h</text>
</g>
<!-- Node2&#45;&gt;Node4 -->
<g id="edge3" class="edge"><title>Node2&#45;&gt;Node4</title>
<path fill="none" stroke="midnightblue" d="M222.238,-112.444C183.16,-102.629 119.283,-86.5852 78.815,-76.421"/>
<polygon fill="midnightblue" stroke="midnightblue" points="79.6115,-73.0125 69.0601,-73.971 77.9063,-79.8016 79.6115,-73.0125"/>
</g>
<!-- Node5 -->
<g id="node5" class="node"><title>Node5</title>
<polygon fill="none" stroke="#bfbfbf" points="86.8053,-56.5 86.8053,-75.5 175.805,-75.5 175.805,-56.5 86.8053,-56.5"/>
<text text-anchor="middle" x="131.305" y="-63.5" font-family="Helvetica,sans-Serif" font-size="10.00">yaml&#45;cpp/yaml.h</text>
</g>
<!-- Node2&#45;&gt;Node5 -->
<g id="edge4" class="edge"><title>Node2&#45;&gt;Node5</title>
<path fill="none" stroke="midnightblue" d="M236.499,-112.444C216.018,-103.596 183.823,-89.6875 160.441,-79.5865"/>
<polygon fill="midnightblue" stroke="midnightblue" points="161.587,-76.2692 151.019,-75.5164 158.811,-82.6953 161.587,-76.2692"/>
</g>
<!-- Node6 -->
<g id="node6" class="node"><title>Node6</title>
<polygon fill="none" stroke="#bfbfbf" points="193.805,-56.5 193.805,-75.5 318.805,-75.5 318.805,-56.5 193.805,-56.5"/>
<text text-anchor="middle" x="256.305" y="-63.5" font-family="Helvetica,sans-Serif" font-size="10.00">urdf_parser/urdf_parser.h</text>
</g>
<!-- Node2&#45;&gt;Node6 -->
<g id="edge5" class="edge"><title>Node2&#45;&gt;Node6</title>
<path fill="none" stroke="midnightblue" d="M256.305,-112.083C256.305,-105.006 256.305,-94.8611 256.305,-85.9865"/>
<polygon fill="midnightblue" stroke="midnightblue" points="259.805,-85.751 256.305,-75.7511 252.805,-85.7511 259.805,-85.751"/>
</g>
<!-- Node7 -->
<g id="node7" class="node"><title>Node7</title>
<polygon fill="none" stroke="#bfbfbf" points="337.305,-56.5 337.305,-75.5 465.305,-75.5 465.305,-56.5 337.305,-56.5"/>
<text text-anchor="middle" x="401.305" y="-63.5" font-family="Helvetica,sans-Serif" font-size="10.00">kdl_parser/kdl_parser.hpp</text>
</g>
<!-- Node2&#45;&gt;Node7 -->
<g id="edge6" class="edge"><title>Node2&#45;&gt;Node7</title>
<path fill="none" stroke="midnightblue" d="M279.281,-112.444C303.462,-103.438 341.723,-89.1891 368.951,-79.049"/>
<polygon fill="midnightblue" stroke="midnightblue" points="370.287,-82.2864 378.437,-75.5164 367.844,-75.7265 370.287,-82.2864"/>
</g>
<!-- Node8 -->
<g id="node8" class="node"><title>Node8</title>
<polygon fill="none" stroke="#bfbfbf" points="483.805,-56.5 483.805,-75.5 572.805,-75.5 572.805,-56.5 483.805,-56.5"/>
<text text-anchor="middle" x="528.305" y="-63.5" font-family="Helvetica,sans-Serif" font-size="10.00">srdfdom/model.h</text>
</g>
<!-- Node2&#45;&gt;Node8 -->
<g id="edge7" class="edge"><title>Node2&#45;&gt;Node8</title>
<path fill="none" stroke="midnightblue" d="M299.405,-112.444C347.153,-102.964 424.166,-87.6747 475.5,-77.4835"/>
<polygon fill="midnightblue" stroke="midnightblue" points="476.281,-80.8968 485.408,-75.5164 474.918,-74.0308 476.281,-80.8968"/>
</g>
<!-- Node9 -->
<g id="node9" class="node"><title>Node9</title>
<g id="a_node9"><a xlink:href="EEInterface_8h.html" target="_top" xlink:title="ROSEndEffector/EEInterface.h">
<polygon fill="none" stroke="black" points="590.805,-56.5 590.805,-75.5 743.805,-75.5 743.805,-56.5 590.805,-56.5"/>
<text text-anchor="middle" x="667.305" y="-63.5" font-family="Helvetica,sans-Serif" font-size="10.00">ROSEndEffector/EEInterface.h</text>
</a>
</g>
</g>
<!-- Node2&#45;&gt;Node9 -->
<g id="edge8" class="edge"><title>Node2&#45;&gt;Node9</title>
<path fill="none" stroke="midnightblue" d="M321.429,-112.444C395.081,-102.767 514.816,-87.0351 592.311,-76.8533"/>
<polygon fill="midnightblue" stroke="midnightblue" points="593.027,-80.2894 602.486,-75.5164 592.115,-73.349 593.027,-80.2894"/>
</g>
<!-- Node9&#45;&gt;Node3 -->
<g id="edge11" class="edge"><title>Node9&#45;&gt;Node3</title>
<path fill="none" stroke="midnightblue" d="M605.984,-56.4435C524.454,-45.0672 382.953,-25.3229 316.606,-16.0652"/>
<polygon fill="midnightblue" stroke="midnightblue" points="317.011,-12.588 306.624,-14.6723 316.044,-19.5208 317.011,-12.588"/>
</g>
<!-- Node10 -->
<g id="node10" class="node"><title>Node10</title>
<polygon fill="none" stroke="#bfbfbf" points="620.805,-0.5 620.805,-19.5 655.805,-19.5 655.805,-0.5 620.805,-0.5"/>
<text text-anchor="middle" x="638.305" y="-7.5" font-family="Helvetica,sans-Serif" font-size="10.00">map</text>
</g>
<!-- Node9&#45;&gt;Node10 -->
<g id="edge9" class="edge"><title>Node9&#45;&gt;Node10</title>
<path fill="none" stroke="midnightblue" d="M662.517,-56.083C658.547,-48.6913 652.78,-37.9533 647.871,-28.8111"/>
<polygon fill="midnightblue" stroke="midnightblue" points="650.82,-26.9051 643.005,-19.7511 644.653,-30.217 650.82,-26.9051"/>
</g>
<!-- Node11 -->
<g id="node11" class="node"><title>Node11</title>
<polygon fill="none" stroke="#bfbfbf" points="674.305,-0.5 674.305,-19.5 718.305,-19.5 718.305,-0.5 674.305,-0.5"/>
<text text-anchor="middle" x="696.305" y="-7.5" font-family="Helvetica,sans-Serif" font-size="10.00">vector</text>
</g>
<!-- Node9&#45;&gt;Node11 -->
<g id="edge10" class="edge"><title>Node9&#45;&gt;Node11</title>
<path fill="none" stroke="midnightblue" d="M672.094,-56.083C676.064,-48.6913 681.83,-37.9533 686.74,-28.8111"/>
<polygon fill="midnightblue" stroke="midnightblue" points="689.958,-30.217 691.606,-19.7511 683.791,-26.9051 689.958,-30.217"/>
</g>
</g>
</svg>
