<?xml version="1.0" encoding="UTF-8" standalone="no"?>
<!DOCTYPE svg PUBLIC "-//W3C//DTD SVG 1.1//EN"
 "http://www.w3.org/Graphics/SVG/1.1/DTD/svg11.dtd">
<!-- Generated by graphviz version 2.38.0 (20140413.2041)
 -->
<!-- Title: /home/lucamuratore/src/ros_end_effector__ws/src/ROSEndEffector/include/ROSEndEffector/Parser.h Pages: 1 -->
<svg width="759pt" height="184pt"
 viewBox="0.00 0.00 759.33 184.00" xmlns="http://www.w3.org/2000/svg" xmlns:xlink="http://www.w3.org/1999/xlink">
<g id="graph0" class="graph" transform="scale(1 1) rotate(0) translate(4 180)">
<title>/home/lucamuratore/src/ros_end_effector__ws/src/ROSEndEffector/include/ROSEndEffector/Parser.h</title>
<!-- Node1 -->
<g id="node1" class="node"><title>Node1</title>
<polygon fill="#bfbfbf" stroke="black" points="197.33,-112.5 197.33,-175.5 330.33,-175.5 330.33,-112.5 197.33,-112.5"/>
<text text-anchor="start" x="205.33" y="-163.5" font-family="Helvetica,sans-Serif" font-size="10.00">/home/lucamuratore</text>
<text text-anchor="start" x="205.33" y="-152.5" font-family="Helvetica,sans-Serif" font-size="10.00">/src/ros_end_effector</text>
<text text-anchor="start" x="205.33" y="-141.5" font-family="Helvetica,sans-Serif" font-size="10.00">__ws/src/ROSEndEffector</text>
<text text-anchor="start" x="205.33" y="-130.5" font-family="Helvetica,sans-Serif" font-size="10.00">/include/ROSEndEffector</text>
<text text-anchor="middle" x="263.83" y="-119.5" font-family="Helvetica,sans-Serif" font-size="10.00">/Parser.h</text>
</g>
<!-- Node2 -->
<g id="node2" class="node"><title>Node2</title>
<polygon fill="none" stroke="#bfbfbf" points="261.83,-0.5 261.83,-19.5 313.83,-19.5 313.83,-0.5 261.83,-0.5"/>
<text text-anchor="middle" x="287.83" y="-7.5" font-family="Helvetica,sans-Serif" font-size="10.00">memory</text>
</g>
<!-- Node1&#45;&gt;Node2 -->
<g id="edge1" class="edge"><title>Node1&#45;&gt;Node2</title>
<path fill="none" stroke="midnightblue" d="M197.263,-141.389C105.599,-136.841 -42.357,-119.737 11.83,-56 42.2019,-20.2752 183.881,-12.8421 251.6,-11.3455"/>
<polygon fill="midnightblue" stroke="midnightblue" points="251.873,-14.8411 261.805,-11.1529 251.741,-7.84233 251.873,-14.8411"/>
</g>
<!-- Node3 -->
<g id="node3" class="node"><title>Node3</title>
<polygon fill="none" stroke="#bfbfbf" points="21.33,-56.5 21.33,-75.5 76.33,-75.5 76.33,-56.5 21.33,-56.5"/>
<text text-anchor="middle" x="48.83" y="-63.5" font-family="Helvetica,sans-Serif" font-size="10.00">ros/ros.h</text>
</g>
<!-- Node1&#45;&gt;Node3 -->
<g id="edge2" class="edge"><title>Node1&#45;&gt;Node3</title>
<path fill="none" stroke="midnightblue" d="M197.275,-119.474C159.381,-106.078 113.506,-89.8624 82.8778,-79.0355"/>
<polygon fill="midnightblue" stroke="midnightblue" points="83.7034,-75.6152 73.1087,-75.5822 81.3704,-82.215 83.7034,-75.6152"/>
</g>
<!-- Node4 -->
<g id="node4" class="node"><title>Node4</title>
<polygon fill="none" stroke="#bfbfbf" points="94.33,-56.5 94.33,-75.5 183.33,-75.5 183.33,-56.5 94.33,-56.5"/>
<text text-anchor="middle" x="138.83" y="-63.5" font-family="Helvetica,sans-Serif" font-size="10.00">yaml&#45;cpp/yaml.h</text>
</g>
<!-- Node1&#45;&gt;Node4 -->
<g id="edge3" class="edge"><title>Node1&#45;&gt;Node4</title>
<path fill="none" stroke="midnightblue" d="M213.348,-112.307C195.45,-101.425 176.186,-89.7127 161.729,-80.9228"/>
<polygon fill="midnightblue" stroke="midnightblue" points="163.349,-77.8113 152.986,-75.6067 159.712,-83.7925 163.349,-77.8113"/>
</g>
<!-- Node5 -->
<g id="node5" class="node"><title>Node5</title>
<polygon fill="none" stroke="#bfbfbf" points="201.33,-56.5 201.33,-75.5 326.33,-75.5 326.33,-56.5 201.33,-56.5"/>
<text text-anchor="middle" x="263.83" y="-63.5" font-family="Helvetica,sans-Serif" font-size="10.00">urdf_parser/urdf_parser.h</text>
</g>
<!-- Node1&#45;&gt;Node5 -->
<g id="edge4" class="edge"><title>Node1&#45;&gt;Node5</title>
<path fill="none" stroke="midnightblue" d="M263.83,-112.088C263.83,-103.15 263.83,-93.6688 263.83,-85.7195"/>
<polygon fill="midnightblue" stroke="midnightblue" points="267.33,-85.7181 263.83,-75.7182 260.33,-85.7182 267.33,-85.7181"/>
</g>
<!-- Node6 -->
<g id="node6" class="node"><title>Node6</title>
<polygon fill="none" stroke="#bfbfbf" points="344.83,-56.5 344.83,-75.5 472.83,-75.5 472.83,-56.5 344.83,-56.5"/>
<text text-anchor="middle" x="408.83" y="-63.5" font-family="Helvetica,sans-Serif" font-size="10.00">kdl_parser/kdl_parser.hpp</text>
</g>
<!-- Node1&#45;&gt;Node6 -->
<g id="edge5" class="edge"><title>Node1&#45;&gt;Node6</title>
<path fill="none" stroke="midnightblue" d="M322.389,-112.307C343.546,-101.218 366.348,-89.2662 383.219,-80.4237"/>
<polygon fill="midnightblue" stroke="midnightblue" points="385.177,-83.3491 392.409,-75.6067 381.927,-77.1491 385.177,-83.3491"/>
</g>
<!-- Node7 -->
<g id="node7" class="node"><title>Node7</title>
<polygon fill="none" stroke="#bfbfbf" points="491.33,-56.5 491.33,-75.5 580.33,-75.5 580.33,-56.5 491.33,-56.5"/>
<text text-anchor="middle" x="535.83" y="-63.5" font-family="Helvetica,sans-Serif" font-size="10.00">srdfdom/model.h</text>
</g>
<!-- Node1&#45;&gt;Node7 -->
<g id="edge6" class="edge"><title>Node1&#45;&gt;Node7</title>
<path fill="none" stroke="midnightblue" d="M330.369,-124.408C382.021,-109.976 451.946,-90.4382 495.45,-78.2828"/>
<polygon fill="midnightblue" stroke="midnightblue" points="496.424,-81.6445 505.114,-75.5825 494.541,-74.9027 496.424,-81.6445"/>
</g>
<!-- Node8 -->
<g id="node8" class="node"><title>Node8</title>
<g id="a_node8"><a xlink:href="EEInterface_8h.html" target="_top" xlink:title="ROSEndEffector/EEInterface.h">
<polygon fill="none" stroke="black" points="598.33,-56.5 598.33,-75.5 751.33,-75.5 751.33,-56.5 598.33,-56.5"/>
<text text-anchor="middle" x="674.83" y="-63.5" font-family="Helvetica,sans-Serif" font-size="10.00">ROSEndEffector/EEInterface.h</text>
</a>
</g>
</g>
<!-- Node1&#45;&gt;Node8 -->
<g id="edge7" class="edge"><title>Node1&#45;&gt;Node8</title>
<path fill="none" stroke="midnightblue" d="M330.779,-130.62C410.834,-115.817 543.399,-91.3036 618.456,-77.4244"/>
<polygon fill="midnightblue" stroke="midnightblue" points="619.457,-80.7987 628.654,-75.5387 618.184,-73.9154 619.457,-80.7987"/>
</g>
<!-- Node8&#45;&gt;Node2 -->
<g id="edge10" class="edge"><title>Node8&#45;&gt;Node2</title>
<path fill="none" stroke="midnightblue" d="M613.509,-56.4435C531.978,-45.0672 390.478,-25.3229 324.131,-16.0652"/>
<polygon fill="midnightblue" stroke="midnightblue" points="324.536,-12.588 314.148,-14.6723 323.569,-19.5208 324.536,-12.588"/>
</g>
<!-- Node9 -->
<g id="node9" class="node"><title>Node9</title>
<polygon fill="none" stroke="#bfbfbf" points="628.33,-0.5 628.33,-19.5 663.33,-19.5 663.33,-0.5 628.33,-0.5"/>
<text text-anchor="middle" x="645.83" y="-7.5" font-family="Helvetica,sans-Serif" font-size="10.00">map</text>
</g>
<!-- Node8&#45;&gt;Node9 -->
<g id="edge8" class="edge"><title>Node8&#45;&gt;Node9</title>
<path fill="none" stroke="midnightblue" d="M670.041,-56.083C666.072,-48.6913 660.305,-37.9533 655.395,-28.8111"/>
<polygon fill="midnightblue" stroke="midnightblue" points="658.344,-26.9051 650.53,-19.7511 652.177,-30.217 658.344,-26.9051"/>
</g>
<!-- Node10 -->
<g id="node10" class="node"><title>Node10</title>
<polygon fill="none" stroke="#bfbfbf" points="681.83,-0.5 681.83,-19.5 725.83,-19.5 725.83,-0.5 681.83,-0.5"/>
<text text-anchor="middle" x="703.83" y="-7.5" font-family="Helvetica,sans-Serif" font-size="10.00">vector</text>
</g>
<!-- Node8&#45;&gt;Node10 -->
<g id="edge9" class="edge"><title>Node8&#45;&gt;Node10</title>
<path fill="none" stroke="midnightblue" d="M679.619,-56.083C683.588,-48.6913 689.355,-37.9533 694.265,-28.8111"/>
<polygon fill="midnightblue" stroke="midnightblue" points="697.483,-30.217 699.13,-19.7511 691.316,-26.9051 697.483,-30.217"/>
</g>
</g>
</svg>
