<?xml version="1.0" encoding="UTF-8" standalone="no"?>
<!DOCTYPE svg PUBLIC "-//W3C//DTD SVG 1.1//EN"
 "http://www.w3.org/Graphics/SVG/1.1/DTD/svg11.dtd">
<!-- Generated by graphviz version 2.38.0 (20140413.2041)
 -->
<!-- Title: /home/travis/build/ADVRHumanoids/ROSEndEffector/src/Parser.cpp Pages: 1 -->
<svg width="1193pt" height="218pt"
 viewBox="0.00 0.00 1193.00 218.00" xmlns="http://www.w3.org/2000/svg" xmlns:xlink="http://www.w3.org/1999/xlink">
<g id="graph0" class="graph" transform="scale(1 1) rotate(0) translate(4 214)">
<title>/home/travis/build/ADVRHumanoids/ROSEndEffector/src/Parser.cpp</title>
<!-- Node1 -->
<g id="node1" class="node"><title>Node1</title>
<polygon fill="#bfbfbf" stroke="black" points="352,-168.5 352,-209.5 531,-209.5 531,-168.5 352,-168.5"/>
<text text-anchor="start" x="360" y="-197.5" font-family="Helvetica,sans-Serif" font-size="10.00">/home/travis/build</text>
<text text-anchor="start" x="360" y="-186.5" font-family="Helvetica,sans-Serif" font-size="10.00">/ADVRHumanoids/ROSEndEffector</text>
<text text-anchor="middle" x="441.5" y="-175.5" font-family="Helvetica,sans-Serif" font-size="10.00">/src/Parser.cpp</text>
</g>
<!-- Node2 -->
<g id="node2" class="node"><title>Node2</title>
<g id="a_node2"><a xlink:href="Parser_8h.html" target="_top" xlink:title="end_effector/Parser.h">
<polygon fill="none" stroke="black" points="382,-112.5 382,-131.5 501,-131.5 501,-112.5 382,-112.5"/>
<text text-anchor="middle" x="441.5" y="-119.5" font-family="Helvetica,sans-Serif" font-size="10.00">end_effector/Parser.h</text>
</a>
</g>
</g>
<!-- Node1&#45;&gt;Node2 -->
<g id="edge1" class="edge"><title>Node1&#45;&gt;Node2</title>
<path fill="none" stroke="midnightblue" d="M441.5,-168.498C441.5,-160.065 441.5,-150.235 441.5,-141.874"/>
<polygon fill="midnightblue" stroke="midnightblue" points="445,-141.652 441.5,-131.652 438,-141.653 445,-141.652"/>
</g>
<!-- Node3 -->
<g id="node3" class="node"><title>Node3</title>
<polygon fill="none" stroke="#bfbfbf" points="0,-0.5 0,-19.5 59,-19.5 59,-0.5 0,-0.5"/>
<text text-anchor="middle" x="29.5" y="-7.5" font-family="Helvetica,sans-Serif" font-size="10.00">iostream</text>
</g>
<!-- Node2&#45;&gt;Node3 -->
<g id="edge2" class="edge"><title>Node2&#45;&gt;Node3</title>
<path fill="none" stroke="midnightblue" d="M381.787,-118.529C320.29,-114.495 222.422,-103.885 142.5,-76 107.535,-63.8009 71.1032,-40.642 49.3636,-25.5171"/>
<polygon fill="midnightblue" stroke="midnightblue" points="51.1752,-22.5111 40.9932,-19.5822 47.1264,-28.2214 51.1752,-22.5111"/>
</g>
<!-- Node4 -->
<g id="node4" class="node"><title>Node4</title>
<polygon fill="none" stroke="#bfbfbf" points="77.5,-0.5 77.5,-19.5 131.5,-19.5 131.5,-0.5 77.5,-0.5"/>
<text text-anchor="middle" x="104.5" y="-7.5" font-family="Helvetica,sans-Serif" font-size="10.00">fstream</text>
</g>
<!-- Node2&#45;&gt;Node4 -->
<g id="edge3" class="edge"><title>Node2&#45;&gt;Node4</title>
<path fill="none" stroke="midnightblue" d="M381.754,-120.786C325.335,-118.378 239.735,-108.895 173.5,-76 150.582,-64.618 130.05,-43.0843 117.459,-27.9291"/>
<polygon fill="midnightblue" stroke="midnightblue" points="119.988,-25.4872 111.006,-19.8679 114.523,-29.8619 119.988,-25.4872"/>
</g>
<!-- Node5 -->
<g id="node5" class="node"><title>Node5</title>
<polygon fill="none" stroke="#bfbfbf" points="150,-0.5 150,-19.5 207,-19.5 207,-0.5 150,-0.5"/>
<text text-anchor="middle" x="178.5" y="-7.5" font-family="Helvetica,sans-Serif" font-size="10.00">memory</text>
</g>
<!-- Node2&#45;&gt;Node5 -->
<g id="edge4" class="edge"><title>Node2&#45;&gt;Node5</title>
<path fill="none" stroke="midnightblue" d="M381.929,-118.469C315.101,-114.307 212.612,-103.512 186.5,-76 175.136,-64.0266 174.089,-44.7274 175.311,-30.263"/>
<polygon fill="midnightblue" stroke="midnightblue" points="178.836,-30.2933 176.625,-19.9318 171.892,-29.4105 178.836,-30.2933"/>
</g>
<!-- Node6 -->
<g id="node6" class="node"><title>Node6</title>
<polygon fill="none" stroke="#bfbfbf" points="324,-56.5 324,-75.5 383,-75.5 383,-56.5 324,-56.5"/>
<text text-anchor="middle" x="353.5" y="-63.5" font-family="Helvetica,sans-Serif" font-size="10.00">ros/ros.h</text>
</g>
<!-- Node2&#45;&gt;Node6 -->
<g id="edge5" class="edge"><title>Node2&#45;&gt;Node6</title>
<path fill="none" stroke="midnightblue" d="M427.361,-112.324C413.634,-103.9 392.564,-90.9709 376.436,-81.0741"/>
<polygon fill="midnightblue" stroke="midnightblue" points="377.957,-77.9016 367.604,-75.6545 374.296,-83.8678 377.957,-77.9016"/>
</g>
<!-- Node7 -->
<g id="node7" class="node"><title>Node7</title>
<polygon fill="none" stroke="#bfbfbf" points="401.5,-56.5 401.5,-75.5 481.5,-75.5 481.5,-56.5 401.5,-56.5"/>
<text text-anchor="middle" x="441.5" y="-63.5" font-family="Helvetica,sans-Serif" font-size="10.00">ros/console.h</text>
</g>
<!-- Node2&#45;&gt;Node7 -->
<g id="edge6" class="edge"><title>Node2&#45;&gt;Node7</title>
<path fill="none" stroke="midnightblue" d="M441.5,-112.083C441.5,-105.006 441.5,-94.8611 441.5,-85.9865"/>
<polygon fill="midnightblue" stroke="midnightblue" points="445,-85.751 441.5,-75.7511 438,-85.7511 445,-85.751"/>
</g>
<!-- Node8 -->
<g id="node8" class="node"><title>Node8</title>
<g id="a_node8"><a xlink:href="Utils_8h.html" target="_top" xlink:title="end_effector/Utils.h">
<polygon fill="none" stroke="black" points="195.5,-56.5 195.5,-75.5 305.5,-75.5 305.5,-56.5 195.5,-56.5"/>
<text text-anchor="middle" x="250.5" y="-63.5" font-family="Helvetica,sans-Serif" font-size="10.00">end_effector/Utils.h</text>
</a>
</g>
</g>
<!-- Node2&#45;&gt;Node8 -->
<g id="edge7" class="edge"><title>Node2&#45;&gt;Node8</title>
<path fill="none" stroke="midnightblue" d="M411.235,-112.444C378.545,-103.201 326.318,-88.4356 290.317,-78.2572"/>
<polygon fill="midnightblue" stroke="midnightblue" points="291.198,-74.8691 280.623,-75.5164 289.294,-81.6051 291.198,-74.8691"/>
</g>
<!-- Node14 -->
<g id="node14" class="node"><title>Node14</title>
<polygon fill="none" stroke="#bfbfbf" points="499.5,-56.5 499.5,-75.5 595.5,-75.5 595.5,-56.5 499.5,-56.5"/>
<text text-anchor="middle" x="547.5" y="-63.5" font-family="Helvetica,sans-Serif" font-size="10.00">yaml&#45;cpp/yaml.h</text>
</g>
<!-- Node2&#45;&gt;Node14 -->
<g id="edge16" class="edge"><title>Node2&#45;&gt;Node14</title>
<path fill="none" stroke="midnightblue" d="M458.531,-112.324C475.53,-103.664 501.876,-90.2424 521.493,-80.249"/>
<polygon fill="midnightblue" stroke="midnightblue" points="523.19,-83.3125 530.512,-75.6545 520.012,-77.0752 523.19,-83.3125"/>
</g>
<!-- Node15 -->
<g id="node15" class="node"><title>Node15</title>
<polygon fill="none" stroke="#bfbfbf" points="613.5,-56.5 613.5,-75.5 751.5,-75.5 751.5,-56.5 613.5,-56.5"/>
<text text-anchor="middle" x="682.5" y="-63.5" font-family="Helvetica,sans-Serif" font-size="10.00">urdf_parser/urdf_parser.h</text>
</g>
<!-- Node2&#45;&gt;Node15 -->
<g id="edge17" class="edge"><title>Node2&#45;&gt;Node15</title>
<path fill="none" stroke="midnightblue" d="M479.687,-112.444C521.641,-103.043 589.094,-87.9291 634.571,-77.7393"/>
<polygon fill="midnightblue" stroke="midnightblue" points="635.499,-81.1183 644.491,-75.5164 633.968,-74.2876 635.499,-81.1183"/>
</g>
<!-- Node16 -->
<g id="node16" class="node"><title>Node16</title>
<polygon fill="none" stroke="#bfbfbf" points="769.5,-56.5 769.5,-75.5 909.5,-75.5 909.5,-56.5 769.5,-56.5"/>
<text text-anchor="middle" x="839.5" y="-63.5" font-family="Helvetica,sans-Serif" font-size="10.00">kdl_parser/kdl_parser.hpp</text>
</g>
<!-- Node2&#45;&gt;Node16 -->
<g id="edge18" class="edge"><title>Node2&#45;&gt;Node16</title>
<path fill="none" stroke="midnightblue" d="M501.085,-112.916C571.958,-103.3 690.243,-87.2509 766.533,-76.9001"/>
<polygon fill="midnightblue" stroke="midnightblue" points="767.108,-80.3542 776.546,-75.5414 766.167,-73.4178 767.108,-80.3542"/>
</g>
<!-- Node17 -->
<g id="node17" class="node"><title>Node17</title>
<polygon fill="none" stroke="#bfbfbf" points="927.5,-56.5 927.5,-75.5 1025.5,-75.5 1025.5,-56.5 927.5,-56.5"/>
<text text-anchor="middle" x="976.5" y="-63.5" font-family="Helvetica,sans-Serif" font-size="10.00">srdfdom/model.h</text>
</g>
<!-- Node2&#45;&gt;Node17 -->
<g id="edge19" class="edge"><title>Node2&#45;&gt;Node17</title>
<path fill="none" stroke="midnightblue" d="M501.116,-116.529C589.593,-109.639 761.115,-95.306 917.222,-76.0903"/>
<polygon fill="midnightblue" stroke="midnightblue" points="917.988,-79.5222 927.481,-74.8175 917.126,-72.5754 917.988,-79.5222"/>
</g>
<!-- Node18 -->
<g id="node18" class="node"><title>Node18</title>
<polygon fill="none" stroke="#bfbfbf" points="1044,-56.5 1044,-75.5 1185,-75.5 1185,-56.5 1044,-56.5"/>
<text text-anchor="middle" x="1114.5" y="-63.5" font-family="Helvetica,sans-Serif" font-size="10.00">boost/filesystem/path.hpp</text>
</g>
<!-- Node2&#45;&gt;Node18 -->
<g id="edge20" class="edge"><title>Node2&#45;&gt;Node18</title>
<path fill="none" stroke="midnightblue" d="M501.322,-117.181C606.59,-110.303 832.061,-94.8656 1033.66,-76.0455"/>
<polygon fill="midnightblue" stroke="midnightblue" points="1034.21,-79.5085 1043.84,-75.0895 1033.56,-72.5391 1034.21,-79.5085"/>
</g>
<!-- Node8&#45;&gt;Node3 -->
<g id="edge10" class="edge"><title>Node8&#45;&gt;Node3</title>
<path fill="none" stroke="midnightblue" d="M215.482,-56.4435C175.566,-46.6903 110.478,-30.7864 68.8429,-20.6132"/>
<polygon fill="midnightblue" stroke="midnightblue" points="69.5948,-17.194 59.0498,-18.2203 67.9332,-23.994 69.5948,-17.194"/>
</g>
<!-- Node8&#45;&gt;Node4 -->
<g id="edge13" class="edge"><title>Node8&#45;&gt;Node4</title>
<path fill="none" stroke="midnightblue" d="M227.366,-56.4435C203.018,-47.4381 164.493,-33.1891 137.077,-23.049"/>
<polygon fill="midnightblue" stroke="midnightblue" points="138.119,-19.7028 127.526,-19.5164 135.691,-26.2681 138.119,-19.7028"/>
</g>
<!-- Node8&#45;&gt;Node5 -->
<g id="edge9" class="edge"><title>Node8&#45;&gt;Node5</title>
<path fill="none" stroke="midnightblue" d="M238.932,-56.324C228.08,-48.1849 211.619,-35.8395 198.617,-26.0874"/>
<polygon fill="midnightblue" stroke="midnightblue" points="200.379,-23.0339 190.279,-19.8339 196.179,-28.6339 200.379,-23.0339"/>
</g>
<!-- Node9 -->
<g id="node9" class="node"><title>Node9</title>
<polygon fill="none" stroke="#bfbfbf" points="294,-0.5 294,-19.5 341,-19.5 341,-0.5 294,-0.5"/>
<text text-anchor="middle" x="317.5" y="-7.5" font-family="Helvetica,sans-Serif" font-size="10.00">cmath</text>
</g>
<!-- Node8&#45;&gt;Node9 -->
<g id="edge8" class="edge"><title>Node8&#45;&gt;Node9</title>
<path fill="none" stroke="midnightblue" d="M261.265,-56.324C271.266,-48.2631 286.387,-36.0765 298.43,-26.3695"/>
<polygon fill="midnightblue" stroke="midnightblue" points="300.95,-28.8343 306.539,-19.8339 296.557,-23.3841 300.95,-28.8343"/>
</g>
<!-- Node10 -->
<g id="node10" class="node"><title>Node10</title>
<polygon fill="none" stroke="#bfbfbf" points="359.5,-0.5 359.5,-19.5 407.5,-19.5 407.5,-0.5 359.5,-0.5"/>
<text text-anchor="middle" x="383.5" y="-7.5" font-family="Helvetica,sans-Serif" font-size="10.00">dlfcn.h</text>
</g>
<!-- Node8&#45;&gt;Node10 -->
<g id="edge11" class="edge"><title>Node8&#45;&gt;Node10</title>
<path fill="none" stroke="midnightblue" d="M271.574,-56.4435C293.56,-47.5171 328.234,-33.4387 353.164,-23.3168"/>
<polygon fill="midnightblue" stroke="midnightblue" points="354.576,-26.5213 362.524,-19.5164 351.942,-20.0355 354.576,-26.5213"/>
</g>
<!-- Node11 -->
<g id="node11" class="node"><title>Node11</title>
<polygon fill="none" stroke="#bfbfbf" points="425.5,-0.5 425.5,-19.5 541.5,-19.5 541.5,-0.5 425.5,-0.5"/>
<text text-anchor="middle" x="483.5" y="-7.5" font-family="Helvetica,sans-Serif" font-size="10.00">boost/filesystem.hpp</text>
</g>
<!-- Node8&#45;&gt;Node11 -->
<g id="edge12" class="edge"><title>Node8&#45;&gt;Node11</title>
<path fill="none" stroke="midnightblue" d="M287.42,-56.4435C327.895,-47.0629 392.921,-31.9926 436.884,-21.8036"/>
<polygon fill="midnightblue" stroke="midnightblue" points="437.802,-25.1839 446.753,-19.5164 436.221,-18.3646 437.802,-25.1839"/>
</g>
<!-- Node12 -->
<g id="node12" class="node"><title>Node12</title>
<polygon fill="none" stroke="#bfbfbf" points="559.5,-0.5 559.5,-19.5 609.5,-19.5 609.5,-0.5 559.5,-0.5"/>
<text text-anchor="middle" x="584.5" y="-7.5" font-family="Helvetica,sans-Serif" font-size="10.00">chrono</text>
</g>
<!-- Node8&#45;&gt;Node12 -->
<g id="edge14" class="edge"><title>Node8&#45;&gt;Node12</title>
<path fill="none" stroke="midnightblue" d="M305.657,-57.0618C379.127,-46.441 504.284,-28.1704 549.275,-19.946"/>
<polygon fill="midnightblue" stroke="midnightblue" points="550.173,-23.3371 559.322,-17.9945 548.838,-16.4656 550.173,-23.3371"/>
</g>
<!-- Node13 -->
<g id="node13" class="node"><title>Node13</title>
<polygon fill="none" stroke="#bfbfbf" points="225.5,-0.5 225.5,-19.5 275.5,-19.5 275.5,-0.5 225.5,-0.5"/>
<text text-anchor="middle" x="250.5" y="-7.5" font-family="Helvetica,sans-Serif" font-size="10.00">atomic</text>
</g>
<!-- Node8&#45;&gt;Node13 -->
<g id="edge15" class="edge"><title>Node8&#45;&gt;Node13</title>
<path fill="none" stroke="midnightblue" d="M250.5,-56.083C250.5,-49.0059 250.5,-38.8611 250.5,-29.9865"/>
<polygon fill="midnightblue" stroke="midnightblue" points="254,-29.751 250.5,-19.7511 247,-29.7511 254,-29.751"/>
</g>
</g>
</svg>
