<?xml version="1.0" encoding="UTF-8" standalone="no"?>
<!DOCTYPE svg PUBLIC "-//W3C//DTD SVG 1.1//EN"
 "http://www.w3.org/Graphics/SVG/1.1/DTD/svg11.dtd">
<!-- Generated by graphviz version 2.38.0 (20140413.2041)
 -->
<!-- Title: /home/travis/build/ADVRHumanoids/ROSEndEffector/include/ROSEndEffector/Parser.h Pages: 1 -->
<svg width="913pt" height="451pt"
 viewBox="0.00 0.00 913.00 451.00" xmlns="http://www.w3.org/2000/svg" xmlns:xlink="http://www.w3.org/1999/xlink">
<g id="graph0" class="graph" transform="scale(1 1) rotate(0) translate(4 447)">
<title>/home/travis/build/ADVRHumanoids/ROSEndEffector/include/ROSEndEffector/Parser.h</title>
<!-- Node1 -->
<g id="node1" class="node"><title>Node1</title>
<polygon fill="#bfbfbf" stroke="black" points="608,-401.5 608,-442.5 787,-442.5 787,-401.5 608,-401.5"/>
<text text-anchor="start" x="616" y="-430.5" font-family="Helvetica,sans-Serif" font-size="10.00">/home/travis/build</text>
<text text-anchor="start" x="616" y="-419.5" font-family="Helvetica,sans-Serif" font-size="10.00">/ADVRHumanoids/ROSEndEffector</text>
<text text-anchor="middle" x="697.5" y="-408.5" font-family="Helvetica,sans-Serif" font-size="10.00">/include/ROSEndEffector/Parser.h</text>
</g>
<!-- Node2 -->
<g id="node2" class="node"><title>Node2</title>
<g id="a_node2"><a xlink:href="EEInterface_8h.html" target="_top" xlink:title="/home/travis/build\l/ADVRHumanoids/ROSEndEffector\l/include/ROSEndEffector/EEInterface.h">
<polygon fill="none" stroke="black" points="418,-323.5 418,-364.5 615,-364.5 615,-323.5 418,-323.5"/>
<text text-anchor="start" x="426" y="-352.5" font-family="Helvetica,sans-Serif" font-size="10.00">/home/travis/build</text>
<text text-anchor="start" x="426" y="-341.5" font-family="Helvetica,sans-Serif" font-size="10.00">/ADVRHumanoids/ROSEndEffector</text>
<text text-anchor="middle" x="516.5" y="-330.5" font-family="Helvetica,sans-Serif" font-size="10.00">/include/ROSEndEffector/EEInterface.h</text>
</a>
</g>
</g>
<!-- Node1&#45;&gt;Node2 -->
<g id="edge1" class="edge"><title>Node1&#45;&gt;Node2</title>
<path fill="none" stroke="midnightblue" d="M641.459,-397.469C616.269,-386.892 586.893,-374.557 562.954,-364.506"/>
<polygon fill="midnightblue" stroke="midnightblue" points="640.313,-400.784 650.888,-401.428 643.023,-394.33 640.313,-400.784"/>
</g>
<!-- Node5 -->
<g id="node5" class="node"><title>Node5</title>
<g id="a_node5"><a xlink:href="UniversalRosEndEffectorExecutor_8h.html" target="_top" xlink:title="/home/travis/build\l/ADVRHumanoids/ROSEndEffector\l/include/ROSEndEffector/UniversalRos\lEndEffectorExecutor.h">
<polygon fill="none" stroke="black" points="284.5,-78.5 284.5,-130.5 480.5,-130.5 480.5,-78.5 284.5,-78.5"/>
<text text-anchor="start" x="292.5" y="-118.5" font-family="Helvetica,sans-Serif" font-size="10.00">/home/travis/build</text>
<text text-anchor="start" x="292.5" y="-107.5" font-family="Helvetica,sans-Serif" font-size="10.00">/ADVRHumanoids/ROSEndEffector</text>
<text text-anchor="start" x="292.5" y="-96.5" font-family="Helvetica,sans-Serif" font-size="10.00">/include/ROSEndEffector/UniversalRos</text>
<text text-anchor="middle" x="382.5" y="-85.5" font-family="Helvetica,sans-Serif" font-size="10.00">EndEffectorExecutor.h</text>
</a>
</g>
</g>
<!-- Node1&#45;&gt;Node5 -->
<g id="edge12" class="edge"><title>Node1&#45;&gt;Node5</title>
<path fill="none" stroke="midnightblue" d="M702.537,-391.105C707.181,-353.403 709.335,-288.287 678.5,-245 632.19,-179.99 547.554,-144.319 480.609,-125.366"/>
<polygon fill="midnightblue" stroke="midnightblue" points="699.013,-391.037 701.118,-401.421 705.948,-391.991 699.013,-391.037"/>
</g>
<!-- Node11 -->
<g id="node11" class="node"><title>Node11</title>
<g id="a_node11"><a xlink:href="Parser_8cpp.html" target="_top" xlink:title="/home/travis/build\l/ADVRHumanoids/ROSEndEffector\l/src/Parser.cpp">
<polygon fill="none" stroke="black" points="726,-323.5 726,-364.5 905,-364.5 905,-323.5 726,-323.5"/>
<text text-anchor="start" x="734" y="-352.5" font-family="Helvetica,sans-Serif" font-size="10.00">/home/travis/build</text>
<text text-anchor="start" x="734" y="-341.5" font-family="Helvetica,sans-Serif" font-size="10.00">/ADVRHumanoids/ROSEndEffector</text>
<text text-anchor="middle" x="815.5" y="-330.5" font-family="Helvetica,sans-Serif" font-size="10.00">/src/Parser.cpp</text>
</a>
</g>
</g>
<!-- Node1&#45;&gt;Node11 -->
<g id="edge13" class="edge"><title>Node1&#45;&gt;Node11</title>
<path fill="none" stroke="midnightblue" d="M736.441,-395.919C752.305,-385.702 770.365,-374.07 785.215,-364.506"/>
<polygon fill="midnightblue" stroke="midnightblue" points="734.4,-393.071 727.888,-401.428 738.19,-398.956 734.4,-393.071"/>
</g>
<!-- Node3 -->
<g id="node3" class="node"><title>Node3</title>
<g id="a_node3"><a xlink:href="EEHal_8h.html" target="_top" xlink:title="/home/travis/build\l/ADVRHumanoids/ROSEndEffector\l/include/ROSEndEffector/EEHal.h">
<polygon fill="none" stroke="black" points="195,-245.5 195,-286.5 374,-286.5 374,-245.5 195,-245.5"/>
<text text-anchor="start" x="203" y="-274.5" font-family="Helvetica,sans-Serif" font-size="10.00">/home/travis/build</text>
<text text-anchor="start" x="203" y="-263.5" font-family="Helvetica,sans-Serif" font-size="10.00">/ADVRHumanoids/ROSEndEffector</text>
<text text-anchor="middle" x="284.5" y="-252.5" font-family="Helvetica,sans-Serif" font-size="10.00">/include/ROSEndEffector/EEHal.h</text>
</a>
</g>
</g>
<!-- Node2&#45;&gt;Node3 -->
<g id="edge2" class="edge"><title>Node2&#45;&gt;Node3</title>
<path fill="none" stroke="midnightblue" d="M447.217,-320.304C414.377,-309.546 375.538,-296.823 344.043,-286.506"/>
<polygon fill="midnightblue" stroke="midnightblue" points="446.162,-323.641 456.754,-323.428 448.341,-316.989 446.162,-323.641"/>
</g>
<!-- Node2&#45;&gt;Node5 -->
<g id="edge10" class="edge"><title>Node2&#45;&gt;Node5</title>
<path fill="none" stroke="midnightblue" d="M497.081,-314.83C491.596,-306.145 485.923,-296.392 481.5,-287 457.546,-236.141 470.558,-215.126 441.5,-167 433.47,-153.7 422.102,-140.965 411.484,-130.568"/>
<polygon fill="midnightblue" stroke="midnightblue" points="494.287,-316.954 502.669,-323.434 500.158,-313.141 494.287,-316.954"/>
</g>
<!-- Node10 -->
<g id="node10" class="node"><title>Node10</title>
<g id="a_node10"><a xlink:href="EEInterface_8cpp.html" target="_top" xlink:title="/home/travis/build\l/ADVRHumanoids/ROSEndEffector\l/src/EEInterface.cpp">
<polygon fill="none" stroke="black" points="490,-245.5 490,-286.5 669,-286.5 669,-245.5 490,-245.5"/>
<text text-anchor="start" x="498" y="-274.5" font-family="Helvetica,sans-Serif" font-size="10.00">/home/travis/build</text>
<text text-anchor="start" x="498" y="-263.5" font-family="Helvetica,sans-Serif" font-size="10.00">/ADVRHumanoids/ROSEndEffector</text>
<text text-anchor="middle" x="579.5" y="-252.5" font-family="Helvetica,sans-Serif" font-size="10.00">/src/EEInterface.cpp</text>
</a>
</g>
</g>
<!-- Node2&#45;&gt;Node10 -->
<g id="edge11" class="edge"><title>Node2&#45;&gt;Node10</title>
<path fill="none" stroke="midnightblue" d="M539.191,-315.627C547.179,-305.99 555.99,-295.362 563.331,-286.506"/>
<polygon fill="midnightblue" stroke="midnightblue" points="536.411,-313.496 532.724,-323.428 541.801,-317.963 536.411,-313.496"/>
</g>
<!-- Node4 -->
<g id="node4" class="node"><title>Node4</title>
<g id="a_node4"><a xlink:href="DummyHal_8h.html" target="_top" xlink:title="/home/travis/build\l/ADVRHumanoids/ROSEndEffector\l/include/ROSEndEffector/DummyHal.h">
<polygon fill="none" stroke="black" points="0,-167.5 0,-208.5 197,-208.5 197,-167.5 0,-167.5"/>
<text text-anchor="start" x="8" y="-196.5" font-family="Helvetica,sans-Serif" font-size="10.00">/home/travis/build</text>
<text text-anchor="start" x="8" y="-185.5" font-family="Helvetica,sans-Serif" font-size="10.00">/ADVRHumanoids/ROSEndEffector</text>
<text text-anchor="middle" x="98.5" y="-174.5" font-family="Helvetica,sans-Serif" font-size="10.00">/include/ROSEndEffector/DummyHal.h</text>
</a>
</g>
</g>
<!-- Node3&#45;&gt;Node4 -->
<g id="edge3" class="edge"><title>Node3&#45;&gt;Node4</title>
<path fill="none" stroke="midnightblue" d="M227.253,-241.609C201.292,-231.001 170.946,-218.602 146.237,-208.506"/>
<polygon fill="midnightblue" stroke="midnightblue" points="226.019,-244.886 236.6,-245.428 228.667,-238.406 226.019,-244.886"/>
</g>
<!-- Node3&#45;&gt;Node5 -->
<g id="edge8" class="edge"><title>Node3&#45;&gt;Node5</title>
<path fill="none" stroke="midnightblue" d="M259.438,-237.193C244.228,-216.796 230.253,-188.946 244.5,-167 254.783,-151.16 270.198,-139.365 287.044,-130.593"/>
<polygon fill="midnightblue" stroke="midnightblue" points="256.784,-239.48 265.725,-245.164 262.281,-235.145 256.784,-239.48"/>
</g>
<!-- Node9 -->
<g id="node9" class="node"><title>Node9</title>
<g id="a_node9"><a xlink:href="EEHal_8cpp.html" target="_top" xlink:title="/home/travis/build\l/ADVRHumanoids/ROSEndEffector\l/src/EEHal.cpp">
<polygon fill="none" stroke="black" points="254,-167.5 254,-208.5 433,-208.5 433,-167.5 254,-167.5"/>
<text text-anchor="start" x="262" y="-196.5" font-family="Helvetica,sans-Serif" font-size="10.00">/home/travis/build</text>
<text text-anchor="start" x="262" y="-185.5" font-family="Helvetica,sans-Serif" font-size="10.00">/ADVRHumanoids/ROSEndEffector</text>
<text text-anchor="middle" x="343.5" y="-174.5" font-family="Helvetica,sans-Serif" font-size="10.00">/src/EEHal.cpp</text>
</a>
</g>
</g>
<!-- Node3&#45;&gt;Node9 -->
<g id="edge9" class="edge"><title>Node3&#45;&gt;Node9</title>
<path fill="none" stroke="midnightblue" d="M305.975,-237.338C313.396,-227.778 321.551,-217.273 328.358,-208.506"/>
<polygon fill="midnightblue" stroke="midnightblue" points="303.062,-235.383 299.694,-245.428 308.591,-239.675 303.062,-235.383"/>
</g>
<!-- Node4&#45;&gt;Node5 -->
<g id="edge4" class="edge"><title>Node4&#45;&gt;Node5</title>
<path fill="none" stroke="midnightblue" d="M176.231,-164.694C213.125,-154.106 257.356,-141.413 295.381,-130.501"/>
<polygon fill="midnightblue" stroke="midnightblue" points="175.172,-161.356 166.525,-167.479 177.103,-168.084 175.172,-161.356"/>
</g>
<!-- Node8 -->
<g id="node8" class="node"><title>Node8</title>
<g id="a_node8"><a xlink:href="DummyHal_8cpp.html" target="_top" xlink:title="/home/travis/build\l/ADVRHumanoids/ROSEndEffector\l/src/DummyHal.cpp">
<polygon fill="none" stroke="black" points="9,-84 9,-125 188,-125 188,-84 9,-84"/>
<text text-anchor="start" x="17" y="-113" font-family="Helvetica,sans-Serif" font-size="10.00">/home/travis/build</text>
<text text-anchor="start" x="17" y="-102" font-family="Helvetica,sans-Serif" font-size="10.00">/ADVRHumanoids/ROSEndEffector</text>
<text text-anchor="middle" x="98.5" y="-91" font-family="Helvetica,sans-Serif" font-size="10.00">/src/DummyHal.cpp</text>
</a>
</g>
</g>
<!-- Node4&#45;&gt;Node8 -->
<g id="edge7" class="edge"><title>Node4&#45;&gt;Node8</title>
<path fill="none" stroke="midnightblue" d="M98.5,-157.065C98.5,-146.382 98.5,-134.63 98.5,-125.047"/>
<polygon fill="midnightblue" stroke="midnightblue" points="95.0001,-157.271 98.5,-167.271 102,-157.271 95.0001,-157.271"/>
</g>
<!-- Node6 -->
<g id="node6" class="node"><title>Node6</title>
<g id="a_node6"><a xlink:href="UniversalRosEndEffector_8cpp.html" target="_top" xlink:title="/home/travis/build\l/ADVRHumanoids/ROSEndEffector\l/src/UniversalRosEndEffector.cpp">
<polygon fill="none" stroke="black" points="186,-0.5 186,-41.5 365,-41.5 365,-0.5 186,-0.5"/>
<text text-anchor="start" x="194" y="-29.5" font-family="Helvetica,sans-Serif" font-size="10.00">/home/travis/build</text>
<text text-anchor="start" x="194" y="-18.5" font-family="Helvetica,sans-Serif" font-size="10.00">/ADVRHumanoids/ROSEndEffector</text>
<text text-anchor="middle" x="275.5" y="-7.5" font-family="Helvetica,sans-Serif" font-size="10.00">/src/UniversalRosEndEffector.cpp</text>
</a>
</g>
</g>
<!-- Node5&#45;&gt;Node6 -->
<g id="edge5" class="edge"><title>Node5&#45;&gt;Node6</title>
<path fill="none" stroke="midnightblue" d="M341.338,-72.1475C327.912,-61.921 313.389,-50.8594 301.408,-41.7338"/>
<polygon fill="midnightblue" stroke="midnightblue" points="339.447,-75.1073 349.523,-78.3823 343.689,-69.5386 339.447,-75.1073"/>
</g>
<!-- Node7 -->
<g id="node7" class="node"><title>Node7</title>
<g id="a_node7"><a xlink:href="UniversalRosEndEffectorExecutor_8cpp.html" target="_top" xlink:title="/home/travis/build\l/ADVRHumanoids/ROSEndEffector\l/src/UniversalRosEndEffectorExecutor.cpp">
<polygon fill="none" stroke="black" points="383,-0.5 383,-41.5 598,-41.5 598,-0.5 383,-0.5"/>
<text text-anchor="start" x="391" y="-29.5" font-family="Helvetica,sans-Serif" font-size="10.00">/home/travis/build</text>
<text text-anchor="start" x="391" y="-18.5" font-family="Helvetica,sans-Serif" font-size="10.00">/ADVRHumanoids/ROSEndEffector</text>
<text text-anchor="middle" x="490.5" y="-7.5" font-family="Helvetica,sans-Serif" font-size="10.00">/src/UniversalRosEndEffectorExecutor.cpp</text>
</a>
</g>
</g>
<!-- Node5&#45;&gt;Node7 -->
<g id="edge6" class="edge"><title>Node5&#45;&gt;Node7</title>
<path fill="none" stroke="midnightblue" d="M424.047,-72.1475C437.599,-61.921 452.257,-50.8594 464.35,-41.7338"/>
<polygon fill="midnightblue" stroke="midnightblue" points="421.659,-69.5648 415.785,-78.3823 425.875,-75.1524 421.659,-69.5648"/>
</g>
</g>
</svg>
