<?xml version="1.0" encoding="UTF-8" standalone="no"?>
<!DOCTYPE svg PUBLIC "-//W3C//DTD SVG 1.1//EN"
 "http://www.w3.org/Graphics/SVG/1.1/DTD/svg11.dtd">
<!-- Generated by graphviz version 2.38.0 (20140413.2041)
 -->
<!-- Title: /home/travis/build/ADVRHumanoids/ROSEndEffector/src/Parser.cpp Pages: 1 -->
<svg width="1203pt" height="218pt"
 viewBox="0.00 0.00 1203.00 218.00" xmlns="http://www.w3.org/2000/svg" xmlns:xlink="http://www.w3.org/1999/xlink">
<g id="graph0" class="graph" transform="scale(1 1) rotate(0) translate(4 214)">
<title>/home/travis/build/ADVRHumanoids/ROSEndEffector/src/Parser.cpp</title>
<!-- Node1 -->
<g id="node1" class="node"><title>Node1</title>
<polygon fill="#bfbfbf" stroke="black" points="362,-168.5 362,-209.5 541,-209.5 541,-168.5 362,-168.5"/>
<text text-anchor="start" x="370" y="-197.5" font-family="Helvetica,sans-Serif" font-size="10.00">/home/travis/build</text>
<text text-anchor="start" x="370" y="-186.5" font-family="Helvetica,sans-Serif" font-size="10.00">/ADVRHumanoids/ROSEndEffector</text>
<text text-anchor="middle" x="451.5" y="-175.5" font-family="Helvetica,sans-Serif" font-size="10.00">/src/Parser.cpp</text>
</g>
<!-- Node2 -->
<g id="node2" class="node"><title>Node2</title>
<g id="a_node2"><a xlink:href="Parser_8h.html" target="_top" xlink:title="ros_end_effector/Parser.h">
<polygon fill="none" stroke="black" points="381.5,-112.5 381.5,-131.5 521.5,-131.5 521.5,-112.5 381.5,-112.5"/>
<text text-anchor="middle" x="451.5" y="-119.5" font-family="Helvetica,sans-Serif" font-size="10.00">ros_end_effector/Parser.h</text>
</a>
</g>
</g>
<!-- Node1&#45;&gt;Node2 -->
<g id="edge1" class="edge"><title>Node1&#45;&gt;Node2</title>
<path fill="none" stroke="midnightblue" d="M451.5,-168.498C451.5,-160.065 451.5,-150.235 451.5,-141.874"/>
<polygon fill="midnightblue" stroke="midnightblue" points="455,-141.652 451.5,-131.652 448,-141.653 455,-141.652"/>
</g>
<!-- Node3 -->
<g id="node3" class="node"><title>Node3</title>
<polygon fill="none" stroke="#bfbfbf" points="0,-0.5 0,-19.5 59,-19.5 59,-0.5 0,-0.5"/>
<text text-anchor="middle" x="29.5" y="-7.5" font-family="Helvetica,sans-Serif" font-size="10.00">iostream</text>
</g>
<!-- Node2&#45;&gt;Node3 -->
<g id="edge2" class="edge"><title>Node2&#45;&gt;Node3</title>
<path fill="none" stroke="midnightblue" d="M381.368,-119.03C316.22,-115.344 217.373,-104.963 136.5,-76 103.167,-64.0626 68.9314,-40.9993 48.4377,-25.8023"/>
<polygon fill="midnightblue" stroke="midnightblue" points="50.3754,-22.8794 40.2899,-19.6341 46.1503,-28.4605 50.3754,-22.8794"/>
</g>
<!-- Node4 -->
<g id="node4" class="node"><title>Node4</title>
<polygon fill="none" stroke="#bfbfbf" points="77.5,-0.5 77.5,-19.5 131.5,-19.5 131.5,-0.5 77.5,-0.5"/>
<text text-anchor="middle" x="104.5" y="-7.5" font-family="Helvetica,sans-Serif" font-size="10.00">fstream</text>
</g>
<!-- Node2&#45;&gt;Node4 -->
<g id="edge3" class="edge"><title>Node2&#45;&gt;Node4</title>
<path fill="none" stroke="midnightblue" d="M381.353,-115.209C309.06,-108.321 201.932,-95.2736 165.5,-76 144.429,-64.8531 126.631,-43.5884 115.795,-28.4169"/>
<polygon fill="midnightblue" stroke="midnightblue" points="118.511,-26.1872 109.981,-19.9028 112.73,-30.1348 118.511,-26.1872"/>
</g>
<!-- Node5 -->
<g id="node5" class="node"><title>Node5</title>
<polygon fill="none" stroke="#bfbfbf" points="150,-0.5 150,-19.5 207,-19.5 207,-0.5 150,-0.5"/>
<text text-anchor="middle" x="178.5" y="-7.5" font-family="Helvetica,sans-Serif" font-size="10.00">memory</text>
</g>
<!-- Node2&#45;&gt;Node5 -->
<g id="edge4" class="edge"><title>Node2&#45;&gt;Node5</title>
<path fill="none" stroke="midnightblue" d="M381.425,-119.499C308.79,-116.287 202.304,-106.369 176.5,-76 165.781,-63.3847 167.997,-43.8973 171.847,-29.5482"/>
<polygon fill="midnightblue" stroke="midnightblue" points="175.259,-30.3654 174.922,-19.7759 168.582,-28.264 175.259,-30.3654"/>
</g>
<!-- Node6 -->
<g id="node6" class="node"><title>Node6</title>
<polygon fill="none" stroke="#bfbfbf" points="334,-56.5 334,-75.5 393,-75.5 393,-56.5 334,-56.5"/>
<text text-anchor="middle" x="363.5" y="-63.5" font-family="Helvetica,sans-Serif" font-size="10.00">ros/ros.h</text>
</g>
<!-- Node2&#45;&gt;Node6 -->
<g id="edge5" class="edge"><title>Node2&#45;&gt;Node6</title>
<path fill="none" stroke="midnightblue" d="M437.361,-112.324C423.634,-103.9 402.564,-90.9709 386.436,-81.0741"/>
<polygon fill="midnightblue" stroke="midnightblue" points="387.957,-77.9016 377.604,-75.6545 384.296,-83.8678 387.957,-77.9016"/>
</g>
<!-- Node7 -->
<g id="node7" class="node"><title>Node7</title>
<polygon fill="none" stroke="#bfbfbf" points="411.5,-56.5 411.5,-75.5 491.5,-75.5 491.5,-56.5 411.5,-56.5"/>
<text text-anchor="middle" x="451.5" y="-63.5" font-family="Helvetica,sans-Serif" font-size="10.00">ros/console.h</text>
</g>
<!-- Node2&#45;&gt;Node7 -->
<g id="edge6" class="edge"><title>Node2&#45;&gt;Node7</title>
<path fill="none" stroke="midnightblue" d="M451.5,-112.083C451.5,-105.006 451.5,-94.8611 451.5,-85.9865"/>
<polygon fill="midnightblue" stroke="midnightblue" points="455,-85.751 451.5,-75.7511 448,-85.7511 455,-85.751"/>
</g>
<!-- Node8 -->
<g id="node8" class="node"><title>Node8</title>
<g id="a_node8"><a xlink:href="Utils_8h.html" target="_top" xlink:title="ros_end_effector/Utils.h">
<polygon fill="none" stroke="black" points="185.5,-56.5 185.5,-75.5 315.5,-75.5 315.5,-56.5 185.5,-56.5"/>
<text text-anchor="middle" x="250.5" y="-63.5" font-family="Helvetica,sans-Serif" font-size="10.00">ros_end_effector/Utils.h</text>
</a>
</g>
</g>
<!-- Node2&#45;&gt;Node8 -->
<g id="edge7" class="edge"><title>Node2&#45;&gt;Node8</title>
<path fill="none" stroke="midnightblue" d="M419.651,-112.444C385.102,-103.162 329.818,-88.3093 291.917,-78.127"/>
<polygon fill="midnightblue" stroke="midnightblue" points="292.766,-74.7309 282.2,-75.5164 290.949,-81.4912 292.766,-74.7309"/>
</g>
<!-- Node14 -->
<g id="node14" class="node"><title>Node14</title>
<polygon fill="none" stroke="#bfbfbf" points="509.5,-56.5 509.5,-75.5 605.5,-75.5 605.5,-56.5 509.5,-56.5"/>
<text text-anchor="middle" x="557.5" y="-63.5" font-family="Helvetica,sans-Serif" font-size="10.00">yaml&#45;cpp/yaml.h</text>
</g>
<!-- Node2&#45;&gt;Node14 -->
<g id="edge16" class="edge"><title>Node2&#45;&gt;Node14</title>
<path fill="none" stroke="midnightblue" d="M468.531,-112.324C485.53,-103.664 511.876,-90.2424 531.493,-80.249"/>
<polygon fill="midnightblue" stroke="midnightblue" points="533.19,-83.3125 540.512,-75.6545 530.012,-77.0752 533.19,-83.3125"/>
</g>
<!-- Node15 -->
<g id="node15" class="node"><title>Node15</title>
<polygon fill="none" stroke="#bfbfbf" points="623.5,-56.5 623.5,-75.5 761.5,-75.5 761.5,-56.5 623.5,-56.5"/>
<text text-anchor="middle" x="692.5" y="-63.5" font-family="Helvetica,sans-Serif" font-size="10.00">urdf_parser/urdf_parser.h</text>
</g>
<!-- Node2&#45;&gt;Node15 -->
<g id="edge17" class="edge"><title>Node2&#45;&gt;Node15</title>
<path fill="none" stroke="midnightblue" d="M489.687,-112.444C531.641,-103.043 599.094,-87.9291 644.571,-77.7393"/>
<polygon fill="midnightblue" stroke="midnightblue" points="645.499,-81.1183 654.491,-75.5164 643.968,-74.2876 645.499,-81.1183"/>
</g>
<!-- Node16 -->
<g id="node16" class="node"><title>Node16</title>
<polygon fill="none" stroke="#bfbfbf" points="779.5,-56.5 779.5,-75.5 919.5,-75.5 919.5,-56.5 779.5,-56.5"/>
<text text-anchor="middle" x="849.5" y="-63.5" font-family="Helvetica,sans-Serif" font-size="10.00">kdl_parser/kdl_parser.hpp</text>
</g>
<!-- Node2&#45;&gt;Node16 -->
<g id="edge18" class="edge"><title>Node2&#45;&gt;Node16</title>
<path fill="none" stroke="midnightblue" d="M514.564,-112.444C585.741,-102.786 701.361,-87.0993 776.418,-76.9157"/>
<polygon fill="midnightblue" stroke="midnightblue" points="777.292,-80.3292 786.731,-75.5164 776.351,-73.3928 777.292,-80.3292"/>
</g>
<!-- Node17 -->
<g id="node17" class="node"><title>Node17</title>
<polygon fill="none" stroke="#bfbfbf" points="937.5,-56.5 937.5,-75.5 1035.5,-75.5 1035.5,-56.5 937.5,-56.5"/>
<text text-anchor="middle" x="986.5" y="-63.5" font-family="Helvetica,sans-Serif" font-size="10.00">srdfdom/model.h</text>
</g>
<!-- Node2&#45;&gt;Node17 -->
<g id="edge19" class="edge"><title>Node2&#45;&gt;Node17</title>
<path fill="none" stroke="midnightblue" d="M521.558,-115.712C612.583,-108.545 776.679,-94.622 927.133,-76.1014"/>
<polygon fill="midnightblue" stroke="midnightblue" points="927.988,-79.5222 937.481,-74.8175 927.126,-72.5755 927.988,-79.5222"/>
</g>
<!-- Node18 -->
<g id="node18" class="node"><title>Node18</title>
<polygon fill="none" stroke="#bfbfbf" points="1054,-56.5 1054,-75.5 1195,-75.5 1195,-56.5 1054,-56.5"/>
<text text-anchor="middle" x="1124.5" y="-63.5" font-family="Helvetica,sans-Serif" font-size="10.00">boost/filesystem/path.hpp</text>
</g>
<!-- Node2&#45;&gt;Node18 -->
<g id="edge20" class="edge"><title>Node2&#45;&gt;Node18</title>
<path fill="none" stroke="midnightblue" d="M521.859,-116.49C631.081,-109.306 848.29,-94.2858 1043.67,-76.0439"/>
<polygon fill="midnightblue" stroke="midnightblue" points="1044.21,-79.5086 1053.84,-75.0895 1043.56,-72.5392 1044.21,-79.5086"/>
</g>
<!-- Node8&#45;&gt;Node3 -->
<g id="edge10" class="edge"><title>Node8&#45;&gt;Node3</title>
<path fill="none" stroke="midnightblue" d="M215.482,-56.4435C175.566,-46.6903 110.478,-30.7864 68.8429,-20.6132"/>
<polygon fill="midnightblue" stroke="midnightblue" points="69.5948,-17.194 59.0498,-18.2203 67.9332,-23.994 69.5948,-17.194"/>
</g>
<!-- Node8&#45;&gt;Node4 -->
<g id="edge13" class="edge"><title>Node8&#45;&gt;Node4</title>
<path fill="none" stroke="midnightblue" d="M227.366,-56.4435C203.018,-47.4381 164.493,-33.1891 137.077,-23.049"/>
<polygon fill="midnightblue" stroke="midnightblue" points="138.119,-19.7028 127.526,-19.5164 135.691,-26.2681 138.119,-19.7028"/>
</g>
<!-- Node8&#45;&gt;Node5 -->
<g id="edge9" class="edge"><title>Node8&#45;&gt;Node5</title>
<path fill="none" stroke="midnightblue" d="M238.932,-56.324C228.08,-48.1849 211.619,-35.8395 198.617,-26.0874"/>
<polygon fill="midnightblue" stroke="midnightblue" points="200.379,-23.0339 190.279,-19.8339 196.179,-28.6339 200.379,-23.0339"/>
</g>
<!-- Node9 -->
<g id="node9" class="node"><title>Node9</title>
<polygon fill="none" stroke="#bfbfbf" points="294,-0.5 294,-19.5 341,-19.5 341,-0.5 294,-0.5"/>
<text text-anchor="middle" x="317.5" y="-7.5" font-family="Helvetica,sans-Serif" font-size="10.00">cmath</text>
</g>
<!-- Node8&#45;&gt;Node9 -->
<g id="edge8" class="edge"><title>Node8&#45;&gt;Node9</title>
<path fill="none" stroke="midnightblue" d="M261.265,-56.324C271.266,-48.2631 286.387,-36.0765 298.43,-26.3695"/>
<polygon fill="midnightblue" stroke="midnightblue" points="300.95,-28.8343 306.539,-19.8339 296.557,-23.3841 300.95,-28.8343"/>
</g>
<!-- Node10 -->
<g id="node10" class="node"><title>Node10</title>
<polygon fill="none" stroke="#bfbfbf" points="359.5,-0.5 359.5,-19.5 407.5,-19.5 407.5,-0.5 359.5,-0.5"/>
<text text-anchor="middle" x="383.5" y="-7.5" font-family="Helvetica,sans-Serif" font-size="10.00">dlfcn.h</text>
</g>
<!-- Node8&#45;&gt;Node10 -->
<g id="edge11" class="edge"><title>Node8&#45;&gt;Node10</title>
<path fill="none" stroke="midnightblue" d="M271.574,-56.4435C293.56,-47.5171 328.234,-33.4387 353.164,-23.3168"/>
<polygon fill="midnightblue" stroke="midnightblue" points="354.576,-26.5213 362.524,-19.5164 351.942,-20.0355 354.576,-26.5213"/>
</g>
<!-- Node11 -->
<g id="node11" class="node"><title>Node11</title>
<polygon fill="none" stroke="#bfbfbf" points="425.5,-0.5 425.5,-19.5 541.5,-19.5 541.5,-0.5 425.5,-0.5"/>
<text text-anchor="middle" x="483.5" y="-7.5" font-family="Helvetica,sans-Serif" font-size="10.00">boost/filesystem.hpp</text>
</g>
<!-- Node8&#45;&gt;Node11 -->
<g id="edge12" class="edge"><title>Node8&#45;&gt;Node11</title>
<path fill="none" stroke="midnightblue" d="M287.42,-56.4435C327.895,-47.0629 392.921,-31.9926 436.884,-21.8036"/>
<polygon fill="midnightblue" stroke="midnightblue" points="437.802,-25.1839 446.753,-19.5164 436.221,-18.3646 437.802,-25.1839"/>
</g>
<!-- Node12 -->
<g id="node12" class="node"><title>Node12</title>
<polygon fill="none" stroke="#bfbfbf" points="559.5,-0.5 559.5,-19.5 609.5,-19.5 609.5,-0.5 559.5,-0.5"/>
<text text-anchor="middle" x="584.5" y="-7.5" font-family="Helvetica,sans-Serif" font-size="10.00">chrono</text>
</g>
<!-- Node8&#45;&gt;Node12 -->
<g id="edge14" class="edge"><title>Node8&#45;&gt;Node12</title>
<path fill="none" stroke="midnightblue" d="M312.848,-56.4711C382.668,-46.7838 492.51,-31.1034 549.348,-20.01"/>
<polygon fill="midnightblue" stroke="midnightblue" points="550.213,-23.4059 559.322,-17.9945 548.827,-16.5445 550.213,-23.4059"/>
</g>
<!-- Node13 -->
<g id="node13" class="node"><title>Node13</title>
<polygon fill="none" stroke="#bfbfbf" points="225.5,-0.5 225.5,-19.5 275.5,-19.5 275.5,-0.5 225.5,-0.5"/>
<text text-anchor="middle" x="250.5" y="-7.5" font-family="Helvetica,sans-Serif" font-size="10.00">atomic</text>
</g>
<!-- Node8&#45;&gt;Node13 -->
<g id="edge15" class="edge"><title>Node8&#45;&gt;Node13</title>
<path fill="none" stroke="midnightblue" d="M250.5,-56.083C250.5,-49.0059 250.5,-38.8611 250.5,-29.9865"/>
<polygon fill="midnightblue" stroke="midnightblue" points="254,-29.751 250.5,-19.7511 247,-29.7511 254,-29.751"/>
</g>
</g>
</svg>
