<?xml version="1.0" encoding="UTF-8" standalone="no"?>
<!DOCTYPE svg PUBLIC "-//W3C//DTD SVG 1.1//EN"
 "http://www.w3.org/Graphics/SVG/1.1/DTD/svg11.dtd">
<!-- Generated by graphviz version 2.38.0 (20140413.2041)
 -->
<!-- Title: /home/travis/build/ADVRHumanoids/ROSEndEffector/include/end_effector/RosActionServer.h Pages: 1 -->
<svg width="582pt" height="117pt"
 viewBox="0.00 0.00 582.00 117.00" xmlns="http://www.w3.org/2000/svg" xmlns:xlink="http://www.w3.org/1999/xlink">
<g id="graph0" class="graph" transform="scale(1 1) rotate(0) translate(4 113)">
<title>/home/travis/build/ADVRHumanoids/ROSEndEffector/include/end_effector/RosActionServer.h</title>
<!-- Node1 -->
<g id="node1" class="node"><title>Node1</title>
<polygon fill="#bfbfbf" stroke="black" points="76.5,-67.5 76.5,-108.5 283.5,-108.5 283.5,-67.5 76.5,-67.5"/>
<text text-anchor="start" x="84.5" y="-96.5" font-family="Helvetica,sans-Serif" font-size="10.00">/home/travis/build</text>
<text text-anchor="start" x="84.5" y="-85.5" font-family="Helvetica,sans-Serif" font-size="10.00">/ADVRHumanoids/ROSEndEffector</text>
<text text-anchor="middle" x="180" y="-74.5" font-family="Helvetica,sans-Serif" font-size="10.00">/include/end_effector/RosActionServer.h</text>
</g>
<!-- Node2 -->
<g id="node2" class="node"><title>Node2</title>
<polygon fill="none" stroke="#bfbfbf" points="0,-6 0,-25 44,-25 44,-6 0,-6"/>
<text text-anchor="middle" x="22" y="-13" font-family="Helvetica,sans-Serif" font-size="10.00">string</text>
</g>
<!-- Node1&#45;&gt;Node2 -->
<g id="edge1" class="edge"><title>Node1&#45;&gt;Node2</title>
<path fill="none" stroke="midnightblue" d="M134.928,-67.416C110.604,-56.7743 80.095,-43.3086 53,-31 51.8133,-30.4609 50.6023,-29.9077 49.3799,-29.3468"/>
<polygon fill="midnightblue" stroke="midnightblue" points="50.5452,-26.0294 40.0003,-25.0019 47.6029,-32.381 50.5452,-26.0294"/>
</g>
<!-- Node3 -->
<g id="node3" class="node"><title>Node3</title>
<polygon fill="none" stroke="#bfbfbf" points="62.5,-6 62.5,-25 121.5,-25 121.5,-6 62.5,-6"/>
<text text-anchor="middle" x="92" y="-13" font-family="Helvetica,sans-Serif" font-size="10.00">ros/ros.h</text>
</g>
<!-- Node1&#45;&gt;Node3 -->
<g id="edge2" class="edge"><title>Node1&#45;&gt;Node3</title>
<path fill="none" stroke="midnightblue" d="M155.487,-67.3618C141.303,-55.9984 123.733,-41.9224 110.675,-31.4611"/>
<polygon fill="midnightblue" stroke="midnightblue" points="112.819,-28.6942 102.826,-25.1734 108.442,-34.1573 112.819,-28.6942"/>
</g>
<!-- Node4 -->
<g id="node4" class="node"><title>Node4</title>
<polygon fill="none" stroke="#bfbfbf" points="140,-6 140,-25 220,-25 220,-6 140,-6"/>
<text text-anchor="middle" x="180" y="-13" font-family="Helvetica,sans-Serif" font-size="10.00">ros/console.h</text>
</g>
<!-- Node1&#45;&gt;Node4 -->
<g id="edge3" class="edge"><title>Node1&#45;&gt;Node4</title>
<path fill="none" stroke="midnightblue" d="M180,-67.3618C180,-57.297 180,-45.1043 180,-35.18"/>
<polygon fill="midnightblue" stroke="midnightblue" points="183.5,-35.1733 180,-25.1734 176.5,-35.1734 183.5,-35.1733"/>
</g>
<!-- Node5 -->
<g id="node5" class="node"><title>Node5</title>
<polygon fill="none" stroke="#bfbfbf" points="238,-0.5 238,-30.5 362,-30.5 362,-0.5 238,-0.5"/>
<text text-anchor="start" x="246" y="-18.5" font-family="Helvetica,sans-Serif" font-size="10.00">actionlib/server/simple</text>
<text text-anchor="middle" x="300" y="-7.5" font-family="Helvetica,sans-Serif" font-size="10.00">_action_server.h</text>
</g>
<!-- Node1&#45;&gt;Node5 -->
<g id="edge4" class="edge"><title>Node1&#45;&gt;Node5</title>
<path fill="none" stroke="midnightblue" d="M213.427,-67.3618C230.162,-57.53 250.353,-45.6677 267.025,-35.8729"/>
<polygon fill="midnightblue" stroke="midnightblue" points="269.032,-38.7533 275.881,-30.67 265.486,-32.7178 269.032,-38.7533"/>
</g>
<!-- Node6 -->
<g id="node6" class="node"><title>Node6</title>
<polygon fill="none" stroke="#bfbfbf" points="380,-6 380,-25 574,-25 574,-6 380,-6"/>
<text text-anchor="middle" x="477" y="-13" font-family="Helvetica,sans-Serif" font-size="10.00">rosee_msg/ROSEECommandAction.h</text>
</g>
<!-- Node1&#45;&gt;Node6 -->
<g id="edge5" class="edge"><title>Node1&#45;&gt;Node6</title>
<path fill="none" stroke="midnightblue" d="M262.337,-67.4554C316.92,-54.4988 386.494,-37.9837 431.391,-27.3264"/>
<polygon fill="midnightblue" stroke="midnightblue" points="432.215,-30.728 441.137,-25.013 430.599,-23.9173 432.215,-30.728"/>
</g>
</g>
</svg>
