<?xml version="1.0" encoding="UTF-8" standalone="no"?>
<!DOCTYPE svg PUBLIC "-//W3C//DTD SVG 1.1//EN"
 "http://www.w3.org/Graphics/SVG/1.1/DTD/svg11.dtd">
<!-- Generated by graphviz version 2.38.0 (20140413.2041)
 -->
<!-- Title: /home/travis/build/ADVRHumanoids/ROSEndEffector/src/RosActionServer.cpp Pages: 1 -->
<svg width="582pt" height="184pt"
 viewBox="0.00 0.00 582.00 184.00" xmlns="http://www.w3.org/2000/svg" xmlns:xlink="http://www.w3.org/1999/xlink">
<g id="graph0" class="graph" transform="scale(1 1) rotate(0) translate(4 180)">
<title>/home/travis/build/ADVRHumanoids/ROSEndEffector/src/RosActionServer.cpp</title>
<!-- Node1 -->
<g id="node1" class="node"><title>Node1</title>
<polygon fill="#bfbfbf" stroke="black" points="90.5,-134.5 90.5,-175.5 269.5,-175.5 269.5,-134.5 90.5,-134.5"/>
<text text-anchor="start" x="98.5" y="-163.5" font-family="Helvetica,sans-Serif" font-size="10.00">/home/travis/build</text>
<text text-anchor="start" x="98.5" y="-152.5" font-family="Helvetica,sans-Serif" font-size="10.00">/ADVRHumanoids/ROSEndEffector</text>
<text text-anchor="middle" x="180" y="-141.5" font-family="Helvetica,sans-Serif" font-size="10.00">/src/RosActionServer.cpp</text>
</g>
<!-- Node2 -->
<g id="node2" class="node"><title>Node2</title>
<g id="a_node2"><a xlink:href="RosActionServer_8h.html" target="_top" xlink:title="ros_end_effector/RosAction\lServer.h">
<polygon fill="none" stroke="black" points="106.5,-67.5 106.5,-97.5 253.5,-97.5 253.5,-67.5 106.5,-67.5"/>
<text text-anchor="start" x="114.5" y="-85.5" font-family="Helvetica,sans-Serif" font-size="10.00">ros_end_effector/RosAction</text>
<text text-anchor="middle" x="180" y="-74.5" font-family="Helvetica,sans-Serif" font-size="10.00">Server.h</text>
</a>
</g>
</g>
<!-- Node1&#45;&gt;Node2 -->
<g id="edge1" class="edge"><title>Node1&#45;&gt;Node2</title>
<path fill="none" stroke="midnightblue" d="M180,-134.362C180,-126.226 180,-116.7 180,-108.105"/>
<polygon fill="midnightblue" stroke="midnightblue" points="183.5,-107.892 180,-97.8916 176.5,-107.892 183.5,-107.892"/>
</g>
<!-- Node3 -->
<g id="node3" class="node"><title>Node3</title>
<polygon fill="none" stroke="#bfbfbf" points="0,-6 0,-25 44,-25 44,-6 0,-6"/>
<text text-anchor="middle" x="22" y="-13" font-family="Helvetica,sans-Serif" font-size="10.00">string</text>
</g>
<!-- Node2&#45;&gt;Node3 -->
<g id="edge2" class="edge"><title>Node2&#45;&gt;Node3</title>
<path fill="none" stroke="midnightblue" d="M143.084,-67.4838C117.613,-57.6515 83.0567,-43.9918 53,-31 51.8036,-30.4828 50.5845,-29.9478 49.3555,-29.4019"/>
<polygon fill="midnightblue" stroke="midnightblue" points="50.5011,-26.0776 39.9501,-25.1151 47.598,-32.4472 50.5011,-26.0776"/>
</g>
<!-- Node4 -->
<g id="node4" class="node"><title>Node4</title>
<polygon fill="none" stroke="#bfbfbf" points="62.5,-6 62.5,-25 121.5,-25 121.5,-6 62.5,-6"/>
<text text-anchor="middle" x="92" y="-13" font-family="Helvetica,sans-Serif" font-size="10.00">ros/ros.h</text>
</g>
<!-- Node2&#45;&gt;Node4 -->
<g id="edge3" class="edge"><title>Node2&#45;&gt;Node4</title>
<path fill="none" stroke="midnightblue" d="M160.905,-67.396C146.421,-56.6975 126.568,-42.0334 111.892,-31.193"/>
<polygon fill="midnightblue" stroke="midnightblue" points="113.64,-28.1331 103.517,-25.007 109.481,-33.7637 113.64,-28.1331"/>
</g>
<!-- Node5 -->
<g id="node5" class="node"><title>Node5</title>
<polygon fill="none" stroke="#bfbfbf" points="140,-6 140,-25 220,-25 220,-6 140,-6"/>
<text text-anchor="middle" x="180" y="-13" font-family="Helvetica,sans-Serif" font-size="10.00">ros/console.h</text>
</g>
<!-- Node2&#45;&gt;Node5 -->
<g id="edge4" class="edge"><title>Node2&#45;&gt;Node5</title>
<path fill="none" stroke="midnightblue" d="M180,-67.396C180,-58.0638 180,-45.7143 180,-35.5173"/>
<polygon fill="midnightblue" stroke="midnightblue" points="183.5,-35.1945 180,-25.1945 176.5,-35.1946 183.5,-35.1945"/>
</g>
<!-- Node6 -->
<g id="node6" class="node"><title>Node6</title>
<polygon fill="none" stroke="#bfbfbf" points="238,-0.5 238,-30.5 362,-30.5 362,-0.5 238,-0.5"/>
<text text-anchor="start" x="246" y="-18.5" font-family="Helvetica,sans-Serif" font-size="10.00">actionlib/server/simple</text>
<text text-anchor="middle" x="300" y="-7.5" font-family="Helvetica,sans-Serif" font-size="10.00">_action_server.h</text>
</g>
<!-- Node2&#45;&gt;Node6 -->
<g id="edge5" class="edge"><title>Node2&#45;&gt;Node6</title>
<path fill="none" stroke="midnightblue" d="M206.038,-67.396C223.336,-58.0265 246.248,-45.6155 265.117,-35.395"/>
<polygon fill="midnightblue" stroke="midnightblue" points="266.887,-38.4169 274.013,-30.5765 263.553,-32.2619 266.887,-38.4169"/>
</g>
<!-- Node7 -->
<g id="node7" class="node"><title>Node7</title>
<polygon fill="none" stroke="#bfbfbf" points="380,-6 380,-25 574,-25 574,-6 380,-6"/>
<text text-anchor="middle" x="477" y="-13" font-family="Helvetica,sans-Serif" font-size="10.00">rosee_msg/ROSEECommandAction.h</text>
</g>
<!-- Node2&#45;&gt;Node7 -->
<g id="edge6" class="edge"><title>Node2&#45;&gt;Node7</title>
<path fill="none" stroke="midnightblue" d="M244.079,-67.476C299.278,-55.3953 377.781,-38.2145 428.058,-27.2112"/>
<polygon fill="midnightblue" stroke="midnightblue" points="429.01,-30.5858 438.031,-25.0287 427.513,-23.7476 429.01,-30.5858"/>
</g>
</g>
</svg>
