<?xml version="1.0" encoding="UTF-8" standalone="no"?>
<!DOCTYPE svg PUBLIC "-//W3C//DTD SVG 1.1//EN"
 "http://www.w3.org/Graphics/SVG/1.1/DTD/svg11.dtd">
<!-- Generated by graphviz version 2.38.0 (20140413.2041)
 -->
<!-- Title: /home/travis/build/ADVRHumanoids/ROSEndEffector/src/RosActionServer.cpp Pages: 1 -->
<svg width="582pt" height="173pt"
 viewBox="0.00 0.00 582.00 173.00" xmlns="http://www.w3.org/2000/svg" xmlns:xlink="http://www.w3.org/1999/xlink">
<g id="graph0" class="graph" transform="scale(1 1) rotate(0) translate(4 169)">
<title>/home/travis/build/ADVRHumanoids/ROSEndEffector/src/RosActionServer.cpp</title>
<!-- Node1 -->
<g id="node1" class="node"><title>Node1</title>
<polygon fill="#bfbfbf" stroke="black" points="90.5,-123.5 90.5,-164.5 269.5,-164.5 269.5,-123.5 90.5,-123.5"/>
<text text-anchor="start" x="98.5" y="-152.5" font-family="Helvetica,sans-Serif" font-size="10.00">/home/travis/build</text>
<text text-anchor="start" x="98.5" y="-141.5" font-family="Helvetica,sans-Serif" font-size="10.00">/ADVRHumanoids/ROSEndEffector</text>
<text text-anchor="middle" x="180" y="-130.5" font-family="Helvetica,sans-Serif" font-size="10.00">/src/RosActionServer.cpp</text>
</g>
<!-- Node2 -->
<g id="node2" class="node"><title>Node2</title>
<g id="a_node2"><a xlink:href="RosActionServer_8h.html" target="_top" xlink:title="end_effector/RosActionServer.h">
<polygon fill="none" stroke="black" points="96.5,-67.5 96.5,-86.5 263.5,-86.5 263.5,-67.5 96.5,-67.5"/>
<text text-anchor="middle" x="180" y="-74.5" font-family="Helvetica,sans-Serif" font-size="10.00">end_effector/RosActionServer.h</text>
</a>
</g>
</g>
<!-- Node1&#45;&gt;Node2 -->
<g id="edge1" class="edge"><title>Node1&#45;&gt;Node2</title>
<path fill="none" stroke="midnightblue" d="M180,-123.498C180,-115.065 180,-105.235 180,-96.874"/>
<polygon fill="midnightblue" stroke="midnightblue" points="183.5,-96.6525 180,-86.6525 176.5,-96.6525 183.5,-96.6525"/>
</g>
<!-- Node3 -->
<g id="node3" class="node"><title>Node3</title>
<polygon fill="none" stroke="#bfbfbf" points="0,-6 0,-25 44,-25 44,-6 0,-6"/>
<text text-anchor="middle" x="22" y="-13" font-family="Helvetica,sans-Serif" font-size="10.00">string</text>
</g>
<!-- Node2&#45;&gt;Node3 -->
<g id="edge2" class="edge"><title>Node2&#45;&gt;Node3</title>
<path fill="none" stroke="midnightblue" d="M153.45,-67.4281C127.559,-58.8738 87.1975,-45.0179 53,-31 51.6256,-30.4366 50.224,-29.845 48.8136,-29.236"/>
<polygon fill="midnightblue" stroke="midnightblue" points="50.1294,-25.9901 39.5737,-25.0806 47.2583,-32.3743 50.1294,-25.9901"/>
</g>
<!-- Node4 -->
<g id="node4" class="node"><title>Node4</title>
<polygon fill="none" stroke="#bfbfbf" points="62.5,-6 62.5,-25 121.5,-25 121.5,-6 62.5,-6"/>
<text text-anchor="middle" x="92" y="-13" font-family="Helvetica,sans-Serif" font-size="10.00">ros/ros.h</text>
</g>
<!-- Node2&#45;&gt;Node4 -->
<g id="edge3" class="edge"><title>Node2&#45;&gt;Node4</title>
<path fill="none" stroke="midnightblue" d="M167.392,-67.4751C153.277,-57.9315 130.169,-42.3073 113.251,-30.8683"/>
<polygon fill="midnightblue" stroke="midnightblue" points="114.829,-27.7109 104.585,-25.0091 110.909,-33.5098 114.829,-27.7109"/>
</g>
<!-- Node5 -->
<g id="node5" class="node"><title>Node5</title>
<polygon fill="none" stroke="#bfbfbf" points="140,-6 140,-25 220,-25 220,-6 140,-6"/>
<text text-anchor="middle" x="180" y="-13" font-family="Helvetica,sans-Serif" font-size="10.00">ros/console.h</text>
</g>
<!-- Node2&#45;&gt;Node5 -->
<g id="edge4" class="edge"><title>Node2&#45;&gt;Node5</title>
<path fill="none" stroke="midnightblue" d="M180,-67.4751C180,-59.0803 180,-45.9806 180,-35.1631"/>
<polygon fill="midnightblue" stroke="midnightblue" points="183.5,-35.0091 180,-25.0091 176.5,-35.0091 183.5,-35.0091"/>
</g>
<!-- Node6 -->
<g id="node6" class="node"><title>Node6</title>
<polygon fill="none" stroke="#bfbfbf" points="238,-0.5 238,-30.5 362,-30.5 362,-0.5 238,-0.5"/>
<text text-anchor="start" x="246" y="-18.5" font-family="Helvetica,sans-Serif" font-size="10.00">actionlib/server/simple</text>
<text text-anchor="middle" x="300" y="-7.5" font-family="Helvetica,sans-Serif" font-size="10.00">_action_server.h</text>
</g>
<!-- Node2&#45;&gt;Node6 -->
<g id="edge5" class="edge"><title>Node2&#45;&gt;Node6</title>
<path fill="none" stroke="midnightblue" d="M197.193,-67.4751C214.205,-59.0401 240.796,-45.8551 262.673,-35.008"/>
<polygon fill="midnightblue" stroke="midnightblue" points="264.314,-38.101 271.718,-30.523 261.204,-31.8296 264.314,-38.101"/>
</g>
<!-- Node7 -->
<g id="node7" class="node"><title>Node7</title>
<polygon fill="none" stroke="#bfbfbf" points="380,-6 380,-25 574,-25 574,-6 380,-6"/>
<text text-anchor="middle" x="477" y="-13" font-family="Helvetica,sans-Serif" font-size="10.00">rosee_msg/ROSEECommandAction.h</text>
</g>
<!-- Node2&#45;&gt;Node7 -->
<g id="edge6" class="edge"><title>Node2&#45;&gt;Node7</title>
<path fill="none" stroke="midnightblue" d="M222.553,-67.4751C275.815,-56.8048 367.018,-38.5335 424.544,-27.0089"/>
<polygon fill="midnightblue" stroke="midnightblue" points="425.408,-30.4053 434.526,-25.0091 424.033,-23.5417 425.408,-30.4053"/>
</g>
</g>
</svg>
