<?xml version="1.0" encoding="UTF-8" standalone="no"?>
<!DOCTYPE svg PUBLIC "-//W3C//DTD SVG 1.1//EN"
 "http://www.w3.org/Graphics/SVG/1.1/DTD/svg11.dtd">
<!-- Generated by graphviz version 2.38.0 (20140413.2041)
 -->
<!-- Title: /home/travis/build/ADVRHumanoids/ROSEndEffector/include/ros_end_effector/RosActionServer.h Pages: 1 -->
<svg width="582pt" height="128pt"
 viewBox="0.00 0.00 582.00 128.00" xmlns="http://www.w3.org/2000/svg" xmlns:xlink="http://www.w3.org/1999/xlink">
<g id="graph0" class="graph" transform="scale(1 1) rotate(0) translate(4 124)">
<title>/home/travis/build/ADVRHumanoids/ROSEndEffector/include/ros_end_effector/RosActionServer.h</title>
<!-- Node1 -->
<g id="node1" class="node"><title>Node1</title>
<polygon fill="#bfbfbf" stroke="black" points="90.5,-67.5 90.5,-119.5 269.5,-119.5 269.5,-67.5 90.5,-67.5"/>
<text text-anchor="start" x="98.5" y="-107.5" font-family="Helvetica,sans-Serif" font-size="10.00">/home/travis/build</text>
<text text-anchor="start" x="98.5" y="-96.5" font-family="Helvetica,sans-Serif" font-size="10.00">/ADVRHumanoids/ROSEndEffector</text>
<text text-anchor="start" x="98.5" y="-85.5" font-family="Helvetica,sans-Serif" font-size="10.00">/include/ros_end_effector</text>
<text text-anchor="middle" x="180" y="-74.5" font-family="Helvetica,sans-Serif" font-size="10.00">/RosActionServer.h</text>
</g>
<!-- Node2 -->
<g id="node2" class="node"><title>Node2</title>
<polygon fill="none" stroke="#bfbfbf" points="0,-6 0,-25 44,-25 44,-6 0,-6"/>
<text text-anchor="middle" x="22" y="-13" font-family="Helvetica,sans-Serif" font-size="10.00">string</text>
</g>
<!-- Node1&#45;&gt;Node2 -->
<g id="edge1" class="edge"><title>Node1&#45;&gt;Node2</title>
<path fill="none" stroke="midnightblue" d="M127.827,-67.4041C101.48,-54.7311 70.6166,-39.8852 49.0423,-29.5077"/>
<polygon fill="midnightblue" stroke="midnightblue" points="50.3619,-26.2586 39.833,-25.0779 47.3275,-32.5668 50.3619,-26.2586"/>
</g>
<!-- Node3 -->
<g id="node3" class="node"><title>Node3</title>
<polygon fill="none" stroke="#bfbfbf" points="62.5,-6 62.5,-25 121.5,-25 121.5,-6 62.5,-6"/>
<text text-anchor="middle" x="92" y="-13" font-family="Helvetica,sans-Serif" font-size="10.00">ros/ros.h</text>
</g>
<!-- Node1&#45;&gt;Node3 -->
<g id="edge2" class="edge"><title>Node1&#45;&gt;Node3</title>
<path fill="none" stroke="midnightblue" d="M150.697,-67.1931C137.179,-55.5182 121.569,-42.0372 109.847,-31.9134"/>
<polygon fill="midnightblue" stroke="midnightblue" points="111.94,-29.0962 102.084,-25.2089 107.365,-34.394 111.94,-29.0962"/>
</g>
<!-- Node4 -->
<g id="node4" class="node"><title>Node4</title>
<polygon fill="none" stroke="#bfbfbf" points="140,-6 140,-25 220,-25 220,-6 140,-6"/>
<text text-anchor="middle" x="180" y="-13" font-family="Helvetica,sans-Serif" font-size="10.00">ros/console.h</text>
</g>
<!-- Node1&#45;&gt;Node4 -->
<g id="edge3" class="edge"><title>Node1&#45;&gt;Node4</title>
<path fill="none" stroke="midnightblue" d="M180,-67.1931C180,-56.765 180,-44.8961 180,-35.2656"/>
<polygon fill="midnightblue" stroke="midnightblue" points="183.5,-35.2089 180,-25.2089 176.5,-35.2089 183.5,-35.2089"/>
</g>
<!-- Node5 -->
<g id="node5" class="node"><title>Node5</title>
<polygon fill="none" stroke="#bfbfbf" points="238,-0.5 238,-30.5 362,-30.5 362,-0.5 238,-0.5"/>
<text text-anchor="start" x="246" y="-18.5" font-family="Helvetica,sans-Serif" font-size="10.00">actionlib/server/simple</text>
<text text-anchor="middle" x="300" y="-7.5" font-family="Helvetica,sans-Serif" font-size="10.00">_action_server.h</text>
</g>
<!-- Node1&#45;&gt;Node5 -->
<g id="edge4" class="edge"><title>Node1&#45;&gt;Node5</title>
<path fill="none" stroke="midnightblue" d="M219.625,-67.4041C235.718,-57.2118 254.031,-45.614 269.107,-36.0656"/>
<polygon fill="midnightblue" stroke="midnightblue" points="270.993,-39.014 277.569,-30.7066 267.248,-33.1003 270.993,-39.014"/>
</g>
<!-- Node6 -->
<g id="node6" class="node"><title>Node6</title>
<polygon fill="none" stroke="#bfbfbf" points="380,-6 380,-25 574,-25 574,-6 380,-6"/>
<text text-anchor="middle" x="477" y="-13" font-family="Helvetica,sans-Serif" font-size="10.00">rosee_msg/ROSEECommandAction.h</text>
</g>
<!-- Node1&#45;&gt;Node6 -->
<g id="edge5" class="edge"><title>Node1&#45;&gt;Node6</title>
<path fill="none" stroke="midnightblue" d="M269.513,-69.5944C323.907,-55.6753 390.91,-38.5298 433.791,-27.5569"/>
<polygon fill="midnightblue" stroke="midnightblue" points="434.8,-30.9116 443.62,-25.0417 433.064,-24.1301 434.8,-30.9116"/>
</g>
</g>
</svg>
