<?xml version="1.0" encoding="UTF-8" standalone="no"?>
<!DOCTYPE svg PUBLIC "-//W3C//DTD SVG 1.1//EN"
 "http://www.w3.org/Graphics/SVG/1.1/DTD/svg11.dtd">
<!-- Generated by graphviz version 2.38.0 (20140413.2041)
 -->
<!-- Title: /home/travis/build/ADVRHumanoids/ROSEndEffector/src/UniversalRosEndEffectorExecutor.cpp Pages: 1 -->
<svg width="1448pt" height="408pt"
 viewBox="0.00 0.00 1447.50 408.00" xmlns="http://www.w3.org/2000/svg" xmlns:xlink="http://www.w3.org/1999/xlink">
<g id="graph0" class="graph" transform="scale(1 1) rotate(0) translate(4 404)">
<title>/home/travis/build/ADVRHumanoids/ROSEndEffector/src/UniversalRosEndEffectorExecutor.cpp</title>
<!-- Node1 -->
<g id="node1" class="node"><title>Node1</title>
<polygon fill="#bfbfbf" stroke="black" points="756.5,-358.5 756.5,-399.5 971.5,-399.5 971.5,-358.5 756.5,-358.5"/>
<text text-anchor="start" x="764.5" y="-387.5" font-family="Helvetica,sans-Serif" font-size="10.00">/home/travis/build</text>
<text text-anchor="start" x="764.5" y="-376.5" font-family="Helvetica,sans-Serif" font-size="10.00">/ADVRHumanoids/ROSEndEffector</text>
<text text-anchor="middle" x="864" y="-365.5" font-family="Helvetica,sans-Serif" font-size="10.00">/src/UniversalRosEndEffectorExecutor.cpp</text>
</g>
<!-- Node2 -->
<g id="node2" class="node"><title>Node2</title>
<g id="a_node2"><a xlink:href="UniversalRosEndEffectorExecutor_8h.html" target="_top" xlink:title="ROSEndEffector/Universal\lRosEndEffectorExecutor.h">
<polygon fill="none" stroke="black" points="794,-291.5 794,-321.5 934,-321.5 934,-291.5 794,-291.5"/>
<text text-anchor="start" x="802" y="-309.5" font-family="Helvetica,sans-Serif" font-size="10.00">ROSEndEffector/Universal</text>
<text text-anchor="middle" x="864" y="-298.5" font-family="Helvetica,sans-Serif" font-size="10.00">RosEndEffectorExecutor.h</text>
</a>
</g>
</g>
<!-- Node1&#45;&gt;Node2 -->
<g id="edge1" class="edge"><title>Node1&#45;&gt;Node2</title>
<path fill="none" stroke="midnightblue" d="M864,-358.362C864,-350.226 864,-340.7 864,-332.105"/>
<polygon fill="midnightblue" stroke="midnightblue" points="867.5,-331.892 864,-321.892 860.5,-331.892 867.5,-331.892"/>
</g>
<!-- Node3 -->
<g id="node3" class="node"><title>Node3</title>
<polygon fill="none" stroke="#bfbfbf" points="701.5,-0.5 701.5,-19.5 758.5,-19.5 758.5,-0.5 701.5,-0.5"/>
<text text-anchor="middle" x="730" y="-7.5" font-family="Helvetica,sans-Serif" font-size="10.00">memory</text>
</g>
<!-- Node2&#45;&gt;Node3 -->
<g id="edge2" class="edge"><title>Node2&#45;&gt;Node3</title>
<path fill="none" stroke="midnightblue" d="M793.757,-302.019C680.69,-295.69 468.638,-280.538 446,-255 425.521,-231.898 400.177,-137.524 486,-56 514.933,-28.5165 629.797,-17.2437 691.051,-13.1129"/>
<polygon fill="midnightblue" stroke="midnightblue" points="691.362,-16.6002 701.117,-12.4659 690.913,-9.61464 691.362,-16.6002"/>
</g>
<!-- Node4 -->
<g id="node4" class="node"><title>Node4</title>
<polygon fill="none" stroke="#bfbfbf" points="955,-56.5 955,-75.5 999,-75.5 999,-56.5 955,-56.5"/>
<text text-anchor="middle" x="977" y="-63.5" font-family="Helvetica,sans-Serif" font-size="10.00">string</text>
</g>
<!-- Node2&#45;&gt;Node4 -->
<g id="edge3" class="edge"><title>Node2&#45;&gt;Node4</title>
<path fill="none" stroke="midnightblue" d="M884.982,-291.383C911.946,-271.834 957.485,-233.711 976,-188 989.753,-154.046 985.233,-110.204 980.954,-85.7009"/>
<polygon fill="midnightblue" stroke="midnightblue" points="984.342,-84.7866 979.012,-75.6301 977.469,-86.1119 984.342,-84.7866"/>
</g>
<!-- Node5 -->
<g id="node5" class="node"><title>Node5</title>
<polygon fill="none" stroke="#bfbfbf" points="455,-230 455,-249 535,-249 535,-230 455,-230"/>
<text text-anchor="middle" x="495" y="-237" font-family="Helvetica,sans-Serif" font-size="10.00">ros/console.h</text>
</g>
<!-- Node2&#45;&gt;Node5 -->
<g id="edge4" class="edge"><title>Node2&#45;&gt;Node5</title>
<path fill="none" stroke="midnightblue" d="M793.898,-297.129C728.728,-288.713 629.172,-274.235 544,-255 539.862,-254.066 535.561,-252.974 531.302,-251.818"/>
<polygon fill="midnightblue" stroke="midnightblue" points="532.111,-248.409 521.535,-249.042 530.198,-255.143 532.111,-248.409"/>
</g>
<!-- Node6 -->
<g id="node6" class="node"><title>Node6</title>
<polygon fill="none" stroke="#bfbfbf" points="553.5,-230 553.5,-249 692.5,-249 692.5,-230 553.5,-230"/>
<text text-anchor="middle" x="623" y="-237" font-family="Helvetica,sans-Serif" font-size="10.00">sensor_msgs/JointState.h</text>
</g>
<!-- Node2&#45;&gt;Node6 -->
<g id="edge5" class="edge"><title>Node2&#45;&gt;Node6</title>
<path fill="none" stroke="midnightblue" d="M812.003,-291.476C767.866,-279.572 705.368,-262.716 664.517,-251.698"/>
<polygon fill="midnightblue" stroke="midnightblue" points="665.188,-248.254 654.622,-249.029 663.365,-255.012 665.188,-248.254"/>
</g>
<!-- Node7 -->
<g id="node7" class="node"><title>Node7</title>
<g id="a_node7"><a xlink:href="Parser_8h.html" target="_top" xlink:title="ROSEndEffector/Parser.h">
<polygon fill="none" stroke="black" points="273,-56.5 273,-75.5 407,-75.5 407,-56.5 273,-56.5"/>
<text text-anchor="middle" x="340" y="-63.5" font-family="Helvetica,sans-Serif" font-size="10.00">ROSEndEffector/Parser.h</text>
</a>
</g>
</g>
<!-- Node2&#45;&gt;Node7 -->
<g id="edge6" class="edge"><title>Node2&#45;&gt;Node7</title>
<path fill="none" stroke="midnightblue" d="M793.854,-306.261C682.266,-306.082 470.988,-299.631 413,-255 358.435,-213.003 344.624,-124.588 341.153,-85.8534"/>
<polygon fill="midnightblue" stroke="midnightblue" points="344.617,-85.2419 340.374,-75.5337 337.637,-85.7688 344.617,-85.2419"/>
</g>
<!-- Node13 -->
<g id="node13" class="node"><title>Node13</title>
<g id="a_node13"><a xlink:href="EEInterface_8h.html" target="_top" xlink:title="ROSEndEffector/EEInterface.h">
<polygon fill="none" stroke="black" points="582,-112.5 582,-131.5 740,-131.5 740,-112.5 582,-112.5"/>
<text text-anchor="middle" x="661" y="-119.5" font-family="Helvetica,sans-Serif" font-size="10.00">ROSEndEffector/EEInterface.h</text>
</a>
</g>
</g>
<!-- Node2&#45;&gt;Node13 -->
<g id="edge13" class="edge"><title>Node2&#45;&gt;Node13</title>
<path fill="none" stroke="midnightblue" d="M862.861,-291.393C860.987,-274.438 856.156,-245.579 844,-224 826.724,-193.333 817.766,-186.785 788,-168 763.463,-152.515 732.89,-141.472 707.889,-134.201"/>
<polygon fill="midnightblue" stroke="midnightblue" points="708.829,-130.829 698.255,-131.503 706.941,-137.57 708.829,-130.829"/>
</g>
<!-- Node17 -->
<g id="node17" class="node"><title>Node17</title>
<g id="a_node17"><a xlink:href="EEHal_8h.html" target="_top" xlink:title="ROSEndEffector/EEHal.h">
<polygon fill="none" stroke="black" points="836.5,-168.5 836.5,-187.5 967.5,-187.5 967.5,-168.5 836.5,-168.5"/>
<text text-anchor="middle" x="902" y="-175.5" font-family="Helvetica,sans-Serif" font-size="10.00">ROSEndEffector/EEHal.h</text>
</a>
</g>
</g>
<!-- Node2&#45;&gt;Node17 -->
<g id="edge19" class="edge"><title>Node2&#45;&gt;Node17</title>
<path fill="none" stroke="midnightblue" d="M868.212,-291.479C875.11,-268.514 888.816,-222.889 896.482,-197.37"/>
<polygon fill="midnightblue" stroke="midnightblue" points="899.835,-198.373 899.36,-187.789 893.131,-196.359 899.835,-198.373"/>
</g>
<!-- Node19 -->
<g id="node19" class="node"><title>Node19</title>
<g id="a_node19"><a xlink:href="DummyHal_8h.html" target="_top" xlink:title="ROSEndEffector/DummyHal.h">
<polygon fill="none" stroke="black" points="968,-230 968,-249 1126,-249 1126,-230 968,-230"/>
<text text-anchor="middle" x="1047" y="-237" font-family="Helvetica,sans-Serif" font-size="10.00">ROSEndEffector/DummyHal.h</text>
</a>
</g>
</g>
<!-- Node2&#45;&gt;Node19 -->
<g id="edge26" class="edge"><title>Node2&#45;&gt;Node19</title>
<path fill="none" stroke="midnightblue" d="M903.708,-291.396C936.528,-279.739 982.603,-263.373 1013.56,-252.376"/>
<polygon fill="midnightblue" stroke="midnightblue" points="1014.8,-255.652 1023.05,-249.007 1012.45,-249.056 1014.8,-255.652"/>
</g>
<!-- Node20 -->
<g id="node20" class="node"><title>Node20</title>
<g id="a_node20"><a xlink:href="Utils_8h.html" target="_top" xlink:title="ROSEndEffector/Utils.h">
<polygon fill="none" stroke="black" points="710.5,-230 710.5,-249 835.5,-249 835.5,-230 710.5,-230"/>
<text text-anchor="middle" x="773" y="-237" font-family="Helvetica,sans-Serif" font-size="10.00">ROSEndEffector/Utils.h</text>
</a>
</g>
</g>
<!-- Node2&#45;&gt;Node20 -->
<g id="edge30" class="edge"><title>Node2&#45;&gt;Node20</title>
<path fill="none" stroke="midnightblue" d="M844.254,-291.396C829.135,-280.597 808.359,-265.756 793.142,-254.887"/>
<polygon fill="midnightblue" stroke="midnightblue" points="795.082,-251.971 784.91,-249.007 791.013,-257.667 795.082,-251.971"/>
</g>
<!-- Node22 -->
<g id="node22" class="node"><title>Node22</title>
<polygon fill="none" stroke="#bfbfbf" points="1144,-224.5 1144,-254.5 1284,-254.5 1284,-224.5 1144,-224.5"/>
<text text-anchor="start" x="1152" y="-242.5" font-family="Helvetica,sans-Serif" font-size="10.00">ros_end_effector/EEGrasp</text>
<text text-anchor="middle" x="1214" y="-231.5" font-family="Helvetica,sans-Serif" font-size="10.00">Control.h</text>
</g>
<!-- Node2&#45;&gt;Node22 -->
<g id="edge33" class="edge"><title>Node2&#45;&gt;Node22</title>
<path fill="none" stroke="midnightblue" d="M934.407,-292.424C992.08,-281.714 1073.69,-266.557 1133.86,-255.382"/>
<polygon fill="midnightblue" stroke="midnightblue" points="1134.51,-258.822 1143.71,-253.555 1133.23,-251.939 1134.51,-258.822"/>
</g>
<!-- Node23 -->
<g id="node23" class="node"><title>Node23</title>
<polygon fill="none" stroke="#bfbfbf" points="1302.5,-224.5 1302.5,-254.5 1439.5,-254.5 1439.5,-224.5 1302.5,-224.5"/>
<text text-anchor="start" x="1310.5" y="-242.5" font-family="Helvetica,sans-Serif" font-size="10.00">ros_end_effector/EEPinch</text>
<text text-anchor="middle" x="1371" y="-231.5" font-family="Helvetica,sans-Serif" font-size="10.00">Control.h</text>
</g>
<!-- Node2&#45;&gt;Node23 -->
<g id="edge34" class="edge"><title>Node2&#45;&gt;Node23</title>
<path fill="none" stroke="midnightblue" d="M934.04,-298.703C1017.05,-290.321 1159.77,-274.89 1292.22,-255.056"/>
<polygon fill="midnightblue" stroke="midnightblue" points="1292.77,-258.511 1302.14,-253.558 1291.73,-251.59 1292.77,-258.511"/>
</g>
<!-- Node7&#45;&gt;Node3 -->
<g id="edge7" class="edge"><title>Node7&#45;&gt;Node3</title>
<path fill="none" stroke="midnightblue" d="M401.797,-56.4435C482.94,-45.2083 623.027,-25.8116 690.895,-16.4146"/>
<polygon fill="midnightblue" stroke="midnightblue" points="691.721,-19.8336 701.147,-14.9951 690.761,-12.8998 691.721,-19.8336"/>
</g>
<!-- Node8 -->
<g id="node8" class="node"><title>Node8</title>
<polygon fill="none" stroke="#bfbfbf" points="544.5,-0.5 544.5,-19.5 603.5,-19.5 603.5,-0.5 544.5,-0.5"/>
<text text-anchor="middle" x="574" y="-7.5" font-family="Helvetica,sans-Serif" font-size="10.00">ros/ros.h</text>
</g>
<!-- Node7&#45;&gt;Node8 -->
<g id="edge8" class="edge"><title>Node7&#45;&gt;Node8</title>
<path fill="none" stroke="midnightblue" d="M377.078,-56.4435C419.999,-46.5387 490.408,-30.2905 534.38,-20.143"/>
<polygon fill="midnightblue" stroke="midnightblue" points="535.192,-23.5477 544.149,-17.8886 533.618,-16.7269 535.192,-23.5477"/>
</g>
<!-- Node9 -->
<g id="node9" class="node"><title>Node9</title>
<polygon fill="none" stroke="#bfbfbf" points="0,-0.5 0,-19.5 96,-19.5 96,-0.5 0,-0.5"/>
<text text-anchor="middle" x="48" y="-7.5" font-family="Helvetica,sans-Serif" font-size="10.00">yaml&#45;cpp/yaml.h</text>
</g>
<!-- Node7&#45;&gt;Node9 -->
<g id="edge9" class="edge"><title>Node7&#45;&gt;Node9</title>
<path fill="none" stroke="midnightblue" d="M293.732,-56.4435C242.259,-46.9246 159.107,-31.5472 104.001,-21.3563"/>
<polygon fill="midnightblue" stroke="midnightblue" points="104.522,-17.8933 94.0518,-19.5164 103.249,-24.7766 104.522,-17.8933"/>
</g>
<!-- Node10 -->
<g id="node10" class="node"><title>Node10</title>
<polygon fill="none" stroke="#bfbfbf" points="114,-0.5 114,-19.5 252,-19.5 252,-0.5 114,-0.5"/>
<text text-anchor="middle" x="183" y="-7.5" font-family="Helvetica,sans-Serif" font-size="10.00">urdf_parser/urdf_parser.h</text>
</g>
<!-- Node7&#45;&gt;Node10 -->
<g id="edge10" class="edge"><title>Node7&#45;&gt;Node10</title>
<path fill="none" stroke="midnightblue" d="M315.123,-56.4435C288.711,-47.3591 246.785,-32.9388 217.258,-22.7831"/>
<polygon fill="midnightblue" stroke="midnightblue" points="218.355,-19.4593 207.761,-19.5164 216.079,-26.0787 218.355,-19.4593"/>
</g>
<!-- Node11 -->
<g id="node11" class="node"><title>Node11</title>
<polygon fill="none" stroke="#bfbfbf" points="270,-0.5 270,-19.5 410,-19.5 410,-0.5 270,-0.5"/>
<text text-anchor="middle" x="340" y="-7.5" font-family="Helvetica,sans-Serif" font-size="10.00">kdl_parser/kdl_parser.hpp</text>
</g>
<!-- Node7&#45;&gt;Node11 -->
<g id="edge11" class="edge"><title>Node7&#45;&gt;Node11</title>
<path fill="none" stroke="midnightblue" d="M340,-56.083C340,-49.0059 340,-38.8611 340,-29.9865"/>
<polygon fill="midnightblue" stroke="midnightblue" points="343.5,-29.751 340,-19.7511 336.5,-29.7511 343.5,-29.751"/>
</g>
<!-- Node12 -->
<g id="node12" class="node"><title>Node12</title>
<polygon fill="none" stroke="#bfbfbf" points="428,-0.5 428,-19.5 526,-19.5 526,-0.5 428,-0.5"/>
<text text-anchor="middle" x="477" y="-7.5" font-family="Helvetica,sans-Serif" font-size="10.00">srdfdom/model.h</text>
</g>
<!-- Node7&#45;&gt;Node12 -->
<g id="edge12" class="edge"><title>Node7&#45;&gt;Node12</title>
<path fill="none" stroke="midnightblue" d="M361.708,-56.4435C384.355,-47.5171 420.072,-33.4387 445.752,-23.3168"/>
<polygon fill="midnightblue" stroke="midnightblue" points="447.374,-26.4397 455.394,-19.5164 444.807,-19.9273 447.374,-26.4397"/>
</g>
<!-- Node13&#45;&gt;Node3 -->
<g id="edge16" class="edge"><title>Node13&#45;&gt;Node3</title>
<path fill="none" stroke="midnightblue" d="M673.615,-112.424C684.7,-104.269 700.503,-91.0397 710,-76 718.963,-61.8051 724.139,-43.3266 726.971,-29.7018"/>
<polygon fill="midnightblue" stroke="midnightblue" points="730.462,-30.0673 728.829,-19.5992 723.577,-28.8011 730.462,-30.0673"/>
</g>
<!-- Node13&#45;&gt;Node7 -->
<g id="edge17" class="edge"><title>Node13&#45;&gt;Node7</title>
<path fill="none" stroke="midnightblue" d="M610.137,-112.444C553.317,-102.885 461.383,-87.4195 400.81,-77.2298"/>
<polygon fill="midnightblue" stroke="midnightblue" points="401.068,-73.7239 390.625,-75.5164 399.906,-80.6269 401.068,-73.7239"/>
</g>
<!-- Node14 -->
<g id="node14" class="node"><title>Node14</title>
<polygon fill="none" stroke="#bfbfbf" points="598,-56.5 598,-75.5 636,-75.5 636,-56.5 598,-56.5"/>
<text text-anchor="middle" x="617" y="-63.5" font-family="Helvetica,sans-Serif" font-size="10.00">map</text>
</g>
<!-- Node13&#45;&gt;Node14 -->
<g id="edge14" class="edge"><title>Node13&#45;&gt;Node14</title>
<path fill="none" stroke="midnightblue" d="M653.734,-112.083C647.455,-104.377 638.212,-93.0333 630.569,-83.6531"/>
<polygon fill="midnightblue" stroke="midnightblue" points="633.161,-81.2926 624.131,-75.7511 627.734,-85.7143 633.161,-81.2926"/>
</g>
<!-- Node15 -->
<g id="node15" class="node"><title>Node15</title>
<polygon fill="none" stroke="#bfbfbf" points="654.5,-56.5 654.5,-75.5 701.5,-75.5 701.5,-56.5 654.5,-56.5"/>
<text text-anchor="middle" x="678" y="-63.5" font-family="Helvetica,sans-Serif" font-size="10.00">vector</text>
</g>
<!-- Node13&#45;&gt;Node15 -->
<g id="edge15" class="edge"><title>Node13&#45;&gt;Node15</title>
<path fill="none" stroke="midnightblue" d="M663.807,-112.083C666.085,-104.849 669.371,-94.4087 672.208,-85.3968"/>
<polygon fill="midnightblue" stroke="midnightblue" points="675.581,-86.3406 675.245,-75.7511 668.904,-84.2385 675.581,-86.3406"/>
</g>
<!-- Node16 -->
<g id="node16" class="node"><title>Node16</title>
<polygon fill="none" stroke="#bfbfbf" points="502.5,-56.5 502.5,-75.5 579.5,-75.5 579.5,-56.5 502.5,-56.5"/>
<text text-anchor="middle" x="541" y="-63.5" font-family="Helvetica,sans-Serif" font-size="10.00">Eigen/Dense</text>
</g>
<!-- Node13&#45;&gt;Node16 -->
<g id="edge18" class="edge"><title>Node13&#45;&gt;Node16</title>
<path fill="none" stroke="midnightblue" d="M641.986,-112.444C622.412,-103.636 591.692,-89.8116 569.271,-79.722"/>
<polygon fill="midnightblue" stroke="midnightblue" points="570.481,-76.4284 559.925,-75.5164 567.608,-82.8119 570.481,-76.4284"/>
</g>
<!-- Node17&#45;&gt;Node3 -->
<g id="edge25" class="edge"><title>Node17&#45;&gt;Node3</title>
<path fill="none" stroke="midnightblue" d="M859.256,-168.479C835.572,-161.903 806.968,-150.668 787,-132 756.573,-103.554 740.801,-55.5653 734.085,-29.3864"/>
<polygon fill="midnightblue" stroke="midnightblue" points="737.479,-28.5314 731.745,-19.6226 730.672,-30.163 737.479,-28.5314"/>
</g>
<!-- Node17&#45;&gt;Node4 -->
<g id="edge24" class="edge"><title>Node17&#45;&gt;Node4</title>
<path fill="none" stroke="midnightblue" d="M909.804,-168.363C917.608,-159.536 929.748,-145.277 939,-132 949.719,-116.617 960.356,-98.066 967.638,-84.7267"/>
<polygon fill="midnightblue" stroke="midnightblue" points="970.848,-86.1463 972.498,-75.6806 964.682,-82.8333 970.848,-86.1463"/>
</g>
<!-- Node17&#45;&gt;Node13 -->
<g id="edge23" class="edge"><title>Node17&#45;&gt;Node13</title>
<path fill="none" stroke="midnightblue" d="M863.813,-168.444C821.859,-159.043 754.406,-143.929 708.929,-133.739"/>
<polygon fill="midnightblue" stroke="midnightblue" points="709.532,-130.288 699.009,-131.516 708.001,-137.118 709.532,-130.288"/>
</g>
<!-- Node18 -->
<g id="node18" class="node"><title>Node18</title>
<g id="a_node18"><a xlink:href="IMotor_8h.html" target="_top" xlink:title="ROSEndEffector/IMotor.h">
<polygon fill="none" stroke="black" points="796,-112.5 796,-131.5 930,-131.5 930,-112.5 796,-112.5"/>
<text text-anchor="middle" x="863" y="-119.5" font-family="Helvetica,sans-Serif" font-size="10.00">ROSEndEffector/IMotor.h</text>
</a>
</g>
</g>
<!-- Node17&#45;&gt;Node18 -->
<g id="edge20" class="edge"><title>Node17&#45;&gt;Node18</title>
<path fill="none" stroke="midnightblue" d="M895.56,-168.083C890.051,-160.455 881.969,-149.264 875.235,-139.941"/>
<polygon fill="midnightblue" stroke="midnightblue" points="878.013,-137.809 869.32,-131.751 872.338,-141.907 878.013,-137.809"/>
</g>
<!-- Node18&#45;&gt;Node3 -->
<g id="edge22" class="edge"><title>Node18&#45;&gt;Node3</title>
<path fill="none" stroke="midnightblue" d="M852.564,-112.368C830.032,-93.7334 776.589,-49.5324 748.298,-26.1338"/>
<polygon fill="midnightblue" stroke="midnightblue" points="750.324,-23.2677 740.388,-19.5914 745.863,-28.6618 750.324,-23.2677"/>
</g>
<!-- Node18&#45;&gt;Node4 -->
<g id="edge21" class="edge"><title>Node18&#45;&gt;Node4</title>
<path fill="none" stroke="midnightblue" d="M881.064,-112.444C899.575,-103.675 928.581,-89.9355 949.855,-79.8579"/>
<polygon fill="midnightblue" stroke="midnightblue" points="951.482,-82.9604 959.021,-75.5164 948.485,-76.6343 951.482,-82.9604"/>
</g>
<!-- Node19&#45;&gt;Node3 -->
<g id="edge29" class="edge"><title>Node19&#45;&gt;Node3</title>
<path fill="none" stroke="midnightblue" d="M1048.41,-229.774C1052.68,-199.782 1062.14,-100.344 1008,-56 972.097,-26.5931 836.561,-16.054 768.908,-12.5708"/>
<polygon fill="midnightblue" stroke="midnightblue" points="768.817,-9.06231 758.658,-12.0705 768.476,-16.054 768.817,-9.06231"/>
</g>
<!-- Node19&#45;&gt;Node4 -->
<g id="edge28" class="edge"><title>Node19&#45;&gt;Node4</title>
<path fill="none" stroke="midnightblue" d="M1045.54,-229.835C1041.78,-208.789 1030.57,-153.65 1010,-112 1005.02,-101.921 997.778,-91.7336 991.344,-83.6072"/>
<polygon fill="midnightblue" stroke="midnightblue" points="993.888,-81.1903 984.826,-75.7006 988.486,-85.643 993.888,-81.1903"/>
</g>
<!-- Node19&#45;&gt;Node17 -->
<g id="edge27" class="edge"><title>Node19&#45;&gt;Node17</title>
<path fill="none" stroke="midnightblue" d="M1026.23,-229.975C1001.57,-219.857 960.255,-202.905 932.098,-191.351"/>
<polygon fill="midnightblue" stroke="midnightblue" points="933.317,-188.067 922.736,-187.509 930.659,-194.543 933.317,-188.067"/>
</g>
<!-- Node20&#45;&gt;Node3 -->
<g id="edge32" class="edge"><title>Node20&#45;&gt;Node3</title>
<path fill="none" stroke="midnightblue" d="M734.298,-229.966C669.589,-213.311 541.732,-169.597 493,-76 488.895,-68.1157 487.331,-62.8466 493,-56 505.524,-40.8741 626.913,-23.7573 690.924,-15.686"/>
<polygon fill="midnightblue" stroke="midnightblue" points="691.562,-19.1337 701.052,-14.424 690.696,-12.1874 691.562,-19.1337"/>
</g>
<!-- Node21 -->
<g id="node21" class="node"><title>Node21</title>
<polygon fill="none" stroke="#bfbfbf" points="732.5,-168.5 732.5,-187.5 779.5,-187.5 779.5,-168.5 732.5,-168.5"/>
<text text-anchor="middle" x="756" y="-175.5" font-family="Helvetica,sans-Serif" font-size="10.00">cmath</text>
</g>
<!-- Node20&#45;&gt;Node21 -->
<g id="edge31" class="edge"><title>Node20&#45;&gt;Node21</title>
<path fill="none" stroke="midnightblue" d="M770.564,-229.975C768.141,-221.492 764.344,-208.204 761.235,-197.322"/>
<polygon fill="midnightblue" stroke="midnightblue" points="764.544,-196.163 758.431,-187.509 757.813,-198.086 764.544,-196.163"/>
</g>
</g>
</svg>
