<?xml version="1.0" encoding="UTF-8" standalone="no"?>
<!DOCTYPE svg PUBLIC "-//W3C//DTD SVG 1.1//EN"
 "http://www.w3.org/Graphics/SVG/1.1/DTD/svg11.dtd">
<!-- Generated by graphviz version 2.38.0 (20140413.2041)
 -->
<!-- Title: /home/lucamuratore/src/ros_end_effector__ws/src/ROSEndEffector/src/UniversalRosEndEffector.cpp Pages: 1 -->
<svg width="959pt" height="285pt"
 viewBox="0.00 0.00 959.00 285.00" xmlns="http://www.w3.org/2000/svg" xmlns:xlink="http://www.w3.org/1999/xlink">
<g id="graph0" class="graph" transform="scale(1 1) rotate(0) translate(4 281)">
<title>/home/lucamuratore/src/ros_end_effector__ws/src/ROSEndEffector/src/UniversalRosEndEffector.cpp</title>
<!-- Node1 -->
<g id="node1" class="node"><title>Node1</title>
<polygon fill="#bfbfbf" stroke="black" points="203.5,-224.5 203.5,-276.5 369.5,-276.5 369.5,-224.5 203.5,-224.5"/>
<text text-anchor="start" x="211.5" y="-264.5" font-family="Helvetica,sans-Serif" font-size="10.00">/home/lucamuratore</text>
<text text-anchor="start" x="211.5" y="-253.5" font-family="Helvetica,sans-Serif" font-size="10.00">/src/ros_end_effector</text>
<text text-anchor="start" x="211.5" y="-242.5" font-family="Helvetica,sans-Serif" font-size="10.00">__ws/src/ROSEndEffector</text>
<text text-anchor="middle" x="286.5" y="-231.5" font-family="Helvetica,sans-Serif" font-size="10.00">/src/UniversalRosEndEffector.cpp</text>
</g>
<!-- Node2 -->
<g id="node2" class="node"><title>Node2</title>
<polygon fill="none" stroke="#bfbfbf" points="60,-112.5 60,-131.5 115,-131.5 115,-112.5 60,-112.5"/>
<text text-anchor="middle" x="87.5" y="-119.5" font-family="Helvetica,sans-Serif" font-size="10.00">ros/ros.h</text>
</g>
<!-- Node1&#45;&gt;Node2 -->
<g id="edge1" class="edge"><title>Node1&#45;&gt;Node2</title>
<path fill="none" stroke="midnightblue" d="M286.812,-224.136C285.645,-206.141 281.087,-182.67 266.5,-168 261.453,-162.925 176.241,-143.01 125.234,-131.445"/>
<polygon fill="midnightblue" stroke="midnightblue" points="125.742,-127.971 115.216,-129.181 124.199,-134.799 125.742,-127.971"/>
</g>
<!-- Node3 -->
<g id="node3" class="node"><title>Node3</title>
<polygon fill="none" stroke="#bfbfbf" points="34,-168.5 34,-187.5 109,-187.5 109,-168.5 34,-168.5"/>
<text text-anchor="middle" x="71.5" y="-175.5" font-family="Helvetica,sans-Serif" font-size="10.00">ros/console.h</text>
</g>
<!-- Node1&#45;&gt;Node3 -->
<g id="edge2" class="edge"><title>Node1&#45;&gt;Node3</title>
<path fill="none" stroke="midnightblue" d="M210.094,-224.446C175.05,-212.955 135.183,-199.882 107.232,-190.717"/>
<polygon fill="midnightblue" stroke="midnightblue" points="108.097,-187.317 97.5042,-187.527 105.916,-193.969 108.097,-187.317"/>
</g>
<!-- Node4 -->
<g id="node4" class="node"><title>Node4</title>
<polygon fill="none" stroke="#bfbfbf" points="127,-168.5 127,-187.5 258,-187.5 258,-168.5 127,-168.5"/>
<text text-anchor="middle" x="192.5" y="-175.5" font-family="Helvetica,sans-Serif" font-size="10.00">sensor_msgs/JointState.h</text>
</g>
<!-- Node1&#45;&gt;Node4 -->
<g id="edge3" class="edge"><title>Node1&#45;&gt;Node4</title>
<path fill="none" stroke="midnightblue" d="M253.094,-224.446C239.47,-214.227 224.178,-202.758 212.364,-193.898"/>
<polygon fill="midnightblue" stroke="midnightblue" points="214.194,-190.896 204.094,-187.695 209.994,-196.496 214.194,-190.896"/>
</g>
<!-- Node5 -->
<g id="node5" class="node"><title>Node5</title>
<g id="a_node5"><a xlink:href="Parser_8h.html" target="_top" xlink:title="ROSEndEffector/Parser.h">
<polygon fill="none" stroke="black" points="314.5,-168.5 314.5,-187.5 444.5,-187.5 444.5,-168.5 314.5,-168.5"/>
<text text-anchor="middle" x="379.5" y="-175.5" font-family="Helvetica,sans-Serif" font-size="10.00">ROSEndEffector/Parser.h</text>
</a>
</g>
</g>
<!-- Node1&#45;&gt;Node5 -->
<g id="edge4" class="edge"><title>Node1&#45;&gt;Node5</title>
<path fill="none" stroke="midnightblue" d="M319.55,-224.446C333.03,-214.227 348.159,-202.758 359.847,-193.898"/>
<polygon fill="midnightblue" stroke="midnightblue" points="362.175,-196.526 368.029,-187.695 357.946,-190.947 362.175,-196.526"/>
</g>
<!-- Node11 -->
<g id="node11" class="node"><title>Node11</title>
<g id="a_node11"><a xlink:href="EEInterface_8h.html" target="_top" xlink:title="ROSEndEffector/EEInterface.h">
<polygon fill="none" stroke="black" points="0,-56.5 0,-75.5 153,-75.5 153,-56.5 0,-56.5"/>
<text text-anchor="middle" x="76.5" y="-63.5" font-family="Helvetica,sans-Serif" font-size="10.00">ROSEndEffector/EEInterface.h</text>
</a>
</g>
</g>
<!-- Node1&#45;&gt;Node11 -->
<g id="edge15" class="edge"><title>Node1&#45;&gt;Node11</title>
<path fill="none" stroke="midnightblue" d="M203.167,-241.12C135.074,-232.347 46.5902,-215.876 24.5,-188 -1.51235,-155.175 36.3237,-107.374 59.9551,-82.8352"/>
<polygon fill="midnightblue" stroke="midnightblue" points="62.4515,-85.2885 67.0296,-75.7338 57.4924,-80.3481 62.4515,-85.2885"/>
</g>
<!-- Node14 -->
<g id="node14" class="node"><title>Node14</title>
<g id="a_node14"><a xlink:href="EEHal_8h.html" target="_top" xlink:title="ROSEndEffector/EEHal.h">
<polygon fill="none" stroke="black" points="755.5,-112.5 755.5,-131.5 885.5,-131.5 885.5,-112.5 755.5,-112.5"/>
<text text-anchor="middle" x="820.5" y="-119.5" font-family="Helvetica,sans-Serif" font-size="10.00">ROSEndEffector/EEHal.h</text>
</a>
</g>
</g>
<!-- Node1&#45;&gt;Node14 -->
<g id="edge16" class="edge"><title>Node1&#45;&gt;Node14</title>
<path fill="none" stroke="midnightblue" d="M369.63,-244.848C508.027,-236.345 773.707,-216.508 805.5,-188 818.28,-176.54 821.29,-156.561 821.558,-141.77"/>
<polygon fill="midnightblue" stroke="midnightblue" points="825.056,-141.62 821.346,-131.696 818.058,-141.768 825.056,-141.62"/>
</g>
<!-- Node17 -->
<g id="node17" class="node"><title>Node17</title>
<g id="a_node17"><a xlink:href="DummyHal_8h.html" target="_top" xlink:title="ROSEndEffector/DummyHal.h">
<polygon fill="none" stroke="black" points="646,-168.5 646,-187.5 797,-187.5 797,-168.5 646,-168.5"/>
<text text-anchor="middle" x="721.5" y="-175.5" font-family="Helvetica,sans-Serif" font-size="10.00">ROSEndEffector/DummyHal.h</text>
</a>
</g>
</g>
<!-- Node1&#45;&gt;Node17 -->
<g id="edge23" class="edge"><title>Node1&#45;&gt;Node17</title>
<path fill="none" stroke="midnightblue" d="M369.601,-236.032C453.973,-222.358 582.722,-201.492 658.863,-189.151"/>
<polygon fill="midnightblue" stroke="midnightblue" points="659.481,-192.597 668.792,-187.542 658.361,-185.687 659.481,-192.597"/>
</g>
<!-- Node5&#45;&gt;Node2 -->
<g id="edge6" class="edge"><title>Node5&#45;&gt;Node2</title>
<path fill="none" stroke="midnightblue" d="M329.13,-168.436C278.576,-159.723 198.512,-145.601 129.5,-132 128.037,-131.712 126.546,-131.413 125.04,-131.109"/>
<polygon fill="midnightblue" stroke="midnightblue" points="125.538,-127.637 115.036,-129.036 124.118,-134.492 125.538,-127.637"/>
</g>
<!-- Node6 -->
<g id="node6" class="node"><title>Node6</title>
<polygon fill="none" stroke="#bfbfbf" points="680.5,-0.5 680.5,-19.5 732.5,-19.5 732.5,-0.5 680.5,-0.5"/>
<text text-anchor="middle" x="706.5" y="-7.5" font-family="Helvetica,sans-Serif" font-size="10.00">memory</text>
</g>
<!-- Node5&#45;&gt;Node6 -->
<g id="edge5" class="edge"><title>Node5&#45;&gt;Node6</title>
<path fill="none" stroke="midnightblue" d="M314.368,-169.071C269.169,-162.075 214.637,-150.131 200.5,-132 195.034,-124.99 194.863,-118.873 200.5,-112 260.363,-39.0076 564.625,-17.7446 670.29,-12.5091"/>
<polygon fill="midnightblue" stroke="midnightblue" points="670.633,-15.9968 680.456,-12.025 670.3,-9.00473 670.633,-15.9968"/>
</g>
<!-- Node7 -->
<g id="node7" class="node"><title>Node7</title>
<polygon fill="none" stroke="#bfbfbf" points="210,-112.5 210,-131.5 299,-131.5 299,-112.5 210,-112.5"/>
<text text-anchor="middle" x="254.5" y="-119.5" font-family="Helvetica,sans-Serif" font-size="10.00">yaml&#45;cpp/yaml.h</text>
</g>
<!-- Node5&#45;&gt;Node7 -->
<g id="edge7" class="edge"><title>Node5&#45;&gt;Node7</title>
<path fill="none" stroke="midnightblue" d="M359.693,-168.444C339.213,-159.596 307.017,-145.687 283.635,-135.586"/>
<polygon fill="midnightblue" stroke="midnightblue" points="284.782,-132.269 274.214,-131.516 282.006,-138.695 284.782,-132.269"/>
</g>
<!-- Node8 -->
<g id="node8" class="node"><title>Node8</title>
<polygon fill="none" stroke="#bfbfbf" points="317,-112.5 317,-131.5 442,-131.5 442,-112.5 317,-112.5"/>
<text text-anchor="middle" x="379.5" y="-119.5" font-family="Helvetica,sans-Serif" font-size="10.00">urdf_parser/urdf_parser.h</text>
</g>
<!-- Node5&#45;&gt;Node8 -->
<g id="edge8" class="edge"><title>Node5&#45;&gt;Node8</title>
<path fill="none" stroke="midnightblue" d="M379.5,-168.083C379.5,-161.006 379.5,-150.861 379.5,-141.986"/>
<polygon fill="midnightblue" stroke="midnightblue" points="383,-141.751 379.5,-131.751 376,-141.751 383,-141.751"/>
</g>
<!-- Node9 -->
<g id="node9" class="node"><title>Node9</title>
<polygon fill="none" stroke="#bfbfbf" points="460.5,-112.5 460.5,-131.5 588.5,-131.5 588.5,-112.5 460.5,-112.5"/>
<text text-anchor="middle" x="524.5" y="-119.5" font-family="Helvetica,sans-Serif" font-size="10.00">kdl_parser/kdl_parser.hpp</text>
</g>
<!-- Node5&#45;&gt;Node9 -->
<g id="edge9" class="edge"><title>Node5&#45;&gt;Node9</title>
<path fill="none" stroke="midnightblue" d="M402.476,-168.444C426.657,-159.438 464.918,-145.189 492.146,-135.049"/>
<polygon fill="midnightblue" stroke="midnightblue" points="493.482,-138.286 501.632,-131.516 491.039,-131.727 493.482,-138.286"/>
</g>
<!-- Node10 -->
<g id="node10" class="node"><title>Node10</title>
<polygon fill="none" stroke="#bfbfbf" points="607,-112.5 607,-131.5 696,-131.5 696,-112.5 607,-112.5"/>
<text text-anchor="middle" x="651.5" y="-119.5" font-family="Helvetica,sans-Serif" font-size="10.00">srdfdom/model.h</text>
</g>
<!-- Node5&#45;&gt;Node10 -->
<g id="edge10" class="edge"><title>Node5&#45;&gt;Node10</title>
<path fill="none" stroke="midnightblue" d="M422.599,-168.444C470.347,-158.964 547.361,-143.675 598.694,-133.483"/>
<polygon fill="midnightblue" stroke="midnightblue" points="599.475,-136.897 608.602,-131.516 598.112,-130.031 599.475,-136.897"/>
</g>
<!-- Node5&#45;&gt;Node11 -->
<g id="edge11" class="edge"><title>Node5&#45;&gt;Node11</title>
<path fill="none" stroke="midnightblue" d="M314.296,-170.197C271.238,-164.029 214.333,-152.618 167.5,-132 139.097,-119.496 110.686,-97.2656 93.3495,-82.3299"/>
<polygon fill="midnightblue" stroke="midnightblue" points="95.5943,-79.643 85.7774,-75.6583 90.9668,-84.8953 95.5943,-79.643"/>
</g>
<!-- Node11&#45;&gt;Node6 -->
<g id="edge14" class="edge"><title>Node11&#45;&gt;Node6</title>
<path fill="none" stroke="midnightblue" d="M153.446,-57.3065C158.201,-56.857 162.915,-56.4181 167.5,-56 356.69,-38.748 583.482,-20.6594 670.287,-13.8311"/>
<polygon fill="midnightblue" stroke="midnightblue" points="670.71,-17.3088 680.405,-13.0363 670.162,-10.3302 670.71,-17.3088"/>
</g>
<!-- Node12 -->
<g id="node12" class="node"><title>Node12</title>
<polygon fill="none" stroke="#bfbfbf" points="30,-0.5 30,-19.5 65,-19.5 65,-0.5 30,-0.5"/>
<text text-anchor="middle" x="47.5" y="-7.5" font-family="Helvetica,sans-Serif" font-size="10.00">map</text>
</g>
<!-- Node11&#45;&gt;Node12 -->
<g id="edge12" class="edge"><title>Node11&#45;&gt;Node12</title>
<path fill="none" stroke="midnightblue" d="M71.7112,-56.083C67.7416,-48.6913 61.9749,-37.9533 57.0652,-28.8111"/>
<polygon fill="midnightblue" stroke="midnightblue" points="60.0145,-26.9051 52.1997,-19.7511 53.8475,-30.217 60.0145,-26.9051"/>
</g>
<!-- Node13 -->
<g id="node13" class="node"><title>Node13</title>
<polygon fill="none" stroke="#bfbfbf" points="83.5,-0.5 83.5,-19.5 127.5,-19.5 127.5,-0.5 83.5,-0.5"/>
<text text-anchor="middle" x="105.5" y="-7.5" font-family="Helvetica,sans-Serif" font-size="10.00">vector</text>
</g>
<!-- Node11&#45;&gt;Node13 -->
<g id="edge13" class="edge"><title>Node11&#45;&gt;Node13</title>
<path fill="none" stroke="midnightblue" d="M81.2888,-56.083C85.2584,-48.6913 91.0251,-37.9533 95.9348,-28.8111"/>
<polygon fill="midnightblue" stroke="midnightblue" points="99.1525,-30.217 100.8,-19.7511 92.9855,-26.9051 99.1525,-30.217"/>
</g>
<!-- Node14&#45;&gt;Node6 -->
<g id="edge22" class="edge"><title>Node14&#45;&gt;Node6</title>
<path fill="none" stroke="midnightblue" d="M808.187,-112.296C796.272,-103.644 777.945,-89.7178 763.5,-76 747.43,-60.7389 730.935,-41.4584 719.852,-27.8722"/>
<polygon fill="midnightblue" stroke="midnightblue" points="722.405,-25.4621 713.409,-19.8659 716.951,-29.8508 722.405,-25.4621"/>
</g>
<!-- Node14&#45;&gt;Node11 -->
<g id="edge20" class="edge"><title>Node14&#45;&gt;Node11</title>
<path fill="none" stroke="midnightblue" d="M755.473,-115.887C738.855,-114.599 721.018,-113.233 704.5,-112 511.466,-97.5957 284.984,-81.5864 163.7,-73.0853"/>
<polygon fill="midnightblue" stroke="midnightblue" points="163.587,-69.5689 153.367,-72.3614 163.098,-76.5518 163.587,-69.5689"/>
</g>
<!-- Node15 -->
<g id="node15" class="node"><title>Node15</title>
<g id="a_node15"><a xlink:href="IMotor_8h.html" target="_top" xlink:title="ROSEndEffector/IMotor.h">
<polygon fill="none" stroke="black" points="773,-56.5 773,-75.5 902,-75.5 902,-56.5 773,-56.5"/>
<text text-anchor="middle" x="837.5" y="-63.5" font-family="Helvetica,sans-Serif" font-size="10.00">ROSEndEffector/IMotor.h</text>
</a>
</g>
</g>
<!-- Node14&#45;&gt;Node15 -->
<g id="edge17" class="edge"><title>Node14&#45;&gt;Node15</title>
<path fill="none" stroke="midnightblue" d="M823.307,-112.083C825.585,-104.849 828.871,-94.4087 831.708,-85.3968"/>
<polygon fill="midnightblue" stroke="midnightblue" points="835.081,-86.3406 834.745,-75.7511 828.404,-84.2385 835.081,-86.3406"/>
</g>
<!-- Node16 -->
<g id="node16" class="node"><title>Node16</title>
<polygon fill="none" stroke="#bfbfbf" points="910,-0.5 910,-19.5 951,-19.5 951,-0.5 910,-0.5"/>
<text text-anchor="middle" x="930.5" y="-7.5" font-family="Helvetica,sans-Serif" font-size="10.00">string</text>
</g>
<!-- Node14&#45;&gt;Node16 -->
<g id="edge21" class="edge"><title>Node14&#45;&gt;Node16</title>
<path fill="none" stroke="midnightblue" d="M852.462,-112.409C872.101,-105.575 896.322,-94.0942 911.5,-76 922.47,-62.9221 927.108,-43.7712 929.068,-29.6422"/>
<polygon fill="midnightblue" stroke="midnightblue" points="932.559,-29.9135 930.136,-19.5996 925.598,-29.1736 932.559,-29.9135"/>
</g>
<!-- Node15&#45;&gt;Node6 -->
<g id="edge19" class="edge"><title>Node15&#45;&gt;Node6</title>
<path fill="none" stroke="midnightblue" d="M816.743,-56.4435C795.184,-47.5566 761.237,-33.5632 736.706,-23.4514"/>
<polygon fill="midnightblue" stroke="midnightblue" points="737.739,-20.0917 727.16,-19.5164 735.072,-26.5634 737.739,-20.0917"/>
</g>
<!-- Node15&#45;&gt;Node16 -->
<g id="edge18" class="edge"><title>Node15&#45;&gt;Node16</title>
<path fill="none" stroke="midnightblue" d="M852.442,-56.324C867.085,-47.8215 889.634,-34.7288 906.738,-24.7975"/>
<polygon fill="midnightblue" stroke="midnightblue" points="908.705,-27.7027 915.595,-19.6545 905.19,-21.6491 908.705,-27.7027"/>
</g>
<!-- Node17&#45;&gt;Node6 -->
<g id="edge26" class="edge"><title>Node17&#45;&gt;Node6</title>
<path fill="none" stroke="midnightblue" d="M720.694,-168.075C718.332,-141.945 711.399,-65.2106 708.179,-29.577"/>
<polygon fill="midnightblue" stroke="midnightblue" points="711.66,-29.2125 707.274,-19.5681 704.688,-29.8425 711.66,-29.2125"/>
</g>
<!-- Node17&#45;&gt;Node14 -->
<g id="edge24" class="edge"><title>Node17&#45;&gt;Node14</title>
<path fill="none" stroke="midnightblue" d="M737.406,-168.324C753.138,-159.743 777.442,-146.486 795.709,-136.522"/>
<polygon fill="midnightblue" stroke="midnightblue" points="797.53,-139.516 804.633,-131.655 794.178,-133.37 797.53,-139.516"/>
</g>
<!-- Node17&#45;&gt;Node16 -->
<g id="edge25" class="edge"><title>Node17&#45;&gt;Node16</title>
<path fill="none" stroke="midnightblue" d="M797.416,-169.66C829.721,-163.555 866.352,-152.392 894.5,-132 918.461,-114.641 922.162,-104.389 930.5,-76 934.927,-60.9262 934.539,-43.0241 933.264,-29.8278"/>
<polygon fill="midnightblue" stroke="midnightblue" points="936.705,-29.1313 932.013,-19.6318 929.757,-29.9835 936.705,-29.1313"/>
</g>
</g>
</svg>
