<?xml version="1.0" encoding="UTF-8" standalone="no"?>
<!DOCTYPE svg PUBLIC "-//W3C//DTD SVG 1.1//EN"
 "http://www.w3.org/Graphics/SVG/1.1/DTD/svg11.dtd">
<!-- Generated by graphviz version 2.38.0 (20140413.2041)
 -->
<!-- Title: /home/travis/build/ADVRHumanoids/ROSEndEffector/src/UniversalRosEndEffector.cpp Pages: 1 -->
<svg width="1337pt" height="408pt"
 viewBox="0.00 0.00 1336.50 408.00" xmlns="http://www.w3.org/2000/svg" xmlns:xlink="http://www.w3.org/1999/xlink">
<g id="graph0" class="graph" transform="scale(1 1) rotate(0) translate(4 404)">
<title>/home/travis/build/ADVRHumanoids/ROSEndEffector/src/UniversalRosEndEffector.cpp</title>
<!-- Node1 -->
<g id="node1" class="node"><title>Node1</title>
<polygon fill="#bfbfbf" stroke="black" points="250,-358.5 250,-399.5 429,-399.5 429,-358.5 250,-358.5"/>
<text text-anchor="start" x="258" y="-387.5" font-family="Helvetica,sans-Serif" font-size="10.00">/home/travis/build</text>
<text text-anchor="start" x="258" y="-376.5" font-family="Helvetica,sans-Serif" font-size="10.00">/ADVRHumanoids/ROSEndEffector</text>
<text text-anchor="middle" x="339.5" y="-365.5" font-family="Helvetica,sans-Serif" font-size="10.00">/src/UniversalRosEndEffector.cpp</text>
</g>
<!-- Node2 -->
<g id="node2" class="node"><title>Node2</title>
<polygon fill="none" stroke="#bfbfbf" points="0,-0.5 0,-19.5 59,-19.5 59,-0.5 0,-0.5"/>
<text text-anchor="middle" x="29.5" y="-7.5" font-family="Helvetica,sans-Serif" font-size="10.00">ros/ros.h</text>
</g>
<!-- Node1&#45;&gt;Node2 -->
<g id="edge1" class="edge"><title>Node1&#45;&gt;Node2</title>
<path fill="none" stroke="midnightblue" d="M249.945,-366.167C177.513,-350.974 87.5,-316.753 87.5,-240.5 87.5,-240.5 87.5,-240.5 87.5,-121 87.5,-84.1633 61.7348,-47.5652 44.5496,-27.2515"/>
<polygon fill="midnightblue" stroke="midnightblue" points="47.0427,-24.7864 37.81,-19.5894 41.7866,-29.4097 47.0427,-24.7864"/>
</g>
<!-- Node3 -->
<g id="node3" class="node"><title>Node3</title>
<g id="a_node3"><a xlink:href="UniversalRosEndEffectorExecutor_8h.html" target="_top" xlink:title="ROSEndEffector/Universal\lRosEndEffectorExecutor.h">
<polygon fill="none" stroke="black" points="532.5,-291.5 532.5,-321.5 672.5,-321.5 672.5,-291.5 532.5,-291.5"/>
<text text-anchor="start" x="540.5" y="-309.5" font-family="Helvetica,sans-Serif" font-size="10.00">ROSEndEffector/Universal</text>
<text text-anchor="middle" x="602.5" y="-298.5" font-family="Helvetica,sans-Serif" font-size="10.00">RosEndEffectorExecutor.h</text>
</a>
</g>
</g>
<!-- Node1&#45;&gt;Node3 -->
<g id="edge2" class="edge"><title>Node1&#45;&gt;Node3</title>
<path fill="none" stroke="midnightblue" d="M412.411,-358.455C452.461,-347.72 501.626,-334.54 539.92,-324.275"/>
<polygon fill="midnightblue" stroke="midnightblue" points="541.159,-327.567 549.912,-321.597 539.347,-320.805 541.159,-327.567"/>
</g>
<!-- Node4 -->
<g id="node4" class="node"><title>Node4</title>
<polygon fill="none" stroke="#bfbfbf" points="633,-0.5 633,-19.5 690,-19.5 690,-0.5 633,-0.5"/>
<text text-anchor="middle" x="661.5" y="-7.5" font-family="Helvetica,sans-Serif" font-size="10.00">memory</text>
</g>
<!-- Node3&#45;&gt;Node4 -->
<g id="edge3" class="edge"><title>Node3&#45;&gt;Node4</title>
<path fill="none" stroke="midnightblue" d="M672.764,-304.101C822.364,-300.483 1161.98,-288.623 1201.5,-255 1228.02,-232.438 1220.5,-213.817 1220.5,-179 1220.5,-179 1220.5,-179 1220.5,-121 1220.5,-14.8135 827.265,-9.36903 700.428,-10.3747"/>
<polygon fill="midnightblue" stroke="midnightblue" points="700.343,-6.87531 690.377,-10.4728 700.411,-13.875 700.343,-6.87531"/>
</g>
<!-- Node5 -->
<g id="node5" class="node"><title>Node5</title>
<polygon fill="none" stroke="#bfbfbf" points="753.5,-56.5 753.5,-75.5 797.5,-75.5 797.5,-56.5 753.5,-56.5"/>
<text text-anchor="middle" x="775.5" y="-63.5" font-family="Helvetica,sans-Serif" font-size="10.00">string</text>
</g>
<!-- Node3&#45;&gt;Node5 -->
<g id="edge4" class="edge"><title>Node3&#45;&gt;Node5</title>
<path fill="none" stroke="midnightblue" d="M588.585,-291.48C573.311,-274.355 552.9,-245.07 568.5,-224 601.128,-179.933 637.745,-213.088 686.5,-188 722.86,-169.29 737.129,-166.229 759.5,-132 768.54,-118.168 772.474,-99.6491 774.185,-85.9169"/>
<polygon fill="midnightblue" stroke="midnightblue" points="777.693,-86.0039 775.163,-75.7156 770.725,-85.336 777.693,-86.0039"/>
</g>
<!-- Node6 -->
<g id="node6" class="node"><title>Node6</title>
<polygon fill="none" stroke="#bfbfbf" points="1248.5,-230 1248.5,-249 1328.5,-249 1328.5,-230 1248.5,-230"/>
<text text-anchor="middle" x="1288.5" y="-237" font-family="Helvetica,sans-Serif" font-size="10.00">ros/console.h</text>
</g>
<!-- Node3&#45;&gt;Node6 -->
<g id="edge5" class="edge"><title>Node3&#45;&gt;Node6</title>
<path fill="none" stroke="midnightblue" d="M672.693,-304.067C789.89,-300.744 1032.48,-289.893 1234.5,-255 1239.88,-254.071 1245.5,-252.85 1251,-251.51"/>
<polygon fill="midnightblue" stroke="midnightblue" points="1251.88,-254.898 1260.69,-249.008 1250.13,-248.12 1251.88,-254.898"/>
</g>
<!-- Node7 -->
<g id="node7" class="node"><title>Node7</title>
<polygon fill="none" stroke="#bfbfbf" points="185,-230 185,-249 324,-249 324,-230 185,-230"/>
<text text-anchor="middle" x="254.5" y="-237" font-family="Helvetica,sans-Serif" font-size="10.00">sensor_msgs/JointState.h</text>
</g>
<!-- Node3&#45;&gt;Node7 -->
<g id="edge6" class="edge"><title>Node3&#45;&gt;Node7</title>
<path fill="none" stroke="midnightblue" d="M532.496,-292.424C467.014,-280.194 370.496,-262.166 310.126,-250.89"/>
<polygon fill="midnightblue" stroke="midnightblue" points="310.498,-247.399 300.025,-249.003 309.212,-254.28 310.498,-247.399"/>
</g>
<!-- Node8 -->
<g id="node8" class="node"><title>Node8</title>
<g id="a_node8"><a xlink:href="Parser_8h.html" target="_top" xlink:title="ROSEndEffector/Parser.h">
<polygon fill="none" stroke="black" points="205.5,-56.5 205.5,-75.5 339.5,-75.5 339.5,-56.5 205.5,-56.5"/>
<text text-anchor="middle" x="272.5" y="-63.5" font-family="Helvetica,sans-Serif" font-size="10.00">ROSEndEffector/Parser.h</text>
</a>
</g>
</g>
<!-- Node3&#45;&gt;Node8 -->
<g id="edge7" class="edge"><title>Node3&#45;&gt;Node8</title>
<path fill="none" stroke="midnightblue" d="M569.647,-291.347C549.384,-282.071 523.209,-269.085 501.5,-255 416.008,-199.534 325.688,-117.322 289.216,-82.9805"/>
<polygon fill="midnightblue" stroke="midnightblue" points="291.179,-80.0192 281.512,-75.6826 286.365,-85.1009 291.179,-80.0192"/>
</g>
<!-- Node13 -->
<g id="node13" class="node"><title>Node13</title>
<g id="a_node13"><a xlink:href="EEInterface_8h.html" target="_top" xlink:title="ROSEndEffector/EEInterface.h">
<polygon fill="none" stroke="black" points="380.5,-112.5 380.5,-131.5 538.5,-131.5 538.5,-112.5 380.5,-112.5"/>
<text text-anchor="middle" x="459.5" y="-119.5" font-family="Helvetica,sans-Serif" font-size="10.00">ROSEndEffector/EEInterface.h</text>
</a>
</g>
</g>
<!-- Node3&#45;&gt;Node13 -->
<g id="edge14" class="edge"><title>Node3&#45;&gt;Node13</title>
<path fill="none" stroke="midnightblue" d="M574.653,-291.301C559.311,-282.441 540.749,-269.896 527.5,-255 496.481,-220.125 475.325,-168.555 465.596,-141.349"/>
<polygon fill="midnightblue" stroke="midnightblue" points="468.802,-139.908 462.23,-131.598 462.185,-142.193 468.802,-139.908"/>
</g>
<!-- Node17 -->
<g id="node17" class="node"><title>Node17</title>
<g id="a_node17"><a xlink:href="EEHal_8h.html" target="_top" xlink:title="ROSEndEffector/EEHal.h">
<polygon fill="none" stroke="black" points="546,-168.5 546,-187.5 677,-187.5 677,-168.5 546,-168.5"/>
<text text-anchor="middle" x="611.5" y="-175.5" font-family="Helvetica,sans-Serif" font-size="10.00">ROSEndEffector/EEHal.h</text>
</a>
</g>
</g>
<!-- Node3&#45;&gt;Node17 -->
<g id="edge20" class="edge"><title>Node3&#45;&gt;Node17</title>
<path fill="none" stroke="midnightblue" d="M572.815,-291.34C558.761,-282.918 543.363,-270.774 535.5,-255 529.353,-242.669 528.677,-235.97 535.5,-224 543.91,-209.247 559.265,-198.838 573.984,-191.774"/>
<polygon fill="midnightblue" stroke="midnightblue" points="575.735,-194.827 583.485,-187.603 572.921,-188.418 575.735,-194.827"/>
</g>
<!-- Node19 -->
<g id="node19" class="node"><title>Node19</title>
<g id="a_node19"><a xlink:href="DummyHal_8h.html" target="_top" xlink:title="ROSEndEffector/DummyHal.h">
<polygon fill="none" stroke="black" points="577.5,-230 577.5,-249 735.5,-249 735.5,-230 577.5,-230"/>
<text text-anchor="middle" x="656.5" y="-237" font-family="Helvetica,sans-Serif" font-size="10.00">ROSEndEffector/DummyHal.h</text>
</a>
</g>
</g>
<!-- Node3&#45;&gt;Node19 -->
<g id="edge27" class="edge"><title>Node3&#45;&gt;Node19</title>
<path fill="none" stroke="midnightblue" d="M614.217,-291.396C622.637,-281.261 634.013,-267.567 642.845,-256.937"/>
<polygon fill="midnightblue" stroke="midnightblue" points="645.579,-259.123 649.277,-249.195 640.194,-254.65 645.579,-259.123"/>
</g>
<!-- Node20 -->
<g id="node20" class="node"><title>Node20</title>
<g id="a_node20"><a xlink:href="Utils_8h.html" target="_top" xlink:title="ROSEndEffector/Utils.h">
<polygon fill="none" stroke="black" points="1067,-230 1067,-249 1192,-249 1192,-230 1067,-230"/>
<text text-anchor="middle" x="1129.5" y="-237" font-family="Helvetica,sans-Serif" font-size="10.00">ROSEndEffector/Utils.h</text>
</a>
</g>
</g>
<!-- Node3&#45;&gt;Node20 -->
<g id="edge31" class="edge"><title>Node3&#45;&gt;Node20</title>
<path fill="none" stroke="midnightblue" d="M672.681,-299.729C762.449,-291.889 922.572,-276.361 1058.5,-255 1065.76,-253.859 1073.41,-252.483 1080.89,-251.039"/>
<polygon fill="midnightblue" stroke="midnightblue" points="1081.8,-254.426 1090.92,-249.044 1080.43,-247.56 1081.8,-254.426"/>
</g>
<!-- Node22 -->
<g id="node22" class="node"><title>Node22</title>
<polygon fill="none" stroke="#bfbfbf" points="753.5,-224.5 753.5,-254.5 893.5,-254.5 893.5,-224.5 753.5,-224.5"/>
<text text-anchor="start" x="761.5" y="-242.5" font-family="Helvetica,sans-Serif" font-size="10.00">ros_end_effector/EEGrasp</text>
<text text-anchor="middle" x="823.5" y="-231.5" font-family="Helvetica,sans-Serif" font-size="10.00">Control.h</text>
</g>
<!-- Node3&#45;&gt;Node22 -->
<g id="edge34" class="edge"><title>Node3&#45;&gt;Node22</title>
<path fill="none" stroke="midnightblue" d="M650.182,-291.476C684.049,-281.515 729.707,-268.086 765.658,-257.512"/>
<polygon fill="midnightblue" stroke="midnightblue" points="766.917,-260.79 775.523,-254.611 764.942,-254.075 766.917,-260.79"/>
</g>
<!-- Node23 -->
<g id="node23" class="node"><title>Node23</title>
<polygon fill="none" stroke="#bfbfbf" points="912,-224.5 912,-254.5 1049,-254.5 1049,-224.5 912,-224.5"/>
<text text-anchor="start" x="920" y="-242.5" font-family="Helvetica,sans-Serif" font-size="10.00">ros_end_effector/EEPinch</text>
<text text-anchor="middle" x="980.5" y="-231.5" font-family="Helvetica,sans-Serif" font-size="10.00">Control.h</text>
</g>
<!-- Node3&#45;&gt;Node23 -->
<g id="edge35" class="edge"><title>Node3&#45;&gt;Node23</title>
<path fill="none" stroke="midnightblue" d="M672.571,-294.051C731.09,-284.41 816.994,-270.074 901.57,-255.148"/>
<polygon fill="midnightblue" stroke="midnightblue" points="902.37,-258.561 911.608,-253.373 901.151,-251.668 902.37,-258.561"/>
</g>
<!-- Node8&#45;&gt;Node2 -->
<g id="edge9" class="edge"><title>Node8&#45;&gt;Node2</title>
<path fill="none" stroke="midnightblue" d="M233.367,-56.4855C194.368,-47.9741 132.498,-34.4008 69.4323,-20.1939"/>
<polygon fill="midnightblue" stroke="midnightblue" points="69.8288,-16.6955 59.3037,-17.909 68.2884,-23.5239 69.8288,-16.6955"/>
</g>
<!-- Node8&#45;&gt;Node4 -->
<g id="edge8" class="edge"><title>Node8&#45;&gt;Node4</title>
<path fill="none" stroke="midnightblue" d="M339.777,-56.502C423.445,-45.8624 561.479,-28.0568 612.5,-20 615.892,-19.4644 619.41,-18.8784 622.935,-18.2706"/>
<polygon fill="midnightblue" stroke="midnightblue" points="623.546,-21.7168 632.781,-16.5235 622.323,-14.8245 623.546,-21.7168"/>
</g>
<!-- Node9 -->
<g id="node9" class="node"><title>Node9</title>
<polygon fill="none" stroke="#bfbfbf" points="351.5,-0.5 351.5,-19.5 447.5,-19.5 447.5,-0.5 351.5,-0.5"/>
<text text-anchor="middle" x="399.5" y="-7.5" font-family="Helvetica,sans-Serif" font-size="10.00">yaml&#45;cpp/yaml.h</text>
</g>
<!-- Node8&#45;&gt;Node9 -->
<g id="edge10" class="edge"><title>Node8&#45;&gt;Node9</title>
<path fill="none" stroke="midnightblue" d="M292.624,-56.4435C313.524,-47.5566 346.435,-33.5632 370.216,-23.4514"/>
<polygon fill="midnightblue" stroke="midnightblue" points="371.638,-26.6504 379.471,-19.5164 368.898,-20.2085 371.638,-26.6504"/>
</g>
<!-- Node10 -->
<g id="node10" class="node"><title>Node10</title>
<polygon fill="none" stroke="#bfbfbf" points="465.5,-0.5 465.5,-19.5 603.5,-19.5 603.5,-0.5 465.5,-0.5"/>
<text text-anchor="middle" x="534.5" y="-7.5" font-family="Helvetica,sans-Serif" font-size="10.00">urdf_parser/urdf_parser.h</text>
</g>
<!-- Node8&#45;&gt;Node10 -->
<g id="edge11" class="edge"><title>Node8&#45;&gt;Node10</title>
<path fill="none" stroke="midnightblue" d="M314.015,-56.4435C359.912,-46.9839 433.88,-31.7384 483.326,-21.5472"/>
<polygon fill="midnightblue" stroke="midnightblue" points="484.092,-24.9631 493.18,-19.5164 482.679,-18.1072 484.092,-24.9631"/>
</g>
<!-- Node11 -->
<g id="node11" class="node"><title>Node11</title>
<polygon fill="none" stroke="#bfbfbf" points="77.5,-0.5 77.5,-19.5 217.5,-19.5 217.5,-0.5 77.5,-0.5"/>
<text text-anchor="middle" x="147.5" y="-7.5" font-family="Helvetica,sans-Serif" font-size="10.00">kdl_parser/kdl_parser.hpp</text>
</g>
<!-- Node8&#45;&gt;Node11 -->
<g id="edge12" class="edge"><title>Node8&#45;&gt;Node11</title>
<path fill="none" stroke="midnightblue" d="M252.693,-56.4435C232.213,-47.5961 200.017,-33.6875 176.635,-23.5865"/>
<polygon fill="midnightblue" stroke="midnightblue" points="177.782,-20.2692 167.214,-19.5164 175.006,-26.6953 177.782,-20.2692"/>
</g>
<!-- Node12 -->
<g id="node12" class="node"><title>Node12</title>
<polygon fill="none" stroke="#bfbfbf" points="235.5,-0.5 235.5,-19.5 333.5,-19.5 333.5,-0.5 235.5,-0.5"/>
<text text-anchor="middle" x="284.5" y="-7.5" font-family="Helvetica,sans-Serif" font-size="10.00">srdfdom/model.h</text>
</g>
<!-- Node8&#45;&gt;Node12 -->
<g id="edge13" class="edge"><title>Node8&#45;&gt;Node12</title>
<path fill="none" stroke="midnightblue" d="M274.482,-56.083C276.072,-48.9272 278.359,-38.6353 280.346,-29.6911"/>
<polygon fill="midnightblue" stroke="midnightblue" points="283.803,-30.2722 282.555,-19.7511 276.969,-28.7537 283.803,-30.2722"/>
</g>
<!-- Node13&#45;&gt;Node4 -->
<g id="edge17" class="edge"><title>Node13&#45;&gt;Node4</title>
<path fill="none" stroke="midnightblue" d="M483.269,-112.43C505.163,-104.183 538.28,-90.811 565.5,-76 593.431,-60.8021 623.448,-39.6081 642.34,-25.6062"/>
<polygon fill="midnightblue" stroke="midnightblue" points="644.522,-28.3447 650.426,-19.5473 640.325,-22.7428 644.522,-28.3447"/>
</g>
<!-- Node13&#45;&gt;Node8 -->
<g id="edge18" class="edge"><title>Node13&#45;&gt;Node8</title>
<path fill="none" stroke="midnightblue" d="M429.869,-112.444C398,-103.241 347.167,-88.5617 311.936,-78.3879"/>
<polygon fill="midnightblue" stroke="midnightblue" points="312.571,-74.9282 301.992,-75.5164 310.628,-81.6534 312.571,-74.9282"/>
</g>
<!-- Node14 -->
<g id="node14" class="node"><title>Node14</title>
<polygon fill="none" stroke="#bfbfbf" points="518.5,-56.5 518.5,-75.5 556.5,-75.5 556.5,-56.5 518.5,-56.5"/>
<text text-anchor="middle" x="537.5" y="-63.5" font-family="Helvetica,sans-Serif" font-size="10.00">map</text>
</g>
<!-- Node13&#45;&gt;Node14 -->
<g id="edge15" class="edge"><title>Node13&#45;&gt;Node14</title>
<path fill="none" stroke="midnightblue" d="M472.032,-112.324C484.086,-103.979 502.527,-91.2122 516.769,-81.3524"/>
<polygon fill="midnightblue" stroke="midnightblue" points="518.769,-84.2243 524.999,-75.6545 514.785,-78.469 518.769,-84.2243"/>
</g>
<!-- Node15 -->
<g id="node15" class="node"><title>Node15</title>
<polygon fill="none" stroke="#bfbfbf" points="358,-56.5 358,-75.5 405,-75.5 405,-56.5 358,-56.5"/>
<text text-anchor="middle" x="381.5" y="-63.5" font-family="Helvetica,sans-Serif" font-size="10.00">vector</text>
</g>
<!-- Node13&#45;&gt;Node15 -->
<g id="edge16" class="edge"><title>Node13&#45;&gt;Node15</title>
<path fill="none" stroke="midnightblue" d="M446.968,-112.324C434.914,-103.979 416.473,-91.2122 402.231,-81.3524"/>
<polygon fill="midnightblue" stroke="midnightblue" points="404.215,-78.469 394.001,-75.6545 400.231,-84.2243 404.215,-78.469"/>
</g>
<!-- Node16 -->
<g id="node16" class="node"><title>Node16</title>
<polygon fill="none" stroke="#bfbfbf" points="423,-56.5 423,-75.5 500,-75.5 500,-56.5 423,-56.5"/>
<text text-anchor="middle" x="461.5" y="-63.5" font-family="Helvetica,sans-Serif" font-size="10.00">Eigen/Dense</text>
</g>
<!-- Node13&#45;&gt;Node16 -->
<g id="edge19" class="edge"><title>Node13&#45;&gt;Node16</title>
<path fill="none" stroke="midnightblue" d="M459.83,-112.083C460.092,-105.006 460.468,-94.8611 460.797,-85.9865"/>
<polygon fill="midnightblue" stroke="midnightblue" points="464.303,-85.8738 461.176,-75.7511 457.308,-85.6147 464.303,-85.8738"/>
</g>
<!-- Node17&#45;&gt;Node4 -->
<g id="edge26" class="edge"><title>Node17&#45;&gt;Node4</title>
<path fill="none" stroke="midnightblue" d="M603.82,-168.289C593.891,-155.928 578.642,-132.519 585.5,-112 597.125,-77.2165 625.962,-44.8034 644.584,-26.4901"/>
<polygon fill="midnightblue" stroke="midnightblue" points="647.046,-28.9779 651.859,-19.539 642.211,-23.9166 647.046,-28.9779"/>
</g>
<!-- Node17&#45;&gt;Node5 -->
<g id="edge25" class="edge"><title>Node17&#45;&gt;Node5</title>
<path fill="none" stroke="midnightblue" d="M658.548,-168.427C684.097,-161.877 714.972,-150.684 737.5,-132 752.397,-119.645 762.774,-99.838 768.875,-85.3322"/>
<polygon fill="midnightblue" stroke="midnightblue" points="772.186,-86.477 772.566,-75.889 765.666,-83.9287 772.186,-86.477"/>
</g>
<!-- Node17&#45;&gt;Node13 -->
<g id="edge24" class="edge"><title>Node17&#45;&gt;Node13</title>
<path fill="none" stroke="midnightblue" d="M587.415,-168.444C561.955,-159.399 521.606,-145.064 493.041,-134.916"/>
<polygon fill="midnightblue" stroke="midnightblue" points="494.067,-131.566 483.472,-131.516 491.723,-138.162 494.067,-131.566"/>
</g>
<!-- Node18 -->
<g id="node18" class="node"><title>Node18</title>
<g id="a_node18"><a xlink:href="IMotor_8h.html" target="_top" xlink:title="ROSEndEffector/IMotor.h">
<polygon fill="none" stroke="black" points="594.5,-112.5 594.5,-131.5 728.5,-131.5 728.5,-112.5 594.5,-112.5"/>
<text text-anchor="middle" x="661.5" y="-119.5" font-family="Helvetica,sans-Serif" font-size="10.00">ROSEndEffector/IMotor.h</text>
</a>
</g>
</g>
<!-- Node17&#45;&gt;Node18 -->
<g id="edge21" class="edge"><title>Node17&#45;&gt;Node18</title>
<path fill="none" stroke="midnightblue" d="M619.756,-168.083C626.965,-160.298 637.61,-148.801 646.346,-139.367"/>
<polygon fill="midnightblue" stroke="midnightblue" points="649.171,-141.467 653.397,-131.751 644.035,-136.711 649.171,-141.467"/>
</g>
<!-- Node18&#45;&gt;Node4 -->
<g id="edge23" class="edge"><title>Node18&#45;&gt;Node4</title>
<path fill="none" stroke="midnightblue" d="M661.5,-112.368C661.5,-94.617 661.5,-53.6664 661.5,-29.5974"/>
<polygon fill="midnightblue" stroke="midnightblue" points="665,-29.5914 661.5,-19.5914 658,-29.5915 665,-29.5914"/>
</g>
<!-- Node18&#45;&gt;Node5 -->
<g id="edge22" class="edge"><title>Node18&#45;&gt;Node5</title>
<path fill="none" stroke="midnightblue" d="M679.564,-112.444C698.075,-103.675 727.081,-89.9355 748.355,-79.8579"/>
<polygon fill="midnightblue" stroke="midnightblue" points="749.982,-82.9604 757.521,-75.5164 746.985,-76.6343 749.982,-82.9604"/>
</g>
<!-- Node19&#45;&gt;Node4 -->
<g id="edge30" class="edge"><title>Node19&#45;&gt;Node4</title>
<path fill="none" stroke="midnightblue" d="M716.456,-229.991C745.65,-223.067 779.355,-210.557 802.5,-188 821.536,-169.448 818.757,-158.155 823.5,-132 829.676,-97.9429 830.899,-80.5504 806.5,-56 778.334,-27.6587 732.68,-17.1032 700.127,-13.2074"/>
<polygon fill="midnightblue" stroke="midnightblue" points="700.364,-9.71331 690.057,-12.1624 699.642,-16.6759 700.364,-9.71331"/>
</g>
<!-- Node19&#45;&gt;Node5 -->
<g id="edge29" class="edge"><title>Node19&#45;&gt;Node5</title>
<path fill="none" stroke="midnightblue" d="M695.546,-229.994C721.85,-222.598 755.918,-209.588 779.5,-188 806.167,-163.588 819.748,-146.359 808.5,-112 805.01,-101.34 797.927,-91.1174 791.214,-83.1175"/>
<polygon fill="midnightblue" stroke="midnightblue" points="793.805,-80.7633 784.52,-75.66 788.596,-85.4395 793.805,-80.7633"/>
</g>
<!-- Node19&#45;&gt;Node17 -->
<g id="edge28" class="edge"><title>Node19&#45;&gt;Node17</title>
<path fill="none" stroke="midnightblue" d="M650.053,-229.975C643.303,-221.05 632.531,-206.807 624.087,-195.643"/>
<polygon fill="midnightblue" stroke="midnightblue" points="626.759,-193.374 617.935,-187.509 621.176,-197.596 626.759,-193.374"/>
</g>
<!-- Node20&#45;&gt;Node4 -->
<g id="edge33" class="edge"><title>Node20&#45;&gt;Node4</title>
<path fill="none" stroke="midnightblue" d="M1129.55,-229.983C1129.18,-215.467 1126.37,-185.781 1110.5,-168 1000.32,-44.5323 787.51,-18.1598 700.257,-12.5283"/>
<polygon fill="midnightblue" stroke="midnightblue" points="700.199,-9.01896 690.011,-11.9264 699.788,-16.0069 700.199,-9.01896"/>
</g>
<!-- Node21 -->
<g id="node21" class="node"><title>Node21</title>
<polygon fill="none" stroke="#bfbfbf" points="1054,-168.5 1054,-187.5 1101,-187.5 1101,-168.5 1054,-168.5"/>
<text text-anchor="middle" x="1077.5" y="-175.5" font-family="Helvetica,sans-Serif" font-size="10.00">cmath</text>
</g>
<!-- Node20&#45;&gt;Node21 -->
<g id="edge32" class="edge"><title>Node20&#45;&gt;Node21</title>
<path fill="none" stroke="midnightblue" d="M1122.05,-229.975C1114.17,-220.962 1101.56,-206.525 1091.76,-195.312"/>
<polygon fill="midnightblue" stroke="midnightblue" points="1094.15,-192.736 1084.94,-187.509 1088.88,-197.342 1094.15,-192.736"/>
</g>
</g>
</svg>
