<?xml version="1.0" encoding="UTF-8" standalone="no"?>
<!DOCTYPE svg PUBLIC "-//W3C//DTD SVG 1.1//EN"
 "http://www.w3.org/Graphics/SVG/1.1/DTD/svg11.dtd">
<!-- Generated by graphviz version 2.38.0 (20140413.2041)
 -->
<!-- Title: /home/travis/build/ADVRHumanoids/ROSEndEffector/include/ROSEndEffector/UniversalRosEndEffectorExecutor.h Pages: 1 -->
<svg width="1466pt" height="352pt"
 viewBox="0.00 0.00 1466.00 352.00" xmlns="http://www.w3.org/2000/svg" xmlns:xlink="http://www.w3.org/1999/xlink">
<g id="graph0" class="graph" transform="scale(1 1) rotate(0) translate(4 348)">
<title>/home/travis/build/ADVRHumanoids/ROSEndEffector/include/ROSEndEffector/UniversalRosEndEffectorExecutor.h</title>
<!-- Node1 -->
<g id="node1" class="node"><title>Node1</title>
<polygon fill="#bfbfbf" stroke="black" points="760,-291.5 760,-343.5 956,-343.5 956,-291.5 760,-291.5"/>
<text text-anchor="start" x="768" y="-331.5" font-family="Helvetica,sans-Serif" font-size="10.00">/home/travis/build</text>
<text text-anchor="start" x="768" y="-320.5" font-family="Helvetica,sans-Serif" font-size="10.00">/ADVRHumanoids/ROSEndEffector</text>
<text text-anchor="start" x="768" y="-309.5" font-family="Helvetica,sans-Serif" font-size="10.00">/include/ROSEndEffector/UniversalRos</text>
<text text-anchor="middle" x="858" y="-298.5" font-family="Helvetica,sans-Serif" font-size="10.00">EndEffectorExecutor.h</text>
</g>
<!-- Node2 -->
<g id="node2" class="node"><title>Node2</title>
<polygon fill="none" stroke="#bfbfbf" points="672.5,-0.5 672.5,-19.5 729.5,-19.5 729.5,-0.5 672.5,-0.5"/>
<text text-anchor="middle" x="701" y="-7.5" font-family="Helvetica,sans-Serif" font-size="10.00">memory</text>
</g>
<!-- Node1&#45;&gt;Node2 -->
<g id="edge1" class="edge"><title>Node1&#45;&gt;Node2</title>
<path fill="none" stroke="midnightblue" d="M759.893,-302.669C641.465,-283.157 458,-242.657 458,-179 458,-179 458,-179 458,-121 458,-90.9022 454.821,-76.3464 477,-56 490.539,-43.5795 601.816,-25.5658 662.262,-16.5613"/>
<polygon fill="midnightblue" stroke="midnightblue" points="662.833,-20.0151 672.214,-15.0918 661.81,-13.0902 662.833,-20.0151"/>
</g>
<!-- Node3 -->
<g id="node3" class="node"><title>Node3</title>
<polygon fill="none" stroke="#bfbfbf" points="886,-56.5 886,-75.5 930,-75.5 930,-56.5 886,-56.5"/>
<text text-anchor="middle" x="908" y="-63.5" font-family="Helvetica,sans-Serif" font-size="10.00">string</text>
</g>
<!-- Node1&#45;&gt;Node3 -->
<g id="edge2" class="edge"><title>Node1&#45;&gt;Node3</title>
<path fill="none" stroke="midnightblue" d="M863.069,-291.204C873.119,-241.058 895.36,-130.075 904.235,-85.786"/>
<polygon fill="midnightblue" stroke="midnightblue" points="907.699,-86.3131 906.232,-75.8203 900.836,-84.9376 907.699,-86.3131"/>
</g>
<!-- Node4 -->
<g id="node4" class="node"><title>Node4</title>
<polygon fill="none" stroke="#bfbfbf" points="1062,-230 1062,-249 1142,-249 1142,-230 1062,-230"/>
<text text-anchor="middle" x="1102" y="-237" font-family="Helvetica,sans-Serif" font-size="10.00">ros/console.h</text>
</g>
<!-- Node1&#45;&gt;Node4 -->
<g id="edge3" class="edge"><title>Node1&#45;&gt;Node4</title>
<path fill="none" stroke="midnightblue" d="M938.571,-291.404C981.091,-278.16 1031.23,-262.543 1064.65,-252.133"/>
<polygon fill="midnightblue" stroke="midnightblue" points="1065.95,-255.393 1074.46,-249.078 1063.87,-248.71 1065.95,-255.393"/>
</g>
<!-- Node5 -->
<g id="node5" class="node"><title>Node5</title>
<polygon fill="none" stroke="#bfbfbf" points="1160.5,-230 1160.5,-249 1299.5,-249 1299.5,-230 1160.5,-230"/>
<text text-anchor="middle" x="1230" y="-237" font-family="Helvetica,sans-Serif" font-size="10.00">sensor_msgs/JointState.h</text>
</g>
<!-- Node1&#45;&gt;Node5 -->
<g id="edge4" class="edge"><title>Node1&#45;&gt;Node5</title>
<path fill="none" stroke="midnightblue" d="M956.225,-296.432C1027.5,-281.871 1121.09,-262.75 1178.32,-251.058"/>
<polygon fill="midnightblue" stroke="midnightblue" points="1179.13,-254.466 1188.23,-249.035 1177.73,-247.607 1179.13,-254.466"/>
</g>
<!-- Node6 -->
<g id="node6" class="node"><title>Node6</title>
<g id="a_node6"><a xlink:href="Parser_8h.html" target="_top" xlink:title="ROSEndEffector/Parser.h">
<polygon fill="none" stroke="black" points="296,-56.5 296,-75.5 430,-75.5 430,-56.5 296,-56.5"/>
<text text-anchor="middle" x="363" y="-63.5" font-family="Helvetica,sans-Serif" font-size="10.00">ROSEndEffector/Parser.h</text>
</a>
</g>
</g>
<!-- Node1&#45;&gt;Node6 -->
<g id="edge5" class="edge"><title>Node1&#45;&gt;Node6</title>
<path fill="none" stroke="midnightblue" d="M759.637,-312.757C653.133,-306.85 492.019,-291.94 444,-255 388.86,-212.582 370.686,-125.112 365.185,-86.2899"/>
<polygon fill="midnightblue" stroke="midnightblue" points="368.598,-85.3826 363.858,-75.907 361.654,-86.2701 368.598,-85.3826"/>
</g>
<!-- Node12 -->
<g id="node12" class="node"><title>Node12</title>
<g id="a_node12"><a xlink:href="EEInterface_8h.html" target="_top" xlink:title="ROSEndEffector/EEInterface.h">
<polygon fill="none" stroke="black" points="513,-112.5 513,-131.5 671,-131.5 671,-112.5 513,-112.5"/>
<text text-anchor="middle" x="592" y="-119.5" font-family="Helvetica,sans-Serif" font-size="10.00">ROSEndEffector/EEInterface.h</text>
</a>
</g>
</g>
<!-- Node1&#45;&gt;Node12 -->
<g id="edge12" class="edge"><title>Node1&#45;&gt;Node12</title>
<path fill="none" stroke="midnightblue" d="M823.498,-291.402C767.093,-250.37 656.917,-170.223 611.892,-137.47"/>
<polygon fill="midnightblue" stroke="midnightblue" points="613.936,-134.629 603.79,-131.577 609.818,-140.29 613.936,-134.629"/>
</g>
<!-- Node16 -->
<g id="node16" class="node"><title>Node16</title>
<g id="a_node16"><a xlink:href="EEHal_8h.html" target="_top" xlink:title="ROSEndEffector/EEHal.h">
<polygon fill="none" stroke="black" points="734.5,-168.5 734.5,-187.5 865.5,-187.5 865.5,-168.5 734.5,-168.5"/>
<text text-anchor="middle" x="800" y="-175.5" font-family="Helvetica,sans-Serif" font-size="10.00">ROSEndEffector/EEHal.h</text>
</a>
</g>
</g>
<!-- Node1&#45;&gt;Node16 -->
<g id="edge18" class="edge"><title>Node1&#45;&gt;Node16</title>
<path fill="none" stroke="midnightblue" d="M847.362,-291.28C835.853,-263.996 817.789,-221.173 807.619,-197.062"/>
<polygon fill="midnightblue" stroke="midnightblue" points="810.781,-195.553 803.669,-187.699 804.331,-198.273 810.781,-195.553"/>
</g>
<!-- Node18 -->
<g id="node18" class="node"><title>Node18</title>
<g id="a_node18"><a xlink:href="DummyHal_8h.html" target="_top" xlink:title="ROSEndEffector/DummyHal.h">
<polygon fill="none" stroke="black" points="886,-230 886,-249 1044,-249 1044,-230 886,-230"/>
<text text-anchor="middle" x="965" y="-237" font-family="Helvetica,sans-Serif" font-size="10.00">ROSEndEffector/DummyHal.h</text>
</a>
</g>
</g>
<!-- Node1&#45;&gt;Node18 -->
<g id="edge25" class="edge"><title>Node1&#45;&gt;Node18</title>
<path fill="none" stroke="midnightblue" d="M893.332,-291.404C910.371,-279.302 930.199,-265.218 944.675,-254.937"/>
<polygon fill="midnightblue" stroke="midnightblue" points="946.797,-257.722 952.923,-249.078 942.744,-252.015 946.797,-257.722"/>
</g>
<!-- Node19 -->
<g id="node19" class="node"><title>Node19</title>
<polygon fill="none" stroke="#bfbfbf" points="1318,-224.5 1318,-254.5 1458,-254.5 1458,-224.5 1318,-224.5"/>
<text text-anchor="start" x="1326" y="-242.5" font-family="Helvetica,sans-Serif" font-size="10.00">ros_end_effector/EEGrasp</text>
<text text-anchor="middle" x="1388" y="-231.5" font-family="Helvetica,sans-Serif" font-size="10.00">Control.h</text>
</g>
<!-- Node1&#45;&gt;Node19 -->
<g id="edge29" class="edge"><title>Node1&#45;&gt;Node19</title>
<path fill="none" stroke="midnightblue" d="M956.287,-304.42C1045.46,-293.156 1180.77,-275.302 1307.9,-255.135"/>
<polygon fill="midnightblue" stroke="midnightblue" points="1308.49,-258.585 1317.82,-253.555 1307.39,-251.672 1308.49,-258.585"/>
</g>
<!-- Node6&#45;&gt;Node2 -->
<g id="edge6" class="edge"><title>Node6&#45;&gt;Node2</title>
<path fill="none" stroke="midnightblue" d="M416.557,-56.4435C485.008,-45.5076 601.859,-26.8391 662.278,-17.1864"/>
<polygon fill="midnightblue" stroke="midnightblue" points="662.854,-20.6388 672.177,-15.6049 661.75,-13.7265 662.854,-20.6388"/>
</g>
<!-- Node7 -->
<g id="node7" class="node"><title>Node7</title>
<polygon fill="none" stroke="#bfbfbf" points="430.5,-0.5 430.5,-19.5 489.5,-19.5 489.5,-0.5 430.5,-0.5"/>
<text text-anchor="middle" x="460" y="-7.5" font-family="Helvetica,sans-Serif" font-size="10.00">ros/ros.h</text>
</g>
<!-- Node6&#45;&gt;Node7 -->
<g id="edge7" class="edge"><title>Node6&#45;&gt;Node7</title>
<path fill="none" stroke="midnightblue" d="M378.585,-56.324C393.999,-47.7428 417.812,-34.486 435.71,-24.5224"/>
<polygon fill="midnightblue" stroke="midnightblue" points="437.419,-27.5767 444.454,-19.6545 434.014,-21.4606 437.419,-27.5767"/>
</g>
<!-- Node8 -->
<g id="node8" class="node"><title>Node8</title>
<polygon fill="none" stroke="#bfbfbf" points="508,-0.5 508,-19.5 604,-19.5 604,-0.5 508,-0.5"/>
<text text-anchor="middle" x="556" y="-7.5" font-family="Helvetica,sans-Serif" font-size="10.00">yaml&#45;cpp/yaml.h</text>
</g>
<!-- Node6&#45;&gt;Node8 -->
<g id="edge8" class="edge"><title>Node6&#45;&gt;Node8</title>
<path fill="none" stroke="midnightblue" d="M393.581,-56.4435C426.615,-47.2011 479.388,-32.4356 515.766,-22.2572"/>
<polygon fill="midnightblue" stroke="midnightblue" points="516.875,-25.5815 525.562,-19.5164 514.988,-18.8404 516.875,-25.5815"/>
</g>
<!-- Node9 -->
<g id="node9" class="node"><title>Node9</title>
<polygon fill="none" stroke="#bfbfbf" points="0,-0.5 0,-19.5 138,-19.5 138,-0.5 0,-0.5"/>
<text text-anchor="middle" x="69" y="-7.5" font-family="Helvetica,sans-Serif" font-size="10.00">urdf_parser/urdf_parser.h</text>
</g>
<!-- Node6&#45;&gt;Node9 -->
<g id="edge9" class="edge"><title>Node6&#45;&gt;Node9</title>
<path fill="none" stroke="midnightblue" d="M316.415,-56.4435C264.59,-46.9246 180.868,-31.5472 125.385,-21.3563"/>
<polygon fill="midnightblue" stroke="midnightblue" points="125.835,-17.8806 115.367,-19.5164 124.57,-24.7654 125.835,-17.8806"/>
</g>
<!-- Node10 -->
<g id="node10" class="node"><title>Node10</title>
<polygon fill="none" stroke="#bfbfbf" points="156,-0.5 156,-19.5 296,-19.5 296,-0.5 156,-0.5"/>
<text text-anchor="middle" x="226" y="-7.5" font-family="Helvetica,sans-Serif" font-size="10.00">kdl_parser/kdl_parser.hpp</text>
</g>
<!-- Node6&#45;&gt;Node10 -->
<g id="edge10" class="edge"><title>Node6&#45;&gt;Node10</title>
<path fill="none" stroke="midnightblue" d="M341.292,-56.4435C318.645,-47.5171 282.928,-33.4387 257.248,-23.3168"/>
<polygon fill="midnightblue" stroke="midnightblue" points="258.193,-19.9273 247.606,-19.5164 255.626,-26.4397 258.193,-19.9273"/>
</g>
<!-- Node11 -->
<g id="node11" class="node"><title>Node11</title>
<polygon fill="none" stroke="#bfbfbf" points="314,-0.5 314,-19.5 412,-19.5 412,-0.5 314,-0.5"/>
<text text-anchor="middle" x="363" y="-7.5" font-family="Helvetica,sans-Serif" font-size="10.00">srdfdom/model.h</text>
</g>
<!-- Node6&#45;&gt;Node11 -->
<g id="edge11" class="edge"><title>Node6&#45;&gt;Node11</title>
<path fill="none" stroke="midnightblue" d="M363,-56.083C363,-49.0059 363,-38.8611 363,-29.9865"/>
<polygon fill="midnightblue" stroke="midnightblue" points="366.5,-29.751 363,-19.7511 359.5,-29.7511 366.5,-29.751"/>
</g>
<!-- Node12&#45;&gt;Node2 -->
<g id="edge15" class="edge"><title>Node12&#45;&gt;Node2</title>
<path fill="none" stroke="midnightblue" d="M592.373,-112.408C593.385,-98.9191 597.134,-72.6045 611,-56 624.321,-40.0478 644.698,-29.2037 662.696,-22.1653"/>
<polygon fill="midnightblue" stroke="midnightblue" points="664.189,-25.3465 672.39,-18.6383 661.796,-18.7683 664.189,-25.3465"/>
</g>
<!-- Node12&#45;&gt;Node6 -->
<g id="edge16" class="edge"><title>Node12&#45;&gt;Node6</title>
<path fill="none" stroke="midnightblue" d="M555.714,-112.444C516.017,-103.083 452.293,-88.0561 409.088,-77.868"/>
<polygon fill="midnightblue" stroke="midnightblue" points="409.652,-74.4051 399.116,-75.5164 408.046,-81.2182 409.652,-74.4051"/>
</g>
<!-- Node13 -->
<g id="node13" class="node"><title>Node13</title>
<polygon fill="none" stroke="#bfbfbf" points="620,-56.5 620,-75.5 658,-75.5 658,-56.5 620,-56.5"/>
<text text-anchor="middle" x="639" y="-63.5" font-family="Helvetica,sans-Serif" font-size="10.00">map</text>
</g>
<!-- Node12&#45;&gt;Node13 -->
<g id="edge13" class="edge"><title>Node12&#45;&gt;Node13</title>
<path fill="none" stroke="midnightblue" d="M599.761,-112.083C606.537,-104.298 616.543,-92.8015 624.755,-83.3665"/>
<polygon fill="midnightblue" stroke="midnightblue" points="627.458,-85.592 631.383,-75.7511 622.178,-80.9963 627.458,-85.592"/>
</g>
<!-- Node14 -->
<g id="node14" class="node"><title>Node14</title>
<polygon fill="none" stroke="#bfbfbf" points="676.5,-56.5 676.5,-75.5 723.5,-75.5 723.5,-56.5 676.5,-56.5"/>
<text text-anchor="middle" x="700" y="-63.5" font-family="Helvetica,sans-Serif" font-size="10.00">vector</text>
</g>
<!-- Node12&#45;&gt;Node14 -->
<g id="edge14" class="edge"><title>Node12&#45;&gt;Node14</title>
<path fill="none" stroke="midnightblue" d="M609.352,-112.324C626.672,-103.664 653.515,-90.2424 673.502,-80.249"/>
<polygon fill="midnightblue" stroke="midnightblue" points="675.312,-83.2572 682.691,-75.6545 672.181,-76.9962 675.312,-83.2572"/>
</g>
<!-- Node15 -->
<g id="node15" class="node"><title>Node15</title>
<polygon fill="none" stroke="#bfbfbf" points="486.5,-56.5 486.5,-75.5 563.5,-75.5 563.5,-56.5 486.5,-56.5"/>
<text text-anchor="middle" x="525" y="-63.5" font-family="Helvetica,sans-Serif" font-size="10.00">Eigen/Dense</text>
</g>
<!-- Node12&#45;&gt;Node15 -->
<g id="edge17" class="edge"><title>Node12&#45;&gt;Node15</title>
<path fill="none" stroke="midnightblue" d="M581.235,-112.324C571.234,-104.263 556.113,-92.0765 544.07,-82.3695"/>
<polygon fill="midnightblue" stroke="midnightblue" points="545.943,-79.3841 535.961,-75.8339 541.55,-84.8343 545.943,-79.3841"/>
</g>
<!-- Node16&#45;&gt;Node2 -->
<g id="edge24" class="edge"><title>Node16&#45;&gt;Node2</title>
<path fill="none" stroke="midnightblue" d="M768.191,-168.385C750.054,-161.661 728.836,-150.306 718,-132 700.505,-102.443 742.203,-88.7956 732,-56 728.771,-45.6222 722.224,-35.5209 715.975,-27.5268"/>
<polygon fill="midnightblue" stroke="midnightblue" points="718.584,-25.1902 709.483,-19.7661 713.215,-29.6818 718.584,-25.1902"/>
</g>
<!-- Node16&#45;&gt;Node3 -->
<g id="edge23" class="edge"><title>Node16&#45;&gt;Node3</title>
<path fill="none" stroke="midnightblue" d="M818.049,-168.447C833.262,-160.575 854.904,-147.749 870,-132 883.119,-118.314 893.57,-99.2731 900.165,-85.3371"/>
<polygon fill="midnightblue" stroke="midnightblue" points="903.523,-86.4039 904.437,-75.8486 897.14,-83.53 903.523,-86.4039"/>
</g>
<!-- Node16&#45;&gt;Node12 -->
<g id="edge22" class="edge"><title>Node16&#45;&gt;Node12</title>
<path fill="none" stroke="midnightblue" d="M767.042,-168.444C731.213,-159.142 673.837,-144.246 634.609,-134.062"/>
<polygon fill="midnightblue" stroke="midnightblue" points="635.363,-130.642 624.804,-131.516 633.604,-137.417 635.363,-130.642"/>
</g>
<!-- Node17 -->
<g id="node17" class="node"><title>Node17</title>
<g id="a_node17"><a xlink:href="IMotor_8h.html" target="_top" xlink:title="ROSEndEffector/IMotor.h">
<polygon fill="none" stroke="black" points="727,-112.5 727,-131.5 861,-131.5 861,-112.5 727,-112.5"/>
<text text-anchor="middle" x="794" y="-119.5" font-family="Helvetica,sans-Serif" font-size="10.00">ROSEndEffector/IMotor.h</text>
</a>
</g>
</g>
<!-- Node16&#45;&gt;Node17 -->
<g id="edge19" class="edge"><title>Node16&#45;&gt;Node17</title>
<path fill="none" stroke="midnightblue" d="M799.009,-168.083C798.214,-160.927 797.071,-150.635 796.077,-141.691"/>
<polygon fill="midnightblue" stroke="midnightblue" points="799.555,-141.303 794.972,-131.751 792.598,-142.076 799.555,-141.303"/>
</g>
<!-- Node17&#45;&gt;Node2 -->
<g id="edge21" class="edge"><title>Node17&#45;&gt;Node2</title>
<path fill="none" stroke="midnightblue" d="M791.885,-112.184C788.342,-98.8569 780.166,-73.304 766,-56 755.506,-43.1809 740.458,-32.4462 727.483,-24.6802"/>
<polygon fill="midnightblue" stroke="midnightblue" points="728.918,-21.4697 718.496,-19.5626 725.454,-27.5526 728.918,-21.4697"/>
</g>
<!-- Node17&#45;&gt;Node3 -->
<g id="edge20" class="edge"><title>Node17&#45;&gt;Node3</title>
<path fill="none" stroke="midnightblue" d="M812.064,-112.444C830.575,-103.675 859.581,-89.9355 880.855,-79.8579"/>
<polygon fill="midnightblue" stroke="midnightblue" points="882.482,-82.9604 890.021,-75.5164 879.485,-76.6343 882.482,-82.9604"/>
</g>
<!-- Node18&#45;&gt;Node2 -->
<g id="edge28" class="edge"><title>Node18&#45;&gt;Node2</title>
<path fill="none" stroke="midnightblue" d="M966.992,-229.984C969.218,-219.994 972.682,-202.903 974,-188 979.345,-127.542 985.134,-95.4389 939,-56 909.601,-30.8671 799.561,-18.6182 739.954,-13.7144"/>
<polygon fill="midnightblue" stroke="midnightblue" points="740.036,-10.2101 729.791,-12.9094 739.484,-17.1882 740.036,-10.2101"/>
</g>
<!-- Node18&#45;&gt;Node3 -->
<g id="edge27" class="edge"><title>Node18&#45;&gt;Node3</title>
<path fill="none" stroke="midnightblue" d="M964.666,-229.83C963.583,-208.774 959.093,-153.615 941,-112 936.518,-101.691 929.32,-91.4826 922.788,-83.4014"/>
<polygon fill="midnightblue" stroke="midnightblue" points="925.267,-80.9136 916.122,-75.5632 919.934,-85.4485 925.267,-80.9136"/>
</g>
<!-- Node18&#45;&gt;Node16 -->
<g id="edge26" class="edge"><title>Node18&#45;&gt;Node16</title>
<path fill="none" stroke="midnightblue" d="M941.36,-229.975C913.056,-219.769 865.467,-202.608 833.414,-191.049"/>
<polygon fill="midnightblue" stroke="midnightblue" points="834.191,-187.609 823.597,-187.509 831.816,-194.194 834.191,-187.609"/>
</g>
</g>
</svg>
