<?xml version="1.0" encoding="UTF-8" standalone="no"?>
<!DOCTYPE svg PUBLIC "-//W3C//DTD SVG 1.1//EN"
 "http://www.w3.org/Graphics/SVG/1.1/DTD/svg11.dtd">
<!-- Generated by graphviz version 2.38.0 (20140413.2041)
 -->
<!-- Title: /home/travis/build/ADVRHumanoids/ROSEndEffector/src/UniversalRosEndEffectorExecutor.cpp Pages: 1 -->
<svg width="1452pt" height="408pt"
 viewBox="0.00 0.00 1452.00 408.00" xmlns="http://www.w3.org/2000/svg" xmlns:xlink="http://www.w3.org/1999/xlink">
<g id="graph0" class="graph" transform="scale(1 1) rotate(0) translate(4 404)">
<title>/home/travis/build/ADVRHumanoids/ROSEndEffector/src/UniversalRosEndEffectorExecutor.cpp</title>
<!-- Node1 -->
<g id="node1" class="node"><title>Node1</title>
<polygon fill="#bfbfbf" stroke="black" points="627,-358.5 627,-399.5 842,-399.5 842,-358.5 627,-358.5"/>
<text text-anchor="start" x="635" y="-387.5" font-family="Helvetica,sans-Serif" font-size="10.00">/home/travis/build</text>
<text text-anchor="start" x="635" y="-376.5" font-family="Helvetica,sans-Serif" font-size="10.00">/ADVRHumanoids/ROSEndEffector</text>
<text text-anchor="middle" x="734.5" y="-365.5" font-family="Helvetica,sans-Serif" font-size="10.00">/src/UniversalRosEndEffectorExecutor.cpp</text>
</g>
<!-- Node2 -->
<g id="node2" class="node"><title>Node2</title>
<g id="a_node2"><a xlink:href="UniversalRosEndEffectorExecutor_8h.html" target="_top" xlink:title="ROSEndEffector/Universal\lRosEndEffectorExecutor.h">
<polygon fill="none" stroke="black" points="664.5,-291.5 664.5,-321.5 804.5,-321.5 804.5,-291.5 664.5,-291.5"/>
<text text-anchor="start" x="672.5" y="-309.5" font-family="Helvetica,sans-Serif" font-size="10.00">ROSEndEffector/Universal</text>
<text text-anchor="middle" x="734.5" y="-298.5" font-family="Helvetica,sans-Serif" font-size="10.00">RosEndEffectorExecutor.h</text>
</a>
</g>
</g>
<!-- Node1&#45;&gt;Node2 -->
<g id="edge1" class="edge"><title>Node1&#45;&gt;Node2</title>
<path fill="none" stroke="midnightblue" d="M734.5,-358.362C734.5,-350.226 734.5,-340.7 734.5,-332.105"/>
<polygon fill="midnightblue" stroke="midnightblue" points="738,-331.892 734.5,-321.892 731,-331.892 738,-331.892"/>
</g>
<!-- Node3 -->
<g id="node3" class="node"><title>Node3</title>
<polygon fill="none" stroke="#bfbfbf" points="782,-0.5 782,-19.5 839,-19.5 839,-0.5 782,-0.5"/>
<text text-anchor="middle" x="810.5" y="-7.5" font-family="Helvetica,sans-Serif" font-size="10.00">memory</text>
</g>
<!-- Node2&#45;&gt;Node3 -->
<g id="edge2" class="edge"><title>Node2&#45;&gt;Node3</title>
<path fill="none" stroke="midnightblue" d="M722.458,-291.345C707.632,-274.344 681.24,-245.439 655.5,-224 594.805,-173.446 498.271,-188.615 517.5,-112 524.373,-84.614 524.501,-72.3786 547.5,-56 627.414,0.909549 670.423,-37.1303 771.909,-19.8582"/>
<polygon fill="midnightblue" stroke="midnightblue" points="772.718,-23.268 781.916,-18.009 771.446,-16.3845 772.718,-23.268"/>
</g>
<!-- Node4 -->
<g id="node4" class="node"><title>Node4</title>
<polygon fill="none" stroke="#bfbfbf" points="899.5,-56.5 899.5,-75.5 943.5,-75.5 943.5,-56.5 899.5,-56.5"/>
<text text-anchor="middle" x="921.5" y="-63.5" font-family="Helvetica,sans-Serif" font-size="10.00">string</text>
</g>
<!-- Node2&#45;&gt;Node4 -->
<g id="edge3" class="edge"><title>Node2&#45;&gt;Node4</title>
<path fill="none" stroke="midnightblue" d="M804.738,-298.803C861.866,-291.732 935.945,-278.297 954.5,-255 995.072,-204.059 953.905,-120.538 932.586,-84.479"/>
<polygon fill="midnightblue" stroke="midnightblue" points="935.383,-82.3435 927.184,-75.6336 929.409,-85.9921 935.383,-82.3435"/>
</g>
<!-- Node5 -->
<g id="node5" class="node"><title>Node5</title>
<polygon fill="none" stroke="#bfbfbf" points="409.5,-230 409.5,-249 489.5,-249 489.5,-230 409.5,-230"/>
<text text-anchor="middle" x="449.5" y="-237" font-family="Helvetica,sans-Serif" font-size="10.00">ros/console.h</text>
</g>
<!-- Node2&#45;&gt;Node5 -->
<g id="edge4" class="edge"><title>Node2&#45;&gt;Node5</title>
<path fill="none" stroke="midnightblue" d="M664.468,-291.984C617.341,-282.529 553.926,-269.109 498.5,-255 494.645,-254.019 490.636,-252.936 486.647,-251.818"/>
<polygon fill="midnightblue" stroke="midnightblue" points="487.446,-248.406 476.868,-249.003 485.509,-255.133 487.446,-248.406"/>
</g>
<!-- Node6 -->
<g id="node6" class="node"><title>Node6</title>
<polygon fill="none" stroke="#bfbfbf" points="508,-230 508,-249 647,-249 647,-230 508,-230"/>
<text text-anchor="middle" x="577.5" y="-237" font-family="Helvetica,sans-Serif" font-size="10.00">sensor_msgs/JointState.h</text>
</g>
<!-- Node2&#45;&gt;Node6 -->
<g id="edge5" class="edge"><title>Node2&#45;&gt;Node6</title>
<path fill="none" stroke="midnightblue" d="M700.433,-291.396C672.764,-279.941 634.113,-263.938 607.577,-252.952"/>
<polygon fill="midnightblue" stroke="midnightblue" points="608.626,-249.599 598.048,-249.007 605.948,-256.066 608.626,-249.599"/>
</g>
<!-- Node7 -->
<g id="node7" class="node"><title>Node7</title>
<g id="a_node7"><a xlink:href="Parser_8h.html" target="_top" xlink:title="ROSEndEffector/Parser.h">
<polygon fill="none" stroke="black" points="336.5,-56.5 336.5,-75.5 470.5,-75.5 470.5,-56.5 336.5,-56.5"/>
<text text-anchor="middle" x="403.5" y="-63.5" font-family="Helvetica,sans-Serif" font-size="10.00">ROSEndEffector/Parser.h</text>
</a>
</g>
</g>
<!-- Node2&#45;&gt;Node7 -->
<g id="edge6" class="edge"><title>Node2&#45;&gt;Node7</title>
<path fill="none" stroke="midnightblue" d="M664.267,-305.19C576.524,-303.136 433.819,-293.736 400.5,-255 358.845,-206.573 382.624,-122.334 396.142,-85.3264"/>
<polygon fill="midnightblue" stroke="midnightblue" points="399.471,-86.4183 399.772,-75.8277 392.933,-83.9192 399.471,-86.4183"/>
</g>
<!-- Node13 -->
<g id="node13" class="node"><title>Node13</title>
<polygon fill="none" stroke="#bfbfbf" points="0,-0.5 0,-19.5 141,-19.5 141,-0.5 0,-0.5"/>
<text text-anchor="middle" x="70.5" y="-7.5" font-family="Helvetica,sans-Serif" font-size="10.00">boost/filesystem/path.hpp</text>
</g>
<!-- Node2&#45;&gt;Node13 -->
<g id="edge36" class="edge"><title>Node2&#45;&gt;Node13</title>
<path fill="none" stroke="midnightblue" d="M664.283,-303.501C519.136,-297.458 199.5,-273.429 199.5,-179 199.5,-179 199.5,-179 199.5,-121 199.5,-71.3463 143.478,-39.3654 105.271,-23.3281"/>
<polygon fill="midnightblue" stroke="midnightblue" points="106.57,-20.0781 95.9862,-19.5933 103.958,-26.5724 106.57,-20.0781"/>
</g>
<!-- Node14 -->
<g id="node14" class="node"><title>Node14</title>
<g id="a_node14"><a xlink:href="EEInterface_8h.html" target="_top" xlink:title="ROSEndEffector/EEInterface.h">
<polygon fill="none" stroke="black" points="526.5,-112.5 526.5,-131.5 684.5,-131.5 684.5,-112.5 526.5,-112.5"/>
<text text-anchor="middle" x="605.5" y="-119.5" font-family="Helvetica,sans-Serif" font-size="10.00">ROSEndEffector/EEInterface.h</text>
</a>
</g>
</g>
<!-- Node2&#45;&gt;Node14 -->
<g id="edge14" class="edge"><title>Node2&#45;&gt;Node14</title>
<path fill="none" stroke="midnightblue" d="M727.778,-291.475C719.581,-274.85 704.904,-246.558 689.5,-224 667.878,-192.336 638.427,-158.701 620.756,-139.34"/>
<polygon fill="midnightblue" stroke="midnightblue" points="623.098,-136.717 613.748,-131.735 617.951,-141.461 623.098,-136.717"/>
</g>
<!-- Node18 -->
<g id="node18" class="node"><title>Node18</title>
<g id="a_node18"><a xlink:href="EEHal_8h.html" target="_top" xlink:title="ROSEndEffector/EEHal.h">
<polygon fill="none" stroke="black" points="742,-168.5 742,-187.5 873,-187.5 873,-168.5 742,-168.5"/>
<text text-anchor="middle" x="807.5" y="-175.5" font-family="Helvetica,sans-Serif" font-size="10.00">ROSEndEffector/EEHal.h</text>
</a>
</g>
</g>
<!-- Node2&#45;&gt;Node18 -->
<g id="edge20" class="edge"><title>Node2&#45;&gt;Node18</title>
<path fill="none" stroke="midnightblue" d="M741.651,-291.474C750.102,-275.088 764.756,-247.256 778.5,-224 784.066,-214.582 790.644,-204.312 796.127,-195.963"/>
<polygon fill="midnightblue" stroke="midnightblue" points="799.128,-197.771 801.74,-187.503 793.295,-193.901 799.128,-197.771"/>
</g>
<!-- Node20 -->
<g id="node20" class="node"><title>Node20</title>
<g id="a_node20"><a xlink:href="DummyHal_8h.html" target="_top" xlink:title="ROSEndEffector/DummyHal.h">
<polygon fill="none" stroke="black" points="787.5,-230 787.5,-249 945.5,-249 945.5,-230 787.5,-230"/>
<text text-anchor="middle" x="866.5" y="-237" font-family="Helvetica,sans-Serif" font-size="10.00">ROSEndEffector/DummyHal.h</text>
</a>
</g>
</g>
<!-- Node2&#45;&gt;Node20 -->
<g id="edge27" class="edge"><title>Node2&#45;&gt;Node20</title>
<path fill="none" stroke="midnightblue" d="M763.142,-291.396C785.995,-280.142 817.759,-264.501 840.024,-253.538"/>
<polygon fill="midnightblue" stroke="midnightblue" points="841.799,-256.565 849.224,-249.007 838.707,-250.285 841.799,-256.565"/>
</g>
<!-- Node21 -->
<g id="node21" class="node"><title>Node21</title>
<g id="a_node21"><a xlink:href="Utils_8h.html" target="_top" xlink:title="ROSEndEffector/Utils.h">
<polygon fill="none" stroke="black" points="1005,-230 1005,-249 1130,-249 1130,-230 1005,-230"/>
<text text-anchor="middle" x="1067.5" y="-237" font-family="Helvetica,sans-Serif" font-size="10.00">ROSEndEffector/Utils.h</text>
</a>
</g>
</g>
<!-- Node2&#45;&gt;Node21 -->
<g id="edge31" class="edge"><title>Node2&#45;&gt;Node21</title>
<path fill="none" stroke="midnightblue" d="M804.714,-291.795C867.177,-279.602 957.187,-262.033 1013.99,-250.946"/>
<polygon fill="midnightblue" stroke="midnightblue" points="1014.7,-254.372 1023.85,-249.021 1013.36,-247.502 1014.7,-254.372"/>
</g>
<!-- Node23 -->
<g id="node23" class="node"><title>Node23</title>
<polygon fill="none" stroke="#bfbfbf" points="1148.5,-224.5 1148.5,-254.5 1288.5,-254.5 1288.5,-224.5 1148.5,-224.5"/>
<text text-anchor="start" x="1156.5" y="-242.5" font-family="Helvetica,sans-Serif" font-size="10.00">ros_end_effector/EEGrasp</text>
<text text-anchor="middle" x="1218.5" y="-231.5" font-family="Helvetica,sans-Serif" font-size="10.00">Control.h</text>
</g>
<!-- Node2&#45;&gt;Node23 -->
<g id="edge34" class="edge"><title>Node2&#45;&gt;Node23</title>
<path fill="none" stroke="midnightblue" d="M804.727,-297.907C883.316,-289.142 1014.66,-273.695 1138.27,-254.977"/>
<polygon fill="midnightblue" stroke="midnightblue" points="1138.94,-258.416 1148.3,-253.45 1137.88,-251.496 1138.94,-258.416"/>
</g>
<!-- Node24 -->
<g id="node24" class="node"><title>Node24</title>
<polygon fill="none" stroke="#bfbfbf" points="1307,-224.5 1307,-254.5 1444,-254.5 1444,-224.5 1307,-224.5"/>
<text text-anchor="start" x="1315" y="-242.5" font-family="Helvetica,sans-Serif" font-size="10.00">ros_end_effector/EEPinch</text>
<text text-anchor="middle" x="1375.5" y="-231.5" font-family="Helvetica,sans-Serif" font-size="10.00">Control.h</text>
</g>
<!-- Node2&#45;&gt;Node24 -->
<g id="edge35" class="edge"><title>Node2&#45;&gt;Node24</title>
<path fill="none" stroke="midnightblue" d="M804.517,-301.351C909.296,-294.669 1113.26,-279.842 1296.56,-255.042"/>
<polygon fill="midnightblue" stroke="midnightblue" points="1297.22,-258.484 1306.65,-253.663 1296.27,-251.548 1297.22,-258.484"/>
</g>
<!-- Node7&#45;&gt;Node3 -->
<g id="edge7" class="edge"><title>Node7&#45;&gt;Node3</title>
<path fill="none" stroke="midnightblue" d="M470.522,-57.2365C561.895,-46.5942 719.358,-28.0296 771.892,-19.8051"/>
<polygon fill="midnightblue" stroke="midnightblue" points="772.652,-23.2268 781.937,-18.1244 771.497,-16.3227 772.652,-23.2268"/>
</g>
<!-- Node8 -->
<g id="node8" class="node"><title>Node8</title>
<polygon fill="none" stroke="#bfbfbf" points="434,-0.5 434,-19.5 493,-19.5 493,-0.5 434,-0.5"/>
<text text-anchor="middle" x="463.5" y="-7.5" font-family="Helvetica,sans-Serif" font-size="10.00">ros/ros.h</text>
</g>
<!-- Node7&#45;&gt;Node8 -->
<g id="edge8" class="edge"><title>Node7&#45;&gt;Node8</title>
<path fill="none" stroke="midnightblue" d="M413.14,-56.324C422.01,-48.3414 435.375,-36.3128 446.108,-26.6529"/>
<polygon fill="midnightblue" stroke="midnightblue" points="448.593,-29.1251 453.685,-19.8339 443.91,-23.922 448.593,-29.1251"/>
</g>
<!-- Node9 -->
<g id="node9" class="node"><title>Node9</title>
<polygon fill="none" stroke="#bfbfbf" points="511.5,-0.5 511.5,-19.5 607.5,-19.5 607.5,-0.5 511.5,-0.5"/>
<text text-anchor="middle" x="559.5" y="-7.5" font-family="Helvetica,sans-Serif" font-size="10.00">yaml&#45;cpp/yaml.h</text>
</g>
<!-- Node7&#45;&gt;Node9 -->
<g id="edge9" class="edge"><title>Node7&#45;&gt;Node9</title>
<path fill="none" stroke="midnightblue" d="M428.219,-56.4435C454.348,-47.3986 495.759,-33.064 525.076,-22.9158"/>
<polygon fill="midnightblue" stroke="midnightblue" points="526.592,-26.0951 534.897,-19.5164 524.302,-19.4801 526.592,-26.0951"/>
</g>
<!-- Node10 -->
<g id="node10" class="node"><title>Node10</title>
<polygon fill="none" stroke="#bfbfbf" points="625.5,-0.5 625.5,-19.5 763.5,-19.5 763.5,-0.5 625.5,-0.5"/>
<text text-anchor="middle" x="694.5" y="-7.5" font-family="Helvetica,sans-Serif" font-size="10.00">urdf_parser/urdf_parser.h</text>
</g>
<!-- Node7&#45;&gt;Node10 -->
<g id="edge10" class="edge"><title>Node7&#45;&gt;Node10</title>
<path fill="none" stroke="midnightblue" d="M449.61,-56.4435C500.906,-46.9246 583.773,-31.5472 638.691,-21.3563"/>
<polygon fill="midnightblue" stroke="midnightblue" points="639.412,-24.7823 648.606,-19.5164 638.135,-17.8998 639.412,-24.7823"/>
</g>
<!-- Node11 -->
<g id="node11" class="node"><title>Node11</title>
<polygon fill="none" stroke="#bfbfbf" points="159.5,-0.5 159.5,-19.5 299.5,-19.5 299.5,-0.5 159.5,-0.5"/>
<text text-anchor="middle" x="229.5" y="-7.5" font-family="Helvetica,sans-Serif" font-size="10.00">kdl_parser/kdl_parser.hpp</text>
</g>
<!-- Node7&#45;&gt;Node11 -->
<g id="edge11" class="edge"><title>Node7&#45;&gt;Node11</title>
<path fill="none" stroke="midnightblue" d="M375.929,-56.4435C346.403,-47.2801 299.382,-32.6876 266.617,-22.5192"/>
<polygon fill="midnightblue" stroke="midnightblue" points="267.53,-19.1378 256.942,-19.5164 265.455,-25.8232 267.53,-19.1378"/>
</g>
<!-- Node12 -->
<g id="node12" class="node"><title>Node12</title>
<polygon fill="none" stroke="#bfbfbf" points="317.5,-0.5 317.5,-19.5 415.5,-19.5 415.5,-0.5 317.5,-0.5"/>
<text text-anchor="middle" x="366.5" y="-7.5" font-family="Helvetica,sans-Serif" font-size="10.00">srdfdom/model.h</text>
</g>
<!-- Node7&#45;&gt;Node12 -->
<g id="edge12" class="edge"><title>Node7&#45;&gt;Node12</title>
<path fill="none" stroke="midnightblue" d="M397.39,-56.083C392.218,-48.5341 384.654,-37.4948 378.306,-28.2298"/>
<polygon fill="midnightblue" stroke="midnightblue" points="381.036,-26.0221 372.496,-19.7511 375.261,-29.9787 381.036,-26.0221"/>
</g>
<!-- Node7&#45;&gt;Node13 -->
<g id="edge13" class="edge"><title>Node7&#45;&gt;Node13</title>
<path fill="none" stroke="midnightblue" d="M350.735,-56.4435C291.67,-46.8654 196.026,-31.3556 133.194,-21.1667"/>
<polygon fill="midnightblue" stroke="midnightblue" points="133.449,-17.6624 123.018,-19.5164 132.329,-24.5721 133.449,-17.6624"/>
</g>
<!-- Node14&#45;&gt;Node3 -->
<g id="edge17" class="edge"><title>Node14&#45;&gt;Node3</title>
<path fill="none" stroke="midnightblue" d="M590.515,-112.384C570.38,-99.7414 538.928,-75.5476 555.5,-56 585.381,-20.7534 709.859,-28.5877 771.817,-19.7112"/>
<polygon fill="midnightblue" stroke="midnightblue" points="772.642,-23.1212 781.912,-17.9913 771.466,-16.2206 772.642,-23.1212"/>
</g>
<!-- Node14&#45;&gt;Node7 -->
<g id="edge18" class="edge"><title>Node14&#45;&gt;Node7</title>
<path fill="none" stroke="midnightblue" d="M573.492,-112.444C538.771,-103.162 483.212,-88.3093 445.123,-78.127"/>
<polygon fill="midnightblue" stroke="midnightblue" points="445.922,-74.7178 435.358,-75.5164 444.115,-81.4803 445.922,-74.7178"/>
</g>
<!-- Node15 -->
<g id="node15" class="node"><title>Node15</title>
<polygon fill="none" stroke="#bfbfbf" points="564.5,-56.5 564.5,-75.5 602.5,-75.5 602.5,-56.5 564.5,-56.5"/>
<text text-anchor="middle" x="583.5" y="-63.5" font-family="Helvetica,sans-Serif" font-size="10.00">map</text>
</g>
<!-- Node14&#45;&gt;Node15 -->
<g id="edge15" class="edge"><title>Node14&#45;&gt;Node15</title>
<path fill="none" stroke="midnightblue" d="M601.867,-112.083C598.888,-104.77 594.574,-94.1814 590.875,-85.1034"/>
<polygon fill="midnightblue" stroke="midnightblue" points="594.08,-83.6914 587.065,-75.7511 587.597,-86.3326 594.08,-83.6914"/>
</g>
<!-- Node16 -->
<g id="node16" class="node"><title>Node16</title>
<polygon fill="none" stroke="#bfbfbf" points="621,-56.5 621,-75.5 668,-75.5 668,-56.5 621,-56.5"/>
<text text-anchor="middle" x="644.5" y="-63.5" font-family="Helvetica,sans-Serif" font-size="10.00">vector</text>
</g>
<!-- Node14&#45;&gt;Node16 -->
<g id="edge16" class="edge"><title>Node14&#45;&gt;Node16</title>
<path fill="none" stroke="midnightblue" d="M611.94,-112.083C617.449,-104.455 625.531,-93.2645 632.265,-83.9408"/>
<polygon fill="midnightblue" stroke="midnightblue" points="635.162,-85.9071 638.18,-75.7511 629.487,-81.8087 635.162,-85.9071"/>
</g>
<!-- Node17 -->
<g id="node17" class="node"><title>Node17</title>
<polygon fill="none" stroke="#bfbfbf" points="686,-56.5 686,-75.5 763,-75.5 763,-56.5 686,-56.5"/>
<text text-anchor="middle" x="724.5" y="-63.5" font-family="Helvetica,sans-Serif" font-size="10.00">Eigen/Dense</text>
</g>
<!-- Node14&#45;&gt;Node17 -->
<g id="edge19" class="edge"><title>Node14&#45;&gt;Node17</title>
<path fill="none" stroke="midnightblue" d="M624.356,-112.444C643.766,-103.636 674.23,-89.8116 696.465,-79.722"/>
<polygon fill="midnightblue" stroke="midnightblue" points="698.072,-82.836 705.732,-75.5164 695.18,-76.4615 698.072,-82.836"/>
</g>
<!-- Node18&#45;&gt;Node3 -->
<g id="edge26" class="edge"><title>Node18&#45;&gt;Node3</title>
<path fill="none" stroke="midnightblue" d="M782.053,-168.498C755.64,-158.077 719.704,-138.486 731.5,-112 741.231,-90.1513 756.29,-94.4585 771.5,-76 783.637,-61.2701 794.54,-42.3679 801.711,-28.7486"/>
<polygon fill="midnightblue" stroke="midnightblue" points="804.993,-30.0176 806.426,-19.5201 798.759,-26.8327 804.993,-30.0176"/>
</g>
<!-- Node18&#45;&gt;Node4 -->
<g id="edge25" class="edge"><title>Node18&#45;&gt;Node4</title>
<path fill="none" stroke="midnightblue" d="M827.789,-168.478C844.287,-160.787 867.389,-148.201 883.5,-132 896.868,-118.557 907.286,-99.484 913.805,-85.4743"/>
<polygon fill="midnightblue" stroke="midnightblue" points="917.184,-86.4873 918.015,-75.9251 910.778,-83.6633 917.184,-86.4873"/>
</g>
<!-- Node18&#45;&gt;Node14 -->
<g id="edge24" class="edge"><title>Node18&#45;&gt;Node14</title>
<path fill="none" stroke="midnightblue" d="M775.492,-168.444C740.771,-159.162 685.212,-144.309 647.123,-134.127"/>
<polygon fill="midnightblue" stroke="midnightblue" points="647.922,-130.718 637.358,-131.516 646.115,-137.48 647.922,-130.718"/>
</g>
<!-- Node19 -->
<g id="node19" class="node"><title>Node19</title>
<g id="a_node19"><a xlink:href="IMotor_8h.html" target="_top" xlink:title="ROSEndEffector/IMotor.h">
<polygon fill="none" stroke="black" points="740.5,-112.5 740.5,-131.5 874.5,-131.5 874.5,-112.5 740.5,-112.5"/>
<text text-anchor="middle" x="807.5" y="-119.5" font-family="Helvetica,sans-Serif" font-size="10.00">ROSEndEffector/IMotor.h</text>
</a>
</g>
</g>
<!-- Node18&#45;&gt;Node19 -->
<g id="edge21" class="edge"><title>Node18&#45;&gt;Node19</title>
<path fill="none" stroke="midnightblue" d="M807.5,-168.083C807.5,-161.006 807.5,-150.861 807.5,-141.986"/>
<polygon fill="midnightblue" stroke="midnightblue" points="811,-141.751 807.5,-131.751 804,-141.751 811,-141.751"/>
</g>
<!-- Node19&#45;&gt;Node3 -->
<g id="edge23" class="edge"><title>Node19&#45;&gt;Node3</title>
<path fill="none" stroke="midnightblue" d="M807.735,-112.368C808.22,-94.617 809.336,-53.6664 809.993,-29.5974"/>
<polygon fill="midnightblue" stroke="midnightblue" points="813.492,-29.6832 810.266,-19.5914 806.494,-29.4922 813.492,-29.6832"/>
</g>
<!-- Node19&#45;&gt;Node4 -->
<g id="edge22" class="edge"><title>Node19&#45;&gt;Node4</title>
<path fill="none" stroke="midnightblue" d="M825.564,-112.444C844.075,-103.675 873.081,-89.9355 894.355,-79.8579"/>
<polygon fill="midnightblue" stroke="midnightblue" points="895.982,-82.9604 903.521,-75.5164 892.985,-76.6343 895.982,-82.9604"/>
</g>
<!-- Node20&#45;&gt;Node3 -->
<g id="edge30" class="edge"><title>Node20&#45;&gt;Node3</title>
<path fill="none" stroke="midnightblue" d="M876.694,-229.878C907.769,-202.563 996.571,-116.197 952.5,-56 929.066,-23.9909 882.73,-14.1848 849.352,-11.4661"/>
<polygon fill="midnightblue" stroke="midnightblue" points="849.217,-7.95069 839.016,-10.8133 848.776,-14.9368 849.217,-7.95069"/>
</g>
<!-- Node20&#45;&gt;Node4 -->
<g id="edge29" class="edge"><title>Node20&#45;&gt;Node4</title>
<path fill="none" stroke="midnightblue" d="M870.066,-229.775C877.359,-211.731 894.235,-168.912 905.5,-132 910.17,-116.697 914.444,-99.0549 917.398,-86.0151"/>
<polygon fill="midnightblue" stroke="midnightblue" points="920.89,-86.435 919.631,-75.9152 914.055,-84.9241 920.89,-86.435"/>
</g>
<!-- Node20&#45;&gt;Node18 -->
<g id="edge28" class="edge"><title>Node20&#45;&gt;Node18</title>
<path fill="none" stroke="midnightblue" d="M858.047,-229.975C848.934,-220.785 834.23,-205.956 823.024,-194.656"/>
<polygon fill="midnightblue" stroke="midnightblue" points="825.464,-192.146 815.938,-187.509 820.493,-197.074 825.464,-192.146"/>
</g>
<!-- Node21&#45;&gt;Node3 -->
<g id="edge33" class="edge"><title>Node21&#45;&gt;Node3</title>
<path fill="none" stroke="midnightblue" d="M1065.51,-229.678C1058.39,-200.218 1031.37,-104.371 971.5,-56 936.515,-27.7352 884.889,-17.2004 849.588,-13.2875"/>
<polygon fill="midnightblue" stroke="midnightblue" points="849.486,-9.76103 839.194,-12.2734 848.807,-16.728 849.486,-9.76103"/>
</g>
<!-- Node22 -->
<g id="node22" class="node"><title>Node22</title>
<polygon fill="none" stroke="#bfbfbf" points="1083,-168.5 1083,-187.5 1130,-187.5 1130,-168.5 1083,-168.5"/>
<text text-anchor="middle" x="1106.5" y="-175.5" font-family="Helvetica,sans-Serif" font-size="10.00">cmath</text>
</g>
<!-- Node21&#45;&gt;Node22 -->
<g id="edge32" class="edge"><title>Node21&#45;&gt;Node22</title>
<path fill="none" stroke="midnightblue" d="M1073.09,-229.975C1078.88,-221.138 1088.09,-207.089 1095.37,-195.975"/>
<polygon fill="midnightblue" stroke="midnightblue" points="1098.37,-197.791 1100.92,-187.509 1092.51,-193.954 1098.37,-197.791"/>
</g>
</g>
</svg>
