<?xml version="1.0" encoding="UTF-8" standalone="no"?>
<!DOCTYPE svg PUBLIC "-//W3C//DTD SVG 1.1//EN"
 "http://www.w3.org/Graphics/SVG/1.1/DTD/svg11.dtd">
<!-- Generated by graphviz version 2.38.0 (20140413.2041)
 -->
<!-- Title: /home/travis/build/ADVRHumanoids/ROSEndEffector/src/UniversalRosEndEffector.cpp Pages: 1 -->
<svg width="1338pt" height="408pt"
 viewBox="0.00 0.00 1337.50 408.00" xmlns="http://www.w3.org/2000/svg" xmlns:xlink="http://www.w3.org/1999/xlink">
<g id="graph0" class="graph" transform="scale(1 1) rotate(0) translate(4 404)">
<title>/home/travis/build/ADVRHumanoids/ROSEndEffector/src/UniversalRosEndEffector.cpp</title>
<!-- Node1 -->
<g id="node1" class="node"><title>Node1</title>
<polygon fill="#bfbfbf" stroke="black" points="235,-358.5 235,-399.5 414,-399.5 414,-358.5 235,-358.5"/>
<text text-anchor="start" x="243" y="-387.5" font-family="Helvetica,sans-Serif" font-size="10.00">/home/travis/build</text>
<text text-anchor="start" x="243" y="-376.5" font-family="Helvetica,sans-Serif" font-size="10.00">/ADVRHumanoids/ROSEndEffector</text>
<text text-anchor="middle" x="324.5" y="-365.5" font-family="Helvetica,sans-Serif" font-size="10.00">/src/UniversalRosEndEffector.cpp</text>
</g>
<!-- Node2 -->
<g id="node2" class="node"><title>Node2</title>
<polygon fill="none" stroke="#bfbfbf" points="0,-0.5 0,-19.5 59,-19.5 59,-0.5 0,-0.5"/>
<text text-anchor="middle" x="29.5" y="-7.5" font-family="Helvetica,sans-Serif" font-size="10.00">ros/ros.h</text>
</g>
<!-- Node1&#45;&gt;Node2 -->
<g id="edge1" class="edge"><title>Node1&#45;&gt;Node2</title>
<path fill="none" stroke="midnightblue" d="M234.789,-373.071C147.998,-362.881 29.5,-332.18 29.5,-240.5 29.5,-240.5 29.5,-240.5 29.5,-121 29.5,-88.948 29.5,-51.6426 29.5,-29.7489"/>
<polygon fill="midnightblue" stroke="midnightblue" points="33.0001,-29.5577 29.5,-19.5578 26.0001,-29.5578 33.0001,-29.5577"/>
</g>
<!-- Node3 -->
<g id="node3" class="node"><title>Node3</title>
<g id="a_node3"><a xlink:href="UniversalRosEndEffectorExecutor_8h.html" target="_top" xlink:title="ROSEndEffector/Universal\lRosEndEffectorExecutor.h">
<polygon fill="none" stroke="black" points="549.5,-291.5 549.5,-321.5 689.5,-321.5 689.5,-291.5 549.5,-291.5"/>
<text text-anchor="start" x="557.5" y="-309.5" font-family="Helvetica,sans-Serif" font-size="10.00">ROSEndEffector/Universal</text>
<text text-anchor="middle" x="619.5" y="-298.5" font-family="Helvetica,sans-Serif" font-size="10.00">RosEndEffectorExecutor.h</text>
</a>
</g>
</g>
<!-- Node1&#45;&gt;Node3 -->
<g id="edge2" class="edge"><title>Node1&#45;&gt;Node3</title>
<path fill="none" stroke="midnightblue" d="M406.282,-358.455C451.683,-347.605 507.527,-334.26 550.673,-323.949"/>
<polygon fill="midnightblue" stroke="midnightblue" points="551.601,-327.325 560.513,-321.597 549.974,-320.517 551.601,-327.325"/>
</g>
<!-- Node4 -->
<g id="node4" class="node"><title>Node4</title>
<polygon fill="none" stroke="#bfbfbf" points="781,-0.5 781,-19.5 838,-19.5 838,-0.5 781,-0.5"/>
<text text-anchor="middle" x="809.5" y="-7.5" font-family="Helvetica,sans-Serif" font-size="10.00">memory</text>
</g>
<!-- Node3&#45;&gt;Node4 -->
<g id="edge3" class="edge"><title>Node3&#45;&gt;Node4</title>
<path fill="none" stroke="midnightblue" d="M689.547,-303.93C835.993,-300.011 1164.21,-287.652 1202.5,-255 1228.99,-232.408 1221.5,-213.817 1221.5,-179 1221.5,-179 1221.5,-179 1221.5,-121 1221.5,-44.2238 951.057,-19.6492 848.394,-13.0864"/>
<polygon fill="midnightblue" stroke="midnightblue" points="848.34,-9.57659 838.144,-12.4558 847.91,-16.5634 848.34,-9.57659"/>
</g>
<!-- Node5 -->
<g id="node5" class="node"><title>Node5</title>
<polygon fill="none" stroke="#bfbfbf" points="737.5,-56.5 737.5,-75.5 781.5,-75.5 781.5,-56.5 737.5,-56.5"/>
<text text-anchor="middle" x="759.5" y="-63.5" font-family="Helvetica,sans-Serif" font-size="10.00">string</text>
</g>
<!-- Node3&#45;&gt;Node5 -->
<g id="edge4" class="edge"><title>Node3&#45;&gt;Node5</title>
<path fill="none" stroke="midnightblue" d="M652.057,-291.457C669.806,-282.723 691.375,-270.251 707.5,-255 754.878,-210.189 768.957,-194.52 787.5,-132 792.553,-114.963 782.96,-96.4307 773.657,-83.5298"/>
<polygon fill="midnightblue" stroke="midnightblue" points="776.363,-81.3081 767.446,-75.5858 770.848,-85.6196 776.363,-81.3081"/>
</g>
<!-- Node6 -->
<g id="node6" class="node"><title>Node6</title>
<polygon fill="none" stroke="#bfbfbf" points="1249.5,-230 1249.5,-249 1329.5,-249 1329.5,-230 1249.5,-230"/>
<text text-anchor="middle" x="1289.5" y="-237" font-family="Helvetica,sans-Serif" font-size="10.00">ros/console.h</text>
</g>
<!-- Node3&#45;&gt;Node6 -->
<g id="edge5" class="edge"><title>Node3&#45;&gt;Node6</title>
<path fill="none" stroke="midnightblue" d="M689.767,-303.859C804.685,-300.256 1039.66,-289.034 1235.5,-255 1240.69,-254.099 1246.1,-252.928 1251.41,-251.644"/>
<polygon fill="midnightblue" stroke="midnightblue" points="1252.6,-254.953 1261.41,-249.073 1250.85,-248.173 1252.6,-254.953"/>
</g>
<!-- Node7 -->
<g id="node7" class="node"><title>Node7</title>
<polygon fill="none" stroke="#bfbfbf" points="58,-230 58,-249 197,-249 197,-230 58,-230"/>
<text text-anchor="middle" x="127.5" y="-237" font-family="Helvetica,sans-Serif" font-size="10.00">sensor_msgs/JointState.h</text>
</g>
<!-- Node3&#45;&gt;Node7 -->
<g id="edge6" class="edge"><title>Node3&#45;&gt;Node7</title>
<path fill="none" stroke="midnightblue" d="M549.333,-297.847C467.933,-288.73 329.761,-272.516 211.5,-255 202.778,-253.708 193.566,-252.232 184.565,-250.728"/>
<polygon fill="midnightblue" stroke="midnightblue" points="184.973,-247.247 174.529,-249.026 183.803,-254.149 184.973,-247.247"/>
</g>
<!-- Node8 -->
<g id="node8" class="node"><title>Node8</title>
<g id="a_node8"><a xlink:href="Parser_8h.html" target="_top" xlink:title="ROSEndEffector/Parser.h">
<polygon fill="none" stroke="black" points="253.5,-56.5 253.5,-75.5 387.5,-75.5 387.5,-56.5 253.5,-56.5"/>
<text text-anchor="middle" x="320.5" y="-63.5" font-family="Helvetica,sans-Serif" font-size="10.00">ROSEndEffector/Parser.h</text>
</a>
</g>
</g>
<!-- Node3&#45;&gt;Node8 -->
<g id="edge7" class="edge"><title>Node3&#45;&gt;Node8</title>
<path fill="none" stroke="midnightblue" d="M574.226,-291.455C550.744,-282.968 522.288,-270.728 499.5,-255 426.298,-204.475 359.575,-120.114 332.85,-84.119"/>
<polygon fill="midnightblue" stroke="midnightblue" points="335.403,-81.6818 326.667,-75.6867 329.757,-85.8208 335.403,-81.6818"/>
</g>
<!-- Node13 -->
<g id="node13" class="node"><title>Node13</title>
<polygon fill="none" stroke="#bfbfbf" points="77,-0.5 77,-19.5 218,-19.5 218,-0.5 77,-0.5"/>
<text text-anchor="middle" x="147.5" y="-7.5" font-family="Helvetica,sans-Serif" font-size="10.00">boost/filesystem/path.hpp</text>
</g>
<!-- Node3&#45;&gt;Node13 -->
<g id="edge37" class="edge"><title>Node3&#45;&gt;Node13</title>
<path fill="none" stroke="midnightblue" d="M549.061,-297.524C435.732,-282.708 225.5,-246.172 225.5,-179 225.5,-179 225.5,-179 225.5,-121 225.5,-80.967 190.698,-45.3355 167.587,-26.0874"/>
<polygon fill="midnightblue" stroke="midnightblue" points="169.68,-23.2799 159.688,-19.7595 165.304,-28.7432 169.68,-23.2799"/>
</g>
<!-- Node14 -->
<g id="node14" class="node"><title>Node14</title>
<g id="a_node14"><a xlink:href="EEInterface_8h.html" target="_top" xlink:title="ROSEndEffector/EEInterface.h">
<polygon fill="none" stroke="black" points="395.5,-112.5 395.5,-131.5 553.5,-131.5 553.5,-112.5 395.5,-112.5"/>
<text text-anchor="middle" x="474.5" y="-119.5" font-family="Helvetica,sans-Serif" font-size="10.00">ROSEndEffector/EEInterface.h</text>
</a>
</g>
</g>
<!-- Node3&#45;&gt;Node14 -->
<g id="edge15" class="edge"><title>Node3&#45;&gt;Node14</title>
<path fill="none" stroke="midnightblue" d="M576.736,-291.358C557.929,-283.276 536.893,-271.418 522.5,-255 493.396,-221.802 481.45,-169.536 476.95,-141.78"/>
<polygon fill="midnightblue" stroke="midnightblue" points="480.403,-141.203 475.488,-131.817 473.477,-142.219 480.403,-141.203"/>
</g>
<!-- Node18 -->
<g id="node18" class="node"><title>Node18</title>
<g id="a_node18"><a xlink:href="EEHal_8h.html" target="_top" xlink:title="ROSEndEffector/EEHal.h">
<polygon fill="none" stroke="black" points="535,-168.5 535,-187.5 666,-187.5 666,-168.5 535,-168.5"/>
<text text-anchor="middle" x="600.5" y="-175.5" font-family="Helvetica,sans-Serif" font-size="10.00">ROSEndEffector/EEHal.h</text>
</a>
</g>
</g>
<!-- Node3&#45;&gt;Node18 -->
<g id="edge21" class="edge"><title>Node3&#45;&gt;Node18</title>
<path fill="none" stroke="midnightblue" d="M575.755,-291.32C558.823,-283.449 541.21,-271.768 531.5,-255 524.595,-243.077 524.938,-236.115 531.5,-224 539.249,-209.696 553.734,-199.219 567.44,-191.992"/>
<polygon fill="midnightblue" stroke="midnightblue" points="569.238,-195.01 576.712,-187.501 566.186,-188.71 569.238,-195.01"/>
</g>
<!-- Node20 -->
<g id="node20" class="node"><title>Node20</title>
<g id="a_node20"><a xlink:href="DummyHal_8h.html" target="_top" xlink:title="ROSEndEffector/DummyHal.h">
<polygon fill="none" stroke="black" points="540.5,-230 540.5,-249 698.5,-249 698.5,-230 540.5,-230"/>
<text text-anchor="middle" x="619.5" y="-237" font-family="Helvetica,sans-Serif" font-size="10.00">ROSEndEffector/DummyHal.h</text>
</a>
</g>
</g>
<!-- Node3&#45;&gt;Node20 -->
<g id="edge28" class="edge"><title>Node3&#45;&gt;Node20</title>
<path fill="none" stroke="midnightblue" d="M619.5,-291.396C619.5,-282.064 619.5,-269.714 619.5,-259.517"/>
<polygon fill="midnightblue" stroke="midnightblue" points="623,-259.195 619.5,-249.195 616,-259.195 623,-259.195"/>
</g>
<!-- Node21 -->
<g id="node21" class="node"><title>Node21</title>
<g id="a_node21"><a xlink:href="Utils_8h.html" target="_top" xlink:title="ROSEndEffector/Utils.h">
<polygon fill="none" stroke="black" points="1068,-230 1068,-249 1193,-249 1193,-230 1068,-230"/>
<text text-anchor="middle" x="1130.5" y="-237" font-family="Helvetica,sans-Serif" font-size="10.00">ROSEndEffector/Utils.h</text>
</a>
</g>
</g>
<!-- Node3&#45;&gt;Node21 -->
<g id="edge32" class="edge"><title>Node3&#45;&gt;Node21</title>
<path fill="none" stroke="midnightblue" d="M689.866,-299.331C776.953,-291.259 929.652,-275.67 1059.5,-255 1066.76,-253.844 1074.41,-252.461 1081.88,-251.013"/>
<polygon fill="midnightblue" stroke="midnightblue" points="1082.8,-254.4 1091.92,-249.016 1081.43,-247.535 1082.8,-254.4"/>
</g>
<!-- Node23 -->
<g id="node23" class="node"><title>Node23</title>
<polygon fill="none" stroke="#bfbfbf" points="754.5,-224.5 754.5,-254.5 894.5,-254.5 894.5,-224.5 754.5,-224.5"/>
<text text-anchor="start" x="762.5" y="-242.5" font-family="Helvetica,sans-Serif" font-size="10.00">ros_end_effector/EEGrasp</text>
<text text-anchor="middle" x="824.5" y="-231.5" font-family="Helvetica,sans-Serif" font-size="10.00">Control.h</text>
</g>
<!-- Node3&#45;&gt;Node23 -->
<g id="edge35" class="edge"><title>Node3&#45;&gt;Node23</title>
<path fill="none" stroke="midnightblue" d="M663.73,-291.476C695.011,-281.557 737.135,-268.201 770.418,-257.648"/>
<polygon fill="midnightblue" stroke="midnightblue" points="771.522,-260.97 779.996,-254.611 769.406,-254.297 771.522,-260.97"/>
</g>
<!-- Node24 -->
<g id="node24" class="node"><title>Node24</title>
<polygon fill="none" stroke="#bfbfbf" points="913,-224.5 913,-254.5 1050,-254.5 1050,-224.5 913,-224.5"/>
<text text-anchor="start" x="921" y="-242.5" font-family="Helvetica,sans-Serif" font-size="10.00">ros_end_effector/EEPinch</text>
<text text-anchor="middle" x="981.5" y="-231.5" font-family="Helvetica,sans-Serif" font-size="10.00">Control.h</text>
</g>
<!-- Node3&#45;&gt;Node24 -->
<g id="edge36" class="edge"><title>Node3&#45;&gt;Node24</title>
<path fill="none" stroke="midnightblue" d="M689.555,-293.2C744.694,-283.483 823.771,-269.468 902.504,-255.173"/>
<polygon fill="midnightblue" stroke="midnightblue" points="903.389,-258.57 912.602,-253.338 902.137,-251.683 903.389,-258.57"/>
</g>
<!-- Node8&#45;&gt;Node2 -->
<g id="edge9" class="edge"><title>Node8&#45;&gt;Node2</title>
<path fill="none" stroke="midnightblue" d="M267.515,-56.4717C218.415,-48.3666 143.118,-35.4267 69.2708,-20.2868"/>
<polygon fill="midnightblue" stroke="midnightblue" points="69.8366,-16.8298 59.3353,-18.2345 68.4205,-23.6851 69.8366,-16.8298"/>
</g>
<!-- Node8&#45;&gt;Node4 -->
<g id="edge8" class="edge"><title>Node8&#45;&gt;Node4</title>
<path fill="none" stroke="midnightblue" d="M387.628,-56.9689C390.625,-56.636 393.594,-56.3116 396.5,-56 559.728,-38.5025 604.577,-47.0086 770.867,-19.8688"/>
<polygon fill="midnightblue" stroke="midnightblue" points="771.655,-23.2862 780.951,-18.204 770.514,-16.3797 771.655,-23.2862"/>
</g>
<!-- Node9 -->
<g id="node9" class="node"><title>Node9</title>
<polygon fill="none" stroke="#bfbfbf" points="236.5,-0.5 236.5,-19.5 332.5,-19.5 332.5,-0.5 236.5,-0.5"/>
<text text-anchor="middle" x="284.5" y="-7.5" font-family="Helvetica,sans-Serif" font-size="10.00">yaml&#45;cpp/yaml.h</text>
</g>
<!-- Node8&#45;&gt;Node9 -->
<g id="edge10" class="edge"><title>Node8&#45;&gt;Node9</title>
<path fill="none" stroke="midnightblue" d="M314.555,-56.083C309.523,-48.5341 302.163,-37.4948 295.987,-28.2298"/>
<polygon fill="midnightblue" stroke="midnightblue" points="298.793,-26.1301 290.334,-19.7511 292.969,-30.0131 298.793,-26.1301"/>
</g>
<!-- Node10 -->
<g id="node10" class="node"><title>Node10</title>
<polygon fill="none" stroke="#bfbfbf" points="350.5,-0.5 350.5,-19.5 488.5,-19.5 488.5,-0.5 350.5,-0.5"/>
<text text-anchor="middle" x="419.5" y="-7.5" font-family="Helvetica,sans-Serif" font-size="10.00">urdf_parser/urdf_parser.h</text>
</g>
<!-- Node8&#45;&gt;Node10 -->
<g id="edge11" class="edge"><title>Node8&#45;&gt;Node10</title>
<path fill="none" stroke="midnightblue" d="M336.406,-56.324C352.138,-47.7428 376.442,-34.486 394.709,-24.5224"/>
<polygon fill="midnightblue" stroke="midnightblue" points="396.53,-27.5157 403.633,-19.6545 393.178,-21.3704 396.53,-27.5157"/>
</g>
<!-- Node11 -->
<g id="node11" class="node"><title>Node11</title>
<polygon fill="none" stroke="#bfbfbf" points="506.5,-0.5 506.5,-19.5 646.5,-19.5 646.5,-0.5 506.5,-0.5"/>
<text text-anchor="middle" x="576.5" y="-7.5" font-family="Helvetica,sans-Serif" font-size="10.00">kdl_parser/kdl_parser.hpp</text>
</g>
<!-- Node8&#45;&gt;Node11 -->
<g id="edge12" class="edge"><title>Node8&#45;&gt;Node11</title>
<path fill="none" stroke="midnightblue" d="M361.064,-56.4435C405.816,-47.0036 477.883,-31.802 526.195,-21.6111"/>
<polygon fill="midnightblue" stroke="midnightblue" points="527.064,-25.0051 536.126,-19.5164 525.619,-18.1558 527.064,-25.0051"/>
</g>
<!-- Node12 -->
<g id="node12" class="node"><title>Node12</title>
<polygon fill="none" stroke="#bfbfbf" points="664.5,-0.5 664.5,-19.5 762.5,-19.5 762.5,-0.5 664.5,-0.5"/>
<text text-anchor="middle" x="713.5" y="-7.5" font-family="Helvetica,sans-Serif" font-size="10.00">srdfdom/model.h</text>
</g>
<!-- Node8&#45;&gt;Node12 -->
<g id="edge13" class="edge"><title>Node8&#45;&gt;Node12</title>
<path fill="none" stroke="midnightblue" d="M386.977,-56.4767C452.366,-48.0006 555.316,-34.4098 654.282,-20.1523"/>
<polygon fill="midnightblue" stroke="midnightblue" points="655.066,-23.5755 664.463,-18.6812 654.065,-16.6474 655.066,-23.5755"/>
</g>
<!-- Node8&#45;&gt;Node13 -->
<g id="edge14" class="edge"><title>Node8&#45;&gt;Node13</title>
<path fill="none" stroke="midnightblue" d="M293.088,-56.4435C263.731,-47.2801 216.981,-32.6876 184.404,-22.5192"/>
<polygon fill="midnightblue" stroke="midnightblue" points="185.373,-19.1551 174.784,-19.5164 183.287,-25.8371 185.373,-19.1551"/>
</g>
<!-- Node14&#45;&gt;Node4 -->
<g id="edge18" class="edge"><title>Node14&#45;&gt;Node4</title>
<path fill="none" stroke="midnightblue" d="M504.426,-112.467C532.831,-104.097 576.551,-90.511 613.5,-76 633.118,-68.2953 636.779,-63.4388 656.5,-56 694.671,-41.6018 739.587,-28.8705 770.838,-20.657"/>
<polygon fill="midnightblue" stroke="midnightblue" points="772.084,-23.9497 780.884,-18.0489 770.325,-17.1744 772.084,-23.9497"/>
</g>
<!-- Node14&#45;&gt;Node8 -->
<g id="edge19" class="edge"><title>Node14&#45;&gt;Node8</title>
<path fill="none" stroke="midnightblue" d="M450.098,-112.444C424.303,-103.399 383.423,-89.064 354.482,-78.9158"/>
<polygon fill="midnightblue" stroke="midnightblue" points="355.382,-75.5226 344.788,-75.5164 353.066,-82.1283 355.382,-75.5226"/>
</g>
<!-- Node15 -->
<g id="node15" class="node"><title>Node15</title>
<polygon fill="none" stroke="#bfbfbf" points="566.5,-56.5 566.5,-75.5 604.5,-75.5 604.5,-56.5 566.5,-56.5"/>
<text text-anchor="middle" x="585.5" y="-63.5" font-family="Helvetica,sans-Serif" font-size="10.00">map</text>
</g>
<!-- Node14&#45;&gt;Node15 -->
<g id="edge16" class="edge"><title>Node14&#45;&gt;Node15</title>
<path fill="none" stroke="midnightblue" d="M492.334,-112.324C510.216,-103.625 537.975,-90.1202 558.546,-80.113"/>
<polygon fill="midnightblue" stroke="midnightblue" points="560.249,-83.1765 567.71,-75.6545 557.187,-76.8819 560.249,-83.1765"/>
</g>
<!-- Node16 -->
<g id="node16" class="node"><title>Node16</title>
<polygon fill="none" stroke="#bfbfbf" points="406,-56.5 406,-75.5 453,-75.5 453,-56.5 406,-56.5"/>
<text text-anchor="middle" x="429.5" y="-63.5" font-family="Helvetica,sans-Serif" font-size="10.00">vector</text>
</g>
<!-- Node14&#45;&gt;Node16 -->
<g id="edge17" class="edge"><title>Node14&#45;&gt;Node16</title>
<path fill="none" stroke="midnightblue" d="M467.069,-112.083C460.647,-104.377 451.194,-93.0333 443.378,-83.6531"/>
<polygon fill="midnightblue" stroke="midnightblue" points="445.883,-81.1927 436.793,-75.7511 440.506,-85.674 445.883,-81.1927"/>
</g>
<!-- Node17 -->
<g id="node17" class="node"><title>Node17</title>
<polygon fill="none" stroke="#bfbfbf" points="471,-56.5 471,-75.5 548,-75.5 548,-56.5 471,-56.5"/>
<text text-anchor="middle" x="509.5" y="-63.5" font-family="Helvetica,sans-Serif" font-size="10.00">Eigen/Dense</text>
</g>
<!-- Node14&#45;&gt;Node17 -->
<g id="edge20" class="edge"><title>Node14&#45;&gt;Node17</title>
<path fill="none" stroke="midnightblue" d="M480.28,-112.083C485.172,-104.534 492.327,-93.4948 498.333,-84.2298"/>
<polygon fill="midnightblue" stroke="midnightblue" points="501.326,-86.0463 503.828,-75.7511 495.452,-82.239 501.326,-86.0463"/>
</g>
<!-- Node18&#45;&gt;Node4 -->
<g id="edge27" class="edge"><title>Node18&#45;&gt;Node4</title>
<path fill="none" stroke="midnightblue" d="M597.851,-168.261C594.391,-155.035 589.933,-129.611 600.5,-112 610.475,-95.3744 723.561,-46.6687 779.096,-23.51"/>
<polygon fill="midnightblue" stroke="midnightblue" points="780.55,-26.696 788.442,-19.6273 777.865,-20.2317 780.55,-26.696"/>
</g>
<!-- Node18&#45;&gt;Node5 -->
<g id="edge26" class="edge"><title>Node18&#45;&gt;Node5</title>
<path fill="none" stroke="midnightblue" d="M666.093,-173.804C696.917,-168.74 731.436,-157.257 752.5,-132 763.054,-119.345 763.889,-100.137 762.633,-85.8797"/>
<polygon fill="midnightblue" stroke="midnightblue" points="766.074,-85.1971 761.324,-75.7267 759.132,-86.0921 766.074,-85.1971"/>
</g>
<!-- Node18&#45;&gt;Node14 -->
<g id="edge25" class="edge"><title>Node18&#45;&gt;Node14</title>
<path fill="none" stroke="midnightblue" d="M580.535,-168.444C559.891,-159.596 527.437,-145.687 503.868,-135.586"/>
<polygon fill="midnightblue" stroke="midnightblue" points="504.942,-132.239 494.372,-131.516 502.184,-138.673 504.942,-132.239"/>
</g>
<!-- Node19 -->
<g id="node19" class="node"><title>Node19</title>
<g id="a_node19"><a xlink:href="IMotor_8h.html" target="_top" xlink:title="ROSEndEffector/IMotor.h">
<polygon fill="none" stroke="black" points="609.5,-112.5 609.5,-131.5 743.5,-131.5 743.5,-112.5 609.5,-112.5"/>
<text text-anchor="middle" x="676.5" y="-119.5" font-family="Helvetica,sans-Serif" font-size="10.00">ROSEndEffector/IMotor.h</text>
</a>
</g>
</g>
<!-- Node18&#45;&gt;Node19 -->
<g id="edge22" class="edge"><title>Node18&#45;&gt;Node19</title>
<path fill="none" stroke="midnightblue" d="M612.711,-168.324C624.276,-160.107 641.875,-147.602 655.661,-137.807"/>
<polygon fill="midnightblue" stroke="midnightblue" points="657.943,-140.479 664.067,-131.834 653.888,-134.773 657.943,-140.479"/>
</g>
<!-- Node19&#45;&gt;Node4 -->
<g id="edge24" class="edge"><title>Node19&#45;&gt;Node4</title>
<path fill="none" stroke="midnightblue" d="M681.987,-112.102C690.603,-98.6672 708.41,-72.9757 728.5,-56 744.01,-42.8941 763.918,-31.7721 780.116,-23.8639"/>
<polygon fill="midnightblue" stroke="midnightblue" points="781.617,-27.0256 789.163,-19.5883 778.626,-20.6968 781.617,-27.0256"/>
</g>
<!-- Node19&#45;&gt;Node5 -->
<g id="edge23" class="edge"><title>Node19&#45;&gt;Node5</title>
<path fill="none" stroke="midnightblue" d="M689.835,-112.324C702.662,-103.979 722.285,-91.2122 737.44,-81.3524"/>
<polygon fill="midnightblue" stroke="midnightblue" points="739.724,-84.0417 746.198,-75.6545 735.907,-78.1742 739.724,-84.0417"/>
</g>
<!-- Node20&#45;&gt;Node4 -->
<g id="edge31" class="edge"><title>Node20&#45;&gt;Node4</title>
<path fill="none" stroke="midnightblue" d="M638.797,-229.967C670.91,-214.814 735.354,-180.209 771.5,-132 794.867,-100.835 804.085,-54.9607 807.551,-29.5889"/>
<polygon fill="midnightblue" stroke="midnightblue" points="811.045,-29.8481 808.769,-19.5007 804.095,-29.0092 811.045,-29.8481"/>
</g>
<!-- Node20&#45;&gt;Node5 -->
<g id="edge30" class="edge"><title>Node20&#45;&gt;Node5</title>
<path fill="none" stroke="midnightblue" d="M643.474,-229.988C679.024,-215.903 744.429,-184.022 771.5,-132 779.183,-117.236 774.309,-98.3387 768.64,-84.7296"/>
<polygon fill="midnightblue" stroke="midnightblue" points="771.741,-83.0963 764.345,-75.5096 765.395,-86.0522 771.741,-83.0963"/>
</g>
<!-- Node20&#45;&gt;Node18 -->
<g id="edge29" class="edge"><title>Node20&#45;&gt;Node18</title>
<path fill="none" stroke="midnightblue" d="M616.778,-229.975C614.069,-221.492 609.826,-208.204 606.351,-197.322"/>
<polygon fill="midnightblue" stroke="midnightblue" points="609.593,-195.97 603.217,-187.509 602.925,-198.1 609.593,-195.97"/>
</g>
<!-- Node21&#45;&gt;Node4 -->
<g id="edge34" class="edge"><title>Node21&#45;&gt;Node4</title>
<path fill="none" stroke="midnightblue" d="M1118.31,-229.86C1069.94,-195.583 891.262,-68.9469 830.152,-25.6365"/>
<polygon fill="midnightblue" stroke="midnightblue" points="831.886,-22.5759 821.704,-19.6491 827.839,-28.287 831.886,-22.5759"/>
</g>
<!-- Node22 -->
<g id="node22" class="node"><title>Node22</title>
<polygon fill="none" stroke="#bfbfbf" points="1107,-168.5 1107,-187.5 1154,-187.5 1154,-168.5 1107,-168.5"/>
<text text-anchor="middle" x="1130.5" y="-175.5" font-family="Helvetica,sans-Serif" font-size="10.00">cmath</text>
</g>
<!-- Node21&#45;&gt;Node22 -->
<g id="edge33" class="edge"><title>Node21&#45;&gt;Node22</title>
<path fill="none" stroke="midnightblue" d="M1130.5,-229.975C1130.5,-221.58 1130.5,-208.481 1130.5,-197.663"/>
<polygon fill="midnightblue" stroke="midnightblue" points="1134,-197.509 1130.5,-187.509 1127,-197.509 1134,-197.509"/>
</g>
</g>
</svg>
