<?xml version="1.0" encoding="UTF-8" standalone="no"?>
<!DOCTYPE svg PUBLIC "-//W3C//DTD SVG 1.1//EN"
 "http://www.w3.org/Graphics/SVG/1.1/DTD/svg11.dtd">
<!-- Generated by graphviz version 2.38.0 (20140413.2041)
 -->
<!-- Title: /home/travis/build/ADVRHumanoids/ROSEndEffector/src/UniversalRosEndEffector.cpp Pages: 1 -->
<svg width="1079pt" height="408pt"
 viewBox="0.00 0.00 1079.30 408.00" xmlns="http://www.w3.org/2000/svg" xmlns:xlink="http://www.w3.org/1999/xlink">
<g id="graph0" class="graph" transform="scale(1 1) rotate(0) translate(4 404)">
<title>/home/travis/build/ADVRHumanoids/ROSEndEffector/src/UniversalRosEndEffector.cpp</title>
<!-- Node1 -->
<g id="node1" class="node"><title>Node1</title>
<polygon fill="#bfbfbf" stroke="black" points="237,-358.5 237,-399.5 416,-399.5 416,-358.5 237,-358.5"/>
<text text-anchor="start" x="245" y="-387.5" font-family="Helvetica,sans-Serif" font-size="10.00">/home/travis/build</text>
<text text-anchor="start" x="245" y="-376.5" font-family="Helvetica,sans-Serif" font-size="10.00">/ADVRHumanoids/ROSEndEffector</text>
<text text-anchor="middle" x="326.5" y="-365.5" font-family="Helvetica,sans-Serif" font-size="10.00">/src/UniversalRosEndEffector.cpp</text>
</g>
<!-- Node2 -->
<g id="node2" class="node"><title>Node2</title>
<polygon fill="none" stroke="#bfbfbf" points="0,-0.5 0,-19.5 59,-19.5 59,-0.5 0,-0.5"/>
<text text-anchor="middle" x="29.5" y="-7.5" font-family="Helvetica,sans-Serif" font-size="10.00">ros/ros.h</text>
</g>
<!-- Node1&#45;&gt;Node2 -->
<g id="edge1" class="edge"><title>Node1&#45;&gt;Node2</title>
<path fill="none" stroke="midnightblue" d="M241.286,-358.426C182.726,-339.345 115.5,-303.681 115.5,-240.5 115.5,-240.5 115.5,-240.5 115.5,-121 115.5,-79.583 77.1932,-44.4526 51.7118,-25.6658"/>
<polygon fill="midnightblue" stroke="midnightblue" points="53.5005,-22.6436 43.3174,-19.7187 49.4539,-28.3555 53.5005,-22.6436"/>
</g>
<!-- Node3 -->
<g id="node3" class="node"><title>Node3</title>
<g id="a_node3"><a xlink:href="UniversalRosEndEffectorExecutor_8h.html" target="_top" xlink:title="ROSEndEffector/Universal\lRosEndEffectorExecutor.h">
<polygon fill="none" stroke="black" points="538.5,-291.5 538.5,-321.5 678.5,-321.5 678.5,-291.5 538.5,-291.5"/>
<text text-anchor="start" x="546.5" y="-309.5" font-family="Helvetica,sans-Serif" font-size="10.00">ROSEndEffector/Universal</text>
<text text-anchor="middle" x="608.5" y="-298.5" font-family="Helvetica,sans-Serif" font-size="10.00">RosEndEffectorExecutor.h</text>
</a>
</g>
</g>
<!-- Node1&#45;&gt;Node3 -->
<g id="edge2" class="edge"><title>Node1&#45;&gt;Node3</title>
<path fill="none" stroke="midnightblue" d="M404.678,-358.455C447.896,-347.651 501.012,-334.372 542.184,-324.079"/>
<polygon fill="midnightblue" stroke="midnightblue" points="543.26,-327.418 552.113,-321.597 541.563,-320.627 543.26,-327.418"/>
</g>
<!-- Node4 -->
<g id="node4" class="node"><title>Node4</title>
<polygon fill="none" stroke="#bfbfbf" points="633,-0.5 633,-19.5 690,-19.5 690,-0.5 633,-0.5"/>
<text text-anchor="middle" x="661.5" y="-7.5" font-family="Helvetica,sans-Serif" font-size="10.00">memory</text>
</g>
<!-- Node3&#45;&gt;Node4 -->
<g id="edge3" class="edge"><title>Node3&#45;&gt;Node4</title>
<path fill="none" stroke="midnightblue" d="M678.774,-301.823C796.424,-295.033 1023.13,-278.994 1050.5,-255 1076.68,-232.048 1069.5,-213.817 1069.5,-179 1069.5,-179 1069.5,-179 1069.5,-121 1069.5,-45.008 802.306,-19.9716 700.372,-13.1852"/>
<polygon fill="midnightblue" stroke="midnightblue" points="700.393,-9.67953 690.19,-12.5319 699.945,-16.6652 700.393,-9.67953"/>
</g>
<!-- Node5 -->
<g id="node5" class="node"><title>Node5</title>
<polygon fill="none" stroke="#bfbfbf" points="754.5,-56.5 754.5,-75.5 798.5,-75.5 798.5,-56.5 754.5,-56.5"/>
<text text-anchor="middle" x="776.5" y="-63.5" font-family="Helvetica,sans-Serif" font-size="10.00">string</text>
</g>
<!-- Node3&#45;&gt;Node5 -->
<g id="edge4" class="edge"><title>Node3&#45;&gt;Node5</title>
<path fill="none" stroke="midnightblue" d="M678.667,-300.359C741.671,-294.109 827.405,-280.996 848.5,-255 892.131,-201.233 825.109,-118.09 792.57,-83.241"/>
<polygon fill="midnightblue" stroke="midnightblue" points="794.925,-80.6392 785.484,-75.8307 789.865,-85.4771 794.925,-80.6392"/>
</g>
<!-- Node6 -->
<g id="node6" class="node"><title>Node6</title>
<polygon fill="none" stroke="#bfbfbf" points="311.5,-230 311.5,-249 391.5,-249 391.5,-230 311.5,-230"/>
<text text-anchor="middle" x="351.5" y="-237" font-family="Helvetica,sans-Serif" font-size="10.00">ros/console.h</text>
</g>
<!-- Node3&#45;&gt;Node6 -->
<g id="edge5" class="edge"><title>Node3&#45;&gt;Node6</title>
<path fill="none" stroke="midnightblue" d="M547.318,-291.487C505.773,-281.765 449.66,-268.233 400.5,-255 396.859,-254.02 393.077,-252.966 389.3,-251.889"/>
<polygon fill="midnightblue" stroke="midnightblue" points="389.997,-248.447 379.417,-249.021 388.046,-255.169 389.997,-248.447"/>
</g>
<!-- Node7 -->
<g id="node7" class="node"><title>Node7</title>
<polygon fill="none" stroke="#bfbfbf" points="410,-230 410,-249 549,-249 549,-230 410,-230"/>
<text text-anchor="middle" x="479.5" y="-237" font-family="Helvetica,sans-Serif" font-size="10.00">sensor_msgs/JointState.h</text>
</g>
<!-- Node3&#45;&gt;Node7 -->
<g id="edge6" class="edge"><title>Node3&#45;&gt;Node7</title>
<path fill="none" stroke="midnightblue" d="M580.509,-291.396C558.175,-280.142 527.133,-264.501 505.374,-253.538"/>
<polygon fill="midnightblue" stroke="midnightblue" points="506.888,-250.381 496.383,-249.007 503.739,-256.633 506.888,-250.381"/>
</g>
<!-- Node8 -->
<g id="node8" class="node"><title>Node8</title>
<g id="a_node8"><a xlink:href="Parser_8h.html" target="_top" xlink:title="ROSEndEffector/Parser.h">
<polygon fill="none" stroke="black" points="211.5,-56.5 211.5,-75.5 345.5,-75.5 345.5,-56.5 211.5,-56.5"/>
<text text-anchor="middle" x="278.5" y="-63.5" font-family="Helvetica,sans-Serif" font-size="10.00">ROSEndEffector/Parser.h</text>
</a>
</g>
</g>
<!-- Node3&#45;&gt;Node8 -->
<g id="edge7" class="edge"><title>Node3&#45;&gt;Node8</title>
<path fill="none" stroke="midnightblue" d="M538.149,-303.352C458.05,-299.339 334.171,-287.852 302.5,-255 257.797,-208.63 267.425,-123.252 274.434,-85.6333"/>
<polygon fill="midnightblue" stroke="midnightblue" points="277.914,-86.0825 276.462,-75.5877 271.052,-84.6973 277.914,-86.0825"/>
</g>
<!-- Node13 -->
<g id="node13" class="node"><title>Node13</title>
<g id="a_node13"><a xlink:href="EEInterface_8h.html" target="_top" xlink:title="ROSEndEffector/EEInterface.h">
<polygon fill="none" stroke="black" points="387.5,-112.5 387.5,-131.5 545.5,-131.5 545.5,-112.5 387.5,-112.5"/>
<text text-anchor="middle" x="466.5" y="-119.5" font-family="Helvetica,sans-Serif" font-size="10.00">ROSEndEffector/EEInterface.h</text>
</a>
</g>
</g>
<!-- Node3&#45;&gt;Node13 -->
<g id="edge14" class="edge"><title>Node3&#45;&gt;Node13</title>
<path fill="none" stroke="midnightblue" d="M600.719,-291.462C591.272,-274.825 574.487,-246.52 557.5,-224 533.497,-192.179 501.563,-158.39 482.606,-139.076"/>
<polygon fill="midnightblue" stroke="midnightblue" points="484.859,-136.377 475.337,-131.732 479.885,-141.302 484.859,-136.377"/>
</g>
<!-- Node17 -->
<g id="node17" class="node"><title>Node17</title>
<g id="a_node17"><a xlink:href="EEHal_8h.html" target="_top" xlink:title="ROSEndEffector/EEHal.h">
<polygon fill="none" stroke="black" points="606,-168.5 606,-187.5 737,-187.5 737,-168.5 606,-168.5"/>
<text text-anchor="middle" x="671.5" y="-175.5" font-family="Helvetica,sans-Serif" font-size="10.00">ROSEndEffector/EEHal.h</text>
</a>
</g>
</g>
<!-- Node3&#45;&gt;Node17 -->
<g id="edge20" class="edge"><title>Node3&#45;&gt;Node17</title>
<path fill="none" stroke="midnightblue" d="M615.483,-291.479C626.971,-268.411 649.845,-222.482 662.521,-197.029"/>
<polygon fill="midnightblue" stroke="midnightblue" points="665.798,-198.3 667.123,-187.789 659.532,-195.18 665.798,-198.3"/>
</g>
<!-- Node19 -->
<g id="node19" class="node"><title>Node19</title>
<g id="a_node19"><a xlink:href="DummyHal_8h.html" target="_top" xlink:title="ROSEndEffector/DummyHal.h">
<polygon fill="none" stroke="black" points="681.5,-230 681.5,-249 839.5,-249 839.5,-230 681.5,-230"/>
<text text-anchor="middle" x="760.5" y="-237" font-family="Helvetica,sans-Serif" font-size="10.00">ROSEndEffector/DummyHal.h</text>
</a>
</g>
</g>
<!-- Node3&#45;&gt;Node19 -->
<g id="edge27" class="edge"><title>Node3&#45;&gt;Node19</title>
<path fill="none" stroke="midnightblue" d="M641.482,-291.396C668.27,-279.941 705.69,-263.938 731.381,-252.952"/>
<polygon fill="midnightblue" stroke="midnightblue" points="732.788,-256.157 740.607,-249.007 730.036,-249.721 732.788,-256.157"/>
</g>
<!-- Node20 -->
<g id="node20" class="node"><title>Node20</title>
<polygon fill="none" stroke="#bfbfbf" points="901.5,-224.5 901.5,-254.5 1041.5,-254.5 1041.5,-224.5 901.5,-224.5"/>
<text text-anchor="start" x="909.5" y="-242.5" font-family="Helvetica,sans-Serif" font-size="10.00">ros_end_effector/EEGrasp</text>
<text text-anchor="middle" x="971.5" y="-231.5" font-family="Helvetica,sans-Serif" font-size="10.00">Control.h</text>
</g>
<!-- Node3&#45;&gt;Node20 -->
<g id="edge31" class="edge"><title>Node3&#45;&gt;Node20</title>
<path fill="none" stroke="midnightblue" d="M678.92,-292.89C739.785,-281.992 827.729,-266.244 891.291,-254.862"/>
<polygon fill="midnightblue" stroke="midnightblue" points="892.049,-258.283 901.276,-253.075 890.815,-251.392 892.049,-258.283"/>
</g>
<!-- Node8&#45;&gt;Node2 -->
<g id="edge9" class="edge"><title>Node8&#45;&gt;Node2</title>
<path fill="none" stroke="midnightblue" d="M237.808,-56.478C197.539,-48.0006 133.877,-34.4805 69.256,-20.1417"/>
<polygon fill="midnightblue" stroke="midnightblue" points="69.8209,-16.6819 59.2996,-17.9275 68.3013,-23.5149 69.8209,-16.6819"/>
</g>
<!-- Node8&#45;&gt;Node4 -->
<g id="edge8" class="edge"><title>Node8&#45;&gt;Node4</title>
<path fill="none" stroke="midnightblue" d="M345.81,-56.889C413.362,-48.5238 520.336,-34.6642 612.5,-20 615.891,-19.4604 619.409,-18.8717 622.933,-18.2621"/>
<polygon fill="midnightblue" stroke="midnightblue" points="623.546,-21.7081 632.779,-16.5122 622.321,-14.8161 623.546,-21.7081"/>
</g>
<!-- Node9 -->
<g id="node9" class="node"><title>Node9</title>
<polygon fill="none" stroke="#bfbfbf" points="351.5,-0.5 351.5,-19.5 447.5,-19.5 447.5,-0.5 351.5,-0.5"/>
<text text-anchor="middle" x="399.5" y="-7.5" font-family="Helvetica,sans-Serif" font-size="10.00">yaml&#45;cpp/yaml.h</text>
</g>
<!-- Node8&#45;&gt;Node9 -->
<g id="edge10" class="edge"><title>Node8&#45;&gt;Node9</title>
<path fill="none" stroke="midnightblue" d="M297.673,-56.4435C317.409,-47.6356 348.385,-33.8116 370.993,-23.722"/>
<polygon fill="midnightblue" stroke="midnightblue" points="372.711,-26.788 380.417,-19.5164 369.859,-20.3957 372.711,-26.788"/>
</g>
<!-- Node10 -->
<g id="node10" class="node"><title>Node10</title>
<polygon fill="none" stroke="#bfbfbf" points="465.5,-0.5 465.5,-19.5 603.5,-19.5 603.5,-0.5 465.5,-0.5"/>
<text text-anchor="middle" x="534.5" y="-7.5" font-family="Helvetica,sans-Serif" font-size="10.00">urdf_parser/urdf_parser.h</text>
</g>
<!-- Node8&#45;&gt;Node10 -->
<g id="edge11" class="edge"><title>Node8&#45;&gt;Node10</title>
<path fill="none" stroke="midnightblue" d="M319.064,-56.4435C363.816,-47.0036 435.883,-31.802 484.195,-21.6111"/>
<polygon fill="midnightblue" stroke="midnightblue" points="485.064,-25.0051 494.126,-19.5164 483.619,-18.1558 485.064,-25.0051"/>
</g>
<!-- Node11 -->
<g id="node11" class="node"><title>Node11</title>
<polygon fill="none" stroke="#bfbfbf" points="77.5,-0.5 77.5,-19.5 217.5,-19.5 217.5,-0.5 77.5,-0.5"/>
<text text-anchor="middle" x="147.5" y="-7.5" font-family="Helvetica,sans-Serif" font-size="10.00">kdl_parser/kdl_parser.hpp</text>
</g>
<!-- Node8&#45;&gt;Node11 -->
<g id="edge12" class="edge"><title>Node8&#45;&gt;Node11</title>
<path fill="none" stroke="midnightblue" d="M257.743,-56.4435C236.184,-47.5566 202.237,-33.5632 177.706,-23.4514"/>
<polygon fill="midnightblue" stroke="midnightblue" points="178.739,-20.0917 168.16,-19.5164 176.072,-26.5634 178.739,-20.0917"/>
</g>
<!-- Node12 -->
<g id="node12" class="node"><title>Node12</title>
<polygon fill="none" stroke="#bfbfbf" points="235.5,-0.5 235.5,-19.5 333.5,-19.5 333.5,-0.5 235.5,-0.5"/>
<text text-anchor="middle" x="284.5" y="-7.5" font-family="Helvetica,sans-Serif" font-size="10.00">srdfdom/model.h</text>
</g>
<!-- Node8&#45;&gt;Node12 -->
<g id="edge13" class="edge"><title>Node8&#45;&gt;Node12</title>
<path fill="none" stroke="midnightblue" d="M279.491,-56.083C280.286,-48.9272 281.429,-38.6353 282.423,-29.6911"/>
<polygon fill="midnightblue" stroke="midnightblue" points="285.902,-30.0765 283.528,-19.7511 278.945,-29.3034 285.902,-30.0765"/>
</g>
<!-- Node13&#45;&gt;Node4 -->
<g id="edge17" class="edge"><title>Node13&#45;&gt;Node4</title>
<path fill="none" stroke="midnightblue" d="M490.566,-112.428C512.324,-104.276 544.922,-91.0482 571.5,-76 597.637,-61.2014 625.303,-40.3334 642.952,-26.269"/>
<polygon fill="midnightblue" stroke="midnightblue" points="645.625,-28.6085 651.206,-19.6026 641.227,-23.1627 645.625,-28.6085"/>
</g>
<!-- Node13&#45;&gt;Node8 -->
<g id="edge18" class="edge"><title>Node13&#45;&gt;Node8</title>
<path fill="none" stroke="midnightblue" d="M436.711,-112.444C404.671,-103.241 353.567,-88.5617 318.147,-78.3879"/>
<polygon fill="midnightblue" stroke="midnightblue" points="318.727,-74.9132 308.15,-75.5164 316.795,-81.6412 318.727,-74.9132"/>
</g>
<!-- Node14 -->
<g id="node14" class="node"><title>Node14</title>
<polygon fill="none" stroke="#bfbfbf" points="524.5,-56.5 524.5,-75.5 562.5,-75.5 562.5,-56.5 524.5,-56.5"/>
<text text-anchor="middle" x="543.5" y="-63.5" font-family="Helvetica,sans-Serif" font-size="10.00">map</text>
</g>
<!-- Node13&#45;&gt;Node14 -->
<g id="edge15" class="edge"><title>Node13&#45;&gt;Node14</title>
<path fill="none" stroke="midnightblue" d="M478.871,-112.324C490.658,-104.058 508.632,-91.4527 522.636,-81.6322"/>
<polygon fill="midnightblue" stroke="midnightblue" points="524.982,-84.2619 531.159,-75.6545 520.962,-78.5307 524.982,-84.2619"/>
</g>
<!-- Node15 -->
<g id="node15" class="node"><title>Node15</title>
<polygon fill="none" stroke="#bfbfbf" points="364,-56.5 364,-75.5 411,-75.5 411,-56.5 364,-56.5"/>
<text text-anchor="middle" x="387.5" y="-63.5" font-family="Helvetica,sans-Serif" font-size="10.00">vector</text>
</g>
<!-- Node13&#45;&gt;Node15 -->
<g id="edge16" class="edge"><title>Node13&#45;&gt;Node15</title>
<path fill="none" stroke="midnightblue" d="M453.807,-112.324C441.599,-103.979 422.922,-91.2122 408.497,-81.3524"/>
<polygon fill="midnightblue" stroke="midnightblue" points="410.392,-78.4082 400.161,-75.6545 406.442,-84.1871 410.392,-78.4082"/>
</g>
<!-- Node16 -->
<g id="node16" class="node"><title>Node16</title>
<polygon fill="none" stroke="#bfbfbf" points="429,-56.5 429,-75.5 506,-75.5 506,-56.5 429,-56.5"/>
<text text-anchor="middle" x="467.5" y="-63.5" font-family="Helvetica,sans-Serif" font-size="10.00">Eigen/Dense</text>
</g>
<!-- Node13&#45;&gt;Node16 -->
<g id="edge19" class="edge"><title>Node13&#45;&gt;Node16</title>
<path fill="none" stroke="midnightblue" d="M466.665,-112.083C466.796,-105.006 466.984,-94.8611 467.148,-85.9865"/>
<polygon fill="midnightblue" stroke="midnightblue" points="470.652,-85.8142 467.338,-75.7511 463.653,-85.6845 470.652,-85.8142"/>
</g>
<!-- Node17&#45;&gt;Node4 -->
<g id="edge26" class="edge"><title>Node17&#45;&gt;Node4</title>
<path fill="none" stroke="midnightblue" d="M641.619,-168.387C623.96,-161.587 603.049,-150.15 592.5,-132 588.033,-124.315 589.876,-120.493 592.5,-112 602.93,-78.2424 628.948,-45.7025 645.886,-27.0564"/>
<polygon fill="midnightblue" stroke="midnightblue" points="648.46,-29.4287 652.73,-19.7323 643.345,-24.6496 648.46,-29.4287"/>
</g>
<!-- Node17&#45;&gt;Node5 -->
<g id="edge25" class="edge"><title>Node17&#45;&gt;Node5</title>
<path fill="none" stroke="midnightblue" d="M691.6,-168.435C707.594,-160.796 729.676,-148.302 744.5,-132 756.773,-118.503 765.41,-99.437 770.592,-85.4437"/>
<polygon fill="midnightblue" stroke="midnightblue" points="773.929,-86.5028 773.885,-75.9081 767.313,-84.2182 773.929,-86.5028"/>
</g>
<!-- Node17&#45;&gt;Node13 -->
<g id="edge24" class="edge"><title>Node17&#45;&gt;Node13</title>
<path fill="none" stroke="midnightblue" d="M639.017,-168.444C603.78,-159.162 547.396,-144.309 508.741,-134.127"/>
<polygon fill="midnightblue" stroke="midnightblue" points="509.393,-130.679 498.831,-131.516 507.609,-137.448 509.393,-130.679"/>
</g>
<!-- Node18 -->
<g id="node18" class="node"><title>Node18</title>
<g id="a_node18"><a xlink:href="IMotor_8h.html" target="_top" xlink:title="ROSEndEffector/IMotor.h">
<polygon fill="none" stroke="black" points="601.5,-112.5 601.5,-131.5 735.5,-131.5 735.5,-112.5 601.5,-112.5"/>
<text text-anchor="middle" x="668.5" y="-119.5" font-family="Helvetica,sans-Serif" font-size="10.00">ROSEndEffector/IMotor.h</text>
</a>
</g>
</g>
<!-- Node17&#45;&gt;Node18 -->
<g id="edge21" class="edge"><title>Node17&#45;&gt;Node18</title>
<path fill="none" stroke="midnightblue" d="M671.005,-168.083C670.611,-161.006 670.048,-150.861 669.555,-141.986"/>
<polygon fill="midnightblue" stroke="midnightblue" points="673.036,-141.542 668.986,-131.751 666.046,-141.93 673.036,-141.542"/>
</g>
<!-- Node18&#45;&gt;Node4 -->
<g id="edge23" class="edge"><title>Node18&#45;&gt;Node4</title>
<path fill="none" stroke="midnightblue" d="M667.951,-112.368C666.821,-94.617 664.215,-53.6664 662.683,-29.5974"/>
<polygon fill="midnightblue" stroke="midnightblue" points="666.175,-29.3489 662.047,-19.5914 659.189,-29.7935 666.175,-29.3489"/>
</g>
<!-- Node18&#45;&gt;Node5 -->
<g id="edge22" class="edge"><title>Node18&#45;&gt;Node5</title>
<path fill="none" stroke="midnightblue" d="M685.852,-112.324C703.172,-103.664 730.015,-90.2424 750.002,-80.249"/>
<polygon fill="midnightblue" stroke="midnightblue" points="751.812,-83.2572 759.191,-75.6545 748.681,-76.9962 751.812,-83.2572"/>
</g>
<!-- Node19&#45;&gt;Node4 -->
<g id="edge30" class="edge"><title>Node19&#45;&gt;Node4</title>
<path fill="none" stroke="midnightblue" d="M767.238,-229.924C788.301,-202.013 849.083,-112.33 807.5,-56 783.088,-22.9307 734.731,-13.4082 700.364,-11.0426"/>
<polygon fill="midnightblue" stroke="midnightblue" points="700.356,-7.53763 690.19,-10.52 699.997,-14.5284 700.356,-7.53763"/>
</g>
<!-- Node19&#45;&gt;Node5 -->
<g id="edge29" class="edge"><title>Node19&#45;&gt;Node5</title>
<path fill="none" stroke="midnightblue" d="M761.315,-229.76C763.798,-203.151 771.302,-122.715 774.742,-85.8382"/>
<polygon fill="midnightblue" stroke="midnightblue" points="778.261,-85.8013 775.705,-75.5194 771.291,-85.151 778.261,-85.8013"/>
</g>
<!-- Node19&#45;&gt;Node17 -->
<g id="edge28" class="edge"><title>Node19&#45;&gt;Node17</title>
<path fill="none" stroke="midnightblue" d="M747.748,-229.975C733.473,-220.431 710.103,-204.807 692.992,-193.368"/>
<polygon fill="midnightblue" stroke="midnightblue" points="694.486,-190.157 684.228,-187.509 690.596,-195.977 694.486,-190.157"/>
</g>
</g>
</svg>
