<?xml version="1.0" encoding="UTF-8" standalone="no"?>
<!DOCTYPE svg PUBLIC "-//W3C//DTD SVG 1.1//EN"
 "http://www.w3.org/Graphics/SVG/1.1/DTD/svg11.dtd">
<!-- Generated by graphviz version 2.38.0 (20140413.2041)
 -->
<!-- Title: /home/travis/build/ADVRHumanoids/ROSEndEffector/include/end_effector/UtilsEigen.h Pages: 1 -->
<svg width="262pt" height="106pt"
 viewBox="0.00 0.00 261.50 106.00" xmlns="http://www.w3.org/2000/svg" xmlns:xlink="http://www.w3.org/1999/xlink">
<g id="graph0" class="graph" transform="scale(1 1) rotate(0) translate(4 102)">
<title>/home/travis/build/ADVRHumanoids/ROSEndEffector/include/end_effector/UtilsEigen.h</title>
<!-- Node1 -->
<g id="node1" class="node"><title>Node1</title>
<polygon fill="#bfbfbf" stroke="black" points="17,-56.5 17,-97.5 196,-97.5 196,-56.5 17,-56.5"/>
<text text-anchor="start" x="25" y="-85.5" font-family="Helvetica,sans-Serif" font-size="10.00">/home/travis/build</text>
<text text-anchor="start" x="25" y="-74.5" font-family="Helvetica,sans-Serif" font-size="10.00">/ADVRHumanoids/ROSEndEffector</text>
<text text-anchor="middle" x="106.5" y="-63.5" font-family="Helvetica,sans-Serif" font-size="10.00">/include/end_effector/UtilsEigen.h</text>
</g>
<!-- Node2 -->
<g id="node2" class="node"><title>Node2</title>
<polygon fill="none" stroke="#bfbfbf" points="0,-0.5 0,-19.5 77,-19.5 77,-0.5 0,-0.5"/>
<text text-anchor="middle" x="38.5" y="-7.5" font-family="Helvetica,sans-Serif" font-size="10.00">Eigen/Dense</text>
</g>
<!-- Node1&#45;&gt;Node2 -->
<g id="edge1" class="edge"><title>Node1&#45;&gt;Node2</title>
<path fill="none" stroke="midnightblue" d="M86.0978,-56.4979C76.1733,-47.0113 64.3982,-35.7557 55.0429,-26.8131"/>
<polygon fill="midnightblue" stroke="midnightblue" points="57.199,-24.0323 47.5518,-19.6525 52.3621,-29.0924 57.199,-24.0323"/>
</g>
<!-- Node3 -->
<g id="node3" class="node"><title>Node3</title>
<polygon fill="none" stroke="#bfbfbf" points="95.5,-0.5 95.5,-19.5 253.5,-19.5 253.5,-0.5 95.5,-0.5"/>
<text text-anchor="middle" x="174.5" y="-7.5" font-family="Helvetica,sans-Serif" font-size="10.00">std_msgs/Float32MultiArray.h</text>
</g>
<!-- Node1&#45;&gt;Node3 -->
<g id="edge2" class="edge"><title>Node1&#45;&gt;Node3</title>
<path fill="none" stroke="midnightblue" d="M126.902,-56.4979C136.827,-47.0113 148.602,-35.7557 157.957,-26.8131"/>
<polygon fill="midnightblue" stroke="midnightblue" points="160.638,-29.0924 165.448,-19.6525 155.801,-24.0323 160.638,-29.0924"/>
</g>
</g>
</svg>
