<?xml version="1.0" encoding="UTF-8" standalone="no"?>
<!DOCTYPE svg PUBLIC "-//W3C//DTD SVG 1.1//EN"
 "http://www.w3.org/Graphics/SVG/1.1/DTD/svg11.dtd">
<!-- Generated by graphviz version 2.38.0 (20140413.2041)
 -->
<!-- Title: /home/travis/build/ADVRHumanoids/ROSEndEffector/include/ros_end_effector/UtilsEigen.h Pages: 1 -->
<svg width="778pt" height="317pt"
 viewBox="0.00 0.00 778.00 317.00" xmlns="http://www.w3.org/2000/svg" xmlns:xlink="http://www.w3.org/1999/xlink">
<g id="graph0" class="graph" transform="scale(1 1) rotate(0) translate(4 313)">
<title>/home/travis/build/ADVRHumanoids/ROSEndEffector/include/ros_end_effector/UtilsEigen.h</title>
<!-- Node1 -->
<g id="node1" class="node"><title>Node1</title>
<polygon fill="#bfbfbf" stroke="black" points="295,-256.5 295,-308.5 474,-308.5 474,-256.5 295,-256.5"/>
<text text-anchor="start" x="303" y="-296.5" font-family="Helvetica,sans-Serif" font-size="10.00">/home/travis/build</text>
<text text-anchor="start" x="303" y="-285.5" font-family="Helvetica,sans-Serif" font-size="10.00">/ADVRHumanoids/ROSEndEffector</text>
<text text-anchor="start" x="303" y="-274.5" font-family="Helvetica,sans-Serif" font-size="10.00">/include/ros_end_effector</text>
<text text-anchor="middle" x="384.5" y="-263.5" font-family="Helvetica,sans-Serif" font-size="10.00">/UtilsEigen.h</text>
</g>
<!-- Node2 -->
<g id="node2" class="node"><title>Node2</title>
<g id="a_node2"><a xlink:href="EEHal_8h.html" target="_top" xlink:title="/home/travis/build\l/ADVRHumanoids/ROSEndEffector\l/include/ros_end_effector\l/HAL/EEHal.h">
<polygon fill="none" stroke="black" points="295,-167.5 295,-219.5 474,-219.5 474,-167.5 295,-167.5"/>
<text text-anchor="start" x="303" y="-207.5" font-family="Helvetica,sans-Serif" font-size="10.00">/home/travis/build</text>
<text text-anchor="start" x="303" y="-196.5" font-family="Helvetica,sans-Serif" font-size="10.00">/ADVRHumanoids/ROSEndEffector</text>
<text text-anchor="start" x="303" y="-185.5" font-family="Helvetica,sans-Serif" font-size="10.00">/include/ros_end_effector</text>
<text text-anchor="middle" x="384.5" y="-174.5" font-family="Helvetica,sans-Serif" font-size="10.00">/HAL/EEHal.h</text>
</a>
</g>
</g>
<!-- Node1&#45;&gt;Node2 -->
<g id="edge1" class="edge"><title>Node1&#45;&gt;Node2</title>
<path fill="none" stroke="midnightblue" d="M384.5,-246.191C384.5,-237.282 384.5,-227.899 384.5,-219.607"/>
<polygon fill="midnightblue" stroke="midnightblue" points="381,-246.336 384.5,-256.336 388,-246.336 381,-246.336"/>
</g>
<!-- Node3 -->
<g id="node3" class="node"><title>Node3</title>
<g id="a_node3"><a xlink:href="DummyHal_8h.html" target="_top" xlink:title="/home/travis/build\l/ADVRHumanoids/ROSEndEffector\l/include/ros_end_effector\l/HAL/DummyHal.h">
<polygon fill="none" stroke="black" points="0,-78.5 0,-130.5 179,-130.5 179,-78.5 0,-78.5"/>
<text text-anchor="start" x="8" y="-118.5" font-family="Helvetica,sans-Serif" font-size="10.00">/home/travis/build</text>
<text text-anchor="start" x="8" y="-107.5" font-family="Helvetica,sans-Serif" font-size="10.00">/ADVRHumanoids/ROSEndEffector</text>
<text text-anchor="start" x="8" y="-96.5" font-family="Helvetica,sans-Serif" font-size="10.00">/include/ros_end_effector</text>
<text text-anchor="middle" x="89.5" y="-85.5" font-family="Helvetica,sans-Serif" font-size="10.00">/HAL/DummyHal.h</text>
</a>
</g>
</g>
<!-- Node2&#45;&gt;Node3 -->
<g id="edge2" class="edge"><title>Node2&#45;&gt;Node3</title>
<path fill="none" stroke="midnightblue" d="M289.754,-164.558C252.654,-153.617 210.425,-141.163 174.342,-130.521"/>
<polygon fill="midnightblue" stroke="midnightblue" points="288.988,-167.981 299.57,-167.453 290.968,-161.267 288.988,-167.981"/>
</g>
<!-- Node5 -->
<g id="node5" class="node"><title>Node5</title>
<g id="a_node5"><a xlink:href="XBot2Hal_8h.html" target="_top" xlink:title="/home/travis/build\l/ADVRHumanoids/ROSEndEffector\l/include/ros_end_effector\l/HAL/XBot2Hal.h">
<polygon fill="none" stroke="black" points="197,-78.5 197,-130.5 376,-130.5 376,-78.5 197,-78.5"/>
<text text-anchor="start" x="205" y="-118.5" font-family="Helvetica,sans-Serif" font-size="10.00">/home/travis/build</text>
<text text-anchor="start" x="205" y="-107.5" font-family="Helvetica,sans-Serif" font-size="10.00">/ADVRHumanoids/ROSEndEffector</text>
<text text-anchor="start" x="205" y="-96.5" font-family="Helvetica,sans-Serif" font-size="10.00">/include/ros_end_effector</text>
<text text-anchor="middle" x="286.5" y="-85.5" font-family="Helvetica,sans-Serif" font-size="10.00">/HAL/XBot2Hal.h</text>
</a>
</g>
</g>
<!-- Node2&#45;&gt;Node5 -->
<g id="edge4" class="edge"><title>Node2&#45;&gt;Node5</title>
<path fill="none" stroke="midnightblue" d="M348.622,-160.649C337.47,-150.749 325.34,-139.98 314.782,-130.607"/>
<polygon fill="midnightblue" stroke="midnightblue" points="346.352,-163.314 356.154,-167.336 351,-158.08 346.352,-163.314"/>
</g>
<!-- Node7 -->
<g id="node7" class="node"><title>Node7</title>
<g id="a_node7"><a xlink:href="EEHal_8cpp.html" target="_top" xlink:title="/home/travis/build\l/ADVRHumanoids/ROSEndEffector\l/src/HAL/EEHal.cpp">
<polygon fill="none" stroke="black" points="394,-84 394,-125 573,-125 573,-84 394,-84"/>
<text text-anchor="start" x="402" y="-113" font-family="Helvetica,sans-Serif" font-size="10.00">/home/travis/build</text>
<text text-anchor="start" x="402" y="-102" font-family="Helvetica,sans-Serif" font-size="10.00">/ADVRHumanoids/ROSEndEffector</text>
<text text-anchor="middle" x="483.5" y="-91" font-family="Helvetica,sans-Serif" font-size="10.00">/src/HAL/EEHal.cpp</text>
</a>
</g>
</g>
<!-- Node2&#45;&gt;Node7 -->
<g id="edge6" class="edge"><title>Node2&#45;&gt;Node7</title>
<path fill="none" stroke="midnightblue" d="M420.897,-160.515C434.413,-148.637 449.333,-135.525 461.217,-125.082"/>
<polygon fill="midnightblue" stroke="midnightblue" points="418.336,-158.106 413.135,-167.336 422.957,-163.364 418.336,-158.106"/>
</g>
<!-- Node8 -->
<g id="node8" class="node"><title>Node8</title>
<g id="a_node8"><a xlink:href="EEHalExecutor_8cpp.html" target="_top" xlink:title="/home/travis/build\l/ADVRHumanoids/ROSEndEffector\l/src/HAL/EEHalExecutor.cpp">
<polygon fill="none" stroke="black" points="591,-84 591,-125 770,-125 770,-84 591,-84"/>
<text text-anchor="start" x="599" y="-113" font-family="Helvetica,sans-Serif" font-size="10.00">/home/travis/build</text>
<text text-anchor="start" x="599" y="-102" font-family="Helvetica,sans-Serif" font-size="10.00">/ADVRHumanoids/ROSEndEffector</text>
<text text-anchor="middle" x="680.5" y="-91" font-family="Helvetica,sans-Serif" font-size="10.00">/src/HAL/EEHalExecutor.cpp</text>
</a>
</g>
</g>
<!-- Node2&#45;&gt;Node8 -->
<g id="edge7" class="edge"><title>Node2&#45;&gt;Node8</title>
<path fill="none" stroke="midnightblue" d="M479.511,-164.574C523.245,-151.72 574.091,-136.775 613.7,-125.134"/>
<polygon fill="midnightblue" stroke="midnightblue" points="478.326,-161.275 469.718,-167.453 480.3,-167.991 478.326,-161.275"/>
</g>
<!-- Node4 -->
<g id="node4" class="node"><title>Node4</title>
<g id="a_node4"><a xlink:href="DummyHal_8cpp.html" target="_top" xlink:title="/home/travis/build\l/ADVRHumanoids/ROSEndEffector\l/src/HAL/DummyHal.cpp">
<polygon fill="none" stroke="black" points="0,-0.5 0,-41.5 179,-41.5 179,-0.5 0,-0.5"/>
<text text-anchor="start" x="8" y="-29.5" font-family="Helvetica,sans-Serif" font-size="10.00">/home/travis/build</text>
<text text-anchor="start" x="8" y="-18.5" font-family="Helvetica,sans-Serif" font-size="10.00">/ADVRHumanoids/ROSEndEffector</text>
<text text-anchor="middle" x="89.5" y="-7.5" font-family="Helvetica,sans-Serif" font-size="10.00">/src/HAL/DummyHal.cpp</text>
</a>
</g>
</g>
<!-- Node3&#45;&gt;Node4 -->
<g id="edge3" class="edge"><title>Node3&#45;&gt;Node4</title>
<path fill="none" stroke="midnightblue" d="M89.5,-68.1474C89.5,-59.0546 89.5,-49.5968 89.5,-41.6282"/>
<polygon fill="midnightblue" stroke="midnightblue" points="86.0001,-68.1596 89.5,-78.1596 93.0001,-68.1597 86.0001,-68.1596"/>
</g>
<!-- Node6 -->
<g id="node6" class="node"><title>Node6</title>
<g id="a_node6"><a xlink:href="XBot2Hal_8cpp.html" target="_top" xlink:title="/home/travis/build\l/ADVRHumanoids/ROSEndEffector\l/src/HAL/XBot2Hal.cpp">
<polygon fill="none" stroke="black" points="197,-0.5 197,-41.5 376,-41.5 376,-0.5 197,-0.5"/>
<text text-anchor="start" x="205" y="-29.5" font-family="Helvetica,sans-Serif" font-size="10.00">/home/travis/build</text>
<text text-anchor="start" x="205" y="-18.5" font-family="Helvetica,sans-Serif" font-size="10.00">/ADVRHumanoids/ROSEndEffector</text>
<text text-anchor="middle" x="286.5" y="-7.5" font-family="Helvetica,sans-Serif" font-size="10.00">/src/HAL/XBot2Hal.cpp</text>
</a>
</g>
</g>
<!-- Node5&#45;&gt;Node6 -->
<g id="edge5" class="edge"><title>Node5&#45;&gt;Node6</title>
<path fill="none" stroke="midnightblue" d="M286.5,-68.1474C286.5,-59.0546 286.5,-49.5968 286.5,-41.6282"/>
<polygon fill="midnightblue" stroke="midnightblue" points="283,-68.1596 286.5,-78.1596 290,-68.1597 283,-68.1596"/>
</g>
</g>
</svg>
