<?xml version="1.0" encoding="UTF-8" standalone="no"?>
<!DOCTYPE svg PUBLIC "-//W3C//DTD SVG 1.1//EN"
 "http://www.w3.org/Graphics/SVG/1.1/DTD/svg11.dtd">
<!-- Generated by graphviz version 2.38.0 (20140413.2041)
 -->
<!-- Title: /home/travis/build/ADVRHumanoids/ROSEndEffector/include/ros_end_effector/Utils.h Pages: 1 -->
<svg width="616pt" height="106pt"
 viewBox="0.00 0.00 615.50 106.00" xmlns="http://www.w3.org/2000/svg" xmlns:xlink="http://www.w3.org/1999/xlink">
<g id="graph0" class="graph" transform="scale(1 1) rotate(0) translate(4 102)">
<title>/home/travis/build/ADVRHumanoids/ROSEndEffector/include/ros_end_effector/Utils.h</title>
<!-- Node1 -->
<g id="node1" class="node"><title>Node1</title>
<polygon fill="#bfbfbf" stroke="black" points="202,-56.5 202,-97.5 381,-97.5 381,-56.5 202,-56.5"/>
<text text-anchor="start" x="210" y="-85.5" font-family="Helvetica,sans-Serif" font-size="10.00">/home/travis/build</text>
<text text-anchor="start" x="210" y="-74.5" font-family="Helvetica,sans-Serif" font-size="10.00">/ADVRHumanoids/ROSEndEffector</text>
<text text-anchor="middle" x="291.5" y="-63.5" font-family="Helvetica,sans-Serif" font-size="10.00">/include/ros_end_effector/Utils.h</text>
</g>
<!-- Node2 -->
<g id="node2" class="node"><title>Node2</title>
<polygon fill="none" stroke="#bfbfbf" points="0,-0.5 0,-19.5 47,-19.5 47,-0.5 0,-0.5"/>
<text text-anchor="middle" x="23.5" y="-7.5" font-family="Helvetica,sans-Serif" font-size="10.00">cmath</text>
</g>
<!-- Node1&#45;&gt;Node2 -->
<g id="edge1" class="edge"><title>Node1&#45;&gt;Node2</title>
<path fill="none" stroke="midnightblue" d="M205.533,-56.4979C163.242,-46.69 111.3,-34.3287 57.0342,-20.3318"/>
<polygon fill="midnightblue" stroke="midnightblue" points="57.7944,-16.9133 47.2362,-17.7932 56.0386,-23.6895 57.7944,-16.9133"/>
</g>
<!-- Node3 -->
<g id="node3" class="node"><title>Node3</title>
<polygon fill="none" stroke="#bfbfbf" points="65,-0.5 65,-19.5 122,-19.5 122,-0.5 65,-0.5"/>
<text text-anchor="middle" x="93.5" y="-7.5" font-family="Helvetica,sans-Serif" font-size="10.00">memory</text>
</g>
<!-- Node1&#45;&gt;Node3 -->
<g id="edge2" class="edge"><title>Node1&#45;&gt;Node3</title>
<path fill="none" stroke="midnightblue" d="M232.093,-56.4979C198.57,-45.4925 157.794,-32.1065 129.179,-22.7128"/>
<polygon fill="midnightblue" stroke="midnightblue" points="130.189,-19.3608 119.597,-19.5671 128.006,-26.0116 130.189,-19.3608"/>
</g>
<!-- Node4 -->
<g id="node4" class="node"><title>Node4</title>
<polygon fill="none" stroke="#bfbfbf" points="140,-0.5 140,-19.5 199,-19.5 199,-0.5 140,-0.5"/>
<text text-anchor="middle" x="169.5" y="-7.5" font-family="Helvetica,sans-Serif" font-size="10.00">iostream</text>
</g>
<!-- Node1&#45;&gt;Node4 -->
<g id="edge3" class="edge"><title>Node1&#45;&gt;Node4</title>
<path fill="none" stroke="midnightblue" d="M254.896,-56.4979C235.472,-46.1488 212.096,-33.6946 194.716,-24.4346"/>
<polygon fill="midnightblue" stroke="midnightblue" points="196.211,-21.2657 185.74,-19.6525 192.92,-27.4436 196.211,-21.2657"/>
</g>
<!-- Node5 -->
<g id="node5" class="node"><title>Node5</title>
<polygon fill="none" stroke="#bfbfbf" points="217.5,-0.5 217.5,-19.5 265.5,-19.5 265.5,-0.5 217.5,-0.5"/>
<text text-anchor="middle" x="241.5" y="-7.5" font-family="Helvetica,sans-Serif" font-size="10.00">dlfcn.h</text>
</g>
<!-- Node1&#45;&gt;Node5 -->
<g id="edge4" class="edge"><title>Node1&#45;&gt;Node5</title>
<path fill="none" stroke="midnightblue" d="M276.498,-56.4979C269.422,-47.2987 261.066,-36.4362 254.294,-27.6323"/>
<polygon fill="midnightblue" stroke="midnightblue" points="257.027,-25.4447 248.156,-19.6525 251.479,-29.7128 257.027,-25.4447"/>
</g>
<!-- Node6 -->
<g id="node6" class="node"><title>Node6</title>
<polygon fill="none" stroke="#bfbfbf" points="283.5,-0.5 283.5,-19.5 399.5,-19.5 399.5,-0.5 283.5,-0.5"/>
<text text-anchor="middle" x="341.5" y="-7.5" font-family="Helvetica,sans-Serif" font-size="10.00">boost/filesystem.hpp</text>
</g>
<!-- Node1&#45;&gt;Node6 -->
<g id="edge5" class="edge"><title>Node1&#45;&gt;Node6</title>
<path fill="none" stroke="midnightblue" d="M306.502,-56.4979C313.578,-47.2987 321.934,-36.4362 328.706,-27.6323"/>
<polygon fill="midnightblue" stroke="midnightblue" points="331.521,-29.7128 334.844,-19.6525 325.973,-25.4447 331.521,-29.7128"/>
</g>
<!-- Node7 -->
<g id="node7" class="node"><title>Node7</title>
<polygon fill="none" stroke="#bfbfbf" points="417.5,-0.5 417.5,-19.5 471.5,-19.5 471.5,-0.5 417.5,-0.5"/>
<text text-anchor="middle" x="444.5" y="-7.5" font-family="Helvetica,sans-Serif" font-size="10.00">fstream</text>
</g>
<!-- Node1&#45;&gt;Node7 -->
<g id="edge6" class="edge"><title>Node1&#45;&gt;Node7</title>
<path fill="none" stroke="midnightblue" d="M337.405,-56.4979C362.442,-45.8614 392.713,-33.001 414.676,-23.6705"/>
<polygon fill="midnightblue" stroke="midnightblue" points="416.298,-26.784 424.133,-19.6525 413.561,-20.3413 416.298,-26.784"/>
</g>
<!-- Node8 -->
<g id="node8" class="node"><title>Node8</title>
<polygon fill="none" stroke="#bfbfbf" points="489.5,-0.5 489.5,-19.5 539.5,-19.5 539.5,-0.5 489.5,-0.5"/>
<text text-anchor="middle" x="514.5" y="-7.5" font-family="Helvetica,sans-Serif" font-size="10.00">chrono</text>
</g>
<!-- Node1&#45;&gt;Node8 -->
<g id="edge7" class="edge"><title>Node1&#45;&gt;Node8</title>
<path fill="none" stroke="midnightblue" d="M358.407,-56.4979C398.23,-44.8903 447.139,-30.6342 479.48,-21.2075"/>
<polygon fill="midnightblue" stroke="midnightblue" points="480.745,-24.4846 489.366,-18.326 478.786,-17.7643 480.745,-24.4846"/>
</g>
<!-- Node9 -->
<g id="node9" class="node"><title>Node9</title>
<polygon fill="none" stroke="#bfbfbf" points="557.5,-0.5 557.5,-19.5 607.5,-19.5 607.5,-0.5 557.5,-0.5"/>
<text text-anchor="middle" x="582.5" y="-7.5" font-family="Helvetica,sans-Serif" font-size="10.00">atomic</text>
</g>
<!-- Node1&#45;&gt;Node9 -->
<g id="edge8" class="edge"><title>Node1&#45;&gt;Node9</title>
<path fill="none" stroke="midnightblue" d="M381.223,-57.4661C428.174,-47.5253 486.813,-34.7331 547.521,-20.1622"/>
<polygon fill="midnightblue" stroke="midnightblue" points="548.38,-23.5555 557.28,-17.8085 546.739,-16.7506 548.38,-23.5555"/>
</g>
</g>
</svg>
