<?xml version="1.0" encoding="UTF-8" standalone="no"?>
<!DOCTYPE svg PUBLIC "-//W3C//DTD SVG 1.1//EN"
 "http://www.w3.org/Graphics/SVG/1.1/DTD/svg11.dtd">
<!-- Generated by graphviz version 2.38.0 (20140413.2041)
 -->
<!-- Title: /home/travis/build/ADVRHumanoids/ROSEndEffector/include/ros_end_effector/HAL/XBot2Hal.h Pages: 1 -->
<svg width="1556pt" height="240pt"
 viewBox="0.00 0.00 1556.00 240.00" xmlns="http://www.w3.org/2000/svg" xmlns:xlink="http://www.w3.org/1999/xlink">
<g id="graph0" class="graph" transform="scale(1 1) rotate(0) translate(4 236)">
<title>/home/travis/build/ADVRHumanoids/ROSEndEffector/include/ros_end_effector/HAL/XBot2Hal.h</title>
<!-- Node1 -->
<g id="node1" class="node"><title>Node1</title>
<polygon fill="#bfbfbf" stroke="black" points="526,-179.5 526,-231.5 705,-231.5 705,-179.5 526,-179.5"/>
<text text-anchor="start" x="534" y="-219.5" font-family="Helvetica,sans-Serif" font-size="10.00">/home/travis/build</text>
<text text-anchor="start" x="534" y="-208.5" font-family="Helvetica,sans-Serif" font-size="10.00">/ADVRHumanoids/ROSEndEffector</text>
<text text-anchor="start" x="534" y="-197.5" font-family="Helvetica,sans-Serif" font-size="10.00">/include/ros_end_effector</text>
<text text-anchor="middle" x="615.5" y="-186.5" font-family="Helvetica,sans-Serif" font-size="10.00">/HAL/XBot2Hal.h</text>
</g>
<!-- Node2 -->
<g id="node2" class="node"><title>Node2</title>
<g id="a_node2"><a xlink:href="EEHal_8h.html" target="_top" xlink:title="ros_end_effector/HAL\l/EEHal.h">
<polygon fill="none" stroke="black" points="497,-112.5 497,-142.5 616,-142.5 616,-112.5 497,-112.5"/>
<text text-anchor="start" x="505" y="-130.5" font-family="Helvetica,sans-Serif" font-size="10.00">ros_end_effector/HAL</text>
<text text-anchor="middle" x="556.5" y="-119.5" font-family="Helvetica,sans-Serif" font-size="10.00">/EEHal.h</text>
</a>
</g>
</g>
<!-- Node1&#45;&gt;Node2 -->
<g id="edge1" class="edge"><title>Node1&#45;&gt;Node2</title>
<path fill="none" stroke="midnightblue" d="M595.854,-179.193C588.741,-170.031 580.765,-159.756 573.862,-150.865"/>
<polygon fill="midnightblue" stroke="midnightblue" points="576.533,-148.598 567.636,-142.845 571.004,-152.891 576.533,-148.598"/>
</g>
<!-- Node5 -->
<g id="node5" class="node"><title>Node5</title>
<polygon fill="none" stroke="#bfbfbf" points="86.5,-56.5 86.5,-75.5 130.5,-75.5 130.5,-56.5 86.5,-56.5"/>
<text text-anchor="middle" x="108.5" y="-63.5" font-family="Helvetica,sans-Serif" font-size="10.00">string</text>
</g>
<!-- Node1&#45;&gt;Node5 -->
<g id="edge31" class="edge"><title>Node1&#45;&gt;Node5</title>
<path fill="none" stroke="midnightblue" d="M525.734,-180.155C410.559,-148.919 216.568,-96.3084 140.485,-75.6745"/>
<polygon fill="midnightblue" stroke="midnightblue" points="141.12,-72.2203 130.552,-72.9807 139.288,-78.9762 141.12,-72.2203"/>
</g>
<!-- Node7 -->
<g id="node7" class="node"><title>Node7</title>
<polygon fill="none" stroke="#bfbfbf" points="0,-0.5 0,-19.5 57,-19.5 57,-0.5 0,-0.5"/>
<text text-anchor="middle" x="28.5" y="-7.5" font-family="Helvetica,sans-Serif" font-size="10.00">memory</text>
</g>
<!-- Node1&#45;&gt;Node7 -->
<g id="edge32" class="edge"><title>Node1&#45;&gt;Node7</title>
<path fill="none" stroke="midnightblue" d="M525.656,-203.187C411.465,-197.316 212.941,-172.62 77.5,-76 60.3006,-63.7304 46.4787,-43.6238 37.9551,-29.0181"/>
<polygon fill="midnightblue" stroke="midnightblue" points="40.8359,-26.9959 32.9243,-19.9491 34.7146,-30.3916 40.8359,-26.9959"/>
</g>
<!-- Node24 -->
<g id="node24" class="node"><title>Node24</title>
<polygon fill="none" stroke="#bfbfbf" points="634,-118 634,-137 717,-137 717,-118 634,-118"/>
<text text-anchor="middle" x="675.5" y="-125" font-family="Helvetica,sans-Serif" font-size="10.00">xbot2/xbot2.h</text>
</g>
<!-- Node1&#45;&gt;Node24 -->
<g id="edge28" class="edge"><title>Node1&#45;&gt;Node24</title>
<path fill="none" stroke="midnightblue" d="M635.479,-179.193C644.338,-167.972 654.515,-155.082 662.389,-145.108"/>
<polygon fill="midnightblue" stroke="midnightblue" points="665.175,-147.227 668.625,-137.209 659.681,-142.889 665.175,-147.227"/>
</g>
<!-- Node25 -->
<g id="node25" class="node"><title>Node25</title>
<polygon fill="none" stroke="#bfbfbf" points="735.5,-112.5 735.5,-142.5 875.5,-142.5 875.5,-112.5 735.5,-112.5"/>
<text text-anchor="start" x="743.5" y="-130.5" font-family="Helvetica,sans-Serif" font-size="10.00">xbot2/robot_interface</text>
<text text-anchor="middle" x="805.5" y="-119.5" font-family="Helvetica,sans-Serif" font-size="10.00">/robot_interface_xbot_rt.h</text>
</g>
<!-- Node1&#45;&gt;Node25 -->
<g id="edge29" class="edge"><title>Node1&#45;&gt;Node25</title>
<path fill="none" stroke="midnightblue" d="M678.24,-179.404C705.245,-168.602 736.196,-156.221 760.813,-146.375"/>
<polygon fill="midnightblue" stroke="midnightblue" points="762.272,-149.561 770.257,-142.597 759.673,-143.061 762.272,-149.561"/>
</g>
<!-- Node26 -->
<g id="node26" class="node"><title>Node26</title>
<polygon fill="none" stroke="#bfbfbf" points="893.5,-118 893.5,-137 999.5,-137 999.5,-118 893.5,-118"/>
<text text-anchor="middle" x="946.5" y="-125" font-family="Helvetica,sans-Serif" font-size="10.00">std_srvs/SetBool.h</text>
</g>
<!-- Node1&#45;&gt;Node26 -->
<g id="edge30" class="edge"><title>Node1&#45;&gt;Node26</title>
<path fill="none" stroke="midnightblue" d="M705.192,-184.112C757.506,-172.19 824.756,-156.815 884.5,-143 889.554,-141.831 894.837,-140.604 900.097,-139.379"/>
<polygon fill="midnightblue" stroke="midnightblue" points="901.174,-142.722 910.117,-137.041 899.583,-135.905 901.174,-142.722"/>
</g>
<!-- Node3 -->
<g id="node3" class="node"><title>Node3</title>
<polygon fill="none" stroke="#bfbfbf" points="1332,-56.5 1332,-75.5 1391,-75.5 1391,-56.5 1332,-56.5"/>
<text text-anchor="middle" x="1361.5" y="-63.5" font-family="Helvetica,sans-Serif" font-size="10.00">ros/ros.h</text>
</g>
<!-- Node2&#45;&gt;Node3 -->
<g id="edge2" class="edge"><title>Node2&#45;&gt;Node3</title>
<path fill="none" stroke="midnightblue" d="M616.111,-113.23C618.941,-112.776 621.747,-112.362 624.5,-112 929.172,-71.9171 1013.07,-118.077 1321.66,-75.829"/>
<polygon fill="midnightblue" stroke="midnightblue" points="1322.37,-79.2641 1331.79,-74.4212 1321.4,-72.3307 1322.37,-79.2641"/>
</g>
<!-- Node4 -->
<g id="node4" class="node"><title>Node4</title>
<polygon fill="none" stroke="#bfbfbf" points="1409,-56.5 1409,-75.5 1548,-75.5 1548,-56.5 1409,-56.5"/>
<text text-anchor="middle" x="1478.5" y="-63.5" font-family="Helvetica,sans-Serif" font-size="10.00">sensor_msgs/JointState.h</text>
</g>
<!-- Node2&#45;&gt;Node4 -->
<g id="edge3" class="edge"><title>Node2&#45;&gt;Node4</title>
<path fill="none" stroke="midnightblue" d="M616.109,-113.212C618.939,-112.763 621.746,-112.355 624.5,-112 963.665,-68.2711 1054.64,-103.126 1398.79,-76.0813"/>
<polygon fill="midnightblue" stroke="midnightblue" points="1399.09,-79.5681 1408.78,-75.284 1398.54,-72.5903 1399.09,-79.5681"/>
</g>
<!-- Node2&#45;&gt;Node5 -->
<g id="edge4" class="edge"><title>Node2&#45;&gt;Node5</title>
<path fill="none" stroke="midnightblue" d="M496.791,-121.505C416.333,-114.245 268.848,-99.0738 144.5,-76 143.253,-75.7686 141.985,-75.5196 140.706,-75.257"/>
<polygon fill="midnightblue" stroke="midnightblue" points="141.399,-71.8255 130.875,-73.0463 139.864,-78.655 141.399,-71.8255"/>
</g>
<!-- Node6 -->
<g id="node6" class="node"><title>Node6</title>
<polygon fill="none" stroke="#bfbfbf" points="187,-56.5 187,-75.5 234,-75.5 234,-56.5 187,-56.5"/>
<text text-anchor="middle" x="210.5" y="-63.5" font-family="Helvetica,sans-Serif" font-size="10.00">vector</text>
</g>
<!-- Node2&#45;&gt;Node6 -->
<g id="edge5" class="edge"><title>Node2&#45;&gt;Node6</title>
<path fill="none" stroke="midnightblue" d="M496.944,-118C434.74,-108.826 334.442,-93.2009 248.5,-76 247.046,-75.7089 245.563,-75.4019 244.066,-75.0838"/>
<polygon fill="midnightblue" stroke="midnightblue" points="244.683,-71.6354 234.161,-72.8742 243.159,-78.4675 244.683,-71.6354"/>
</g>
<!-- Node2&#45;&gt;Node7 -->
<g id="edge6" class="edge"><title>Node2&#45;&gt;Node7</title>
<path fill="none" stroke="midnightblue" d="M496.991,-124.997C421.143,-121.639 286.759,-110.815 177.5,-76 159.316,-70.2057 156.809,-64.0396 139.5,-56 113.543,-43.9441 83.413,-31.8444 61.0992,-23.2327"/>
<polygon fill="midnightblue" stroke="midnightblue" points="62.3358,-19.9584 51.7454,-19.6501 59.832,-26.4954 62.3358,-19.9584"/>
</g>
<!-- Node8 -->
<g id="node8" class="node"><title>Node8</title>
<polygon fill="none" stroke="#bfbfbf" points="439,-56.5 439,-75.5 532,-75.5 532,-56.5 439,-56.5"/>
<text text-anchor="middle" x="485.5" y="-63.5" font-family="Helvetica,sans-Serif" font-size="10.00">unordered_map</text>
</g>
<!-- Node2&#45;&gt;Node8 -->
<g id="edge7" class="edge"><title>Node2&#45;&gt;Node8</title>
<path fill="none" stroke="midnightblue" d="M539.674,-112.399C528.825,-103.308 514.723,-91.4899 503.627,-82.1909"/>
<polygon fill="midnightblue" stroke="midnightblue" points="505.744,-79.3983 495.831,-75.6578 501.248,-84.7634 505.744,-79.3983"/>
</g>
<!-- Node9 -->
<g id="node9" class="node"><title>Node9</title>
<polygon fill="none" stroke="#bfbfbf" points="75.5,-0.5 75.5,-19.5 129.5,-19.5 129.5,-0.5 75.5,-0.5"/>
<text text-anchor="middle" x="102.5" y="-7.5" font-family="Helvetica,sans-Serif" font-size="10.00">fstream</text>
</g>
<!-- Node2&#45;&gt;Node9 -->
<g id="edge8" class="edge"><title>Node2&#45;&gt;Node9</title>
<path fill="none" stroke="midnightblue" d="M496.76,-120.626C440.183,-113.882 353.424,-100.454 281.5,-76 263.057,-69.7296 260.499,-63.4496 242.5,-56 208.36,-41.8696 168.076,-29.3337 139.507,-21.1057"/>
<polygon fill="midnightblue" stroke="midnightblue" points="140.12,-17.6415 129.544,-18.2743 138.206,-24.3749 140.12,-17.6415"/>
</g>
<!-- Node10 -->
<g id="node10" class="node"><title>Node10</title>
<polygon fill="none" stroke="#bfbfbf" points="803,-0.5 803,-19.5 880,-19.5 880,-0.5 803,-0.5"/>
<text text-anchor="middle" x="841.5" y="-7.5" font-family="Helvetica,sans-Serif" font-size="10.00">Eigen/Dense</text>
</g>
<!-- Node2&#45;&gt;Node10 -->
<g id="edge9" class="edge"><title>Node2&#45;&gt;Node10</title>
<path fill="none" stroke="midnightblue" d="M608.891,-112.397C640.303,-103.319 680.762,-90.5237 715.5,-76 733.108,-68.6381 736.559,-64.7893 753.5,-56 774.32,-45.1985 797.994,-33.1027 815.54,-24.1741"/>
<polygon fill="midnightblue" stroke="midnightblue" points="817.272,-27.2199 824.599,-19.5679 814.099,-20.9801 817.272,-27.2199"/>
</g>
<!-- Node11 -->
<g id="node11" class="node"><title>Node11</title>
<polygon fill="none" stroke="#bfbfbf" points="898.5,-0.5 898.5,-19.5 994.5,-19.5 994.5,-0.5 898.5,-0.5"/>
<text text-anchor="middle" x="946.5" y="-7.5" font-family="Helvetica,sans-Serif" font-size="10.00">yaml&#45;cpp/yaml.h</text>
</g>
<!-- Node2&#45;&gt;Node11 -->
<g id="edge10" class="edge"><title>Node2&#45;&gt;Node11</title>
<path fill="none" stroke="midnightblue" d="M616.145,-113.459C618.965,-112.944 621.761,-112.454 624.5,-112 691.175,-100.941 874.611,-119.306 926.5,-76 939.936,-64.787 944.518,-44.769 945.994,-29.9007"/>
<polygon fill="midnightblue" stroke="midnightblue" points="949.497,-29.9606 946.614,-19.7658 942.51,-29.5337 949.497,-29.9606"/>
</g>
<!-- Node12 -->
<g id="node12" class="node"><title>Node12</title>
<g id="a_node12"><a xlink:href="Utils_8h.html" target="_top" xlink:title="ros_end_effector/Utils.h">
<polygon fill="none" stroke="black" points="290.5,-56.5 290.5,-75.5 420.5,-75.5 420.5,-56.5 290.5,-56.5"/>
<text text-anchor="middle" x="355.5" y="-63.5" font-family="Helvetica,sans-Serif" font-size="10.00">ros_end_effector/Utils.h</text>
</a>
</g>
</g>
<!-- Node2&#45;&gt;Node12 -->
<g id="edge11" class="edge"><title>Node2&#45;&gt;Node12</title>
<path fill="none" stroke="midnightblue" d="M509.12,-112.475C473.989,-102.075 426.706,-88.0783 393.917,-78.3722"/>
<polygon fill="midnightblue" stroke="midnightblue" points="394.818,-74.9888 384.236,-75.5064 392.831,-81.7009 394.818,-74.9888"/>
</g>
<!-- Node19 -->
<g id="node19" class="node"><title>Node19</title>
<g id="a_node19"><a xlink:href="UtilsEigen_8h.html" target="_top" xlink:title="ros_end_effector/UtilsEigen.h">
<polygon fill="none" stroke="black" points="550.5,-56.5 550.5,-75.5 706.5,-75.5 706.5,-56.5 550.5,-56.5"/>
<text text-anchor="middle" x="628.5" y="-63.5" font-family="Helvetica,sans-Serif" font-size="10.00">ros_end_effector/UtilsEigen.h</text>
</a>
</g>
</g>
<!-- Node2&#45;&gt;Node19 -->
<g id="edge20" class="edge"><title>Node2&#45;&gt;Node19</title>
<path fill="none" stroke="midnightblue" d="M573.563,-112.399C584.565,-103.308 598.865,-91.4899 610.118,-82.1909"/>
<polygon fill="midnightblue" stroke="midnightblue" points="612.544,-84.726 618.023,-75.6578 608.085,-79.33 612.544,-84.726"/>
</g>
<!-- Node21 -->
<g id="node21" class="node"><title>Node21</title>
<g id="a_node21"><a xlink:href="UtilsYAML_8h.html" target="_top" xlink:title="ros_end_effector/UtilsYAML.h">
<polygon fill="none" stroke="black" points="763,-56.5 763,-75.5 918,-75.5 918,-56.5 763,-56.5"/>
<text text-anchor="middle" x="840.5" y="-63.5" font-family="Helvetica,sans-Serif" font-size="10.00">ros_end_effector/UtilsYAML.h</text>
</a>
</g>
</g>
<!-- Node2&#45;&gt;Node21 -->
<g id="edge23" class="edge"><title>Node2&#45;&gt;Node21</title>
<path fill="none" stroke="midnightblue" d="M616.201,-113.753C619.006,-113.159 621.783,-112.573 624.5,-112 680.832,-100.126 745.469,-86.6842 789.243,-77.6079"/>
<polygon fill="midnightblue" stroke="midnightblue" points="789.998,-81.026 799.079,-75.5691 788.577,-74.1717 789.998,-81.026"/>
</g>
<!-- Node22 -->
<g id="node22" class="node"><title>Node22</title>
<polygon fill="none" stroke="#bfbfbf" points="975,-56.5 975,-75.5 1100,-75.5 1100,-56.5 975,-56.5"/>
<text text-anchor="middle" x="1037.5" y="-63.5" font-family="Helvetica,sans-Serif" font-size="10.00">rosee_msg/HandInfo.h</text>
</g>
<!-- Node2&#45;&gt;Node22 -->
<g id="edge26" class="edge"><title>Node2&#45;&gt;Node22</title>
<path fill="none" stroke="midnightblue" d="M616.139,-113.419C618.961,-112.914 621.758,-112.438 624.5,-112 772.808,-88.3078 811.245,-92.7181 960.5,-76 961.963,-75.8361 963.441,-75.6698 964.931,-75.5016"/>
<polygon fill="midnightblue" stroke="midnightblue" points="965.35,-78.9766 974.891,-74.369 964.559,-72.0215 965.35,-78.9766"/>
</g>
<!-- Node23 -->
<g id="node23" class="node"><title>Node23</title>
<polygon fill="none" stroke="#bfbfbf" points="1117.5,-56.5 1117.5,-75.5 1313.5,-75.5 1313.5,-56.5 1117.5,-56.5"/>
<text text-anchor="middle" x="1215.5" y="-63.5" font-family="Helvetica,sans-Serif" font-size="10.00">rosee_msg/MotorPhalangePressure.h</text>
</g>
<!-- Node2&#45;&gt;Node23 -->
<g id="edge27" class="edge"><title>Node2&#45;&gt;Node23</title>
<path fill="none" stroke="midnightblue" d="M616.122,-113.307C618.948,-112.833 621.752,-112.393 624.5,-112 835.231,-81.854 892.314,-92.7974 1107.3,-76.1594"/>
<polygon fill="midnightblue" stroke="midnightblue" points="1107.63,-79.6443 1117.33,-75.3724 1107.08,-72.6658 1107.63,-79.6443"/>
</g>
<!-- Node12&#45;&gt;Node7 -->
<g id="edge13" class="edge"><title>Node12&#45;&gt;Node7</title>
<path fill="none" stroke="midnightblue" d="M291.255,-56.4629C234.76,-48.6214 150.111,-36.0643 66.9509,-19.9524"/>
<polygon fill="midnightblue" stroke="midnightblue" points="67.5678,-16.5068 57.0819,-18.0219 66.224,-23.3766 67.5678,-16.5068"/>
</g>
<!-- Node12&#45;&gt;Node9 -->
<g id="edge17" class="edge"><title>Node12&#45;&gt;Node9</title>
<path fill="none" stroke="midnightblue" d="M311.745,-56.4675C269.983,-48.2025 205.052,-35.0396 139.668,-20.198"/>
<polygon fill="midnightblue" stroke="midnightblue" points="140.127,-16.7127 129.599,-17.8995 138.569,-23.5372 140.127,-16.7127"/>
</g>
<!-- Node13 -->
<g id="node13" class="node"><title>Node13</title>
<polygon fill="none" stroke="#bfbfbf" points="216,-0.5 216,-19.5 263,-19.5 263,-0.5 216,-0.5"/>
<text text-anchor="middle" x="239.5" y="-7.5" font-family="Helvetica,sans-Serif" font-size="10.00">cmath</text>
</g>
<!-- Node12&#45;&gt;Node13 -->
<g id="edge12" class="edge"><title>Node12&#45;&gt;Node13</title>
<path fill="none" stroke="midnightblue" d="M337.119,-56.4435C318.284,-47.6751 288.769,-33.9355 267.121,-23.8579"/>
<polygon fill="midnightblue" stroke="midnightblue" points="268.338,-20.5637 257.795,-19.5164 265.383,-26.9098 268.338,-20.5637"/>
</g>
<!-- Node14 -->
<g id="node14" class="node"><title>Node14</title>
<polygon fill="none" stroke="#bfbfbf" points="281,-0.5 281,-19.5 340,-19.5 340,-0.5 281,-0.5"/>
<text text-anchor="middle" x="310.5" y="-7.5" font-family="Helvetica,sans-Serif" font-size="10.00">iostream</text>
</g>
<!-- Node12&#45;&gt;Node14 -->
<g id="edge14" class="edge"><title>Node12&#45;&gt;Node14</title>
<path fill="none" stroke="midnightblue" d="M348.069,-56.083C341.647,-48.3768 332.194,-37.0333 324.378,-27.6531"/>
<polygon fill="midnightblue" stroke="midnightblue" points="326.883,-25.1927 317.793,-19.7511 321.506,-29.674 326.883,-25.1927"/>
</g>
<!-- Node15 -->
<g id="node15" class="node"><title>Node15</title>
<polygon fill="none" stroke="#bfbfbf" points="358.5,-0.5 358.5,-19.5 406.5,-19.5 406.5,-0.5 358.5,-0.5"/>
<text text-anchor="middle" x="382.5" y="-7.5" font-family="Helvetica,sans-Serif" font-size="10.00">dlfcn.h</text>
</g>
<!-- Node12&#45;&gt;Node15 -->
<g id="edge15" class="edge"><title>Node12&#45;&gt;Node15</title>
<path fill="none" stroke="midnightblue" d="M359.959,-56.083C363.654,-48.6913 369.023,-37.9533 373.594,-28.8111"/>
<polygon fill="midnightblue" stroke="midnightblue" points="376.783,-30.2606 378.124,-19.7511 370.522,-27.1301 376.783,-30.2606"/>
</g>
<!-- Node16 -->
<g id="node16" class="node"><title>Node16</title>
<polygon fill="none" stroke="#bfbfbf" points="424.5,-0.5 424.5,-19.5 540.5,-19.5 540.5,-0.5 424.5,-0.5"/>
<text text-anchor="middle" x="482.5" y="-7.5" font-family="Helvetica,sans-Serif" font-size="10.00">boost/filesystem.hpp</text>
</g>
<!-- Node12&#45;&gt;Node16 -->
<g id="edge16" class="edge"><title>Node12&#45;&gt;Node16</title>
<path fill="none" stroke="midnightblue" d="M375.624,-56.4435C396.524,-47.5566 429.435,-33.5632 453.216,-23.4514"/>
<polygon fill="midnightblue" stroke="midnightblue" points="454.638,-26.6504 462.471,-19.5164 451.898,-20.2085 454.638,-26.6504"/>
</g>
<!-- Node17 -->
<g id="node17" class="node"><title>Node17</title>
<polygon fill="none" stroke="#bfbfbf" points="558.5,-0.5 558.5,-19.5 608.5,-19.5 608.5,-0.5 558.5,-0.5"/>
<text text-anchor="middle" x="583.5" y="-7.5" font-family="Helvetica,sans-Serif" font-size="10.00">chrono</text>
</g>
<!-- Node12&#45;&gt;Node17 -->
<g id="edge18" class="edge"><title>Node12&#45;&gt;Node17</title>
<path fill="none" stroke="midnightblue" d="M393.865,-56.4675C430.995,-48.1285 489.107,-34.8634 548.367,-20.2273"/>
<polygon fill="midnightblue" stroke="midnightblue" points="549.408,-23.5753 558.271,-17.7708 547.723,-16.7811 549.408,-23.5753"/>
</g>
<!-- Node18 -->
<g id="node18" class="node"><title>Node18</title>
<polygon fill="none" stroke="#bfbfbf" points="147.5,-0.5 147.5,-19.5 197.5,-19.5 197.5,-0.5 147.5,-0.5"/>
<text text-anchor="middle" x="172.5" y="-7.5" font-family="Helvetica,sans-Serif" font-size="10.00">atomic</text>
</g>
<!-- Node12&#45;&gt;Node18 -->
<g id="edge19" class="edge"><title>Node12&#45;&gt;Node18</title>
<path fill="none" stroke="midnightblue" d="M326.503,-56.4435C294.123,-46.8887 241.739,-31.4312 207.207,-21.2413"/>
<polygon fill="midnightblue" stroke="midnightblue" points="208.12,-17.8618 197.538,-18.3884 206.139,-24.5756 208.12,-17.8618"/>
</g>
<!-- Node19&#45;&gt;Node10 -->
<g id="edge21" class="edge"><title>Node19&#45;&gt;Node10</title>
<path fill="none" stroke="midnightblue" d="M662.25,-56.4435C699.018,-47.1221 757.946,-32.1828 798.122,-21.9972"/>
<polygon fill="midnightblue" stroke="midnightblue" points="799.074,-25.3666 807.907,-19.5164 797.354,-18.5813 799.074,-25.3666"/>
</g>
<!-- Node20 -->
<g id="node20" class="node"><title>Node20</title>
<polygon fill="none" stroke="#bfbfbf" points="626.5,-0.5 626.5,-19.5 784.5,-19.5 784.5,-0.5 626.5,-0.5"/>
<text text-anchor="middle" x="705.5" y="-7.5" font-family="Helvetica,sans-Serif" font-size="10.00">std_msgs/Float32MultiArray.h</text>
</g>
<!-- Node19&#45;&gt;Node20 -->
<g id="edge22" class="edge"><title>Node19&#45;&gt;Node20</title>
<path fill="none" stroke="midnightblue" d="M640.871,-56.324C652.658,-48.0577 670.632,-35.4527 684.636,-25.6322"/>
<polygon fill="midnightblue" stroke="midnightblue" points="686.982,-28.2619 693.159,-19.6545 682.962,-22.5307 686.982,-28.2619"/>
</g>
<!-- Node21&#45;&gt;Node10 -->
<g id="edge25" class="edge"><title>Node21&#45;&gt;Node10</title>
<path fill="none" stroke="midnightblue" d="M840.665,-56.083C840.796,-49.0059 840.984,-38.8611 841.148,-29.9865"/>
<polygon fill="midnightblue" stroke="midnightblue" points="844.652,-29.8142 841.338,-19.7511 837.653,-29.6845 844.652,-29.8142"/>
</g>
<!-- Node21&#45;&gt;Node11 -->
<g id="edge24" class="edge"><title>Node21&#45;&gt;Node11</title>
<path fill="none" stroke="midnightblue" d="M857.531,-56.324C874.53,-47.6641 900.876,-34.2424 920.493,-24.249"/>
<polygon fill="midnightblue" stroke="midnightblue" points="922.19,-27.3125 929.512,-19.6545 919.012,-21.0752 922.19,-27.3125"/>
</g>
</g>
</svg>
