<?xml version="1.0" encoding="UTF-8" standalone="no"?>
<!DOCTYPE svg PUBLIC "-//W3C//DTD SVG 1.1//EN"
 "http://www.w3.org/Graphics/SVG/1.1/DTD/svg11.dtd">
<!-- Generated by graphviz version 2.38.0 (20140413.2041)
 -->
<!-- Title: /home/travis/build/ADVRHumanoids/ROSEndEffector/include/end_effector/HAL/XBot2Hal.h Pages: 1 -->
<svg width="1533pt" height="240pt"
 viewBox="0.00 0.00 1533.00 240.00" xmlns="http://www.w3.org/2000/svg" xmlns:xlink="http://www.w3.org/1999/xlink">
<g id="graph0" class="graph" transform="scale(1 1) rotate(0) translate(4 236)">
<title>/home/travis/build/ADVRHumanoids/ROSEndEffector/include/end_effector/HAL/XBot2Hal.h</title>
<!-- Node1 -->
<g id="node1" class="node"><title>Node1</title>
<polygon fill="#bfbfbf" stroke="black" points="543,-179.5 543,-231.5 722,-231.5 722,-179.5 543,-179.5"/>
<text text-anchor="start" x="551" y="-219.5" font-family="Helvetica,sans-Serif" font-size="10.00">/home/travis/build</text>
<text text-anchor="start" x="551" y="-208.5" font-family="Helvetica,sans-Serif" font-size="10.00">/ADVRHumanoids/ROSEndEffector</text>
<text text-anchor="start" x="551" y="-197.5" font-family="Helvetica,sans-Serif" font-size="10.00">/include/end_effector/HAL</text>
<text text-anchor="middle" x="632.5" y="-186.5" font-family="Helvetica,sans-Serif" font-size="10.00">/XBot2Hal.h</text>
</g>
<!-- Node2 -->
<g id="node2" class="node"><title>Node2</title>
<g id="a_node2"><a xlink:href="EEHal_8h.html" target="_top" xlink:title="end_effector/HAL/EEHal.h">
<polygon fill="none" stroke="black" points="499,-118 499,-137 638,-137 638,-118 499,-118"/>
<text text-anchor="middle" x="568.5" y="-125" font-family="Helvetica,sans-Serif" font-size="10.00">end_effector/HAL/EEHal.h</text>
</a>
</g>
</g>
<!-- Node1&#45;&gt;Node2 -->
<g id="edge1" class="edge"><title>Node1&#45;&gt;Node2</title>
<path fill="none" stroke="midnightblue" d="M611.189,-179.193C601.739,-167.972 590.884,-155.082 582.486,-145.108"/>
<polygon fill="midnightblue" stroke="midnightblue" points="584.952,-142.604 575.834,-137.209 579.598,-147.113 584.952,-142.604"/>
</g>
<!-- Node5 -->
<g id="node5" class="node"><title>Node5</title>
<polygon fill="none" stroke="#bfbfbf" points="123.5,-56.5 123.5,-75.5 167.5,-75.5 167.5,-56.5 123.5,-56.5"/>
<text text-anchor="middle" x="145.5" y="-63.5" font-family="Helvetica,sans-Serif" font-size="10.00">string</text>
</g>
<!-- Node1&#45;&gt;Node5 -->
<g id="edge31" class="edge"><title>Node1&#45;&gt;Node5</title>
<path fill="none" stroke="midnightblue" d="M543.743,-179.44C433.656,-148.358 251.515,-96.9324 177.879,-76.1418"/>
<polygon fill="midnightblue" stroke="midnightblue" points="178.398,-72.6517 167.823,-73.3027 176.496,-79.3883 178.398,-72.6517"/>
</g>
<!-- Node7 -->
<g id="node7" class="node"><title>Node7</title>
<polygon fill="none" stroke="#bfbfbf" points="0,-0.5 0,-19.5 57,-19.5 57,-0.5 0,-0.5"/>
<text text-anchor="middle" x="28.5" y="-7.5" font-family="Helvetica,sans-Serif" font-size="10.00">memory</text>
</g>
<!-- Node1&#45;&gt;Node7 -->
<g id="edge32" class="edge"><title>Node1&#45;&gt;Node7</title>
<path fill="none" stroke="midnightblue" d="M542.609,-195.527C435.43,-181.906 253.368,-149.356 114.5,-76 88.5707,-62.303 62.1648,-41.0226 45.5794,-26.5729"/>
<polygon fill="midnightblue" stroke="midnightblue" points="47.6577,-23.7377 37.8559,-19.7157 43.0102,-28.9723 47.6577,-23.7377"/>
</g>
<!-- Node24 -->
<g id="node24" class="node"><title>Node24</title>
<polygon fill="none" stroke="#bfbfbf" points="656,-118 656,-137 739,-137 739,-118 656,-118"/>
<text text-anchor="middle" x="697.5" y="-125" font-family="Helvetica,sans-Serif" font-size="10.00">xbot2/xbot2.h</text>
</g>
<!-- Node1&#45;&gt;Node24 -->
<g id="edge28" class="edge"><title>Node1&#45;&gt;Node24</title>
<path fill="none" stroke="midnightblue" d="M654.144,-179.193C663.741,-167.972 674.766,-155.082 683.296,-145.108"/>
<polygon fill="midnightblue" stroke="midnightblue" points="686.212,-147.083 690.052,-137.209 680.892,-142.534 686.212,-147.083"/>
</g>
<!-- Node25 -->
<g id="node25" class="node"><title>Node25</title>
<polygon fill="none" stroke="#bfbfbf" points="757.5,-112.5 757.5,-142.5 897.5,-142.5 897.5,-112.5 757.5,-112.5"/>
<text text-anchor="start" x="765.5" y="-130.5" font-family="Helvetica,sans-Serif" font-size="10.00">xbot2/robot_interface</text>
<text text-anchor="middle" x="827.5" y="-119.5" font-family="Helvetica,sans-Serif" font-size="10.00">/robot_interface_xbot_rt.h</text>
</g>
<!-- Node1&#45;&gt;Node25 -->
<g id="edge29" class="edge"><title>Node1&#45;&gt;Node25</title>
<path fill="none" stroke="midnightblue" d="M696.891,-179.404C724.729,-168.554 756.654,-156.112 781.972,-146.244"/>
<polygon fill="midnightblue" stroke="midnightblue" points="783.283,-149.49 791.33,-142.597 780.741,-142.967 783.283,-149.49"/>
</g>
<!-- Node26 -->
<g id="node26" class="node"><title>Node26</title>
<polygon fill="none" stroke="#bfbfbf" points="915.5,-118 915.5,-137 1021.5,-137 1021.5,-118 915.5,-118"/>
<text text-anchor="middle" x="968.5" y="-125" font-family="Helvetica,sans-Serif" font-size="10.00">std_srvs/SetBool.h</text>
</g>
<!-- Node1&#45;&gt;Node26 -->
<g id="edge30" class="edge"><title>Node1&#45;&gt;Node26</title>
<path fill="none" stroke="midnightblue" d="M722.012,-184.621C775.566,-172.675 844.96,-157.102 906.5,-143 911.556,-141.841 916.841,-140.62 922.102,-139.399"/>
<polygon fill="midnightblue" stroke="midnightblue" points="923.177,-142.742 932.122,-137.065 921.589,-135.925 923.177,-142.742"/>
</g>
<!-- Node3 -->
<g id="node3" class="node"><title>Node3</title>
<polygon fill="none" stroke="#bfbfbf" points="1309,-56.5 1309,-75.5 1368,-75.5 1368,-56.5 1309,-56.5"/>
<text text-anchor="middle" x="1338.5" y="-63.5" font-family="Helvetica,sans-Serif" font-size="10.00">ros/ros.h</text>
</g>
<!-- Node2&#45;&gt;Node3 -->
<g id="edge2" class="edge"><title>Node2&#45;&gt;Node3</title>
<path fill="none" stroke="midnightblue" d="M608.832,-117.98C620.898,-115.708 634.192,-113.477 646.5,-112 931.851,-77.7556 1009.97,-115.953 1298.86,-75.8086"/>
<polygon fill="midnightblue" stroke="midnightblue" points="1299.37,-79.2711 1308.79,-74.4102 1298.4,-72.3396 1299.37,-79.2711"/>
</g>
<!-- Node4 -->
<g id="node4" class="node"><title>Node4</title>
<polygon fill="none" stroke="#bfbfbf" points="1386,-56.5 1386,-75.5 1525,-75.5 1525,-56.5 1386,-56.5"/>
<text text-anchor="middle" x="1455.5" y="-63.5" font-family="Helvetica,sans-Serif" font-size="10.00">sensor_msgs/JointState.h</text>
</g>
<!-- Node2&#45;&gt;Node4 -->
<g id="edge3" class="edge"><title>Node2&#45;&gt;Node4</title>
<path fill="none" stroke="midnightblue" d="M608.826,-117.934C620.892,-115.661 634.188,-113.441 646.5,-112 966.265,-74.5768 1051.57,-102.08 1375.63,-76.099"/>
<polygon fill="midnightblue" stroke="midnightblue" points="1376.1,-79.5728 1385.78,-75.2742 1375.53,-72.5958 1376.1,-79.5728"/>
</g>
<!-- Node2&#45;&gt;Node5 -->
<g id="edge4" class="edge"><title>Node2&#45;&gt;Node5</title>
<path fill="none" stroke="midnightblue" d="M498.908,-119.86C421.141,-111.875 291.675,-96.8884 181.5,-76 180.254,-75.7637 178.986,-75.5106 177.708,-75.2446"/>
<polygon fill="midnightblue" stroke="midnightblue" points="178.406,-71.814 167.88,-73.0189 176.86,-78.6412 178.406,-71.814"/>
</g>
<!-- Node6 -->
<g id="node6" class="node"><title>Node6</title>
<polygon fill="none" stroke="#bfbfbf" points="224,-56.5 224,-75.5 271,-75.5 271,-56.5 224,-56.5"/>
<text text-anchor="middle" x="247.5" y="-63.5" font-family="Helvetica,sans-Serif" font-size="10.00">vector</text>
</g>
<!-- Node2&#45;&gt;Node6 -->
<g id="edge5" class="edge"><title>Node2&#45;&gt;Node6</title>
<path fill="none" stroke="midnightblue" d="M515.651,-117.978C458.675,-108.578 365.398,-92.5768 285.5,-76 284.048,-75.6987 282.566,-75.3832 281.071,-75.0581"/>
<polygon fill="midnightblue" stroke="midnightblue" points="281.696,-71.6112 271.171,-72.8224 280.154,-78.4393 281.696,-71.6112"/>
</g>
<!-- Node2&#45;&gt;Node7 -->
<g id="edge6" class="edge"><title>Node2&#45;&gt;Node7</title>
<path fill="none" stroke="midnightblue" d="M498.73,-123.581C426.167,-118.933 310.034,-106.928 214.5,-76 196.343,-70.1218 194.153,-63.2529 176.5,-56 140.233,-41.0997 97.1966,-28.5589 66.9074,-20.5324"/>
<polygon fill="midnightblue" stroke="midnightblue" points="67.712,-17.1253 57.1522,-17.9866 65.9443,-23.8984 67.712,-17.1253"/>
</g>
<!-- Node8 -->
<g id="node8" class="node"><title>Node8</title>
<polygon fill="none" stroke="#bfbfbf" points="456,-56.5 456,-75.5 549,-75.5 549,-56.5 456,-56.5"/>
<text text-anchor="middle" x="502.5" y="-63.5" font-family="Helvetica,sans-Serif" font-size="10.00">unordered_map</text>
</g>
<!-- Node2&#45;&gt;Node8 -->
<g id="edge7" class="edge"><title>Node2&#45;&gt;Node8</title>
<path fill="none" stroke="midnightblue" d="M559.044,-117.975C548.752,-108.697 532.084,-93.6706 519.506,-82.331"/>
<polygon fill="midnightblue" stroke="midnightblue" points="521.71,-79.6054 511.939,-75.5091 517.022,-84.8046 521.71,-79.6054"/>
</g>
<!-- Node9 -->
<g id="node9" class="node"><title>Node9</title>
<polygon fill="none" stroke="#bfbfbf" points="75.5,-0.5 75.5,-19.5 129.5,-19.5 129.5,-0.5 75.5,-0.5"/>
<text text-anchor="middle" x="102.5" y="-7.5" font-family="Helvetica,sans-Serif" font-size="10.00">fstream</text>
</g>
<!-- Node2&#45;&gt;Node9 -->
<g id="edge8" class="edge"><title>Node2&#45;&gt;Node9</title>
<path fill="none" stroke="midnightblue" d="M500.841,-117.972C449.766,-110.312 378.476,-96.9854 318.5,-76 300.113,-69.5665 297.721,-62.8878 279.5,-56 276.179,-54.7446 190.818,-33.2069 139.872,-20.3902"/>
<polygon fill="midnightblue" stroke="midnightblue" points="140.422,-16.9196 129.87,-17.8748 138.714,-23.7082 140.422,-16.9196"/>
</g>
<!-- Node10 -->
<g id="node10" class="node"><title>Node10</title>
<polygon fill="none" stroke="#bfbfbf" points="803,-0.5 803,-19.5 880,-19.5 880,-0.5 803,-0.5"/>
<text text-anchor="middle" x="841.5" y="-7.5" font-family="Helvetica,sans-Serif" font-size="10.00">Eigen/Dense</text>
</g>
<!-- Node2&#45;&gt;Node10 -->
<g id="edge9" class="edge"><title>Node2&#45;&gt;Node10</title>
<path fill="none" stroke="midnightblue" d="M596.845,-117.922C626.232,-108.715 673.275,-93.0896 712.5,-76 729.997,-68.3769 733.5,-64.6751 750.5,-56 771.826,-45.1173 796.143,-33.1131 814.271,-24.242"/>
<polygon fill="midnightblue" stroke="midnightblue" points="816.198,-27.1963 823.648,-19.663 813.126,-20.9062 816.198,-27.1963"/>
</g>
<!-- Node11 -->
<g id="node11" class="node"><title>Node11</title>
<polygon fill="none" stroke="#bfbfbf" points="898.5,-0.5 898.5,-19.5 994.5,-19.5 994.5,-0.5 898.5,-0.5"/>
<text text-anchor="middle" x="946.5" y="-7.5" font-family="Helvetica,sans-Serif" font-size="10.00">yaml&#45;cpp/yaml.h</text>
</g>
<!-- Node2&#45;&gt;Node11 -->
<g id="edge10" class="edge"><title>Node2&#45;&gt;Node11</title>
<path fill="none" stroke="midnightblue" d="M612.578,-117.951C623.636,-115.904 635.488,-113.794 646.5,-112 760.337,-93.4555 805.949,-137.535 903.5,-76 920.795,-65.0905 932.655,-44.4095 939.471,-29.2957"/>
<polygon fill="midnightblue" stroke="midnightblue" points="942.766,-30.4868 943.388,-19.9102 936.306,-27.7907 942.766,-30.4868"/>
</g>
<!-- Node12 -->
<g id="node12" class="node"><title>Node12</title>
<g id="a_node12"><a xlink:href="Utils_8h.html" target="_top" xlink:title="end_effector/Utils.h">
<polygon fill="none" stroke="black" points="327.5,-56.5 327.5,-75.5 437.5,-75.5 437.5,-56.5 327.5,-56.5"/>
<text text-anchor="middle" x="382.5" y="-63.5" font-family="Helvetica,sans-Serif" font-size="10.00">end_effector/Utils.h</text>
</a>
</g>
</g>
<!-- Node2&#45;&gt;Node12 -->
<g id="edge11" class="edge"><title>Node2&#45;&gt;Node12</title>
<path fill="none" stroke="midnightblue" d="M541.851,-117.975C509.531,-107.636 454.903,-90.1611 418.767,-78.6017"/>
<polygon fill="midnightblue" stroke="midnightblue" points="419.691,-75.2224 409.1,-75.5091 417.558,-81.8896 419.691,-75.2224"/>
</g>
<!-- Node19 -->
<g id="node19" class="node"><title>Node19</title>
<g id="a_node19"><a xlink:href="UtilsEigen_8h.html" target="_top" xlink:title="end_effector/UtilsEigen.h">
<polygon fill="none" stroke="black" points="567.5,-56.5 567.5,-75.5 703.5,-75.5 703.5,-56.5 567.5,-56.5"/>
<text text-anchor="middle" x="635.5" y="-63.5" font-family="Helvetica,sans-Serif" font-size="10.00">end_effector/UtilsEigen.h</text>
</a>
</g>
</g>
<!-- Node2&#45;&gt;Node19 -->
<g id="edge20" class="edge"><title>Node2&#45;&gt;Node19</title>
<path fill="none" stroke="midnightblue" d="M578.099,-117.975C588.548,-108.697 605.468,-93.6706 618.236,-82.331"/>
<polygon fill="midnightblue" stroke="midnightblue" points="620.765,-84.7663 625.918,-75.5091 616.117,-79.5323 620.765,-84.7663"/>
</g>
<!-- Node21 -->
<g id="node21" class="node"><title>Node21</title>
<g id="a_node21"><a xlink:href="UtilsYAML_8h.html" target="_top" xlink:title="end_effector/UtilsYAML.h">
<polygon fill="none" stroke="black" points="760,-56.5 760,-75.5 895,-75.5 895,-56.5 760,-56.5"/>
<text text-anchor="middle" x="827.5" y="-63.5" font-family="Helvetica,sans-Serif" font-size="10.00">end_effector/UtilsYAML.h</text>
</a>
</g>
</g>
<!-- Node2&#45;&gt;Node21 -->
<g id="edge23" class="edge"><title>Node2&#45;&gt;Node21</title>
<path fill="none" stroke="midnightblue" d="M605.608,-117.975C651.671,-107.393 730.274,-89.3356 780.503,-77.7966"/>
<polygon fill="midnightblue" stroke="midnightblue" points="781.498,-81.1593 790.46,-75.5091 779.931,-74.337 781.498,-81.1593"/>
</g>
<!-- Node22 -->
<g id="node22" class="node"><title>Node22</title>
<polygon fill="none" stroke="#bfbfbf" points="952,-56.5 952,-75.5 1077,-75.5 1077,-56.5 952,-56.5"/>
<text text-anchor="middle" x="1014.5" y="-63.5" font-family="Helvetica,sans-Serif" font-size="10.00">rosee_msg/HandInfo.h</text>
</g>
<!-- Node2&#45;&gt;Node22 -->
<g id="edge26" class="edge"><title>Node2&#45;&gt;Node22</title>
<path fill="none" stroke="midnightblue" d="M611.739,-117.967C623.029,-115.875 635.201,-113.739 646.5,-112 674.907,-107.627 842.82,-87.4499 941.738,-75.651"/>
<polygon fill="midnightblue" stroke="midnightblue" points="942.162,-79.1253 951.677,-74.466 941.333,-72.1746 942.162,-79.1253"/>
</g>
<!-- Node23 -->
<g id="node23" class="node"><title>Node23</title>
<polygon fill="none" stroke="#bfbfbf" points="1094.5,-56.5 1094.5,-75.5 1290.5,-75.5 1290.5,-56.5 1094.5,-56.5"/>
<text text-anchor="middle" x="1192.5" y="-63.5" font-family="Helvetica,sans-Serif" font-size="10.00">rosee_msg/MotorPhalangePressure.h</text>
</g>
<!-- Node2&#45;&gt;Node23 -->
<g id="edge27" class="edge"><title>Node2&#45;&gt;Node23</title>
<path fill="none" stroke="midnightblue" d="M610.068,-117.959C621.809,-115.768 634.622,-113.586 646.5,-112 837.755,-86.467 889.27,-92.1007 1084.32,-76.1718"/>
<polygon fill="midnightblue" stroke="midnightblue" points="1084.65,-79.657 1094.32,-75.3463 1084.07,-72.6807 1084.65,-79.657"/>
</g>
<!-- Node12&#45;&gt;Node7 -->
<g id="edge13" class="edge"><title>Node12&#45;&gt;Node7</title>
<path fill="none" stroke="midnightblue" d="M327.447,-58.7035C266.299,-51.3649 164.471,-38.1218 67.0898,-19.9516"/>
<polygon fill="midnightblue" stroke="midnightblue" points="67.5496,-16.4767 57.0741,-18.0622 66.2519,-23.3554 67.5496,-16.4767"/>
</g>
<!-- Node12&#45;&gt;Node9 -->
<g id="edge17" class="edge"><title>Node12&#45;&gt;Node9</title>
<path fill="none" stroke="midnightblue" d="M330.903,-56.4498C283.613,-48.3958 211.435,-35.5591 139.701,-20.1545"/>
<polygon fill="midnightblue" stroke="midnightblue" points="140.098,-16.6596 129.584,-17.964 138.617,-23.5011 140.098,-16.6596"/>
</g>
<!-- Node13 -->
<g id="node13" class="node"><title>Node13</title>
<polygon fill="none" stroke="#bfbfbf" points="216,-0.5 216,-19.5 263,-19.5 263,-0.5 216,-0.5"/>
<text text-anchor="middle" x="239.5" y="-7.5" font-family="Helvetica,sans-Serif" font-size="10.00">cmath</text>
</g>
<!-- Node12&#45;&gt;Node13 -->
<g id="edge12" class="edge"><title>Node12&#45;&gt;Node13</title>
<path fill="none" stroke="midnightblue" d="M359.841,-56.4435C336.098,-47.4776 298.591,-33.314 271.762,-23.1827"/>
<polygon fill="midnightblue" stroke="midnightblue" points="272.644,-19.7749 262.053,-19.5164 270.171,-26.3235 272.644,-19.7749"/>
</g>
<!-- Node14 -->
<g id="node14" class="node"><title>Node14</title>
<polygon fill="none" stroke="#bfbfbf" points="281,-0.5 281,-19.5 340,-19.5 340,-0.5 281,-0.5"/>
<text text-anchor="middle" x="310.5" y="-7.5" font-family="Helvetica,sans-Serif" font-size="10.00">iostream</text>
</g>
<!-- Node12&#45;&gt;Node14 -->
<g id="edge14" class="edge"><title>Node12&#45;&gt;Node14</title>
<path fill="none" stroke="midnightblue" d="M370.932,-56.324C360.08,-48.1849 343.619,-35.8395 330.617,-26.0874"/>
<polygon fill="midnightblue" stroke="midnightblue" points="332.379,-23.0339 322.279,-19.8339 328.179,-28.6339 332.379,-23.0339"/>
</g>
<!-- Node15 -->
<g id="node15" class="node"><title>Node15</title>
<polygon fill="none" stroke="#bfbfbf" points="358.5,-0.5 358.5,-19.5 406.5,-19.5 406.5,-0.5 358.5,-0.5"/>
<text text-anchor="middle" x="382.5" y="-7.5" font-family="Helvetica,sans-Serif" font-size="10.00">dlfcn.h</text>
</g>
<!-- Node12&#45;&gt;Node15 -->
<g id="edge15" class="edge"><title>Node12&#45;&gt;Node15</title>
<path fill="none" stroke="midnightblue" d="M382.5,-56.083C382.5,-49.0059 382.5,-38.8611 382.5,-29.9865"/>
<polygon fill="midnightblue" stroke="midnightblue" points="386,-29.751 382.5,-19.7511 379,-29.7511 386,-29.751"/>
</g>
<!-- Node16 -->
<g id="node16" class="node"><title>Node16</title>
<polygon fill="none" stroke="#bfbfbf" points="424.5,-0.5 424.5,-19.5 540.5,-19.5 540.5,-0.5 424.5,-0.5"/>
<text text-anchor="middle" x="482.5" y="-7.5" font-family="Helvetica,sans-Serif" font-size="10.00">boost/filesystem.hpp</text>
</g>
<!-- Node12&#45;&gt;Node16 -->
<g id="edge16" class="edge"><title>Node12&#45;&gt;Node16</title>
<path fill="none" stroke="midnightblue" d="M398.567,-56.324C414.458,-47.7428 439.007,-34.486 457.458,-24.5224"/>
<polygon fill="midnightblue" stroke="midnightblue" points="459.337,-27.4857 466.473,-19.6545 456.011,-21.3264 459.337,-27.4857"/>
</g>
<!-- Node17 -->
<g id="node17" class="node"><title>Node17</title>
<polygon fill="none" stroke="#bfbfbf" points="558.5,-0.5 558.5,-19.5 608.5,-19.5 608.5,-0.5 558.5,-0.5"/>
<text text-anchor="middle" x="583.5" y="-7.5" font-family="Helvetica,sans-Serif" font-size="10.00">chrono</text>
</g>
<!-- Node12&#45;&gt;Node17 -->
<g id="edge18" class="edge"><title>Node12&#45;&gt;Node17</title>
<path fill="none" stroke="midnightblue" d="M414.349,-56.4435C450.876,-46.6303 510.58,-30.5905 548.414,-20.4261"/>
<polygon fill="midnightblue" stroke="midnightblue" points="549.718,-23.6998 558.468,-17.7251 547.902,-16.9396 549.718,-23.6998"/>
</g>
<!-- Node18 -->
<g id="node18" class="node"><title>Node18</title>
<polygon fill="none" stroke="#bfbfbf" points="147.5,-0.5 147.5,-19.5 197.5,-19.5 197.5,-0.5 147.5,-0.5"/>
<text text-anchor="middle" x="172.5" y="-7.5" font-family="Helvetica,sans-Serif" font-size="10.00">atomic</text>
</g>
<!-- Node12&#45;&gt;Node18 -->
<g id="edge19" class="edge"><title>Node12&#45;&gt;Node18</title>
<path fill="none" stroke="midnightblue" d="M348.738,-56.4578C315.299,-47.9775 262.372,-34.5016 207.622,-20.2771"/>
<polygon fill="midnightblue" stroke="midnightblue" points="208.304,-16.838 197.745,-17.7078 206.542,-23.6126 208.304,-16.838"/>
</g>
<!-- Node19&#45;&gt;Node10 -->
<g id="edge21" class="edge"><title>Node19&#45;&gt;Node10</title>
<path fill="none" stroke="midnightblue" d="M668.141,-56.4435C703.55,-47.1616 760.209,-32.3093 799.053,-22.127"/>
<polygon fill="midnightblue" stroke="midnightblue" points="800.226,-25.4378 809.011,-19.5164 798.451,-18.6666 800.226,-25.4378"/>
</g>
<!-- Node20 -->
<g id="node20" class="node"><title>Node20</title>
<polygon fill="none" stroke="#bfbfbf" points="626.5,-0.5 626.5,-19.5 784.5,-19.5 784.5,-0.5 626.5,-0.5"/>
<text text-anchor="middle" x="705.5" y="-7.5" font-family="Helvetica,sans-Serif" font-size="10.00">std_msgs/Float32MultiArray.h</text>
</g>
<!-- Node19&#45;&gt;Node20 -->
<g id="edge22" class="edge"><title>Node19&#45;&gt;Node20</title>
<path fill="none" stroke="midnightblue" d="M646.747,-56.324C657.297,-48.1849 673.301,-35.8395 685.942,-26.0874"/>
<polygon fill="midnightblue" stroke="midnightblue" points="688.269,-28.7132 694.049,-19.8339 683.993,-23.1707 688.269,-28.7132"/>
</g>
<!-- Node21&#45;&gt;Node10 -->
<g id="edge25" class="edge"><title>Node21&#45;&gt;Node10</title>
<path fill="none" stroke="midnightblue" d="M829.812,-56.083C831.667,-48.9272 834.335,-38.6353 836.654,-29.6911"/>
<polygon fill="midnightblue" stroke="midnightblue" points="840.109,-30.3094 839.231,-19.7511 833.334,-28.5527 840.109,-30.3094"/>
</g>
<!-- Node21&#45;&gt;Node11 -->
<g id="edge24" class="edge"><title>Node21&#45;&gt;Node11</title>
<path fill="none" stroke="midnightblue" d="M846.356,-56.4435C865.766,-47.6356 896.23,-33.8116 918.465,-23.722"/>
<polygon fill="midnightblue" stroke="midnightblue" points="920.072,-26.836 927.732,-19.5164 917.18,-20.4615 920.072,-26.836"/>
</g>
</g>
</svg>
