<?xml version="1.0" encoding="UTF-8" standalone="no"?>
<!DOCTYPE svg PUBLIC "-//W3C//DTD SVG 1.1//EN"
 "http://www.w3.org/Graphics/SVG/1.1/DTD/svg11.dtd">
<!-- Generated by graphviz version 2.38.0 (20140413.2041)
 -->
<!-- Title: /home/travis/build/ADVRHumanoids/ROSEndEffector/include/end_effector/YamlWorker.h Pages: 1 -->
<svg width="883pt" height="373pt"
 viewBox="0.00 0.00 882.69 373.00" xmlns="http://www.w3.org/2000/svg" xmlns:xlink="http://www.w3.org/1999/xlink">
<g id="graph0" class="graph" transform="scale(1 1) rotate(0) translate(4 369)">
<title>/home/travis/build/ADVRHumanoids/ROSEndEffector/include/end_effector/YamlWorker.h</title>
<!-- Node1 -->
<g id="node1" class="node"><title>Node1</title>
<polygon fill="#bfbfbf" stroke="black" points="229.19,-323.5 229.19,-364.5 414.19,-364.5 414.19,-323.5 229.19,-323.5"/>
<text text-anchor="start" x="237.19" y="-352.5" font-family="Helvetica,sans-Serif" font-size="10.00">/home/travis/build</text>
<text text-anchor="start" x="237.19" y="-341.5" font-family="Helvetica,sans-Serif" font-size="10.00">/ADVRHumanoids/ROSEndEffector</text>
<text text-anchor="middle" x="321.69" y="-330.5" font-family="Helvetica,sans-Serif" font-size="10.00">/include/end_effector/YamlWorker.h</text>
</g>
<!-- Node2 -->
<g id="node2" class="node"><title>Node2</title>
<g id="a_node2"><a xlink:href="FindActions_8h.html" target="_top" xlink:title="/home/travis/build\l/ADVRHumanoids/ROSEndEffector\l/include/end_effector/FindActions.h">
<polygon fill="none" stroke="black" points="121.19,-245.5 121.19,-286.5 304.19,-286.5 304.19,-245.5 121.19,-245.5"/>
<text text-anchor="start" x="129.19" y="-274.5" font-family="Helvetica,sans-Serif" font-size="10.00">/home/travis/build</text>
<text text-anchor="start" x="129.19" y="-263.5" font-family="Helvetica,sans-Serif" font-size="10.00">/ADVRHumanoids/ROSEndEffector</text>
<text text-anchor="middle" x="212.69" y="-252.5" font-family="Helvetica,sans-Serif" font-size="10.00">/include/end_effector/FindActions.h</text>
</a>
</g>
</g>
<!-- Node1&#45;&gt;Node2 -->
<g id="edge1" class="edge"><title>Node1&#45;&gt;Node2</title>
<path fill="none" stroke="midnightblue" d="M285.312,-317.635C270.757,-307.487 254.256,-295.982 240.666,-286.506"/>
<polygon fill="midnightblue" stroke="midnightblue" points="283.416,-320.58 293.62,-323.428 287.419,-314.838 283.416,-320.58"/>
</g>
<!-- Node5 -->
<g id="node5" class="node"><title>Node5</title>
<g id="a_node5"><a xlink:href="MapActionHandler_8h.html" target="_top" xlink:title="/home/travis/build\l/ADVRHumanoids/ROSEndEffector\l/include/end_effector/MapActionHandler.h">
<polygon fill="none" stroke="black" points="322.69,-245.5 322.69,-286.5 538.69,-286.5 538.69,-245.5 322.69,-245.5"/>
<text text-anchor="start" x="330.69" y="-274.5" font-family="Helvetica,sans-Serif" font-size="10.00">/home/travis/build</text>
<text text-anchor="start" x="330.69" y="-263.5" font-family="Helvetica,sans-Serif" font-size="10.00">/ADVRHumanoids/ROSEndEffector</text>
<text text-anchor="middle" x="430.69" y="-252.5" font-family="Helvetica,sans-Serif" font-size="10.00">/include/end_effector/MapActionHandler.h</text>
</a>
</g>
</g>
<!-- Node1&#45;&gt;Node5 -->
<g id="edge4" class="edge"><title>Node1&#45;&gt;Node5</title>
<path fill="none" stroke="midnightblue" d="M358.069,-317.635C372.624,-307.487 389.125,-295.982 402.715,-286.506"/>
<polygon fill="midnightblue" stroke="midnightblue" points="355.962,-314.838 349.761,-323.428 359.965,-320.58 355.962,-314.838"/>
</g>
<!-- Node7 -->
<g id="node7" class="node"><title>Node7</title>
<g id="a_node7"><a xlink:href="UniversalRosEndEffectorExecutor_8h.html" target="_top" xlink:title="/home/travis/build\l/ADVRHumanoids/ROSEndEffector\l/include/end_effector/UniversalRos\lEndEffectorExecutor.h">
<polygon fill="none" stroke="black" points="340.19,-78.5 340.19,-130.5 521.19,-130.5 521.19,-78.5 340.19,-78.5"/>
<text text-anchor="start" x="348.19" y="-118.5" font-family="Helvetica,sans-Serif" font-size="10.00">/home/travis/build</text>
<text text-anchor="start" x="348.19" y="-107.5" font-family="Helvetica,sans-Serif" font-size="10.00">/ADVRHumanoids/ROSEndEffector</text>
<text text-anchor="start" x="348.19" y="-96.5" font-family="Helvetica,sans-Serif" font-size="10.00">/include/end_effector/UniversalRos</text>
<text text-anchor="middle" x="430.69" y="-85.5" font-family="Helvetica,sans-Serif" font-size="10.00">EndEffectorExecutor.h</text>
</a>
</g>
</g>
<!-- Node1&#45;&gt;Node7 -->
<g id="edge13" class="edge"><title>Node1&#45;&gt;Node7</title>
<path fill="none" stroke="midnightblue" d="M219.147,-323.535C106.115,-297.666 -51.2998,-245.836 16.6905,-167 57.5621,-119.608 230.863,-108.149 339.878,-105.723"/>
<polygon fill="midnightblue" stroke="midnightblue" points="218.386,-326.951 228.91,-325.731 219.922,-320.122 218.386,-326.951"/>
</g>
<!-- Node12 -->
<g id="node12" class="node"><title>Node12</title>
<g id="a_node12"><a xlink:href="YamlWorker_8cpp.html" target="_top" xlink:title="/home/travis/build\l/ADVRHumanoids/ROSEndEffector\l/src/YamlWorker.cpp">
<polygon fill="none" stroke="black" points="557.19,-245.5 557.19,-286.5 736.19,-286.5 736.19,-245.5 557.19,-245.5"/>
<text text-anchor="start" x="565.19" y="-274.5" font-family="Helvetica,sans-Serif" font-size="10.00">/home/travis/build</text>
<text text-anchor="start" x="565.19" y="-263.5" font-family="Helvetica,sans-Serif" font-size="10.00">/ADVRHumanoids/ROSEndEffector</text>
<text text-anchor="middle" x="646.69" y="-252.5" font-family="Helvetica,sans-Serif" font-size="10.00">/src/YamlWorker.cpp</text>
</a>
</g>
</g>
<!-- Node1&#45;&gt;Node12 -->
<g id="edge14" class="edge"><title>Node1&#45;&gt;Node12</title>
<path fill="none" stroke="midnightblue" d="M415.209,-321.131C461.942,-310.203 518.022,-297.089 563.279,-286.506"/>
<polygon fill="midnightblue" stroke="midnightblue" points="414.326,-317.743 405.386,-323.428 415.92,-324.559 414.326,-317.743"/>
</g>
<!-- Node3 -->
<g id="node3" class="node"><title>Node3</title>
<g id="a_node3"><a xlink:href="FindActions_8cpp.html" target="_top" xlink:title="/home/travis/build\l/ADVRHumanoids/ROSEndEffector\l/src/FindActions.cpp">
<polygon fill="none" stroke="black" points="26.1905,-167.5 26.1905,-208.5 205.19,-208.5 205.19,-167.5 26.1905,-167.5"/>
<text text-anchor="start" x="34.1905" y="-196.5" font-family="Helvetica,sans-Serif" font-size="10.00">/home/travis/build</text>
<text text-anchor="start" x="34.1905" y="-185.5" font-family="Helvetica,sans-Serif" font-size="10.00">/ADVRHumanoids/ROSEndEffector</text>
<text text-anchor="middle" x="115.69" y="-174.5" font-family="Helvetica,sans-Serif" font-size="10.00">/src/FindActions.cpp</text>
</a>
</g>
</g>
<!-- Node2&#45;&gt;Node3 -->
<g id="edge2" class="edge"><title>Node2&#45;&gt;Node3</title>
<path fill="none" stroke="midnightblue" d="M179.589,-239.065C166.816,-229.057 152.454,-217.804 140.586,-208.506"/>
<polygon fill="midnightblue" stroke="midnightblue" points="177.68,-242.016 187.711,-245.428 181.998,-236.506 177.68,-242.016"/>
</g>
<!-- Node4 -->
<g id="node4" class="node"><title>Node4</title>
<g id="a_node4"><a xlink:href="UniversalFindActions_8cpp.html" target="_top" xlink:title="/home/travis/build\l/ADVRHumanoids/ROSEndEffector\l/src/UniversalFindActions.cpp">
<polygon fill="none" stroke="black" points="223.19,-167.5 223.19,-208.5 402.19,-208.5 402.19,-167.5 223.19,-167.5"/>
<text text-anchor="start" x="231.19" y="-196.5" font-family="Helvetica,sans-Serif" font-size="10.00">/home/travis/build</text>
<text text-anchor="start" x="231.19" y="-185.5" font-family="Helvetica,sans-Serif" font-size="10.00">/ADVRHumanoids/ROSEndEffector</text>
<text text-anchor="middle" x="312.69" y="-174.5" font-family="Helvetica,sans-Serif" font-size="10.00">/src/UniversalFindActions.cpp</text>
</a>
</g>
</g>
<!-- Node2&#45;&gt;Node4 -->
<g id="edge3" class="edge"><title>Node2&#45;&gt;Node4</title>
<path fill="none" stroke="midnightblue" d="M246.44,-239.35C259.701,-229.272 274.673,-217.893 287.025,-208.506"/>
<polygon fill="midnightblue" stroke="midnightblue" points="244.287,-236.591 238.443,-245.428 248.522,-242.164 244.287,-236.591"/>
</g>
<!-- Node5&#45;&gt;Node4 -->
<g id="edge12" class="edge"><title>Node5&#45;&gt;Node4</title>
<path fill="none" stroke="midnightblue" d="M391.75,-239.919C375.886,-229.702 357.826,-218.07 342.975,-208.506"/>
<polygon fill="midnightblue" stroke="midnightblue" points="390,-242.956 400.303,-245.428 393.791,-237.071 390,-242.956"/>
</g>
<!-- Node6 -->
<g id="node6" class="node"><title>Node6</title>
<g id="a_node6"><a xlink:href="RosServiceHandler_8h.html" target="_top" xlink:title="/home/travis/build\l/ADVRHumanoids/ROSEndEffector\l/include/end_effector/RosServiceHandler.h">
<polygon fill="none" stroke="black" points="656.69,-167.5 656.69,-208.5 874.69,-208.5 874.69,-167.5 656.69,-167.5"/>
<text text-anchor="start" x="664.69" y="-196.5" font-family="Helvetica,sans-Serif" font-size="10.00">/home/travis/build</text>
<text text-anchor="start" x="664.69" y="-185.5" font-family="Helvetica,sans-Serif" font-size="10.00">/ADVRHumanoids/ROSEndEffector</text>
<text text-anchor="middle" x="765.69" y="-174.5" font-family="Helvetica,sans-Serif" font-size="10.00">/include/end_effector/RosServiceHandler.h</text>
</a>
</g>
</g>
<!-- Node5&#45;&gt;Node6 -->
<g id="edge5" class="edge"><title>Node5&#45;&gt;Node6</title>
<path fill="none" stroke="midnightblue" d="M526.785,-243.2C575.016,-232.258 632.966,-219.111 679.712,-208.506"/>
<polygon fill="midnightblue" stroke="midnightblue" points="525.939,-239.802 516.961,-245.428 527.488,-246.629 525.939,-239.802"/>
</g>
<!-- Node5&#45;&gt;Node7 -->
<g id="edge10" class="edge"><title>Node5&#45;&gt;Node7</title>
<path fill="none" stroke="midnightblue" d="M430.69,-235.13C430.69,-205.026 430.69,-159.079 430.69,-130.74"/>
<polygon fill="midnightblue" stroke="midnightblue" points="427.191,-235.442 430.69,-245.442 434.191,-235.442 427.191,-235.442"/>
</g>
<!-- Node11 -->
<g id="node11" class="node"><title>Node11</title>
<g id="a_node11"><a xlink:href="MapActionHandler_8cpp.html" target="_top" xlink:title="/home/travis/build\l/ADVRHumanoids/ROSEndEffector\l/src/MapActionHandler.cpp">
<polygon fill="none" stroke="black" points="459.19,-167.5 459.19,-208.5 638.19,-208.5 638.19,-167.5 459.19,-167.5"/>
<text text-anchor="start" x="467.19" y="-196.5" font-family="Helvetica,sans-Serif" font-size="10.00">/home/travis/build</text>
<text text-anchor="start" x="467.19" y="-185.5" font-family="Helvetica,sans-Serif" font-size="10.00">/ADVRHumanoids/ROSEndEffector</text>
<text text-anchor="middle" x="548.69" y="-174.5" font-family="Helvetica,sans-Serif" font-size="10.00">/src/MapActionHandler.cpp</text>
</a>
</g>
</g>
<!-- Node5&#45;&gt;Node11 -->
<g id="edge11" class="edge"><title>Node5&#45;&gt;Node11</title>
<path fill="none" stroke="midnightblue" d="M469.631,-239.919C485.495,-229.702 503.555,-218.07 518.406,-208.506"/>
<polygon fill="midnightblue" stroke="midnightblue" points="467.59,-237.071 461.078,-245.428 471.381,-242.956 467.59,-237.071"/>
</g>
<!-- Node6&#45;&gt;Node7 -->
<g id="edge6" class="edge"><title>Node6&#45;&gt;Node7</title>
<path fill="none" stroke="midnightblue" d="M675.718,-165.111C627.854,-153.467 569.152,-139.185 521.206,-127.521"/>
<polygon fill="midnightblue" stroke="midnightblue" points="674.906,-168.516 685.45,-167.479 676.56,-161.714 674.906,-168.516"/>
</g>
<!-- Node10 -->
<g id="node10" class="node"><title>Node10</title>
<g id="a_node10"><a xlink:href="RosServiceHandler_8cpp.html" target="_top" xlink:title="/home/travis/build\l/ADVRHumanoids/ROSEndEffector\l/src/RosServiceHandler.cpp">
<polygon fill="none" stroke="black" points="676.19,-84 676.19,-125 855.19,-125 855.19,-84 676.19,-84"/>
<text text-anchor="start" x="684.19" y="-113" font-family="Helvetica,sans-Serif" font-size="10.00">/home/travis/build</text>
<text text-anchor="start" x="684.19" y="-102" font-family="Helvetica,sans-Serif" font-size="10.00">/ADVRHumanoids/ROSEndEffector</text>
<text text-anchor="middle" x="765.69" y="-91" font-family="Helvetica,sans-Serif" font-size="10.00">/src/RosServiceHandler.cpp</text>
</a>
</g>
</g>
<!-- Node6&#45;&gt;Node10 -->
<g id="edge9" class="edge"><title>Node6&#45;&gt;Node10</title>
<path fill="none" stroke="midnightblue" d="M765.69,-157.065C765.69,-146.382 765.69,-134.63 765.69,-125.047"/>
<polygon fill="midnightblue" stroke="midnightblue" points="762.191,-157.271 765.69,-167.271 769.191,-157.271 762.191,-157.271"/>
</g>
<!-- Node8 -->
<g id="node8" class="node"><title>Node8</title>
<g id="a_node8"><a xlink:href="UniversalRosEndEffector_8cpp.html" target="_top" xlink:title="/home/travis/build\l/ADVRHumanoids/ROSEndEffector\l/src/UniversalRosEndEffector.cpp">
<polygon fill="none" stroke="black" points="234.19,-0.5 234.19,-41.5 413.19,-41.5 413.19,-0.5 234.19,-0.5"/>
<text text-anchor="start" x="242.19" y="-29.5" font-family="Helvetica,sans-Serif" font-size="10.00">/home/travis/build</text>
<text text-anchor="start" x="242.19" y="-18.5" font-family="Helvetica,sans-Serif" font-size="10.00">/ADVRHumanoids/ROSEndEffector</text>
<text text-anchor="middle" x="323.69" y="-7.5" font-family="Helvetica,sans-Serif" font-size="10.00">/src/UniversalRosEndEffector.cpp</text>
</a>
</g>
</g>
<!-- Node7&#45;&gt;Node8 -->
<g id="edge7" class="edge"><title>Node7&#45;&gt;Node8</title>
<path fill="none" stroke="midnightblue" d="M389.528,-72.1475C376.102,-61.921 361.579,-50.8594 349.599,-41.7338"/>
<polygon fill="midnightblue" stroke="midnightblue" points="387.638,-75.1073 397.714,-78.3823 391.879,-69.5386 387.638,-75.1073"/>
</g>
<!-- Node9 -->
<g id="node9" class="node"><title>Node9</title>
<g id="a_node9"><a xlink:href="UniversalRosEndEffectorExecutor_8cpp.html" target="_top" xlink:title="/home/travis/build\l/ADVRHumanoids/ROSEndEffector\l/src/UniversalRosEndEffectorExecutor.cpp">
<polygon fill="none" stroke="black" points="431.19,-0.5 431.19,-41.5 646.19,-41.5 646.19,-0.5 431.19,-0.5"/>
<text text-anchor="start" x="439.19" y="-29.5" font-family="Helvetica,sans-Serif" font-size="10.00">/home/travis/build</text>
<text text-anchor="start" x="439.19" y="-18.5" font-family="Helvetica,sans-Serif" font-size="10.00">/ADVRHumanoids/ROSEndEffector</text>
<text text-anchor="middle" x="538.69" y="-7.5" font-family="Helvetica,sans-Serif" font-size="10.00">/src/UniversalRosEndEffectorExecutor.cpp</text>
</a>
</g>
</g>
<!-- Node7&#45;&gt;Node9 -->
<g id="edge8" class="edge"><title>Node7&#45;&gt;Node9</title>
<path fill="none" stroke="midnightblue" d="M472.237,-72.1475C485.789,-61.921 500.447,-50.8594 512.54,-41.7338"/>
<polygon fill="midnightblue" stroke="midnightblue" points="469.849,-69.5648 463.975,-78.3823 474.066,-75.1524 469.849,-69.5648"/>
</g>
</g>
</svg>
