<?xml version="1.0" encoding="UTF-8" standalone="no"?>
<!DOCTYPE svg PUBLIC "-//W3C//DTD SVG 1.1//EN"
 "http://www.w3.org/Graphics/SVG/1.1/DTD/svg11.dtd">
<!-- Generated by graphviz version 2.38.0 (20140413.2041)
 -->
<!-- Title: /home/travis/build/ADVRHumanoids/ROSEndEffector/include/ros_end_effector/YamlWorker.h Pages: 1 -->
<svg width="845pt" height="406pt"
 viewBox="0.00 0.00 844.63 406.00" xmlns="http://www.w3.org/2000/svg" xmlns:xlink="http://www.w3.org/1999/xlink">
<g id="graph0" class="graph" transform="scale(1 1) rotate(0) translate(4 402)">
<title>/home/travis/build/ADVRHumanoids/ROSEndEffector/include/ros_end_effector/YamlWorker.h</title>
<!-- Node1 -->
<g id="node1" class="node"><title>Node1</title>
<polygon fill="#bfbfbf" stroke="black" points="243.625,-345.5 243.625,-397.5 422.625,-397.5 422.625,-345.5 243.625,-345.5"/>
<text text-anchor="start" x="251.625" y="-385.5" font-family="Helvetica,sans-Serif" font-size="10.00">/home/travis/build</text>
<text text-anchor="start" x="251.625" y="-374.5" font-family="Helvetica,sans-Serif" font-size="10.00">/ADVRHumanoids/ROSEndEffector</text>
<text text-anchor="start" x="251.625" y="-363.5" font-family="Helvetica,sans-Serif" font-size="10.00">/include/ros_end_effector</text>
<text text-anchor="middle" x="333.125" y="-352.5" font-family="Helvetica,sans-Serif" font-size="10.00">/YamlWorker.h</text>
</g>
<!-- Node2 -->
<g id="node2" class="node"><title>Node2</title>
<g id="a_node2"><a xlink:href="FindActions_8h.html" target="_top" xlink:title="/home/travis/build\l/ADVRHumanoids/ROSEndEffector\l/include/ros_end_effector\l/FindActions.h">
<polygon fill="none" stroke="black" points="145.625,-256.5 145.625,-308.5 324.625,-308.5 324.625,-256.5 145.625,-256.5"/>
<text text-anchor="start" x="153.625" y="-296.5" font-family="Helvetica,sans-Serif" font-size="10.00">/home/travis/build</text>
<text text-anchor="start" x="153.625" y="-285.5" font-family="Helvetica,sans-Serif" font-size="10.00">/ADVRHumanoids/ROSEndEffector</text>
<text text-anchor="start" x="153.625" y="-274.5" font-family="Helvetica,sans-Serif" font-size="10.00">/include/ros_end_effector</text>
<text text-anchor="middle" x="235.125" y="-263.5" font-family="Helvetica,sans-Serif" font-size="10.00">/FindActions.h</text>
</a>
</g>
</g>
<!-- Node1&#45;&gt;Node2 -->
<g id="edge1" class="edge"><title>Node1&#45;&gt;Node2</title>
<path fill="none" stroke="midnightblue" d="M297.247,-338.649C286.095,-328.749 273.965,-317.98 263.407,-308.607"/>
<polygon fill="midnightblue" stroke="midnightblue" points="294.977,-341.314 304.779,-345.336 299.625,-336.08 294.977,-341.314"/>
</g>
<!-- Node5 -->
<g id="node5" class="node"><title>Node5</title>
<g id="a_node5"><a xlink:href="MapActionHandler_8h.html" target="_top" xlink:title="/home/travis/build\l/ADVRHumanoids/ROSEndEffector\l/include/ros_end_effector\l/MapActionHandler.h">
<polygon fill="none" stroke="black" points="342.625,-256.5 342.625,-308.5 521.625,-308.5 521.625,-256.5 342.625,-256.5"/>
<text text-anchor="start" x="350.625" y="-296.5" font-family="Helvetica,sans-Serif" font-size="10.00">/home/travis/build</text>
<text text-anchor="start" x="350.625" y="-285.5" font-family="Helvetica,sans-Serif" font-size="10.00">/ADVRHumanoids/ROSEndEffector</text>
<text text-anchor="start" x="350.625" y="-274.5" font-family="Helvetica,sans-Serif" font-size="10.00">/include/ros_end_effector</text>
<text text-anchor="middle" x="432.125" y="-263.5" font-family="Helvetica,sans-Serif" font-size="10.00">/MapActionHandler.h</text>
</a>
</g>
</g>
<!-- Node1&#45;&gt;Node5 -->
<g id="edge4" class="edge"><title>Node1&#45;&gt;Node5</title>
<path fill="none" stroke="midnightblue" d="M369.369,-338.649C380.635,-328.749 392.889,-317.98 403.554,-308.607"/>
<polygon fill="midnightblue" stroke="midnightblue" points="366.961,-336.106 361.76,-345.336 371.582,-341.364 366.961,-336.106"/>
</g>
<!-- Node7 -->
<g id="node7" class="node"><title>Node7</title>
<g id="a_node7"><a xlink:href="UniversalRosEndEffectorExecutor_8h.html" target="_top" xlink:title="/home/travis/build\l/ADVRHumanoids/ROSEndEffector\l/include/ros_end_effector\l/UniversalRosEndEffectorExecutor.h">
<polygon fill="none" stroke="black" points="338.625,-78.5 338.625,-130.5 525.625,-130.5 525.625,-78.5 338.625,-78.5"/>
<text text-anchor="start" x="346.625" y="-118.5" font-family="Helvetica,sans-Serif" font-size="10.00">/home/travis/build</text>
<text text-anchor="start" x="346.625" y="-107.5" font-family="Helvetica,sans-Serif" font-size="10.00">/ADVRHumanoids/ROSEndEffector</text>
<text text-anchor="start" x="346.625" y="-96.5" font-family="Helvetica,sans-Serif" font-size="10.00">/include/ros_end_effector</text>
<text text-anchor="middle" x="432.125" y="-85.5" font-family="Helvetica,sans-Serif" font-size="10.00">/UniversalRosEndEffectorExecutor.h</text>
</a>
</g>
</g>
<!-- Node1&#45;&gt;Node7 -->
<g id="edge13" class="edge"><title>Node1&#45;&gt;Node7</title>
<path fill="none" stroke="midnightblue" d="M233.819,-347.569C115.977,-315.871 -55.8029,-252.721 18.125,-167 58.6407,-120.021 229.289,-108.351 338.45,-105.789"/>
<polygon fill="midnightblue" stroke="midnightblue" points="233.06,-350.989 243.623,-350.168 234.854,-344.222 233.06,-350.989"/>
</g>
<!-- Node12 -->
<g id="node12" class="node"><title>Node12</title>
<g id="a_node12"><a xlink:href="YamlWorker_8cpp.html" target="_top" xlink:title="/home/travis/build\l/ADVRHumanoids/ROSEndEffector\l/src/YamlWorker.cpp">
<polygon fill="none" stroke="black" points="539.625,-262 539.625,-303 718.625,-303 718.625,-262 539.625,-262"/>
<text text-anchor="start" x="547.625" y="-291" font-family="Helvetica,sans-Serif" font-size="10.00">/home/travis/build</text>
<text text-anchor="start" x="547.625" y="-280" font-family="Helvetica,sans-Serif" font-size="10.00">/ADVRHumanoids/ROSEndEffector</text>
<text text-anchor="middle" x="629.125" y="-269" font-family="Helvetica,sans-Serif" font-size="10.00">/src/YamlWorker.cpp</text>
</a>
</g>
</g>
<!-- Node1&#45;&gt;Node12 -->
<g id="edge14" class="edge"><title>Node1&#45;&gt;Node12</title>
<path fill="none" stroke="midnightblue" d="M428.136,-342.574C471.87,-329.72 522.716,-314.775 562.325,-303.134"/>
<polygon fill="midnightblue" stroke="midnightblue" points="426.951,-339.275 418.343,-345.453 428.925,-345.991 426.951,-339.275"/>
</g>
<!-- Node3 -->
<g id="node3" class="node"><title>Node3</title>
<g id="a_node3"><a xlink:href="FindActions_8cpp.html" target="_top" xlink:title="/home/travis/build\l/ADVRHumanoids/ROSEndEffector\l/src/FindActions.cpp">
<polygon fill="none" stroke="black" points="27.625,-173 27.625,-214 206.625,-214 206.625,-173 27.625,-173"/>
<text text-anchor="start" x="35.625" y="-202" font-family="Helvetica,sans-Serif" font-size="10.00">/home/travis/build</text>
<text text-anchor="start" x="35.625" y="-191" font-family="Helvetica,sans-Serif" font-size="10.00">/ADVRHumanoids/ROSEndEffector</text>
<text text-anchor="middle" x="117.125" y="-180" font-family="Helvetica,sans-Serif" font-size="10.00">/src/FindActions.cpp</text>
</a>
</g>
</g>
<!-- Node2&#45;&gt;Node3 -->
<g id="edge2" class="edge"><title>Node2&#45;&gt;Node3</title>
<path fill="none" stroke="midnightblue" d="M192.644,-250.179C176.299,-238.128 158.114,-224.72 143.685,-214.082"/>
<polygon fill="midnightblue" stroke="midnightblue" points="190.869,-253.219 200.995,-256.336 195.023,-247.585 190.869,-253.219"/>
</g>
<!-- Node4 -->
<g id="node4" class="node"><title>Node4</title>
<g id="a_node4"><a xlink:href="UniversalFindActions_8cpp.html" target="_top" xlink:title="/home/travis/build\l/ADVRHumanoids/ROSEndEffector\l/src/UniversalFindActions.cpp">
<polygon fill="none" stroke="black" points="224.625,-173 224.625,-214 403.625,-214 403.625,-173 224.625,-173"/>
<text text-anchor="start" x="232.625" y="-202" font-family="Helvetica,sans-Serif" font-size="10.00">/home/travis/build</text>
<text text-anchor="start" x="232.625" y="-191" font-family="Helvetica,sans-Serif" font-size="10.00">/ADVRHumanoids/ROSEndEffector</text>
<text text-anchor="middle" x="314.125" y="-180" font-family="Helvetica,sans-Serif" font-size="10.00">/src/UniversalFindActions.cpp</text>
</a>
</g>
</g>
<!-- Node2&#45;&gt;Node4 -->
<g id="edge3" class="edge"><title>Node2&#45;&gt;Node4</title>
<path fill="none" stroke="midnightblue" d="M264.775,-248.847C275.399,-237.148 287.038,-224.33 296.344,-214.082"/>
<polygon fill="midnightblue" stroke="midnightblue" points="262.106,-246.58 257.975,-256.336 267.289,-251.286 262.106,-246.58"/>
</g>
<!-- Node5&#45;&gt;Node4 -->
<g id="edge12" class="edge"><title>Node5&#45;&gt;Node4</title>
<path fill="none" stroke="midnightblue" d="M389.644,-250.179C373.299,-238.128 355.114,-224.72 340.685,-214.082"/>
<polygon fill="midnightblue" stroke="midnightblue" points="387.869,-253.219 397.995,-256.336 392.023,-247.585 387.869,-253.219"/>
</g>
<!-- Node6 -->
<g id="node6" class="node"><title>Node6</title>
<g id="a_node6"><a xlink:href="RosServiceHandler_8h.html" target="_top" xlink:title="/home/travis/build\l/ADVRHumanoids/ROSEndEffector\l/include/ros_end_effector\l/RosServiceHandler.h">
<polygon fill="none" stroke="black" points="657.625,-167.5 657.625,-219.5 836.625,-219.5 836.625,-167.5 657.625,-167.5"/>
<text text-anchor="start" x="665.625" y="-207.5" font-family="Helvetica,sans-Serif" font-size="10.00">/home/travis/build</text>
<text text-anchor="start" x="665.625" y="-196.5" font-family="Helvetica,sans-Serif" font-size="10.00">/ADVRHumanoids/ROSEndEffector</text>
<text text-anchor="start" x="665.625" y="-185.5" font-family="Helvetica,sans-Serif" font-size="10.00">/include/ros_end_effector</text>
<text text-anchor="middle" x="747.125" y="-174.5" font-family="Helvetica,sans-Serif" font-size="10.00">/RosServiceHandler.h</text>
</a>
</g>
</g>
<!-- Node5&#45;&gt;Node6 -->
<g id="edge5" class="edge"><title>Node5&#45;&gt;Node6</title>
<path fill="none" stroke="midnightblue" d="M531.807,-253.969C572.087,-242.844 618.225,-230.101 657.434,-219.272"/>
<polygon fill="midnightblue" stroke="midnightblue" points="530.677,-250.65 521.97,-256.686 532.541,-257.397 530.677,-250.65"/>
</g>
<!-- Node5&#45;&gt;Node7 -->
<g id="edge10" class="edge"><title>Node5&#45;&gt;Node7</title>
<path fill="none" stroke="midnightblue" d="M432.125,-246.249C432.125,-212.038 432.125,-160.969 432.125,-130.67"/>
<polygon fill="midnightblue" stroke="midnightblue" points="428.625,-246.283 432.125,-256.283 435.625,-246.284 428.625,-246.283"/>
</g>
<!-- Node11 -->
<g id="node11" class="node"><title>Node11</title>
<g id="a_node11"><a xlink:href="MapActionHandler_8cpp.html" target="_top" xlink:title="/home/travis/build\l/ADVRHumanoids/ROSEndEffector\l/src/MapActionHandler.cpp">
<polygon fill="none" stroke="black" points="460.625,-173 460.625,-214 639.625,-214 639.625,-173 460.625,-173"/>
<text text-anchor="start" x="468.625" y="-202" font-family="Helvetica,sans-Serif" font-size="10.00">/home/travis/build</text>
<text text-anchor="start" x="468.625" y="-191" font-family="Helvetica,sans-Serif" font-size="10.00">/ADVRHumanoids/ROSEndEffector</text>
<text text-anchor="middle" x="550.125" y="-180" font-family="Helvetica,sans-Serif" font-size="10.00">/src/MapActionHandler.cpp</text>
</a>
</g>
</g>
<!-- Node5&#45;&gt;Node11 -->
<g id="edge11" class="edge"><title>Node5&#45;&gt;Node11</title>
<path fill="none" stroke="midnightblue" d="M474.606,-250.179C490.951,-238.128 509.136,-224.72 523.565,-214.082"/>
<polygon fill="midnightblue" stroke="midnightblue" points="472.227,-247.585 466.255,-256.336 476.381,-253.219 472.227,-247.585"/>
</g>
<!-- Node6&#45;&gt;Node7 -->
<g id="edge6" class="edge"><title>Node6&#45;&gt;Node7</title>
<path fill="none" stroke="midnightblue" d="M647.529,-164.992C607.602,-153.965 561.908,-141.345 522.909,-130.574"/>
<polygon fill="midnightblue" stroke="midnightblue" points="646.709,-168.397 657.28,-167.686 648.573,-161.65 646.709,-168.397"/>
</g>
<!-- Node10 -->
<g id="node10" class="node"><title>Node10</title>
<g id="a_node10"><a xlink:href="RosServiceHandler_8cpp.html" target="_top" xlink:title="/home/travis/build\l/ADVRHumanoids/ROSEndEffector\l/src/RosServiceHandler.cpp">
<polygon fill="none" stroke="black" points="657.625,-84 657.625,-125 836.625,-125 836.625,-84 657.625,-84"/>
<text text-anchor="start" x="665.625" y="-113" font-family="Helvetica,sans-Serif" font-size="10.00">/home/travis/build</text>
<text text-anchor="start" x="665.625" y="-102" font-family="Helvetica,sans-Serif" font-size="10.00">/ADVRHumanoids/ROSEndEffector</text>
<text text-anchor="middle" x="747.125" y="-91" font-family="Helvetica,sans-Serif" font-size="10.00">/src/RosServiceHandler.cpp</text>
</a>
</g>
</g>
<!-- Node6&#45;&gt;Node10 -->
<g id="edge9" class="edge"><title>Node6&#45;&gt;Node10</title>
<path fill="none" stroke="midnightblue" d="M747.125,-157.155C747.125,-146.21 747.125,-134.549 747.125,-125.082"/>
<polygon fill="midnightblue" stroke="midnightblue" points="743.625,-157.336 747.125,-167.336 750.625,-157.336 743.625,-157.336"/>
</g>
<!-- Node8 -->
<g id="node8" class="node"><title>Node8</title>
<g id="a_node8"><a xlink:href="UniversalRosEndEffector_8cpp.html" target="_top" xlink:title="/home/travis/build\l/ADVRHumanoids/ROSEndEffector\l/src/UniversalRosEndEffector.cpp">
<polygon fill="none" stroke="black" points="235.625,-0.5 235.625,-41.5 414.625,-41.5 414.625,-0.5 235.625,-0.5"/>
<text text-anchor="start" x="243.625" y="-29.5" font-family="Helvetica,sans-Serif" font-size="10.00">/home/travis/build</text>
<text text-anchor="start" x="243.625" y="-18.5" font-family="Helvetica,sans-Serif" font-size="10.00">/ADVRHumanoids/ROSEndEffector</text>
<text text-anchor="middle" x="325.125" y="-7.5" font-family="Helvetica,sans-Serif" font-size="10.00">/src/UniversalRosEndEffector.cpp</text>
</a>
</g>
</g>
<!-- Node7&#45;&gt;Node8 -->
<g id="edge7" class="edge"><title>Node7&#45;&gt;Node8</title>
<path fill="none" stroke="midnightblue" d="M390.963,-72.1475C377.537,-61.921 363.014,-50.8594 351.033,-41.7338"/>
<polygon fill="midnightblue" stroke="midnightblue" points="389.072,-75.1073 399.148,-78.3823 393.314,-69.5386 389.072,-75.1073"/>
</g>
<!-- Node9 -->
<g id="node9" class="node"><title>Node9</title>
<g id="a_node9"><a xlink:href="UniversalRosEndEffectorExecutor_8cpp.html" target="_top" xlink:title="/home/travis/build\l/ADVRHumanoids/ROSEndEffector\l/src/UniversalRosEndEffectorExecutor.cpp">
<polygon fill="none" stroke="black" points="432.625,-0.5 432.625,-41.5 647.625,-41.5 647.625,-0.5 432.625,-0.5"/>
<text text-anchor="start" x="440.625" y="-29.5" font-family="Helvetica,sans-Serif" font-size="10.00">/home/travis/build</text>
<text text-anchor="start" x="440.625" y="-18.5" font-family="Helvetica,sans-Serif" font-size="10.00">/ADVRHumanoids/ROSEndEffector</text>
<text text-anchor="middle" x="540.125" y="-7.5" font-family="Helvetica,sans-Serif" font-size="10.00">/src/UniversalRosEndEffectorExecutor.cpp</text>
</a>
</g>
</g>
<!-- Node7&#45;&gt;Node9 -->
<g id="edge8" class="edge"><title>Node7&#45;&gt;Node9</title>
<path fill="none" stroke="midnightblue" d="M473.672,-72.1475C487.224,-61.921 501.882,-50.8594 513.975,-41.7338"/>
<polygon fill="midnightblue" stroke="midnightblue" points="471.284,-69.5648 465.41,-78.3823 475.5,-75.1524 471.284,-69.5648"/>
</g>
</g>
</svg>
