<?xml version="1.0" encoding="UTF-8" standalone="no"?>
<!DOCTYPE svg PUBLIC "-//W3C//DTD SVG 1.1//EN"
 "http://www.w3.org/Graphics/SVG/1.1/DTD/svg11.dtd">
<!-- Generated by graphviz version 2.38.0 (20140413.2041)
 -->
<!-- Title: /home/travis/build/ADVRHumanoids/ROSEndEffector/include/end_effector/YamlWorker.h Pages: 1 -->
<svg width="1579pt" height="430pt"
 viewBox="0.00 0.00 1579.00 430.00" xmlns="http://www.w3.org/2000/svg" xmlns:xlink="http://www.w3.org/1999/xlink">
<g id="graph0" class="graph" transform="scale(1 1) rotate(0) translate(4 426)">
<title>/home/travis/build/ADVRHumanoids/ROSEndEffector/include/end_effector/YamlWorker.h</title>
<!-- Node1 -->
<g id="node1" class="node"><title>Node1</title>
<polygon fill="#bfbfbf" stroke="black" points="854.5,-380.5 854.5,-421.5 1039.5,-421.5 1039.5,-380.5 854.5,-380.5"/>
<text text-anchor="start" x="862.5" y="-409.5" font-family="Helvetica,sans-Serif" font-size="10.00">/home/travis/build</text>
<text text-anchor="start" x="862.5" y="-398.5" font-family="Helvetica,sans-Serif" font-size="10.00">/ADVRHumanoids/ROSEndEffector</text>
<text text-anchor="middle" x="947" y="-387.5" font-family="Helvetica,sans-Serif" font-size="10.00">/include/end_effector/YamlWorker.h</text>
</g>
<!-- Node2 -->
<g id="node2" class="node"><title>Node2</title>
<polygon fill="none" stroke="#bfbfbf" points="1511.5,-0.5 1511.5,-19.5 1568.5,-19.5 1568.5,-0.5 1511.5,-0.5"/>
<text text-anchor="middle" x="1540" y="-7.5" font-family="Helvetica,sans-Serif" font-size="10.00">memory</text>
</g>
<!-- Node1&#45;&gt;Node2 -->
<g id="edge1" class="edge"><title>Node1&#45;&gt;Node2</title>
<path fill="none" stroke="midnightblue" d="M1039.75,-398.626C1213.57,-393.524 1571,-369.966 1571,-262.5 1571,-262.5 1571,-262.5 1571,-126.5 1571,-91.012 1557.18,-51.4226 1547.99,-29.0298"/>
<polygon fill="midnightblue" stroke="midnightblue" points="1551.19,-27.5995 1544.05,-19.7693 1544.75,-30.3412 1551.19,-27.5995"/>
</g>
<!-- Node3 -->
<g id="node3" class="node"><title>Node3</title>
<polygon fill="none" stroke="#bfbfbf" points="518,-56.5 518,-75.5 614,-75.5 614,-56.5 518,-56.5"/>
<text text-anchor="middle" x="566" y="-63.5" font-family="Helvetica,sans-Serif" font-size="10.00">yaml&#45;cpp/yaml.h</text>
</g>
<!-- Node1&#45;&gt;Node3 -->
<g id="edge2" class="edge"><title>Node1&#45;&gt;Node3</title>
<path fill="none" stroke="midnightblue" d="M854.29,-397.615C685.89,-392.496 336.414,-378.038 220,-344 159.5,-326.311 127.374,-331.084 95,-277 0.361431,-118.898 362.314,-79.2777 507.875,-69.8194"/>
<polygon fill="midnightblue" stroke="midnightblue" points="508.209,-73.3054 517.972,-69.1893 507.773,-66.319 508.209,-73.3054"/>
</g>
<!-- Node4 -->
<g id="node4" class="node"><title>Node4</title>
<g id="a_node4"><a xlink:href="Utils_8h.html" target="_top" xlink:title="end_effector/Utils.h">
<polygon fill="none" stroke="black" points="1288,-56.5 1288,-75.5 1398,-75.5 1398,-56.5 1288,-56.5"/>
<text text-anchor="middle" x="1343" y="-63.5" font-family="Helvetica,sans-Serif" font-size="10.00">end_effector/Utils.h</text>
</a>
</g>
</g>
<!-- Node1&#45;&gt;Node4 -->
<g id="edge3" class="edge"><title>Node1&#45;&gt;Node4</title>
<path fill="none" stroke="midnightblue" d="M1039.5,-392.598C1130.25,-381.083 1268.29,-351.725 1362,-277 1391.47,-253.5 1401.79,-245.66 1414,-210 1418.46,-196.966 1415.22,-192.724 1414,-179 1411.32,-148.867 1417.77,-137.818 1402,-112 1394.08,-99.0333 1380.94,-88.4633 1369.06,-80.8336"/>
<polygon fill="midnightblue" stroke="midnightblue" points="1370.71,-77.7398 1360.34,-75.5813 1367.1,-83.7372 1370.71,-77.7398"/>
</g>
<!-- Node12 -->
<g id="node12" class="node"><title>Node12</title>
<g id="a_node12"><a xlink:href="Action_8h.html" target="_top" xlink:title="end_effector/GraspingActions\l/Action.h">
<polygon fill="none" stroke="black" points="1157,-112.5 1157,-142.5 1315,-142.5 1315,-112.5 1157,-112.5"/>
<text text-anchor="start" x="1165" y="-130.5" font-family="Helvetica,sans-Serif" font-size="10.00">end_effector/GraspingActions</text>
<text text-anchor="middle" x="1236" y="-119.5" font-family="Helvetica,sans-Serif" font-size="10.00">/Action.h</text>
</a>
</g>
</g>
<!-- Node1&#45;&gt;Node12 -->
<g id="edge12" class="edge"><title>Node1&#45;&gt;Node12</title>
<path fill="none" stroke="midnightblue" d="M973.197,-380.457C986.85,-369.996 1003.65,-356.683 1018,-344 1038.25,-326.109 1163.55,-200.996 1214.5,-150.029"/>
<polygon fill="midnightblue" stroke="midnightblue" points="1217.14,-152.338 1221.73,-142.791 1212.19,-147.39 1217.14,-152.338"/>
</g>
<!-- Node16 -->
<g id="node16" class="node"><title>Node16</title>
<g id="a_node16"><a xlink:href="ActionPrimitive_8h.html" target="_top" xlink:title="end_effector/GraspingActions\l/ActionPrimitive.h">
<polygon fill="none" stroke="black" points="729,-179.5 729,-209.5 887,-209.5 887,-179.5 729,-179.5"/>
<text text-anchor="start" x="737" y="-197.5" font-family="Helvetica,sans-Serif" font-size="10.00">end_effector/GraspingActions</text>
<text text-anchor="middle" x="808" y="-186.5" font-family="Helvetica,sans-Serif" font-size="10.00">/ActionPrimitive.h</text>
</a>
</g>
</g>
<!-- Node1&#45;&gt;Node16 -->
<g id="edge20" class="edge"><title>Node1&#45;&gt;Node16</title>
<path fill="none" stroke="midnightblue" d="M953.213,-380.355C961.882,-348.83 973.552,-286.394 945,-246 933.359,-229.531 915.722,-218.422 896.94,-210.93"/>
<polygon fill="midnightblue" stroke="midnightblue" points="897.939,-207.569 887.345,-207.435 895.543,-214.146 897.939,-207.569"/>
</g>
<!-- Node18 -->
<g id="node18" class="node"><title>Node18</title>
<g id="a_node18"><a xlink:href="ActionPinchTight_8h.html" target="_top" xlink:title="end_effector/GraspingActions\l/ActionPinchTight.h">
<polygon fill="none" stroke="black" points="272,-313.5 272,-343.5 430,-343.5 430,-313.5 272,-313.5"/>
<text text-anchor="start" x="280" y="-331.5" font-family="Helvetica,sans-Serif" font-size="10.00">end_effector/GraspingActions</text>
<text text-anchor="middle" x="351" y="-320.5" font-family="Helvetica,sans-Serif" font-size="10.00">/ActionPinchTight.h</text>
</a>
</g>
</g>
<!-- Node1&#45;&gt;Node18 -->
<g id="edge28" class="edge"><title>Node1&#45;&gt;Node18</title>
<path fill="none" stroke="midnightblue" d="M854.118,-391.267C754.314,-381.539 590.811,-364.615 440.036,-344.099"/>
<polygon fill="midnightblue" stroke="midnightblue" points="440.506,-340.631 430.124,-342.743 439.557,-347.566 440.506,-340.631"/>
</g>
<!-- Node21 -->
<g id="node21" class="node"><title>Node21</title>
<g id="a_node21"><a xlink:href="ActionPinchLoose_8h.html" target="_top" xlink:title="end_effector/GraspingActions\l/ActionPinchLoose.h">
<polygon fill="none" stroke="black" points="636,-313.5 636,-343.5 794,-343.5 794,-313.5 636,-313.5"/>
<text text-anchor="start" x="644" y="-331.5" font-family="Helvetica,sans-Serif" font-size="10.00">end_effector/GraspingActions</text>
<text text-anchor="middle" x="715" y="-320.5" font-family="Helvetica,sans-Serif" font-size="10.00">/ActionPinchLoose.h</text>
</a>
</g>
</g>
<!-- Node1&#45;&gt;Node21 -->
<g id="edge36" class="edge"><title>Node1&#45;&gt;Node21</title>
<path fill="none" stroke="midnightblue" d="M882.683,-380.455C847.654,-369.811 804.722,-356.765 771.068,-346.538"/>
<polygon fill="midnightblue" stroke="midnightblue" points="771.975,-343.156 761.389,-343.597 769.94,-349.853 771.975,-343.156"/>
</g>
<!-- Node22 -->
<g id="node22" class="node"><title>Node22</title>
<g id="a_node22"><a xlink:href="ActionTrig_8h.html" target="_top" xlink:title="end_effector/GraspingActions\l/ActionTrig.h">
<polygon fill="none" stroke="black" points="104,-246.5 104,-276.5 262,-276.5 262,-246.5 104,-246.5"/>
<text text-anchor="start" x="112" y="-264.5" font-family="Helvetica,sans-Serif" font-size="10.00">end_effector/GraspingActions</text>
<text text-anchor="middle" x="183" y="-253.5" font-family="Helvetica,sans-Serif" font-size="10.00">/ActionTrig.h</text>
</a>
</g>
</g>
<!-- Node1&#45;&gt;Node22 -->
<g id="edge42" class="edge"><title>Node1&#45;&gt;Node22</title>
<path fill="none" stroke="midnightblue" d="M854.489,-400.329C692.626,-399.611 365.496,-392.026 263,-344 235.443,-331.087 212.171,-304.36 197.953,-285.026"/>
<polygon fill="midnightblue" stroke="midnightblue" points="200.715,-282.871 192.075,-276.74 195.006,-286.921 200.715,-282.871"/>
</g>
<!-- Node23 -->
<g id="node23" class="node"><title>Node23</title>
<g id="a_node23"><a xlink:href="ActionSingleJointMultipleTips_8h.html" target="_top" xlink:title="end_effector/GraspingActions\l/ActionSingleJointMultipleTips.h">
<polygon fill="none" stroke="black" points="754,-246.5 754,-276.5 918,-276.5 918,-246.5 754,-246.5"/>
<text text-anchor="start" x="762" y="-264.5" font-family="Helvetica,sans-Serif" font-size="10.00">end_effector/GraspingActions</text>
<text text-anchor="middle" x="836" y="-253.5" font-family="Helvetica,sans-Serif" font-size="10.00">/ActionSingleJointMultipleTips.h</text>
</a>
</g>
</g>
<!-- Node1&#45;&gt;Node23 -->
<g id="edge46" class="edge"><title>Node1&#45;&gt;Node23</title>
<path fill="none" stroke="midnightblue" d="M931.096,-380.3C910.65,-354.971 875.242,-311.11 853.881,-284.649"/>
<polygon fill="midnightblue" stroke="midnightblue" points="856.48,-282.298 847.475,-276.715 851.034,-286.695 856.48,-282.298"/>
</g>
<!-- Node24 -->
<g id="node24" class="node"><title>Node24</title>
<g id="a_node24"><a xlink:href="ActionMultiplePinchTight_8h.html" target="_top" xlink:title="end_effector/GraspingActions\l/ActionMultiplePinchTight.h">
<polygon fill="none" stroke="black" points="448,-313.5 448,-343.5 606,-343.5 606,-313.5 448,-313.5"/>
<text text-anchor="start" x="456" y="-331.5" font-family="Helvetica,sans-Serif" font-size="10.00">end_effector/GraspingActions</text>
<text text-anchor="middle" x="527" y="-320.5" font-family="Helvetica,sans-Serif" font-size="10.00">/ActionMultiplePinchTight.h</text>
</a>
</g>
</g>
<!-- Node1&#45;&gt;Node24 -->
<g id="edge50" class="edge"><title>Node1&#45;&gt;Node24</title>
<path fill="none" stroke="midnightblue" d="M854.309,-384.441C783.392,-372.537 686.196,-356.222 616.169,-344.468"/>
<polygon fill="midnightblue" stroke="midnightblue" points="616.483,-340.971 606.041,-342.768 615.324,-347.875 616.483,-340.971"/>
</g>
<!-- Node25 -->
<g id="node25" class="node"><title>Node25</title>
<g id="a_node25"><a xlink:href="ActionComposed_8h.html" target="_top" xlink:title="end_effector/GraspingActions\l/ActionComposed.h">
<polygon fill="none" stroke="black" points="1195,-246.5 1195,-276.5 1353,-276.5 1353,-246.5 1195,-246.5"/>
<text text-anchor="start" x="1203" y="-264.5" font-family="Helvetica,sans-Serif" font-size="10.00">end_effector/GraspingActions</text>
<text text-anchor="middle" x="1274" y="-253.5" font-family="Helvetica,sans-Serif" font-size="10.00">/ActionComposed.h</text>
</a>
</g>
</g>
<!-- Node1&#45;&gt;Node25 -->
<g id="edge55" class="edge"><title>Node1&#45;&gt;Node25</title>
<path fill="none" stroke="midnightblue" d="M1039.51,-388.463C1084.08,-380.308 1137.22,-366.641 1181,-344 1210.2,-328.9 1237.74,-302.705 1255.16,-284.091"/>
<polygon fill="midnightblue" stroke="midnightblue" points="1257.82,-286.373 1261.98,-276.631 1252.65,-281.649 1257.82,-286.373"/>
</g>
<!-- Node27 -->
<g id="node27" class="node"><title>Node27</title>
<g id="a_node27"><a xlink:href="ActionTimed_8h.html" target="_top" xlink:title="end_effector/GraspingActions\l/ActionTimed.h">
<polygon fill="none" stroke="black" points="943,-179.5 943,-209.5 1101,-209.5 1101,-179.5 943,-179.5"/>
<text text-anchor="start" x="951" y="-197.5" font-family="Helvetica,sans-Serif" font-size="10.00">end_effector/GraspingActions</text>
<text text-anchor="middle" x="1022" y="-186.5" font-family="Helvetica,sans-Serif" font-size="10.00">/ActionTimed.h</text>
</a>
</g>
</g>
<!-- Node1&#45;&gt;Node27 -->
<g id="edge65" class="edge"><title>Node1&#45;&gt;Node27</title>
<path fill="none" stroke="midnightblue" d="M970.129,-380.401C980.28,-370.525 991.372,-357.739 998,-344 1017.5,-303.568 1021.64,-250.482 1022.25,-219.963"/>
<polygon fill="midnightblue" stroke="midnightblue" points="1025.75,-219.836 1022.33,-209.806 1018.75,-219.775 1025.75,-219.836"/>
</g>
<!-- Node4&#45;&gt;Node2 -->
<g id="edge5" class="edge"><title>Node4&#45;&gt;Node2</title>
<path fill="none" stroke="midnightblue" d="M1374.22,-56.4435C1408.73,-46.9836 1464.35,-31.7377 1501.52,-21.5465"/>
<polygon fill="midnightblue" stroke="midnightblue" points="1502.77,-24.8343 1511.49,-18.8151 1500.92,-18.0833 1502.77,-24.8343"/>
</g>
<!-- Node5 -->
<g id="node5" class="node"><title>Node5</title>
<polygon fill="none" stroke="#bfbfbf" points="1446.5,-0.5 1446.5,-19.5 1493.5,-19.5 1493.5,-0.5 1446.5,-0.5"/>
<text text-anchor="middle" x="1470" y="-7.5" font-family="Helvetica,sans-Serif" font-size="10.00">cmath</text>
</g>
<!-- Node4&#45;&gt;Node5 -->
<g id="edge4" class="edge"><title>Node4&#45;&gt;Node5</title>
<path fill="none" stroke="midnightblue" d="M1363.12,-56.4435C1384.02,-47.5566 1416.93,-33.5632 1440.72,-23.4514"/>
<polygon fill="midnightblue" stroke="midnightblue" points="1442.14,-26.6504 1449.97,-19.5164 1439.4,-20.2085 1442.14,-26.6504"/>
</g>
<!-- Node6 -->
<g id="node6" class="node"><title>Node6</title>
<polygon fill="none" stroke="#bfbfbf" points="441.5,-0.5 441.5,-19.5 500.5,-19.5 500.5,-0.5 441.5,-0.5"/>
<text text-anchor="middle" x="471" y="-7.5" font-family="Helvetica,sans-Serif" font-size="10.00">iostream</text>
</g>
<!-- Node4&#45;&gt;Node6 -->
<g id="edge6" class="edge"><title>Node4&#45;&gt;Node6</title>
<path fill="none" stroke="midnightblue" d="M1287.8,-60.1399C1270.87,-58.719 1252.17,-57.2211 1235,-56 957.993,-36.3031 624.045,-18.7731 510.777,-13.0011"/>
<polygon fill="midnightblue" stroke="midnightblue" points="510.679,-9.4917 500.514,-12.4796 510.324,-16.4827 510.679,-9.4917"/>
</g>
<!-- Node7 -->
<g id="node7" class="node"><title>Node7</title>
<polygon fill="none" stroke="#bfbfbf" points="1038,-0.5 1038,-19.5 1086,-19.5 1086,-0.5 1038,-0.5"/>
<text text-anchor="middle" x="1062" y="-7.5" font-family="Helvetica,sans-Serif" font-size="10.00">dlfcn.h</text>
</g>
<!-- Node4&#45;&gt;Node7 -->
<g id="edge7" class="edge"><title>Node4&#45;&gt;Node7</title>
<path fill="none" stroke="midnightblue" d="M1288.05,-56.4348C1239.88,-48.6083 1167.77,-36.1278 1096.19,-20.1124"/>
<polygon fill="midnightblue" stroke="midnightblue" points="1096.62,-16.6215 1086.09,-17.8292 1095.07,-23.4491 1096.62,-16.6215"/>
</g>
<!-- Node8 -->
<g id="node8" class="node"><title>Node8</title>
<polygon fill="none" stroke="#bfbfbf" points="1104,-0.5 1104,-19.5 1220,-19.5 1220,-0.5 1104,-0.5"/>
<text text-anchor="middle" x="1162" y="-7.5" font-family="Helvetica,sans-Serif" font-size="10.00">boost/filesystem.hpp</text>
</g>
<!-- Node4&#45;&gt;Node8 -->
<g id="edge8" class="edge"><title>Node4&#45;&gt;Node8</title>
<path fill="none" stroke="midnightblue" d="M1314.32,-56.4435C1283.47,-47.2406 1234.27,-32.5617 1200.17,-22.3879"/>
<polygon fill="midnightblue" stroke="midnightblue" points="1201.13,-19.0215 1190.55,-19.5164 1199.13,-25.7293 1201.13,-19.0215"/>
</g>
<!-- Node9 -->
<g id="node9" class="node"><title>Node9</title>
<polygon fill="none" stroke="#bfbfbf" points="1238,-0.5 1238,-19.5 1292,-19.5 1292,-0.5 1238,-0.5"/>
<text text-anchor="middle" x="1265" y="-7.5" font-family="Helvetica,sans-Serif" font-size="10.00">fstream</text>
</g>
<!-- Node4&#45;&gt;Node9 -->
<g id="edge9" class="edge"><title>Node4&#45;&gt;Node9</title>
<path fill="none" stroke="midnightblue" d="M1330.47,-56.324C1318.41,-47.979 1299.97,-35.2122 1285.73,-25.3524"/>
<polygon fill="midnightblue" stroke="midnightblue" points="1287.72,-22.469 1277.5,-19.6545 1283.73,-28.2243 1287.72,-22.469"/>
</g>
<!-- Node10 -->
<g id="node10" class="node"><title>Node10</title>
<polygon fill="none" stroke="#bfbfbf" points="1310,-0.5 1310,-19.5 1360,-19.5 1360,-0.5 1310,-0.5"/>
<text text-anchor="middle" x="1335" y="-7.5" font-family="Helvetica,sans-Serif" font-size="10.00">chrono</text>
</g>
<!-- Node4&#45;&gt;Node10 -->
<g id="edge10" class="edge"><title>Node4&#45;&gt;Node10</title>
<path fill="none" stroke="midnightblue" d="M1341.68,-56.083C1340.62,-48.9272 1339.09,-38.6353 1337.77,-29.6911"/>
<polygon fill="midnightblue" stroke="midnightblue" points="1341.22,-29.1302 1336.3,-19.7511 1334.3,-30.1561 1341.22,-29.1302"/>
</g>
<!-- Node11 -->
<g id="node11" class="node"><title>Node11</title>
<polygon fill="none" stroke="#bfbfbf" points="1378,-0.5 1378,-19.5 1428,-19.5 1428,-0.5 1378,-0.5"/>
<text text-anchor="middle" x="1403" y="-7.5" font-family="Helvetica,sans-Serif" font-size="10.00">atomic</text>
</g>
<!-- Node4&#45;&gt;Node11 -->
<g id="edge11" class="edge"><title>Node4&#45;&gt;Node11</title>
<path fill="none" stroke="midnightblue" d="M1352.64,-56.324C1361.51,-48.3414 1374.87,-36.3128 1385.61,-26.6529"/>
<polygon fill="midnightblue" stroke="midnightblue" points="1388.09,-29.1251 1393.18,-19.8339 1383.41,-23.922 1388.09,-29.1251"/>
</g>
<!-- Node12&#45;&gt;Node2 -->
<g id="edge17" class="edge"><title>Node12&#45;&gt;Node2</title>
<path fill="none" stroke="midnightblue" d="M1292.24,-112.441C1325.98,-103.379 1369.49,-90.5847 1407,-76 1446.04,-60.8188 1489.28,-38.6214 1515.55,-24.4951"/>
<polygon fill="midnightblue" stroke="midnightblue" points="1517.29,-27.5283 1524.42,-19.6838 1513.96,-21.3751 1517.29,-27.5283"/>
</g>
<!-- Node12&#45;&gt;Node3 -->
<g id="edge16" class="edge"><title>Node12&#45;&gt;Node3</title>
<path fill="none" stroke="midnightblue" d="M1156.72,-117.377C1139.67,-115.512 1121.74,-113.625 1105,-112 930.331,-95.0449 723.435,-78.863 624.452,-71.3613"/>
<polygon fill="midnightblue" stroke="midnightblue" points="624.591,-67.8619 614.355,-70.5979 624.063,-74.842 624.591,-67.8619"/>
</g>
<!-- Node12&#45;&gt;Node4 -->
<g id="edge19" class="edge"><title>Node12&#45;&gt;Node4</title>
<path fill="none" stroke="midnightblue" d="M1261.36,-112.399C1278.67,-102.773 1301.48,-90.0902 1318.58,-80.5772"/>
<polygon fill="midnightblue" stroke="midnightblue" points="1320.39,-83.5766 1327.43,-75.6578 1316.99,-77.4588 1320.39,-83.5766"/>
</g>
<!-- Node12&#45;&gt;Node6 -->
<g id="edge18" class="edge"><title>Node12&#45;&gt;Node6</title>
<path fill="none" stroke="midnightblue" d="M1227.76,-112.398C1217.06,-95.5948 1196.69,-68.2563 1171,-56 1111.41,-27.5765 650.502,-15.0176 510.925,-11.8411"/>
<polygon fill="midnightblue" stroke="midnightblue" points="510.759,-8.33664 500.683,-11.6119 510.602,-15.3349 510.759,-8.33664"/>
</g>
<!-- Node13 -->
<g id="node13" class="node"><title>Node13</title>
<polygon fill="none" stroke="#bfbfbf" points="1115.5,-56.5 1115.5,-75.5 1162.5,-75.5 1162.5,-56.5 1115.5,-56.5"/>
<text text-anchor="middle" x="1139" y="-63.5" font-family="Helvetica,sans-Serif" font-size="10.00">vector</text>
</g>
<!-- Node12&#45;&gt;Node13 -->
<g id="edge13" class="edge"><title>Node12&#45;&gt;Node13</title>
<path fill="none" stroke="midnightblue" d="M1213.01,-112.399C1197.61,-102.951 1177.41,-90.5589 1162,-81.1089"/>
<polygon fill="midnightblue" stroke="midnightblue" points="1163.47,-77.9031 1153.11,-75.6578 1159.81,-83.87 1163.47,-77.9031"/>
</g>
<!-- Node14 -->
<g id="node14" class="node"><title>Node14</title>
<polygon fill="none" stroke="#bfbfbf" points="1037,-56.5 1037,-75.5 1081,-75.5 1081,-56.5 1037,-56.5"/>
<text text-anchor="middle" x="1059" y="-63.5" font-family="Helvetica,sans-Serif" font-size="10.00">string</text>
</g>
<!-- Node12&#45;&gt;Node14 -->
<g id="edge14" class="edge"><title>Node12&#45;&gt;Node14</title>
<path fill="none" stroke="midnightblue" d="M1194.05,-112.399C1162.41,-101.763 1119.67,-87.3959 1090.82,-77.6954"/>
<polygon fill="midnightblue" stroke="midnightblue" points="1091.82,-74.3415 1081.23,-74.4726 1089.59,-80.9767 1091.82,-74.3415"/>
</g>
<!-- Node15 -->
<g id="node15" class="node"><title>Node15</title>
<polygon fill="none" stroke="#bfbfbf" points="920,-56.5 920,-75.5 958,-75.5 958,-56.5 920,-56.5"/>
<text text-anchor="middle" x="939" y="-63.5" font-family="Helvetica,sans-Serif" font-size="10.00">map</text>
</g>
<!-- Node12&#45;&gt;Node15 -->
<g id="edge15" class="edge"><title>Node12&#45;&gt;Node15</title>
<path fill="none" stroke="midnightblue" d="M1165.99,-112.475C1103.12,-99.8791 1013.9,-82.0061 968.307,-72.8712"/>
<polygon fill="midnightblue" stroke="midnightblue" points="968.71,-69.3825 958.217,-70.8499 967.335,-76.2461 968.71,-69.3825"/>
</g>
<!-- Node16&#45;&gt;Node3 -->
<g id="edge27" class="edge"><title>Node16&#45;&gt;Node3</title>
<path fill="none" stroke="midnightblue" d="M734.921,-179.486C704.745,-171.661 670.286,-159.969 642,-143 615.974,-127.387 592.341,-100.935 578.565,-83.719"/>
<polygon fill="midnightblue" stroke="midnightblue" points="581.202,-81.4087 572.3,-75.6647 575.677,-85.7067 581.202,-81.4087"/>
</g>
<!-- Node16&#45;&gt;Node6 -->
<g id="edge25" class="edge"><title>Node16&#45;&gt;Node6</title>
<path fill="none" stroke="midnightblue" d="M792.922,-179.319C762.878,-151.776 692.444,-90.7087 623,-56 586.949,-37.9812 542.403,-25.8519 510.879,-18.7703"/>
<polygon fill="midnightblue" stroke="midnightblue" points="511.234,-15.2657 500.718,-16.5611 509.746,-22.1059 511.234,-15.2657"/>
</g>
<!-- Node16&#45;&gt;Node12 -->
<g id="edge26" class="edge"><title>Node16&#45;&gt;Node12</title>
<path fill="none" stroke="midnightblue" d="M887.001,-181.502C960.51,-170.338 1069.94,-153.72 1146.61,-142.075"/>
<polygon fill="midnightblue" stroke="midnightblue" points="1147.37,-145.5 1156.74,-140.538 1146.32,-138.579 1147.37,-145.5"/>
</g>
<!-- Node16&#45;&gt;Node13 -->
<g id="edge24" class="edge"><title>Node16&#45;&gt;Node13</title>
<path fill="none" stroke="midnightblue" d="M849.784,-179.448C878.632,-169.6 917.805,-155.936 952,-143 1008.03,-121.805 1072.6,-95.0319 1109.33,-79.5783"/>
<polygon fill="midnightblue" stroke="midnightblue" points="1111.07,-82.6443 1118.93,-75.5338 1108.35,-76.1943 1111.07,-82.6443"/>
</g>
<!-- Node16&#45;&gt;Node14 -->
<g id="edge22" class="edge"><title>Node16&#45;&gt;Node14</title>
<path fill="none" stroke="midnightblue" d="M835.82,-179.479C884.66,-154.865 985.15,-104.219 1032.81,-80.1986"/>
<polygon fill="midnightblue" stroke="midnightblue" points="1034.52,-83.2564 1041.88,-75.6303 1031.37,-77.0054 1034.52,-83.2564"/>
</g>
<!-- Node16&#45;&gt;Node15 -->
<g id="edge23" class="edge"><title>Node16&#45;&gt;Node15</title>
<path fill="none" stroke="midnightblue" d="M821.058,-179.291C836.436,-162.732 862.939,-134.739 887,-112 897.846,-101.75 910.498,-90.7805 920.607,-82.2384"/>
<polygon fill="midnightblue" stroke="midnightblue" points="922.988,-84.8091 928.404,-75.703 918.492,-79.4443 922.988,-84.8091"/>
</g>
<!-- Node17 -->
<g id="node17" class="node"><title>Node17</title>
<polygon fill="none" stroke="#bfbfbf" points="651,-118 651,-137 683,-137 683,-118 651,-118"/>
<text text-anchor="middle" x="667" y="-125" font-family="Helvetica,sans-Serif" font-size="10.00">set</text>
</g>
<!-- Node16&#45;&gt;Node17 -->
<g id="edge21" class="edge"><title>Node16&#45;&gt;Node17</title>
<path fill="none" stroke="midnightblue" d="M776.332,-179.328C754.078,-169.311 723.643,-155.497 697,-143 695.452,-142.274 693.861,-141.522 692.258,-140.76"/>
<polygon fill="midnightblue" stroke="midnightblue" points="693.689,-137.565 683.159,-136.395 690.662,-143.876 693.689,-137.565"/>
</g>
<!-- Node18&#45;&gt;Node3 -->
<g id="edge34" class="edge"><title>Node18&#45;&gt;Node3</title>
<path fill="none" stroke="midnightblue" d="M334.586,-313.397C325.124,-304.14 314.117,-291.156 309,-277 304.316,-264.043 303.23,-258.511 309,-246 351.496,-153.86 468.599,-100.936 528.958,-79.0152"/>
<polygon fill="midnightblue" stroke="midnightblue" points="530.23,-82.2779 538.488,-75.6411 527.894,-75.6792 530.23,-82.2779"/>
</g>
<!-- Node18&#45;&gt;Node6 -->
<g id="edge35" class="edge"><title>Node18&#45;&gt;Node6</title>
<path fill="none" stroke="midnightblue" d="M271.755,-326.867C213.194,-323.264 133.325,-311.556 72,-277 29.8921,-253.273 0,-243.833 0,-195.5 0,-195.5 0,-195.5 0,-126.5 0,-38.0175 317.51,-16.9709 431.149,-12.2718"/>
<polygon fill="midnightblue" stroke="midnightblue" points="431.325,-15.7677 441.18,-11.878 431.05,-8.77309 431.325,-15.7677"/>
</g>
<!-- Node19 -->
<g id="node19" class="node"><title>Node19</title>
<g id="a_node19"><a xlink:href="ActionPinchGeneric_8h.html" target="_top" xlink:title="end_effector/GraspingActions\l/ActionPinchGeneric.h">
<polygon fill="none" stroke="black" points="318,-246.5 318,-276.5 476,-276.5 476,-246.5 318,-246.5"/>
<text text-anchor="start" x="326" y="-264.5" font-family="Helvetica,sans-Serif" font-size="10.00">end_effector/GraspingActions</text>
<text text-anchor="middle" x="397" y="-253.5" font-family="Helvetica,sans-Serif" font-size="10.00">/ActionPinchGeneric.h</text>
</a>
</g>
</g>
<!-- Node18&#45;&gt;Node19 -->
<g id="edge29" class="edge"><title>Node18&#45;&gt;Node19</title>
<path fill="none" stroke="midnightblue" d="M360.981,-313.396C366.889,-305.049 374.504,-294.287 381.21,-284.811"/>
<polygon fill="midnightblue" stroke="midnightblue" points="384.118,-286.761 387.038,-276.577 378.404,-282.717 384.118,-286.761"/>
</g>
<!-- Node20 -->
<g id="node20" class="node"><title>Node20</title>
<polygon fill="none" stroke="#bfbfbf" points="532.5,-246.5 532.5,-276.5 659.5,-276.5 659.5,-246.5 532.5,-246.5"/>
<text text-anchor="start" x="540.5" y="-264.5" font-family="Helvetica,sans-Serif" font-size="10.00">moveit/planning_scene</text>
<text text-anchor="middle" x="596" y="-253.5" font-family="Helvetica,sans-Serif" font-size="10.00">/planning_scene.h</text>
</g>
<!-- Node18&#45;&gt;Node20 -->
<g id="edge33" class="edge"><title>Node18&#45;&gt;Node20</title>
<path fill="none" stroke="midnightblue" d="M403.86,-313.476C441.726,-303.43 492.887,-289.856 532.896,-279.242"/>
<polygon fill="midnightblue" stroke="midnightblue" points="534.045,-282.558 542.813,-276.611 532.25,-275.792 534.045,-282.558"/>
</g>
<!-- Node19&#45;&gt;Node3 -->
<g id="edge31" class="edge"><title>Node19&#45;&gt;Node3</title>
<path fill="none" stroke="midnightblue" d="M403.72,-246.411C417.655,-218.272 452.018,-154.198 495,-112 507.985,-99.2522 525.164,-88.2471 539.371,-80.3111"/>
<polygon fill="midnightblue" stroke="midnightblue" points="541.061,-83.3764 548.205,-75.5518 537.741,-77.2139 541.061,-83.3764"/>
</g>
<!-- Node19&#45;&gt;Node6 -->
<g id="edge32" class="edge"><title>Node19&#45;&gt;Node6</title>
<path fill="none" stroke="midnightblue" d="M400.915,-246.345C405.435,-230.072 413.129,-202.571 420,-179 435.975,-124.194 440.298,-110.589 457,-56 459.696,-47.1872 462.73,-37.4176 465.283,-29.2393"/>
<polygon fill="midnightblue" stroke="midnightblue" points="468.647,-30.2082 468.292,-19.6194 461.966,-28.1184 468.647,-30.2082"/>
</g>
<!-- Node19&#45;&gt;Node16 -->
<g id="edge30" class="edge"><title>Node19&#45;&gt;Node16</title>
<path fill="none" stroke="midnightblue" d="M476.245,-247.967C545.754,-236.974 646.728,-221.005 718.998,-209.576"/>
<polygon fill="midnightblue" stroke="midnightblue" points="719.668,-213.013 728.998,-207.994 718.574,-206.099 719.668,-213.013"/>
</g>
<!-- Node21&#45;&gt;Node3 -->
<g id="edge40" class="edge"><title>Node21&#45;&gt;Node3</title>
<path fill="none" stroke="midnightblue" d="M716.371,-313.394C717.319,-295.915 716.4,-266 702,-246 681.789,-217.93 659.65,-232.05 633,-210 603.747,-185.796 595.68,-177.579 580,-143 571.707,-124.712 568.326,-101.83 566.947,-85.9766"/>
<polygon fill="midnightblue" stroke="midnightblue" points="570.429,-85.5804 566.256,-75.8418 563.445,-86.0568 570.429,-85.5804"/>
</g>
<!-- Node21&#45;&gt;Node6 -->
<g id="edge41" class="edge"><title>Node21&#45;&gt;Node6</title>
<path fill="none" stroke="midnightblue" d="M709.85,-313.483C702.764,-295.822 688.511,-265.436 668,-246 642.318,-221.665 623.376,-233.58 597,-210 543.882,-162.513 546.548,-136.553 509,-76 499.229,-60.2423 488.62,-41.9914 481.101,-28.8479"/>
<polygon fill="midnightblue" stroke="midnightblue" points="484.007,-26.878 476.018,-19.9184 477.923,-30.3406 484.007,-26.878"/>
</g>
<!-- Node21&#45;&gt;Node16 -->
<g id="edge37" class="edge"><title>Node21&#45;&gt;Node16</title>
<path fill="none" stroke="midnightblue" d="M794.055,-318.877C847.167,-311.267 910.38,-298.044 927,-277 949.033,-249.102 910.031,-227.082 870.914,-213"/>
<polygon fill="midnightblue" stroke="midnightblue" points="871.598,-209.534 861.003,-209.592 869.322,-216.154 871.598,-209.534"/>
</g>
<!-- Node21&#45;&gt;Node19 -->
<g id="edge38" class="edge"><title>Node21&#45;&gt;Node19</title>
<path fill="none" stroke="midnightblue" d="M646.39,-313.476C596.218,-303.221 528.065,-289.29 475.683,-278.583"/>
<polygon fill="midnightblue" stroke="midnightblue" points="476.259,-275.128 465.761,-276.555 474.857,-281.987 476.259,-275.128"/>
</g>
<!-- Node21&#45;&gt;Node20 -->
<g id="edge39" class="edge"><title>Node21&#45;&gt;Node20</title>
<path fill="none" stroke="midnightblue" d="M689.179,-313.396C672.025,-304.026 649.304,-291.615 630.592,-281.395"/>
<polygon fill="midnightblue" stroke="midnightblue" points="632.225,-278.299 621.771,-276.577 628.869,-284.442 632.225,-278.299"/>
</g>
<!-- Node22&#45;&gt;Node3 -->
<g id="edge44" class="edge"><title>Node22&#45;&gt;Node3</title>
<path fill="none" stroke="midnightblue" d="M187.413,-246.189C197.577,-215.85 225.705,-145.14 276,-112 313.129,-87.5354 434.435,-75.5124 507.876,-70.3381"/>
<polygon fill="midnightblue" stroke="midnightblue" points="508.169,-73.8263 517.907,-69.6528 507.692,-66.8426 508.169,-73.8263"/>
</g>
<!-- Node22&#45;&gt;Node6 -->
<g id="edge45" class="edge"><title>Node22&#45;&gt;Node6</title>
<path fill="none" stroke="midnightblue" d="M184.152,-246.169C187.343,-216.415 198.99,-147.745 240,-112 296.953,-62.3586 382.121,-33.7427 431.564,-20.367"/>
<polygon fill="midnightblue" stroke="midnightblue" points="432.473,-23.747 441.253,-17.8176 430.692,-16.9774 432.473,-23.747"/>
</g>
<!-- Node22&#45;&gt;Node16 -->
<g id="edge43" class="edge"><title>Node22&#45;&gt;Node16</title>
<path fill="none" stroke="midnightblue" d="M262.294,-251.207C277.779,-249.44 293.895,-247.633 309,-246 452.328,-230.501 618.98,-213.927 718.838,-204.151"/>
<polygon fill="midnightblue" stroke="midnightblue" points="719.275,-207.625 728.887,-203.169 718.593,-200.659 719.275,-207.625"/>
</g>
<!-- Node23&#45;&gt;Node3 -->
<g id="edge48" class="edge"><title>Node23&#45;&gt;Node3</title>
<path fill="none" stroke="midnightblue" d="M779.985,-246.435C751.213,-238.006 716.168,-225.827 687,-210 644.72,-187.059 631.977,-180.62 602,-143 588.102,-125.559 577.972,-101.873 572.062,-85.6046"/>
<polygon fill="midnightblue" stroke="midnightblue" points="575.215,-84.0103 568.65,-75.6945 568.596,-86.2892 575.215,-84.0103"/>
</g>
<!-- Node23&#45;&gt;Node6 -->
<g id="edge49" class="edge"><title>Node23&#45;&gt;Node6</title>
<path fill="none" stroke="midnightblue" d="M777.795,-246.407C757.016,-238.742 735.049,-227.185 720,-210 690.157,-175.922 716.963,-149.799 692,-112 670.235,-79.0429 657.944,-74.4062 623,-56 587.232,-37.1597 542.465,-25.1244 510.803,-18.2878"/>
<polygon fill="midnightblue" stroke="midnightblue" points="511.103,-14.7754 500.6,-16.1662 509.678,-21.6288 511.103,-14.7754"/>
</g>
<!-- Node23&#45;&gt;Node16 -->
<g id="edge47" class="edge"><title>Node23&#45;&gt;Node16</title>
<path fill="none" stroke="midnightblue" d="M829.924,-246.396C826.475,-238.389 822.07,-228.162 818.113,-218.978"/>
<polygon fill="midnightblue" stroke="midnightblue" points="821.234,-217.376 814.064,-209.577 814.806,-220.145 821.234,-217.376"/>
</g>
<!-- Node24&#45;&gt;Node3 -->
<g id="edge53" class="edge"><title>Node24&#45;&gt;Node3</title>
<path fill="none" stroke="midnightblue" d="M524.369,-313.304C518.448,-277.944 506.56,-183.628 533,-112 536.843,-101.588 543.856,-91.4829 550.431,-83.4953"/>
<polygon fill="midnightblue" stroke="midnightblue" points="553.265,-85.5721 557.223,-75.7447 548,-80.9584 553.265,-85.5721"/>
</g>
<!-- Node24&#45;&gt;Node6 -->
<g id="edge54" class="edge"><title>Node24&#45;&gt;Node6</title>
<path fill="none" stroke="midnightblue" d="M447.879,-314.237C444.883,-313.806 441.916,-313.392 439,-313 362.825,-302.747 152.632,-327.856 95,-277 67.1118,-252.391 76,-232.694 76,-195.5 76,-195.5 76,-195.5 76,-126.5 76,-53.0088 331.076,-23.0461 431.273,-14.1114"/>
<polygon fill="midnightblue" stroke="midnightblue" points="431.651,-17.5919 441.311,-13.2408 431.046,-10.618 431.651,-17.5919"/>
</g>
<!-- Node24&#45;&gt;Node19 -->
<g id="edge51" class="edge"><title>Node24&#45;&gt;Node19</title>
<path fill="none" stroke="midnightblue" d="M498.792,-313.396C479.883,-303.941 454.779,-291.39 434.234,-281.117"/>
<polygon fill="midnightblue" stroke="midnightblue" points="435.663,-277.918 425.153,-276.577 432.532,-284.179 435.663,-277.918"/>
</g>
<!-- Node24&#45;&gt;Node20 -->
<g id="edge52" class="edge"><title>Node24&#45;&gt;Node20</title>
<path fill="none" stroke="midnightblue" d="M541.972,-313.396C551.195,-304.708 563.194,-293.405 573.54,-283.658"/>
<polygon fill="midnightblue" stroke="midnightblue" points="576.178,-285.981 581.057,-276.577 571.378,-280.886 576.178,-285.981"/>
</g>
<!-- Node25&#45;&gt;Node2 -->
<g id="edge64" class="edge"><title>Node25&#45;&gt;Node2</title>
<path fill="none" stroke="midnightblue" d="M1339.87,-246.46C1364.97,-238.747 1392.64,-227.142 1414,-210 1477.26,-159.235 1518.13,-67.6705 1533.33,-29.0061"/>
<polygon fill="midnightblue" stroke="midnightblue" points="1536.63,-30.172 1536.94,-19.5815 1530.1,-27.6718 1536.63,-30.172"/>
</g>
<!-- Node25&#45;&gt;Node3 -->
<g id="edge63" class="edge"><title>Node25&#45;&gt;Node3</title>
<path fill="none" stroke="midnightblue" d="M1194.78,-260.506C1123.69,-257.825 1017.93,-247.066 934,-210 914.062,-201.195 915.599,-188.535 896,-179 830.457,-147.112 802.627,-172.558 736,-143 714.133,-133.299 713.236,-123.013 692,-112 664.694,-97.8398 631.923,-86.2882 606.648,-78.4355"/>
<polygon fill="midnightblue" stroke="midnightblue" points="607.594,-75.0652 597.009,-75.5063 605.559,-81.7627 607.594,-75.0652"/>
</g>
<!-- Node25&#45;&gt;Node4 -->
<g id="edge62" class="edge"><title>Node25&#45;&gt;Node4</title>
<path fill="none" stroke="midnightblue" d="M1344.74,-246.458C1364.29,-238.976 1383.33,-227.523 1395,-210 1422.48,-168.759 1381.76,-111.172 1358.04,-83.3406"/>
<polygon fill="midnightblue" stroke="midnightblue" points="1360.55,-80.9001 1351.32,-75.7097 1355.3,-85.5271 1360.55,-80.9001"/>
</g>
<!-- Node25&#45;&gt;Node13 -->
<g id="edge56" class="edge"><title>Node25&#45;&gt;Node13</title>
<path fill="none" stroke="midnightblue" d="M1317.75,-246.32C1334.68,-238.449 1352.29,-226.768 1362,-210 1385.41,-169.574 1361.28,-140.15 1324,-112 1279.2,-78.1739 1212.43,-69.4236 1172.55,-67.3655"/>
<polygon fill="midnightblue" stroke="midnightblue" points="1172.67,-63.8676 1162.54,-66.961 1172.39,-70.8619 1172.67,-63.8676"/>
</g>
<!-- Node25&#45;&gt;Node14 -->
<g id="edge57" class="edge"><title>Node25&#45;&gt;Node14</title>
<path fill="none" stroke="midnightblue" d="M1243.94,-246.342C1226.18,-237.245 1203.77,-224.448 1186,-210 1137.65,-170.679 1091.93,-112.15 1070.98,-83.7136"/>
<polygon fill="midnightblue" stroke="midnightblue" points="1073.78,-81.6254 1065.07,-75.6008 1068.13,-85.7454 1073.78,-81.6254"/>
</g>
<!-- Node26 -->
<g id="node26" class="node"><title>Node26</title>
<g id="a_node26"><a xlink:href="ActionGeneric_8h.html" target="_top" xlink:title="end_effector/GraspingActions\l/ActionGeneric.h">
<polygon fill="none" stroke="black" points="1195,-179.5 1195,-209.5 1353,-209.5 1353,-179.5 1195,-179.5"/>
<text text-anchor="start" x="1203" y="-197.5" font-family="Helvetica,sans-Serif" font-size="10.00">end_effector/GraspingActions</text>
<text text-anchor="middle" x="1274" y="-186.5" font-family="Helvetica,sans-Serif" font-size="10.00">/ActionGeneric.h</text>
</a>
</g>
</g>
<!-- Node25&#45;&gt;Node26 -->
<g id="edge58" class="edge"><title>Node25&#45;&gt;Node26</title>
<path fill="none" stroke="midnightblue" d="M1274,-246.396C1274,-238.645 1274,-228.812 1274,-219.86"/>
<polygon fill="midnightblue" stroke="midnightblue" points="1277.5,-219.576 1274,-209.577 1270.5,-219.577 1277.5,-219.576"/>
</g>
<!-- Node26&#45;&gt;Node3 -->
<g id="edge60" class="edge"><title>Node26&#45;&gt;Node3</title>
<path fill="none" stroke="midnightblue" d="M1195.53,-179.479C1051.98,-153.831 750.254,-99.921 623.748,-77.318"/>
<polygon fill="midnightblue" stroke="midnightblue" points="624.322,-73.8652 613.862,-75.5517 623.091,-80.7561 624.322,-73.8652"/>
</g>
<!-- Node26&#45;&gt;Node4 -->
<g id="edge61" class="edge"><title>Node26&#45;&gt;Node4</title>
<path fill="none" stroke="midnightblue" d="M1314.02,-179.385C1330.39,-171.401 1347.66,-159.615 1357,-143 1367.14,-124.964 1359.98,-101.077 1352.69,-84.9346"/>
<polygon fill="midnightblue" stroke="midnightblue" points="1355.63,-82.991 1348.05,-75.5841 1349.36,-86.0985 1355.63,-82.991"/>
</g>
<!-- Node26&#45;&gt;Node12 -->
<g id="edge59" class="edge"><title>Node26&#45;&gt;Node12</title>
<path fill="none" stroke="midnightblue" d="M1265.75,-179.396C1260.97,-171.219 1254.84,-160.725 1249.38,-151.393"/>
<polygon fill="midnightblue" stroke="midnightblue" points="1252.3,-149.443 1244.23,-142.577 1246.25,-152.976 1252.3,-149.443"/>
</g>
<!-- Node27&#45;&gt;Node3 -->
<g id="edge71" class="edge"><title>Node27&#45;&gt;Node3</title>
<path fill="none" stroke="midnightblue" d="M971.458,-179.479C880.303,-154.191 690.109,-101.429 606.692,-78.2885"/>
<polygon fill="midnightblue" stroke="midnightblue" points="607.398,-74.8523 596.827,-75.5517 605.527,-81.5975 607.398,-74.8523"/>
</g>
<!-- Node27&#45;&gt;Node4 -->
<g id="edge70" class="edge"><title>Node27&#45;&gt;Node4</title>
<path fill="none" stroke="midnightblue" d="M1101.35,-184.759C1185.26,-174.809 1307.77,-157.991 1324,-143 1339.74,-128.465 1343.3,-103.048 1343.71,-85.6406"/>
<polygon fill="midnightblue" stroke="midnightblue" points="1347.21,-85.5223 1343.63,-75.5528 1340.21,-85.5826 1347.21,-85.5223"/>
</g>
<!-- Node27&#45;&gt;Node12 -->
<g id="edge69" class="edge"><title>Node27&#45;&gt;Node12</title>
<path fill="none" stroke="midnightblue" d="M1068.17,-179.476C1100.83,-169.557 1144.8,-156.201 1179.54,-145.648"/>
<polygon fill="midnightblue" stroke="midnightblue" points="1180.99,-148.866 1189.54,-142.611 1178.96,-142.168 1180.99,-148.866"/>
</g>
<!-- Node27&#45;&gt;Node13 -->
<g id="edge66" class="edge"><title>Node27&#45;&gt;Node13</title>
<path fill="none" stroke="midnightblue" d="M1034.97,-179.479C1056.78,-155.899 1100.68,-108.429 1123.87,-83.3633"/>
<polygon fill="midnightblue" stroke="midnightblue" points="1126.65,-85.5064 1130.87,-75.7885 1121.51,-80.7534 1126.65,-85.5064"/>
</g>
<!-- Node27&#45;&gt;Node14 -->
<g id="edge67" class="edge"><title>Node27&#45;&gt;Node14</title>
<path fill="none" stroke="midnightblue" d="M1024,-179.422C1026.56,-162.988 1031.55,-135.111 1039,-112 1041.95,-102.846 1046.17,-93.0473 1049.97,-84.9381"/>
<polygon fill="midnightblue" stroke="midnightblue" points="1053.22,-86.2699 1054.44,-75.746 1046.92,-83.2097 1053.22,-86.2699"/>
</g>
<!-- Node27&#45;&gt;Node15 -->
<g id="edge68" class="edge"><title>Node27&#45;&gt;Node15</title>
<path fill="none" stroke="midnightblue" d="M1012.8,-179.479C997.531,-156.206 966.992,-109.663 950.387,-84.3555"/>
<polygon fill="midnightblue" stroke="midnightblue" points="953.179,-82.2294 944.766,-75.7885 947.326,-86.0696 953.179,-82.2294"/>
</g>
</g>
</svg>
