<?xml version="1.0" encoding="UTF-8" standalone="no"?>
<!DOCTYPE svg PUBLIC "-//W3C//DTD SVG 1.1//EN"
 "http://www.w3.org/Graphics/SVG/1.1/DTD/svg11.dtd">
<!-- Generated by graphviz version 2.38.0 (20140413.2041)
 -->
<!-- Title: /home/travis/build/ADVRHumanoids/ROSEndEffector/include/ros_end_effector/YamlWorker.h Pages: 1 -->
<svg width="1550pt" height="452pt"
 viewBox="0.00 0.00 1550.00 452.00" xmlns="http://www.w3.org/2000/svg" xmlns:xlink="http://www.w3.org/1999/xlink">
<g id="graph0" class="graph" transform="scale(1 1) rotate(0) translate(4 448)">
<title>/home/travis/build/ADVRHumanoids/ROSEndEffector/include/ros_end_effector/YamlWorker.h</title>
<!-- Node1 -->
<g id="node1" class="node"><title>Node1</title>
<polygon fill="#bfbfbf" stroke="black" points="848.5,-391.5 848.5,-443.5 1027.5,-443.5 1027.5,-391.5 848.5,-391.5"/>
<text text-anchor="start" x="856.5" y="-431.5" font-family="Helvetica,sans-Serif" font-size="10.00">/home/travis/build</text>
<text text-anchor="start" x="856.5" y="-420.5" font-family="Helvetica,sans-Serif" font-size="10.00">/ADVRHumanoids/ROSEndEffector</text>
<text text-anchor="start" x="856.5" y="-409.5" font-family="Helvetica,sans-Serif" font-size="10.00">/include/ros_end_effector</text>
<text text-anchor="middle" x="938" y="-398.5" font-family="Helvetica,sans-Serif" font-size="10.00">/YamlWorker.h</text>
</g>
<!-- Node2 -->
<g id="node2" class="node"><title>Node2</title>
<polygon fill="none" stroke="#bfbfbf" points="1482.5,-0.5 1482.5,-19.5 1539.5,-19.5 1539.5,-0.5 1482.5,-0.5"/>
<text text-anchor="middle" x="1511" y="-7.5" font-family="Helvetica,sans-Serif" font-size="10.00">memory</text>
</g>
<!-- Node1&#45;&gt;Node2 -->
<g id="edge1" class="edge"><title>Node1&#45;&gt;Node2</title>
<path fill="none" stroke="midnightblue" d="M1027.77,-412.985C1196.03,-403.935 1542,-372.609 1542,-268 1542,-268 1542,-268 1542,-126.5 1542,-91.012 1528.18,-51.4226 1518.99,-29.0298"/>
<polygon fill="midnightblue" stroke="midnightblue" points="1522.19,-27.5995 1515.05,-19.7693 1515.75,-30.3412 1522.19,-27.5995"/>
</g>
<!-- Node3 -->
<g id="node3" class="node"><title>Node3</title>
<polygon fill="none" stroke="#bfbfbf" points="503,-56.5 503,-75.5 599,-75.5 599,-56.5 503,-56.5"/>
<text text-anchor="middle" x="551" y="-63.5" font-family="Helvetica,sans-Serif" font-size="10.00">yaml&#45;cpp/yaml.h</text>
</g>
<!-- Node1&#45;&gt;Node3 -->
<g id="edge2" class="edge"><title>Node1&#45;&gt;Node3</title>
<path fill="none" stroke="midnightblue" d="M848.177,-413.894C680.377,-408.208 325.732,-392.103 209,-355 152.992,-337.198 124.187,-339.009 95,-288 42.5792,-196.387 181.335,-134.936 227,-112 272.289,-89.2525 411.924,-76.35 492.331,-70.622"/>
<polygon fill="midnightblue" stroke="midnightblue" points="493.057,-74.08 502.79,-69.8936 492.571,-67.0969 493.057,-74.08"/>
</g>
<!-- Node4 -->
<g id="node4" class="node"><title>Node4</title>
<g id="a_node4"><a xlink:href="Utils_8h.html" target="_top" xlink:title="ros_end_effector/Utils.h">
<polygon fill="none" stroke="black" points="1249,-56.5 1249,-75.5 1379,-75.5 1379,-56.5 1249,-56.5"/>
<text text-anchor="middle" x="1314" y="-63.5" font-family="Helvetica,sans-Serif" font-size="10.00">ros_end_effector/Utils.h</text>
</a>
</g>
</g>
<!-- Node1&#45;&gt;Node4 -->
<g id="edge3" class="edge"><title>Node1&#45;&gt;Node4</title>
<path fill="none" stroke="midnightblue" d="M1027.61,-408.42C1115.6,-396.118 1248.82,-365.238 1335,-288 1394.59,-234.591 1414.71,-180.297 1373,-112 1365.08,-99.0333 1351.94,-88.4633 1340.06,-80.8336"/>
<polygon fill="midnightblue" stroke="midnightblue" points="1341.71,-77.7398 1331.34,-75.5813 1338.1,-83.7372 1341.71,-77.7398"/>
</g>
<!-- Node12 -->
<g id="node12" class="node"><title>Node12</title>
<g id="a_node12"><a xlink:href="Action_8h.html" target="_top" xlink:title="ros_end_effector/Grasping\lActions/Action.h">
<polygon fill="none" stroke="black" points="1142.5,-112.5 1142.5,-142.5 1285.5,-142.5 1285.5,-112.5 1142.5,-112.5"/>
<text text-anchor="start" x="1150.5" y="-130.5" font-family="Helvetica,sans-Serif" font-size="10.00">ros_end_effector/Grasping</text>
<text text-anchor="middle" x="1214" y="-119.5" font-family="Helvetica,sans-Serif" font-size="10.00">Actions/Action.h</text>
</a>
</g>
</g>
<!-- Node1&#45;&gt;Node12 -->
<g id="edge12" class="edge"><title>Node1&#45;&gt;Node12</title>
<path fill="none" stroke="midnightblue" d="M969.26,-391.321C982.206,-380.508 997.164,-367.503 1010,-355 1048.06,-317.923 1151.94,-199.635 1194.96,-150.365"/>
<polygon fill="midnightblue" stroke="midnightblue" points="1197.62,-152.641 1201.55,-142.804 1192.34,-148.039 1197.62,-152.641"/>
</g>
<!-- Node16 -->
<g id="node16" class="node"><title>Node16</title>
<g id="a_node16"><a xlink:href="ActionPrimitive_8h.html" target="_top" xlink:title="ros_end_effector/Grasping\lActions/ActionPrimitive.h">
<polygon fill="none" stroke="black" points="742.5,-179.5 742.5,-209.5 885.5,-209.5 885.5,-179.5 742.5,-179.5"/>
<text text-anchor="start" x="750.5" y="-197.5" font-family="Helvetica,sans-Serif" font-size="10.00">ros_end_effector/Grasping</text>
<text text-anchor="middle" x="814" y="-186.5" font-family="Helvetica,sans-Serif" font-size="10.00">Actions/ActionPrimitive.h</text>
</a>
</g>
</g>
<!-- Node1&#45;&gt;Node16 -->
<g id="edge20" class="edge"><title>Node1&#45;&gt;Node16</title>
<path fill="none" stroke="midnightblue" d="M945.826,-391.425C955.316,-355.782 966.635,-289.924 937,-246 926.924,-231.065 911.559,-220.543 895.067,-213.131"/>
<polygon fill="midnightblue" stroke="midnightblue" points="896.395,-209.893 885.815,-209.325 893.731,-216.366 896.395,-209.893"/>
</g>
<!-- Node18 -->
<g id="node18" class="node"><title>Node18</title>
<g id="a_node18"><a xlink:href="ActionPinchTight_8h.html" target="_top" xlink:title="ros_end_effector/Grasping\lActions/ActionPinchTight.h">
<polygon fill="none" stroke="black" points="257.5,-324.5 257.5,-354.5 400.5,-354.5 400.5,-324.5 257.5,-324.5"/>
<text text-anchor="start" x="265.5" y="-342.5" font-family="Helvetica,sans-Serif" font-size="10.00">ros_end_effector/Grasping</text>
<text text-anchor="middle" x="329" y="-331.5" font-family="Helvetica,sans-Serif" font-size="10.00">Actions/ActionPinchTight.h</text>
</a>
</g>
</g>
<!-- Node1&#45;&gt;Node18 -->
<g id="edge28" class="edge"><title>Node1&#45;&gt;Node18</title>
<path fill="none" stroke="midnightblue" d="M848.384,-407.836C745.148,-397.457 570.228,-378.656 410.908,-355.236"/>
<polygon fill="midnightblue" stroke="midnightblue" points="411.327,-351.76 400.923,-353.759 410.303,-358.684 411.327,-351.76"/>
</g>
<!-- Node21 -->
<g id="node21" class="node"><title>Node21</title>
<g id="a_node21"><a xlink:href="ActionPinchLoose_8h.html" target="_top" xlink:title="ros_end_effector/Grasping\lActions/ActionPinchLoose.h">
<polygon fill="none" stroke="black" points="626,-324.5 626,-354.5 774,-354.5 774,-324.5 626,-324.5"/>
<text text-anchor="start" x="634" y="-342.5" font-family="Helvetica,sans-Serif" font-size="10.00">ros_end_effector/Grasping</text>
<text text-anchor="middle" x="700" y="-331.5" font-family="Helvetica,sans-Serif" font-size="10.00">Actions/ActionPinchLoose.h</text>
</a>
</g>
</g>
<!-- Node1&#45;&gt;Node21 -->
<g id="edge36" class="edge"><title>Node1&#45;&gt;Node21</title>
<path fill="none" stroke="midnightblue" d="M859.41,-391.404C824.834,-380.363 785.094,-367.673 753.941,-357.725"/>
<polygon fill="midnightblue" stroke="midnightblue" points="754.737,-354.305 744.146,-354.597 752.608,-360.973 754.737,-354.305"/>
</g>
<!-- Node22 -->
<g id="node22" class="node"><title>Node22</title>
<g id="a_node22"><a xlink:href="ActionTrig_8h.html" target="_top" xlink:title="ros_end_effector/Grasping\lActions/ActionTrig.h">
<polygon fill="none" stroke="black" points="104.5,-252 104.5,-282 247.5,-282 247.5,-252 104.5,-252"/>
<text text-anchor="start" x="112.5" y="-270" font-family="Helvetica,sans-Serif" font-size="10.00">ros_end_effector/Grasping</text>
<text text-anchor="middle" x="176" y="-259" font-family="Helvetica,sans-Serif" font-size="10.00">Actions/ActionTrig.h</text>
</a>
</g>
</g>
<!-- Node1&#45;&gt;Node22 -->
<g id="edge42" class="edge"><title>Node1&#45;&gt;Node22</title>
<path fill="none" stroke="midnightblue" d="M848.395,-416.964C685.902,-416.435 349.986,-408.638 248,-355 220.914,-340.755 200.091,-311.536 187.963,-290.9"/>
<polygon fill="midnightblue" stroke="midnightblue" points="190.968,-289.103 183.011,-282.107 184.868,-292.538 190.968,-289.103"/>
</g>
<!-- Node23 -->
<g id="node23" class="node"><title>Node23</title>
<g id="a_node23"><a xlink:href="ActionSingleJointMultipleTips_8h.html" target="_top" xlink:title="ros_end_effector/Grasping\lActions/ActionSingleJointMultiple\lTips.h">
<polygon fill="none" stroke="black" points="738.5,-246.5 738.5,-287.5 909.5,-287.5 909.5,-246.5 738.5,-246.5"/>
<text text-anchor="start" x="746.5" y="-275.5" font-family="Helvetica,sans-Serif" font-size="10.00">ros_end_effector/Grasping</text>
<text text-anchor="start" x="746.5" y="-264.5" font-family="Helvetica,sans-Serif" font-size="10.00">Actions/ActionSingleJointMultiple</text>
<text text-anchor="middle" x="824" y="-253.5" font-family="Helvetica,sans-Serif" font-size="10.00">Tips.h</text>
</a>
</g>
</g>
<!-- Node1&#45;&gt;Node23 -->
<g id="edge46" class="edge"><title>Node1&#45;&gt;Node23</title>
<path fill="none" stroke="midnightblue" d="M918.661,-391.309C898.282,-364.762 866.276,-323.07 845.215,-295.636"/>
<polygon fill="midnightblue" stroke="midnightblue" points="847.921,-293.413 839.056,-287.612 842.369,-297.675 847.921,-293.413"/>
</g>
<!-- Node24 -->
<g id="node24" class="node"><title>Node24</title>
<g id="a_node24"><a xlink:href="ActionMultiplePinchTight_8h.html" target="_top" xlink:title="ros_end_effector/Grasping\lActions/ActionMultiplePinchTight.h">
<polygon fill="none" stroke="black" points="418.5,-324.5 418.5,-354.5 597.5,-354.5 597.5,-324.5 418.5,-324.5"/>
<text text-anchor="start" x="426.5" y="-342.5" font-family="Helvetica,sans-Serif" font-size="10.00">ros_end_effector/Grasping</text>
<text text-anchor="middle" x="508" y="-331.5" font-family="Helvetica,sans-Serif" font-size="10.00">Actions/ActionMultiplePinchTight.h</text>
</a>
</g>
</g>
<!-- Node1&#45;&gt;Node24 -->
<g id="edge50" class="edge"><title>Node1&#45;&gt;Node24</title>
<path fill="none" stroke="midnightblue" d="M848.381,-400.66C774.802,-387.656 671.108,-369.328 597.548,-356.327"/>
<polygon fill="midnightblue" stroke="midnightblue" points="597.831,-352.823 587.375,-354.529 596.613,-359.716 597.831,-352.823"/>
</g>
<!-- Node25 -->
<g id="node25" class="node"><title>Node25</title>
<g id="a_node25"><a xlink:href="ActionComposed_8h.html" target="_top" xlink:title="ros_end_effector/Grasping\lActions/ActionComposed.h">
<polygon fill="none" stroke="black" points="1180,-252 1180,-282 1326,-282 1326,-252 1180,-252"/>
<text text-anchor="start" x="1188" y="-270" font-family="Helvetica,sans-Serif" font-size="10.00">ros_end_effector/Grasping</text>
<text text-anchor="middle" x="1253" y="-259" font-family="Helvetica,sans-Serif" font-size="10.00">Actions/ActionComposed.h</text>
</a>
</g>
</g>
<!-- Node1&#45;&gt;Node25 -->
<g id="edge55" class="edge"><title>Node1&#45;&gt;Node25</title>
<path fill="none" stroke="midnightblue" d="M1027.72,-403.501C1071.53,-394.436 1123.77,-379.429 1166,-355 1194.8,-338.341 1220.76,-309.75 1236.67,-289.912"/>
<polygon fill="midnightblue" stroke="midnightblue" points="1239.45,-292.039 1242.86,-282.006 1233.94,-287.725 1239.45,-292.039"/>
</g>
<!-- Node27 -->
<g id="node27" class="node"><title>Node27</title>
<g id="a_node27"><a xlink:href="ActionTimed_8h.html" target="_top" xlink:title="ros_end_effector/Grasping\lActions/ActionTimed.h">
<polygon fill="none" stroke="black" points="942.5,-179.5 942.5,-209.5 1085.5,-209.5 1085.5,-179.5 942.5,-179.5"/>
<text text-anchor="start" x="950.5" y="-197.5" font-family="Helvetica,sans-Serif" font-size="10.00">ros_end_effector/Grasping</text>
<text text-anchor="middle" x="1014" y="-186.5" font-family="Helvetica,sans-Serif" font-size="10.00">Actions/ActionTimed.h</text>
</a>
</g>
</g>
<!-- Node1&#45;&gt;Node27 -->
<g id="edge65" class="edge"><title>Node1&#45;&gt;Node27</title>
<path fill="none" stroke="midnightblue" d="M964.877,-391.21C974.288,-380.877 983.996,-368.244 990,-355 1010.17,-310.512 1013.99,-252.598 1014.39,-220.209"/>
<polygon fill="midnightblue" stroke="midnightblue" points="1017.89,-219.887 1014.4,-209.881 1010.89,-219.876 1017.89,-219.887"/>
</g>
<!-- Node4&#45;&gt;Node2 -->
<g id="edge5" class="edge"><title>Node4&#45;&gt;Node2</title>
<path fill="none" stroke="midnightblue" d="M1345.22,-56.4435C1379.73,-46.9836 1435.35,-31.7377 1472.52,-21.5465"/>
<polygon fill="midnightblue" stroke="midnightblue" points="1473.77,-24.8343 1482.49,-18.8151 1471.92,-18.0833 1473.77,-24.8343"/>
</g>
<!-- Node5 -->
<g id="node5" class="node"><title>Node5</title>
<polygon fill="none" stroke="#bfbfbf" points="1417.5,-0.5 1417.5,-19.5 1464.5,-19.5 1464.5,-0.5 1417.5,-0.5"/>
<text text-anchor="middle" x="1441" y="-7.5" font-family="Helvetica,sans-Serif" font-size="10.00">cmath</text>
</g>
<!-- Node4&#45;&gt;Node5 -->
<g id="edge4" class="edge"><title>Node4&#45;&gt;Node5</title>
<path fill="none" stroke="midnightblue" d="M1334.12,-56.4435C1355.02,-47.5566 1387.93,-33.5632 1411.72,-23.4514"/>
<polygon fill="midnightblue" stroke="midnightblue" points="1413.14,-26.6504 1420.97,-19.5164 1410.4,-20.2085 1413.14,-26.6504"/>
</g>
<!-- Node6 -->
<g id="node6" class="node"><title>Node6</title>
<polygon fill="none" stroke="#bfbfbf" points="426.5,-0.5 426.5,-19.5 485.5,-19.5 485.5,-0.5 426.5,-0.5"/>
<text text-anchor="middle" x="456" y="-7.5" font-family="Helvetica,sans-Serif" font-size="10.00">iostream</text>
</g>
<!-- Node4&#45;&gt;Node6 -->
<g id="edge6" class="edge"><title>Node4&#45;&gt;Node6</title>
<path fill="none" stroke="midnightblue" d="M1248.94,-58.8549C1237.31,-57.8391 1225.3,-56.8436 1214,-56 939.55,-35.508 608.634,-18.5119 495.863,-12.9377"/>
<polygon fill="midnightblue" stroke="midnightblue" points="495.8,-9.43044 485.64,-12.4342 495.456,-16.422 495.8,-9.43044"/>
</g>
<!-- Node7 -->
<g id="node7" class="node"><title>Node7</title>
<polygon fill="none" stroke="#bfbfbf" points="1009,-0.5 1009,-19.5 1057,-19.5 1057,-0.5 1009,-0.5"/>
<text text-anchor="middle" x="1033" y="-7.5" font-family="Helvetica,sans-Serif" font-size="10.00">dlfcn.h</text>
</g>
<!-- Node4&#45;&gt;Node7 -->
<g id="edge7" class="edge"><title>Node4&#45;&gt;Node7</title>
<path fill="none" stroke="midnightblue" d="M1259.05,-56.4348C1210.88,-48.6083 1138.77,-36.1278 1067.19,-20.1124"/>
<polygon fill="midnightblue" stroke="midnightblue" points="1067.62,-16.6215 1057.09,-17.8292 1066.07,-23.4491 1067.62,-16.6215"/>
</g>
<!-- Node8 -->
<g id="node8" class="node"><title>Node8</title>
<polygon fill="none" stroke="#bfbfbf" points="1075,-0.5 1075,-19.5 1191,-19.5 1191,-0.5 1075,-0.5"/>
<text text-anchor="middle" x="1133" y="-7.5" font-family="Helvetica,sans-Serif" font-size="10.00">boost/filesystem.hpp</text>
</g>
<!-- Node4&#45;&gt;Node8 -->
<g id="edge8" class="edge"><title>Node4&#45;&gt;Node8</title>
<path fill="none" stroke="midnightblue" d="M1285.32,-56.4435C1254.47,-47.2406 1205.27,-32.5617 1171.17,-22.3879"/>
<polygon fill="midnightblue" stroke="midnightblue" points="1172.13,-19.0215 1161.55,-19.5164 1170.13,-25.7293 1172.13,-19.0215"/>
</g>
<!-- Node9 -->
<g id="node9" class="node"><title>Node9</title>
<polygon fill="none" stroke="#bfbfbf" points="1209,-0.5 1209,-19.5 1263,-19.5 1263,-0.5 1209,-0.5"/>
<text text-anchor="middle" x="1236" y="-7.5" font-family="Helvetica,sans-Serif" font-size="10.00">fstream</text>
</g>
<!-- Node4&#45;&gt;Node9 -->
<g id="edge9" class="edge"><title>Node4&#45;&gt;Node9</title>
<path fill="none" stroke="midnightblue" d="M1301.47,-56.324C1289.41,-47.979 1270.97,-35.2122 1256.73,-25.3524"/>
<polygon fill="midnightblue" stroke="midnightblue" points="1258.72,-22.469 1248.5,-19.6545 1254.73,-28.2243 1258.72,-22.469"/>
</g>
<!-- Node10 -->
<g id="node10" class="node"><title>Node10</title>
<polygon fill="none" stroke="#bfbfbf" points="1281,-0.5 1281,-19.5 1331,-19.5 1331,-0.5 1281,-0.5"/>
<text text-anchor="middle" x="1306" y="-7.5" font-family="Helvetica,sans-Serif" font-size="10.00">chrono</text>
</g>
<!-- Node4&#45;&gt;Node10 -->
<g id="edge10" class="edge"><title>Node4&#45;&gt;Node10</title>
<path fill="none" stroke="midnightblue" d="M1312.68,-56.083C1311.62,-48.9272 1310.09,-38.6353 1308.77,-29.6911"/>
<polygon fill="midnightblue" stroke="midnightblue" points="1312.22,-29.1302 1307.3,-19.7511 1305.3,-30.1561 1312.22,-29.1302"/>
</g>
<!-- Node11 -->
<g id="node11" class="node"><title>Node11</title>
<polygon fill="none" stroke="#bfbfbf" points="1349,-0.5 1349,-19.5 1399,-19.5 1399,-0.5 1349,-0.5"/>
<text text-anchor="middle" x="1374" y="-7.5" font-family="Helvetica,sans-Serif" font-size="10.00">atomic</text>
</g>
<!-- Node4&#45;&gt;Node11 -->
<g id="edge11" class="edge"><title>Node4&#45;&gt;Node11</title>
<path fill="none" stroke="midnightblue" d="M1323.64,-56.324C1332.51,-48.3414 1345.87,-36.3128 1356.61,-26.6529"/>
<polygon fill="midnightblue" stroke="midnightblue" points="1359.09,-29.1251 1364.18,-19.8339 1354.41,-23.922 1359.09,-29.1251"/>
</g>
<!-- Node12&#45;&gt;Node2 -->
<g id="edge17" class="edge"><title>Node12&#45;&gt;Node2</title>
<path fill="none" stroke="midnightblue" d="M1273.41,-112.467C1307.51,-103.621 1350.82,-91.0362 1388,-76 1424.37,-61.2908 1464.11,-39.0781 1488.3,-24.8063"/>
<polygon fill="midnightblue" stroke="midnightblue" points="1490.26,-27.7067 1497.06,-19.5788 1486.68,-21.6946 1490.26,-27.7067"/>
</g>
<!-- Node12&#45;&gt;Node3 -->
<g id="edge16" class="edge"><title>Node12&#45;&gt;Node3</title>
<path fill="none" stroke="midnightblue" d="M1142.24,-117.7C1125.14,-115.715 1106.93,-113.696 1090,-112 915.384,-94.5063 708.464,-78.5722 609.464,-71.2436"/>
<polygon fill="midnightblue" stroke="midnightblue" points="609.596,-67.7438 599.365,-70.4981 609.08,-74.7248 609.596,-67.7438"/>
</g>
<!-- Node12&#45;&gt;Node4 -->
<g id="edge19" class="edge"><title>Node12&#45;&gt;Node4</title>
<path fill="none" stroke="midnightblue" d="M1237.7,-112.399C1253.73,-102.862 1274.8,-90.3248 1290.74,-80.8422"/>
<polygon fill="midnightblue" stroke="midnightblue" points="1292.64,-83.779 1299.45,-75.6578 1289.07,-77.7633 1292.64,-83.779"/>
</g>
<!-- Node12&#45;&gt;Node6 -->
<g id="edge18" class="edge"><title>Node12&#45;&gt;Node6</title>
<path fill="none" stroke="midnightblue" d="M1206.12,-112.408C1195.87,-95.6152 1176.24,-68.287 1151,-56 1092.13,-27.3382 635.318,-14.9627 496.124,-11.8327"/>
<polygon fill="midnightblue" stroke="midnightblue" points="495.979,-8.32872 485.904,-11.6067 495.824,-15.327 495.979,-8.32872"/>
</g>
<!-- Node13 -->
<g id="node13" class="node"><title>Node13</title>
<polygon fill="none" stroke="#bfbfbf" points="1095.5,-56.5 1095.5,-75.5 1142.5,-75.5 1142.5,-56.5 1095.5,-56.5"/>
<text text-anchor="middle" x="1119" y="-63.5" font-family="Helvetica,sans-Serif" font-size="10.00">vector</text>
</g>
<!-- Node12&#45;&gt;Node13 -->
<g id="edge13" class="edge"><title>Node12&#45;&gt;Node13</title>
<path fill="none" stroke="midnightblue" d="M1191.49,-112.399C1176.4,-102.951 1156.61,-90.5589 1141.53,-81.1089"/>
<polygon fill="midnightblue" stroke="midnightblue" points="1143.16,-77.9996 1132.82,-75.6578 1139.44,-83.9321 1143.16,-77.9996"/>
</g>
<!-- Node14 -->
<g id="node14" class="node"><title>Node14</title>
<polygon fill="none" stroke="#bfbfbf" points="976,-56.5 976,-75.5 1020,-75.5 1020,-56.5 976,-56.5"/>
<text text-anchor="middle" x="998" y="-63.5" font-family="Helvetica,sans-Serif" font-size="10.00">string</text>
</g>
<!-- Node12&#45;&gt;Node14 -->
<g id="edge14" class="edge"><title>Node12&#45;&gt;Node14</title>
<path fill="none" stroke="midnightblue" d="M1163.08,-112.475C1121.76,-101.092 1064.8,-85.4003 1029.73,-75.7416"/>
<polygon fill="midnightblue" stroke="midnightblue" points="1030.6,-72.3491 1020.03,-73.0676 1028.74,-79.0977 1030.6,-72.3491"/>
</g>
<!-- Node15 -->
<g id="node15" class="node"><title>Node15</title>
<polygon fill="none" stroke="#bfbfbf" points="905,-56.5 905,-75.5 943,-75.5 943,-56.5 905,-56.5"/>
<text text-anchor="middle" x="924" y="-63.5" font-family="Helvetica,sans-Serif" font-size="10.00">map</text>
</g>
<!-- Node12&#45;&gt;Node15 -->
<g id="edge15" class="edge"><title>Node12&#45;&gt;Node15</title>
<path fill="none" stroke="midnightblue" d="M1145.04,-112.491C1095.5,-102.403 1027.11,-88.436 967,-76 962.509,-75.071 957.756,-74.0819 953.111,-73.1122"/>
<polygon fill="midnightblue" stroke="midnightblue" points="953.766,-69.6734 943.261,-71.0513 952.332,-76.525 953.766,-69.6734"/>
</g>
<!-- Node16&#45;&gt;Node3 -->
<g id="edge27" class="edge"><title>Node16&#45;&gt;Node3</title>
<path fill="none" stroke="midnightblue" d="M742.22,-183.183C705.921,-175.776 662.219,-163.38 627,-143 600.594,-127.72 576.917,-100.957 563.254,-83.6119"/>
<polygon fill="midnightblue" stroke="midnightblue" points="565.915,-81.3293 557.061,-75.5105 560.354,-85.5807 565.915,-81.3293"/>
</g>
<!-- Node16&#45;&gt;Node6 -->
<g id="edge25" class="edge"><title>Node16&#45;&gt;Node6</title>
<path fill="none" stroke="midnightblue" d="M796.896,-179.44C762.89,-152.108 683.536,-91.3948 608,-56 571.505,-38.899 527.023,-26.6374 495.635,-19.2746"/>
<polygon fill="midnightblue" stroke="midnightblue" points="496.051,-15.7795 485.522,-16.9655 494.492,-22.6039 496.051,-15.7795"/>
</g>
<!-- Node16&#45;&gt;Node12 -->
<g id="edge26" class="edge"><title>Node16&#45;&gt;Node12</title>
<path fill="none" stroke="midnightblue" d="M885.512,-181.879C954.834,-170.614 1059.87,-153.546 1132.42,-141.757"/>
<polygon fill="midnightblue" stroke="midnightblue" points="1133.12,-145.188 1142.43,-140.129 1132,-138.279 1133.12,-145.188"/>
</g>
<!-- Node16&#45;&gt;Node13 -->
<g id="edge24" class="edge"><title>Node16&#45;&gt;Node13</title>
<path fill="none" stroke="midnightblue" d="M847.806,-179.479C907.648,-154.659 1031.31,-103.372 1088.61,-79.6024"/>
<polygon fill="midnightblue" stroke="midnightblue" points="1090.3,-82.6944 1098.19,-75.6303 1087.61,-76.2285 1090.3,-82.6944"/>
</g>
<!-- Node16&#45;&gt;Node14 -->
<g id="edge22" class="edge"><title>Node16&#45;&gt;Node14</title>
<path fill="none" stroke="midnightblue" d="M834.394,-179.479C869.438,-155.386 940.758,-106.354 976.53,-81.7608"/>
<polygon fill="midnightblue" stroke="midnightblue" points="978.959,-84.338 985.217,-75.7885 974.993,-78.5697 978.959,-84.338"/>
</g>
<!-- Node16&#45;&gt;Node15 -->
<g id="edge23" class="edge"><title>Node16&#45;&gt;Node15</title>
<path fill="none" stroke="midnightblue" d="M822.514,-179.482C833.078,-162.615 852.137,-133.842 872,-112 881.915,-101.097 894.358,-90.2461 904.586,-81.932"/>
<polygon fill="midnightblue" stroke="midnightblue" points="906.903,-84.5617 912.553,-75.5992 902.547,-79.0821 906.903,-84.5617"/>
</g>
<!-- Node17 -->
<g id="node17" class="node"><title>Node17</title>
<polygon fill="none" stroke="#bfbfbf" points="636,-118 636,-137 668,-137 668,-118 636,-118"/>
<text text-anchor="middle" x="652" y="-125" font-family="Helvetica,sans-Serif" font-size="10.00">set</text>
</g>
<!-- Node16&#45;&gt;Node17 -->
<g id="edge21" class="edge"><title>Node16&#45;&gt;Node17</title>
<path fill="none" stroke="midnightblue" d="M774.663,-179.445C748.232,-169.758 712.746,-156.283 682,-143 680.43,-142.322 678.823,-141.607 677.207,-140.873"/>
<polygon fill="midnightblue" stroke="midnightblue" points="678.615,-137.667 668.076,-136.58 675.637,-144.002 678.615,-137.667"/>
</g>
<!-- Node18&#45;&gt;Node3 -->
<g id="edge34" class="edge"><title>Node18&#45;&gt;Node3</title>
<path fill="none" stroke="midnightblue" d="M316.012,-324.253C308.257,-314.747 299.135,-301.546 295,-288 289.55,-270.147 287.209,-262.963 295,-246 337.347,-153.801 454.521,-100.762 514.539,-78.8869"/>
<polygon fill="midnightblue" stroke="midnightblue" points="515.758,-82.1684 524.008,-75.522 513.414,-75.5725 515.758,-82.1684"/>
</g>
<!-- Node18&#45;&gt;Node6 -->
<g id="edge35" class="edge"><title>Node18&#45;&gt;Node6</title>
<path fill="none" stroke="midnightblue" d="M257.206,-337.706C160.401,-332.405 0,-306.826 0,-195.5 0,-195.5 0,-195.5 0,-126.5 0,-40.9573 305.366,-18.0728 416.318,-12.5811"/>
<polygon fill="midnightblue" stroke="midnightblue" points="416.609,-16.0714 426.432,-12.1024 416.278,-9.07921 416.609,-16.0714"/>
</g>
<!-- Node19 -->
<g id="node19" class="node"><title>Node19</title>
<g id="a_node19"><a xlink:href="ActionPinchGeneric_8h.html" target="_top" xlink:title="ros_end_effector/Grasping\lActions/ActionPinchGeneric.h">
<polygon fill="none" stroke="black" points="304,-252 304,-282 460,-282 460,-252 304,-252"/>
<text text-anchor="start" x="312" y="-270" font-family="Helvetica,sans-Serif" font-size="10.00">ros_end_effector/Grasping</text>
<text text-anchor="middle" x="382" y="-259" font-family="Helvetica,sans-Serif" font-size="10.00">Actions/ActionPinchGeneric.h</text>
</a>
</g>
</g>
<!-- Node18&#45;&gt;Node19 -->
<g id="edge29" class="edge"><title>Node18&#45;&gt;Node19</title>
<path fill="none" stroke="midnightblue" d="M339.725,-324.233C347.053,-314.486 356.91,-301.374 365.263,-290.263"/>
<polygon fill="midnightblue" stroke="midnightblue" points="368.079,-292.342 371.291,-282.246 362.484,-288.136 368.079,-292.342"/>
</g>
<!-- Node20 -->
<g id="node20" class="node"><title>Node20</title>
<polygon fill="none" stroke="#bfbfbf" points="516.5,-252 516.5,-282 643.5,-282 643.5,-252 516.5,-252"/>
<text text-anchor="start" x="524.5" y="-270" font-family="Helvetica,sans-Serif" font-size="10.00">moveit/planning_scene</text>
<text text-anchor="middle" x="580" y="-259" font-family="Helvetica,sans-Serif" font-size="10.00">/planning_scene.h</text>
</g>
<!-- Node18&#45;&gt;Node20 -->
<g id="edge33" class="edge"><title>Node18&#45;&gt;Node20</title>
<path fill="none" stroke="midnightblue" d="M378.89,-324.487C419.476,-313.087 476.883,-296.963 519.98,-284.858"/>
<polygon fill="midnightblue" stroke="midnightblue" points="521.095,-288.181 529.776,-282.107 519.202,-281.441 521.095,-288.181"/>
</g>
<!-- Node19&#45;&gt;Node3 -->
<g id="edge31" class="edge"><title>Node19&#45;&gt;Node3</title>
<path fill="none" stroke="midnightblue" d="M388.382,-251.818C401.948,-222.841 436.039,-155.881 480,-112 492.794,-99.2295 509.829,-88.2819 524.006,-80.3829"/>
<polygon fill="midnightblue" stroke="midnightblue" points="525.68,-83.4567 532.837,-75.6439 522.37,-77.2888 525.68,-83.4567"/>
</g>
<!-- Node19&#45;&gt;Node6 -->
<g id="edge32" class="edge"><title>Node19&#45;&gt;Node6</title>
<path fill="none" stroke="midnightblue" d="M385.89,-251.959C395.282,-218.151 420.047,-129.577 442,-56 444.635,-47.1686 447.662,-37.3968 450.225,-29.2219"/>
<polygon fill="midnightblue" stroke="midnightblue" points="453.587,-30.1983 453.256,-19.6086 446.911,-28.0932 453.587,-30.1983"/>
</g>
<!-- Node19&#45;&gt;Node16 -->
<g id="edge30" class="edge"><title>Node19&#45;&gt;Node16</title>
<path fill="none" stroke="midnightblue" d="M460.232,-253.233C537.139,-240.682 654.036,-221.605 732.164,-208.855"/>
<polygon fill="midnightblue" stroke="midnightblue" points="733.14,-212.242 742.445,-207.177 732.012,-205.334 733.14,-212.242"/>
</g>
<!-- Node21&#45;&gt;Node3 -->
<g id="edge40" class="edge"><title>Node21&#45;&gt;Node3</title>
<path fill="none" stroke="midnightblue" d="M701.395,-324.334C702.568,-304.959 702.001,-269.883 686,-246 668.69,-220.164 650.137,-229.61 626,-210 594.511,-184.417 581.94,-179.389 564,-143 555.141,-125.03 552.197,-102.094 551.28,-86.1414"/>
<polygon fill="midnightblue" stroke="midnightblue" points="554.77,-85.799 550.915,-75.9305 547.775,-86.0492 554.77,-85.799"/>
</g>
<!-- Node21&#45;&gt;Node6 -->
<g id="edge41" class="edge"><title>Node21&#45;&gt;Node6</title>
<path fill="none" stroke="midnightblue" d="M695.644,-324.359C688.983,-304.696 674.608,-268.935 652,-246 628.269,-221.926 610.108,-232.634 585,-210 531.53,-161.797 532.411,-136.887 494,-76 483.996,-60.1422 473.273,-41.6487 465.777,-28.4514"/>
<polygon fill="midnightblue" stroke="midnightblue" points="468.702,-26.5126 460.739,-19.5232 462.605,-29.9524 468.702,-26.5126"/>
</g>
<!-- Node21&#45;&gt;Node16 -->
<g id="edge37" class="edge"><title>Node21&#45;&gt;Node16</title>
<path fill="none" stroke="midnightblue" d="M774.11,-331.136C830.045,-323.868 900.112,-310.506 918,-288 929.615,-273.387 927.906,-261.822 918,-246 909.047,-231.7 894.762,-221.347 879.61,-213.889"/>
<polygon fill="midnightblue" stroke="midnightblue" points="880.66,-210.524 870.105,-209.611 877.787,-216.907 880.66,-210.524"/>
</g>
<!-- Node21&#45;&gt;Node19 -->
<g id="edge38" class="edge"><title>Node21&#45;&gt;Node19</title>
<path fill="none" stroke="midnightblue" d="M636.793,-324.487C584.53,-312.9 510.252,-296.433 455.371,-284.266"/>
<polygon fill="midnightblue" stroke="midnightblue" points="455.879,-280.794 445.359,-282.047 454.364,-287.628 455.879,-280.794"/>
</g>
<!-- Node21&#45;&gt;Node20 -->
<g id="edge39" class="edge"><title>Node21&#45;&gt;Node20</title>
<path fill="none" stroke="midnightblue" d="M676.005,-324.403C657.855,-313.74 632.73,-298.979 612.736,-287.232"/>
<polygon fill="midnightblue" stroke="midnightblue" points="614.349,-284.121 603.954,-282.073 610.803,-290.156 614.349,-284.121"/>
</g>
<!-- Node22&#45;&gt;Node3 -->
<g id="edge44" class="edge"><title>Node22&#45;&gt;Node3</title>
<path fill="none" stroke="midnightblue" d="M179.453,-251.673C187.759,-220.557 211.981,-146.809 262,-112 298.373,-86.6871 419.49,-74.9726 492.885,-70.0804"/>
<polygon fill="midnightblue" stroke="midnightblue" points="493.157,-73.5703 502.911,-69.4347 492.707,-66.5847 493.157,-73.5703"/>
</g>
<!-- Node22&#45;&gt;Node6 -->
<g id="edge45" class="edge"><title>Node22&#45;&gt;Node6</title>
<path fill="none" stroke="midnightblue" d="M176.331,-251.663C177.845,-221.177 185.85,-149.635 227,-112 282.23,-61.4879 366.81,-33.2247 416.241,-20.1381"/>
<polygon fill="midnightblue" stroke="midnightblue" points="417.416,-23.4499 426.232,-17.5734 415.676,-16.6698 417.416,-23.4499"/>
</g>
<!-- Node22&#45;&gt;Node16 -->
<g id="edge43" class="edge"><title>Node22&#45;&gt;Node16</title>
<path fill="none" stroke="midnightblue" d="M247.616,-253.135C263.205,-250.567 279.632,-248.037 295,-246 449.008,-225.591 629.755,-209.851 732.189,-201.692"/>
<polygon fill="midnightblue" stroke="midnightblue" points="732.769,-205.157 742.462,-200.878 732.217,-198.179 732.769,-205.157"/>
</g>
<!-- Node23&#45;&gt;Node3 -->
<g id="edge48" class="edge"><title>Node23&#45;&gt;Node3</title>
<path fill="none" stroke="midnightblue" d="M759.312,-246.446C706.664,-227.569 633.679,-194.226 587,-143 571.835,-126.357 561.877,-102.186 556.355,-85.5956"/>
<polygon fill="midnightblue" stroke="midnightblue" points="559.666,-84.4557 553.358,-75.9438 552.981,-86.532 559.666,-84.4557"/>
</g>
<!-- Node23&#45;&gt;Node6 -->
<g id="edge49" class="edge"><title>Node23&#45;&gt;Node6</title>
<path fill="none" stroke="midnightblue" d="M782.814,-246.439C765.99,-237.063 747.192,-224.661 733,-210 698.109,-173.956 709.474,-150.236 677,-112 651.433,-81.8963 642.944,-74.4062 608,-56 572.232,-37.1597 527.465,-25.1244 495.803,-18.2878"/>
<polygon fill="midnightblue" stroke="midnightblue" points="496.103,-14.7754 485.6,-16.1662 494.678,-21.6288 496.103,-14.7754"/>
</g>
<!-- Node23&#45;&gt;Node16 -->
<g id="edge47" class="edge"><title>Node23&#45;&gt;Node16</title>
<path fill="none" stroke="midnightblue" d="M821.214,-246.362C820.048,-238.136 818.679,-228.488 817.449,-219.819"/>
<polygon fill="midnightblue" stroke="midnightblue" points="820.911,-219.301 816.041,-209.892 813.981,-220.284 820.911,-219.301"/>
</g>
<!-- Node24&#45;&gt;Node3 -->
<g id="edge53" class="edge"><title>Node24&#45;&gt;Node3</title>
<path fill="none" stroke="midnightblue" d="M505.711,-324.382C500.394,-287.849 489.708,-187.778 518,-112 521.882,-101.602 528.898,-91.4987 535.466,-83.5084"/>
<polygon fill="midnightblue" stroke="midnightblue" points="538.299,-85.5854 542.248,-75.7536 533.03,-80.9774 538.299,-85.5854"/>
</g>
<!-- Node24&#45;&gt;Node6 -->
<g id="edge54" class="edge"><title>Node24&#45;&gt;Node6</title>
<path fill="none" stroke="midnightblue" d="M418.439,-325.254C415.254,-324.824 412.1,-324.405 409,-324 339.356,-314.91 146.81,-335.42 95,-288 64.0403,-259.664 76,-237.469 76,-195.5 76,-195.5 76,-195.5 76,-126.5 76,-55.8969 319.172,-24.3408 416.463,-14.5409"/>
<polygon fill="midnightblue" stroke="midnightblue" points="416.888,-18.016 426.498,-13.5554 416.204,-11.0495 416.888,-18.016"/>
</g>
<!-- Node24&#45;&gt;Node19 -->
<g id="edge51" class="edge"><title>Node24&#45;&gt;Node19</title>
<path fill="none" stroke="midnightblue" d="M482.805,-324.403C463.662,-313.692 437.129,-298.846 416.089,-287.074"/>
<polygon fill="midnightblue" stroke="midnightblue" points="417.587,-283.901 407.151,-282.073 414.169,-290.01 417.587,-283.901"/>
</g>
<!-- Node24&#45;&gt;Node20 -->
<g id="edge52" class="edge"><title>Node24&#45;&gt;Node20</title>
<path fill="none" stroke="midnightblue" d="M522.57,-324.233C532.817,-314.2 546.706,-300.6 558.259,-289.288"/>
<polygon fill="midnightblue" stroke="midnightblue" points="560.755,-291.743 565.451,-282.246 555.858,-286.741 560.755,-291.743"/>
</g>
<!-- Node25&#45;&gt;Node2 -->
<g id="edge64" class="edge"><title>Node25&#45;&gt;Node2</title>
<path fill="none" stroke="midnightblue" d="M1305.25,-251.967C1331.29,-243.068 1362.04,-229.492 1385,-210 1446.55,-157.755 1488.11,-67.7296 1503.9,-29.275"/>
<polygon fill="midnightblue" stroke="midnightblue" points="1507.2,-30.4552 1507.66,-19.8707 1500.7,-27.8529 1507.2,-30.4552"/>
</g>
<!-- Node25&#45;&gt;Node3 -->
<g id="edge63" class="edge"><title>Node25&#45;&gt;Node3</title>
<path fill="none" stroke="midnightblue" d="M1179.78,-263.441C1112.9,-258.767 1012.61,-245.782 933,-210 912.804,-200.922 914.032,-188.434 894,-179 824.13,-146.094 795.258,-172.782 724,-143 700.912,-133.35 699.388,-123.177 677,-112 649.205,-98.1231 616.061,-86.4633 590.744,-78.4917"/>
<polygon fill="midnightblue" stroke="midnightblue" points="591.694,-75.1221 581.106,-75.5156 589.628,-81.8104 591.694,-75.1221"/>
</g>
<!-- Node25&#45;&gt;Node4 -->
<g id="edge62" class="edge"><title>Node25&#45;&gt;Node4</title>
<path fill="none" stroke="midnightblue" d="M1309.24,-251.987C1330.86,-243.562 1353.36,-230.372 1366,-210 1392.13,-167.891 1352.04,-110.708 1328.75,-83.1548"/>
<polygon fill="midnightblue" stroke="midnightblue" points="1331.37,-80.8324 1322.15,-75.6045 1326.1,-85.438 1331.37,-80.8324"/>
</g>
<!-- Node25&#45;&gt;Node13 -->
<g id="edge56" class="edge"><title>Node25&#45;&gt;Node13</title>
<path fill="none" stroke="midnightblue" d="M1285.9,-251.901C1302.98,-242.677 1322.27,-228.817 1332,-210 1353.45,-168.501 1331.1,-140.393 1294,-112 1252.44,-80.1936 1190.74,-70.7312 1152.79,-67.9985"/>
<polygon fill="midnightblue" stroke="midnightblue" points="1152.94,-64.5016 1142.75,-67.3932 1152.52,-71.4889 1152.94,-64.5016"/>
</g>
<!-- Node25&#45;&gt;Node14 -->
<g id="edge57" class="edge"><title>Node25&#45;&gt;Node14</title>
<path fill="none" stroke="midnightblue" d="M1231.04,-251.792C1214.3,-240.777 1190.84,-224.924 1171,-210 1112.37,-165.89 1046.39,-109.304 1015.6,-82.4595"/>
<polygon fill="midnightblue" stroke="midnightblue" points="1017.71,-79.6591 1007.88,-75.7116 1013.1,-84.9288 1017.71,-79.6591"/>
</g>
<!-- Node26 -->
<g id="node26" class="node"><title>Node26</title>
<g id="a_node26"><a xlink:href="ActionGeneric_8h.html" target="_top" xlink:title="ros_end_effector/Grasping\lActions/ActionGeneric.h">
<polygon fill="none" stroke="black" points="1180.5,-179.5 1180.5,-209.5 1323.5,-209.5 1323.5,-179.5 1180.5,-179.5"/>
<text text-anchor="start" x="1188.5" y="-197.5" font-family="Helvetica,sans-Serif" font-size="10.00">ros_end_effector/Grasping</text>
<text text-anchor="middle" x="1252" y="-186.5" font-family="Helvetica,sans-Serif" font-size="10.00">Actions/ActionGeneric.h</text>
</a>
</g>
</g>
<!-- Node25&#45;&gt;Node26 -->
<g id="edge58" class="edge"><title>Node25&#45;&gt;Node26</title>
<path fill="none" stroke="midnightblue" d="M1252.8,-251.733C1252.67,-242.655 1252.5,-230.658 1252.35,-220.077"/>
<polygon fill="midnightblue" stroke="midnightblue" points="1255.84,-219.695 1252.2,-209.746 1248.84,-219.794 1255.84,-219.695"/>
</g>
<!-- Node26&#45;&gt;Node3 -->
<g id="edge60" class="edge"><title>Node26&#45;&gt;Node3</title>
<path fill="none" stroke="midnightblue" d="M1180.28,-180.557C1040.81,-155.389 735.625,-100.317 608.433,-77.3641"/>
<polygon fill="midnightblue" stroke="midnightblue" points="608.961,-73.9029 598.498,-75.5713 607.717,-80.7916 608.961,-73.9029"/>
</g>
<!-- Node26&#45;&gt;Node4 -->
<g id="edge61" class="edge"><title>Node26&#45;&gt;Node4</title>
<path fill="none" stroke="midnightblue" d="M1287.14,-179.451C1302.61,-171.287 1319.24,-159.335 1328,-143 1337.78,-124.765 1330.69,-100.919 1323.52,-84.8404"/>
<polygon fill="midnightblue" stroke="midnightblue" points="1326.5,-82.9769 1318.96,-75.5329 1320.21,-86.0536 1326.5,-82.9769"/>
</g>
<!-- Node26&#45;&gt;Node12 -->
<g id="edge59" class="edge"><title>Node26&#45;&gt;Node12</title>
<path fill="none" stroke="midnightblue" d="M1243.75,-179.396C1238.97,-171.219 1232.84,-160.725 1227.38,-151.393"/>
<polygon fill="midnightblue" stroke="midnightblue" points="1230.3,-149.443 1222.23,-142.577 1224.25,-152.976 1230.3,-149.443"/>
</g>
<!-- Node27&#45;&gt;Node3 -->
<g id="edge71" class="edge"><title>Node27&#45;&gt;Node3</title>
<path fill="none" stroke="midnightblue" d="M962.682,-179.479C870.033,-154.166 676.622,-101.322 592.059,-78.218"/>
<polygon fill="midnightblue" stroke="midnightblue" points="592.869,-74.8111 582.3,-75.5517 591.024,-81.5636 592.869,-74.8111"/>
</g>
<!-- Node27&#45;&gt;Node4 -->
<g id="edge70" class="edge"><title>Node27&#45;&gt;Node4</title>
<path fill="none" stroke="midnightblue" d="M1085.81,-184.6C1163.63,-174.325 1278.81,-157.038 1294,-143 1309.78,-128.416 1313.72,-103.01 1314.41,-85.6187"/>
<polygon fill="midnightblue" stroke="midnightblue" points="1317.91,-85.5681 1314.48,-75.5415 1310.91,-85.5144 1317.91,-85.5681"/>
</g>
<!-- Node27&#45;&gt;Node12 -->
<g id="edge69" class="edge"><title>Node27&#45;&gt;Node12</title>
<path fill="none" stroke="midnightblue" d="M1057.4,-179.396C1087.8,-169.515 1128.61,-156.252 1160.94,-145.743"/>
<polygon fill="midnightblue" stroke="midnightblue" points="1162.26,-148.996 1170.69,-142.577 1160.1,-142.339 1162.26,-148.996"/>
</g>
<!-- Node27&#45;&gt;Node13 -->
<g id="edge66" class="edge"><title>Node27&#45;&gt;Node13</title>
<path fill="none" stroke="midnightblue" d="M1025.64,-179.479C1045.13,-156.001 1084.27,-108.841 1105.15,-83.6915"/>
<polygon fill="midnightblue" stroke="midnightblue" points="1108.01,-85.7186 1111.71,-75.7885 1102.63,-81.2478 1108.01,-85.7186"/>
</g>
<!-- Node27&#45;&gt;Node14 -->
<g id="edge67" class="edge"><title>Node27&#45;&gt;Node14</title>
<path fill="none" stroke="midnightblue" d="M1012.23,-179.479C1009.33,-156.616 1003.6,-111.296 1000.37,-85.7129"/>
<polygon fill="midnightblue" stroke="midnightblue" points="1003.84,-85.2703 999.112,-75.7885 996.894,-86.1487 1003.84,-85.2703"/>
</g>
<!-- Node27&#45;&gt;Node15 -->
<g id="edge68" class="edge"><title>Node27&#45;&gt;Node15</title>
<path fill="none" stroke="midnightblue" d="M1004.02,-179.479C987.394,-156.104 954.061,-109.253 936.111,-84.0222"/>
<polygon fill="midnightblue" stroke="midnightblue" points="938.902,-81.9077 930.253,-75.7885 933.198,-85.9658 938.902,-81.9077"/>
</g>
</g>
</svg>
